<svg xmlns="http://www.w3.org/2000/svg" viewBox="0 0 1600 1060" role="img"><svg x="620" y="64" width="646.0" height="884.0" viewBox="0 0 760 1040"><defs><linearGradient id="metalV" x1="0" y1="0" x2="0" y2="1"><stop offset="0" stop-color="#aeb9cc"/><stop offset=".45" stop-color="#7a828f"/><stop offset="1" stop-color="#5a6373"/></linearGradient><linearGradient id="metalH" x1="0" y1="0" x2="1" y2="0"><stop offset="0" stop-color="#5a6373"/><stop offset=".5" stop-color="#9aa4b4"/><stop offset="1" stop-color="#5a6373"/></linearGradient><linearGradient id="siGrad" x1="0" y1="0" x2="1" y2="0"><stop offset="0" stop-color="#3c434e"/><stop offset=".4" stop-color="#7b8492"/><stop offset=".55" stop-color="#98a2b0"/><stop offset="1" stop-color="#454c57"/></linearGradient><linearGradient id="copper" x1="0" y1="0" x2="0" y2="1"><stop offset="0" stop-color="#e8935a"/><stop offset=".5" stop-color="#d97a3c"/><stop offset="1" stop-color="#a85826"/></linearGradient><radialGradient id="quartz" cx=".5" cy=".35" r=".8"><stop offset="0" stop-color="#cfe4f2" stop-opacity=".5"/><stop offset="1" stop-color="#8fb8e6" stop-opacity=".12"/></radialGradient><linearGradient id="ceramic" x1="0" y1="0" x2="0" y2="1"><stop offset="0" stop-color="#d8dce2"/><stop offset="1" stop-color="#9aa0aa"/></linearGradient><clipPath id="cL"><path d="M140,270 L140,858 L172,858 L172,270 Z"/></clipPath><clipPath id="cR"><path d="M588,270 L588,858 L620,858 L620,270 Z"/></clipPath><clipPath id="cD"><path d="M140,270 A240,140 0 0 1 620,270 L588,270 A208,108 0 0 0 172,270 Z"/></clipPath><clipPath id="cBP"><path d="M140,858 L620,858 L620,906 L140,906 Z"/></clipPath></defs><path d="M140,858 L140,270 A240,140 0 0 1 620,270 L620,858 Z" fill="url(#metalV)" opacity=".55"/><path d="M172,858 L172,270 A208,108 0 0 1 588,270 L588,858 Z" fill="url(#quartz)" opacity=".5"/><g clip-path="url(#cL)" stroke="#d7e3f4" stroke-width="0.6" opacity="0.35"><line x1="165" y1="270" x2="172" y2="277"/><line x1="158" y1="270" x2="172" y2="284"/><line x1="151" y1="270" x2="172" y2="291"/><line x1="144" y1="270" x2="172" y2="298"/><line x1="140" y1="273" x2="172" y2="305"/><line x1="140" y1="280" x2="172" y2="312"/><line x1="140" y1="287" x2="172" y2="319"/><line x1="140" y1="294" x2="172" y2="326"/><line x1="140" y1="301" x2="172" y2="333"/><line x1="140" y1="308" x2="172" y2="340"/><line x1="140" y1="315" x2="172" y2="347"/><line x1="140" y1="322" x2="172" y2="354"/><line x1="140" y1="329" x2="172" y2="361"/><line x1="140" y1="336" x2="172" y2="368"/><line x1="140" y1="343" x2="172" y2="375"/><line x1="140" y1="350" x2="172" y2="382"/><line x1="140" y1="357" x2="172" y2="389"/><line x1="140" y1="364" x2="172" y2="396"/><line x1="140" y1="371" x2="172" y2="403"/><line x1="140" y1="378" x2="172" y2="410"/><line x1="140" y1="385" x2="172" y2="417"/><line x1="140" y1="392" x2="172" y2="424"/><line x1="140" y1="399" x2="172" y2="431"/><line x1="140" y1="406" x2="172" y2="438"/><line x1="140" y1="413" x2="172" y2="445"/><line x1="140" y1="420" x2="172" y2="452"/><line x1="140" y1="427" x2="172" y2="459"/><line x1="140" y1="434" x2="172" y2="466"/><line x1="140" y1="441" x2="172" y2="473"/><line x1="140" y1="448" x2="172" y2="480"/><line x1="140" y1="455" x2="172" y2="487"/><line x1="140" y1="462" x2="172" y2="494"/><line x1="140" y1="469" x2="172" y2="501"/><line x1="140" y1="476" x2="172" y2="508"/><line x1="140" y1="483" x2="172" y2="515"/><line x1="140" y1="490" x2="172" y2="522"/><line x1="140" y1="497" x2="172" y2="529"/><line x1="140" y1="504" x2="172" y2="536"/><line x1="140" y1="511" x2="172" y2="543"/><line x1="140" y1="518" x2="172" y2="550"/><line x1="140" y1="525" x2="172" y2="557"/><line x1="140" y1="532" x2="172" y2="564"/><line x1="140" y1="539" x2="172" y2="571"/><line x1="140" y1="546" x2="172" y2="578"/><line x1="140" y1="553" x2="172" y2="585"/><line x1="140" y1="560" x2="172" y2="592"/><line x1="140" y1="567" x2="172" y2="599"/><line x1="140" y1="574" x2="172" y2="606"/><line x1="140" y1="581" x2="172" y2="613"/><line x1="140" y1="588" x2="172" y2="620"/><line x1="140" y1="595" x2="172" y2="627"/><line x1="140" y1="602" x2="172" y2="634"/><line x1="140" y1="609" x2="172" y2="641"/><line x1="140" y1="616" x2="172" y2="648"/><line x1="140" y1="623" x2="172" y2="655"/><line x1="140" y1="630" x2="172" y2="662"/><line x1="140" y1="637" x2="172" y2="669"/><line x1="140" y1="644" x2="172" y2="676"/><line x1="140" y1="651" x2="172" y2="683"/><line x1="140" y1="658" x2="172" y2="690"/><line x1="140" y1="665" x2="172" y2="697"/><line x1="140" y1="672" x2="172" y2="704"/><line x1="140" y1="679" x2="172" y2="711"/><line x1="140" y1="686" x2="172" y2="718"/><line x1="140" y1="693" x2="172" y2="725"/><line x1="140" y1="700" x2="172" y2="732"/><line x1="140" y1="707" x2="172" y2="739"/><line x1="140" y1="714" x2="172" y2="746"/><line x1="140" y1="721" x2="172" y2="753"/><line x1="140" y1="728" x2="172" y2="760"/><line x1="140" y1="735" x2="172" y2="767"/><line x1="140" y1="742" x2="172" y2="774"/><line x1="140" y1="749" x2="172" y2="781"/><line x1="140" y1="756" x2="172" y2="788"/><line x1="140" y1="763" x2="172" y2="795"/><line x1="140" y1="770" x2="172" y2="802"/><line x1="140" y1="777" x2="172" y2="809"/><line x1="140" y1="784" x2="172" y2="816"/><line x1="140" y1="791" x2="172" y2="823"/><line x1="140" y1="798" x2="172" y2="830"/><line x1="140" y1="805" x2="172" y2="837"/><line x1="140" y1="812" x2="172" y2="844"/><line x1="140" y1="819" x2="172" y2="851"/><line x1="140" y1="826" x2="172" y2="858"/><line x1="140" y1="833" x2="165" y2="858"/><line x1="140" y1="840" x2="158" y2="858"/><line x1="140" y1="847" x2="151" y2="858"/><line x1="140" y1="854" x2="144" y2="858"/></g><g clip-path="url(#cR)" stroke="#d7e3f4" stroke-width="0.6" opacity="0.35"><line x1="613" y1="270" x2="620" y2="277"/><line x1="606" y1="270" x2="620" y2="284"/><line x1="599" y1="270" x2="620" y2="291"/><line x1="592" y1="270" x2="620" y2="298"/><line x1="588" y1="273" x2="620" y2="305"/><line x1="588" y1="280" x2="620" y2="312"/><line x1="588" y1="287" x2="620" y2="319"/><line x1="588" y1="294" x2="620" y2="326"/><line x1="588" y1="301" x2="620" y2="333"/><line x1="588" y1="308" x2="620" y2="340"/><line x1="588" y1="315" x2="620" y2="347"/><line x1="588" y1="322" x2="620" y2="354"/><line x1="588" y1="329" x2="620" y2="361"/><line x1="588" y1="336" x2="620" y2="368"/><line x1="588" y1="343" x2="620" y2="375"/><line x1="588" y1="350" x2="620" y2="382"/><line x1="588" y1="357" x2="620" y2="389"/><line x1="588" y1="364" x2="620" y2="396"/><line x1="588" y1="371" x2="620" y2="403"/><line x1="588" y1="378" x2="620" y2="410"/><line x1="588" y1="385" x2="620" y2="417"/><line x1="588" y1="392" x2="620" y2="424"/><line x1="588" y1="399" x2="620" y2="431"/><line x1="588" y1="406" x2="620" y2="438"/><line x1="588" y1="413" x2="620" y2="445"/><line x1="588" y1="420" x2="620" y2="452"/><line x1="588" y1="427" x2="620" y2="459"/><line x1="588" y1="434" x2="620" y2="466"/><line x1="588" y1="441" x2="620" y2="473"/><line x1="588" y1="448" x2="620" y2="480"/><line x1="588" y1="455" x2="620" y2="487"/><line x1="588" y1="462" x2="620" y2="494"/><line x1="588" y1="469" x2="620" y2="501"/><line x1="588" y1="476" x2="620" y2="508"/><line x1="588" y1="483" x2="620" y2="515"/><line x1="588" y1="490" x2="620" y2="522"/><line x1="588" y1="497" x2="620" y2="529"/><line x1="588" y1="504" x2="620" y2="536"/><line x1="588" y1="511" x2="620" y2="543"/><line x1="588" y1="518" x2="620" y2="550"/><line x1="588" y1="525" x2="620" y2="557"/><line x1="588" y1="532" x2="620" y2="564"/><line x1="588" y1="539" x2="620" y2="571"/><line x1="588" y1="546" x2="620" y2="578"/><line x1="588" y1="553" x2="620" y2="585"/><line x1="588" y1="560" x2="620" y2="592"/><line x1="588" y1="567" x2="620" y2="599"/><line x1="588" y1="574" x2="620" y2="606"/><line x1="588" y1="581" x2="620" y2="613"/><line x1="588" y1="588" x2="620" y2="620"/><line x1="588" y1="595" x2="620" y2="627"/><line x1="588" y1="602" x2="620" y2="634"/><line x1="588" y1="609" x2="620" y2="641"/><line x1="588" y1="616" x2="620" y2="648"/><line x1="588" y1="623" x2="620" y2="655"/><line x1="588" y1="630" x2="620" y2="662"/><line x1="588" y1="637" x2="620" y2="669"/><line x1="588" y1="644" x2="620" y2="676"/><line x1="588" y1="651" x2="620" y2="683"/><line x1="588" y1="658" x2="620" y2="690"/><line x1="588" y1="665" x2="620" y2="697"/><line x1="588" y1="672" x2="620" y2="704"/><line x1="588" y1="679" x2="620" y2="711"/><line x1="588" y1="686" x2="620" y2="718"/><line x1="588" y1="693" x2="620" y2="725"/><line x1="588" y1="700" x2="620" y2="732"/><line x1="588" y1="707" x2="620" y2="739"/><line x1="588" y1="714" x2="620" y2="746"/><line x1="588" y1="721" x2="620" y2="753"/><line x1="588" y1="728" x2="620" y2="760"/><line x1="588" y1="735" x2="620" y2="767"/><line x1="588" y1="742" x2="620" y2="774"/><line x1="588" y1="749" x2="620" y2="781"/><line x1="588" y1="756" x2="620" y2="788"/><line x1="588" y1="763" x2="620" y2="795"/><line x1="588" y1="770" x2="620" y2="802"/><line x1="588" y1="777" x2="620" y2="809"/><line x1="588" y1="784" x2="620" y2="816"/><line x1="588" y1="791" x2="620" y2="823"/><line x1="588" y1="798" x2="620" y2="830"/><line x1="588" y1="805" x2="620" y2="837"/><line x1="588" y1="812" x2="620" y2="844"/><line x1="588" y1="819" x2="620" y2="851"/><line x1="588" y1="826" x2="620" y2="858"/><line x1="588" y1="833" x2="613" y2="858"/><line x1="588" y1="840" x2="606" y2="858"/><line x1="588" y1="847" x2="599" y2="858"/><line x1="588" y1="854" x2="592" y2="858"/></g><g clip-path="url(#cD)" stroke="#d7e3f4" stroke-width="0.6" opacity="0.35"><line x1="613" y1="128" x2="620" y2="135"/><line x1="606" y1="128" x2="620" y2="142"/><line x1="599" y1="128" x2="620" y2="149"/><line x1="592" y1="128" x2="620" y2="156"/><line x1="585" y1="128" x2="620" y2="163"/><line x1="578" y1="128" x2="620" y2="170"/><line x1="571" y1="128" x2="620" y2="177"/><line x1="564" y1="128" x2="620" y2="184"/><line x1="557" y1="128" x2="620" y2="191"/><line x1="550" y1="128" x2="620" y2="198"/><line x1="543" y1="128" x2="620" y2="205"/><line x1="536" y1="128" x2="620" y2="212"/><line x1="529" y1="128" x2="620" y2="219"/><line x1="522" y1="128" x2="620" y2="226"/><line x1="515" y1="128" x2="620" y2="233"/><line x1="508" y1="128" x2="620" y2="240"/><line x1="501" y1="128" x2="620" y2="247"/><line x1="494" y1="128" x2="620" y2="254"/><line x1="487" y1="128" x2="620" y2="261"/><line x1="480" y1="128" x2="620" y2="268"/><line x1="473" y1="128" x2="615" y2="270"/><line x1="466" y1="128" x2="608" y2="270"/><line x1="459" y1="128" x2="601" y2="270"/><line x1="452" y1="128" x2="594" y2="270"/><line x1="445" y1="128" x2="587" y2="270"/><line x1="438" y1="128" x2="580" y2="270"/><line x1="431" y1="128" x2="573" y2="270"/><line x1="424" y1="128" x2="566" y2="270"/><line x1="417" y1="128" x2="559" y2="270"/><line x1="410" y1="128" x2="552" y2="270"/><line x1="403" y1="128" x2="545" y2="270"/><line x1="396" y1="128" x2="538" y2="270"/><line x1="389" y1="128" x2="531" y2="270"/><line x1="382" y1="128" x2="524" y2="270"/><line x1="375" y1="128" x2="517" y2="270"/><line x1="368" y1="128" x2="510" y2="270"/><line x1="361" y1="128" x2="503" y2="270"/><line x1="354" y1="128" x2="496" y2="270"/><line x1="347" y1="128" x2="489" y2="270"/><line x1="340" y1="128" x2="482" y2="270"/><line x1="333" y1="128" x2="475" y2="270"/><line x1="326" y1="128" x2="468" y2="270"/><line x1="319" y1="128" x2="461" y2="270"/><line x1="312" y1="128" x2="454" y2="270"/><line x1="305" y1="128" x2="447" y2="270"/><line x1="298" y1="128" x2="440" y2="270"/><line x1="291" y1="128" x2="433" y2="270"/><line x1="284" y1="128" x2="426" y2="270"/><line x1="277" y1="128" x2="419" y2="270"/><line x1="270" y1="128" x2="412" y2="270"/><line x1="263" y1="128" x2="405" y2="270"/><line x1="256" y1="128" x2="398" y2="270"/><line x1="249" y1="128" x2="391" y2="270"/><line x1="242" y1="128" x2="384" y2="270"/><line x1="235" y1="128" x2="377" y2="270"/><line x1="228" y1="128" x2="370" y2="270"/><line x1="221" y1="128" x2="363" y2="270"/><line x1="214" y1="128" x2="356" y2="270"/><line x1="207" y1="128" x2="349" y2="270"/><line x1="200" y1="128" x2="342" y2="270"/><line x1="193" y1="128" x2="335" y2="270"/><line x1="186" y1="128" x2="328" y2="270"/><line x1="179" y1="128" x2="321" y2="270"/><line x1="172" y1="128" x2="314" y2="270"/><line x1="165" y1="128" x2="307" y2="270"/><line x1="158" y1="128" x2="300" y2="270"/><line x1="151" y1="128" x2="293" y2="270"/><line x1="144" y1="128" x2="286" y2="270"/><line x1="140" y1="131" x2="279" y2="270"/><line x1="140" y1="138" x2="272" y2="270"/><line x1="140" y1="145" x2="265" y2="270"/><line x1="140" y1="152" x2="258" y2="270"/><line x1="140" y1="159" x2="251" y2="270"/><line x1="140" y1="166" x2="244" y2="270"/><line x1="140" y1="173" x2="237" y2="270"/><line x1="140" y1="180" x2="230" y2="270"/><line x1="140" y1="187" x2="223" y2="270"/><line x1="140" y1="194" x2="216" y2="270"/><line x1="140" y1="201" x2="209" y2="270"/><line x1="140" y1="208" x2="202" y2="270"/><line x1="140" y1="215" x2="195" y2="270"/><line x1="140" y1="222" x2="188" y2="270"/><line x1="140" y1="229" x2="181" y2="270"/><line x1="140" y1="236" x2="174" y2="270"/><line x1="140" y1="243" x2="167" y2="270"/><line x1="140" y1="250" x2="160" y2="270"/><line x1="140" y1="257" x2="153" y2="270"/><line x1="140" y1="264" x2="146" y2="270"/></g><path d="M140,858 L140,270 A240,140 0 0 1 620,270 L620,858 Z" stroke="#d7e3f4" stroke-width="2" fill="none" opacity=".92"/><path d="M172,858 L172,270 A208,108 0 0 1 588,270 L588,858 Z" stroke="#d7e3f4" stroke-width="1.1" fill="none" opacity=".55"/><path d="M176,858 L176,272" stroke="#d7e3f4" stroke-width="0.6" fill="none" opacity=".3"/><path d="M584,858 L584,272" stroke="#d7e3f4" stroke-width="0.6" fill="none" opacity=".3"/><circle cx="156" cy="300" r="3.2" fill="none" stroke="#8fb8e6" stroke-width="1.4" opacity=".8"/><circle cx="156" cy="362" r="3.2" fill="none" stroke="#8fb8e6" stroke-width="1.4" opacity=".8"/><circle cx="156" cy="424" r="3.2" fill="none" stroke="#8fb8e6" stroke-width="1.4" opacity=".8"/><circle cx="156" cy="486" r="3.2" fill="none" stroke="#8fb8e6" stroke-width="1.4" opacity=".8"/><circle cx="156" cy="548" r="3.2" fill="none" stroke="#8fb8e6" stroke-width="1.4" opacity=".8"/><circle cx="156" cy="610" r="3.2" fill="none" stroke="#8fb8e6" stroke-width="1.4" opacity=".8"/><circle cx="156" cy="672" r="3.2" fill="none" stroke="#8fb8e6" stroke-width="1.4" opacity=".8"/><circle cx="156" cy="734" r="3.2" fill="none" stroke="#8fb8e6" stroke-width="1.4" opacity=".8"/><circle cx="156" cy="796" r="3.2" fill="none" stroke="#8fb8e6" stroke-width="1.4" opacity=".8"/><circle cx="604" cy="300" r="3.2" fill="none" stroke="#8fb8e6" stroke-width="1.4" opacity=".8"/><circle cx="604" cy="362" r="3.2" fill="none" stroke="#8fb8e6" stroke-width="1.4" opacity=".8"/><circle cx="604" cy="424" r="3.2" fill="none" stroke="#8fb8e6" stroke-width="1.4" opacity=".8"/><circle cx="604" cy="486" r="3.2" fill="none" stroke="#8fb8e6" stroke-width="1.4" opacity=".8"/><circle cx="604" cy="548" r="3.2" fill="none" stroke="#8fb8e6" stroke-width="1.4" opacity=".8"/><circle cx="604" cy="610" r="3.2" fill="none" stroke="#8fb8e6" stroke-width="1.4" opacity=".8"/><circle cx="604" cy="672" r="3.2" fill="none" stroke="#8fb8e6" stroke-width="1.4" opacity=".8"/><circle cx="604" cy="734" r="3.2" fill="none" stroke="#8fb8e6" stroke-width="1.4" opacity=".8"/><circle cx="604" cy="796" r="3.2" fill="none" stroke="#8fb8e6" stroke-width="1.4" opacity=".8"/><rect x="110" y="319" width="30" height="22" rx="3" fill="url(#metalH)" stroke="#d7e3f4" stroke-width="1.1" opacity=".55"/><rect x="94" y="323" width="16" height="14" fill="url(#copper)" stroke="#d7e3f4" stroke-width="1.1" opacity=".55"/><circle cx="102" cy="330" r="4" fill="none" stroke="#8fb8e6" stroke-width="1.4" opacity=".8"/><circle cx="136" cy="322" r="1.8" fill="#d7e3f4" opacity=".7"/><circle cx="136" cy="338" r="1.8" fill="#d7e3f4" opacity=".7"/><rect x="110" y="809" width="30" height="22" rx="3" fill="url(#metalH)" stroke="#d7e3f4" stroke-width="1.1" opacity=".55"/><rect x="94" y="813" width="16" height="14" fill="url(#copper)" stroke="#d7e3f4" stroke-width="1.1" opacity=".55"/><circle cx="102" cy="820" r="4" fill="none" stroke="#8fb8e6" stroke-width="1.4" opacity=".8"/><circle cx="136" cy="812" r="1.8" fill="#d7e3f4" opacity=".7"/><circle cx="136" cy="828" r="1.8" fill="#d7e3f4" opacity=".7"/><ellipse cx="380" cy="130" rx="46" ry="15" fill="url(#metalH)" stroke="#d7e3f4" stroke-width="2" opacity=".92"/><ellipse cx="380" cy="127" rx="30" ry="9" fill="url(#metalV)" stroke="#d7e3f4" stroke-width="1.1" opacity=".55"/><path d="M380,122 L380,90" stroke="#d7e3f4" stroke-width="4" fill="none" opacity=".92"/><path d="M380,90 a20,20 0 1 1 -6,-14" stroke="#d7e3f4" stroke-width="4" fill="none" opacity=".92"/><circle cx="380" cy="68" r="9" fill="none" stroke="#d7e3f4" stroke-width="2" opacity=".92"/><circle cx="414" cy="130" r="2.2" fill="#d7e3f4" opacity=".8"/><circle cx="397" cy="139.5" r="2.2" fill="#d7e3f4" opacity=".8"/><circle cx="363" cy="139.5" r="2.2" fill="#d7e3f4" opacity=".8"/><circle cx="346" cy="130" r="2.2" fill="#d7e3f4" opacity=".8"/><circle cx="363" cy="120.5" r="2.2" fill="#d7e3f4" opacity=".8"/><circle cx="397" cy="120.5" r="2.2" fill="#d7e3f4" opacity=".8"/><path d="M237.6,336 L234,363.2 L227.4,390.3 L216,417.5 L219.2,444.6 L217.2,471.8 L229.2,498.9 L220.8,526.1 L232.7,553.3 L224,580.4 L233.7,607.6 L214.1,634.7 L220.8,661.9 L212.8,689.1 L231.5,716.2 L224.3,743.4 L230.8,770.5 L220.8,797.7 L226.1,824.8 L218,852 L277.4,852 L274.1,824.8 L269.3,797.7 L271.8,770.5 L265,743.4 L275.9,716.2 L281.2,689.1 L274.1,661.9 L283.1,634.7 L270.8,607.6 L269.7,580.4 L266.6,553.3 L275.1,526.1 L270,498.9 L281.7,471.8 L283.4,444.6 L267.7,417.5 L281.9,390.3 L260.2,363.2 L261.2,336 Z" fill="url(#siGrad)" fill-opacity=".92" stroke="#d7e3f4" stroke-width="1.1" stroke-opacity=".55"/><path d="M315.2,336 L313.7,363.2 L299,390.3 L306.5,417.5 L293.8,444.6 L311.7,471.8 L307,498.9 L318.3,526.1 L299.9,553.3 L304.2,580.4 L295.1,607.6 L304.1,634.7 L297.7,661.9 L304,689.1 L306.4,716.2 L309.7,743.4 L304.7,770.5 L293.3,797.7 L295.6,824.8 L294.4,852 L365.7,852 L355.8,824.8 L357.8,797.7 L353.6,770.5 L349.3,743.4 L346,716.2 L352.3,689.1 L359.4,661.9 L350.9,634.7 L369.8,607.6 L349.1,580.4 L352.2,553.3 L352.4,526.1 L343.4,498.9 L356.5,471.8 L354.4,444.6 L363.9,417.5 L352.6,390.3 L356.9,363.2 L339.3,336 Z" fill="url(#siGrad)" fill-opacity=".92" stroke="#d7e3f4" stroke-width="1.1" stroke-opacity=".55"/><path d="M418.5,336 L398.5,363.2 L408.4,390.3 L404.4,417.5 L414.5,444.6 L405.3,471.8 L411.3,498.9 L405.5,526.1 L402.6,553.3 L396,580.4 L396.9,607.6 L407.9,634.7 L408.4,661.9 L411.8,689.1 L399.1,716.2 L406.3,743.4 L395.5,770.5 L404,797.7 L392.1,824.8 L410,852 L445.1,852 L465.2,824.8 L453.5,797.7 L459.3,770.5 L461.8,743.4 L442.1,716.2 L455.1,689.1 L445.4,661.9 L455,634.7 L455.2,607.6 L463.3,580.4 L456.9,553.3 L451.1,526.1 L457.7,498.9 L438.7,471.8 L456.1,444.6 L453.8,417.5 L455.9,390.3 L457.6,363.2 L445.3,336 Z" fill="url(#siGrad)" fill-opacity=".92" stroke="#d7e3f4" stroke-width="1.1" stroke-opacity=".55"/><path d="M494.4,336 L488.6,363.2 L486,390.3 L493.7,417.5 L496.1,444.6 L486.4,471.8 L483.4,498.9 L476.8,526.1 L488.7,553.3 L482.3,580.4 L493.3,607.6 L485.3,634.7 L499.6,661.9 L484.3,689.1 L488.2,716.2 L473.1,743.4 L489.6,770.5 L486.4,797.7 L497.7,824.8 L487.7,852 L527.7,852 L531.1,824.8 L532.8,797.7 L538.8,770.5 L536.9,743.4 L545,716.2 L524.9,689.1 L535.7,661.9 L527.3,634.7 L526.2,607.6 L540.5,580.4 L536.1,553.3 L539.7,526.1 L537.5,498.9 L534.7,471.8 L522.9,444.6 L534.5,417.5 L528.8,390.3 L531,363.2 L528.7,336 Z" fill="url(#siGrad)" fill-opacity=".92" stroke="#d7e3f4" stroke-width="1.1" stroke-opacity=".55"/><path d="M226,324.9 L258,317.5 L290,319.3 L322,323.3 L354,317.5 L354,357.8 L322,357.9 L290,358.2 L258,366.4 L226,359.1 Z" fill="url(#siGrad)" fill-opacity=".92" stroke="#d7e3f4" stroke-width="1.1" stroke-opacity=".55"/><path d="M406,320.8 L438,317.7 L470,313.1 L502,319.1 L534,326.9 L534,352.4 L502,362.1 L470,365.8 L438,356.3 L406,358.2 Z" fill="url(#siGrad)" fill-opacity=".92" stroke="#d7e3f4" stroke-width="1.1" stroke-opacity=".55"/><path d="M250,354 L250,846" stroke="#ff7a26" stroke-width="16" fill="none" opacity=".10" stroke-linecap="round"/><path d="M250,354 L250,846" stroke="#ff8c3a" stroke-width="7" fill="none" opacity=".28" stroke-linecap="round"/><path d="M250,354 L250,846" stroke="#ffd29a" stroke-width="2.4" fill="none" opacity=".9" stroke-linecap="round"/><path d="M330,354 L330,846" stroke="#ff7a26" stroke-width="16" fill="none" opacity=".10" stroke-linecap="round"/><path d="M330,354 L330,846" stroke="#ff8c3a" stroke-width="7" fill="none" opacity=".28" stroke-linecap="round"/><path d="M330,354 L330,846" stroke="#ffd29a" stroke-width="2.4" fill="none" opacity=".9" stroke-linecap="round"/><path d="M430,354 L430,846" stroke="#ff7a26" stroke-width="16" fill="none" opacity=".10" stroke-linecap="round"/><path d="M430,354 L430,846" stroke="#ff8c3a" stroke-width="7" fill="none" opacity=".28" stroke-linecap="round"/><path d="M430,354 L430,846" stroke="#ffd29a" stroke-width="2.4" fill="none" opacity=".9" stroke-linecap="round"/><path d="M510,354 L510,846" stroke="#ff7a26" stroke-width="16" fill="none" opacity=".10" stroke-linecap="round"/><path d="M510,354 L510,846" stroke="#ff8c3a" stroke-width="7" fill="none" opacity=".28" stroke-linecap="round"/><path d="M510,354 L510,846" stroke="#ffd29a" stroke-width="2.4" fill="none" opacity=".9" stroke-linecap="round"/><path d="M250,338 L330,338" stroke="#ff7a26" stroke-width="16" fill="none" opacity=".10" stroke-linecap="round"/><path d="M250,338 L330,338" stroke="#ff8c3a" stroke-width="7" fill="none" opacity=".28" stroke-linecap="round"/><path d="M250,338 L330,338" stroke="#ffd29a" stroke-width="2.4" fill="none" opacity=".9" stroke-linecap="round"/><path d="M430,338 L510,338" stroke="#ff7a26" stroke-width="16" fill="none" opacity=".10" stroke-linecap="round"/><path d="M430,338 L510,338" stroke="#ff8c3a" stroke-width="7" fill="none" opacity=".28" stroke-linecap="round"/><path d="M430,338 L510,338" stroke="#ffd29a" stroke-width="2.4" fill="none" opacity=".9" stroke-linecap="round"/><path d="M250,352 L250,848" stroke="#2a2f38" stroke-width="1.2" fill="none" opacity=".5"/><path d="M330,352 L330,848" stroke="#2a2f38" stroke-width="1.2" fill="none" opacity=".5"/><path d="M430,352 L430,848" stroke="#2a2f38" stroke-width="1.2" fill="none" opacity=".5"/><path d="M510,352 L510,848" stroke="#2a2f38" stroke-width="1.2" fill="none" opacity=".5"/><path d="M232.9,413.2 a3.1,3.1 0 0 0 6.3,0" stroke="#d7e3f4" stroke-width="0.6" fill="none" opacity=".3"/><path d="M233.2,561.1 a3.2,3.2 0 0 0 6.3,0" stroke="#d7e3f4" stroke-width="0.6" fill="none" opacity=".3"/><path d="M234.9,696.1 a4.3,4.3 0 0 0 8.5,0" stroke="#d7e3f4" stroke-width="0.6" fill="none" opacity=".3"/><path d="M255.9,831.9 a4.7,4.7 0 0 1 9.4,0" stroke="#d7e3f4" stroke-width="0.6" fill="none" opacity=".3"/><path d="M230,983.2 a4.2,4.2 0 0 0 8.4,0" stroke="#d7e3f4" stroke-width="0.6" fill="none" opacity=".3"/><path d="M311,423.6 a3.4,3.4 0 0 0 6.8,0" stroke="#d7e3f4" stroke-width="0.6" fill="none" opacity=".3"/><path d="M309.6,554.7 a4.7,4.7 0 0 0 9.4,0" stroke="#d7e3f4" stroke-width="0.6" fill="none" opacity=".3"/><path d="M309.3,698.9 a4.9,4.9 0 0 0 9.8,0" stroke="#d7e3f4" stroke-width="0.6" fill="none" opacity=".3"/><path d="M309.5,834 a4.9,4.9 0 0 0 9.7,0" stroke="#d7e3f4" stroke-width="0.6" fill="none" opacity=".3"/><path d="M343.4,975.9 a4.4,4.4 0 0 1 8.8,0" stroke="#d7e3f4" stroke-width="0.6" fill="none" opacity=".3"/><path d="M437.6,422.8 a5.4,5.4 0 0 1 10.8,0" stroke="#d7e3f4" stroke-width="0.6" fill="none" opacity=".3"/><path d="M415.3,559.2 a3.9,3.9 0 0 0 7.8,0" stroke="#d7e3f4" stroke-width="0.6" fill="none" opacity=".3"/><path d="M443.4,695.9 a3.9,3.9 0 0 1 7.7,0" stroke="#d7e3f4" stroke-width="0.6" fill="none" opacity=".3"/><path d="M411.4,843.7 a3.5,3.5 0 0 0 7,0" stroke="#d7e3f4" stroke-width="0.6" fill="none" opacity=".3"/><path d="M438.3,973.5 a5.9,5.9 0 0 1 11.8,0" stroke="#d7e3f4" stroke-width="0.6" fill="none" opacity=".3"/><path d="M519.4,409.2 a4.1,4.1 0 0 1 8.1,0" stroke="#d7e3f4" stroke-width="0.6" fill="none" opacity=".3"/><path d="M517.4,555.9 a3.3,3.3 0 0 1 6.6,0" stroke="#d7e3f4" stroke-width="0.6" fill="none" opacity=".3"/><path d="M494.3,692.3 a5.1,5.1 0 0 0 10.2,0" stroke="#d7e3f4" stroke-width="0.6" fill="none" opacity=".3"/><path d="M518.7,838.4 a4.2,4.2 0 0 1 8.3,0" stroke="#d7e3f4" stroke-width="0.6" fill="none" opacity=".3"/><path d="M486.5,978.7 a4.1,4.1 0 0 0 8.1,0" stroke="#d7e3f4" stroke-width="0.6" fill="none" opacity=".3"/><rect x="140" y="858" width="480" height="48" fill="url(#metalV)" stroke="#d7e3f4" stroke-width="2" opacity=".92"/><g clip-path="url(#cBP)" stroke="#d7e3f4" stroke-width="0.6" opacity="0.35"><line x1="613" y1="858" x2="620" y2="865"/><line x1="606" y1="858" x2="620" y2="872"/><line x1="599" y1="858" x2="620" y2="879"/><line x1="592" y1="858" x2="620" y2="886"/><line x1="585" y1="858" x2="620" y2="893"/><line x1="578" y1="858" x2="620" y2="900"/><line x1="571" y1="858" x2="619" y2="906"/><line x1="564" y1="858" x2="612" y2="906"/><line x1="557" y1="858" x2="605" y2="906"/><line x1="550" y1="858" x2="598" y2="906"/><line x1="543" y1="858" x2="591" y2="906"/><line x1="536" y1="858" x2="584" y2="906"/><line x1="529" y1="858" x2="577" y2="906"/><line x1="522" y1="858" x2="570" y2="906"/><line x1="515" y1="858" x2="563" y2="906"/><line x1="508" y1="858" x2="556" y2="906"/><line x1="501" y1="858" x2="549" y2="906"/><line x1="494" y1="858" x2="542" y2="906"/><line x1="487" y1="858" x2="535" y2="906"/><line x1="480" y1="858" x2="528" y2="906"/><line x1="473" y1="858" x2="521" y2="906"/><line x1="466" y1="858" x2="514" y2="906"/><line x1="459" y1="858" x2="507" y2="906"/><line x1="452" y1="858" x2="500" y2="906"/><line x1="445" y1="858" x2="493" y2="906"/><line x1="438" y1="858" x2="486" y2="906"/><line x1="431" y1="858" x2="479" y2="906"/><line x1="424" y1="858" x2="472" y2="906"/><line x1="417" y1="858" x2="465" y2="906"/><line x1="410" y1="858" x2="458" y2="906"/><line x1="403" y1="858" x2="451" y2="906"/><line x1="396" y1="858" x2="444" y2="906"/><line x1="389" y1="858" x2="437" y2="906"/><line x1="382" y1="858" x2="430" y2="906"/><line x1="375" y1="858" x2="423" y2="906"/><line x1="368" y1="858" x2="416" y2="906"/><line x1="361" y1="858" x2="409" y2="906"/><line x1="354" y1="858" x2="402" y2="906"/><line x1="347" y1="858" x2="395" y2="906"/><line x1="340" y1="858" x2="388" y2="906"/><line x1="333" y1="858" x2="381" y2="906"/><line x1="326" y1="858" x2="374" y2="906"/><line x1="319" y1="858" x2="367" y2="906"/><line x1="312" y1="858" x2="360" y2="906"/><line x1="305" y1="858" x2="353" y2="906"/><line x1="298" y1="858" x2="346" y2="906"/><line x1="291" y1="858" x2="339" y2="906"/><line x1="284" y1="858" x2="332" y2="906"/><line x1="277" y1="858" x2="325" y2="906"/><line x1="270" y1="858" x2="318" y2="906"/><line x1="263" y1="858" x2="311" y2="906"/><line x1="256" y1="858" x2="304" y2="906"/><line x1="249" y1="858" x2="297" y2="906"/><line x1="242" y1="858" x2="290" y2="906"/><line x1="235" y1="858" x2="283" y2="906"/><line x1="228" y1="858" x2="276" y2="906"/><line x1="221" y1="858" x2="269" y2="906"/><line x1="214" y1="858" x2="262" y2="906"/><line x1="207" y1="858" x2="255" y2="906"/><line x1="200" y1="858" x2="248" y2="906"/><line x1="193" y1="858" x2="241" y2="906"/><line x1="186" y1="858" x2="234" y2="906"/><line x1="179" y1="858" x2="227" y2="906"/><line x1="172" y1="858" x2="220" y2="906"/><line x1="165" y1="858" x2="213" y2="906"/><line x1="158" y1="858" x2="206" y2="906"/><line x1="151" y1="858" x2="199" y2="906"/><line x1="144" y1="858" x2="192" y2="906"/><line x1="140" y1="861" x2="185" y2="906"/><line x1="140" y1="868" x2="178" y2="906"/><line x1="140" y1="875" x2="171" y2="906"/><line x1="140" y1="882" x2="164" y2="906"/><line x1="140" y1="889" x2="157" y2="906"/><line x1="140" y1="896" x2="150" y2="906"/><line x1="140" y1="903" x2="143" y2="906"/></g><line x1="140" y1="858" x2="620" y2="858" stroke="#d7e3f4" stroke-width="2" fill="none" opacity=".92"/><rect x="120" y="906" width="520" height="26" fill="url(#metalH)" stroke="#d7e3f4" stroke-width="2" opacity=".92"/><circle cx="132" cy="919" r="3" fill="#0a0f18" stroke="#d7e3f4" stroke-width="1.1" opacity=".55"/><circle cx="163" cy="919" r="3" fill="#0a0f18" stroke="#d7e3f4" stroke-width="1.1" opacity=".55"/><circle cx="194" cy="919" r="3" fill="#0a0f18" stroke="#d7e3f4" stroke-width="1.1" opacity=".55"/><circle cx="225" cy="919" r="3" fill="#0a0f18" stroke="#d7e3f4" stroke-width="1.1" opacity=".55"/><circle cx="256" cy="919" r="3" fill="#0a0f18" stroke="#d7e3f4" stroke-width="1.1" opacity=".55"/><circle cx="287" cy="919" r="3" fill="#0a0f18" stroke="#d7e3f4" stroke-width="1.1" opacity=".55"/><circle cx="318" cy="919" r="3" fill="#0a0f18" stroke="#d7e3f4" stroke-width="1.1" opacity=".55"/><circle cx="349" cy="919" r="3" fill="#0a0f18" stroke="#d7e3f4" stroke-width="1.1" opacity=".55"/><circle cx="380" cy="919" r="3" fill="#0a0f18" stroke="#d7e3f4" stroke-width="1.1" opacity=".55"/><circle cx="411" cy="919" r="3" fill="#0a0f18" stroke="#d7e3f4" stroke-width="1.1" opacity=".55"/><circle cx="442" cy="919" r="3" fill="#0a0f18" stroke="#d7e3f4" stroke-width="1.1" opacity=".55"/><circle cx="473" cy="919" r="3" fill="#0a0f18" stroke="#d7e3f4" stroke-width="1.1" opacity=".55"/><circle cx="504" cy="919" r="3" fill="#0a0f18" stroke="#d7e3f4" stroke-width="1.1" opacity=".55"/><circle cx="535" cy="919" r="3" fill="#0a0f18" stroke="#d7e3f4" stroke-width="1.1" opacity=".55"/><circle cx="566" cy="919" r="3" fill="#0a0f18" stroke="#d7e3f4" stroke-width="1.1" opacity=".55"/><circle cx="597" cy="919" r="3" fill="#0a0f18" stroke="#d7e3f4" stroke-width="1.1" opacity=".55"/><circle cx="628" cy="919" r="3" fill="#0a0f18" stroke="#d7e3f4" stroke-width="1.1" opacity=".55"/><rect x="230" y="846" width="40" height="26" rx="2" fill="#33383f" stroke="#d7e3f4" stroke-width="1.1" opacity=".55"/><line x1="235" y1="848" x2="235" y2="870" stroke="#d7e3f4" stroke-width="0.5" opacity=".25"/><line x1="243" y1="848" x2="243" y2="870" stroke="#d7e3f4" stroke-width="0.5" opacity=".25"/><line x1="251" y1="848" x2="251" y2="870" stroke="#d7e3f4" stroke-width="0.5" opacity=".25"/><line x1="259" y1="848" x2="259" y2="870" stroke="#d7e3f4" stroke-width="0.5" opacity=".25"/><rect x="224" y="856" width="52" height="52" rx="3" fill="url(#ceramic)" opacity=".85" stroke="#d7e3f4" stroke-width="1.1"/><rect x="233" y="856" width="34" height="52" fill="url(#copper)" stroke="#d7e3f4" stroke-width="1.1" opacity=".55"/><rect x="241" y="906" width="18" height="34" fill="url(#copper)" stroke="#d7e3f4" stroke-width="1.1" opacity=".55"/><rect x="236" y="952" width="28" height="10" rx="2" fill="url(#metalH)" stroke="#d7e3f4" stroke-width="1.1" opacity=".55"/><ellipse cx="250" cy="856" rx="26" ry="5" fill="none" stroke="#8fb8e6" stroke-width="1.4" opacity=".8"/><ellipse cx="250" cy="856" rx="17" ry="3.2" fill="none" stroke="#d7e3f4" stroke-width="1.1" opacity=".55"/><rect x="310" y="846" width="40" height="26" rx="2" fill="#33383f" stroke="#d7e3f4" stroke-width="1.1" opacity=".55"/><line x1="315" y1="848" x2="315" y2="870" stroke="#d7e3f4" stroke-width="0.5" opacity=".25"/><line x1="323" y1="848" x2="323" y2="870" stroke="#d7e3f4" stroke-width="0.5" opacity=".25"/><line x1="331" y1="848" x2="331" y2="870" stroke="#d7e3f4" stroke-width="0.5" opacity=".25"/><line x1="339" y1="848" x2="339" y2="870" stroke="#d7e3f4" stroke-width="0.5" opacity=".25"/><rect x="304" y="856" width="52" height="52" rx="3" fill="url(#ceramic)" opacity=".85" stroke="#d7e3f4" stroke-width="1.1"/><rect x="313" y="856" width="34" height="52" fill="url(#copper)" stroke="#d7e3f4" stroke-width="1.1" opacity=".55"/><rect x="321" y="906" width="18" height="34" fill="url(#copper)" stroke="#d7e3f4" stroke-width="1.1" opacity=".55"/><rect x="316" y="952" width="28" height="10" rx="2" fill="url(#metalH)" stroke="#d7e3f4" stroke-width="1.1" opacity=".55"/><ellipse cx="330" cy="856" rx="26" ry="5" fill="none" stroke="#8fb8e6" stroke-width="1.4" opacity=".8"/><ellipse cx="330" cy="856" rx="17" ry="3.2" fill="none" stroke="#d7e3f4" stroke-width="1.1" opacity=".55"/><rect x="410" y="846" width="40" height="26" rx="2" fill="#33383f" stroke="#d7e3f4" stroke-width="1.1" opacity=".55"/><line x1="415" y1="848" x2="415" y2="870" stroke="#d7e3f4" stroke-width="0.5" opacity=".25"/><line x1="423" y1="848" x2="423" y2="870" stroke="#d7e3f4" stroke-width="0.5" opacity=".25"/><line x1="431" y1="848" x2="431" y2="870" stroke="#d7e3f4" stroke-width="0.5" opacity=".25"/><line x1="439" y1="848" x2="439" y2="870" stroke="#d7e3f4" stroke-width="0.5" opacity=".25"/><rect x="404" y="856" width="52" height="52" rx="3" fill="url(#ceramic)" opacity=".85" stroke="#d7e3f4" stroke-width="1.1"/><rect x="413" y="856" width="34" height="52" fill="url(#copper)" stroke="#d7e3f4" stroke-width="1.1" opacity=".55"/><rect x="421" y="906" width="18" height="34" fill="url(#copper)" stroke="#d7e3f4" stroke-width="1.1" opacity=".55"/><rect x="416" y="952" width="28" height="10" rx="2" fill="url(#metalH)" stroke="#d7e3f4" stroke-width="1.1" opacity=".55"/><ellipse cx="430" cy="856" rx="26" ry="5" fill="none" stroke="#8fb8e6" stroke-width="1.4" opacity=".8"/><ellipse cx="430" cy="856" rx="17" ry="3.2" fill="none" stroke="#d7e3f4" stroke-width="1.1" opacity=".55"/><rect x="490" y="846" width="40" height="26" rx="2" fill="#33383f" stroke="#d7e3f4" stroke-width="1.1" opacity=".55"/><line x1="495" y1="848" x2="495" y2="870" stroke="#d7e3f4" stroke-width="0.5" opacity=".25"/><line x1="503" y1="848" x2="503" y2="870" stroke="#d7e3f4" stroke-width="0.5" opacity=".25"/><line x1="511" y1="848" x2="511" y2="870" stroke="#d7e3f4" stroke-width="0.5" opacity=".25"/><line x1="519" y1="848" x2="519" y2="870" stroke="#d7e3f4" stroke-width="0.5" opacity=".25"/><rect x="484" y="856" width="52" height="52" rx="3" fill="url(#ceramic)" opacity=".85" stroke="#d7e3f4" stroke-width="1.1"/><rect x="493" y="856" width="34" height="52" fill="url(#copper)" stroke="#d7e3f4" stroke-width="1.1" opacity=".55"/><rect x="501" y="906" width="18" height="34" fill="url(#copper)" stroke="#d7e3f4" stroke-width="1.1" opacity=".55"/><rect x="496" y="952" width="28" height="10" rx="2" fill="url(#metalH)" stroke="#d7e3f4" stroke-width="1.1" opacity=".55"/><ellipse cx="510" cy="856" rx="26" ry="5" fill="none" stroke="#8fb8e6" stroke-width="1.4" opacity=".8"/><ellipse cx="510" cy="856" rx="17" ry="3.2" fill="none" stroke="#d7e3f4" stroke-width="1.1" opacity=".55"/><rect x="364" y="932" width="32" height="46" rx="3" fill="url(#metalV)" stroke="#d7e3f4" stroke-width="2" opacity=".92"/><rect x="356" y="978" width="48" height="14" rx="3" fill="url(#metalH)" stroke="#d7e3f4" stroke-width="1.1" opacity=".55"/><path d="M358,856 L402,856 L394,838 L366,838 Z" fill="url(#metalV)" stroke="#d7e3f4" stroke-width="2" opacity=".92"/><circle cx="368" cy="838" r="1.6" fill="#0a0f18" stroke="#d7e3f4" stroke-width="0.6" opacity=".3"/><circle cx="376" cy="838" r="1.6" fill="#0a0f18" stroke="#d7e3f4" stroke-width="0.6" opacity=".3"/><circle cx="384" cy="838" r="1.6" fill="#0a0f18" stroke="#d7e3f4" stroke-width="0.6" opacity=".3"/><circle cx="392" cy="838" r="1.6" fill="#0a0f18" stroke="#d7e3f4" stroke-width="0.6" opacity=".3"/><circle cx="369" cy="940" r="1.6" fill="#d7e3f4" opacity=".7"/><circle cx="391" cy="940" r="1.6" fill="#d7e3f4" opacity=".7"/><circle cx="369" cy="962" r="1.6" fill="#d7e3f4" opacity=".7"/><circle cx="391" cy="962" r="1.6" fill="#d7e3f4" opacity=".7"/><path d="M340,832 L340,788" stroke="#8fb8e6" stroke-width="1.4" fill="none" opacity=".8" stroke-dasharray="4 3"/><path d="M336,795 L340,788 L344,795" stroke="#8fb8e6" stroke-width="1.4" fill="none" opacity=".8"/><path d="M366,832 L366,788" stroke="#8fb8e6" stroke-width="1.4" fill="none" opacity=".8" stroke-dasharray="4 3"/><path d="M362,795 L366,788 L370,795" stroke="#8fb8e6" stroke-width="1.4" fill="none" opacity=".8"/><path d="M394,832 L394,788" stroke="#8fb8e6" stroke-width="1.4" fill="none" opacity=".8" stroke-dasharray="4 3"/><path d="M390,795 L394,788 L398,795" stroke="#8fb8e6" stroke-width="1.4" fill="none" opacity=".8"/><path d="M420,832 L420,788" stroke="#8fb8e6" stroke-width="1.4" fill="none" opacity=".8" stroke-dasharray="4 3"/><path d="M416,795 L420,788 L424,795" stroke="#8fb8e6" stroke-width="1.4" fill="none" opacity=".8"/><rect x="620" y="772" width="46" height="36" rx="3" fill="url(#metalH)" stroke="#d7e3f4" stroke-width="2" opacity=".92"/><rect x="666" y="777" width="18" height="26" rx="2" fill="url(#metalV)" stroke="#d7e3f4" stroke-width="1.1" opacity=".55"/><ellipse cx="675" cy="790" rx="4" ry="12" fill="none" stroke="#8fb8e6" stroke-width="1.4" opacity=".8"/><ellipse cx="588" cy="790" rx="5" ry="15" fill="#0a0f18" stroke="#d7e3f4" stroke-width="1.1" opacity=".55"/><circle cx="623" cy="777" r="2" fill="#d7e3f4" opacity=".75"/><circle cx="623" cy="803" r="2" fill="#d7e3f4" opacity=".75"/><path d="M640,790 L690,790" stroke="#8fb8e6" stroke-width="1.4" fill="none" opacity=".8" stroke-dasharray="4 3"/><path d="M683,786 L690,790 L683,794" stroke="#8fb8e6" stroke-width="1.4" fill="none" opacity=".8"/><rect x="124" y="446" width="48" height="48" fill="url(#metalH)" opacity=".5" stroke="#d7e3f4" stroke-width="1.1"/><circle cx="152" cy="470" r="19" fill="url(#quartz)" stroke="#d7e3f4" stroke-width="2" opacity=".92"/><circle cx="152" cy="470" r="13" fill="none" stroke="#d7e3f4" stroke-width="1.1" opacity=".55"/><circle cx="152" cy="470" r="6" fill="none" stroke="#8fb8e6" stroke-width="1.4" opacity=".8"/><circle cx="176" cy="470" r="1.8" fill="#d7e3f4" opacity=".8"/><circle cx="169" cy="487" r="1.8" fill="#d7e3f4" opacity=".8"/><circle cx="152" cy="494" r="1.8" fill="#d7e3f4" opacity=".8"/><circle cx="135" cy="487" r="1.8" fill="#d7e3f4" opacity=".8"/><circle cx="128" cy="470" r="1.8" fill="#d7e3f4" opacity=".8"/><circle cx="135" cy="453" r="1.8" fill="#d7e3f4" opacity=".8"/><circle cx="152" cy="446" r="1.8" fill="#d7e3f4" opacity=".8"/><circle cx="169" cy="453" r="1.8" fill="#d7e3f4" opacity=".8"/><path d="M144,462 q6,-6 12,-2" stroke="#d7e3f4" stroke-width="1.1" fill="none" opacity=".55"/><rect x="132" y="262" width="16" height="18" fill="url(#metalH)" stroke="#d7e3f4" stroke-width="1.1" opacity=".55"/><rect x="612" y="262" width="16" height="18" fill="url(#metalH)" stroke="#d7e3f4" stroke-width="1.1" opacity=".55"/><line x1="90" y1="270" x2="670" y2="270" stroke="#d7e3f4" stroke-width="0.6" fill="none" opacity=".3"/><line x1="90" y1="858" x2="670" y2="858" stroke="#d7e3f4" stroke-width="0.6" fill="none" opacity=".3"/><line x1="380" y1="70" x2="380" y2="970" stroke="#d7e3f4" stroke-width="0.6" fill="none" opacity=".3"/></svg><circle cx="705.0" cy="344.5" r="2.6" fill="#8fb8e6" opacity="0.9"/><path d="M 705.0 344.5 L 600 348" stroke="#d7e3f4" stroke-width="0.9" opacity="0.5" fill="none"/><circle cx="749.2" cy="463.5" r="2.6" fill="#8fb8e6" opacity="0.9"/><path d="M 749.2 463.5 L 600 454" stroke="#d7e3f4" stroke-width="0.9" opacity="0.5" fill="none"/><circle cx="832.5" cy="540.0" r="2.6" fill="#8fb8e6" opacity="0.9"/><path d="M 832.5 540.0 L 600 536" stroke="#d7e3f4" stroke-width="0.9" opacity="0.5" fill="none"/><circle cx="832.5" cy="800.1" r="2.6" fill="#8fb8e6" opacity="0.9"/><path d="M 832.5 800.1 L 600 796" stroke="#d7e3f4" stroke-width="0.9" opacity="0.5" fill="none"/><circle cx="943.0" cy="130.3" r="2.6" fill="#8fb8e6" opacity="0.9"/><path d="M 943.0 130.3 L 1292 126" stroke="#d7e3f4" stroke-width="0.9" opacity="0.5" fill="none"/><circle cx="866.5" cy="349.6" r="2.6" fill="#8fb8e6" opacity="0.9"/><path d="M 866.5 349.6 L 1292 350" stroke="#d7e3f4" stroke-width="0.9" opacity="0.5" fill="none"/><circle cx="1133.4" cy="523.0" r="2.6" fill="#8fb8e6" opacity="0.9"/><path d="M 1133.4 523.0 L 1292 506" stroke="#d7e3f4" stroke-width="0.9" opacity="0.5" fill="none"/><circle cx="900.5" cy="591.0" r="2.6" fill="#8fb8e6" opacity="0.9"/><path d="M 900.5 591.0 L 1292 590" stroke="#d7e3f4" stroke-width="0.9" opacity="0.5" fill="none"/><circle cx="1185.2" cy="735.5" r="2.6" fill="#8fb8e6" opacity="0.9"/><path d="M 1185.2 735.5 L 1292 730" stroke="#d7e3f4" stroke-width="0.9" opacity="0.5" fill="none"/><circle cx="943.0" cy="776.3" r="2.6" fill="#8fb8e6" opacity="0.9"/><path d="M 943.0 776.3 L 1292 780" stroke="#d7e3f4" stroke-width="0.9" opacity="0.5" fill="none"/><circle cx="943.0" cy="845.1" r="2.6" fill="#8fb8e6" opacity="0.9"/><path d="M 943.0 845.1 L 1292 848" stroke="#d7e3f4" stroke-width="0.9" opacity="0.5" fill="none"/><text x="588" y="354" text-anchor="end" font-family="'IBM Plex Mono','JetBrains Mono',ui-monospace,Consolas,monospace" font-size="19" font-weight="600" fill="#e8eef7" fill-opacity="0.95">COOLANT IN/OUT</text><text x="588" y="460" text-anchor="end" font-family="'IBM Plex Mono','JetBrains Mono',ui-monospace,Consolas,monospace" font-size="19" font-weight="600" fill="#e8eef7" fill-opacity="0.95">SIGHT GLASS</text><text x="588" y="542" text-anchor="end" font-family="'IBM Plex Mono','JetBrains Mono',ui-monospace,Consolas,monospace" font-size="19" font-weight="600" fill="#e8eef7" fill-opacity="0.95">POLY-SI DEPOSIT</text><text x="588" y="802" text-anchor="end" font-family="'IBM Plex Mono','JetBrains Mono',ui-monospace,Consolas,monospace" font-size="19" font-weight="600" fill="#e8eef7" fill-opacity="0.95">ELECTRODE CHUCK</text><text x="1304" y="132" text-anchor="start" font-family="'IBM Plex Mono','JetBrains Mono',ui-monospace,Consolas,monospace" font-size="19" font-weight="600" fill="#e8eef7" fill-opacity="0.95">LIFT SHACKLE</text><text x="1304" y="356" text-anchor="start" font-family="'IBM Plex Mono','JetBrains Mono',ui-monospace,Consolas,monospace" font-size="19" font-weight="600" fill="#e8eef7" fill-opacity="0.95">U-BRIDGE</text><text x="1304" y="512" text-anchor="start" font-family="'IBM Plex Mono','JetBrains Mono',ui-monospace,Consolas,monospace" font-size="19" font-weight="600" fill="#e8eef7" fill-opacity="0.95">BELL JAR</text><text x="1304" y="596" text-anchor="start" font-family="'IBM Plex Mono','JetBrains Mono',ui-monospace,Consolas,monospace" font-size="19" font-weight="600" fill="#e8eef7" fill-opacity="0.95">JOULE HEATING</text><text x="1304" y="736" text-anchor="start" font-family="'IBM Plex Mono','JetBrains Mono',ui-monospace,Consolas,monospace" font-size="19" font-weight="600" fill="#e8eef7" fill-opacity="0.95">EXHAUST</text><text x="1304" y="786" text-anchor="start" font-family="'IBM Plex Mono','JetBrains Mono',ui-monospace,Consolas,monospace" font-size="19" font-weight="600" fill="#e8eef7" fill-opacity="0.95">SIHCL₃ INLET</text><text x="1304" y="854" text-anchor="start" font-family="'IBM Plex Mono','JetBrains Mono',ui-monospace,Consolas,monospace" font-size="19" font-weight="600" fill="#e8eef7" fill-opacity="0.95">BASE + BOLTS</text><text x="30" y="1042" font-family="'IBM Plex Mono','JetBrains Mono',ui-monospace,Consolas,monospace" font-size="17" font-weight="500" letter-spacing="0.5" fill="#e8eef7" fill-opacity="0.85">FIG. 1 — Birth of 9N: silicon snows onto joule-heated rods</text></svg>