<svg xmlns="http://www.w3.org/2000/svg" viewBox="0 0 1600 1060" role="img"><svg x="240" y="225" width="1122.0" height="734.4" viewBox="0 0 1100 720"><defs><linearGradient id="metal" x1="0" y1="0" x2="0" y2="1"><stop offset="0" stop-color="#aeb9cc"/><stop offset="0.5" stop-color="#7a8394"/><stop offset="1" stop-color="#5a6373"/></linearGradient><linearGradient id="metalD" x1="0" y1="0" x2="0" y2="1"><stop offset="0" stop-color="#8b95a8"/><stop offset="1" stop-color="#454d5c"/></linearGradient><linearGradient id="pcb" x1="0" y1="0" x2="0" y2="1"><stop offset="0" stop-color="#2f7d5b"/><stop offset="1" stop-color="#1c4a37"/></linearGradient><linearGradient id="quartz" x1="0" y1="0" x2="0" y2="1"><stop offset="0" stop-color="#cfe6f2" stop-opacity="0.55"/><stop offset="1" stop-color="#8fc4dd" stop-opacity="0.28"/></linearGradient><linearGradient id="copper" x1="0" y1="0" x2="0" y2="1"><stop offset="0" stop-color="#e79a5c"/><stop offset="1" stop-color="#b0602a"/></linearGradient><linearGradient id="wafer" x1="0" y1="0" x2="0" y2="1"><stop offset="0" stop-color="#b8c6da"/><stop offset="1" stop-color="#6f7a8c"/></linearGradient><linearGradient id="granite" x1="0" y1="0" x2="0" y2="1"><stop offset="0" stop-color="#242c3a"/><stop offset="1" stop-color="#141a25"/></linearGradient><radialGradient id="glow" cx="0.5" cy="0.5" r="0.5"><stop offset="0" stop-color="#38e1ff" stop-opacity="0.9"/><stop offset="1" stop-color="#38e1ff" stop-opacity="0"/></radialGradient><radialGradient id="contactGlow" cx="0.5" cy="0.5" r="0.5"><stop offset="0" stop-color="#8ff3ff" stop-opacity="1"/><stop offset="0.5" stop-color="#38e1ff" stop-opacity="0.5"/><stop offset="1" stop-color="#38e1ff" stop-opacity="0"/></radialGradient></defs><rect x="230" y="34" width="640" height="34" rx="4" fill="url(#metalD)" stroke="#d7e3f4" stroke-width="2" opacity="0.92"/><g stroke="#d7e3f4" stroke-width="0.6" fill="none" opacity="0.3"><line x1="258" y1="38" x2="258" y2="64"/><line x1="288" y1="38" x2="288" y2="64"/><line x1="318" y1="38" x2="318" y2="64"/><line x1="348" y1="38" x2="348" y2="64"/><line x1="378" y1="38" x2="378" y2="64"/><line x1="408" y1="38" x2="408" y2="64"/><line x1="438" y1="38" x2="438" y2="64"/><line x1="468" y1="38" x2="468" y2="64"/><line x1="498" y1="38" x2="498" y2="64"/><line x1="528" y1="38" x2="528" y2="64"/><line x1="558" y1="38" x2="558" y2="64"/><line x1="588" y1="38" x2="588" y2="64"/><line x1="618" y1="38" x2="618" y2="64"/><line x1="648" y1="38" x2="648" y2="64"/><line x1="678" y1="38" x2="678" y2="64"/><line x1="708" y1="38" x2="708" y2="64"/><line x1="738" y1="38" x2="738" y2="64"/><line x1="768" y1="38" x2="768" y2="64"/><line x1="798" y1="38" x2="798" y2="64"/><line x1="828" y1="38" x2="828" y2="64"/><line x1="858" y1="38" x2="858" y2="64"/></g><circle cx="246" cy="51" r="3.4" fill="url(#metal)" stroke="#d7e3f4" stroke-width="1.1" opacity="0.55"/><line x1="243.8" y1="49" x2="248.2" y2="53" stroke="#d7e3f4" stroke-width="0.6" fill="none" opacity="0.3"/><circle cx="300" cy="51" r="3.4" fill="url(#metal)" stroke="#d7e3f4" stroke-width="1.1" opacity="0.55"/><line x1="297.8" y1="49" x2="302.2" y2="53" stroke="#d7e3f4" stroke-width="0.6" fill="none" opacity="0.3"/><circle cx="360" cy="51" r="3.4" fill="url(#metal)" stroke="#d7e3f4" stroke-width="1.1" opacity="0.55"/><line x1="357.8" y1="49" x2="362.2" y2="53" stroke="#d7e3f4" stroke-width="0.6" fill="none" opacity="0.3"/><circle cx="420" cy="51" r="3.4" fill="url(#metal)" stroke="#d7e3f4" stroke-width="1.1" opacity="0.55"/><line x1="417.8" y1="49" x2="422.2" y2="53" stroke="#d7e3f4" stroke-width="0.6" fill="none" opacity="0.3"/><circle cx="480" cy="51" r="3.4" fill="url(#metal)" stroke="#d7e3f4" stroke-width="1.1" opacity="0.55"/><line x1="477.8" y1="49" x2="482.2" y2="53" stroke="#d7e3f4" stroke-width="0.6" fill="none" opacity="0.3"/><circle cx="540" cy="51" r="3.4" fill="url(#metal)" stroke="#d7e3f4" stroke-width="1.1" opacity="0.55"/><line x1="537.8" y1="49" x2="542.2" y2="53" stroke="#d7e3f4" stroke-width="0.6" fill="none" opacity="0.3"/><circle cx="600" cy="51" r="3.4" fill="url(#metal)" stroke="#d7e3f4" stroke-width="1.1" opacity="0.55"/><line x1="597.8" y1="49" x2="602.2" y2="53" stroke="#d7e3f4" stroke-width="0.6" fill="none" opacity="0.3"/><circle cx="660" cy="51" r="3.4" fill="url(#metal)" stroke="#d7e3f4" stroke-width="1.1" opacity="0.55"/><line x1="657.8" y1="49" x2="662.2" y2="53" stroke="#d7e3f4" stroke-width="0.6" fill="none" opacity="0.3"/><circle cx="720" cy="51" r="3.4" fill="url(#metal)" stroke="#d7e3f4" stroke-width="1.1" opacity="0.55"/><line x1="717.8" y1="49" x2="722.2" y2="53" stroke="#d7e3f4" stroke-width="0.6" fill="none" opacity="0.3"/><circle cx="780" cy="51" r="3.4" fill="url(#metal)" stroke="#d7e3f4" stroke-width="1.1" opacity="0.55"/><line x1="777.8" y1="49" x2="782.2" y2="53" stroke="#d7e3f4" stroke-width="0.6" fill="none" opacity="0.3"/><circle cx="846" cy="51" r="3.4" fill="url(#metal)" stroke="#d7e3f4" stroke-width="1.1" opacity="0.55"/><line x1="843.8" y1="49" x2="848.2" y2="53" stroke="#d7e3f4" stroke-width="0.6" fill="none" opacity="0.3"/><rect x="255" y="70" width="590" height="24" rx="2" fill="url(#pcb)" stroke="#d7e3f4" stroke-width="2" opacity="0.92"/><g stroke="#d97a3c" stroke-width="0.6" opacity="0.5"><line x1="268" y1="72" x2="268" y2="92"/><line x1="285" y1="72" x2="285" y2="92"/><line x1="302" y1="72" x2="302" y2="92"/><line x1="319" y1="72" x2="319" y2="92"/><line x1="336" y1="72" x2="336" y2="92"/><line x1="353" y1="72" x2="353" y2="92"/><line x1="370" y1="72" x2="370" y2="92"/><line x1="387" y1="72" x2="387" y2="92"/><line x1="404" y1="72" x2="404" y2="92"/><line x1="421" y1="72" x2="421" y2="92"/><line x1="438" y1="72" x2="438" y2="92"/><line x1="455" y1="72" x2="455" y2="92"/><line x1="472" y1="72" x2="472" y2="92"/><line x1="489" y1="72" x2="489" y2="92"/><line x1="506" y1="72" x2="506" y2="92"/><line x1="523" y1="72" x2="523" y2="92"/><line x1="540" y1="72" x2="540" y2="92"/><line x1="557" y1="72" x2="557" y2="92"/><line x1="574" y1="72" x2="574" y2="92"/><line x1="591" y1="72" x2="591" y2="92"/><line x1="608" y1="72" x2="608" y2="92"/><line x1="625" y1="72" x2="625" y2="92"/><line x1="642" y1="72" x2="642" y2="92"/><line x1="659" y1="72" x2="659" y2="92"/><line x1="676" y1="72" x2="676" y2="92"/><line x1="693" y1="72" x2="693" y2="92"/><line x1="710" y1="72" x2="710" y2="92"/><line x1="727" y1="72" x2="727" y2="92"/><line x1="744" y1="72" x2="744" y2="92"/><line x1="761" y1="72" x2="761" y2="92"/><line x1="778" y1="72" x2="778" y2="92"/><line x1="795" y1="72" x2="795" y2="92"/><line x1="812" y1="72" x2="812" y2="92"/><line x1="829" y1="72" x2="829" y2="92"/></g><rect x="290" y="73" width="30" height="18" rx="1.5" fill="url(#metal)" stroke="#d7e3f4" stroke-width="1.1" opacity="0.55"/><rect x="400" y="73" width="30" height="18" rx="1.5" fill="url(#metal)" stroke="#d7e3f4" stroke-width="1.1" opacity="0.55"/><rect x="700" y="73" width="30" height="18" rx="1.5" fill="url(#metal)" stroke="#d7e3f4" stroke-width="1.1" opacity="0.55"/><rect x="810" y="73" width="30" height="18" rx="1.5" fill="url(#metal)" stroke="#d7e3f4" stroke-width="1.1" opacity="0.55"/><g stroke="#d7e3f4" stroke-width="0.6" fill="none" opacity="0.3"><line x1="293.0" y1="75" x2="293.0" y2="89"/><line x1="297.5" y1="75" x2="297.5" y2="89"/><line x1="302.0" y1="75" x2="302.0" y2="89"/><line x1="306.5" y1="75" x2="306.5" y2="89"/><line x1="311.0" y1="75" x2="311.0" y2="89"/><line x1="315.5" y1="75" x2="315.5" y2="89"/><line x1="403.0" y1="75" x2="403.0" y2="89"/><line x1="407.5" y1="75" x2="407.5" y2="89"/><line x1="412.0" y1="75" x2="412.0" y2="89"/><line x1="416.5" y1="75" x2="416.5" y2="89"/><line x1="421.0" y1="75" x2="421.0" y2="89"/><line x1="425.5" y1="75" x2="425.5" y2="89"/><line x1="703.0" y1="75" x2="703.0" y2="89"/><line x1="707.5" y1="75" x2="707.5" y2="89"/><line x1="712.0" y1="75" x2="712.0" y2="89"/><line x1="716.5" y1="75" x2="716.5" y2="89"/><line x1="721.0" y1="75" x2="721.0" y2="89"/><line x1="725.5" y1="75" x2="725.5" y2="89"/><line x1="813.0" y1="75" x2="813.0" y2="89"/><line x1="817.5" y1="75" x2="817.5" y2="89"/><line x1="822.0" y1="75" x2="822.0" y2="89"/><line x1="826.5" y1="75" x2="826.5" y2="89"/><line x1="831.0" y1="75" x2="831.0" y2="89"/><line x1="835.5" y1="75" x2="835.5" y2="89"/></g><rect x="360" y="96" width="380" height="40" rx="3" fill="url(#metalD)" stroke="#d7e3f4" stroke-width="2" opacity="0.92"/><line x1="360" y1="118" x2="740" y2="118" stroke="#d7e3f4" stroke-width="1.1" fill="none" opacity="0.55"/><g fill="url(#metal)" stroke="#d7e3f4" stroke-width="1.1" opacity="0.55"><rect x="375.6" y="100" width="4.8" height="20" rx="1.4"/><rect x="394.6" y="100" width="4.8" height="20" rx="1.4"/><rect x="413.6" y="100" width="4.8" height="20" rx="1.4"/><rect x="432.6" y="100" width="4.8" height="20" rx="1.4"/><rect x="451.6" y="100" width="4.8" height="20" rx="1.4"/><rect x="470.6" y="100" width="4.8" height="20" rx="1.4"/><rect x="489.6" y="100" width="4.8" height="20" rx="1.4"/><rect x="508.6" y="100" width="4.8" height="20" rx="1.4"/><rect x="527.6" y="100" width="4.8" height="20" rx="1.4"/><rect x="546.6" y="100" width="4.8" height="20" rx="1.4"/><rect x="565.6" y="100" width="4.8" height="20" rx="1.4"/><rect x="584.6" y="100" width="4.8" height="20" rx="1.4"/><rect x="603.6" y="100" width="4.8" height="20" rx="1.4"/><rect x="622.6" y="100" width="4.8" height="20" rx="1.4"/><rect x="641.6" y="100" width="4.8" height="20" rx="1.4"/><rect x="660.6" y="100" width="4.8" height="20" rx="1.4"/><rect x="679.6" y="100" width="4.8" height="20" rx="1.4"/><rect x="698.6" y="100" width="4.8" height="20" rx="1.4"/><rect x="717.6" y="100" width="4.8" height="20" rx="1.4"/><rect x="736.6" y="100" width="4.8" height="20" rx="1.4"/></g><g stroke="#d7e3f4" stroke-width="0.6" fill="none" opacity="0.3"><line x1="375.8" y1="105.0" x2="380.2" y2="107.0"/><line x1="375.8" y1="109.2" x2="380.2" y2="111.2"/><line x1="375.8" y1="113.4" x2="380.2" y2="115.4"/><line x1="394.8" y1="105.0" x2="399.2" y2="107.0"/><line x1="394.8" y1="109.2" x2="399.2" y2="111.2"/><line x1="394.8" y1="113.4" x2="399.2" y2="115.4"/><line x1="413.8" y1="105.0" x2="418.2" y2="107.0"/><line x1="413.8" y1="109.2" x2="418.2" y2="111.2"/><line x1="413.8" y1="113.4" x2="418.2" y2="115.4"/><line x1="432.8" y1="105.0" x2="437.2" y2="107.0"/><line x1="432.8" y1="109.2" x2="437.2" y2="111.2"/><line x1="432.8" y1="113.4" x2="437.2" y2="115.4"/><line x1="451.8" y1="105.0" x2="456.2" y2="107.0"/><line x1="451.8" y1="109.2" x2="456.2" y2="111.2"/><line x1="451.8" y1="113.4" x2="456.2" y2="115.4"/><line x1="470.8" y1="105.0" x2="475.2" y2="107.0"/><line x1="470.8" y1="109.2" x2="475.2" y2="111.2"/><line x1="470.8" y1="113.4" x2="475.2" y2="115.4"/><line x1="489.8" y1="105.0" x2="494.2" y2="107.0"/><line x1="489.8" y1="109.2" x2="494.2" y2="111.2"/><line x1="489.8" y1="113.4" x2="494.2" y2="115.4"/><line x1="508.8" y1="105.0" x2="513.2" y2="107.0"/><line x1="508.8" y1="109.2" x2="513.2" y2="111.2"/><line x1="508.8" y1="113.4" x2="513.2" y2="115.4"/><line x1="527.8" y1="105.0" x2="532.2" y2="107.0"/><line x1="527.8" y1="109.2" x2="532.2" y2="111.2"/><line x1="527.8" y1="113.4" x2="532.2" y2="115.4"/><line x1="546.8" y1="105.0" x2="551.2" y2="107.0"/><line x1="546.8" y1="109.2" x2="551.2" y2="111.2"/><line x1="546.8" y1="113.4" x2="551.2" y2="115.4"/><line x1="565.8" y1="105.0" x2="570.2" y2="107.0"/><line x1="565.8" y1="109.2" x2="570.2" y2="111.2"/><line x1="565.8" y1="113.4" x2="570.2" y2="115.4"/><line x1="584.8" y1="105.0" x2="589.2" y2="107.0"/><line x1="584.8" y1="109.2" x2="589.2" y2="111.2"/><line x1="584.8" y1="113.4" x2="589.2" y2="115.4"/><line x1="603.8" y1="105.0" x2="608.2" y2="107.0"/><line x1="603.8" y1="109.2" x2="608.2" y2="111.2"/><line x1="603.8" y1="113.4" x2="608.2" y2="115.4"/><line x1="622.8" y1="105.0" x2="627.2" y2="107.0"/><line x1="622.8" y1="109.2" x2="627.2" y2="111.2"/><line x1="622.8" y1="113.4" x2="627.2" y2="115.4"/><line x1="641.8" y1="105.0" x2="646.2" y2="107.0"/><line x1="641.8" y1="109.2" x2="646.2" y2="111.2"/><line x1="641.8" y1="113.4" x2="646.2" y2="115.4"/><line x1="660.8" y1="105.0" x2="665.2" y2="107.0"/><line x1="660.8" y1="109.2" x2="665.2" y2="111.2"/><line x1="660.8" y1="113.4" x2="665.2" y2="115.4"/><line x1="679.8" y1="105.0" x2="684.2" y2="107.0"/><line x1="679.8" y1="109.2" x2="684.2" y2="111.2"/><line x1="679.8" y1="113.4" x2="684.2" y2="115.4"/><line x1="698.8" y1="105.0" x2="703.2" y2="107.0"/><line x1="698.8" y1="109.2" x2="703.2" y2="111.2"/><line x1="698.8" y1="113.4" x2="703.2" y2="115.4"/><line x1="717.8" y1="105.0" x2="722.2" y2="107.0"/><line x1="717.8" y1="109.2" x2="722.2" y2="111.2"/><line x1="717.8" y1="113.4" x2="722.2" y2="115.4"/><line x1="736.8" y1="105.0" x2="741.2" y2="107.0"/><line x1="736.8" y1="109.2" x2="741.2" y2="111.2"/><line x1="736.8" y1="113.4" x2="741.2" y2="115.4"/></g><g stroke="#d7e3f4" stroke-width="1.1" fill="none" opacity="0.55"><line x1="378" y1="120" x2="378" y2="146"/><line x1="397" y1="120" x2="397" y2="146"/><line x1="416" y1="120" x2="416" y2="146"/><line x1="435" y1="120" x2="435" y2="146"/><line x1="454" y1="120" x2="454" y2="146"/><line x1="473" y1="120" x2="473" y2="146"/><line x1="492" y1="120" x2="492" y2="146"/><line x1="511" y1="120" x2="511" y2="146"/><line x1="530" y1="120" x2="530" y2="146"/><line x1="549" y1="120" x2="549" y2="146"/><line x1="568" y1="120" x2="568" y2="146"/><line x1="587" y1="120" x2="587" y2="146"/><line x1="606" y1="120" x2="606" y2="146"/><line x1="625" y1="120" x2="625" y2="146"/><line x1="644" y1="120" x2="644" y2="146"/><line x1="663" y1="120" x2="663" y2="146"/><line x1="682" y1="120" x2="682" y2="146"/><line x1="701" y1="120" x2="701" y2="146"/><line x1="720" y1="120" x2="720" y2="146"/><line x1="739" y1="120" x2="739" y2="146"/></g><g fill="#d7e3f4" opacity="0.85"><circle cx="378" cy="147" r="1.7"/><circle cx="397" cy="147" r="1.7"/><circle cx="416" cy="147" r="1.7"/><circle cx="435" cy="147" r="1.7"/><circle cx="454" cy="147" r="1.7"/><circle cx="473" cy="147" r="1.7"/><circle cx="492" cy="147" r="1.7"/><circle cx="511" cy="147" r="1.7"/><circle cx="530" cy="147" r="1.7"/><circle cx="549" cy="147" r="1.7"/><circle cx="568" cy="147" r="1.7"/><circle cx="587" cy="147" r="1.7"/><circle cx="606" cy="147" r="1.7"/><circle cx="625" cy="147" r="1.7"/><circle cx="644" cy="147" r="1.7"/><circle cx="663" cy="147" r="1.7"/><circle cx="682" cy="147" r="1.7"/><circle cx="701" cy="147" r="1.7"/><circle cx="720" cy="147" r="1.7"/><circle cx="739" cy="147" r="1.7"/></g><rect x="262" y="150" width="576" height="26" rx="3" fill="url(#pcb)" stroke="#d7e3f4" stroke-width="2" opacity="0.92"/><rect x="300" y="146" width="500" height="6" rx="2" fill="url(#metal)" stroke="#d7e3f4" stroke-width="1.1" opacity="0.55"/><line x1="266" y1="157" x2="834" y2="157" stroke="#d97a3c" stroke-width="0.6" opacity="0.45"/><line x1="266" y1="163" x2="834" y2="163" stroke="#d97a3c" stroke-width="0.6" opacity="0.45"/><line x1="266" y1="169" x2="834" y2="169" stroke="#d97a3c" stroke-width="0.6" opacity="0.45"/><g fill="url(#copper)" stroke="#d7e3f4" stroke-width="0.6" opacity="0.3"><rect x="375" y="149" width="6" height="4"/><rect x="394" y="149" width="6" height="4"/><rect x="413" y="149" width="6" height="4"/><rect x="432" y="149" width="6" height="4"/><rect x="451" y="149" width="6" height="4"/><rect x="470" y="149" width="6" height="4"/><rect x="489" y="149" width="6" height="4"/><rect x="508" y="149" width="6" height="4"/><rect x="527" y="149" width="6" height="4"/><rect x="546" y="149" width="6" height="4"/><rect x="565" y="149" width="6" height="4"/><rect x="584" y="149" width="6" height="4"/><rect x="603" y="149" width="6" height="4"/><rect x="622" y="149" width="6" height="4"/><rect x="641" y="149" width="6" height="4"/><rect x="660" y="149" width="6" height="4"/><rect x="679" y="149" width="6" height="4"/><rect x="698" y="149" width="6" height="4"/><rect x="717" y="149" width="6" height="4"/><rect x="736" y="149" width="6" height="4"/></g><circle cx="280" cy="163" r="4" fill="url(#metal)" stroke="#d7e3f4" stroke-width="1.1" opacity="0.55"/><circle cx="280" cy="163" r="1.6" stroke="#d7e3f4" stroke-width="0.6" fill="none" opacity="0.3"/><circle cx="330" cy="163" r="4" fill="url(#metal)" stroke="#d7e3f4" stroke-width="1.1" opacity="0.55"/><circle cx="330" cy="163" r="1.6" stroke="#d7e3f4" stroke-width="0.6" fill="none" opacity="0.3"/><circle cx="770" cy="163" r="4" fill="url(#metal)" stroke="#d7e3f4" stroke-width="1.1" opacity="0.55"/><circle cx="770" cy="163" r="1.6" stroke="#d7e3f4" stroke-width="0.6" fill="none" opacity="0.3"/><circle cx="820" cy="163" r="4" fill="url(#metal)" stroke="#d7e3f4" stroke-width="1.1" opacity="0.55"/><circle cx="820" cy="163" r="1.6" stroke="#d7e3f4" stroke-width="0.6" fill="none" opacity="0.3"/><rect x="452" y="176" width="196" height="20" rx="2" fill="url(#quartz)" stroke="#d7e3f4" stroke-width="2" opacity="0.92"/><g stroke="#d7e3f4" stroke-width="0.6" fill="none" opacity="0.3"><line x1="462" y1="178" x2="462" y2="194"/><line x1="472" y1="178" x2="472" y2="194"/><line x1="482" y1="178" x2="482" y2="194"/><line x1="492" y1="178" x2="492" y2="194"/><line x1="502" y1="178" x2="502" y2="194"/><line x1="512" y1="178" x2="512" y2="194"/><line x1="522" y1="178" x2="522" y2="194"/><line x1="532" y1="178" x2="532" y2="194"/><line x1="542" y1="178" x2="542" y2="194"/><line x1="552" y1="178" x2="552" y2="194"/><line x1="562" y1="178" x2="562" y2="194"/><line x1="572" y1="178" x2="572" y2="194"/><line x1="582" y1="178" x2="582" y2="194"/><line x1="592" y1="178" x2="592" y2="194"/><line x1="602" y1="178" x2="602" y2="194"/><line x1="612" y1="178" x2="612" y2="194"/><line x1="622" y1="178" x2="622" y2="194"/><line x1="632" y1="178" x2="632" y2="194"/></g><rect x="470" y="196" width="160" height="18" rx="2" fill="url(#metalD)" stroke="#d7e3f4" stroke-width="1.1" opacity="0.55"/><line x1="470" y1="205" x2="630" y2="205" stroke="#d7e3f4" stroke-width="0.6" fill="none" opacity="0.3"/><g stroke="#d7e3f4" stroke-width="1.2" fill="none" opacity="0.85"><path d="M 478.0 214.0 L 493.8 264.6 L 523.0 306.0"/><path d="M 484.3 214.0 L 498.6 264.6 L 525.3 306.0"/><path d="M 490.5 214.0 L 503.5 264.6 L 527.7 306.0"/><path d="M 496.8 214.0 L 508.4 264.6 L 530.0 306.0"/><path d="M 503.0 214.0 L 513.3 264.6 L 532.4 306.0"/><path d="M 509.3 214.0 L 518.2 264.6 L 534.7 306.0"/><path d="M 515.6 214.0 L 523.1 264.6 L 537.1 306.0"/><path d="M 521.8 214.0 L 528.0 264.6 L 539.4 306.0"/><path d="M 528.1 214.0 L 532.9 264.6 L 541.8 306.0"/><path d="M 534.3 214.0 L 537.8 264.6 L 544.1 306.0"/><path d="M 540.6 214.0 L 542.7 264.6 L 546.5 306.0"/><path d="M 546.9 214.0 L 547.6 264.6 L 548.8 306.0"/><path d="M 553.1 214.0 L 552.4 264.6 L 551.2 306.0"/><path d="M 559.4 214.0 L 557.3 264.6 L 553.5 306.0"/><path d="M 565.7 214.0 L 562.2 264.6 L 555.9 306.0"/><path d="M 571.9 214.0 L 567.1 264.6 L 558.2 306.0"/><path d="M 578.2 214.0 L 572.0 264.6 L 560.6 306.0"/><path d="M 584.4 214.0 L 576.9 264.6 L 562.9 306.0"/><path d="M 590.7 214.0 L 581.8 264.6 L 565.3 306.0"/><path d="M 597.0 214.0 L 586.7 264.6 L 567.6 306.0"/><path d="M 603.2 214.0 L 591.6 264.6 L 570.0 306.0"/><path d="M 609.5 214.0 L 596.5 264.6 L 572.3 306.0"/><path d="M 615.7 214.0 L 601.4 264.6 L 574.7 306.0"/><path d="M 622.0 214.0 L 606.2 264.6 L 577.0 306.0"/></g><g fill="#aeb9cc" opacity="0.8"><circle cx="478.0" cy="214" r="1.4"/><circle cx="484.3" cy="214" r="1.4"/><circle cx="490.5" cy="214" r="1.4"/><circle cx="496.8" cy="214" r="1.4"/><circle cx="503.0" cy="214" r="1.4"/><circle cx="509.3" cy="214" r="1.4"/><circle cx="515.6" cy="214" r="1.4"/><circle cx="521.8" cy="214" r="1.4"/><circle cx="528.1" cy="214" r="1.4"/><circle cx="534.3" cy="214" r="1.4"/><circle cx="540.6" cy="214" r="1.4"/><circle cx="546.9" cy="214" r="1.4"/><circle cx="553.1" cy="214" r="1.4"/><circle cx="559.4" cy="214" r="1.4"/><circle cx="565.7" cy="214" r="1.4"/><circle cx="571.9" cy="214" r="1.4"/><circle cx="578.2" cy="214" r="1.4"/><circle cx="584.4" cy="214" r="1.4"/><circle cx="590.7" cy="214" r="1.4"/><circle cx="597.0" cy="214" r="1.4"/><circle cx="603.2" cy="214" r="1.4"/><circle cx="609.5" cy="214" r="1.4"/><circle cx="615.7" cy="214" r="1.4"/><circle cx="622.0" cy="214" r="1.4"/></g><ellipse cx="550" cy="306" rx="46" ry="16" fill="url(#contactGlow)"/><g fill="#8ff3ff" opacity="0.95"><circle cx="523.0" cy="306" r="2.4"/><circle cx="525.3" cy="306" r="2.4"/><circle cx="527.7" cy="306" r="2.4"/><circle cx="530.0" cy="306" r="2.4"/><circle cx="532.4" cy="306" r="2.4"/><circle cx="534.7" cy="306" r="2.4"/><circle cx="537.1" cy="306" r="2.4"/><circle cx="539.4" cy="306" r="2.4"/><circle cx="541.8" cy="306" r="2.4"/><circle cx="544.1" cy="306" r="2.4"/><circle cx="546.5" cy="306" r="2.4"/><circle cx="548.8" cy="306" r="2.4"/><circle cx="551.2" cy="306" r="2.4"/><circle cx="553.5" cy="306" r="2.4"/><circle cx="555.9" cy="306" r="2.4"/><circle cx="558.2" cy="306" r="2.4"/><circle cx="560.6" cy="306" r="2.4"/><circle cx="562.9" cy="306" r="2.4"/><circle cx="565.3" cy="306" r="2.4"/><circle cx="567.6" cy="306" r="2.4"/><circle cx="570.0" cy="306" r="2.4"/><circle cx="572.3" cy="306" r="2.4"/><circle cx="574.7" cy="306" r="2.4"/><circle cx="577.0" cy="306" r="2.4"/></g><line x1="520" y1="306" x2="580" y2="306" stroke="#38e1ff" stroke-width="9" opacity="0.1" stroke-linecap="round"/><line x1="520" y1="306" x2="580" y2="306" stroke="#38e1ff" stroke-width="4.5" opacity="0.28" stroke-linecap="round"/><line x1="520" y1="306" x2="580" y2="306" stroke="#38e1ff" stroke-width="1.6" opacity="0.9" stroke-linecap="round"/><rect x="350" y="306" width="400" height="12" fill="url(#wafer)" stroke="#d7e3f4" stroke-width="2" opacity="0.92"/><line x1="350" y1="309" x2="750" y2="309" stroke="#d7e3f4" stroke-width="1.1" fill="none" opacity="0.55"/><rect x="370.0" y="300" width="18.6" height="5" stroke="#41e396" stroke-width="0.9" fill="#41e396" fill-opacity="0.14" opacity="0.5"/><rect x="390.0" y="300" width="18.6" height="5" stroke="#41e396" stroke-width="0.9" fill="#41e396" fill-opacity="0.14" opacity="0.5"/><rect x="410.0" y="300" width="18.6" height="5" stroke="#ff5d73" stroke-width="0.9" fill="#ff5d73" fill-opacity="0.14" opacity="0.5"/><rect x="430.0" y="300" width="18.6" height="5" stroke="#41e396" stroke-width="0.9" fill="#41e396" fill-opacity="0.14" opacity="0.5"/><rect x="450.0" y="300" width="18.6" height="5" stroke="#41e396" stroke-width="0.9" fill="#41e396" fill-opacity="0.14" opacity="0.5"/><rect x="470.0" y="300" width="18.6" height="5" stroke="#41e396" stroke-width="0.9" fill="#41e396" fill-opacity="0.14" opacity="0.5"/><rect x="490.0" y="300" width="18.6" height="5" stroke="#ff5d73" stroke-width="0.9" fill="#ff5d73" fill-opacity="0.14" opacity="0.5"/><rect x="510.0" y="300" width="18.6" height="5" stroke="#41e396" stroke-width="0.9" fill="#41e396" fill-opacity="0.14" opacity="0.16"/><rect x="530.0" y="300" width="18.6" height="5" stroke="#41e396" stroke-width="0.9" fill="#41e396" fill-opacity="0.14" opacity="0.16"/><rect x="550.0" y="300" width="18.6" height="5" stroke="#41e396" stroke-width="0.9" fill="#41e396" fill-opacity="0.14" opacity="0.16"/><rect x="570.0" y="300" width="18.6" height="5" stroke="#41e396" stroke-width="0.9" fill="#41e396" fill-opacity="0.14" opacity="0.16"/><rect x="590.0" y="300" width="18.6" height="5" stroke="#ff5d73" stroke-width="0.9" fill="#ff5d73" fill-opacity="0.14" opacity="0.5"/><rect x="610.0" y="300" width="18.6" height="5" stroke="#41e396" stroke-width="0.9" fill="#41e396" fill-opacity="0.14" opacity="0.5"/><rect x="630.0" y="300" width="18.6" height="5" stroke="#41e396" stroke-width="0.9" fill="#41e396" fill-opacity="0.14" opacity="0.5"/><rect x="650.0" y="300" width="18.6" height="5" stroke="#41e396" stroke-width="0.9" fill="#41e396" fill-opacity="0.14" opacity="0.5"/><rect x="670.0" y="300" width="18.6" height="5" stroke="#41e396" stroke-width="0.9" fill="#41e396" fill-opacity="0.14" opacity="0.5"/><rect x="690.0" y="300" width="18.6" height="5" stroke="#41e396" stroke-width="0.9" fill="#41e396" fill-opacity="0.14" opacity="0.5"/><rect x="710.0" y="300" width="18.6" height="5" stroke="#ff5d73" stroke-width="0.9" fill="#ff5d73" fill-opacity="0.14" opacity="0.5"/><g stroke="#d7e3f4" stroke-width="0.6" fill="none" opacity="0.3"><line x1="390.0" y1="306" x2="390.0" y2="310"/><line x1="410.0" y1="306" x2="410.0" y2="310"/><line x1="430.0" y1="306" x2="430.0" y2="310"/><line x1="450.0" y1="306" x2="450.0" y2="310"/><line x1="470.0" y1="306" x2="470.0" y2="310"/><line x1="490.0" y1="306" x2="490.0" y2="310"/><line x1="510.0" y1="306" x2="510.0" y2="310"/><line x1="530.0" y1="306" x2="530.0" y2="310"/><line x1="550.0" y1="306" x2="550.0" y2="310"/><line x1="570.0" y1="306" x2="570.0" y2="310"/><line x1="590.0" y1="306" x2="590.0" y2="310"/><line x1="610.0" y1="306" x2="610.0" y2="310"/><line x1="630.0" y1="306" x2="630.0" y2="310"/><line x1="650.0" y1="306" x2="650.0" y2="310"/><line x1="670.0" y1="306" x2="670.0" y2="310"/><line x1="690.0" y1="306" x2="690.0" y2="310"/><line x1="710.0" y1="306" x2="710.0" y2="310"/></g><rect x="330" y="318" width="440" height="46" rx="3" fill="url(#metal)" stroke="#d7e3f4" stroke-width="2" opacity="0.92"/><g fill="#2a303c" stroke="#d7e3f4" stroke-width="0.6" opacity="0.3"><rect x="360" y="320" width="8" height="3" rx="1.5"/><rect x="382" y="320" width="8" height="3" rx="1.5"/><rect x="404" y="320" width="8" height="3" rx="1.5"/><rect x="426" y="320" width="8" height="3" rx="1.5"/><rect x="448" y="320" width="8" height="3" rx="1.5"/><rect x="470" y="320" width="8" height="3" rx="1.5"/><rect x="492" y="320" width="8" height="3" rx="1.5"/><rect x="514" y="320" width="8" height="3" rx="1.5"/><rect x="536" y="320" width="8" height="3" rx="1.5"/><rect x="558" y="320" width="8" height="3" rx="1.5"/><rect x="580" y="320" width="8" height="3" rx="1.5"/><rect x="602" y="320" width="8" height="3" rx="1.5"/><rect x="624" y="320" width="8" height="3" rx="1.5"/><rect x="646" y="320" width="8" height="3" rx="1.5"/><rect x="668" y="320" width="8" height="3" rx="1.5"/><rect x="690" y="320" width="8" height="3" rx="1.5"/><rect x="712" y="320" width="8" height="3" rx="1.5"/><rect x="734" y="320" width="8" height="3" rx="1.5"/></g><g stroke="#38e1ff" stroke-width="1" opacity="0.4"><line x1="380" y1="322" x2="380" y2="358"/><line x1="440" y1="322" x2="440" y2="358"/><line x1="500" y1="322" x2="500" y2="358"/><line x1="600" y1="322" x2="600" y2="358"/><line x1="660" y1="322" x2="660" y2="358"/><line x1="720" y1="322" x2="720" y2="358"/></g><g fill="#2a303c" stroke="#d7e3f4" stroke-width="0.6" opacity="0.3"><circle cx="380" cy="322" r="1.6"/><circle cx="440" cy="322" r="1.6"/><circle cx="500" cy="322" r="1.6"/><circle cx="600" cy="322" r="1.6"/><circle cx="660" cy="322" r="1.6"/><circle cx="720" cy="322" r="1.6"/></g><rect x="350" y="356" width="400" height="5" rx="2" fill="#232a36" stroke="#d7e3f4" stroke-width="1.1" opacity="0.55"/><path d="M 350 359 Q 300 374 290 404" stroke="#38e1ff" stroke-width="2.4" fill="none" opacity="0.5"/><path d="M 350 359 Q 300 374 290 404" stroke="#d7e3f4" stroke-width="1.1" fill="none" opacity="0.55"/><circle cx="340" cy="330" r="3" fill="url(#metalD)" stroke="#d7e3f4" stroke-width="1.1" opacity="0.55"/><circle cx="340" cy="352" r="3" fill="url(#metalD)" stroke="#d7e3f4" stroke-width="1.1" opacity="0.55"/><circle cx="760" cy="330" r="3" fill="url(#metalD)" stroke="#d7e3f4" stroke-width="1.1" opacity="0.55"/><circle cx="760" cy="352" r="3" fill="url(#metalD)" stroke="#d7e3f4" stroke-width="1.1" opacity="0.55"/><rect x="370" y="364" width="360" height="10" rx="4" fill="url(#metalD)" stroke="#d7e3f4" stroke-width="1.1" opacity="0.55"/><g stroke="#d7e3f4" stroke-width="0.6" fill="none" opacity="0.3"><line x1="385" y1="365" x2="385" y2="373"/><line x1="399" y1="365" x2="399" y2="373"/><line x1="413" y1="365" x2="413" y2="373"/><line x1="427" y1="365" x2="427" y2="373"/><line x1="441" y1="365" x2="441" y2="373"/><line x1="455" y1="365" x2="455" y2="373"/><line x1="469" y1="365" x2="469" y2="373"/><line x1="483" y1="365" x2="483" y2="373"/><line x1="497" y1="365" x2="497" y2="373"/><line x1="511" y1="365" x2="511" y2="373"/><line x1="525" y1="365" x2="525" y2="373"/><line x1="539" y1="365" x2="539" y2="373"/><line x1="553" y1="365" x2="553" y2="373"/><line x1="567" y1="365" x2="567" y2="373"/><line x1="581" y1="365" x2="581" y2="373"/><line x1="595" y1="365" x2="595" y2="373"/><line x1="609" y1="365" x2="609" y2="373"/><line x1="623" y1="365" x2="623" y2="373"/><line x1="637" y1="365" x2="637" y2="373"/><line x1="651" y1="365" x2="651" y2="373"/><line x1="665" y1="365" x2="665" y2="373"/><line x1="679" y1="365" x2="679" y2="373"/><line x1="693" y1="365" x2="693" y2="373"/><line x1="707" y1="365" x2="707" y2="373"/><line x1="721" y1="365" x2="721" y2="373"/></g><rect x="524" y="374" width="52" height="30" fill="url(#metalD)" stroke="#d7e3f4" stroke-width="1.1" opacity="0.55"/><line x1="550" y1="376" x2="550" y2="402" stroke="#d7e3f4" stroke-width="0.6" fill="none" opacity="0.3"/><path d="M 524 376.0 L 519 379.3 L 524 382.6" stroke="#d7e3f4" stroke-width="0.6" fill="none" opacity="0.3"/><path d="M 576 376.0 L 581 379.3 L 576 382.6" stroke="#d7e3f4" stroke-width="0.6" fill="none" opacity="0.3"/><path d="M 524 382.6 L 519 385.90000000000003 L 524 389.20000000000005" stroke="#d7e3f4" stroke-width="0.6" fill="none" opacity="0.3"/><path d="M 576 382.6 L 581 385.90000000000003 L 576 389.20000000000005" stroke="#d7e3f4" stroke-width="0.6" fill="none" opacity="0.3"/><path d="M 524 389.2 L 519 392.5 L 524 395.8" stroke="#d7e3f4" stroke-width="0.6" fill="none" opacity="0.3"/><path d="M 576 389.2 L 581 392.5 L 576 395.8" stroke="#d7e3f4" stroke-width="0.6" fill="none" opacity="0.3"/><path d="M 524 395.8 L 519 399.1 L 524 402.40000000000003" stroke="#d7e3f4" stroke-width="0.6" fill="none" opacity="0.3"/><path d="M 576 395.8 L 581 399.1 L 576 402.40000000000003" stroke="#d7e3f4" stroke-width="0.6" fill="none" opacity="0.3"/><rect x="300" y="404" width="500" height="16" rx="2" fill="url(#metal)" stroke="#d7e3f4" stroke-width="2" opacity="0.92"/><rect x="280" y="424" width="540" height="16" rx="2" fill="url(#metalD)" stroke="#d7e3f4" stroke-width="2" opacity="0.92"/><line x1="306" y1="417" x2="794" y2="417" stroke="#d7e3f4" stroke-width="1.1" fill="none" opacity="0.55"/><line x1="306" y1="437" x2="794" y2="437" stroke="#d7e3f4" stroke-width="1.1" fill="none" opacity="0.55"/><g stroke="#d7e3f4" stroke-width="0.6" fill="none" opacity="0.3"><line x1="314" y1="414" x2="314" y2="420"/><line x1="334" y1="414" x2="334" y2="420"/><line x1="354" y1="414" x2="354" y2="420"/><line x1="374" y1="414" x2="374" y2="420"/><line x1="394" y1="414" x2="394" y2="420"/><line x1="414" y1="414" x2="414" y2="420"/><line x1="434" y1="414" x2="434" y2="420"/><line x1="454" y1="414" x2="454" y2="420"/><line x1="474" y1="414" x2="474" y2="420"/><line x1="494" y1="414" x2="494" y2="420"/><line x1="514" y1="414" x2="514" y2="420"/><line x1="534" y1="414" x2="534" y2="420"/><line x1="554" y1="414" x2="554" y2="420"/><line x1="574" y1="414" x2="574" y2="420"/><line x1="594" y1="414" x2="594" y2="420"/><line x1="614" y1="414" x2="614" y2="420"/><line x1="634" y1="414" x2="634" y2="420"/><line x1="654" y1="414" x2="654" y2="420"/><line x1="674" y1="414" x2="674" y2="420"/><line x1="694" y1="414" x2="694" y2="420"/><line x1="714" y1="414" x2="714" y2="420"/><line x1="734" y1="414" x2="734" y2="420"/><line x1="754" y1="414" x2="754" y2="420"/><line x1="774" y1="414" x2="774" y2="420"/><line x1="314" y1="434" x2="314" y2="440"/><line x1="334" y1="434" x2="334" y2="440"/><line x1="354" y1="434" x2="354" y2="440"/><line x1="374" y1="434" x2="374" y2="440"/><line x1="394" y1="434" x2="394" y2="440"/><line x1="414" y1="434" x2="414" y2="440"/><line x1="434" y1="434" x2="434" y2="440"/><line x1="454" y1="434" x2="454" y2="440"/><line x1="474" y1="434" x2="474" y2="440"/><line x1="494" y1="434" x2="494" y2="440"/><line x1="514" y1="434" x2="514" y2="440"/><line x1="534" y1="434" x2="534" y2="440"/><line x1="554" y1="434" x2="554" y2="440"/><line x1="574" y1="434" x2="574" y2="440"/><line x1="594" y1="434" x2="594" y2="440"/><line x1="614" y1="434" x2="614" y2="440"/><line x1="634" y1="434" x2="634" y2="440"/><line x1="654" y1="434" x2="654" y2="440"/><line x1="674" y1="434" x2="674" y2="440"/><line x1="694" y1="434" x2="694" y2="440"/><line x1="714" y1="434" x2="714" y2="440"/><line x1="734" y1="434" x2="734" y2="440"/><line x1="754" y1="434" x2="754" y2="440"/><line x1="774" y1="434" x2="774" y2="440"/></g><rect x="364" y="405" width="32" height="14" rx="1.5" fill="url(#metalD)" stroke="#d7e3f4" stroke-width="1.1" opacity="0.55"/><rect x="704" y="405" width="32" height="14" rx="1.5" fill="url(#metalD)" stroke="#d7e3f4" stroke-width="1.1" opacity="0.55"/><rect x="324" y="425" width="32" height="14" rx="1.5" fill="url(#metalD)" stroke="#d7e3f4" stroke-width="1.1" opacity="0.55"/><rect x="744" y="425" width="32" height="14" rx="1.5" fill="url(#metalD)" stroke="#d7e3f4" stroke-width="1.1" opacity="0.55"/><line x1="284" y1="449" x2="830" y2="449" stroke="url(#metal)" stroke-width="7"/><line x1="284" y1="449" x2="830" y2="449" stroke="#d7e3f4" stroke-width="1.1" fill="none" opacity="0.55"/><g stroke="#d7e3f4" stroke-width="0.6" fill="none" opacity="0.3"><path d="M 290 445.5 Q 297 449 304 452.5"/><path d="M 304 445.5 Q 311 449 318 452.5"/><path d="M 318 445.5 Q 325 449 332 452.5"/><path d="M 332 445.5 Q 339 449 346 452.5"/><path d="M 346 445.5 Q 353 449 360 452.5"/><path d="M 360 445.5 Q 367 449 374 452.5"/><path d="M 374 445.5 Q 381 449 388 452.5"/><path d="M 388 445.5 Q 395 449 402 452.5"/><path d="M 402 445.5 Q 409 449 416 452.5"/><path d="M 416 445.5 Q 423 449 430 452.5"/><path d="M 430 445.5 Q 437 449 444 452.5"/><path d="M 444 445.5 Q 451 449 458 452.5"/><path d="M 458 445.5 Q 465 449 472 452.5"/><path d="M 472 445.5 Q 479 449 486 452.5"/><path d="M 486 445.5 Q 493 449 500 452.5"/><path d="M 500 445.5 Q 507 449 514 452.5"/><path d="M 514 445.5 Q 521 449 528 452.5"/><path d="M 528 445.5 Q 535 449 542 452.5"/><path d="M 542 445.5 Q 549 449 556 452.5"/><path d="M 556 445.5 Q 563 449 570 452.5"/><path d="M 570 445.5 Q 577 449 584 452.5"/><path d="M 584 445.5 Q 591 449 598 452.5"/><path d="M 598 445.5 Q 605 449 612 452.5"/><path d="M 612 445.5 Q 619 449 626 452.5"/><path d="M 626 445.5 Q 633 449 640 452.5"/><path d="M 640 445.5 Q 647 449 654 452.5"/><path d="M 654 445.5 Q 661 449 668 452.5"/><path d="M 668 445.5 Q 675 449 682 452.5"/><path d="M 682 445.5 Q 689 449 696 452.5"/><path d="M 696 445.5 Q 703 449 710 452.5"/><path d="M 710 445.5 Q 717 449 724 452.5"/><path d="M 724 445.5 Q 731 449 738 452.5"/><path d="M 738 445.5 Q 745 449 752 452.5"/><path d="M 752 445.5 Q 759 449 766 452.5"/><path d="M 766 445.5 Q 773 449 780 452.5"/><path d="M 780 445.5 Q 787 449 794 452.5"/><path d="M 794 445.5 Q 801 449 808 452.5"/><path d="M 808 445.5 Q 815 449 822 452.5"/><path d="M 822 445.5 Q 829 449 836 452.5"/></g><rect x="830" y="435" width="34" height="28" rx="3" fill="url(#metalD)" stroke="#d7e3f4" stroke-width="2" opacity="0.92"/><line x1="834" y1="439" x2="860" y2="439" stroke="#d7e3f4" stroke-width="0.6" fill="none" opacity="0.3"/><line x1="834" y1="444" x2="860" y2="444" stroke="#d7e3f4" stroke-width="0.6" fill="none" opacity="0.3"/><line x1="834" y1="449" x2="860" y2="449" stroke="#d7e3f4" stroke-width="0.6" fill="none" opacity="0.3"/><line x1="834" y1="454" x2="860" y2="454" stroke="#d7e3f4" stroke-width="0.6" fill="none" opacity="0.3"/><line x1="834" y1="459" x2="860" y2="459" stroke="#d7e3f4" stroke-width="0.6" fill="none" opacity="0.3"/><rect x="864" y="442" width="10" height="14" rx="2" fill="url(#metal)" stroke="#d7e3f4" stroke-width="1.1" opacity="0.55"/><rect x="530" y="443" width="40" height="12" rx="2" fill="url(#metalD)" stroke="#d7e3f4" stroke-width="1.1" opacity="0.55"/><rect x="232" y="234" width="36" height="30" rx="3" fill="url(#metalD)" stroke="#d7e3f4" stroke-width="2" opacity="0.92"/><rect x="241" y="264" width="18" height="12" rx="2" fill="url(#metal)" stroke="#d7e3f4" stroke-width="1.1" opacity="0.55"/><ellipse cx="250" cy="276" rx="9" ry="3" fill="#0c1018" stroke="#d7e3f4" stroke-width="1.1" opacity="0.55"/><ellipse cx="250" cy="276" rx="7" ry="2.4" stroke="#d7e3f4" stroke-width="0.6" fill="none" opacity="0.3"/><ellipse cx="250" cy="276" rx="4" ry="1.4" stroke="#d7e3f4" stroke-width="0.6" fill="none" opacity="0.3"/><line x1="250" y1="278" x2="420" y2="306" stroke="#38e1ff" stroke-width="1.2" opacity="0.6" stroke-dasharray="3 4"/><circle cx="420" cy="306" r="3.2" fill="none" stroke="#38e1ff" stroke-width="1" opacity="0.7"/><rect x="828" y="248" width="36" height="30" rx="3" fill="url(#metalD)" stroke="#d7e3f4" stroke-width="2" opacity="0.92"/><rect x="837" y="234" width="18" height="14" rx="2" fill="url(#metal)" stroke="#d7e3f4" stroke-width="1.1" opacity="0.55"/><ellipse cx="846" cy="234" rx="9" ry="3" fill="#0c1018" stroke="#d7e3f4" stroke-width="1.1" opacity="0.55"/><ellipse cx="846" cy="234" rx="7" ry="2.4" stroke="#d7e3f4" stroke-width="0.6" fill="none" opacity="0.3"/><ellipse cx="846" cy="234" rx="4" ry="1.4" stroke="#d7e3f4" stroke-width="0.6" fill="none" opacity="0.3"/><line x1="846" y1="232" x2="580" y2="302" stroke="#38e1ff" stroke-width="1.2" opacity="0.6" stroke-dasharray="3 4"/><path d="M 846 278 L 846 330 L 880 330 L 880 430" stroke="#d7e3f4" stroke-width="2" fill="none" opacity="0.92"/><rect x="842" y="278" width="8" height="20" fill="url(#metalD)" stroke="#d7e3f4" stroke-width="1.1" opacity="0.55"/><circle cx="880" cy="330" r="3" fill="url(#metal)" stroke="#d7e3f4" stroke-width="1.1" opacity="0.55"/><circle cx="880" cy="360" r="3" fill="url(#metal)" stroke="#d7e3f4" stroke-width="1.1" opacity="0.55"/><circle cx="880" cy="400" r="3" fill="url(#metal)" stroke="#d7e3f4" stroke-width="1.1" opacity="0.55"/><circle cx="880" cy="430" r="3" fill="url(#metal)" stroke="#d7e3f4" stroke-width="1.1" opacity="0.55"/><path d="M 250 234 L 250 210 L 300 210" stroke="#d7e3f4" stroke-width="2" fill="none" opacity="0.92"/><rect x="246" y="200" width="8" height="18" fill="url(#metalD)" stroke="#d7e3f4" stroke-width="1.1" opacity="0.55"/><path d="M 230 40.0 C 170 34.0 130 70 120 150" stroke="#d7e3f4" stroke-width="1.6" fill="none" opacity="0.35"/><path d="M 230 43.5 C 170 37.5 130 80 120 164" stroke="#d7e3f4" stroke-width="1.6" fill="none" opacity="0.39"/><path d="M 230 47.0 C 170 41.0 130 90 120 178" stroke="#d7e3f4" stroke-width="1.6" fill="none" opacity="0.43"/><path d="M 230 50.5 C 170 44.5 130 100 120 192" stroke="#d7e3f4" stroke-width="1.6" fill="none" opacity="0.47"/><path d="M 230 54.0 C 170 48.0 130 110 120 206" stroke="#d7e3f4" stroke-width="1.6" fill="none" opacity="0.51"/><path d="M 230 57.5 C 170 51.5 130 120 120 220" stroke="#d7e3f4" stroke-width="1.6" fill="none" opacity="0.55"/><path d="M 230 61.0 C 170 55.0 130 130 120 234" stroke="#d7e3f4" stroke-width="1.6" fill="none" opacity="0.59"/><rect x="150" y="52" width="16" height="26" rx="3" fill="url(#metalD)" stroke="#d7e3f4" stroke-width="1.1" opacity="0.55"/><line x1="150" y1="58" x2="166" y2="58" stroke="#d7e3f4" stroke-width="0.6" fill="none" opacity="0.3"/><line x1="150" y1="65" x2="166" y2="65" stroke="#d7e3f4" stroke-width="0.6" fill="none" opacity="0.3"/><line x1="150" y1="72" x2="166" y2="72" stroke="#d7e3f4" stroke-width="0.6" fill="none" opacity="0.3"/><path d="M 845 74 C 900 74 940 90 960 150" stroke="#d7e3f4" stroke-width="1.5" fill="none" opacity="0.32"/><path d="M 845 77 C 900 77 940 98 960 162" stroke="#d7e3f4" stroke-width="1.5" fill="none" opacity="0.36"/><path d="M 845 80 C 900 80 940 106 960 174" stroke="#d7e3f4" stroke-width="1.5" fill="none" opacity="0.40"/><path d="M 845 83 C 900 83 940 114 960 186" stroke="#d7e3f4" stroke-width="1.5" fill="none" opacity="0.44"/><path d="M 845 86 C 900 86 940 122 960 198" stroke="#d7e3f4" stroke-width="1.5" fill="none" opacity="0.48"/><path d="M 845 89 C 900 89 940 130 960 210" stroke="#d7e3f4" stroke-width="1.5" fill="none" opacity="0.52"/><rect x="180" y="470" width="740" height="192" rx="4" fill="url(#granite)" stroke="#d7e3f4" stroke-width="2" opacity="0.92"/><line x1="180" y1="478" x2="920" y2="478" stroke="#d7e3f4" stroke-width="1.1" fill="none" opacity="0.55"/><g stroke="#d7e3f4" stroke-width="0.6" opacity="0.35"><line x1="186.0" y1="482.0" x2="186.0" y2="482.0"/><line x1="208.6" y1="482.0" x2="186.0" y2="504.6"/><line x1="231.2" y1="482.0" x2="186.0" y2="527.2"/><line x1="253.9" y1="482.0" x2="186.0" y2="549.9"/><line x1="276.5" y1="482.0" x2="186.0" y2="572.5"/><line x1="299.1" y1="482.0" x2="186.0" y2="595.1"/><line x1="321.7" y1="482.0" x2="186.0" y2="617.7"/><line x1="344.4" y1="482.0" x2="186.0" y2="640.4"/><line x1="367.0" y1="482.0" x2="193.0" y2="656.0"/><line x1="389.6" y1="482.0" x2="215.6" y2="656.0"/><line x1="412.2" y1="482.0" x2="238.2" y2="656.0"/><line x1="434.9" y1="482.0" x2="260.9" y2="656.0"/><line x1="457.5" y1="482.0" x2="283.5" y2="656.0"/><line x1="480.1" y1="482.0" x2="306.1" y2="656.0"/><line x1="502.7" y1="482.0" x2="328.7" y2="656.0"/><line x1="525.4" y1="482.0" x2="351.4" y2="656.0"/><line x1="548.0" y1="482.0" x2="374.0" y2="656.0"/><line x1="570.6" y1="482.0" x2="396.6" y2="656.0"/><line x1="593.2" y1="482.0" x2="419.2" y2="656.0"/><line x1="615.9" y1="482.0" x2="441.9" y2="656.0"/><line x1="638.5" y1="482.0" x2="464.5" y2="656.0"/><line x1="661.1" y1="482.0" x2="487.1" y2="656.0"/><line x1="683.7" y1="482.0" x2="509.7" y2="656.0"/><line x1="706.4" y1="482.0" x2="532.4" y2="656.0"/><line x1="729.0" y1="482.0" x2="555.0" y2="656.0"/><line x1="751.6" y1="482.0" x2="577.6" y2="656.0"/><line x1="774.2" y1="482.0" x2="600.2" y2="656.0"/><line x1="796.8" y1="482.0" x2="622.8" y2="656.0"/><line x1="819.5" y1="482.0" x2="645.5" y2="656.0"/><line x1="842.1" y1="482.0" x2="668.1" y2="656.0"/><line x1="864.7" y1="482.0" x2="690.7" y2="656.0"/><line x1="887.3" y1="482.0" x2="713.3" y2="656.0"/><line x1="910.0" y1="482.0" x2="736.0" y2="656.0"/><line x1="758.6" y1="656.0" x2="914.0" y2="500.6"/><line x1="781.2" y1="656.0" x2="914.0" y2="523.2"/><line x1="803.8" y1="656.0" x2="914.0" y2="545.8"/><line x1="826.5" y1="656.0" x2="914.0" y2="568.5"/><line x1="849.1" y1="656.0" x2="914.0" y2="591.1"/><line x1="871.7" y1="656.0" x2="914.0" y2="613.7"/><line x1="894.3" y1="656.0" x2="914.0" y2="636.3"/></g><rect x="214" y="662" width="52" height="26" rx="4" fill="url(#metalD)" stroke="#d7e3f4" stroke-width="2" opacity="0.92"/><rect x="210" y="688" width="60" height="8" rx="2" fill="url(#metal)" stroke="#d7e3f4" stroke-width="1.1" opacity="0.55"/><rect x="524" y="662" width="52" height="26" rx="4" fill="url(#metalD)" stroke="#d7e3f4" stroke-width="2" opacity="0.92"/><rect x="520" y="688" width="60" height="8" rx="2" fill="url(#metal)" stroke="#d7e3f4" stroke-width="1.1" opacity="0.55"/><rect x="834" y="662" width="52" height="26" rx="4" fill="url(#metalD)" stroke="#d7e3f4" stroke-width="2" opacity="0.92"/><rect x="830" y="688" width="60" height="8" rx="2" fill="url(#metal)" stroke="#d7e3f4" stroke-width="1.1" opacity="0.55"/><g stroke="#d7e3f4" stroke-width="0.6" fill="none" opacity="0.3"><line x1="220" y1="668" x2="260" y2="668"/><line x1="220" y1="674" x2="260" y2="674"/><line x1="220" y1="680" x2="260" y2="680"/><line x1="530" y1="668" x2="570" y2="668"/><line x1="530" y1="674" x2="570" y2="674"/><line x1="530" y1="680" x2="570" y2="680"/><line x1="840" y1="668" x2="880" y2="668"/><line x1="840" y1="674" x2="880" y2="674"/><line x1="840" y1="680" x2="880" y2="680"/></g><g fill="url(#metal)" stroke="#d7e3f4" stroke-width="1.1" opacity="0.55"><circle cx="220" cy="474" r="2.6"/><circle cx="280" cy="474" r="2.6"/><circle cx="340" cy="474" r="2.6"/><circle cx="400" cy="474" r="2.6"/><circle cx="460" cy="474" r="2.6"/><circle cx="520" cy="474" r="2.6"/><circle cx="580" cy="474" r="2.6"/><circle cx="640" cy="474" r="2.6"/><circle cx="700" cy="474" r="2.6"/><circle cx="760" cy="474" r="2.6"/><circle cx="820" cy="474" r="2.6"/><circle cx="880" cy="474" r="2.6"/></g><rect x="350" y="457" width="20" height="13" fill="url(#metalD)" stroke="#d7e3f4" stroke-width="1.1" opacity="0.55"/><line x1="360" y1="459" x2="360" y2="468" stroke="#d7e3f4" stroke-width="0.6" fill="none" opacity="0.3"/><rect x="730" y="457" width="20" height="13" fill="url(#metalD)" stroke="#d7e3f4" stroke-width="1.1" opacity="0.55"/><line x1="740" y1="459" x2="740" y2="468" stroke="#d7e3f4" stroke-width="0.6" fill="none" opacity="0.3"/><line x1="550" y1="30" x2="550" y2="695" stroke="#38e1ff" stroke-width="0.6" opacity="0.18" stroke-dasharray="2 8"/></svg><circle cx="699.0" cy="337.2" r="2.6" fill="#38e1ff" opacity="0.9"/><path d="M 699.0 337.2 L 225 330" stroke="#d7e3f4" stroke-width="0.9" opacity="0.5" fill="none"/><circle cx="546.0" cy="391.3" r="2.6" fill="#38e1ff" opacity="0.9"/><path d="M 546.0 391.3 L 225 402" stroke="#d7e3f4" stroke-width="0.9" opacity="0.5" fill="none"/><circle cx="495.0" cy="480.0" r="2.6" fill="#38e1ff" opacity="0.9"/><path d="M 495.0 480.0 L 225 478" stroke="#d7e3f4" stroke-width="0.9" opacity="0.5" fill="none"/><circle cx="734.7" cy="485.1" r="2.6" fill="#38e1ff" opacity="0.9"/><path d="M 734.7 485.1 L 225 552" stroke="#d7e3f4" stroke-width="0.9" opacity="0.5" fill="none"/><circle cx="648.0" cy="571.8" r="2.6" fill="#38e1ff" opacity="0.9"/><path d="M 648.0 571.8 L 225 628" stroke="#d7e3f4" stroke-width="0.9" opacity="0.5" fill="none"/><circle cx="801.0" cy="308.6" r="2.6" fill="#38e1ff" opacity="0.9"/><path d="M 801.0 308.6 L 1390 306" stroke="#d7e3f4" stroke-width="0.9" opacity="0.5" fill="none"/><circle cx="1102.9" cy="492.2" r="2.6" fill="#38e1ff" opacity="0.9"/><path d="M 1102.9 492.2 L 1390 488" stroke="#d7e3f4" stroke-width="0.9" opacity="0.5" fill="none"/><circle cx="948.9" cy="533.0" r="2.6" fill="#38e1ff" opacity="0.9"/><path d="M 948.9 533.0 L 1390 554" stroke="#d7e3f4" stroke-width="0.9" opacity="0.5" fill="none"/><circle cx="1091.7" cy="683.0" r="2.6" fill="#38e1ff" opacity="0.9"/><path d="M 1091.7 683.0 L 1390 660" stroke="#d7e3f4" stroke-width="0.9" opacity="0.5" fill="none"/><circle cx="801.0" cy="806.4" r="2.6" fill="#38e1ff" opacity="0.9"/><path d="M 801.0 806.4 L 770 872" stroke="#d7e3f4" stroke-width="0.9" opacity="0.5" fill="none"/><text x="213" y="336" text-anchor="end" font-family="'IBM Plex Mono','JetBrains Mono',ui-monospace,Consolas,monospace" font-size="19" font-weight="600" fill="#e8eef7" fill-opacity="0.95">POGO CONTACTS</text><text x="213" y="408" text-anchor="end" font-family="'IBM Plex Mono','JetBrains Mono',ui-monospace,Consolas,monospace" font-size="19" font-weight="600" fill="#e8eef7" fill-opacity="0.95">PROBE CARD</text><text x="213" y="484" text-anchor="end" font-family="'IBM Plex Mono','JetBrains Mono',ui-monospace,Consolas,monospace" font-size="19" font-weight="600" fill="#e8eef7" fill-opacity="0.95">WAFER ALIGN CAM</text><text x="213" y="558" text-anchor="end" font-family="'IBM Plex Mono','JetBrains Mono',ui-monospace,Consolas,monospace" font-size="19" font-weight="600" fill="#e8eef7" fill-opacity="0.95">NEEDLES ×24</text><text x="213" y="634" text-anchor="end" font-family="'IBM Plex Mono','JetBrains Mono',ui-monospace,Consolas,monospace" font-size="19" font-weight="600" fill="#e8eef7" fill-opacity="0.95">VACUUM CHUCK</text><text x="1402" y="312" text-anchor="start" font-family="'IBM Plex Mono','JetBrains Mono',ui-monospace,Consolas,monospace" font-size="19" font-weight="600" fill="#e8eef7" fill-opacity="0.95">TESTER HEAD</text><text x="1402" y="494" text-anchor="start" font-family="'IBM Plex Mono','JetBrains Mono',ui-monospace,Consolas,monospace" font-size="19" font-weight="600" fill="#e8eef7" fill-opacity="0.95">NEEDLE-TIP CAM</text><text x="1402" y="560" text-anchor="start" font-family="'IBM Plex Mono','JetBrains Mono',ui-monospace,Consolas,monospace" font-size="19" font-weight="600" fill="#e8eef7" fill-opacity="0.95">GOOD / FAIL MAP</text><text x="1402" y="666" text-anchor="start" font-family="'IBM Plex Mono','JetBrains Mono',ui-monospace,Consolas,monospace" font-size="19" font-weight="600" fill="#e8eef7" fill-opacity="0.95">LINEAR DRIVE</text><text x="770" y="898" text-anchor="middle" font-family="'IBM Plex Mono','JetBrains Mono',ui-monospace,Consolas,monospace" font-size="19" font-weight="600" fill="#e8eef7" fill-opacity="0.95">GRANITE + ISOLATORS</text><text x="30" y="1042" font-family="'IBM Plex Mono','JetBrains Mono',ui-monospace,Consolas,monospace" font-size="17" font-weight="500" letter-spacing="0.5" fill="#e8eef7" fill-opacity="0.85">FIG. 9 — Needles of judgement: touching down on every die</text></svg>