<svg xmlns="http://www.w3.org/2000/svg" viewBox="0 0 1600 1060" role="img"><svg x="620" y="64" width="646.0" height="884.0" viewBox="0 0 760 1040"><defs><linearGradient id="gSi" x1="0" y1="0" x2="0" y2="1"><stop offset="0" stop-color="#3a4250"/><stop offset=".5" stop-color="#2a303b"/><stop offset="1" stop-color="#1b2028"/></linearGradient><linearGradient id="gCu" x1="0" y1="0" x2="0" y2="1"><stop offset="0" stop-color="#f0a866"/><stop offset=".4" stop-color="#d97a3c"/><stop offset="1" stop-color="#8f4a20"/></linearGradient><linearGradient id="gCuV" x1="0" y1="0" x2="0" y2="1"><stop offset="0" stop-color="#d97a3c"/><stop offset="1" stop-color="#7a3f1b"/></linearGradient><linearGradient id="gW" x1="0" y1="0" x2="0" y2="1"><stop offset="0" stop-color="#8a929e"/><stop offset=".5" stop-color="#5a6068"/><stop offset="1" stop-color="#33383f"/></linearGradient><linearGradient id="gAl" x1="0" y1="0" x2="0" y2="1"><stop offset="0" stop-color="#c6cedb"/><stop offset=".5" stop-color="#9aa3b2"/><stop offset="1" stop-color="#5a6373"/></linearGradient><radialGradient id="gBump" cx=".38" cy=".32" r=".75"><stop offset="0" stop-color="#cfd8e6"/><stop offset=".45" stop-color="#93a7c2"/><stop offset="1" stop-color="#4a5568"/></radialGradient><radialGradient id="gGlow" cx=".5" cy=".5" r=".5"><stop offset="0" stop-color="#e8a45f" stop-opacity=".5"/><stop offset="1" stop-color="#e8a45f" stop-opacity="0"/></radialGradient><linearGradient id="gILD0" x1="0" y1="0" x2="0" y2="1"><stop offset="0" stop-color="#141b26" stop-opacity=".92"/><stop offset="1" stop-color="#141b26" stop-opacity=".78"/></linearGradient><linearGradient id="gILD1" x1="0" y1="0" x2="0" y2="1"><stop offset="0" stop-color="#151d28" stop-opacity=".92"/><stop offset="1" stop-color="#151d28" stop-opacity=".78"/></linearGradient><linearGradient id="gILD2" x1="0" y1="0" x2="0" y2="1"><stop offset="0" stop-color="#17202b" stop-opacity=".92"/><stop offset="1" stop-color="#17202b" stop-opacity=".78"/></linearGradient><linearGradient id="gILD3" x1="0" y1="0" x2="0" y2="1"><stop offset="0" stop-color="#18222e" stop-opacity=".92"/><stop offset="1" stop-color="#18222e" stop-opacity=".78"/></linearGradient><linearGradient id="gILD4" x1="0" y1="0" x2="0" y2="1"><stop offset="0" stop-color="#1a2531" stop-opacity=".92"/><stop offset="1" stop-color="#1a2531" stop-opacity=".78"/></linearGradient><linearGradient id="gILD5" x1="0" y1="0" x2="0" y2="1"><stop offset="0" stop-color="#1c2834" stop-opacity=".92"/><stop offset="1" stop-color="#1c2834" stop-opacity=".78"/></linearGradient><linearGradient id="gILD6" x1="0" y1="0" x2="0" y2="1"><stop offset="0" stop-color="#1e2b38" stop-opacity=".92"/><stop offset="1" stop-color="#1e2b38" stop-opacity=".78"/></linearGradient><radialGradient id="gInBar" cx=".5" cy=".5" r=".5"><stop offset="0" stop-color="#d97a3c"/><stop offset=".62" stop-color="#d97a3c"/><stop offset=".63" stop-color="#e9c39a"/><stop offset=".78" stop-color="#e9c39a"/><stop offset=".79" stop-color="#6f7986"/><stop offset="1" stop-color="#464e59"/></radialGradient><clipPath id="c1"><rect x="175" y="168" width="410" height="58"/></clipPath><clipPath id="c2"><rect x="175" y="266" width="410" height="50"/></clipPath><clipPath id="c3"><rect x="175" y="352" width="410" height="46"/></clipPath><clipPath id="c4"><rect x="175" y="430" width="410" height="42"/></clipPath><clipPath id="c5"><rect x="175" y="502" width="410" height="38"/></clipPath><clipPath id="c6"><rect x="175" y="568" width="410" height="34"/></clipPath><clipPath id="c7"><rect x="175" y="628" width="410" height="32"/></clipPath><clipPath id="c8"><rect x="175" y="665" width="410" height="70"/></clipPath><clipPath id="c9"><rect x="175" y="775" width="410" height="251"/></clipPath><clipPath id="c10"><rect x="590" y="370" width="164" height="164"/></clipPath><clipPath id="c11"><rect x="590" y="370" width="164" height="164"/></clipPath></defs><rect x="175" y="168" width="410" height="58" fill="url(#gILD0)"/><rect x="175" y="266" width="410" height="50" fill="url(#gILD1)"/><rect x="175" y="352" width="410" height="46" fill="url(#gILD2)"/><rect x="175" y="430" width="410" height="42" fill="url(#gILD3)"/><rect x="175" y="502" width="410" height="38" fill="url(#gILD4)"/><rect x="175" y="568" width="410" height="34" fill="url(#gILD5)"/><rect x="175" y="628" width="410" height="32" fill="url(#gILD6)"/><rect x="175" y="226" width="410" height="5" fill="#2f4a52" opacity=".55"/><rect x="175" y="226" width="410" height="5" fill="none" stroke="#d7e3f4" stroke-width=".6" stroke-opacity=".3"/><rect x="175" y="231" width="410" height="30" fill="url(#gILD0)" opacity=".9"/><rect x="175" y="261" width="410" height="5" fill="#2f4a52" opacity=".55"/><rect x="175" y="261" width="410" height="5" fill="none" stroke="#d7e3f4" stroke-width=".6" stroke-opacity=".3"/><rect x="175" y="316" width="410" height="5" fill="#2f4a52" opacity=".55"/><rect x="175" y="316" width="410" height="5" fill="none" stroke="#d7e3f4" stroke-width=".6" stroke-opacity=".3"/><rect x="175" y="321" width="410" height="26" fill="url(#gILD1)" opacity=".9"/><rect x="175" y="347" width="410" height="5" fill="#2f4a52" opacity=".55"/><rect x="175" y="347" width="410" height="5" fill="none" stroke="#d7e3f4" stroke-width=".6" stroke-opacity=".3"/><rect x="175" y="398" width="410" height="5" fill="#2f4a52" opacity=".55"/><rect x="175" y="398" width="410" height="5" fill="none" stroke="#d7e3f4" stroke-width=".6" stroke-opacity=".3"/><rect x="175" y="403" width="410" height="22" fill="url(#gILD2)" opacity=".9"/><rect x="175" y="425" width="410" height="5" fill="#2f4a52" opacity=".55"/><rect x="175" y="425" width="410" height="5" fill="none" stroke="#d7e3f4" stroke-width=".6" stroke-opacity=".3"/><rect x="175" y="472" width="410" height="5" fill="#2f4a52" opacity=".55"/><rect x="175" y="472" width="410" height="5" fill="none" stroke="#d7e3f4" stroke-width=".6" stroke-opacity=".3"/><rect x="175" y="477" width="410" height="20" fill="url(#gILD3)" opacity=".9"/><rect x="175" y="497" width="410" height="5" fill="#2f4a52" opacity=".55"/><rect x="175" y="497" width="410" height="5" fill="none" stroke="#d7e3f4" stroke-width=".6" stroke-opacity=".3"/><rect x="175" y="540" width="410" height="5" fill="#2f4a52" opacity=".55"/><rect x="175" y="540" width="410" height="5" fill="none" stroke="#d7e3f4" stroke-width=".6" stroke-opacity=".3"/><rect x="175" y="545" width="410" height="18" fill="url(#gILD4)" opacity=".9"/><rect x="175" y="563" width="410" height="5" fill="#2f4a52" opacity=".55"/><rect x="175" y="563" width="410" height="5" fill="none" stroke="#d7e3f4" stroke-width=".6" stroke-opacity=".3"/><rect x="175" y="602" width="410" height="5" fill="#2f4a52" opacity=".55"/><rect x="175" y="602" width="410" height="5" fill="none" stroke="#d7e3f4" stroke-width=".6" stroke-opacity=".3"/><rect x="175" y="607" width="410" height="16" fill="url(#gILD5)" opacity=".9"/><rect x="175" y="623" width="410" height="5" fill="#2f4a52" opacity=".55"/><rect x="175" y="623" width="410" height="5" fill="none" stroke="#d7e3f4" stroke-width=".6" stroke-opacity=".3"/><rect x="175" y="660" width="410" height="5" fill="#2f4a52" opacity=".55"/><rect x="175" y="660" width="410" height="5" fill="none" stroke="#d7e3f4" stroke-width=".6" stroke-opacity=".3"/><g clip-path="url(#c1)" stroke="#d7e3f4" stroke-width="0.5" stroke-opacity="0.16"><line x1="117" y1="226" x2="175" y2="168"/><line x1="175" y1="226" x2="233" y2="168"/><line x1="233" y1="226" x2="291" y2="168"/><line x1="291" y1="226" x2="349" y2="168"/><line x1="349" y1="226" x2="407" y2="168"/><line x1="407" y1="226" x2="465" y2="168"/><line x1="465" y1="226" x2="523" y2="168"/><line x1="523" y1="226" x2="581" y2="168"/><line x1="581" y1="226" x2="639" y2="168"/></g><g clip-path="url(#c2)" stroke="#d7e3f4" stroke-width="0.5" stroke-opacity="0.16"><line x1="125" y1="316" x2="175" y2="266"/><line x1="183" y1="316" x2="233" y2="266"/><line x1="241" y1="316" x2="291" y2="266"/><line x1="299" y1="316" x2="349" y2="266"/><line x1="357" y1="316" x2="407" y2="266"/><line x1="415" y1="316" x2="465" y2="266"/><line x1="473" y1="316" x2="523" y2="266"/><line x1="531" y1="316" x2="581" y2="266"/></g><g clip-path="url(#c3)" stroke="#d7e3f4" stroke-width="0.5" stroke-opacity="0.16"><line x1="129" y1="398" x2="175" y2="352"/><line x1="187" y1="398" x2="233" y2="352"/><line x1="245" y1="398" x2="291" y2="352"/><line x1="303" y1="398" x2="349" y2="352"/><line x1="361" y1="398" x2="407" y2="352"/><line x1="419" y1="398" x2="465" y2="352"/><line x1="477" y1="398" x2="523" y2="352"/><line x1="535" y1="398" x2="581" y2="352"/></g><g clip-path="url(#c4)" stroke="#d7e3f4" stroke-width="0.5" stroke-opacity="0.16"><line x1="133" y1="472" x2="175" y2="430"/><line x1="191" y1="472" x2="233" y2="430"/><line x1="249" y1="472" x2="291" y2="430"/><line x1="307" y1="472" x2="349" y2="430"/><line x1="365" y1="472" x2="407" y2="430"/><line x1="423" y1="472" x2="465" y2="430"/><line x1="481" y1="472" x2="523" y2="430"/><line x1="539" y1="472" x2="581" y2="430"/></g><g clip-path="url(#c5)" stroke="#d7e3f4" stroke-width="0.5" stroke-opacity="0.16"><line x1="137" y1="540" x2="175" y2="502"/><line x1="195" y1="540" x2="233" y2="502"/><line x1="253" y1="540" x2="291" y2="502"/><line x1="311" y1="540" x2="349" y2="502"/><line x1="369" y1="540" x2="407" y2="502"/><line x1="427" y1="540" x2="465" y2="502"/><line x1="485" y1="540" x2="523" y2="502"/><line x1="543" y1="540" x2="581" y2="502"/></g><g clip-path="url(#c6)" stroke="#d7e3f4" stroke-width="0.5" stroke-opacity="0.16"><line x1="141" y1="602" x2="175" y2="568"/><line x1="199" y1="602" x2="233" y2="568"/><line x1="257" y1="602" x2="291" y2="568"/><line x1="315" y1="602" x2="349" y2="568"/><line x1="373" y1="602" x2="407" y2="568"/><line x1="431" y1="602" x2="465" y2="568"/><line x1="489" y1="602" x2="523" y2="568"/><line x1="547" y1="602" x2="581" y2="568"/></g><g clip-path="url(#c7)" stroke="#d7e3f4" stroke-width="0.5" stroke-opacity="0.16"><line x1="143" y1="660" x2="175" y2="628"/><line x1="201" y1="660" x2="233" y2="628"/><line x1="259" y1="660" x2="291" y2="628"/><line x1="317" y1="660" x2="349" y2="628"/><line x1="375" y1="660" x2="407" y2="628"/><line x1="433" y1="660" x2="465" y2="628"/><line x1="491" y1="660" x2="523" y2="628"/><line x1="549" y1="660" x2="581" y2="628"/></g><rect x="175" y="665" width="410" height="70" fill="#14202a" opacity=".9"/><g clip-path="url(#c8)" stroke="#d7e3f4" stroke-width="0.5" stroke-opacity="0.15"><line x1="105" y1="735" x2="175" y2="665"/><line x1="125" y1="735" x2="195" y2="665"/><line x1="145" y1="735" x2="215" y2="665"/><line x1="165" y1="735" x2="235" y2="665"/><line x1="185" y1="735" x2="255" y2="665"/><line x1="205" y1="735" x2="275" y2="665"/><line x1="225" y1="735" x2="295" y2="665"/><line x1="245" y1="735" x2="315" y2="665"/><line x1="265" y1="735" x2="335" y2="665"/><line x1="285" y1="735" x2="355" y2="665"/><line x1="305" y1="735" x2="375" y2="665"/><line x1="325" y1="735" x2="395" y2="665"/><line x1="345" y1="735" x2="415" y2="665"/><line x1="365" y1="735" x2="435" y2="665"/><line x1="385" y1="735" x2="455" y2="665"/><line x1="405" y1="735" x2="475" y2="665"/><line x1="425" y1="735" x2="495" y2="665"/><line x1="445" y1="735" x2="515" y2="665"/><line x1="465" y1="735" x2="535" y2="665"/><line x1="485" y1="735" x2="555" y2="665"/><line x1="505" y1="735" x2="575" y2="665"/><line x1="525" y1="735" x2="595" y2="665"/><line x1="545" y1="735" x2="615" y2="665"/><line x1="565" y1="735" x2="635" y2="665"/><line x1="585" y1="735" x2="655" y2="665"/></g><rect x="175" y="775" width="410" height="251" fill="url(#gSi)"/><g clip-path="url(#c9)" stroke="#d7e3f4" stroke-width="0.6" stroke-opacity="0.3"><line x1="-76" y1="1026" x2="175" y2="775"/><line x1="-61" y1="1026" x2="190" y2="775"/><line x1="-46" y1="1026" x2="205" y2="775"/><line x1="-31" y1="1026" x2="220" y2="775"/><line x1="-16" y1="1026" x2="235" y2="775"/><line x1="-1" y1="1026" x2="250" y2="775"/><line x1="14" y1="1026" x2="265" y2="775"/><line x1="29" y1="1026" x2="280" y2="775"/><line x1="44" y1="1026" x2="295" y2="775"/><line x1="59" y1="1026" x2="310" y2="775"/><line x1="74" y1="1026" x2="325" y2="775"/><line x1="89" y1="1026" x2="340" y2="775"/><line x1="104" y1="1026" x2="355" y2="775"/><line x1="119" y1="1026" x2="370" y2="775"/><line x1="134" y1="1026" x2="385" y2="775"/><line x1="149" y1="1026" x2="400" y2="775"/><line x1="164" y1="1026" x2="415" y2="775"/><line x1="179" y1="1026" x2="430" y2="775"/><line x1="194" y1="1026" x2="445" y2="775"/><line x1="209" y1="1026" x2="460" y2="775"/><line x1="224" y1="1026" x2="475" y2="775"/><line x1="239" y1="1026" x2="490" y2="775"/><line x1="254" y1="1026" x2="505" y2="775"/><line x1="269" y1="1026" x2="520" y2="775"/><line x1="284" y1="1026" x2="535" y2="775"/><line x1="299" y1="1026" x2="550" y2="775"/><line x1="314" y1="1026" x2="565" y2="775"/><line x1="329" y1="1026" x2="580" y2="775"/><line x1="344" y1="1026" x2="595" y2="775"/><line x1="359" y1="1026" x2="610" y2="775"/><line x1="374" y1="1026" x2="625" y2="775"/><line x1="389" y1="1026" x2="640" y2="775"/><line x1="404" y1="1026" x2="655" y2="775"/><line x1="419" y1="1026" x2="670" y2="775"/><line x1="434" y1="1026" x2="685" y2="775"/><line x1="449" y1="1026" x2="700" y2="775"/><line x1="464" y1="1026" x2="715" y2="775"/><line x1="479" y1="1026" x2="730" y2="775"/><line x1="494" y1="1026" x2="745" y2="775"/><line x1="509" y1="1026" x2="760" y2="775"/><line x1="524" y1="1026" x2="775" y2="775"/><line x1="539" y1="1026" x2="790" y2="775"/><line x1="554" y1="1026" x2="805" y2="775"/><line x1="569" y1="1026" x2="820" y2="775"/><line x1="584" y1="1026" x2="835" y2="775"/></g><rect x="175" y="775" width="410" height="251" fill="none" stroke="#d7e3f4" stroke-width="2" stroke-opacity=".92"/><g fill="#d7e3f4" fill-opacity=".18"><circle cx="195" cy="805" r="1.1"/><circle cx="251" cy="805" r="1.1"/><circle cx="307" cy="805" r="1.1"/><circle cx="363" cy="805" r="1.1"/><circle cx="419" cy="805" r="1.1"/><circle cx="475" cy="805" r="1.1"/><circle cx="531" cy="805" r="1.1"/><circle cx="195" cy="863" r="1.1"/><circle cx="251" cy="863" r="1.1"/><circle cx="307" cy="863" r="1.1"/><circle cx="363" cy="863" r="1.1"/><circle cx="419" cy="863" r="1.1"/><circle cx="475" cy="863" r="1.1"/><circle cx="531" cy="863" r="1.1"/><circle cx="195" cy="921" r="1.1"/><circle cx="251" cy="921" r="1.1"/><circle cx="307" cy="921" r="1.1"/><circle cx="363" cy="921" r="1.1"/><circle cx="419" cy="921" r="1.1"/><circle cx="475" cy="921" r="1.1"/><circle cx="531" cy="921" r="1.1"/><circle cx="195" cy="979" r="1.1"/><circle cx="251" cy="979" r="1.1"/><circle cx="307" cy="979" r="1.1"/><circle cx="363" cy="979" r="1.1"/><circle cx="419" cy="979" r="1.1"/><circle cx="475" cy="979" r="1.1"/><circle cx="531" cy="979" r="1.1"/></g><path d="M267 777 L267 748 Q267 743 272 743 L274 743 Q279 743 279 748 L279 777 Z" fill="url(#gW)" stroke="#d7e3f4" stroke-width="1.1" stroke-opacity=".55"/><path d="M293 777 L293 748 Q293 743 298 743 L300 743 Q305 743 305 748 L305 777 Z" fill="url(#gW)" stroke="#d7e3f4" stroke-width="1.1" stroke-opacity=".55"/><path d="M319 777 L319 748 Q319 743 324 743 L326 743 Q331 743 331 748 L331 777 Z" fill="url(#gW)" stroke="#d7e3f4" stroke-width="1.1" stroke-opacity=".55"/><rect x="259" y="737" width="80" height="20" rx="4" fill="#5a6373" fill-opacity=".82" stroke="#f0d3ad" stroke-width="1" stroke-opacity=".85"/><rect x="259" y="755" width="80" height="1.4" fill="#bfe0e8" fill-opacity=".7"/><rect x="200.9" y="667" width="13" height="66" fill="url(#gW)"/><rect x="200.9" y="667" width="13" height="66" fill="none" stroke="#f0d3ad" stroke-width="1" stroke-opacity=".85"/><line x1="207.4" y1="668" x2="207.4" y2="732" stroke="#d7e3f4" stroke-width=".6" stroke-opacity=".3"/><rect x="244" y="667" width="13" height="66" fill="url(#gW)"/><rect x="244" y="667" width="13" height="66" fill="none" stroke="#f0d3ad" stroke-width="1" stroke-opacity=".85"/><line x1="250.5" y1="668" x2="250.5" y2="732" stroke="#d7e3f4" stroke-width=".6" stroke-opacity=".3"/><rect x="287.2" y="667" width="13" height="66" fill="url(#gW)"/><rect x="287.2" y="667" width="13" height="66" fill="none" stroke="#f0d3ad" stroke-width="1" stroke-opacity=".85"/><line x1="293.7" y1="668" x2="293.7" y2="732" stroke="#d7e3f4" stroke-width=".6" stroke-opacity=".3"/><rect x="330.3" y="667" width="13" height="66" fill="url(#gW)"/><rect x="330.3" y="667" width="13" height="66" fill="none" stroke="#f0d3ad" stroke-width="1" stroke-opacity=".85"/><line x1="336.8" y1="668" x2="336.8" y2="732" stroke="#d7e3f4" stroke-width=".6" stroke-opacity=".3"/><rect x="373.5" y="667" width="13" height="66" fill="url(#gW)"/><rect x="373.5" y="667" width="13" height="66" fill="none" stroke="#f0d3ad" stroke-width="1" stroke-opacity=".85"/><line x1="380" y1="668" x2="380" y2="732" stroke="#d7e3f4" stroke-width=".6" stroke-opacity=".3"/><rect x="416.7" y="667" width="13" height="66" fill="url(#gW)"/><rect x="416.7" y="667" width="13" height="66" fill="none" stroke="#f0d3ad" stroke-width="1" stroke-opacity=".85"/><line x1="423.2" y1="668" x2="423.2" y2="732" stroke="#d7e3f4" stroke-width=".6" stroke-opacity=".3"/><rect x="459.8" y="667" width="13" height="66" fill="url(#gW)"/><rect x="459.8" y="667" width="13" height="66" fill="none" stroke="#f0d3ad" stroke-width="1" stroke-opacity=".85"/><line x1="466.3" y1="668" x2="466.3" y2="732" stroke="#d7e3f4" stroke-width=".6" stroke-opacity=".3"/><rect x="503" y="667" width="13" height="66" fill="url(#gW)"/><rect x="503" y="667" width="13" height="66" fill="none" stroke="#f0d3ad" stroke-width="1" stroke-opacity=".85"/><line x1="509.5" y1="668" x2="509.5" y2="732" stroke="#d7e3f4" stroke-width=".6" stroke-opacity=".3"/><rect x="546.1" y="667" width="13" height="66" fill="url(#gW)"/><rect x="546.1" y="667" width="13" height="66" fill="none" stroke="#f0d3ad" stroke-width="1" stroke-opacity=".85"/><line x1="552.6" y1="668" x2="552.6" y2="732" stroke="#d7e3f4" stroke-width=".6" stroke-opacity=".3"/><rect x="222.2" y="170" width="46" height="54" rx="2" fill="url(#gCu)"/><rect x="222.2" y="170" width="46" height="54" rx="2" fill="none" stroke="#f0d3ad" stroke-width="1" stroke-opacity=".85"/><line x1="224.2" y1="172" x2="266.2" y2="172" stroke="#ffd9a8" stroke-width="1" stroke-opacity=".6"/><rect x="340.2" y="170" width="46" height="54" rx="2" fill="url(#gCu)"/><rect x="340.2" y="170" width="46" height="54" rx="2" fill="none" stroke="#f0d3ad" stroke-width="1" stroke-opacity=".85"/><line x1="342.2" y1="172" x2="384.2" y2="172" stroke="#ffd9a8" stroke-width="1" stroke-opacity=".6"/><rect x="458.2" y="170" width="46" height="54" rx="2" fill="url(#gCu)"/><rect x="458.2" y="170" width="46" height="54" rx="2" fill="none" stroke="#f0d3ad" stroke-width="1" stroke-opacity=".85"/><line x1="460.2" y1="172" x2="502.2" y2="172" stroke="#ffd9a8" stroke-width="1" stroke-opacity=".6"/><rect x="210.2" y="268" width="34" height="46" rx="2" fill="url(#gCu)"/><rect x="210.2" y="268" width="34" height="46" rx="2" fill="none" stroke="#f0d3ad" stroke-width="1" stroke-opacity=".85"/><line x1="212.2" y1="270" x2="242.2" y2="270" stroke="#ffd9a8" stroke-width="1" stroke-opacity=".6"/><rect x="298.2" y="268" width="34" height="46" rx="2" fill="url(#gCu)"/><rect x="298.2" y="268" width="34" height="46" rx="2" fill="none" stroke="#f0d3ad" stroke-width="1" stroke-opacity=".85"/><line x1="300.2" y1="270" x2="330.2" y2="270" stroke="#ffd9a8" stroke-width="1" stroke-opacity=".6"/><rect x="386.2" y="268" width="34" height="46" rx="2" fill="url(#gCu)"/><rect x="386.2" y="268" width="34" height="46" rx="2" fill="none" stroke="#f0d3ad" stroke-width="1" stroke-opacity=".85"/><line x1="388.2" y1="270" x2="418.2" y2="270" stroke="#ffd9a8" stroke-width="1" stroke-opacity=".6"/><rect x="474.2" y="268" width="34" height="46" rx="2" fill="url(#gCu)"/><rect x="474.2" y="268" width="34" height="46" rx="2" fill="none" stroke="#f0d3ad" stroke-width="1" stroke-opacity=".85"/><line x1="476.2" y1="270" x2="506.2" y2="270" stroke="#ffd9a8" stroke-width="1" stroke-opacity=".6"/><rect x="201.4" y="354" width="26" height="42" rx="2" fill="url(#gCu)"/><rect x="201.4" y="354" width="26" height="42" rx="2" fill="none" stroke="#f0d3ad" stroke-width="1" stroke-opacity=".85"/><line x1="203.4" y1="356" x2="225.4" y2="356" stroke="#ffd9a8" stroke-width="1" stroke-opacity=".6"/><rect x="267.4" y="354" width="26" height="42" rx="2" fill="url(#gCu)"/><rect x="267.4" y="354" width="26" height="42" rx="2" fill="none" stroke="#f0d3ad" stroke-width="1" stroke-opacity=".85"/><line x1="269.4" y1="356" x2="291.4" y2="356" stroke="#ffd9a8" stroke-width="1" stroke-opacity=".6"/><rect x="333.4" y="354" width="26" height="42" rx="2" fill="url(#gCu)"/><rect x="333.4" y="354" width="26" height="42" rx="2" fill="none" stroke="#f0d3ad" stroke-width="1" stroke-opacity=".85"/><line x1="335.4" y1="356" x2="357.4" y2="356" stroke="#ffd9a8" stroke-width="1" stroke-opacity=".6"/><rect x="399.4" y="354" width="26" height="42" rx="2" fill="url(#gCu)"/><rect x="399.4" y="354" width="26" height="42" rx="2" fill="none" stroke="#f0d3ad" stroke-width="1" stroke-opacity=".85"/><line x1="401.4" y1="356" x2="423.4" y2="356" stroke="#ffd9a8" stroke-width="1" stroke-opacity=".6"/><rect x="465.4" y="354" width="26" height="42" rx="2" fill="url(#gCu)"/><rect x="465.4" y="354" width="26" height="42" rx="2" fill="none" stroke="#f0d3ad" stroke-width="1" stroke-opacity=".85"/><line x1="467.4" y1="356" x2="489.4" y2="356" stroke="#ffd9a8" stroke-width="1" stroke-opacity=".6"/><rect x="531.4" y="354" width="26" height="42" rx="2" fill="url(#gCu)"/><rect x="531.4" y="354" width="26" height="42" rx="2" fill="none" stroke="#f0d3ad" stroke-width="1" stroke-opacity=".85"/><line x1="533.4" y1="356" x2="555.4" y2="356" stroke="#ffd9a8" stroke-width="1" stroke-opacity=".6"/><rect x="195.8" y="432" width="20" height="38" rx="2" fill="url(#gCu)"/><rect x="195.8" y="432" width="20" height="38" rx="2" fill="none" stroke="#f0d3ad" stroke-width="1" stroke-opacity=".85"/><line x1="197.8" y1="434" x2="213.8" y2="434" stroke="#ffd9a8" stroke-width="1" stroke-opacity=".6"/><rect x="247.8" y="432" width="20" height="38" rx="2" fill="url(#gCu)"/><rect x="247.8" y="432" width="20" height="38" rx="2" fill="none" stroke="#f0d3ad" stroke-width="1" stroke-opacity=".85"/><line x1="249.8" y1="434" x2="265.8" y2="434" stroke="#ffd9a8" stroke-width="1" stroke-opacity=".6"/><rect x="299.8" y="432" width="20" height="38" rx="2" fill="url(#gCu)"/><rect x="299.8" y="432" width="20" height="38" rx="2" fill="none" stroke="#f0d3ad" stroke-width="1" stroke-opacity=".85"/><line x1="301.8" y1="434" x2="317.8" y2="434" stroke="#ffd9a8" stroke-width="1" stroke-opacity=".6"/><rect x="351.8" y="432" width="20" height="38" rx="2" fill="url(#gCu)"/><rect x="351.8" y="432" width="20" height="38" rx="2" fill="none" stroke="#f0d3ad" stroke-width="1" stroke-opacity=".85"/><line x1="353.8" y1="434" x2="369.8" y2="434" stroke="#ffd9a8" stroke-width="1" stroke-opacity=".6"/><rect x="403.8" y="432" width="20" height="38" rx="2" fill="url(#gCu)"/><rect x="403.8" y="432" width="20" height="38" rx="2" fill="none" stroke="#f0d3ad" stroke-width="1" stroke-opacity=".85"/><line x1="405.8" y1="434" x2="421.8" y2="434" stroke="#ffd9a8" stroke-width="1" stroke-opacity=".6"/><rect x="455.8" y="432" width="20" height="38" rx="2" fill="url(#gCu)"/><rect x="455.8" y="432" width="20" height="38" rx="2" fill="none" stroke="#f0d3ad" stroke-width="1" stroke-opacity=".85"/><line x1="457.8" y1="434" x2="473.8" y2="434" stroke="#ffd9a8" stroke-width="1" stroke-opacity=".6"/><rect x="507.8" y="432" width="20" height="38" rx="2" fill="url(#gCu)"/><rect x="507.8" y="432" width="20" height="38" rx="2" fill="none" stroke="#f0d3ad" stroke-width="1" stroke-opacity=".85"/><line x1="509.8" y1="434" x2="525.8" y2="434" stroke="#ffd9a8" stroke-width="1" stroke-opacity=".6"/><rect x="191.8" y="504" width="16" height="34" rx="2" fill="url(#gCu)"/><rect x="191.8" y="504" width="16" height="34" rx="2" fill="none" stroke="#f0d3ad" stroke-width="1" stroke-opacity=".85"/><rect x="233.8" y="504" width="16" height="34" rx="2" fill="url(#gCu)"/><rect x="233.8" y="504" width="16" height="34" rx="2" fill="none" stroke="#f0d3ad" stroke-width="1" stroke-opacity=".85"/><rect x="275.8" y="504" width="16" height="34" rx="2" fill="url(#gCu)"/><rect x="275.8" y="504" width="16" height="34" rx="2" fill="none" stroke="#f0d3ad" stroke-width="1" stroke-opacity=".85"/><rect x="317.8" y="504" width="16" height="34" rx="2" fill="url(#gCu)"/><rect x="317.8" y="504" width="16" height="34" rx="2" fill="none" stroke="#f0d3ad" stroke-width="1" stroke-opacity=".85"/><rect x="359.8" y="504" width="16" height="34" rx="2" fill="url(#gCu)"/><rect x="359.8" y="504" width="16" height="34" rx="2" fill="none" stroke="#f0d3ad" stroke-width="1" stroke-opacity=".85"/><rect x="401.8" y="504" width="16" height="34" rx="2" fill="url(#gCu)"/><rect x="401.8" y="504" width="16" height="34" rx="2" fill="none" stroke="#f0d3ad" stroke-width="1" stroke-opacity=".85"/><rect x="443.8" y="504" width="16" height="34" rx="2" fill="url(#gCu)"/><rect x="443.8" y="504" width="16" height="34" rx="2" fill="none" stroke="#f0d3ad" stroke-width="1" stroke-opacity=".85"/><rect x="485.8" y="504" width="16" height="34" rx="2" fill="url(#gCu)"/><rect x="485.8" y="504" width="16" height="34" rx="2" fill="none" stroke="#f0d3ad" stroke-width="1" stroke-opacity=".85"/><rect x="527.8" y="504" width="16" height="34" rx="2" fill="url(#gCu)"/><rect x="527.8" y="504" width="16" height="34" rx="2" fill="none" stroke="#f0d3ad" stroke-width="1" stroke-opacity=".85"/><rect x="188.6" y="570" width="14" height="30" rx="2" fill="url(#gCu)"/><rect x="188.6" y="570" width="14" height="30" rx="2" fill="none" stroke="#f0d3ad" stroke-width="1" stroke-opacity=".85"/><rect x="222.6" y="570" width="14" height="30" rx="2" fill="url(#gCu)"/><rect x="222.6" y="570" width="14" height="30" rx="2" fill="none" stroke="#f0d3ad" stroke-width="1" stroke-opacity=".85"/><rect x="256.6" y="570" width="14" height="30" rx="2" fill="url(#gCu)"/><rect x="256.6" y="570" width="14" height="30" rx="2" fill="none" stroke="#f0d3ad" stroke-width="1" stroke-opacity=".85"/><rect x="290.6" y="570" width="14" height="30" rx="2" fill="url(#gCu)"/><rect x="290.6" y="570" width="14" height="30" rx="2" fill="none" stroke="#f0d3ad" stroke-width="1" stroke-opacity=".85"/><rect x="324.6" y="570" width="14" height="30" rx="2" fill="url(#gCu)"/><rect x="324.6" y="570" width="14" height="30" rx="2" fill="none" stroke="#f0d3ad" stroke-width="1" stroke-opacity=".85"/><rect x="358.6" y="570" width="14" height="30" rx="2" fill="url(#gCu)"/><rect x="358.6" y="570" width="14" height="30" rx="2" fill="none" stroke="#f0d3ad" stroke-width="1" stroke-opacity=".85"/><rect x="392.6" y="570" width="14" height="30" rx="2" fill="url(#gCu)"/><rect x="392.6" y="570" width="14" height="30" rx="2" fill="none" stroke="#f0d3ad" stroke-width="1" stroke-opacity=".85"/><rect x="426.6" y="570" width="14" height="30" rx="2" fill="url(#gCu)"/><rect x="426.6" y="570" width="14" height="30" rx="2" fill="none" stroke="#f0d3ad" stroke-width="1" stroke-opacity=".85"/><rect x="460.6" y="570" width="14" height="30" rx="2" fill="url(#gCu)"/><rect x="460.6" y="570" width="14" height="30" rx="2" fill="none" stroke="#f0d3ad" stroke-width="1" stroke-opacity=".85"/><rect x="494.6" y="570" width="14" height="30" rx="2" fill="url(#gCu)"/><rect x="494.6" y="570" width="14" height="30" rx="2" fill="none" stroke="#f0d3ad" stroke-width="1" stroke-opacity=".85"/><rect x="528.6" y="570" width="14" height="30" rx="2" fill="url(#gCu)"/><rect x="528.6" y="570" width="14" height="30" rx="2" fill="none" stroke="#f0d3ad" stroke-width="1" stroke-opacity=".85"/><rect x="562.6" y="570" width="14" height="30" rx="2" fill="url(#gCu)"/><rect x="562.6" y="570" width="14" height="30" rx="2" fill="none" stroke="#f0d3ad" stroke-width="1" stroke-opacity=".85"/><rect x="185.8" y="630" width="12" height="28" rx="2" fill="url(#gCu)"/><rect x="185.8" y="630" width="12" height="28" rx="2" fill="none" stroke="#f0d3ad" stroke-width="1" stroke-opacity=".85"/><rect x="212.8" y="630" width="12" height="28" rx="2" fill="url(#gCu)"/><rect x="212.8" y="630" width="12" height="28" rx="2" fill="none" stroke="#f0d3ad" stroke-width="1" stroke-opacity=".85"/><rect x="239.8" y="630" width="12" height="28" rx="2" fill="url(#gCu)"/><rect x="239.8" y="630" width="12" height="28" rx="2" fill="none" stroke="#f0d3ad" stroke-width="1" stroke-opacity=".85"/><rect x="266.8" y="630" width="12" height="28" rx="2" fill="url(#gCu)"/><rect x="266.8" y="630" width="12" height="28" rx="2" fill="none" stroke="#f0d3ad" stroke-width="1" stroke-opacity=".85"/><rect x="293.8" y="630" width="12" height="28" rx="2" fill="url(#gCu)"/><rect x="293.8" y="630" width="12" height="28" rx="2" fill="none" stroke="#f0d3ad" stroke-width="1" stroke-opacity=".85"/><rect x="320.8" y="630" width="12" height="28" rx="2" fill="url(#gCu)"/><rect x="320.8" y="630" width="12" height="28" rx="2" fill="none" stroke="#f0d3ad" stroke-width="1" stroke-opacity=".85"/><rect x="347.8" y="630" width="12" height="28" rx="2" fill="url(#gCu)"/><rect x="347.8" y="630" width="12" height="28" rx="2" fill="none" stroke="#f0d3ad" stroke-width="1" stroke-opacity=".85"/><rect x="374.8" y="630" width="12" height="28" rx="2" fill="url(#gCu)"/><rect x="374.8" y="630" width="12" height="28" rx="2" fill="none" stroke="#f0d3ad" stroke-width="1" stroke-opacity=".85"/><rect x="401.8" y="630" width="12" height="28" rx="2" fill="url(#gCu)"/><rect x="401.8" y="630" width="12" height="28" rx="2" fill="none" stroke="#f0d3ad" stroke-width="1" stroke-opacity=".85"/><rect x="428.8" y="630" width="12" height="28" rx="2" fill="url(#gCu)"/><rect x="428.8" y="630" width="12" height="28" rx="2" fill="none" stroke="#f0d3ad" stroke-width="1" stroke-opacity=".85"/><rect x="455.8" y="630" width="12" height="28" rx="2" fill="url(#gCu)"/><rect x="455.8" y="630" width="12" height="28" rx="2" fill="none" stroke="#f0d3ad" stroke-width="1" stroke-opacity=".85"/><rect x="482.8" y="630" width="12" height="28" rx="2" fill="url(#gCu)"/><rect x="482.8" y="630" width="12" height="28" rx="2" fill="none" stroke="#f0d3ad" stroke-width="1" stroke-opacity=".85"/><rect x="509.8" y="630" width="12" height="28" rx="2" fill="url(#gCu)"/><rect x="509.8" y="630" width="12" height="28" rx="2" fill="none" stroke="#f0d3ad" stroke-width="1" stroke-opacity=".85"/><rect x="536.8" y="630" width="12" height="28" rx="2" fill="url(#gCu)"/><rect x="536.8" y="630" width="12" height="28" rx="2" fill="none" stroke="#f0d3ad" stroke-width="1" stroke-opacity=".85"/><rect x="563.8" y="630" width="12" height="28" rx="2" fill="url(#gCu)"/><rect x="563.8" y="630" width="12" height="28" rx="2" fill="none" stroke="#f0d3ad" stroke-width="1" stroke-opacity=".85"/><rect x="222.2" y="230" width="10" height="32" fill="url(#gCuV)"/><rect x="222.2" y="230" width="10" height="32" fill="none" stroke="#f0d3ad" stroke-width="1" stroke-opacity=".85"/><rect x="310.2" y="230" width="10" height="32" fill="url(#gCuV)"/><rect x="310.2" y="230" width="10" height="32" fill="none" stroke="#f0d3ad" stroke-width="1" stroke-opacity=".85"/><rect x="398.2" y="230" width="10" height="32" fill="url(#gCuV)"/><rect x="398.2" y="230" width="10" height="32" fill="none" stroke="#f0d3ad" stroke-width="1" stroke-opacity=".85"/><rect x="486.2" y="230" width="10" height="32" fill="url(#gCuV)"/><rect x="486.2" y="230" width="10" height="32" fill="none" stroke="#f0d3ad" stroke-width="1" stroke-opacity=".85"/><rect x="208.7" y="320" width="11.5" height="28" fill="url(#gCuV)"/><rect x="208.7" y="320" width="11.5" height="28" fill="none" stroke="#f0d3ad" stroke-width="1" stroke-opacity=".85"/><rect x="274.6" y="320" width="11.5" height="28" fill="url(#gCuV)"/><rect x="274.6" y="320" width="11.5" height="28" fill="none" stroke="#f0d3ad" stroke-width="1" stroke-opacity=".85"/><rect x="340.6" y="320" width="11.5" height="28" fill="url(#gCuV)"/><rect x="340.6" y="320" width="11.5" height="28" fill="none" stroke="#f0d3ad" stroke-width="1" stroke-opacity=".85"/><rect x="406.6" y="320" width="11.5" height="28" fill="url(#gCuV)"/><rect x="406.6" y="320" width="11.5" height="28" fill="none" stroke="#f0d3ad" stroke-width="1" stroke-opacity=".85"/><rect x="472.6" y="320" width="11.5" height="28" fill="url(#gCuV)"/><rect x="472.6" y="320" width="11.5" height="28" fill="none" stroke="#f0d3ad" stroke-width="1" stroke-opacity=".85"/><rect x="538.6" y="320" width="11.5" height="28" fill="url(#gCuV)"/><rect x="538.6" y="320" width="11.5" height="28" fill="none" stroke="#f0d3ad" stroke-width="1" stroke-opacity=".85"/><rect x="199.3" y="402" width="13" height="24" fill="url(#gCuV)"/><rect x="199.3" y="402" width="13" height="24" fill="none" stroke="#f0d3ad" stroke-width="1" stroke-opacity=".85"/><rect x="251.3" y="402" width="13" height="24" fill="url(#gCuV)"/><rect x="251.3" y="402" width="13" height="24" fill="none" stroke="#f0d3ad" stroke-width="1" stroke-opacity=".85"/><rect x="303.3" y="402" width="13" height="24" fill="url(#gCuV)"/><rect x="303.3" y="402" width="13" height="24" fill="none" stroke="#f0d3ad" stroke-width="1" stroke-opacity=".85"/><rect x="355.3" y="402" width="13" height="24" fill="url(#gCuV)"/><rect x="355.3" y="402" width="13" height="24" fill="none" stroke="#f0d3ad" stroke-width="1" stroke-opacity=".85"/><rect x="407.3" y="402" width="13" height="24" fill="url(#gCuV)"/><rect x="407.3" y="402" width="13" height="24" fill="none" stroke="#f0d3ad" stroke-width="1" stroke-opacity=".85"/><rect x="459.3" y="402" width="13" height="24" fill="url(#gCuV)"/><rect x="459.3" y="402" width="13" height="24" fill="none" stroke="#f0d3ad" stroke-width="1" stroke-opacity=".85"/><rect x="511.3" y="402" width="13" height="24" fill="url(#gCuV)"/><rect x="511.3" y="402" width="13" height="24" fill="none" stroke="#f0d3ad" stroke-width="1" stroke-opacity=".85"/><rect x="192.6" y="476" width="14.5" height="22" fill="url(#gCuV)"/><rect x="192.6" y="476" width="14.5" height="22" fill="none" stroke="#f0d3ad" stroke-width="1" stroke-opacity=".85"/><rect x="234.6" y="476" width="14.5" height="22" fill="url(#gCuV)"/><rect x="234.6" y="476" width="14.5" height="22" fill="none" stroke="#f0d3ad" stroke-width="1" stroke-opacity=".85"/><rect x="276.6" y="476" width="14.5" height="22" fill="url(#gCuV)"/><rect x="276.6" y="476" width="14.5" height="22" fill="none" stroke="#f0d3ad" stroke-width="1" stroke-opacity=".85"/><rect x="318.6" y="476" width="14.5" height="22" fill="url(#gCuV)"/><rect x="318.6" y="476" width="14.5" height="22" fill="none" stroke="#f0d3ad" stroke-width="1" stroke-opacity=".85"/><rect x="360.6" y="476" width="14.5" height="22" fill="url(#gCuV)"/><rect x="360.6" y="476" width="14.5" height="22" fill="none" stroke="#f0d3ad" stroke-width="1" stroke-opacity=".85"/><rect x="402.6" y="476" width="14.5" height="22" fill="url(#gCuV)"/><rect x="402.6" y="476" width="14.5" height="22" fill="none" stroke="#f0d3ad" stroke-width="1" stroke-opacity=".85"/><rect x="444.6" y="476" width="14.5" height="22" fill="url(#gCuV)"/><rect x="444.6" y="476" width="14.5" height="22" fill="none" stroke="#f0d3ad" stroke-width="1" stroke-opacity=".85"/><rect x="486.6" y="476" width="14.5" height="22" fill="url(#gCuV)"/><rect x="486.6" y="476" width="14.5" height="22" fill="none" stroke="#f0d3ad" stroke-width="1" stroke-opacity=".85"/><rect x="528.5" y="476" width="14.5" height="22" fill="url(#gCuV)"/><rect x="528.5" y="476" width="14.5" height="22" fill="none" stroke="#f0d3ad" stroke-width="1" stroke-opacity=".85"/><rect x="187.6" y="544" width="16" height="20" fill="url(#gCuV)"/><rect x="187.6" y="544" width="16" height="20" fill="none" stroke="#f0d3ad" stroke-width="1" stroke-opacity=".85"/><rect x="255.6" y="544" width="16" height="20" fill="url(#gCuV)"/><rect x="255.6" y="544" width="16" height="20" fill="none" stroke="#f0d3ad" stroke-width="1" stroke-opacity=".85"/><rect x="323.6" y="544" width="16" height="20" fill="url(#gCuV)"/><rect x="323.6" y="544" width="16" height="20" fill="none" stroke="#f0d3ad" stroke-width="1" stroke-opacity=".85"/><rect x="391.6" y="544" width="16" height="20" fill="url(#gCuV)"/><rect x="391.6" y="544" width="16" height="20" fill="none" stroke="#f0d3ad" stroke-width="1" stroke-opacity=".85"/><rect x="459.6" y="544" width="16" height="20" fill="url(#gCuV)"/><rect x="459.6" y="544" width="16" height="20" fill="none" stroke="#f0d3ad" stroke-width="1" stroke-opacity=".85"/><rect x="527.6" y="544" width="16" height="20" fill="url(#gCuV)"/><rect x="527.6" y="544" width="16" height="20" fill="none" stroke="#f0d3ad" stroke-width="1" stroke-opacity=".85"/><rect x="183.8" y="606" width="16" height="18" fill="url(#gCuV)"/><rect x="183.8" y="606" width="16" height="18" fill="none" stroke="#f0d3ad" stroke-width="1" stroke-opacity=".85"/><rect x="237.8" y="606" width="16" height="18" fill="url(#gCuV)"/><rect x="237.8" y="606" width="16" height="18" fill="none" stroke="#f0d3ad" stroke-width="1" stroke-opacity=".85"/><rect x="291.8" y="606" width="16" height="18" fill="url(#gCuV)"/><rect x="291.8" y="606" width="16" height="18" fill="none" stroke="#f0d3ad" stroke-width="1" stroke-opacity=".85"/><rect x="345.8" y="606" width="16" height="18" fill="url(#gCuV)"/><rect x="345.8" y="606" width="16" height="18" fill="none" stroke="#f0d3ad" stroke-width="1" stroke-opacity=".85"/><rect x="399.8" y="606" width="16" height="18" fill="url(#gCuV)"/><rect x="399.8" y="606" width="16" height="18" fill="none" stroke="#f0d3ad" stroke-width="1" stroke-opacity=".85"/><rect x="453.8" y="606" width="16" height="18" fill="url(#gCuV)"/><rect x="453.8" y="606" width="16" height="18" fill="none" stroke="#f0d3ad" stroke-width="1" stroke-opacity=".85"/><rect x="507.8" y="606" width="16" height="18" fill="url(#gCuV)"/><rect x="507.8" y="606" width="16" height="18" fill="none" stroke="#f0d3ad" stroke-width="1" stroke-opacity=".85"/><rect x="561.8" y="606" width="16" height="18" fill="url(#gCuV)"/><rect x="561.8" y="606" width="16" height="18" fill="none" stroke="#f0d3ad" stroke-width="1" stroke-opacity=".85"/><rect x="205" y="134" width="350" height="26" rx="3" fill="url(#gAl)"/><rect x="205" y="134" width="350" height="26" rx="3" fill="none" stroke="#d7e3f4" stroke-width="2" stroke-opacity=".92"/><path d="M199 118 H334 V136 H199 Z" fill="#3a5560" fill-opacity=".8" stroke="#d7e3f4" stroke-width="1.1" stroke-opacity=".55"/><path d="M426 118 H561 V136 H426 Z" fill="#3a5560" fill-opacity=".8" stroke="#d7e3f4" stroke-width="1.1" stroke-opacity=".55"/><path d="M199 118 H334" stroke="#bfe0e8" stroke-width="1.4" stroke-opacity=".7"/><path d="M426 118 H561" stroke="#bfe0e8" stroke-width="1.4" stroke-opacity=".7"/><path d="M330 128 H430 V135 H330 Z" fill="#7a8492" fill-opacity=".85" stroke="#d7e3f4" stroke-width="1.1" stroke-opacity=".55"/><circle cx="380" cy="120" r="76" fill="url(#gGlow)"/><path d="M322 128 A58 58 0 0 1 438 128 Z" fill="url(#gBump)"/><path d="M322 128 A58 58 0 0 1 438 128" fill="none" stroke="#d7e3f4" stroke-width="2" stroke-opacity=".92"/><path d="M338 104 A44 44 0 0 1 374 78" fill="none" stroke="#eef4fb" stroke-width="2" stroke-opacity=".55"/><line x1="175" y1="168" x2="175" y2="775" stroke="#d7e3f4" stroke-width="2" stroke-opacity=".92"/><line x1="585" y1="168" x2="585" y2="775" stroke="#d7e3f4" stroke-width="2" stroke-opacity=".92"/><line x1="120" y1="168" x2="175" y2="168" stroke="#d7e3f4" stroke-width="1.1" stroke-opacity=".55"/><circle cx="120" cy="168" r="2.4" fill="#d7e3f4" fill-opacity=".7"/><line x1="120" y1="266" x2="175" y2="266" stroke="#d7e3f4" stroke-width="1.1" stroke-opacity=".55"/><circle cx="120" cy="266" r="2.4" fill="#d7e3f4" fill-opacity=".7"/><line x1="120" y1="352" x2="175" y2="352" stroke="#d7e3f4" stroke-width="1.1" stroke-opacity=".55"/><circle cx="120" cy="352" r="2.4" fill="#d7e3f4" fill-opacity=".7"/><line x1="120" y1="430" x2="175" y2="430" stroke="#d7e3f4" stroke-width="1.1" stroke-opacity=".55"/><circle cx="120" cy="430" r="2.4" fill="#d7e3f4" fill-opacity=".7"/><line x1="120" y1="502" x2="175" y2="502" stroke="#d7e3f4" stroke-width="1.1" stroke-opacity=".55"/><circle cx="120" cy="502" r="2.4" fill="#d7e3f4" fill-opacity=".7"/><line x1="120" y1="568" x2="175" y2="568" stroke="#d7e3f4" stroke-width="1.1" stroke-opacity=".55"/><circle cx="120" cy="568" r="2.4" fill="#d7e3f4" fill-opacity=".7"/><line x1="120" y1="628" x2="175" y2="628" stroke="#d7e3f4" stroke-width="1.1" stroke-opacity=".55"/><circle cx="120" cy="628" r="2.4" fill="#d7e3f4" fill-opacity=".7"/><line x1="120" y1="665" x2="175" y2="665" stroke="#d7e3f4" stroke-width="1.1" stroke-opacity=".55"/><circle cx="120" cy="665" r="2.4" fill="#d7e3f4" fill-opacity=".7"/><line x1="120" y1="775" x2="175" y2="775" stroke="#d7e3f4" stroke-width="2" stroke-opacity=".92"/><circle cx="120" cy="775" r="2.4" fill="#d7e3f4" fill-opacity=".7"/><line x1="120" y1="735" x2="175" y2="735" stroke="#d7e3f4" stroke-width="1.1" stroke-opacity=".55"/><circle cx="120" cy="735" r="2.4" fill="#d7e3f4" fill-opacity=".7"/><line x1="120" y1="118" x2="175" y2="118" stroke="#d7e3f4" stroke-width="1.1" stroke-opacity=".55"/><circle cx="120" cy="118" r="2.4" fill="#d7e3f4" fill-opacity=".7"/><line x1="545" y1="502" x2="601.5" y2="484.8" stroke="#d7e3f4" stroke-width="1.1" stroke-opacity=".55"/><circle cx="545" cy="502" r="3" fill="none" stroke="#d7e3f4" stroke-width="1.1" stroke-opacity=".55"/><clipPath id="inCirc"><circle cx="672" cy="452" r="82"/></clipPath><g clip-path="url(#inCirc)"><rect x="590" y="370" width="164" height="164" fill="#17222e"/><g clip-path="url(#c11)" stroke="#d7e3f4" stroke-width="0.6" stroke-opacity="0.16"><line x1="426" y1="534" x2="590" y2="370"/><line x1="438" y1="534" x2="602" y2="370"/><line x1="450" y1="534" x2="614" y2="370"/><line x1="462" y1="534" x2="626" y2="370"/><line x1="474" y1="534" x2="638" y2="370"/><line x1="486" y1="534" x2="650" y2="370"/><line x1="498" y1="534" x2="662" y2="370"/><line x1="510" y1="534" x2="674" y2="370"/><line x1="522" y1="534" x2="686" y2="370"/><line x1="534" y1="534" x2="698" y2="370"/><line x1="546" y1="534" x2="710" y2="370"/><line x1="558" y1="534" x2="722" y2="370"/><line x1="570" y1="534" x2="734" y2="370"/><line x1="582" y1="534" x2="746" y2="370"/><line x1="594" y1="534" x2="758" y2="370"/><line x1="606" y1="534" x2="770" y2="370"/><line x1="618" y1="534" x2="782" y2="370"/><line x1="630" y1="534" x2="794" y2="370"/><line x1="642" y1="534" x2="806" y2="370"/><line x1="654" y1="534" x2="818" y2="370"/><line x1="666" y1="534" x2="830" y2="370"/><line x1="678" y1="534" x2="842" y2="370"/><line x1="690" y1="534" x2="854" y2="370"/><line x1="702" y1="534" x2="866" y2="370"/><line x1="714" y1="534" x2="878" y2="370"/><line x1="726" y1="534" x2="890" y2="370"/><line x1="738" y1="534" x2="902" y2="370"/><line x1="750" y1="534" x2="914" y2="370"/></g><path d="M626 396 H718 V448 L692 448 V514 H652 V448 L626 448 Z" fill="#a9723f"/><path d="M632 402 H712 V448 L686 448 V508 H658 V448 L632 448 Z" fill="#e9c39a"/><path d="M638 408 H706 V448 L680 448 V502 H664 V448 L638 448 Z" fill="url(#gCu)"/><line x1="654" y1="410" x2="654" y2="498" stroke="#d7e3f4" stroke-width=".6" stroke-opacity=".3"/><line x1="663" y1="410" x2="663" y2="498" stroke="#d7e3f4" stroke-width=".6" stroke-opacity=".3"/><line x1="672" y1="410" x2="672" y2="498" stroke="#d7e3f4" stroke-width=".6" stroke-opacity=".3"/><line x1="681" y1="410" x2="681" y2="498" stroke="#d7e3f4" stroke-width=".6" stroke-opacity=".3"/><line x1="690" y1="410" x2="690" y2="498" stroke="#d7e3f4" stroke-width=".6" stroke-opacity=".3"/></g><circle cx="672" cy="452" r="82" fill="none" stroke="#d7e3f4" stroke-width="2" stroke-opacity=".92"/><circle cx="672" cy="452" r="87" fill="none" stroke="#d7e3f4" stroke-width=".6" stroke-opacity=".3"/><circle cx="718" cy="406" r="1.8" fill="#d7e3f4"/><line x1="718" y1="406" x2="674" y2="364" stroke="#d7e3f4" stroke-width=".6" stroke-opacity=".3"/><circle cx="674" cy="364" r="2.2" fill="#d7e3f4" fill-opacity=".7"/><circle cx="712" cy="410" r="1.8" fill="#d7e3f4"/><line x1="712" y1="410" x2="662" y2="364" stroke="#d7e3f4" stroke-width=".6" stroke-opacity=".3"/><circle cx="662" cy="364" r="2.2" fill="#d7e3f4" fill-opacity=".7"/><circle cx="672" cy="422" r="1.8" fill="#d7e3f4"/><line x1="672" y1="422" x2="650" y2="364" stroke="#d7e3f4" stroke-width=".6" stroke-opacity=".3"/><circle cx="650" cy="364" r="2.2" fill="#d7e3f4" fill-opacity=".7"/><g><line x1="175" y1="150" x2="175" y2="1026" stroke="#d7e3f4" stroke-width=".6" stroke-opacity=".3"/><line x1="380" y1="150" x2="380" y2="1026" stroke="#d7e3f4" stroke-width=".6" stroke-opacity=".3"/><line x1="585" y1="150" x2="585" y2="1026" stroke="#d7e3f4" stroke-width=".6" stroke-opacity=".3"/></g></svg><circle cx="943.0" cy="149.0" r="2.6" fill="#d97a3c" opacity="0.9"/><path d="M 943.0 149.0 L 600 130" stroke="#d7e3f4" stroke-width="0.9" opacity="0.5" fill="none"/><circle cx="832.5" cy="171.1" r="2.6" fill="#d97a3c" opacity="0.9"/><path d="M 832.5 171.1 L 600 194" stroke="#d7e3f4" stroke-width="0.9" opacity="0.5" fill="none"/><circle cx="828.2" cy="231.4" r="2.6" fill="#d97a3c" opacity="0.9"/><path d="M 828.2 231.4 L 600 260" stroke="#d7e3f4" stroke-width="0.9" opacity="0.5" fill="none"/><circle cx="875.0" cy="334.3" r="2.6" fill="#d97a3c" opacity="0.9"/><path d="M 875.0 334.3 L 600 334" stroke="#d7e3f4" stroke-width="0.9" opacity="0.5" fill="none"/><circle cx="869.0" cy="382.8" r="2.6" fill="#d97a3c" opacity="0.9"/><path d="M 869.0 382.8 L 600 396" stroke="#d7e3f4" stroke-width="0.9" opacity="0.5" fill="none"/><circle cx="875.0" cy="477.9" r="2.6" fill="#d97a3c" opacity="0.9"/><path d="M 875.0 477.9 L 600 474" stroke="#d7e3f4" stroke-width="0.9" opacity="0.5" fill="none"/><circle cx="773.0" cy="506.8" r="2.6" fill="#d97a3c" opacity="0.9"/><path d="M 773.0 506.8 L 600 540" stroke="#d7e3f4" stroke-width="0.9" opacity="0.5" fill="none"/><circle cx="875.0" cy="611.4" r="2.6" fill="#d97a3c" opacity="0.9"/><path d="M 875.0 611.4 L 600 608" stroke="#d7e3f4" stroke-width="0.9" opacity="0.5" fill="none"/><circle cx="832.5" cy="659.0" r="2.6" fill="#d97a3c" opacity="0.9"/><path d="M 832.5 659.0 L 600 668" stroke="#d7e3f4" stroke-width="0.9" opacity="0.5" fill="none"/><circle cx="875.0" cy="703.2" r="2.6" fill="#d97a3c" opacity="0.9"/><path d="M 875.0 703.2 L 600 724" stroke="#d7e3f4" stroke-width="0.9" opacity="0.5" fill="none"/><circle cx="943.0" cy="829.0" r="2.6" fill="#d97a3c" opacity="0.9"/><path d="M 943.0 829.0 L 600 824" stroke="#d7e3f4" stroke-width="0.9" opacity="0.5" fill="none"/><circle cx="1191.2" cy="521.3" r="2.6" fill="#d97a3c" opacity="0.9"/><path d="M 1191.2 521.3 L 1178 536" stroke="#d7e3f4" stroke-width="0.9" opacity="0.5" fill="none"/><text x="588" y="136" text-anchor="end" font-family="'IBM Plex Mono','JetBrains Mono',ui-monospace,Consolas,monospace" font-size="19" font-weight="600" fill="#e8eef7" fill-opacity="0.95">C4 BUMP</text><text x="588" y="200" text-anchor="end" font-family="'IBM Plex Mono','JetBrains Mono',ui-monospace,Consolas,monospace" font-size="19" font-weight="600" fill="#e8eef7" fill-opacity="0.95">FINAL PAD</text><text x="588" y="266" text-anchor="end" font-family="'IBM Plex Mono','JetBrains Mono',ui-monospace,Consolas,monospace" font-size="19" font-weight="600" fill="#e8eef7" fill-opacity="0.95">GLOBAL WIRING</text><text x="588" y="340" text-anchor="end" font-family="'IBM Plex Mono','JetBrains Mono',ui-monospace,Consolas,monospace" font-size="19" font-weight="600" fill="#e8eef7" fill-opacity="0.95">ETCH STOP</text><text x="588" y="402" text-anchor="end" font-family="'IBM Plex Mono','JetBrains Mono',ui-monospace,Consolas,monospace" font-size="19" font-weight="600" fill="#e8eef7" fill-opacity="0.95">DIFFUSION BARRIER</text><text x="588" y="480" text-anchor="end" font-family="'IBM Plex Mono','JetBrains Mono',ui-monospace,Consolas,monospace" font-size="19" font-weight="600" fill="#e8eef7" fill-opacity="0.95">VIA + TRENCH</text><text x="588" y="546" text-anchor="end" font-family="'IBM Plex Mono','JetBrains Mono',ui-monospace,Consolas,monospace" font-size="19" font-weight="600" fill="#e8eef7" fill-opacity="0.95">ILD DIELECTRIC</text><text x="588" y="614" text-anchor="end" font-family="'IBM Plex Mono','JetBrains Mono',ui-monospace,Consolas,monospace" font-size="19" font-weight="600" fill="#e8eef7" fill-opacity="0.95">LOCAL WIRING</text><text x="588" y="674" text-anchor="end" font-family="'IBM Plex Mono','JetBrains Mono',ui-monospace,Consolas,monospace" font-size="19" font-weight="600" fill="#e8eef7" fill-opacity="0.95">W CONTACT</text><text x="588" y="730" text-anchor="end" font-family="'IBM Plex Mono','JetBrains Mono',ui-monospace,Consolas,monospace" font-size="19" font-weight="600" fill="#e8eef7" fill-opacity="0.95">TRANSISTOR LEVEL</text><text x="588" y="830" text-anchor="end" font-family="'IBM Plex Mono','JetBrains Mono',ui-monospace,Consolas,monospace" font-size="19" font-weight="600" fill="#e8eef7" fill-opacity="0.95">SI SUBSTRATE</text><text x="1178" y="562" text-anchor="middle" font-family="'IBM Plex Mono','JetBrains Mono',ui-monospace,Consolas,monospace" font-size="19" font-weight="600" fill="#e8eef7" fill-opacity="0.95">VIA MICROSTRUCTURE</text><text x="30" y="1042" font-family="'IBM Plex Mono','JetBrains Mono',ui-monospace,Consolas,monospace" font-size="17" font-weight="500" letter-spacing="0.5" fill="#e8eef7" fill-opacity="0.85">FIG. 8 — Carve, fill, polish: damascene takes its name from inlay art</text></svg>