<svg xmlns="http://www.w3.org/2000/svg" viewBox="0 0 1600 1060" role="img"><svg x="240" y="225" width="1122.0" height="734.4" viewBox="0 0 1100 720"><defs><linearGradient id="metal" x1="0" y1="0" x2="0" y2="1"><stop offset="0" stop-color="#c2ccdd"/><stop offset="0.28" stop-color="#aeb9cc"/><stop offset="0.62" stop-color="#79828f"/><stop offset="1" stop-color="#5a6373"/></linearGradient><linearGradient id="metal2" x1="0" y1="0" x2="0" y2="1"><stop offset="0" stop-color="#9aa5b6"/><stop offset="0.5" stop-color="#6c7482"/><stop offset="1" stop-color="#464d59"/></linearGradient><linearGradient id="quartz" x1="0" y1="0" x2="0" y2="1"><stop offset="0" stop-color="#bfe9ef" stop-opacity="0.32"/><stop offset="0.5" stop-color="#8fd3dd" stop-opacity="0.14"/><stop offset="1" stop-color="#bfe9ef" stop-opacity="0.30"/></linearGradient><linearGradient id="insul" x1="0" y1="0" x2="0" y2="1"><stop offset="0" stop-color="#3a4150"/><stop offset="1" stop-color="#232936"/></linearGradient><radialGradient id="hot" cx="0.5" cy="0.5" r="0.5"><stop offset="0" stop-color="#ffd9a0"/><stop offset="0.45" stop-color="#ff9a3c"/><stop offset="1" stop-color="#ff7a26" stop-opacity="0.15"/></radialGradient><radialGradient id="bore" cx="0.5" cy="0.5" r="0.75"><stop offset="0" stop-color="#ff8a3a" stop-opacity="0.20"/><stop offset="0.55" stop-color="#ff7a26" stop-opacity="0.06"/><stop offset="1" stop-color="#ff7a26" stop-opacity="0"/></radialGradient><linearGradient id="graph" x1="0" y1="0" x2="0" y2="1"><stop offset="0" stop-color="#4a4f57"/><stop offset="1" stop-color="#2a2e35"/></linearGradient><linearGradient id="copper" x1="0" y1="0" x2="0" y2="1"><stop offset="0" stop-color="#e79a5e"/><stop offset="1" stop-color="#b25f2a"/></linearGradient><clipPath id="cInsul"><path d="M250 194 Q250 180 264 180 L866 180 Q880 180 880 194 L880 546 Q880 560 866 560 L264 560 Q250 560 250 546 Z M285 250 L845 250 L845 490 L285 490 Z" clip-rule="evenodd"/></clipPath><clipPath id="cWallT"><rect x="180" y="278" width="830" height="14"/></clipPath><clipPath id="cWallB"><rect x="180" y="448" width="830" height="14"/></clipPath><clipPath id="cFlL"><rect x="176" y="262" width="26" height="196"/></clipPath><clipPath id="cFlR"><rect x="988" y="262" width="26" height="196"/></clipPath></defs><path d="M250 194 Q250 180 264 180 L866 180 Q880 180 880 194 L880 546 Q880 560 866 560 L264 560 Q250 560 250 546 Z" fill="url(#insul)"/><path d="M285 250 L845 250 L845 490 L285 490 Z" fill="#12161f"/><g clip-path="url(#cInsul)" stroke="#d7e3f4" stroke-width="0.6" stroke-opacity="0.35"><line x1="-130" y1="180" x2="250" y2="560"/><line x1="-121.5" y1="180" x2="258.5" y2="560"/><line x1="-113.0" y1="180" x2="267.0" y2="560"/><line x1="-104.5" y1="180" x2="275.5" y2="560"/><line x1="-96.0" y1="180" x2="284.0" y2="560"/><line x1="-87.5" y1="180" x2="292.5" y2="560"/><line x1="-79.0" y1="180" x2="301.0" y2="560"/><line x1="-70.5" y1="180" x2="309.5" y2="560"/><line x1="-62.0" y1="180" x2="318.0" y2="560"/><line x1="-53.5" y1="180" x2="326.5" y2="560"/><line x1="-45.0" y1="180" x2="335.0" y2="560"/><line x1="-36.5" y1="180" x2="343.5" y2="560"/><line x1="-28.0" y1="180" x2="352.0" y2="560"/><line x1="-19.5" y1="180" x2="360.5" y2="560"/><line x1="-11.0" y1="180" x2="369.0" y2="560"/><line x1="-2.5" y1="180" x2="377.5" y2="560"/><line x1="6.0" y1="180" x2="386.0" y2="560"/><line x1="14.5" y1="180" x2="394.5" y2="560"/><line x1="23.0" y1="180" x2="403.0" y2="560"/><line x1="31.5" y1="180" x2="411.5" y2="560"/><line x1="40.0" y1="180" x2="420.0" y2="560"/><line x1="48.5" y1="180" x2="428.5" y2="560"/><line x1="57.0" y1="180" x2="437.0" y2="560"/><line x1="65.5" y1="180" x2="445.5" y2="560"/><line x1="74.0" y1="180" x2="454.0" y2="560"/><line x1="82.5" y1="180" x2="462.5" y2="560"/><line x1="91.0" y1="180" x2="471.0" y2="560"/><line x1="99.5" y1="180" x2="479.5" y2="560"/><line x1="108.0" y1="180" x2="488.0" y2="560"/><line x1="116.5" y1="180" x2="496.5" y2="560"/><line x1="125.0" y1="180" x2="505.0" y2="560"/><line x1="133.5" y1="180" x2="513.5" y2="560"/><line x1="142.0" y1="180" x2="522.0" y2="560"/><line x1="150.5" y1="180" x2="530.5" y2="560"/><line x1="159.0" y1="180" x2="539.0" y2="560"/><line x1="167.5" y1="180" x2="547.5" y2="560"/><line x1="176.0" y1="180" x2="556.0" y2="560"/><line x1="184.5" y1="180" x2="564.5" y2="560"/><line x1="193.0" y1="180" x2="573.0" y2="560"/><line x1="201.5" y1="180" x2="581.5" y2="560"/><line x1="210.0" y1="180" x2="590.0" y2="560"/><line x1="218.5" y1="180" x2="598.5" y2="560"/><line x1="227.0" y1="180" x2="607.0" y2="560"/><line x1="235.5" y1="180" x2="615.5" y2="560"/><line x1="244.0" y1="180" x2="624.0" y2="560"/><line x1="252.5" y1="180" x2="632.5" y2="560"/><line x1="261.0" y1="180" x2="641.0" y2="560"/><line x1="269.5" y1="180" x2="649.5" y2="560"/><line x1="278.0" y1="180" x2="658.0" y2="560"/><line x1="286.5" y1="180" x2="666.5" y2="560"/><line x1="295.0" y1="180" x2="675.0" y2="560"/><line x1="303.5" y1="180" x2="683.5" y2="560"/><line x1="312.0" y1="180" x2="692.0" y2="560"/><line x1="320.5" y1="180" x2="700.5" y2="560"/><line x1="329.0" y1="180" x2="709.0" y2="560"/><line x1="337.5" y1="180" x2="717.5" y2="560"/><line x1="346.0" y1="180" x2="726.0" y2="560"/><line x1="354.5" y1="180" x2="734.5" y2="560"/><line x1="363.0" y1="180" x2="743.0" y2="560"/><line x1="371.5" y1="180" x2="751.5" y2="560"/><line x1="380.0" y1="180" x2="760.0" y2="560"/><line x1="388.5" y1="180" x2="768.5" y2="560"/><line x1="397.0" y1="180" x2="777.0" y2="560"/><line x1="405.5" y1="180" x2="785.5" y2="560"/><line x1="414.0" y1="180" x2="794.0" y2="560"/><line x1="422.5" y1="180" x2="802.5" y2="560"/><line x1="431.0" y1="180" x2="811.0" y2="560"/><line x1="439.5" y1="180" x2="819.5" y2="560"/><line x1="448.0" y1="180" x2="828.0" y2="560"/><line x1="456.5" y1="180" x2="836.5" y2="560"/><line x1="465.0" y1="180" x2="845.0" y2="560"/><line x1="473.5" y1="180" x2="853.5" y2="560"/><line x1="482.0" y1="180" x2="862.0" y2="560"/><line x1="490.5" y1="180" x2="870.5" y2="560"/><line x1="499.0" y1="180" x2="879.0" y2="560"/><line x1="507.5" y1="180" x2="887.5" y2="560"/><line x1="516.0" y1="180" x2="896.0" y2="560"/><line x1="524.5" y1="180" x2="904.5" y2="560"/><line x1="533.0" y1="180" x2="913.0" y2="560"/><line x1="541.5" y1="180" x2="921.5" y2="560"/><line x1="550.0" y1="180" x2="930.0" y2="560"/><line x1="558.5" y1="180" x2="938.5" y2="560"/><line x1="567.0" y1="180" x2="947.0" y2="560"/><line x1="575.5" y1="180" x2="955.5" y2="560"/><line x1="584.0" y1="180" x2="964.0" y2="560"/><line x1="592.5" y1="180" x2="972.5" y2="560"/><line x1="601.0" y1="180" x2="981.0" y2="560"/><line x1="609.5" y1="180" x2="989.5" y2="560"/><line x1="618.0" y1="180" x2="998.0" y2="560"/><line x1="626.5" y1="180" x2="1006.5" y2="560"/><line x1="635.0" y1="180" x2="1015.0" y2="560"/><line x1="643.5" y1="180" x2="1023.5" y2="560"/><line x1="652.0" y1="180" x2="1032.0" y2="560"/><line x1="660.5" y1="180" x2="1040.5" y2="560"/><line x1="669.0" y1="180" x2="1049.0" y2="560"/><line x1="677.5" y1="180" x2="1057.5" y2="560"/><line x1="686.0" y1="180" x2="1066.0" y2="560"/><line x1="694.5" y1="180" x2="1074.5" y2="560"/><line x1="703.0" y1="180" x2="1083.0" y2="560"/><line x1="711.5" y1="180" x2="1091.5" y2="560"/><line x1="720.0" y1="180" x2="1100.0" y2="560"/><line x1="728.5" y1="180" x2="1108.5" y2="560"/><line x1="737.0" y1="180" x2="1117.0" y2="560"/><line x1="745.5" y1="180" x2="1125.5" y2="560"/><line x1="754.0" y1="180" x2="1134.0" y2="560"/><line x1="762.5" y1="180" x2="1142.5" y2="560"/><line x1="771.0" y1="180" x2="1151.0" y2="560"/><line x1="779.5" y1="180" x2="1159.5" y2="560"/><line x1="788.0" y1="180" x2="1168.0" y2="560"/><line x1="796.5" y1="180" x2="1176.5" y2="560"/><line x1="805.0" y1="180" x2="1185.0" y2="560"/><line x1="813.5" y1="180" x2="1193.5" y2="560"/><line x1="822.0" y1="180" x2="1202.0" y2="560"/><line x1="830.5" y1="180" x2="1210.5" y2="560"/><line x1="839.0" y1="180" x2="1219.0" y2="560"/><line x1="847.5" y1="180" x2="1227.5" y2="560"/><line x1="856.0" y1="180" x2="1236.0" y2="560"/><line x1="864.5" y1="180" x2="1244.5" y2="560"/><line x1="873.0" y1="180" x2="1253.0" y2="560"/></g><path d="M250 194 Q250 180 264 180 L866 180 Q880 180 880 194 L880 546 Q880 560 866 560 L264 560 Q250 560 250 546 Z" fill="none" stroke="#d7e3f4" stroke-width="2" stroke-opacity="0.92" stroke-linejoin="round" stroke-linecap="round"/><path d="M285 250 L845 250 L845 490 L285 490 Z" fill="none" stroke="#d7e3f4" stroke-width="1.6" stroke-opacity="0.85" stroke-linejoin="round" stroke-linecap="round"/><path d="M262 206 L868 206" fill="none" stroke="#d7e3f4" stroke-width="1.0" stroke-opacity="0.4"/><path d="M262 232 L868 232" fill="none" stroke="#d7e3f4" stroke-width="1.0" stroke-opacity="0.4"/><path d="M262 508 L868 508" fill="none" stroke="#d7e3f4" stroke-width="1.0" stroke-opacity="0.4"/><path d="M262 534 L868 534" fill="none" stroke="#d7e3f4" stroke-width="1.0" stroke-opacity="0.4"/><path d="M276 192 L276 548" fill="none" stroke="#d7e3f4" stroke-width="1.0" stroke-opacity="0.4"/><path d="M854 192 L854 548" fill="none" stroke="#d7e3f4" stroke-width="1.0" stroke-opacity="0.4"/><path d="M472 180 L472 250" fill="none" stroke="#d7e3f4" stroke-width="1.2" stroke-opacity="0.5"/><path d="M472 490 L472 560" fill="none" stroke="#d7e3f4" stroke-width="1.2" stroke-opacity="0.5"/><path d="M660 180 L660 250" fill="none" stroke="#d7e3f4" stroke-width="1.2" stroke-opacity="0.5"/><path d="M660 490 L660 560" fill="none" stroke="#d7e3f4" stroke-width="1.2" stroke-opacity="0.5"/><path d="M358 180 L358 158 Q358 152 364 152 L380 152 Q386 152 386 158 L386 180 Z" fill="url(#metal2)" stroke="#d7e3f4" stroke-width="1.4" stroke-opacity="0.8"/><path d="M358 166 L386 166" fill="none" stroke="#d7e3f4" stroke-width="1.0" stroke-opacity="0.5"/><path d="M372 152 L372 180" fill="none" stroke="#d7e3f4" stroke-width="0.6" stroke-opacity="0.3"/><path d="M552 180 L552 158 Q552 152 558 152 L574 152 Q580 152 580 158 L580 180 Z" fill="url(#metal2)" stroke="#d7e3f4" stroke-width="1.4" stroke-opacity="0.8"/><path d="M552 166 L580 166" fill="none" stroke="#d7e3f4" stroke-width="1.0" stroke-opacity="0.5"/><path d="M566 152 L566 180" fill="none" stroke="#d7e3f4" stroke-width="0.6" stroke-opacity="0.3"/><path d="M744 180 L744 158 Q744 152 750 152 L766 152 Q772 152 772 158 L772 180 Z" fill="url(#metal2)" stroke="#d7e3f4" stroke-width="1.4" stroke-opacity="0.8"/><path d="M744 166 L772 166" fill="none" stroke="#d7e3f4" stroke-width="1.0" stroke-opacity="0.5"/><path d="M758 152 L758 180" fill="none" stroke="#d7e3f4" stroke-width="0.6" stroke-opacity="0.3"/><path d="M180 300 Q180 278 202 278 L988 278 Q1010 278 1010 300 L1010 440 Q1010 462 988 462 L202 462 Q180 462 180 440 Z" fill="url(#quartz)"/><path d="M198 300 Q198 292 210 292 L980 292 Q992 292 992 300 L992 440 Q992 448 980 448 L210 448 Q198 448 198 440 Z" fill="url(#bore)"/><rect x="200" y="330" width="792" height="80" fill="url(#bore)"/><g stroke="#d7e3f4" stroke-width="0.6" stroke-opacity="0.22"><line x1="206" y1="278" x2="220" y2="292"/><line x1="232" y1="278" x2="246" y2="292"/><line x1="258" y1="278" x2="272" y2="292"/><line x1="284" y1="278" x2="298" y2="292"/><line x1="310" y1="278" x2="324" y2="292"/><line x1="336" y1="278" x2="350" y2="292"/><line x1="362" y1="278" x2="376" y2="292"/><line x1="388" y1="278" x2="402" y2="292"/><line x1="414" y1="278" x2="428" y2="292"/><line x1="440" y1="278" x2="454" y2="292"/><line x1="466" y1="278" x2="480" y2="292"/><line x1="492" y1="278" x2="506" y2="292"/><line x1="518" y1="278" x2="532" y2="292"/><line x1="544" y1="278" x2="558" y2="292"/><line x1="570" y1="278" x2="584" y2="292"/><line x1="596" y1="278" x2="610" y2="292"/><line x1="622" y1="278" x2="636" y2="292"/><line x1="648" y1="278" x2="662" y2="292"/><line x1="674" y1="278" x2="688" y2="292"/><line x1="700" y1="278" x2="714" y2="292"/><line x1="726" y1="278" x2="740" y2="292"/><line x1="752" y1="278" x2="766" y2="292"/><line x1="778" y1="278" x2="792" y2="292"/><line x1="804" y1="278" x2="818" y2="292"/><line x1="830" y1="278" x2="844" y2="292"/><line x1="856" y1="278" x2="870" y2="292"/><line x1="882" y1="278" x2="896" y2="292"/><line x1="908" y1="278" x2="922" y2="292"/><line x1="934" y1="278" x2="948" y2="292"/><line x1="960" y1="278" x2="974" y2="292"/><line x1="986" y1="278" x2="1000" y2="292"/><line x1="206" y1="448" x2="220" y2="462"/><line x1="232" y1="448" x2="246" y2="462"/><line x1="258" y1="448" x2="272" y2="462"/><line x1="284" y1="448" x2="298" y2="462"/><line x1="310" y1="448" x2="324" y2="462"/><line x1="336" y1="448" x2="350" y2="462"/><line x1="362" y1="448" x2="376" y2="462"/><line x1="388" y1="448" x2="402" y2="462"/><line x1="414" y1="448" x2="428" y2="462"/><line x1="440" y1="448" x2="454" y2="462"/><line x1="466" y1="448" x2="480" y2="462"/><line x1="492" y1="448" x2="506" y2="462"/><line x1="518" y1="448" x2="532" y2="462"/><line x1="544" y1="448" x2="558" y2="462"/><line x1="570" y1="448" x2="584" y2="462"/><line x1="596" y1="448" x2="610" y2="462"/><line x1="622" y1="448" x2="636" y2="462"/><line x1="648" y1="448" x2="662" y2="462"/><line x1="674" y1="448" x2="688" y2="462"/><line x1="700" y1="448" x2="714" y2="462"/><line x1="726" y1="448" x2="740" y2="462"/><line x1="752" y1="448" x2="766" y2="462"/><line x1="778" y1="448" x2="792" y2="462"/><line x1="804" y1="448" x2="818" y2="462"/><line x1="830" y1="448" x2="844" y2="462"/><line x1="856" y1="448" x2="870" y2="462"/><line x1="882" y1="448" x2="896" y2="462"/><line x1="908" y1="448" x2="922" y2="462"/><line x1="934" y1="448" x2="948" y2="462"/><line x1="960" y1="448" x2="974" y2="462"/><line x1="986" y1="448" x2="1000" y2="462"/></g><path d="M180 300 Q180 278 202 278 L988 278 Q1010 278 1010 300 L1010 440 Q1010 462 988 462 L202 462 Q180 462 180 440 Z" fill="none" stroke="#d7e3f4" stroke-width="2" stroke-opacity="0.92" stroke-linejoin="round" stroke-linecap="round"/><path d="M198 300 Q198 292 210 292 L980 292 Q992 292 992 300 L992 440 Q992 448 980 448 L210 448 Q198 448 198 440 Z" fill="none" stroke="#d7e3f4" stroke-width="1.6" stroke-opacity="0.7" stroke-linejoin="round" stroke-linecap="round"/><path d="M200 296 L990 296" fill="none" stroke="#d7e3f4" stroke-width="0.6" stroke-opacity="0.35"/><path d="M200 444 L990 444" fill="none" stroke="#d7e3f4" stroke-width="0.6" stroke-opacity="0.35"/><path d="M196 262 L214 262 L214 458 L196 458 Z" fill="url(#metal)"/><g clip-path="url(#cFlL)" stroke="#d7e3f4" stroke-width="0.6" stroke-opacity="0.3"><line x1="0" y1="262" x2="196" y2="458"/><line x1="8" y1="262" x2="204" y2="458"/><line x1="16" y1="262" x2="212" y2="458"/><line x1="24" y1="262" x2="220" y2="458"/><line x1="32" y1="262" x2="228" y2="458"/><line x1="40" y1="262" x2="236" y2="458"/><line x1="48" y1="262" x2="244" y2="458"/><line x1="56" y1="262" x2="252" y2="458"/><line x1="64" y1="262" x2="260" y2="458"/><line x1="72" y1="262" x2="268" y2="458"/><line x1="80" y1="262" x2="276" y2="458"/><line x1="88" y1="262" x2="284" y2="458"/><line x1="96" y1="262" x2="292" y2="458"/><line x1="104" y1="262" x2="300" y2="458"/><line x1="112" y1="262" x2="308" y2="458"/><line x1="120" y1="262" x2="316" y2="458"/><line x1="128" y1="262" x2="324" y2="458"/><line x1="136" y1="262" x2="332" y2="458"/><line x1="144" y1="262" x2="340" y2="458"/><line x1="152" y1="262" x2="348" y2="458"/><line x1="160" y1="262" x2="356" y2="458"/><line x1="168" y1="262" x2="364" y2="458"/><line x1="176" y1="262" x2="372" y2="458"/><line x1="184" y1="262" x2="380" y2="458"/><line x1="192" y1="262" x2="388" y2="458"/><line x1="200" y1="262" x2="396" y2="458"/><line x1="208" y1="262" x2="404" y2="458"/><line x1="216" y1="262" x2="412" y2="458"/></g><path d="M196 262 L214 262 L214 458 L196 458 Z" fill="none" stroke="#d7e3f4" stroke-width="1.8" stroke-opacity="0.9" stroke-linejoin="round" stroke-linecap="round"/><circle cx="205" cy="276" r="4.2" fill="#20262f" stroke="#d7e3f4" stroke-width="1.1" stroke-opacity="0.7"/><circle cx="205" cy="276" r="1.6" fill="none" stroke="#d7e3f4" stroke-width="0.6" stroke-opacity="0.4"/><circle cx="205" cy="302" r="4.2" fill="#20262f" stroke="#d7e3f4" stroke-width="1.1" stroke-opacity="0.7"/><circle cx="205" cy="302" r="1.6" fill="none" stroke="#d7e3f4" stroke-width="0.6" stroke-opacity="0.4"/><circle cx="205" cy="328" r="4.2" fill="#20262f" stroke="#d7e3f4" stroke-width="1.1" stroke-opacity="0.7"/><circle cx="205" cy="328" r="1.6" fill="none" stroke="#d7e3f4" stroke-width="0.6" stroke-opacity="0.4"/><circle cx="205" cy="354" r="4.2" fill="#20262f" stroke="#d7e3f4" stroke-width="1.1" stroke-opacity="0.7"/><circle cx="205" cy="354" r="1.6" fill="none" stroke="#d7e3f4" stroke-width="0.6" stroke-opacity="0.4"/><circle cx="205" cy="380" r="4.2" fill="#20262f" stroke="#d7e3f4" stroke-width="1.1" stroke-opacity="0.7"/><circle cx="205" cy="380" r="1.6" fill="none" stroke="#d7e3f4" stroke-width="0.6" stroke-opacity="0.4"/><circle cx="205" cy="406" r="4.2" fill="#20262f" stroke="#d7e3f4" stroke-width="1.1" stroke-opacity="0.7"/><circle cx="205" cy="406" r="1.6" fill="none" stroke="#d7e3f4" stroke-width="0.6" stroke-opacity="0.4"/><circle cx="205" cy="432" r="4.2" fill="#20262f" stroke="#d7e3f4" stroke-width="1.1" stroke-opacity="0.7"/><circle cx="205" cy="432" r="1.6" fill="none" stroke="#d7e3f4" stroke-width="0.6" stroke-opacity="0.4"/><circle cx="205" cy="458" r="4.2" fill="#20262f" stroke="#d7e3f4" stroke-width="1.1" stroke-opacity="0.7"/><circle cx="205" cy="458" r="1.6" fill="none" stroke="#d7e3f4" stroke-width="0.6" stroke-opacity="0.4"/><line x1="196" y1="270" x2="196" y2="450" stroke="#59d6c8" stroke-width="2.4" stroke-opacity="0.7"/><circle cx="196" cy="300" r="3.0" fill="none" stroke="#59d6c8" stroke-width="1.4" stroke-opacity="0.85"/><circle cx="196" cy="370" r="3.0" fill="none" stroke="#59d6c8" stroke-width="1.4" stroke-opacity="0.85"/><circle cx="196" cy="440" r="3.0" fill="none" stroke="#59d6c8" stroke-width="1.4" stroke-opacity="0.85"/><path d="M994 262 L976 262 L976 458 L994 458 Z" fill="url(#metal)"/><g clip-path="url(#cFlR)" stroke="#d7e3f4" stroke-width="0.6" stroke-opacity="0.3"><line x1="796" y1="262" x2="992" y2="458"/><line x1="804" y1="262" x2="1000" y2="458"/><line x1="812" y1="262" x2="1008" y2="458"/><line x1="820" y1="262" x2="1016" y2="458"/><line x1="828" y1="262" x2="1024" y2="458"/><line x1="836" y1="262" x2="1032" y2="458"/><line x1="844" y1="262" x2="1040" y2="458"/><line x1="852" y1="262" x2="1048" y2="458"/><line x1="860" y1="262" x2="1056" y2="458"/><line x1="868" y1="262" x2="1064" y2="458"/><line x1="876" y1="262" x2="1072" y2="458"/><line x1="884" y1="262" x2="1080" y2="458"/><line x1="892" y1="262" x2="1088" y2="458"/><line x1="900" y1="262" x2="1096" y2="458"/><line x1="908" y1="262" x2="1104" y2="458"/><line x1="916" y1="262" x2="1112" y2="458"/><line x1="924" y1="262" x2="1120" y2="458"/><line x1="932" y1="262" x2="1128" y2="458"/><line x1="940" y1="262" x2="1136" y2="458"/><line x1="948" y1="262" x2="1144" y2="458"/><line x1="956" y1="262" x2="1152" y2="458"/><line x1="964" y1="262" x2="1160" y2="458"/><line x1="972" y1="262" x2="1168" y2="458"/><line x1="980" y1="262" x2="1176" y2="458"/><line x1="988" y1="262" x2="1184" y2="458"/><line x1="996" y1="262" x2="1192" y2="458"/></g><path d="M994 262 L976 262 L976 458 L994 458 Z" fill="none" stroke="#d7e3f4" stroke-width="1.8" stroke-opacity="0.9" stroke-linejoin="round" stroke-linecap="round"/><circle cx="985" cy="276" r="4.2" fill="#20262f" stroke="#d7e3f4" stroke-width="1.1" stroke-opacity="0.7"/><circle cx="985" cy="276" r="1.6" fill="none" stroke="#d7e3f4" stroke-width="0.6" stroke-opacity="0.4"/><circle cx="985" cy="302" r="4.2" fill="#20262f" stroke="#d7e3f4" stroke-width="1.1" stroke-opacity="0.7"/><circle cx="985" cy="302" r="1.6" fill="none" stroke="#d7e3f4" stroke-width="0.6" stroke-opacity="0.4"/><circle cx="985" cy="328" r="4.2" fill="#20262f" stroke="#d7e3f4" stroke-width="1.1" stroke-opacity="0.7"/><circle cx="985" cy="328" r="1.6" fill="none" stroke="#d7e3f4" stroke-width="0.6" stroke-opacity="0.4"/><circle cx="985" cy="354" r="4.2" fill="#20262f" stroke="#d7e3f4" stroke-width="1.1" stroke-opacity="0.7"/><circle cx="985" cy="354" r="1.6" fill="none" stroke="#d7e3f4" stroke-width="0.6" stroke-opacity="0.4"/><circle cx="985" cy="380" r="4.2" fill="#20262f" stroke="#d7e3f4" stroke-width="1.1" stroke-opacity="0.7"/><circle cx="985" cy="380" r="1.6" fill="none" stroke="#d7e3f4" stroke-width="0.6" stroke-opacity="0.4"/><circle cx="985" cy="406" r="4.2" fill="#20262f" stroke="#d7e3f4" stroke-width="1.1" stroke-opacity="0.7"/><circle cx="985" cy="406" r="1.6" fill="none" stroke="#d7e3f4" stroke-width="0.6" stroke-opacity="0.4"/><circle cx="985" cy="432" r="4.2" fill="#20262f" stroke="#d7e3f4" stroke-width="1.1" stroke-opacity="0.7"/><circle cx="985" cy="432" r="1.6" fill="none" stroke="#d7e3f4" stroke-width="0.6" stroke-opacity="0.4"/><circle cx="985" cy="458" r="4.2" fill="#20262f" stroke="#d7e3f4" stroke-width="1.1" stroke-opacity="0.7"/><circle cx="985" cy="458" r="1.6" fill="none" stroke="#d7e3f4" stroke-width="0.6" stroke-opacity="0.4"/><line x1="994" y1="270" x2="994" y2="450" stroke="#59d6c8" stroke-width="2.4" stroke-opacity="0.7"/><circle cx="994" cy="300" r="3.0" fill="none" stroke="#59d6c8" stroke-width="1.4" stroke-opacity="0.85"/><circle cx="994" cy="370" r="3.0" fill="none" stroke="#59d6c8" stroke-width="1.4" stroke-opacity="0.85"/><circle cx="994" cy="440" r="3.0" fill="none" stroke="#59d6c8" stroke-width="1.4" stroke-opacity="0.85"/><path d="M176 300 Q176 262 214 262 M176 440 Q176 478 214 458" fill="none" stroke="#d7e3f4" stroke-width="1.4" stroke-opacity="0.6" stroke-linejoin="round" stroke-linecap="round"/><path d="M1014 300 Q1014 262 976 262 M1014 440 Q1014 478 976 458" fill="none" stroke="#d7e3f4" stroke-width="1.4" stroke-opacity="0.6" stroke-linejoin="round" stroke-linecap="round"/><g fill="none" stroke="#ff7a26" stroke-width="7" stroke-opacity="0.10"><circle cx="300.0" cy="264" r="15"/><circle cx="300.0" cy="476" r="15"/><circle cx="332.5" cy="264" r="15"/><circle cx="332.5" cy="476" r="15"/><circle cx="365.0" cy="264" r="15"/><circle cx="365.0" cy="476" r="15"/><circle cx="397.5" cy="264" r="15"/><circle cx="397.5" cy="476" r="15"/><circle cx="430.0" cy="264" r="15"/><circle cx="430.0" cy="476" r="15"/><circle cx="492.0" cy="264" r="15"/><circle cx="492.0" cy="476" r="15"/><circle cx="524.0" cy="264" r="15"/><circle cx="524.0" cy="476" r="15"/><circle cx="556.0" cy="264" r="15"/><circle cx="556.0" cy="476" r="15"/><circle cx="588.0" cy="264" r="15"/><circle cx="588.0" cy="476" r="15"/><circle cx="620.0" cy="264" r="15"/><circle cx="620.0" cy="476" r="15"/><circle cx="682.0" cy="264" r="15"/><circle cx="682.0" cy="476" r="15"/><circle cx="719.0" cy="264" r="15"/><circle cx="719.0" cy="476" r="15"/><circle cx="756.0" cy="264" r="15"/><circle cx="756.0" cy="476" r="15"/><circle cx="793.0" cy="264" r="15"/><circle cx="793.0" cy="476" r="15"/><circle cx="830.0" cy="264" r="15"/><circle cx="830.0" cy="476" r="15"/></g><g fill="url(#hot)" stroke="#ff9a3c" stroke-width="2.4" stroke-opacity="0.25"><circle cx="300.0" cy="264" r="12"/><circle cx="300.0" cy="476" r="12"/><circle cx="332.5" cy="264" r="12"/><circle cx="332.5" cy="476" r="12"/><circle cx="365.0" cy="264" r="12"/><circle cx="365.0" cy="476" r="12"/><circle cx="397.5" cy="264" r="12"/><circle cx="397.5" cy="476" r="12"/><circle cx="430.0" cy="264" r="12"/><circle cx="430.0" cy="476" r="12"/><circle cx="492.0" cy="264" r="12"/><circle cx="492.0" cy="476" r="12"/><circle cx="524.0" cy="264" r="12"/><circle cx="524.0" cy="476" r="12"/><circle cx="556.0" cy="264" r="12"/><circle cx="556.0" cy="476" r="12"/><circle cx="588.0" cy="264" r="12"/><circle cx="588.0" cy="476" r="12"/><circle cx="620.0" cy="264" r="12"/><circle cx="620.0" cy="476" r="12"/><circle cx="682.0" cy="264" r="12"/><circle cx="682.0" cy="476" r="12"/><circle cx="719.0" cy="264" r="12"/><circle cx="719.0" cy="476" r="12"/><circle cx="756.0" cy="264" r="12"/><circle cx="756.0" cy="476" r="12"/><circle cx="793.0" cy="264" r="12"/><circle cx="793.0" cy="476" r="12"/><circle cx="830.0" cy="264" r="12"/><circle cx="830.0" cy="476" r="12"/></g><g fill="none" stroke="#ffcaa0" stroke-width="1.3" stroke-opacity="0.9"><circle cx="300.0" cy="264" r="11"/><circle cx="300.0" cy="476" r="11"/><circle cx="332.5" cy="264" r="11"/><circle cx="332.5" cy="476" r="11"/><circle cx="365.0" cy="264" r="11"/><circle cx="365.0" cy="476" r="11"/><circle cx="397.5" cy="264" r="11"/><circle cx="397.5" cy="476" r="11"/><circle cx="430.0" cy="264" r="11"/><circle cx="430.0" cy="476" r="11"/><circle cx="492.0" cy="264" r="11"/><circle cx="492.0" cy="476" r="11"/><circle cx="524.0" cy="264" r="11"/><circle cx="524.0" cy="476" r="11"/><circle cx="556.0" cy="264" r="11"/><circle cx="556.0" cy="476" r="11"/><circle cx="588.0" cy="264" r="11"/><circle cx="588.0" cy="476" r="11"/><circle cx="620.0" cy="264" r="11"/><circle cx="620.0" cy="476" r="11"/><circle cx="682.0" cy="264" r="11"/><circle cx="682.0" cy="476" r="11"/><circle cx="719.0" cy="264" r="11"/><circle cx="719.0" cy="476" r="11"/><circle cx="756.0" cy="264" r="11"/><circle cx="756.0" cy="476" r="11"/><circle cx="793.0" cy="264" r="11"/><circle cx="793.0" cy="476" r="11"/><circle cx="830.0" cy="264" r="11"/><circle cx="830.0" cy="476" r="11"/></g><g fill="none" stroke="#fff0dd" stroke-width="0.8" stroke-opacity="0.7"><circle cx="300.0" cy="264" r="7"/><circle cx="300.0" cy="476" r="7"/><circle cx="332.5" cy="264" r="7"/><circle cx="332.5" cy="476" r="7"/><circle cx="365.0" cy="264" r="7"/><circle cx="365.0" cy="476" r="7"/><circle cx="397.5" cy="264" r="7"/><circle cx="397.5" cy="476" r="7"/><circle cx="430.0" cy="264" r="7"/><circle cx="430.0" cy="476" r="7"/><circle cx="492.0" cy="264" r="7"/><circle cx="492.0" cy="476" r="7"/><circle cx="524.0" cy="264" r="7"/><circle cx="524.0" cy="476" r="7"/><circle cx="556.0" cy="264" r="7"/><circle cx="556.0" cy="476" r="7"/><circle cx="588.0" cy="264" r="7"/><circle cx="588.0" cy="476" r="7"/><circle cx="620.0" cy="264" r="7"/><circle cx="620.0" cy="476" r="7"/><circle cx="682.0" cy="264" r="7"/><circle cx="682.0" cy="476" r="7"/><circle cx="719.0" cy="264" r="7"/><circle cx="719.0" cy="476" r="7"/><circle cx="756.0" cy="264" r="7"/><circle cx="756.0" cy="476" r="7"/><circle cx="793.0" cy="264" r="7"/><circle cx="793.0" cy="476" r="7"/><circle cx="830.0" cy="264" r="7"/><circle cx="830.0" cy="476" r="7"/></g><path d="M296 250 L434 250" stroke="url(#copper)" stroke-width="3" stroke-opacity="0.75"/><path d="M296 490 L434 490" stroke="url(#copper)" stroke-width="3" stroke-opacity="0.75"/><path d="M488 250 L624 250" stroke="url(#copper)" stroke-width="3" stroke-opacity="0.75"/><path d="M488 490 L624 490" stroke="url(#copper)" stroke-width="3" stroke-opacity="0.75"/><path d="M678 250 L834 250" stroke="url(#copper)" stroke-width="3" stroke-opacity="0.75"/><path d="M678 490 L834 490" stroke="url(#copper)" stroke-width="3" stroke-opacity="0.75"/><path d="M365.0 180 L365.0 246" fill="none" stroke="#d7e3f4" stroke-width="1.0" stroke-opacity="0.45"/><circle cx="365.0" cy="246" r="3" fill="#20262f" stroke="#d7e3f4" stroke-width="1.0" stroke-opacity="0.5"/><path d="M556.0 180 L556.0 246" fill="none" stroke="#d7e3f4" stroke-width="1.0" stroke-opacity="0.45"/><circle cx="556.0" cy="246" r="3" fill="#20262f" stroke="#d7e3f4" stroke-width="1.0" stroke-opacity="0.5"/><path d="M756.0 180 L756.0 246" fill="none" stroke="#d7e3f4" stroke-width="1.0" stroke-opacity="0.45"/><circle cx="756.0" cy="246" r="3" fill="#20262f" stroke="#d7e3f4" stroke-width="1.0" stroke-opacity="0.5"/><path d="M392 440 L778 440 L774 454 L396 454 Z" fill="url(#graph)" stroke="#d7e3f4" stroke-width="1.4" stroke-opacity="0.8"/><path d="M396 446 L774 446" fill="none" stroke="#d7e3f4" stroke-width="0.9" stroke-opacity="0.4"/><g stroke="#d7e3f4" stroke-width="0.6" stroke-opacity="0.4"><line x1="406.0" y1="440" x2="406.0" y2="452"/><line x1="416.2" y1="440" x2="416.2" y2="452"/><line x1="426.5" y1="440" x2="426.5" y2="452"/><line x1="436.7" y1="440" x2="436.7" y2="452"/><line x1="446.9" y1="440" x2="446.9" y2="452"/><line x1="457.1" y1="440" x2="457.1" y2="452"/><line x1="467.4" y1="440" x2="467.4" y2="452"/><line x1="477.6" y1="440" x2="477.6" y2="452"/><line x1="487.8" y1="440" x2="487.8" y2="452"/><line x1="498.1" y1="440" x2="498.1" y2="452"/><line x1="508.3" y1="440" x2="508.3" y2="452"/><line x1="518.5" y1="440" x2="518.5" y2="452"/><line x1="528.7" y1="440" x2="528.7" y2="452"/><line x1="539.0" y1="440" x2="539.0" y2="452"/><line x1="549.2" y1="440" x2="549.2" y2="452"/><line x1="559.4" y1="440" x2="559.4" y2="452"/><line x1="569.7" y1="440" x2="569.7" y2="452"/><line x1="579.9" y1="440" x2="579.9" y2="452"/><line x1="590.1" y1="440" x2="590.1" y2="452"/><line x1="600.3" y1="440" x2="600.3" y2="452"/><line x1="610.6" y1="440" x2="610.6" y2="452"/><line x1="620.8" y1="440" x2="620.8" y2="452"/><line x1="631.0" y1="440" x2="631.0" y2="452"/><line x1="641.3" y1="440" x2="641.3" y2="452"/><line x1="651.5" y1="440" x2="651.5" y2="452"/><line x1="661.7" y1="440" x2="661.7" y2="452"/><line x1="671.9" y1="440" x2="671.9" y2="452"/><line x1="682.2" y1="440" x2="682.2" y2="452"/><line x1="692.4" y1="440" x2="692.4" y2="452"/><line x1="702.6" y1="440" x2="702.6" y2="452"/><line x1="712.9" y1="440" x2="712.9" y2="452"/><line x1="723.1" y1="440" x2="723.1" y2="452"/><line x1="733.3" y1="440" x2="733.3" y2="452"/><line x1="743.5" y1="440" x2="743.5" y2="452"/><line x1="753.8" y1="440" x2="753.8" y2="452"/><line x1="764.0" y1="440" x2="764.0" y2="452"/></g><g stroke="#d7e3f4" stroke-width="1.4" stroke-opacity="0.62"><line x1="406.0" y1="318" x2="406.0" y2="437"/><line x1="416.2" y1="318" x2="416.2" y2="437"/><line x1="426.5" y1="318" x2="426.5" y2="437"/><line x1="436.7" y1="318" x2="436.7" y2="437"/><line x1="446.9" y1="318" x2="446.9" y2="437"/><line x1="457.1" y1="318" x2="457.1" y2="437"/><line x1="467.4" y1="318" x2="467.4" y2="437"/><line x1="477.6" y1="318" x2="477.6" y2="437"/><line x1="487.8" y1="318" x2="487.8" y2="437"/><line x1="498.1" y1="318" x2="498.1" y2="437"/><line x1="508.3" y1="318" x2="508.3" y2="437"/><line x1="518.5" y1="318" x2="518.5" y2="437"/><line x1="528.7" y1="318" x2="528.7" y2="437"/><line x1="539.0" y1="318" x2="539.0" y2="437"/><line x1="549.2" y1="318" x2="549.2" y2="437"/><line x1="620.8" y1="318" x2="620.8" y2="437"/><line x1="631.0" y1="318" x2="631.0" y2="437"/><line x1="641.3" y1="318" x2="641.3" y2="437"/><line x1="651.5" y1="318" x2="651.5" y2="437"/><line x1="661.7" y1="318" x2="661.7" y2="437"/><line x1="671.9" y1="318" x2="671.9" y2="437"/><line x1="682.2" y1="318" x2="682.2" y2="437"/><line x1="692.4" y1="318" x2="692.4" y2="437"/><line x1="702.6" y1="318" x2="702.6" y2="437"/><line x1="712.9" y1="318" x2="712.9" y2="437"/><line x1="723.1" y1="318" x2="723.1" y2="437"/><line x1="733.3" y1="318" x2="733.3" y2="437"/><line x1="743.5" y1="318" x2="743.5" y2="437"/><line x1="753.8" y1="318" x2="753.8" y2="437"/><line x1="764.0" y1="318" x2="764.0" y2="437"/></g><g stroke="#59d6c8" stroke-width="3.4" stroke-opacity="0.12"><line x1="559.4" y1="318" x2="559.4" y2="437"/><line x1="569.7" y1="318" x2="569.7" y2="437"/><line x1="579.9" y1="318" x2="579.9" y2="437"/><line x1="590.1" y1="318" x2="590.1" y2="437"/><line x1="600.3" y1="318" x2="600.3" y2="437"/><line x1="610.6" y1="318" x2="610.6" y2="437"/></g><g stroke="#8ef0e6" stroke-width="1.6" stroke-opacity="0.9"><line x1="559.4" y1="318" x2="559.4" y2="437"/><line x1="569.7" y1="318" x2="569.7" y2="437"/><line x1="579.9" y1="318" x2="579.9" y2="437"/><line x1="590.1" y1="318" x2="590.1" y2="437"/><line x1="600.3" y1="318" x2="600.3" y2="437"/><line x1="610.6" y1="318" x2="610.6" y2="437"/></g><g fill="#8ef0e6" fill-opacity="0.9"><circle cx="559.4" cy="318" r="1.8"/><circle cx="569.7" cy="318" r="1.8"/><circle cx="579.9" cy="318" r="1.8"/><circle cx="590.1" cy="318" r="1.8"/><circle cx="600.3" cy="318" r="1.8"/><circle cx="610.6" cy="318" r="1.8"/></g><path d="M398 314 L398 452" fill="none" stroke="#d7e3f4" stroke-width="1.6" stroke-opacity="0.8" stroke-linejoin="round" stroke-linecap="round"/><path d="M772 314 L772 452" fill="none" stroke="#d7e3f4" stroke-width="1.6" stroke-opacity="0.8" stroke-linejoin="round" stroke-linecap="round"/><path d="M990 452 L790 452 L790 448 L990 448 Z" fill="url(#metal2)" stroke="#d7e3f4" stroke-width="1.4" stroke-opacity="0.85"/><path d="M792 448 L780 444 L780 456 L792 452 Z" fill="url(#metal)" stroke="#d7e3f4" stroke-width="1.2" stroke-opacity="0.7"/><path d="M1012 445 L1078 445 L1078 455 L1012 455 Z" fill="url(#metal)" stroke="#d7e3f4" stroke-width="1.6" stroke-opacity="0.85"/><path d="M1030 445 L1030 455" fill="none" stroke="#d7e3f4" stroke-width="0.9" stroke-opacity="0.5"/><path d="M1050 445 L1050 455" fill="none" stroke="#d7e3f4" stroke-width="0.9" stroke-opacity="0.5"/><circle cx="1072" cy="450" r="7" fill="url(#metal2)" stroke="#d7e3f4" stroke-width="1.4" stroke-opacity="0.7"/><path d="M1000 332 L560 336" stroke="#d7e3f4" stroke-width="2.4" stroke-opacity="0.9"/><path d="M1000 332 L560 336" stroke="#c2ccdd" stroke-width="1.0" stroke-opacity="0.6"/><circle cx="560" cy="336" r="4.2" fill="#59d6c8" stroke="#8ef0e6" stroke-width="1.2" stroke-opacity="0.85"/><path d="M1000 324 L1024 324 L1024 342 L1000 342 Z" fill="url(#metal)" stroke="#d7e3f4" stroke-width="1.4" stroke-opacity="0.8"/><path d="M1008 324 L1008 342" fill="none" stroke="#d7e3f4" stroke-width="0.8" stroke-opacity="0.5"/><circle cx="860" cy="335" r="2.2" fill="#20262f" stroke="#d7e3f4" stroke-width="0.8" stroke-opacity="0.5"/><circle cx="760" cy="335" r="2.2" fill="#20262f" stroke="#d7e3f4" stroke-width="0.8" stroke-opacity="0.5"/><circle cx="660" cy="335" r="2.2" fill="#20262f" stroke="#d7e3f4" stroke-width="0.8" stroke-opacity="0.5"/><path d="M110 316 L176 316 L176 360 L110 360 Z" fill="url(#metal2)" stroke="#d7e3f4" stroke-width="1.6" stroke-opacity="0.85"/><path d="M78 328 L176 328" stroke="url(#metal)" stroke-width="6" stroke-opacity="0.8"/><path d="M78 348 L176 348" stroke="url(#metal)" stroke-width="6" stroke-opacity="0.8"/><path d="M78 328 L176 328" fill="none" stroke="#d7e3f4" stroke-width="1.0" stroke-opacity="0.5" stroke-linejoin="round" stroke-linecap="round"/><path d="M78 348 L176 348" fill="none" stroke="#d7e3f4" stroke-width="1.0" stroke-opacity="0.5" stroke-linejoin="round" stroke-linecap="round"/><line x1="120" y1="338" x2="192" y2="338" stroke="#59d6c8" stroke-width="2" stroke-opacity="0.9"/><path d="M185.1 342.0 L192 338 L185.1 334.0" fill="none" stroke="#59d6c8" stroke-width="2" stroke-opacity="0.9" stroke-linejoin="round" stroke-linecap="round"/><line x1="140" y1="326" x2="196" y2="326" stroke="#59d6c8" stroke-width="1.6" stroke-opacity="0.7"/><path d="M190.8 329.0 L196 326 L190.8 323.0" fill="none" stroke="#59d6c8" stroke-width="1.6" stroke-opacity="0.7" stroke-linejoin="round" stroke-linecap="round"/><line x1="140" y1="350" x2="196" y2="350" stroke="#59d6c8" stroke-width="1.6" stroke-opacity="0.7"/><path d="M190.8 353.0 L196 350 L190.8 347.0" fill="none" stroke="#59d6c8" stroke-width="1.6" stroke-opacity="0.7" stroke-linejoin="round" stroke-linecap="round"/><path d="M104 321 L118 335 M104 335 L118 321" stroke="#d7e3f4" stroke-width="1.6" stroke-opacity="0.85"/><circle cx="111" cy="328" r="8" fill="none" stroke="#d7e3f4" stroke-width="1.2" stroke-opacity="0.6"/><path d="M111 320 L111 314" fill="none" stroke="#d7e3f4" stroke-width="1.0" stroke-opacity="0.5"/><path d="M104 341 L118 355 M104 355 L118 341" stroke="#d7e3f4" stroke-width="1.6" stroke-opacity="0.85"/><circle cx="111" cy="348" r="8" fill="none" stroke="#d7e3f4" stroke-width="1.2" stroke-opacity="0.6"/><path d="M111 340 L111 334" fill="none" stroke="#d7e3f4" stroke-width="1.0" stroke-opacity="0.5"/><path d="M96 470 Q96 462 104 462 L150 462 Q158 462 158 470 L158 536 Q158 544 150 544 L104 544 Q96 544 96 536 Z" fill="url(#quartz)" stroke="#d7e3f4" stroke-width="1.8" stroke-opacity="0.9"/><path d="M99 500 L155 500" stroke="#59d6c8" stroke-width="1.4" stroke-opacity="0.7"/><rect x="99" y="500" width="56" height="43" fill="#59d6c8" fill-opacity="0.08"/><circle cx="112" cy="528" r="3" fill="none" stroke="#8ef0e6" stroke-width="0.8" stroke-opacity="0.7"/><circle cx="120" cy="516" r="2.2" fill="none" stroke="#8ef0e6" stroke-width="0.8" stroke-opacity="0.7"/><circle cx="128" cy="532" r="2.6" fill="none" stroke="#8ef0e6" stroke-width="0.8" stroke-opacity="0.7"/><circle cx="136" cy="520" r="2" fill="none" stroke="#8ef0e6" stroke-width="0.8" stroke-opacity="0.7"/><circle cx="124" cy="508" r="1.8" fill="none" stroke="#8ef0e6" stroke-width="0.8" stroke-opacity="0.7"/><circle cx="140" cy="530" r="2.4" fill="none" stroke="#8ef0e6" stroke-width="0.8" stroke-opacity="0.7"/><circle cx="116" cy="522" r="1.6" fill="none" stroke="#8ef0e6" stroke-width="0.8" stroke-opacity="0.7"/><path d="M128 466 L128 524" fill="none" stroke="#d7e3f4" stroke-width="1.0" stroke-opacity="0.5"/><path d="M124 524 L132 524 M126 528 L130 528" fill="none" stroke="#d7e3f4" stroke-width="0.6" stroke-opacity="0.3"/><line x1="80" y1="478" x2="96" y2="478" stroke="#59d6c8" stroke-width="1.4" stroke-opacity="0.7"/><path d="M91.7 480.5 L96 478 L91.7 475.5" fill="none" stroke="#59d6c8" stroke-width="1.4" stroke-opacity="0.7" stroke-linejoin="round" stroke-linecap="round"/><path d="M150 466 L150 348" stroke="url(#metal)" stroke-width="4" stroke-opacity="0.7"/><path d="M150 466 L150 452 M150 372 L150 348" fill="none" stroke="#d7e3f4" stroke-width="1.0" stroke-opacity="0.5" stroke-linejoin="round" stroke-linecap="round"/><line x1="150" y1="430" x2="150" y2="400" stroke="#59d6c8" stroke-width="1.4" stroke-opacity="0.7"/><path d="M152.5 404.3 L150 400 L147.5 404.3" fill="none" stroke="#59d6c8" stroke-width="1.4" stroke-opacity="0.7" stroke-linejoin="round" stroke-linecap="round"/><path d="M1012 300 L1052 300 L1052 220 L1030 220 L1030 284 L1012 284 Z" fill="url(#metal2)" stroke="#d7e3f4" stroke-width="1.6" stroke-opacity="0.85"/><path d="M1012 292 L1030 292" fill="none" stroke="#d7e3f4" stroke-width="0.9" stroke-opacity="0.5"/><circle cx="1041" cy="258" r="2.4" fill="#20262f" stroke="#d7e3f4" stroke-width="1.0" stroke-opacity="0.6"/><path d="M1041 258 L1058 246" stroke="#d7e3f4" stroke-width="2.4" stroke-opacity="0.9"/><path d="M1041 258 L1024 270" stroke="#d7e3f4" stroke-width="2.4" stroke-opacity="0.9"/><path d="M1030 236 A16 16 0 0 1 1052 236" fill="none" stroke="#d7e3f4" stroke-width="0.8" stroke-opacity="0.4"/><line x1="1041" y1="300" x2="1041" y2="232" stroke="#59d6c8" stroke-width="2" stroke-opacity="0.85"/><path d="M1045.0 238.9 L1041 232 L1037.0 238.9" fill="none" stroke="#59d6c8" stroke-width="2" stroke-opacity="0.85" stroke-linejoin="round" stroke-linecap="round"/><line x1="1041" y1="300" x2="1041" y2="232" stroke="#ff7a26" stroke-width="1.2" stroke-opacity="0.35"/><path d="M1045.0 238.9 L1041 232 L1037.0 238.9" fill="none" stroke="#ff7a26" stroke-width="1.2" stroke-opacity="0.35" stroke-linejoin="round" stroke-linecap="round"/><path d="M198 370 L992 370" fill="none" stroke="#d7e3f4" stroke-width="0.6" stroke-opacity="0.22"/><path d="M220 366 L220 374" fill="none" stroke="#d7e3f4" stroke-width="0.5" stroke-opacity="0.2"/><path d="M260 366 L260 374" fill="none" stroke="#d7e3f4" stroke-width="0.5" stroke-opacity="0.2"/><path d="M300 366 L300 374" fill="none" stroke="#d7e3f4" stroke-width="0.5" stroke-opacity="0.2"/><path d="M340 366 L340 374" fill="none" stroke="#d7e3f4" stroke-width="0.5" stroke-opacity="0.2"/><path d="M380 366 L380 374" fill="none" stroke="#d7e3f4" stroke-width="0.5" stroke-opacity="0.2"/><path d="M420 366 L420 374" fill="none" stroke="#d7e3f4" stroke-width="0.5" stroke-opacity="0.2"/><path d="M460 366 L460 374" fill="none" stroke="#d7e3f4" stroke-width="0.5" stroke-opacity="0.2"/><path d="M500 366 L500 374" fill="none" stroke="#d7e3f4" stroke-width="0.5" stroke-opacity="0.2"/><path d="M540 366 L540 374" fill="none" stroke="#d7e3f4" stroke-width="0.5" stroke-opacity="0.2"/><path d="M580 366 L580 374" fill="none" stroke="#d7e3f4" stroke-width="0.5" stroke-opacity="0.2"/><path d="M620 366 L620 374" fill="none" stroke="#d7e3f4" stroke-width="0.5" stroke-opacity="0.2"/><path d="M660 366 L660 374" fill="none" stroke="#d7e3f4" stroke-width="0.5" stroke-opacity="0.2"/><path d="M700 366 L700 374" fill="none" stroke="#d7e3f4" stroke-width="0.5" stroke-opacity="0.2"/><path d="M740 366 L740 374" fill="none" stroke="#d7e3f4" stroke-width="0.5" stroke-opacity="0.2"/><path d="M780 366 L780 374" fill="none" stroke="#d7e3f4" stroke-width="0.5" stroke-opacity="0.2"/><path d="M820 366 L820 374" fill="none" stroke="#d7e3f4" stroke-width="0.5" stroke-opacity="0.2"/><path d="M860 366 L860 374" fill="none" stroke="#d7e3f4" stroke-width="0.5" stroke-opacity="0.2"/><path d="M900 366 L900 374" fill="none" stroke="#d7e3f4" stroke-width="0.5" stroke-opacity="0.2"/><path d="M940 366 L940 374" fill="none" stroke="#d7e3f4" stroke-width="0.5" stroke-opacity="0.2"/><path d="M980 366 L980 374" fill="none" stroke="#d7e3f4" stroke-width="0.5" stroke-opacity="0.2"/><path d="M60 640 L1040 640" fill="none" stroke="#d7e3f4" stroke-width="0.6" stroke-opacity="0.25"/><path d="M196 470 L196 640" fill="none" stroke="#d7e3f4" stroke-width="0.5" stroke-opacity="0.2"/><path d="M472 470 L472 640" fill="none" stroke="#d7e3f4" stroke-width="0.5" stroke-opacity="0.2"/><path d="M660 470 L660 640" fill="none" stroke="#d7e3f4" stroke-width="0.5" stroke-opacity="0.2"/><path d="M994 470 L994 640" fill="none" stroke="#d7e3f4" stroke-width="0.5" stroke-opacity="0.2"/><path d="M196 632 L994 632" fill="none" stroke="#d7e3f4" stroke-width="0.5" stroke-opacity="0.2"/><path d="M192 636 L200 644 M192 644 L200 636" fill="none" stroke="#d7e3f4" stroke-width="0.6" stroke-opacity="0.3"/><path d="M990 636 L998 644 M990 644 L998 636" fill="none" stroke="#d7e3f4" stroke-width="0.6" stroke-opacity="0.3"/></svg><circle cx="370.6" cy="569.8" r="2.6" fill="#59d6c8" opacity="0.9"/><path d="M 370.6 569.8 L 225 556" stroke="#d7e3f4" stroke-width="0.9" opacity="0.5" fill="none"/><circle cx="449.1" cy="612.6" r="2.6" fill="#59d6c8" opacity="0.9"/><path d="M 449.1 612.6 L 225 626" stroke="#d7e3f4" stroke-width="0.9" opacity="0.5" fill="none"/><circle cx="369.5" cy="740.1" r="2.6" fill="#59d6c8" opacity="0.9"/><path d="M 369.5 740.1 L 225 718" stroke="#d7e3f4" stroke-width="0.9" opacity="0.5" fill="none"/><circle cx="546.0" cy="423.9" r="2.6" fill="#59d6c8" opacity="0.9"/><path d="M 546.0 423.9 L 430 334" stroke="#d7e3f4" stroke-width="0.9" opacity="0.5" fill="none"/><circle cx="612.3" cy="494.3" r="2.6" fill="#59d6c8" opacity="0.9"/><path d="M 612.3 494.3 L 670 334" stroke="#d7e3f4" stroke-width="0.9" opacity="0.5" fill="none"/><circle cx="852.0" cy="515.7" r="2.6" fill="#59d6c8" opacity="0.9"/><path d="M 852.0 515.7 L 920 334" stroke="#d7e3f4" stroke-width="0.9" opacity="0.5" fill="none"/><circle cx="1301.8" cy="480.0" r="2.6" fill="#59d6c8" opacity="0.9"/><path d="M 1301.8 480.0 L 1390 476" stroke="#d7e3f4" stroke-width="0.9" opacity="0.5" fill="none"/><circle cx="811.2" cy="567.7" r="2.6" fill="#59d6c8" opacity="0.9"/><path d="M 811.2 567.7 L 1390 560" stroke="#d7e3f4" stroke-width="0.9" opacity="0.5" fill="none"/><circle cx="1137.6" cy="686.0" r="2.6" fill="#59d6c8" opacity="0.9"/><path d="M 1137.6 686.0 L 1390 686" stroke="#d7e3f4" stroke-width="0.9" opacity="0.5" fill="none"/><circle cx="719.4" cy="592.2" r="2.6" fill="#59d6c8" opacity="0.9"/><path d="M 719.4 592.2 L 670 870" stroke="#d7e3f4" stroke-width="0.9" opacity="0.5" fill="none"/><circle cx="836.7" cy="682.0" r="2.6" fill="#59d6c8" opacity="0.9"/><path d="M 836.7 682.0 L 930 870" stroke="#d7e3f4" stroke-width="0.9" opacity="0.5" fill="none"/><text x="213" y="562" text-anchor="end" font-family="'Pretendard Variable',Pretendard,'Malgun Gothic',sans-serif" font-size="19" font-weight="600" fill="#e8eef7" fill-opacity="0.95">가스 유입 O₂ / H₂O</text><text x="213" y="582" text-anchor="end" font-family="'IBM Plex Mono','JetBrains Mono',ui-monospace,Consolas,monospace" font-size="11" letter-spacing="1.2" fill="#93a4bd" fill-opacity="0.75">DRY · WET OXIDATION</text><text x="213" y="632" text-anchor="end" font-family="'Pretendard Variable',Pretendard,'Malgun Gothic',sans-serif" font-size="19" font-weight="600" fill="#e8eef7" fill-opacity="0.95">튜브 플랜지 · 오링</text><text x="213" y="652" text-anchor="end" font-family="'IBM Plex Mono','JetBrains Mono',ui-monospace,Consolas,monospace" font-size="11" letter-spacing="1.2" fill="#93a4bd" fill-opacity="0.75">FLANGE SEAL</text><text x="213" y="724" text-anchor="end" font-family="'Pretendard Variable',Pretendard,'Malgun Gothic',sans-serif" font-size="19" font-weight="600" fill="#e8eef7" fill-opacity="0.95">버블러</text><text x="213" y="744" text-anchor="end" font-family="'IBM Plex Mono','JetBrains Mono',ui-monospace,Consolas,monospace" font-size="11" letter-spacing="1.2" fill="#93a4bd" fill-opacity="0.75">H₂O BUBBLER</text><text x="430" y="306" text-anchor="middle" font-family="'Pretendard Variable',Pretendard,'Malgun Gothic',sans-serif" font-size="19" font-weight="600" fill="#e8eef7" fill-opacity="0.95">단열 하우징</text><text x="430" y="326" text-anchor="middle" font-family="'IBM Plex Mono','JetBrains Mono',ui-monospace,Consolas,monospace" font-size="11" letter-spacing="1.2" fill="#93a4bd" fill-opacity="0.75">REFRACTORY</text><text x="670" y="306" text-anchor="middle" font-family="'Pretendard Variable',Pretendard,'Malgun Gothic',sans-serif" font-size="19" font-weight="600" fill="#e8eef7" fill-opacity="0.95">3-zone 저항 히터</text><text x="670" y="326" text-anchor="middle" font-family="'IBM Plex Mono','JetBrains Mono',ui-monospace,Consolas,monospace" font-size="11" letter-spacing="1.2" fill="#93a4bd" fill-opacity="0.75">COIL WINDINGS</text><text x="920" y="306" text-anchor="middle" font-family="'Pretendard Variable',Pretendard,'Malgun Gothic',sans-serif" font-size="19" font-weight="600" fill="#e8eef7" fill-opacity="0.95">석영 공정 튜브</text><text x="920" y="326" text-anchor="middle" font-family="'IBM Plex Mono','JetBrains Mono',ui-monospace,Consolas,monospace" font-size="11" letter-spacing="1.2" fill="#93a4bd" fill-opacity="0.75">QUARTZ TUBE</text><text x="1402" y="482" text-anchor="start" font-family="'Pretendard Variable',Pretendard,'Malgun Gothic',sans-serif" font-size="19" font-weight="600" fill="#e8eef7" fill-opacity="0.95">배기 덕트 · 댐퍼</text><text x="1402" y="502" text-anchor="start" font-family="'IBM Plex Mono','JetBrains Mono',ui-monospace,Consolas,monospace" font-size="11" letter-spacing="1.2" fill="#93a4bd" fill-opacity="0.75">EXHAUST</text><text x="1402" y="566" text-anchor="start" font-family="'Pretendard Variable',Pretendard,'Malgun Gothic',sans-serif" font-size="19" font-weight="600" fill="#e8eef7" fill-opacity="0.95">열전대 프로브</text><text x="1402" y="586" text-anchor="start" font-family="'IBM Plex Mono','JetBrains Mono',ui-monospace,Consolas,monospace" font-size="11" letter-spacing="1.2" fill="#93a4bd" fill-opacity="0.75">THERMOCOUPLE</text><text x="1402" y="692" text-anchor="start" font-family="'Pretendard Variable',Pretendard,'Malgun Gothic',sans-serif" font-size="19" font-weight="600" fill="#e8eef7" fill-opacity="0.95">로딩 패들</text><text x="1402" y="712" text-anchor="start" font-family="'IBM Plex Mono','JetBrains Mono',ui-monospace,Consolas,monospace" font-size="11" letter-spacing="1.2" fill="#93a4bd" fill-opacity="0.75">CANTILEVER ARM</text><text x="670" y="898" text-anchor="middle" font-family="'Pretendard Variable',Pretendard,'Malgun Gothic',sans-serif" font-size="19" font-weight="600" fill="#e8eef7" fill-opacity="0.95">웨이퍼 배치 — 수십 장 일괄</text><text x="670" y="918" text-anchor="middle" font-family="'IBM Plex Mono','JetBrains Mono',ui-monospace,Consolas,monospace" font-size="11" letter-spacing="1.2" fill="#93a4bd" fill-opacity="0.75">BATCH ×36</text><text x="930" y="898" text-anchor="middle" font-family="'Pretendard Variable',Pretendard,'Malgun Gothic',sans-serif" font-size="19" font-weight="600" fill="#e8eef7" fill-opacity="0.95">석영 보트</text><text x="930" y="918" text-anchor="middle" font-family="'IBM Plex Mono','JetBrains Mono',ui-monospace,Consolas,monospace" font-size="11" letter-spacing="1.2" fill="#93a4bd" fill-opacity="0.75">WAFER BOAT</text><text x="30" y="1042" font-family="'IBM Plex Mono','JetBrains Mono',ui-monospace,Consolas,monospace" font-size="17" font-weight="500" letter-spacing="0.5" fill="#e8eef7" fill-opacity="0.85">FIG. 4 — 유리 가마: 1,000°C 석영 튜브 안에서 웨이퍼 표면에 SiO₂가 자란다</text></svg>