<svg xmlns="http://www.w3.org/2000/svg" viewBox="0 0 1600 1060" role="img"><svg x="240" y="225" width="1122.0" height="734.4" viewBox="0 0 1100 720"><defs><linearGradient id="metalV" x1="0" y1="0" x2="0" y2="1"><stop offset="0" stop-color="#aeb9cc" stop-opacity="0.85"/><stop offset="0.5" stop-color="#7b8593" stop-opacity="0.7"/><stop offset="1" stop-color="#5a6373" stop-opacity="0.85"/></linearGradient><linearGradient id="metalWall" x1="0" y1="0" x2="1" y2="1"><stop offset="0" stop-color="#8b96a8" stop-opacity="0.5"/><stop offset="1" stop-color="#4a5262" stop-opacity="0.5"/></linearGradient><linearGradient id="graphite" x1="0" y1="0" x2="0" y2="1"><stop offset="0" stop-color="#3a3f49"/><stop offset="1" stop-color="#22262e"/></linearGradient><linearGradient id="quartz" x1="0" y1="0" x2="0" y2="1"><stop offset="0" stop-color="#dcecf6"/><stop offset="1" stop-color="#a9c9dd"/></linearGradient><linearGradient id="wafer" x1="0" y1="0" x2="1" y2="0"><stop offset="0" stop-color="#2f5c93"/><stop offset="0.5" stop-color="#4f86c6"/><stop offset="1" stop-color="#2f5c93"/></linearGradient><linearGradient id="pobFill" x1="0" y1="0" x2="0" y2="1"><stop offset="0" stop-color="#5a6373" stop-opacity="0.4"/><stop offset="1" stop-color="#2b313c" stop-opacity="0.4"/></linearGradient><radialGradient id="plasma" cx="0.5" cy="0.5" r="0.5"><stop offset="0" stop-color="#f0e6ff" stop-opacity="0.95"/><stop offset="0.25" stop-color="#c6a6ff" stop-opacity="0.7"/><stop offset="0.6" stop-color="#8a5cff" stop-opacity="0.35"/><stop offset="1" stop-color="#b18cff" stop-opacity="0"/></radialGradient></defs><g><path d="M70.0,120.0 L300.0,90.0 L560.0,70.0 L640.0,60.0 L760.0,80.0 L900.0,110.0 L1030.0,150.0 L1050.0,300.0 L1035.0,470.0 L1000.0,600.0 L940.0,660.0 L740.0,680.0 L520.0,672.0 L300.0,660.0 L140.0,610.0 L80.0,470.0 L60.0,300.0 Z" fill="url(#metalWall)" fill-opacity="0.35"/><path d="M70.0,120.0 L300.0,90.0 L560.0,70.0 L640.0,60.0 L760.0,80.0 L900.0,110.0 L1030.0,150.0 L1050.0,300.0 L1035.0,470.0 L1000.0,600.0 L940.0,660.0 L740.0,680.0 L520.0,672.0 L300.0,660.0 L140.0,610.0 L80.0,470.0 L60.0,300.0 Z" fill="none" stroke="#d7e3f4" stroke-width="2" stroke-opacity="0.92" stroke-linecap="round" stroke-linejoin="round"/><path d="M84.6,126.6 L311.8,100.8 L562.0,85.9 L637.6,75.8 L751.9,93.8 L887.6,120.1 L1015.6,156.9 L1034.1,302.1 L1019.5,466.1 L986.3,591.8 L928.0,649.5 L733.4,665.4 L523.8,656.4 L311.2,648.6 L154.0,602.3 L95.6,466.6 L75.9,301.8 Z" fill="none" stroke="#d7e3f4" stroke-width="1.1" stroke-opacity="0.5" stroke-linecap="round"/><path d="M298,90L309,101M292,91L303,102M286,92L296,103M280,93L290,103M273,93L284,104M267,94L278,105M261,95L271,105M255,96L265,106M249,97L259,107M242,98L252,108M236,98L246,108M230,99L240,109M224,100L234,110M218,101L227,110M211,102L221,111M205,102L215,112M199,103L208,113M193,104L202,113M187,105L196,114M180,106L190,115M174,106L183,115M168,107L177,116M162,108L171,117M156,109L164,118M149,110L158,118M143,110L152,119M137,111L146,120M131,112L139,120M125,113L133,121M119,114L127,122M112,114L120,123M106,115L114,123M100,116L108,124M94,117L102,125M88,118L95,125M81,119L89,126M75,119L81,125" fill="none" stroke="#9fb0c8" stroke-width="0.6" stroke-opacity="0.32"/><path d="M555,70L561,76M549,71L562,84M542,71L557,86M536,72L551,87M529,72L544,87M523,73L537,87M516,73L531,88M510,74L524,88M503,74L517,89M497,75L511,89M490,75L504,89M484,76L498,90M477,76L491,90M471,77L484,90M464,77L478,91M458,78L471,91M451,78L465,92M445,79L458,92M438,79L451,92M432,80L445,93M425,80L438,93M419,81L432,94M412,81L425,94M406,82L418,94M399,82L412,95M393,83L405,95M386,83L399,96M380,84L392,96M373,84L385,96M367,85L379,97M360,85L372,97M354,86L366,98M347,86L359,98M341,87L352,98M334,87L346,99M328,88L339,99M321,88L332,100M315,89L326,100M308,89L319,100M302,90L313,101" fill="none" stroke="#9fb0c8" stroke-width="0.6" stroke-opacity="0.32"/><path d="M634,61L639,66M628,62L638,72M621,62L635,76M615,63L629,77M609,64L623,78M603,65L617,79M596,65L610,79M590,66L604,80M584,67L598,81M578,68L592,82M572,69L586,83M565,69L580,84M560,71L573,84M561,79L567,85" fill="none" stroke="#9fb0c8" stroke-width="0.6" stroke-opacity="0.32"/><path d="M759,80L760,81M750,78L757,85M742,77L754,89M734,76L752,94M725,74L743,92M717,73L735,91M708,71L727,90M700,70L719,89M692,69L710,87M683,67L702,86M675,66L694,85M666,64L685,83M658,63L677,82M650,62L669,81M641,60L660,79M639,65L652,78M638,71L644,77" fill="none" stroke="#9fb0c8" stroke-width="0.6" stroke-opacity="0.32"/><path d="M894,109L897,112M885,107L893,115M876,105L890,119M867,103L883,119M858,101L875,118M849,99L866,116M840,97L857,114M831,95L849,113M822,93L840,111M813,91L831,109M805,90L822,107M796,88L814,106M787,86L805,104M778,84L796,102M769,82L788,101M757,84L770,97M755,89L762,96M752,93L753,94" fill="none" stroke="#9fb0c8" stroke-width="0.6" stroke-opacity="0.32"/><path d="M1027,149L1029,151M1017,146L1024,153M1007,143L1019,155M997,140L1013,156M987,137L1003,153M977,134L994,151M966,130L984,148M956,127L974,145M946,124L964,142M936,121L954,139M926,118L944,136M916,115L935,134M906,112L925,131M898,111L915,128M894,114L905,125M891,118L895,122" fill="none" stroke="#9fb0c8" stroke-width="0.6" stroke-opacity="0.32"/><path d="M1029,150L1030,151M1025,153L1031,159M1020,155L1032,167M1016,158L1033,175M1017,166L1034,183M1018,174L1036,192M1019,182L1037,200M1020,190L1038,208M1021,198L1039,216M1022,206L1040,224M1023,214L1041,232M1024,222L1042,240M1025,230L1043,248M1026,238L1044,256M1027,246L1045,264M1028,254L1046,272M1029,262L1047,280M1030,270L1048,288M1031,278L1050,297M1032,286L1046,300M1033,294L1040,301" fill="none" stroke="#9fb0c8" stroke-width="0.6" stroke-opacity="0.32"/><path d="M1044,301L1049,306M1038,302L1049,313M1034,305L1048,319M1033,311L1048,326M1033,318L1047,332M1032,324L1047,339M1032,331L1046,345M1031,337L1045,351M1030,343L1045,358M1030,350L1044,364M1029,356L1044,371M1029,363L1043,377M1028,369L1043,384M1028,376L1042,390M1027,382L1041,396M1026,388L1041,403M1026,395L1040,409M1025,401L1040,416M1025,408L1039,422M1024,414L1039,429M1024,421L1038,435M1023,427L1038,442M1022,433L1037,448M1022,440L1036,454M1021,446L1036,461M1021,453L1035,467M1020,459L1030,469M1020,466L1020,466" fill="none" stroke="#9fb0c8" stroke-width="0.6" stroke-opacity="0.32"/><path d="M1031,469L1034,472M1022,467L1033,478M1018,470L1031,483M1017,476L1030,489M1015,481L1028,494M1014,487L1027,500M1012,493L1025,506M1011,498L1024,511M1010,504L1022,517M1008,509L1021,522M1007,515L1019,528M1005,520L1018,533M1004,526L1017,539M1002,531L1015,544M1001,537L1014,550M999,542L1012,555M998,548L1011,561M996,553L1009,566M995,559L1008,572M993,565L1006,577M992,570L1005,583M991,576L1003,588M989,581L1002,594M988,587L1000,599" fill="none" stroke="#9fb0c8" stroke-width="0.6" stroke-opacity="0.32"/><path d="M986,592L997,603M983,595L994,606M979,599L990,610M976,602L987,613M972,606L983,617M969,609L980,620M965,613L976,624M961,616L973,627M958,620L969,631M954,623L966,634M951,627L962,638M947,630L959,641M944,634L955,645M940,637L952,648M937,641L948,652M933,644L945,655M930,648L941,659" fill="none" stroke="#9fb0c8" stroke-width="0.6" stroke-opacity="0.32"/><path d="M926,650L937,660M920,650L930,661M913,651L924,662M907,651L918,662M900,652L911,663M894,652L905,663M887,653L899,664M881,653L892,665M874,654L886,665M868,654L880,666M861,655L873,667M855,655L867,667M849,656L860,668M842,657L854,669M836,657L848,669M829,658L841,670M823,658L835,670M816,659L829,671M810,659L822,672M803,660L816,672M797,660L810,673M790,661L803,674M784,661L797,674M777,662L790,675M771,662L784,676M764,663L778,676M758,663L771,677M751,664L765,677M745,664L759,678M739,665L752,679M735,668L746,679" fill="none" stroke="#9fb0c8" stroke-width="0.6" stroke-opacity="0.32"/><path d="M728,665L738,675M720,665L735,680M713,665L728,680M706,664L721,679M698,664L714,679M691,664L706,679M684,663L699,679M677,663L692,678M669,663L685,678M662,662L677,678M655,662L670,677M647,662L663,677M640,661L655,677M633,661L648,677M625,661L641,676M618,660L634,676M611,660L626,676M603,660L619,676M596,660L612,675M589,659L605,675M581,659L597,675M574,659L590,675M567,658L583,674M560,658L576,674M552,658L568,674M545,657L561,673M538,657L554,673M530,657L547,673M524,657L539,673M522,663L532,672M521,668L525,672" fill="none" stroke="#9fb0c8" stroke-width="0.6" stroke-opacity="0.32"/><path d="M517,656L523,661M510,656L521,667M503,656L519,672M496,655L512,672M488,655L504,671M481,655L497,671M474,655L490,670M467,654L482,670M459,654L475,670M452,654L467,669M445,654L460,669M437,653L452,668M430,653L445,668M423,653L438,668M416,652L430,667M408,652L423,667M401,652L415,666M394,652L408,666M387,651L401,665M379,651L393,665M372,651L386,665M365,651L378,664M357,650L371,664M350,650L364,663M343,650L356,663M336,649L349,663M328,649L341,662M321,649L334,662M314,649L327,661M309,651L319,661M306,654L312,661M302,658L304,660" fill="none" stroke="#9fb0c8" stroke-width="0.6" stroke-opacity="0.32"/><path d="M307,647L310,650M297,645L306,653M288,642L303,657M278,639L298,660M268,636L288,656M258,633L278,653M248,630L268,650M238,627L258,647M228,624L248,644M218,621L237,640M208,618L227,637M198,615L217,634M188,612L207,631M178,609L197,628M168,607L186,625M159,604L176,621M152,604L166,618M147,606L156,615M143,609L146,612" fill="none" stroke="#9fb0c8" stroke-width="0.6" stroke-opacity="0.32"/><path d="M92,467L99,475M86,469L104,487M80,470L110,499M85,482L115,512M90,494L120,524M95,506L126,536M101,518L131,548M106,531L136,561M111,543L141,573M116,555L147,585M122,567L152,598M127,580L151,604M132,592L147,606M137,604L142,609" fill="none" stroke="#9fb0c8" stroke-width="0.6" stroke-opacity="0.32"/><path d="M69,301L77,309M61,300L78,317M61,307L79,325M62,315L80,333M63,323L81,341M64,331L82,349M65,339L83,357M66,347L83,365M66,355L84,373M67,363L85,381M68,371L86,389M69,379L87,397M70,387L88,405M71,394L89,413M72,402L90,420M73,410L91,428M74,418L92,436M75,426L93,444M76,434L94,452M77,442L95,460M78,450L95,467M79,458L89,468M80,466L83,469" fill="none" stroke="#9fb0c8" stroke-width="0.6" stroke-opacity="0.32"/><path d="M84,126L85,127M71,120L84,134M70,126L84,140M69,133L84,147M69,139L83,154M69,146L83,160M68,153L83,167M68,159L82,174M67,166L82,180M67,173L82,187M67,179L81,194M66,186L81,200M66,192L81,207M66,199L80,214M65,206L80,220M65,212L80,227M65,219L79,234M64,226L79,240M64,232L79,247M63,239L78,254M63,245L78,260M63,252L78,267M62,259L77,274M62,265L77,280M62,272L77,287M61,279L76,294M61,285L76,300M60,292L70,301M60,299L62,300" fill="none" stroke="#9fb0c8" stroke-width="0.6" stroke-opacity="0.32"/></g><g><path d="M70.0,165.0 L44.0,165.0 L44.0,195.0 L70.0,195.0 Z" fill="url(#metalV)" fill-opacity="0.5" stroke="#d7e3f4" stroke-width="1.6" stroke-opacity="0.85"/><line x1="44.0" y1="157.0" x2="44.0" y2="203.0" stroke="#d7e3f4" stroke-width="1.8" stroke-opacity="0.85"/><circle cx="54.0" cy="180.0" r="1.9" fill="#7c8798" stroke="#d7e3f4" stroke-width="0.8" stroke-opacity="0.7"/><circle cx="44.0" cy="190.0" r="1.9" fill="#7c8798" stroke="#d7e3f4" stroke-width="0.8" stroke-opacity="0.7"/><circle cx="34.0" cy="180.0" r="1.9" fill="#7c8798" stroke="#d7e3f4" stroke-width="0.8" stroke-opacity="0.7"/><circle cx="44.0" cy="170.0" r="1.9" fill="#7c8798" stroke="#d7e3f4" stroke-width="0.8" stroke-opacity="0.7"/><path d="M66.0,345.0 L40.0,345.0 L40.0,375.0 L66.0,375.0 Z" fill="url(#metalV)" fill-opacity="0.5" stroke="#d7e3f4" stroke-width="1.6" stroke-opacity="0.85"/><line x1="40.0" y1="337.0" x2="40.0" y2="383.0" stroke="#d7e3f4" stroke-width="1.8" stroke-opacity="0.85"/><circle cx="50.0" cy="360.0" r="1.9" fill="#7c8798" stroke="#d7e3f4" stroke-width="0.8" stroke-opacity="0.7"/><circle cx="40.0" cy="370.0" r="1.9" fill="#7c8798" stroke="#d7e3f4" stroke-width="0.8" stroke-opacity="0.7"/><circle cx="30.0" cy="360.0" r="1.9" fill="#7c8798" stroke="#d7e3f4" stroke-width="0.8" stroke-opacity="0.7"/><circle cx="40.0" cy="350.0" r="1.9" fill="#7c8798" stroke="#d7e3f4" stroke-width="0.8" stroke-opacity="0.7"/><path d="M285.0,662.0 L285.0,688.0 L315.0,688.0 L315.0,662.0 Z" fill="url(#metalV)" fill-opacity="0.5" stroke="#d7e3f4" stroke-width="1.6" stroke-opacity="0.85"/><line x1="277.0" y1="688.0" x2="323.0" y2="688.0" stroke="#d7e3f4" stroke-width="1.8" stroke-opacity="0.85"/><circle cx="285.0" cy="688.0" r="1.9" fill="#7c8798" stroke="#d7e3f4" stroke-width="0.8" stroke-opacity="0.7"/><circle cx="295.0" cy="688.0" r="1.9" fill="#7c8798" stroke="#d7e3f4" stroke-width="0.8" stroke-opacity="0.7"/><circle cx="305.0" cy="688.0" r="1.9" fill="#7c8798" stroke="#d7e3f4" stroke-width="0.8" stroke-opacity="0.7"/><circle cx="315.0" cy="688.0" r="1.9" fill="#7c8798" stroke="#d7e3f4" stroke-width="0.8" stroke-opacity="0.7"/><path d="M1042.0,355.0 L1068.0,355.0 L1068.0,325.0 L1042.0,325.0 Z" fill="url(#metalV)" fill-opacity="0.5" stroke="#d7e3f4" stroke-width="1.6" stroke-opacity="0.85"/><line x1="1068.0" y1="363.0" x2="1068.0" y2="317.0" stroke="#d7e3f4" stroke-width="1.8" stroke-opacity="0.85"/><circle cx="1078.0" cy="340.0" r="1.9" fill="#7c8798" stroke="#d7e3f4" stroke-width="0.8" stroke-opacity="0.7"/><circle cx="1068.0" cy="350.0" r="1.9" fill="#7c8798" stroke="#d7e3f4" stroke-width="0.8" stroke-opacity="0.7"/><circle cx="1058.0" cy="340.0" r="1.9" fill="#7c8798" stroke="#d7e3f4" stroke-width="0.8" stroke-opacity="0.7"/><circle cx="1068.0" cy="330.0" r="1.9" fill="#7c8798" stroke="#d7e3f4" stroke-width="0.8" stroke-opacity="0.7"/><path d="M775.0,74.0 L775.0,48.0 L745.0,48.0 L745.0,74.0 Z" fill="url(#metalV)" fill-opacity="0.5" stroke="#d7e3f4" stroke-width="1.6" stroke-opacity="0.85"/><line x1="783.0" y1="48.0" x2="737.0" y2="48.0" stroke="#d7e3f4" stroke-width="1.8" stroke-opacity="0.85"/><circle cx="745.0" cy="48.0" r="1.9" fill="#7c8798" stroke="#d7e3f4" stroke-width="0.8" stroke-opacity="0.7"/><circle cx="755.0" cy="48.0" r="1.9" fill="#7c8798" stroke="#d7e3f4" stroke-width="0.8" stroke-opacity="0.7"/><circle cx="765.0" cy="48.0" r="1.9" fill="#7c8798" stroke="#d7e3f4" stroke-width="0.8" stroke-opacity="0.7"/><circle cx="775.0" cy="48.0" r="1.9" fill="#7c8798" stroke="#d7e3f4" stroke-width="0.8" stroke-opacity="0.7"/><path d="M139.5,589.5 L121.3,607.7 L142.3,628.7 L160.5,610.5 Z" fill="url(#metalV)" fill-opacity="0.5" stroke="#d7e3f4" stroke-width="1.6" stroke-opacity="0.85"/><line x1="115.7" y1="602.1" x2="147.9" y2="634.3" stroke="#d7e3f4" stroke-width="1.8" stroke-opacity="0.85"/><circle cx="141.8" cy="618.2" r="1.9" fill="#7c8798" stroke="#d7e3f4" stroke-width="0.8" stroke-opacity="0.7"/><circle cx="131.8" cy="628.2" r="1.9" fill="#7c8798" stroke="#d7e3f4" stroke-width="0.8" stroke-opacity="0.7"/><circle cx="121.8" cy="618.2" r="1.9" fill="#7c8798" stroke="#d7e3f4" stroke-width="0.8" stroke-opacity="0.7"/><circle cx="131.8" cy="608.2" r="1.9" fill="#7c8798" stroke="#d7e3f4" stroke-width="0.8" stroke-opacity="0.7"/></g><g><path d="M150.0,250.0 h70.0 v52.0 h-70.0 Z" fill="url(#metalV)" fill-opacity="0.55" stroke="#d7e3f4" stroke-width="1.8" stroke-opacity="0.9"/><path d="M158.0,258.0 h54.0 v36.0 h-54.0 Z" fill="none" stroke="#d7e3f4" stroke-width="1.1" stroke-opacity="0.55" stroke-linecap="round"/><circle cx="211.0" cy="276.0" r="1.8" fill="#7c8798" stroke="#d7e3f4" stroke-width="0.8" stroke-opacity="0.7"/><circle cx="203.4" cy="294.4" r="1.8" fill="#7c8798" stroke="#d7e3f4" stroke-width="0.8" stroke-opacity="0.7"/><circle cx="185.0" cy="302.0" r="1.8" fill="#7c8798" stroke="#d7e3f4" stroke-width="0.8" stroke-opacity="0.7"/><circle cx="166.6" cy="294.4" r="1.8" fill="#7c8798" stroke="#d7e3f4" stroke-width="0.8" stroke-opacity="0.7"/><circle cx="159.0" cy="276.0" r="1.8" fill="#7c8798" stroke="#d7e3f4" stroke-width="0.8" stroke-opacity="0.7"/><circle cx="166.6" cy="257.6" r="1.8" fill="#7c8798" stroke="#d7e3f4" stroke-width="0.8" stroke-opacity="0.7"/><circle cx="185.0" cy="250.0" r="1.8" fill="#7c8798" stroke="#d7e3f4" stroke-width="0.8" stroke-opacity="0.7"/><circle cx="203.4" cy="257.6" r="1.8" fill="#7c8798" stroke="#d7e3f4" stroke-width="0.8" stroke-opacity="0.7"/><path d="M195,300 L215,300 L209.0,314.0 L201.0,314.0 Z" fill="url(#metalV)" fill-opacity="0.7" stroke="#d7e3f4" stroke-width="1.6" stroke-opacity="0.9"/><circle cx="205.0" cy="314.0" r="1.4" fill="#c9d6ea" fill-opacity="0.40"/><circle cx="209.5" cy="329.0" r="1.5" fill="#c9d6ea" fill-opacity="0.45"/><circle cx="214.0" cy="344.0" r="1.7" fill="#c9d6ea" fill-opacity="0.50"/><circle cx="218.5" cy="359.0" r="1.8" fill="#c9d6ea" fill-opacity="0.55"/><circle cx="223.0" cy="374.0" r="2.0" fill="#c9d6ea" fill-opacity="0.60"/><circle cx="227.5" cy="389.0" r="2.1" fill="#c9d6ea" fill-opacity="0.65"/><circle cx="232.0" cy="404.0" r="2.2" fill="#c9d6ea" fill-opacity="0.70"/><circle cx="236.5" cy="419.0" r="2.4" fill="#c9d6ea" fill-opacity="0.75"/><circle cx="241.0" cy="434.0" r="2.5" fill="#c9d6ea" fill-opacity="0.80"/><circle cx="245.5" cy="449.0" r="2.7" fill="#c9d6ea" fill-opacity="0.85"/><circle cx="250.0" cy="464.0" r="2.8" fill="#c9d6ea" fill-opacity="0.90"/><path d="M232,560 L268,560 L262,600 L238,600 Z" fill="url(#graphite)" fill-opacity="0.85" stroke="#d7e3f4" stroke-width="1.4" stroke-opacity="0.8"/><path d="M234,568 L266,568" fill="none" stroke="#d7e3f4" stroke-width="1.1" stroke-opacity="0.55" stroke-linecap="round"/><path d="M240,576 L260,576" fill="none" stroke="#d7e3f4" stroke-width="0.6" stroke-opacity="0.3"/><path d="M241,584 L259,584" fill="none" stroke="#d7e3f4" stroke-width="0.6" stroke-opacity="0.3"/></g><g><path d="M470.0,470.0 L256.0,470.0" fill="none" stroke="#ff5d73" stroke-width="11" stroke-opacity="0.10" stroke-linecap="round"/><path d="M470.0,470.0 L256.0,470.0" fill="none" stroke="#ff5d73" stroke-width="5" stroke-opacity="0.25" stroke-linecap="round"/><path d="M470.0,470.0 L256.0,470.0" fill="none" stroke="#ff8a98" stroke-width="1.6" stroke-opacity="0.9" stroke-linecap="round"/><path d="M470.0,452.0 h34.0 v36.0 h-34.0 Z" fill="url(#metalV)" fill-opacity="0.6" stroke="#d7e3f4" stroke-width="1.6" stroke-opacity="0.9"/><path d="M470,458 Q456,470 470,482 Z" fill="url(#quartz)" fill-opacity="0.6" stroke="#d7e3f4" stroke-width="1.2" stroke-opacity="0.7"/><circle cx="476.0" cy="448.0" r="1.7" fill="#7c8798" stroke="#d7e3f4" stroke-width="0.8" stroke-opacity="0.7"/><circle cx="484.0" cy="448.0" r="1.7" fill="#7c8798" stroke="#d7e3f4" stroke-width="0.8" stroke-opacity="0.7"/><circle cx="492.0" cy="448.0" r="1.7" fill="#7c8798" stroke="#d7e3f4" stroke-width="0.8" stroke-opacity="0.7"/><circle cx="500.0" cy="448.0" r="1.7" fill="#7c8798" stroke="#d7e3f4" stroke-width="0.8" stroke-opacity="0.7"/></g><circle cx="250" cy="470" r="46" fill="url(#plasma)"/><circle cx="250" cy="470" r="9" fill="#e9dcff" fill-opacity="0.95"/><path d="M261,470L270,470M260,476L273,484M256,480L260,487M250,481L250,497M244,480L240,487M240,476L227,484M239,470L230,470M240,464L227,456M244,460L240,453M250,459L250,443M256,460L260,453M260,464L273,456" fill="none" stroke="#c9b0ff" stroke-width="1" stroke-opacity="0.55"/><g><path d="M219.0,357.3 L226.1,364.0 L232.8,371.2 L239.1,378.8 L244.8,386.7 L249.9,395.1 L254.6,403.7 L258.6,412.7 L262.1,421.8 L264.9,431.2 L267.1,440.8 L268.7,450.4 L269.7,460.2 L270.0,470.0 L269.7,479.8 L268.7,489.6 L267.1,499.2 L264.9,508.8 L262.1,518.2 L258.6,527.3 L254.6,536.3 L249.9,544.9 L244.8,553.3 L239.1,561.2 L232.8,568.8 L226.1,576.0 L219.0,582.7" fill="none" stroke="#d7e3f4" stroke-width="2" stroke-opacity="0.92" stroke-linecap="round" stroke-linejoin="round"/><path d="M222.3,353.6 L229.7,360.5 L236.6,367.9 L243.0,375.7 L248.9,384.0 L254.3,392.6 L259.0,401.5 L263.2,410.7 L266.8,420.2 L269.7,429.9 L272.0,439.8 L273.7,449.8 L274.7,459.9 L275.0,470.0 L274.7,480.1 L273.7,490.2 L272.0,500.2 L269.7,510.1 L266.8,519.8 L263.2,529.3 L259.0,538.5 L254.3,547.4 L248.9,556.0 L243.0,564.3 L236.6,572.1 L229.7,579.5 L222.3,586.4" fill="none" stroke="#d7e3f4" stroke-width="1.0" stroke-opacity="0.5" stroke-linecap="round"/><path d="M219.0,357.3L222.3,353.6M244.8,386.7L248.9,384.0M262.1,421.8L266.8,420.2M269.7,460.2L274.7,459.9M267.1,499.2L272.0,500.2M254.6,536.3L259.0,538.5M232.8,568.8L236.6,572.1" fill="none" stroke="#d7e3f4" stroke-width="0.6" stroke-opacity="0.3"/><path d="M225.6,349.8 L235.4,359.2 L244.4,369.4 L252.5,380.3 L259.6,391.9 L265.8,404.0 L270.8,416.6 L274.8,429.6 L277.7,442.9 L279.4,456.4 L280.0,470.0 L279.4,483.6 L277.7,497.1 L274.8,510.4 L270.8,523.4 L265.8,536.0 L259.6,548.1 L252.5,559.7 L244.4,570.6 L235.4,580.8 L225.6,590.2" fill="none" stroke="#d7e3f4" stroke-width="2" stroke-opacity="0.92" stroke-linecap="round" stroke-linejoin="round"/><path d="M225.6,349.8 L235.4,359.2 L244.4,369.4 L252.5,380.3 L259.6,391.9 L265.8,404.0 L270.8,416.6 L274.8,429.6 L277.7,442.9 L279.4,456.4 L280.0,470.0 L279.4,483.6 L277.7,497.1 L274.8,510.4 L270.8,523.4 L265.8,536.0 L259.6,548.1 L252.5,559.7 L244.4,570.6 L235.4,580.8 L225.6,590.2" fill="none" stroke="#d7e3f4" stroke-width="1.0" stroke-opacity="0.5" stroke-linecap="round"/><path d="M225.6,349.8L225.6,349.8M259.6,391.9L259.6,391.9M277.7,442.9L277.7,442.9M277.7,497.1L277.7,497.1M259.6,548.1L259.6,548.1M225.6,590.2L225.6,590.2" fill="none" stroke="#d7e3f4" stroke-width="0.6" stroke-opacity="0.3"/><path d="M110.0,350.0 L80.0,380.0" fill="none" stroke="#d7e3f4" stroke-width="1.1" stroke-opacity="0.55" stroke-linecap="round"/><path d="M110.0,590.0 L80.0,560.0" fill="none" stroke="#d7e3f4" stroke-width="1.1" stroke-opacity="0.55" stroke-linecap="round"/><path d="M80.0,380.0 L80.0,560.0" fill="none" stroke="#d7e3f4" stroke-width="1.1" stroke-opacity="0.55" stroke-linecap="round"/><circle cx="268.0" cy="470.0" r="10.0" fill="none" stroke="#d7e3f4" stroke-width="1.4" stroke-opacity="0.7"/></g><g><path d="M330.0,385.0 L356.0,409.0 L356.0,421.0 L330.0,445.0 Z" fill="url(#metalV)" fill-opacity="0.7" stroke="#d7e3f4" stroke-width="1.6" stroke-opacity="0.9"/><path d="M390.0,385.0 L364.0,409.0 L364.0,421.0 L390.0,445.0 Z" fill="url(#metalV)" fill-opacity="0.7" stroke="#d7e3f4" stroke-width="1.6" stroke-opacity="0.9"/><path d="M343,397L356,410M330,389L356,415M330,394L356,420M330,399L354,423M330,404L351,425M330,409L349,428M330,414L346,430M330,419L344,433M330,424L341,435M330,429L338,437M330,434L336,440M330,439L333,442M330,444L331,445" fill="none" stroke="#9fb0c8" stroke-width="0.6" stroke-opacity="0.33"/><path d="M387,387L390,390M385,390L390,395M382,392L390,400M380,395L390,405M377,397L390,410M374,399L390,415M372,402L390,420M369,404L390,425M367,407L390,430M364,414L390,440M364,419L390,445" fill="none" stroke="#9fb0c8" stroke-width="0.6" stroke-opacity="0.33"/></g><g><path d="M337.8,308.9 L333.3,311.6 L328.6,313.9 L323.7,315.9 L318.7,317.4 L313.6,318.7 L308.4,319.5 L303.2,319.9 L298.0,320.0 L292.7,319.6 L287.5,318.9 L282.4,317.8 L277.4,316.2 L272.5,314.4 L267.7,312.1 L263.2,309.5 L258.8,306.6" fill="none" stroke="#d7e3f4" stroke-width="2" stroke-opacity="0.92" stroke-linecap="round" stroke-linejoin="round"/><path d="M339.7,311.8 L335.0,314.6 L330.0,317.1 L324.9,319.1 L319.7,320.8 L314.3,322.1 L308.9,323.0 L303.4,323.4 L297.9,323.5 L292.4,323.1 L286.9,322.3 L281.5,321.1 L276.2,319.6 L271.1,317.6 L266.1,315.2 L261.3,312.5 L256.7,309.4" fill="none" stroke="#d7e3f4" stroke-width="1.0" stroke-opacity="0.5" stroke-linecap="round"/><path d="M337.8,308.9L339.7,311.8M318.7,317.4L319.7,320.8M298.0,320.0L297.9,323.5M277.4,316.2L276.2,319.6M258.8,306.6L256.7,309.4" fill="none" stroke="#d7e3f4" stroke-width="0.6" stroke-opacity="0.3"/><path d="M298.0,320.0 L296.8,360.0" fill="none" stroke="#d7e3f4" stroke-width="1.1" stroke-opacity="0.55" stroke-linecap="round"/><path d="M287.8,351.0 h18.0 v18.0 h-18.0 Z" fill="url(#metalV)" fill-opacity="0.55" stroke="#d7e3f4" stroke-width="1.3" stroke-opacity="0.8"/><circle cx="302.8" cy="360.0" r="1.5" fill="#7c8798" stroke="#d7e3f4" stroke-width="0.8" stroke-opacity="0.7"/><circle cx="296.8" cy="366.0" r="1.5" fill="#7c8798" stroke="#d7e3f4" stroke-width="0.8" stroke-opacity="0.7"/><circle cx="290.8" cy="360.0" r="1.5" fill="#7c8798" stroke="#d7e3f4" stroke-width="0.8" stroke-opacity="0.7"/><circle cx="296.8" cy="354.0" r="1.5" fill="#7c8798" stroke="#d7e3f4" stroke-width="0.8" stroke-opacity="0.7"/><path d="M468.1,214.0 L462.9,213.6 L457.8,212.8 L452.7,211.6 L447.8,210.0 L443.0,208.0 L438.4,205.6 L434.0,202.9 L429.8,199.8 L425.9,196.4 L422.3,192.6 L419.0,188.6 L416.0,184.4 L413.4,179.9 L411.2,175.2 L409.3,170.3 L407.9,165.3" fill="none" stroke="#d7e3f4" stroke-width="2" stroke-opacity="0.92" stroke-linecap="round" stroke-linejoin="round"/><path d="M468.0,217.5 L462.6,217.1 L457.1,216.3 L451.8,215.0 L446.6,213.3 L441.5,211.2 L436.7,208.7 L432.0,205.8 L427.6,202.5 L423.5,198.9 L419.7,195.0 L416.2,190.7 L413.0,186.2 L410.3,181.5 L407.9,176.5 L406.0,171.4 L404.5,166.1" fill="none" stroke="#d7e3f4" stroke-width="1.0" stroke-opacity="0.5" stroke-linecap="round"/><path d="M468.1,214.0L468.0,217.5M447.8,210.0L446.6,213.3M429.8,199.8L427.6,202.5M416.0,184.4L413.0,186.2M407.9,165.3L404.5,166.1" fill="none" stroke="#d7e3f4" stroke-width="0.6" stroke-opacity="0.3"/><path d="M429.8,199.8 L404.7,230.9" fill="none" stroke="#d7e3f4" stroke-width="1.1" stroke-opacity="0.55" stroke-linecap="round"/><path d="M395.7,221.9 h18.0 v18.0 h-18.0 Z" fill="url(#metalV)" fill-opacity="0.55" stroke="#d7e3f4" stroke-width="1.3" stroke-opacity="0.8"/><circle cx="410.7" cy="230.9" r="1.5" fill="#7c8798" stroke="#d7e3f4" stroke-width="0.8" stroke-opacity="0.7"/><circle cx="404.7" cy="236.9" r="1.5" fill="#7c8798" stroke="#d7e3f4" stroke-width="0.8" stroke-opacity="0.7"/><circle cx="398.7" cy="230.9" r="1.5" fill="#7c8798" stroke="#d7e3f4" stroke-width="0.8" stroke-opacity="0.7"/><circle cx="404.7" cy="224.9" r="1.5" fill="#7c8798" stroke="#d7e3f4" stroke-width="0.8" stroke-opacity="0.7"/><path d="M412.7,91.2 L415.0,95.9 L416.9,100.8 L418.3,105.9 L419.3,111.0 L419.9,116.3 L420.0,121.5 L419.6,126.7 L418.8,131.9 L417.5,137.0 L415.8,142.0 L413.7,146.8 L411.2,151.4 L408.2,155.7 L404.9,159.8 L401.3,163.6 L397.3,167.0" fill="none" stroke="#d7e3f4" stroke-width="2" stroke-opacity="0.92" stroke-linecap="round" stroke-linejoin="round"/><path d="M415.7,89.6 L418.2,94.5 L420.2,99.7 L421.7,105.1 L422.8,110.5 L423.4,116.0 L423.5,121.6 L423.1,127.1 L422.2,132.6 L420.9,138.0 L419.1,143.3 L416.8,148.3 L414.1,153.2 L411.0,157.8 L407.5,162.1 L403.7,166.1 L399.5,169.7" fill="none" stroke="#d7e3f4" stroke-width="1.0" stroke-opacity="0.5" stroke-linecap="round"/><path d="M412.7,91.2L415.7,89.6M419.3,111.0L422.8,110.5M418.8,131.9L422.2,132.6M411.2,151.4L414.1,153.2M397.3,167.0L399.5,169.7" fill="none" stroke="#d7e3f4" stroke-width="0.6" stroke-opacity="0.3"/><path d="M418.8,131.9 L458.0,139.9" fill="none" stroke="#d7e3f4" stroke-width="1.1" stroke-opacity="0.55" stroke-linecap="round"/><path d="M449.0,130.9 h18.0 v18.0 h-18.0 Z" fill="url(#metalV)" fill-opacity="0.55" stroke="#d7e3f4" stroke-width="1.3" stroke-opacity="0.8"/><circle cx="464.0" cy="139.9" r="1.5" fill="#7c8798" stroke="#d7e3f4" stroke-width="0.8" stroke-opacity="0.7"/><circle cx="458.0" cy="145.9" r="1.5" fill="#7c8798" stroke="#d7e3f4" stroke-width="0.8" stroke-opacity="0.7"/><circle cx="452.0" cy="139.9" r="1.5" fill="#7c8798" stroke="#d7e3f4" stroke-width="0.8" stroke-opacity="0.7"/><circle cx="458.0" cy="133.9" r="1.5" fill="#7c8798" stroke="#d7e3f4" stroke-width="0.8" stroke-opacity="0.7"/><path d="M521.2,258.4 L516.3,254.5 L511.9,250.2 L507.9,245.5 L504.3,240.4 L501.2,235.1 L498.7,229.4 L496.7,223.6 L495.2,217.6 L494.3,211.4 L494.0,205.3 L494.3,199.1 L495.1,193.0 L496.5,186.9 L498.5,181.1 L501.0,175.4 L504.0,170.0" fill="none" stroke="#d7e3f4" stroke-width="2" stroke-opacity="0.92" stroke-linecap="round" stroke-linejoin="round"/><path d="M519.1,261.2 L514.0,257.1 L509.3,252.6 L505.1,247.6 L501.4,242.3 L498.1,236.7 L495.4,230.7 L493.3,224.6 L491.8,218.2 L490.8,211.8 L490.5,205.3 L490.8,198.8 L491.7,192.3 L493.2,186.0 L495.2,179.8 L497.9,173.9 L501.1,168.2" fill="none" stroke="#d7e3f4" stroke-width="1.0" stroke-opacity="0.5" stroke-linecap="round"/><path d="M521.2,258.4L519.1,261.2M504.3,240.4L501.4,242.3M495.2,217.6L491.8,218.2M495.1,193.0L491.7,192.3M504.0,170.0L501.1,168.2" fill="none" stroke="#d7e3f4" stroke-width="0.6" stroke-opacity="0.3"/><path d="M495.2,217.6 L455.9,225.2" fill="none" stroke="#d7e3f4" stroke-width="1.1" stroke-opacity="0.55" stroke-linecap="round"/><path d="M446.9,216.2 h18.0 v18.0 h-18.0 Z" fill="url(#metalV)" fill-opacity="0.55" stroke="#d7e3f4" stroke-width="1.3" stroke-opacity="0.8"/><circle cx="461.9" cy="225.2" r="1.5" fill="#7c8798" stroke="#d7e3f4" stroke-width="0.8" stroke-opacity="0.7"/><circle cx="455.9" cy="231.2" r="1.5" fill="#7c8798" stroke="#d7e3f4" stroke-width="0.8" stroke-opacity="0.7"/><circle cx="449.9" cy="225.2" r="1.5" fill="#7c8798" stroke="#d7e3f4" stroke-width="0.8" stroke-opacity="0.7"/><circle cx="455.9" cy="219.2" r="1.5" fill="#7c8798" stroke="#d7e3f4" stroke-width="0.8" stroke-opacity="0.7"/></g><g><path d="M560.0,70.0 h190.0 v26.0 h-190.0 Z" fill="url(#metalV)" fill-opacity="0.6" stroke="#d7e3f4" stroke-width="1.8" stroke-opacity="0.9"/><path d="M566.0,74.0 h178.0 v10.0 h-178.0 Z" fill="none" stroke="#d7e3f4" stroke-width="1.1" stroke-opacity="0.55" stroke-linecap="round"/><path d="M574,74L574,96M594,74L594,96M614,74L614,96M634,74L634,96M654,74L654,96M674,74L674,96M694,74L694,96M714,74L714,96M734,74L734,96" fill="none" stroke="#d7e3f4" stroke-width="0.6" stroke-opacity="0.3"/><path d="M590.0,96.0 h132.0 v12.0 h-132.0 Z" fill="url(#quartz)" fill-opacity="0.75" stroke="#d7e3f4" stroke-width="1.6" stroke-opacity="0.9"/><path d="M596,102 L716,102" fill="none" stroke="#d7e3f4" stroke-width="1.1" stroke-opacity="0.55" stroke-linecap="round"/><path d="M598,108L598,112.5M606,108L606,112.5M614,108L614,112.5M622,108L622,112.5M630,108L630,112.5M638,108L638,112.5M646,108L646,112.5M654,108L654,112.5M662,108L662,112.5M670,108L670,112.5M678,108L678,112.5M686,108L686,112.5M694,108L694,112.5M702,108L702,112.5M710,108L710,112.5M718,108L718,112.5" fill="none" stroke="#d7e3f4" stroke-width="1.0" stroke-opacity="0.6" stroke-linecap="round" stroke-linejoin="round"/><path d="M600.0,116.0 h112.0 v3.5 h-112.0 Z" fill="#b6c6de" fill-opacity="0.5" stroke="#d7e3f4" stroke-width="1.0" stroke-opacity="0.6"/><path d="M600,116 L600,108" fill="none" stroke="#d7e3f4" stroke-width="0.6" stroke-opacity="0.3"/><path d="M712,116 L712,108" fill="none" stroke="#d7e3f4" stroke-width="0.6" stroke-opacity="0.3"/><line x1="600.0" y1="58.0" x2="566.0" y2="58.0" stroke="#d7e3f4" stroke-width="1.6" stroke-opacity="0.7"/><path d="M566.0,58.0 l7.0,-4 M566.0,58.0 l7.0,4" fill="none" stroke="#d7e3f4" stroke-width="1.6" stroke-opacity="0.7" stroke-linecap="round" stroke-linejoin="round"/><line x1="712.0" y1="58.0" x2="746.0" y2="58.0" stroke="#d7e3f4" stroke-width="1.6" stroke-opacity="0.7"/><path d="M746.0,58.0 l-7.0,-4 M746.0,58.0 l-7.0,4" fill="none" stroke="#d7e3f4" stroke-width="1.6" stroke-opacity="0.7" stroke-linecap="round" stroke-linejoin="round"/><path d="M548.0,66.0 h12.0 v34.0 h-12.0 Z" fill="url(#metalV)" fill-opacity="0.55" stroke="#d7e3f4" stroke-width="1.4" stroke-opacity="0.8"/><path d="M750.0,66.0 h12.0 v34.0 h-12.0 Z" fill="url(#metalV)" fill-opacity="0.55" stroke="#d7e3f4" stroke-width="1.4" stroke-opacity="0.8"/><circle cx="551.0" cy="72.0" r="2.2" fill="#7c8798" stroke="#d7e3f4" stroke-width="0.8" stroke-opacity="0.7"/><circle cx="551.0" cy="84.0" r="2.2" fill="#7c8798" stroke="#d7e3f4" stroke-width="0.8" stroke-opacity="0.7"/><circle cx="551.0" cy="96.0" r="2.2" fill="#7c8798" stroke="#d7e3f4" stroke-width="0.8" stroke-opacity="0.7"/></g><g><path d="M720.0,150.0 L1000.0,180.0 L1010.0,560.0 L760.0,600.0 L700.0,430.0 L700.0,240.0 Z" fill="url(#pobFill)" fill-opacity="0.25" stroke="#d7e3f4" stroke-width="2" stroke-opacity="0.85"/><path d="M700,300 L1006,320" fill="none" stroke="#d7e3f4" stroke-width="0.6" stroke-opacity="0.3"/><path d="M700,430 L1010,450" fill="none" stroke="#d7e3f4" stroke-width="0.6" stroke-opacity="0.3"/><path d="M860,155 L840,595" fill="none" stroke="#d7e3f4" stroke-width="0.6" stroke-opacity="0.3"/><path d="M889.8,389.8 L882.4,378.9 L876.0,367.5 L870.6,355.5 L866.3,343.1 L863.1,330.4 L861.0,317.4 L860.1,304.4 L860.3,291.2 L861.6,278.2 L864.1,265.3 L867.7,252.7 L872.3,240.4 L878.1,228.6 L884.8,217.4 L892.5,206.7 L901.1,196.8" fill="none" stroke="#d7e3f4" stroke-width="2" stroke-opacity="0.92" stroke-linecap="round" stroke-linejoin="round"/><path d="M887.4,391.6 L879.9,380.5 L873.4,368.8 L867.9,356.6 L863.5,344.0 L860.2,331.0 L858.0,317.8 L857.1,304.5 L857.3,291.1 L858.6,277.8 L861.1,264.6 L864.8,251.7 L869.6,239.2 L875.4,227.2 L882.3,215.7 L890.2,204.9 L898.9,194.8" fill="none" stroke="#d7e3f4" stroke-width="1.0" stroke-opacity="0.5" stroke-linecap="round"/><path d="M889.8,389.8L887.4,391.6M866.3,343.1L863.5,344.0M860.3,291.2L857.3,291.1M872.3,240.4L869.6,239.2M901.1,196.8L898.9,194.8" fill="none" stroke="#d7e3f4" stroke-width="0.6" stroke-opacity="0.3"/><path d="M827.9,281.6 L833.8,292.2 L838.9,303.3 L843.0,314.8 L846.2,326.5 L848.5,338.5 L849.7,350.6 L850.0,362.8 L849.3,375.0 L847.5,387.0 L844.9,398.9 L841.2,410.6 L836.7,421.8 L831.2,432.7 L824.8,443.1 L817.7,453.0 L809.8,462.2" fill="none" stroke="#d7e3f4" stroke-width="2" stroke-opacity="0.92" stroke-linecap="round" stroke-linejoin="round"/><path d="M830.4,280.0 L836.5,290.9 L841.7,302.2 L845.9,313.9 L849.1,325.9 L851.4,338.1 L852.7,350.4 L853.0,362.9 L852.2,375.3 L850.5,387.6 L847.8,399.7 L844.0,411.6 L839.4,423.1 L833.8,434.2 L827.3,444.8 L820.0,454.9 L811.9,464.3" fill="none" stroke="#d7e3f4" stroke-width="1.0" stroke-opacity="0.5" stroke-linecap="round"/><path d="M827.9,281.6L830.4,280.0M846.2,326.5L849.1,325.9M849.3,375.0L852.2,375.3M836.7,421.8L839.4,423.1M809.8,462.2L811.9,464.3" fill="none" stroke="#d7e3f4" stroke-width="0.6" stroke-opacity="0.3"/><path d="M903.9,541.8 L897.2,531.9 L891.5,521.3 L886.9,510.2 L883.5,498.7 L881.2,486.9 L880.1,475.0 L880.2,463.0 L881.5,451.1 L884.0,439.3 L887.6,427.9 L892.4,416.9 L898.2,406.4 L905.1,396.6 L912.9,387.5" fill="none" stroke="#d7e3f4" stroke-width="2" stroke-opacity="0.92" stroke-linecap="round" stroke-linejoin="round"/><path d="M901.8,543.4 L894.9,533.2 L889.2,522.4 L884.5,511.1 L881.0,499.3 L878.6,487.3 L877.5,475.1 L877.6,462.8 L878.9,450.7 L881.5,438.7 L885.2,427.0 L890.1,415.7 L896.0,405.0 L903.0,395.0 L911.0,385.7" fill="none" stroke="#d7e3f4" stroke-width="1.0" stroke-opacity="0.5" stroke-linecap="round"/><path d="M903.9,541.8L901.8,543.4M883.5,498.7L881.0,499.3M881.5,451.1L878.9,450.7M898.2,406.4L896.0,405.0" fill="none" stroke="#d7e3f4" stroke-width="0.6" stroke-opacity="0.3"/><path d="M843.3,495.0 L847.7,503.2 L851.3,511.9 L853.8,520.8 L855.4,530.0 L856.0,539.3 L855.6,548.6 L854.1,557.8 L851.7,566.8 L848.3,575.5 L844.1,583.7 L838.9,591.5 L832.9,598.6" fill="none" stroke="#d7e3f4" stroke-width="2" stroke-opacity="0.92" stroke-linecap="round" stroke-linejoin="round"/><path d="M845.2,493.9 L849.7,502.3 L853.3,511.1 L856.0,520.3 L857.6,529.7 L858.2,539.3 L857.8,548.8 L856.3,558.2 L853.8,567.5 L850.4,576.4 L846.0,584.8 L840.7,592.8 L834.5,600.1" fill="none" stroke="#d7e3f4" stroke-width="1.0" stroke-opacity="0.5" stroke-linecap="round"/><path d="M843.3,495.0L845.2,493.9M855.4,530.0L857.6,529.7M851.7,566.8L853.8,567.5M832.9,598.6L834.5,600.1" fill="none" stroke="#d7e3f4" stroke-width="0.6" stroke-opacity="0.3"/><path d="M992.0,292.0 h16.0 v16.0 h-16.0 Z" fill="url(#metalV)" fill-opacity="0.5" stroke="#d7e3f4" stroke-width="1.2" stroke-opacity="0.75"/><circle cx="1006.0" cy="300.0" r="1.4" fill="#7c8798" stroke="#d7e3f4" stroke-width="0.8" stroke-opacity="0.7"/><circle cx="1000.0" cy="306.0" r="1.4" fill="#7c8798" stroke="#d7e3f4" stroke-width="0.8" stroke-opacity="0.7"/><circle cx="994.0" cy="300.0" r="1.4" fill="#7c8798" stroke="#d7e3f4" stroke-width="0.8" stroke-opacity="0.7"/><circle cx="1000.0" cy="294.0" r="1.4" fill="#7c8798" stroke="#d7e3f4" stroke-width="0.8" stroke-opacity="0.7"/><path d="M712.0,352.0 h16.0 v16.0 h-16.0 Z" fill="url(#metalV)" fill-opacity="0.5" stroke="#d7e3f4" stroke-width="1.2" stroke-opacity="0.75"/><circle cx="726.0" cy="360.0" r="1.4" fill="#7c8798" stroke="#d7e3f4" stroke-width="0.8" stroke-opacity="0.7"/><circle cx="720.0" cy="366.0" r="1.4" fill="#7c8798" stroke="#d7e3f4" stroke-width="0.8" stroke-opacity="0.7"/><circle cx="714.0" cy="360.0" r="1.4" fill="#7c8798" stroke="#d7e3f4" stroke-width="0.8" stroke-opacity="0.7"/><circle cx="720.0" cy="354.0" r="1.4" fill="#7c8798" stroke="#d7e3f4" stroke-width="0.8" stroke-opacity="0.7"/><path d="M982.0,462.0 h16.0 v16.0 h-16.0 Z" fill="url(#metalV)" fill-opacity="0.5" stroke="#d7e3f4" stroke-width="1.2" stroke-opacity="0.75"/><circle cx="996.0" cy="470.0" r="1.4" fill="#7c8798" stroke="#d7e3f4" stroke-width="0.8" stroke-opacity="0.7"/><circle cx="990.0" cy="476.0" r="1.4" fill="#7c8798" stroke="#d7e3f4" stroke-width="0.8" stroke-opacity="0.7"/><circle cx="984.0" cy="470.0" r="1.4" fill="#7c8798" stroke="#d7e3f4" stroke-width="0.8" stroke-opacity="0.7"/><circle cx="990.0" cy="464.0" r="1.4" fill="#7c8798" stroke="#d7e3f4" stroke-width="0.8" stroke-opacity="0.7"/><path d="M780.0,532.0 h16.0 v16.0 h-16.0 Z" fill="url(#metalV)" fill-opacity="0.5" stroke="#d7e3f4" stroke-width="1.2" stroke-opacity="0.75"/><circle cx="794.0" cy="540.0" r="1.4" fill="#7c8798" stroke="#d7e3f4" stroke-width="0.8" stroke-opacity="0.7"/><circle cx="788.0" cy="546.0" r="1.4" fill="#7c8798" stroke="#d7e3f4" stroke-width="0.8" stroke-opacity="0.7"/><circle cx="782.0" cy="540.0" r="1.4" fill="#7c8798" stroke="#d7e3f4" stroke-width="0.8" stroke-opacity="0.7"/><circle cx="788.0" cy="534.0" r="1.4" fill="#7c8798" stroke="#d7e3f4" stroke-width="0.8" stroke-opacity="0.7"/><circle cx="730.0" cy="158.0" r="1.9" fill="#7c8798" stroke="#d7e3f4" stroke-width="0.8" stroke-opacity="0.7"/><circle cx="756.0" cy="158.0" r="1.9" fill="#7c8798" stroke="#d7e3f4" stroke-width="0.8" stroke-opacity="0.7"/><circle cx="782.0" cy="158.0" r="1.9" fill="#7c8798" stroke="#d7e3f4" stroke-width="0.8" stroke-opacity="0.7"/><circle cx="808.0" cy="158.0" r="1.9" fill="#7c8798" stroke="#d7e3f4" stroke-width="0.8" stroke-opacity="0.7"/><circle cx="834.0" cy="158.0" r="1.9" fill="#7c8798" stroke="#d7e3f4" stroke-width="0.8" stroke-opacity="0.7"/><circle cx="860.0" cy="158.0" r="1.9" fill="#7c8798" stroke="#d7e3f4" stroke-width="0.8" stroke-opacity="0.7"/><circle cx="886.0" cy="158.0" r="1.9" fill="#7c8798" stroke="#d7e3f4" stroke-width="0.8" stroke-opacity="0.7"/><circle cx="912.0" cy="158.0" r="1.9" fill="#7c8798" stroke="#d7e3f4" stroke-width="0.8" stroke-opacity="0.7"/><circle cx="938.0" cy="158.0" r="1.9" fill="#7c8798" stroke="#d7e3f4" stroke-width="0.8" stroke-opacity="0.7"/><circle cx="964.0" cy="158.0" r="1.9" fill="#7c8798" stroke="#d7e3f4" stroke-width="0.8" stroke-opacity="0.7"/></g><g><path d="M770.0,632.0 h240.0 v34.0 h-240.0 Z" fill="url(#graphite)" fill-opacity="0.9" stroke="#d7e3f4" stroke-width="1.8" stroke-opacity="0.9"/><path d="M776.0,637.0 h228.0 v10.0 h-228.0 Z" fill="none" stroke="#d7e3f4" stroke-width="1.1" stroke-opacity="0.55" stroke-linecap="round"/><path d="M1004,648L1010,654M998,648L1010,660M992,648L1010,666M986,648L1004,666M980,648L998,666M974,648L992,666M968,648L986,666M962,648L980,666M956,648L974,666M950,648L968,666M944,648L962,666M938,648L956,666M932,648L950,666M926,648L944,666M920,648L938,666M914,648L932,666M908,648L926,666M902,648L920,666M896,648L914,666M890,648L908,666M884,648L902,666M878,648L896,666M872,648L890,666M866,648L884,666M860,648L878,666M854,648L872,666M848,648L866,666M842,648L860,666M836,648L854,666M830,648L848,666M824,648L842,666M818,648L836,666M812,648L830,666M806,648L824,666M800,648L818,666M794,648L812,666M788,648L806,666M782,648L800,666M776,648L794,666M770,654L782,666M770,660L776,666" fill="none" stroke="#9fb0c8" stroke-width="0.6" stroke-opacity="0.3"/><line x1="772.0" y1="628.0" x2="1008.0" y2="628.0" stroke="#d7e3f4" stroke-width="1.4" stroke-opacity="0.6"/><line x1="772.0" y1="624.0" x2="1008.0" y2="624.0" stroke="#d7e3f4" stroke-width="1.4" stroke-opacity="0.6"/><path d="M776,624L776,632M787,624L787,632M798,624L798,632M809,624L809,632M820,624L820,632M831,624L831,632M842,624L842,632M853,624L853,632M864,624L864,632M875,624L875,632M886,624L886,632M897,624L897,632M908,624L908,632M919,624L919,632M930,624L930,632M941,624L941,632M952,624L952,632M963,624L963,632M974,624L974,632M985,624L985,632M996,624L996,632M1007,624L1007,632" fill="none" stroke="#d7e3f4" stroke-width="0.6" stroke-opacity="0.3"/><path d="M840.0,596.0 h86.0 v28.0 h-86.0 Z" fill="url(#metalV)" fill-opacity="0.6" stroke="#d7e3f4" stroke-width="1.8" stroke-opacity="0.9"/><path d="M846.0,600.0 h74.0 v10.0 h-74.0 Z" fill="none" stroke="#d7e3f4" stroke-width="1.1" stroke-opacity="0.55" stroke-linecap="round"/><circle cx="913.0" cy="610.0" r="1.6" fill="#7c8798" stroke="#d7e3f4" stroke-width="0.8" stroke-opacity="0.7"/><circle cx="907.3" cy="627.6" r="1.6" fill="#7c8798" stroke="#d7e3f4" stroke-width="0.8" stroke-opacity="0.7"/><circle cx="892.3" cy="638.5" r="1.6" fill="#7c8798" stroke="#d7e3f4" stroke-width="0.8" stroke-opacity="0.7"/><circle cx="873.7" cy="638.5" r="1.6" fill="#7c8798" stroke="#d7e3f4" stroke-width="0.8" stroke-opacity="0.7"/><circle cx="858.7" cy="627.6" r="1.6" fill="#7c8798" stroke="#d7e3f4" stroke-width="0.8" stroke-opacity="0.7"/><circle cx="853.0" cy="610.0" r="1.6" fill="#7c8798" stroke="#d7e3f4" stroke-width="0.8" stroke-opacity="0.7"/><circle cx="858.7" cy="592.4" r="1.6" fill="#7c8798" stroke="#d7e3f4" stroke-width="0.8" stroke-opacity="0.7"/><circle cx="873.7" cy="581.5" r="1.6" fill="#7c8798" stroke="#d7e3f4" stroke-width="0.8" stroke-opacity="0.7"/><circle cx="892.3" cy="581.5" r="1.6" fill="#7c8798" stroke="#d7e3f4" stroke-width="0.8" stroke-opacity="0.7"/><circle cx="907.3" cy="592.4" r="1.6" fill="#7c8798" stroke="#d7e3f4" stroke-width="0.8" stroke-opacity="0.7"/><path d="M846,596 L920,596 L912,584 L854,584 Z" fill="url(#wafer)" fill-opacity="0.95" stroke="#d7e3f4" stroke-width="1.4" stroke-opacity="0.85"/><path d="M856,590 L910,590" fill="none" stroke="#d7e3f4" stroke-width="1.1" stroke-opacity="0.55" stroke-linecap="round"/><path d="M883,584 l0,-3" fill="none" stroke="#d7e3f4" stroke-width="0.6" stroke-opacity="0.3"/><ellipse cx="883" cy="590" rx="30" ry="4" fill="none" stroke="#d7e3f4" stroke-width="0.6" stroke-opacity="0.35"/><path d="M928.0,592.0 h12.0 v26.0 h-12.0 Z" fill="url(#metalV)" fill-opacity="0.6" stroke="#d7e3f4" stroke-width="1.3" stroke-opacity="0.8"/><line x1="940.0" y1="598.0" x2="1004.0" y2="598.0" stroke="#9ad0ff" stroke-width="0.8" stroke-opacity="0.55"/><line x1="940.0" y1="604.0" x2="1004.0" y2="604.0" stroke="#9ad0ff" stroke-width="0.8" stroke-opacity="0.55"/><line x1="940.0" y1="610.0" x2="1004.0" y2="610.0" stroke="#9ad0ff" stroke-width="0.8" stroke-opacity="0.55"/><path d="M1004.0,590.0 h8.0 v30.0 h-8.0 Z" fill="url(#metalV)" fill-opacity="0.6" stroke="#d7e3f4" stroke-width="1.3" stroke-opacity="0.8"/><line x1="834.0" y1="596.0" x2="834.0" y2="540.0" stroke="#9ad0ff" stroke-width="0.8" stroke-opacity="0.5"/></g><path d="M250.0,470.0 L360.0,415.0 L298.0,320.0 L429.8,199.8 L418.8,131.9 L495.2,217.6 L656.0,104.0 L1006.0,300.0 L720.0,360.0 L990.0,470.0 L788.0,540.0 L883.0,588.0" fill="none" stroke="#b18cff" stroke-width="9" stroke-opacity="0.10" stroke-linejoin="round"/><path d="M250.0,470.0 L360.0,415.0 L298.0,320.0 L429.8,199.8 L418.8,131.9 L495.2,217.6 L656.0,104.0 L1006.0,300.0 L720.0,360.0 L990.0,470.0 L788.0,540.0 L883.0,588.0" fill="none" stroke="#b18cff" stroke-width="4" stroke-opacity="0.25" stroke-linejoin="round"/><path d="M250.0,470.0 L360.0,415.0 L298.0,320.0 L429.8,199.8 L418.8,131.9 L495.2,217.6 L656.0,104.0 L1006.0,300.0 L720.0,360.0 L990.0,470.0 L788.0,540.0 L883.0,588.0" fill="none" stroke="#cdb4ff" stroke-width="1.5" stroke-opacity="0.9" stroke-linejoin="round"/><circle cx="360.0" cy="415.0" r="3" fill="#e3d6ff" fill-opacity="0.85"/><circle cx="298.0" cy="320.0" r="3" fill="#e3d6ff" fill-opacity="0.85"/><circle cx="429.8" cy="199.8" r="3" fill="#e3d6ff" fill-opacity="0.85"/><circle cx="418.8" cy="131.9" r="3" fill="#e3d6ff" fill-opacity="0.85"/><circle cx="495.2" cy="217.6" r="3" fill="#e3d6ff" fill-opacity="0.85"/><circle cx="656.0" cy="104.0" r="3" fill="#e3d6ff" fill-opacity="0.85"/><circle cx="1006.0" cy="300.0" r="3" fill="#e3d6ff" fill-opacity="0.85"/><circle cx="720.0" cy="360.0" r="3" fill="#e3d6ff" fill-opacity="0.85"/><circle cx="990.0" cy="470.0" r="3" fill="#e3d6ff" fill-opacity="0.85"/><circle cx="788.0" cy="540.0" r="3" fill="#e3d6ff" fill-opacity="0.85"/><path d="M332.5,367.2 L325.9,362.7 L327.3,370.6" fill="none" stroke="#e3d6ff" stroke-width="1.8" stroke-opacity="0.95" stroke-linecap="round" stroke-linejoin="round"/><path d="M823.0,201.1 L831.0,202.0 L826.1,195.7" fill="none" stroke="#e3d6ff" stroke-width="1.8" stroke-opacity="0.95" stroke-linecap="round" stroke-linejoin="round"/><path d="M832.3,565.9 L840.2,566.4 L835.1,560.3" fill="none" stroke="#e3d6ff" stroke-width="1.8" stroke-opacity="0.95" stroke-linecap="round" stroke-linejoin="round"/></svg><circle cx="678.6" cy="429.0" r="2.6" fill="#b18cff" opacity="0.9"/><path d="M 678.6 429.0 L 600 222" stroke="#d7e3f4" stroke-width="0.9" opacity="0.5" fill="none"/><circle cx="909.1" cy="329.0" r="2.6" fill="#b18cff" opacity="0.9"/><path d="M 909.1 329.0 L 920 222" stroke="#d7e3f4" stroke-width="0.9" opacity="0.5" fill="none"/><circle cx="428.7" cy="506.5" r="2.6" fill="#b18cff" opacity="0.9"/><path d="M 428.7 506.5 L 225 432" stroke="#d7e3f4" stroke-width="0.9" opacity="0.5" fill="none"/><circle cx="476.6" cy="633.0" r="2.6" fill="#b18cff" opacity="0.9"/><path d="M 476.6 633.0 L 225 560" stroke="#d7e3f4" stroke-width="0.9" opacity="0.5" fill="none"/><circle cx="393.0" cy="735.0" r="2.6" fill="#b18cff" opacity="0.9"/><path d="M 393.0 735.0 L 225 700" stroke="#d7e3f4" stroke-width="0.9" opacity="0.5" fill="none"/><circle cx="744.9" cy="898.2" r="2.6" fill="#b18cff" opacity="0.9"/><path d="M 744.9 898.2 L 400 798" stroke="#d7e3f4" stroke-width="0.9" opacity="0.5" fill="none"/><circle cx="736.7" cy="712.6" r="2.6" fill="#b18cff" opacity="0.9"/><path d="M 736.7 712.6 L 718 897" stroke="#d7e3f4" stroke-width="0.9" opacity="0.5" fill="none"/><circle cx="607.2" cy="648.3" r="2.6" fill="#b18cff" opacity="0.9"/><path d="M 607.2 648.3 L 776 750" stroke="#d7e3f4" stroke-width="0.9" opacity="0.5" fill="none"/><circle cx="1295.7" cy="531.0" r="2.6" fill="#b18cff" opacity="0.9"/><path d="M 1295.7 531.0 L 1390 390" stroke="#d7e3f4" stroke-width="0.9" opacity="0.5" fill="none"/><circle cx="1147.8" cy="607.5" r="2.6" fill="#b18cff" opacity="0.9"/><path d="M 1147.8 607.5 L 1390 546" stroke="#d7e3f4" stroke-width="0.9" opacity="0.5" fill="none"/><circle cx="1140.7" cy="828.8" r="2.6" fill="#b18cff" opacity="0.9"/><path d="M 1140.7 828.8 L 1390 728" stroke="#d7e3f4" stroke-width="0.9" opacity="0.5" fill="none"/><text x="600" y="212" text-anchor="middle" font-family="'IBM Plex Mono','JetBrains Mono',ui-monospace,Consolas,monospace" font-size="19" font-weight="600" fill="#e8eef7" fill-opacity="0.95">ILLUMINATOR</text><text x="920" y="212" text-anchor="middle" font-family="'IBM Plex Mono','JetBrains Mono',ui-monospace,Consolas,monospace" font-size="19" font-weight="600" fill="#e8eef7" fill-opacity="0.95">RETICLE · SCAN</text><text x="213" y="438" text-anchor="end" font-family="'IBM Plex Mono','JetBrains Mono',ui-monospace,Consolas,monospace" font-size="19" font-weight="600" fill="#e8eef7" fill-opacity="0.95">DROPLET GENERATOR</text><text x="213" y="566" text-anchor="end" font-family="'IBM Plex Mono','JetBrains Mono',ui-monospace,Consolas,monospace" font-size="19" font-weight="600" fill="#e8eef7" fill-opacity="0.95">SN DROPLETS</text><text x="213" y="706" text-anchor="end" font-family="'IBM Plex Mono','JetBrains Mono',ui-monospace,Consolas,monospace" font-size="19" font-weight="600" fill="#e8eef7" fill-opacity="0.95">COLLECTOR MIRROR</text><text x="400" y="788" text-anchor="middle" font-family="'IBM Plex Mono','JetBrains Mono',ui-monospace,Consolas,monospace" font-size="19" font-weight="600" fill="#e8eef7" fill-opacity="0.95">LPP SOURCE</text><text x="718" y="923" text-anchor="middle" font-family="'IBM Plex Mono','JetBrains Mono',ui-monospace,Consolas,monospace" font-size="19" font-weight="600" fill="#e8eef7" fill-opacity="0.95">PRE+MAIN PULSE</text><text x="776" y="776" text-anchor="middle" font-family="'IBM Plex Mono','JetBrains Mono',ui-monospace,Consolas,monospace" font-size="19" font-weight="600" fill="#e8eef7" fill-opacity="0.95">INTERMEDIATE FOCUS</text><text x="1402" y="396" text-anchor="start" font-family="'IBM Plex Mono','JetBrains Mono',ui-monospace,Consolas,monospace" font-size="19" font-weight="600" fill="#e8eef7" fill-opacity="0.95">VACUUM VESSEL</text><text x="1402" y="552" text-anchor="start" font-family="'IBM Plex Mono','JetBrains Mono',ui-monospace,Consolas,monospace" font-size="19" font-weight="600" fill="#e8eef7" fill-opacity="0.95">PROJECTION OPTICS</text><text x="1402" y="734" text-anchor="start" font-family="'IBM Plex Mono','JetBrains Mono',ui-monospace,Consolas,monospace" font-size="19" font-weight="600" fill="#e8eef7" fill-opacity="0.95">WAFER STAGE</text><text x="30" y="1042" font-family="'IBM Plex Mono','JetBrains Mono',ui-monospace,Consolas,monospace" font-size="17" font-weight="500" letter-spacing="0.5" fill="#e8eef7" fill-opacity="0.85">FIG. 5 — A camera without lenses: EUV is absorbed by glass, so mirrors do everything</text></svg>