<svg xmlns="http://www.w3.org/2000/svg" viewBox="0 0 1600 1060" role="img"><svg x="130" y="250" width="1342.0" height="683.2" viewBox="0 0 1100 560"><defs><linearGradient id="gMetal" x1="0" y1="0" x2="0" y2="1"><stop offset="0" stop-color="#c6d0de"/><stop offset=".35" stop-color="#98a2b3"/><stop offset=".7" stop-color="#69717f"/><stop offset="1" stop-color="#474e5b"/></linearGradient><linearGradient id="gSub" x1="0" y1="0" x2="0" y2="1"><stop offset="0" stop-color="#324037"/><stop offset="1" stop-color="#18221c"/></linearGradient><linearGradient id="gInt" x1="0" y1="0" x2="0" y2="1"><stop offset="0" stop-color="#425063"/><stop offset="1" stop-color="#212b39"/></linearGradient><linearGradient id="gGpu" x1="0" y1="0" x2="0" y2="1"><stop offset="0" stop-color="#14313f"/><stop offset="1" stop-color="#0a1820"/></linearGradient><linearGradient id="gHbm" x1="0" y1="0" x2="0" y2="1"><stop offset="0" stop-color="#2c2440"/><stop offset="1" stop-color="#191125"/></linearGradient><linearGradient id="gCu" x1="0" y1="0" x2="0" y2="1"><stop offset="0" stop-color="#f0ab6e"/><stop offset=".5" stop-color="#d97a3c"/><stop offset="1" stop-color="#a1531f"/></linearGradient><radialGradient id="gCuB" cx=".35" cy=".32" r=".75"><stop offset="0" stop-color="#ffd3a0"/><stop offset=".45" stop-color="#dd8340"/><stop offset="1" stop-color="#8f4718"/></radialGradient><linearGradient id="gMold" x1="0" y1="0" x2="0" y2="1"><stop offset="0" stop-color="#59626e"/><stop offset="1" stop-color="#333a44"/></linearGradient><radialGradient id="gCyan" cx=".5" cy=".5" r=".6"><stop offset="0" stop-color="#38e1ff"/><stop offset="1" stop-color="#38e1ff" stop-opacity="0"/></radialGradient><radialGradient id="gViol" cx=".5" cy=".5" r=".6"><stop offset="0" stop-color="#d88cff"/><stop offset="1" stop-color="#d88cff" stop-opacity="0"/></radialGradient><linearGradient id="gTim" x1="0" y1="0" x2="0" y2="1"><stop offset="0" stop-color="#9aa1af"/><stop offset="1" stop-color="#6b7380"/></linearGradient></defs><path d="M520 330 L520 160 Q520 150 530 150 L936 150 Q946 150 946 160 L946 330 Z" fill="url(#gMold)" opacity=".42"/><path d="M520 330 L520 160 Q520 150 530 150 L936 150 Q946 150 946 160 L946 330" fill="none" stroke="#d7e3f4" stroke-width="1" opacity=".28"/><rect x="112" y="398" width="876" height="74" fill="url(#gSub)"/><g stroke="#d7e3f4" stroke-width=".6" opacity=".3"><line x1="113" y1="440" x2="144" y2="471"/><line x1="113" y1="409" x2="175" y2="471"/><line x1="134" y1="399" x2="206" y2="471"/><line x1="165" y1="399" x2="237" y2="471"/><line x1="197" y1="399" x2="269" y2="471"/><line x1="228" y1="399" x2="300" y2="471"/><line x1="259" y1="399" x2="331" y2="471"/><line x1="290" y1="399" x2="362" y2="471"/><line x1="321" y1="399" x2="393" y2="471"/><line x1="352" y1="399" x2="424" y2="471"/><line x1="383" y1="399" x2="455" y2="471"/><line x1="414" y1="399" x2="486" y2="471"/><line x1="445" y1="399" x2="517" y2="471"/><line x1="477" y1="399" x2="549" y2="471"/><line x1="508" y1="399" x2="580" y2="471"/><line x1="539" y1="399" x2="611" y2="471"/><line x1="570" y1="399" x2="642" y2="471"/><line x1="601" y1="399" x2="673" y2="471"/><line x1="632" y1="399" x2="704" y2="471"/><line x1="663" y1="399" x2="735" y2="471"/><line x1="694" y1="399" x2="766" y2="471"/><line x1="725" y1="399" x2="797" y2="471"/><line x1="757" y1="399" x2="829" y2="471"/><line x1="788" y1="399" x2="860" y2="471"/><line x1="819" y1="399" x2="891" y2="471"/><line x1="850" y1="399" x2="922" y2="471"/><line x1="881" y1="399" x2="953" y2="471"/><line x1="912" y1="399" x2="984" y2="471"/><line x1="943" y1="399" x2="987" y2="443"/><line x1="974" y1="399" x2="987" y2="412"/></g><line x1="128" y1="412" x2="972" y2="412" stroke="#d97a3c" stroke-width="1.4" opacity=".5"/><line x1="128" y1="428" x2="972" y2="428" stroke="#d97a3c" stroke-width="1.4" opacity=".5"/><line x1="128" y1="444" x2="972" y2="444" stroke="#d97a3c" stroke-width="1.4" opacity=".5"/><line x1="128" y1="458" x2="972" y2="458" stroke="#d97a3c" stroke-width="1.4" opacity=".5"/><g fill="url(#gCu)" opacity=".85"><rect x="148.4" y="402" width="3.2" height="66"/><rect x="188.4" y="402" width="3.2" height="66"/><rect x="228.4" y="402" width="3.2" height="66"/><rect x="268.4" y="402" width="3.2" height="66"/><rect x="308.4" y="402" width="3.2" height="66"/><rect x="348.4" y="402" width="3.2" height="66"/><rect x="388.4" y="402" width="3.2" height="66"/><rect x="428.4" y="402" width="3.2" height="66"/><rect x="468.4" y="402" width="3.2" height="66"/><rect x="508.4" y="402" width="3.2" height="66"/><rect x="548.4" y="402" width="3.2" height="66"/><rect x="588.4" y="402" width="3.2" height="66"/><rect x="628.4" y="402" width="3.2" height="66"/><rect x="668.4" y="402" width="3.2" height="66"/><rect x="708.4" y="402" width="3.2" height="66"/><rect x="748.4" y="402" width="3.2" height="66"/><rect x="788.4" y="402" width="3.2" height="66"/><rect x="828.4" y="402" width="3.2" height="66"/><rect x="868.4" y="402" width="3.2" height="66"/><rect x="908.4" y="402" width="3.2" height="66"/><rect x="948.4" y="402" width="3.2" height="66"/></g><g stroke="#d7e3f4" stroke-width=".5" opacity=".35"><line x1="150" y1="402" x2="150" y2="468"/><line x1="190" y1="402" x2="190" y2="468"/><line x1="230" y1="402" x2="230" y2="468"/><line x1="270" y1="402" x2="270" y2="468"/><line x1="310" y1="402" x2="310" y2="468"/><line x1="350" y1="402" x2="350" y2="468"/><line x1="390" y1="402" x2="390" y2="468"/><line x1="430" y1="402" x2="430" y2="468"/><line x1="470" y1="402" x2="470" y2="468"/><line x1="510" y1="402" x2="510" y2="468"/><line x1="550" y1="402" x2="550" y2="468"/><line x1="590" y1="402" x2="590" y2="468"/><line x1="630" y1="402" x2="630" y2="468"/><line x1="670" y1="402" x2="670" y2="468"/><line x1="710" y1="402" x2="710" y2="468"/><line x1="750" y1="402" x2="750" y2="468"/><line x1="790" y1="402" x2="790" y2="468"/><line x1="830" y1="402" x2="830" y2="468"/><line x1="870" y1="402" x2="870" y2="468"/><line x1="910" y1="402" x2="910" y2="468"/><line x1="950" y1="402" x2="950" y2="468"/></g><rect x="112" y="395" width="876" height="3" fill="#3a4a3f" opacity=".7"/><g fill="#d97a3c" opacity=".8"><rect x="141" y="395" width="18" height="3"/><rect x="142" y="376" width="16" height="3"/><rect x="188.1" y="395" width="18" height="3"/><rect x="189.1" y="376" width="16" height="3"/><rect x="235.1" y="395" width="18" height="3"/><rect x="236.1" y="376" width="16" height="3"/><rect x="282.2" y="395" width="18" height="3"/><rect x="283.2" y="376" width="16" height="3"/><rect x="329.2" y="395" width="18" height="3"/><rect x="330.2" y="376" width="16" height="3"/><rect x="376.3" y="395" width="18" height="3"/><rect x="377.3" y="376" width="16" height="3"/><rect x="423.4" y="395" width="18" height="3"/><rect x="424.4" y="376" width="16" height="3"/><rect x="470.4" y="395" width="18" height="3"/><rect x="471.4" y="376" width="16" height="3"/><rect x="517.5" y="395" width="18" height="3"/><rect x="518.5" y="376" width="16" height="3"/><rect x="564.5" y="395" width="18" height="3"/><rect x="565.5" y="376" width="16" height="3"/><rect x="611.6" y="395" width="18" height="3"/><rect x="612.6" y="376" width="16" height="3"/><rect x="658.6" y="395" width="18" height="3"/><rect x="659.6" y="376" width="16" height="3"/><rect x="705.7" y="395" width="18" height="3"/><rect x="706.7" y="376" width="16" height="3"/><rect x="752.8" y="395" width="18" height="3"/><rect x="753.8" y="376" width="16" height="3"/><rect x="799.8" y="395" width="18" height="3"/><rect x="800.8" y="376" width="16" height="3"/><rect x="846.9" y="395" width="18" height="3"/><rect x="847.9" y="376" width="16" height="3"/><rect x="893.9" y="395" width="18" height="3"/><rect x="894.9" y="376" width="16" height="3"/><rect x="941" y="395" width="18" height="3"/><rect x="942" y="376" width="16" height="3"/></g><g fill="url(#gCuB)" stroke="#7d3f14" stroke-width=".6"><circle cx="150" cy="387" r="9"/><circle cx="197.1" cy="387" r="9"/><circle cx="244.1" cy="387" r="9"/><circle cx="291.2" cy="387" r="9"/><circle cx="338.2" cy="387" r="9"/><circle cx="385.3" cy="387" r="9"/><circle cx="432.4" cy="387" r="9"/><circle cx="479.4" cy="387" r="9"/><circle cx="526.5" cy="387" r="9"/><circle cx="573.5" cy="387" r="9"/><circle cx="620.6" cy="387" r="9"/><circle cx="667.6" cy="387" r="9"/><circle cx="714.7" cy="387" r="9"/><circle cx="761.8" cy="387" r="9"/><circle cx="808.8" cy="387" r="9"/><circle cx="855.9" cy="387" r="9"/><circle cx="902.9" cy="387" r="9"/><circle cx="950" cy="387" r="9"/></g><g fill="#ffe6c8" opacity=".55"><circle cx="147.4" cy="384.2" r="2.6"/><circle cx="194.5" cy="384.2" r="2.6"/><circle cx="241.5" cy="384.2" r="2.6"/><circle cx="288.6" cy="384.2" r="2.6"/><circle cx="335.6" cy="384.2" r="2.6"/><circle cx="382.7" cy="384.2" r="2.6"/><circle cx="429.8" cy="384.2" r="2.6"/><circle cx="476.8" cy="384.2" r="2.6"/><circle cx="523.9" cy="384.2" r="2.6"/><circle cx="570.9" cy="384.2" r="2.6"/><circle cx="618" cy="384.2" r="2.6"/><circle cx="665" cy="384.2" r="2.6"/><circle cx="712.1" cy="384.2" r="2.6"/><circle cx="759.2" cy="384.2" r="2.6"/><circle cx="806.2" cy="384.2" r="2.6"/><circle cx="853.3" cy="384.2" r="2.6"/><circle cx="900.3" cy="384.2" r="2.6"/><circle cx="947.4" cy="384.2" r="2.6"/></g><rect x="132" y="330" width="836" height="46" fill="url(#gInt)"/><g stroke="#d7e3f4" stroke-width=".6" opacity=".3"><line x1="133" y1="357" x2="151" y2="375"/><line x1="133" y1="338" x2="170" y2="375"/><line x1="144" y1="331" x2="188" y2="375"/><line x1="163" y1="331" x2="207" y2="375"/><line x1="181" y1="331" x2="225" y2="375"/><line x1="199" y1="331" x2="243" y2="375"/><line x1="218" y1="331" x2="262" y2="375"/><line x1="236" y1="331" x2="280" y2="375"/><line x1="254" y1="331" x2="298" y2="375"/><line x1="273" y1="331" x2="317" y2="375"/><line x1="291" y1="331" x2="335" y2="375"/><line x1="310" y1="331" x2="354" y2="375"/><line x1="328" y1="331" x2="372" y2="375"/><line x1="346" y1="331" x2="390" y2="375"/><line x1="365" y1="331" x2="409" y2="375"/><line x1="383" y1="331" x2="427" y2="375"/><line x1="402" y1="331" x2="446" y2="375"/><line x1="420" y1="331" x2="464" y2="375"/><line x1="438" y1="331" x2="482" y2="375"/><line x1="457" y1="331" x2="501" y2="375"/><line x1="475" y1="331" x2="519" y2="375"/><line x1="493" y1="331" x2="537" y2="375"/><line x1="512" y1="331" x2="556" y2="375"/><line x1="530" y1="331" x2="574" y2="375"/><line x1="549" y1="331" x2="593" y2="375"/><line x1="567" y1="331" x2="611" y2="375"/><line x1="585" y1="331" x2="629" y2="375"/><line x1="604" y1="331" x2="648" y2="375"/><line x1="622" y1="331" x2="666" y2="375"/><line x1="641" y1="331" x2="685" y2="375"/><line x1="659" y1="331" x2="703" y2="375"/><line x1="677" y1="331" x2="721" y2="375"/><line x1="696" y1="331" x2="740" y2="375"/><line x1="714" y1="331" x2="758" y2="375"/><line x1="732" y1="331" x2="776" y2="375"/><line x1="751" y1="331" x2="795" y2="375"/><line x1="769" y1="331" x2="813" y2="375"/><line x1="788" y1="331" x2="832" y2="375"/><line x1="806" y1="331" x2="850" y2="375"/><line x1="824" y1="331" x2="868" y2="375"/><line x1="843" y1="331" x2="887" y2="375"/><line x1="861" y1="331" x2="905" y2="375"/><line x1="880" y1="331" x2="924" y2="375"/><line x1="898" y1="331" x2="942" y2="375"/><line x1="916" y1="331" x2="960" y2="375"/><line x1="935" y1="331" x2="967" y2="363"/><line x1="953" y1="331" x2="967" y2="345"/></g><line x1="146" y1="346" x2="954" y2="346" stroke="#d97a3c" stroke-width="1.2" opacity=".55"/><line x1="146" y1="361" x2="954" y2="361" stroke="#d97a3c" stroke-width="1.2" opacity=".55"/><line x1="162" y1="346" x2="168" y2="361" stroke="#d97a3c" stroke-width="1" opacity=".4"/><line x1="208" y1="346" x2="214" y2="361" stroke="#d97a3c" stroke-width="1" opacity=".4"/><line x1="254" y1="346" x2="260" y2="361" stroke="#d97a3c" stroke-width="1" opacity=".4"/><line x1="300" y1="346" x2="306" y2="361" stroke="#d97a3c" stroke-width="1" opacity=".4"/><line x1="346" y1="346" x2="352" y2="361" stroke="#d97a3c" stroke-width="1" opacity=".4"/><line x1="392" y1="346" x2="398" y2="361" stroke="#d97a3c" stroke-width="1" opacity=".4"/><line x1="438" y1="346" x2="444" y2="361" stroke="#d97a3c" stroke-width="1" opacity=".4"/><line x1="484" y1="346" x2="490" y2="361" stroke="#d97a3c" stroke-width="1" opacity=".4"/><line x1="530" y1="346" x2="536" y2="361" stroke="#d97a3c" stroke-width="1" opacity=".4"/><line x1="576" y1="346" x2="582" y2="361" stroke="#d97a3c" stroke-width="1" opacity=".4"/><line x1="622" y1="346" x2="628" y2="361" stroke="#d97a3c" stroke-width="1" opacity=".4"/><line x1="668" y1="346" x2="674" y2="361" stroke="#d97a3c" stroke-width="1" opacity=".4"/><line x1="714" y1="346" x2="720" y2="361" stroke="#d97a3c" stroke-width="1" opacity=".4"/><line x1="760" y1="346" x2="766" y2="361" stroke="#d97a3c" stroke-width="1" opacity=".4"/><line x1="806" y1="346" x2="812" y2="361" stroke="#d97a3c" stroke-width="1" opacity=".4"/><line x1="852" y1="346" x2="858" y2="361" stroke="#d97a3c" stroke-width="1" opacity=".4"/><line x1="898" y1="346" x2="904" y2="361" stroke="#d97a3c" stroke-width="1" opacity=".4"/><line x1="944" y1="346" x2="950" y2="361" stroke="#d97a3c" stroke-width="1" opacity=".4"/><g fill="url(#gCu)" opacity=".9"><rect x="166.2" y="330" width="3.6" height="46"/><rect x="221.2" y="330" width="3.6" height="46"/><rect x="276.2" y="330" width="3.6" height="46"/><rect x="331.2" y="330" width="3.6" height="46"/><rect x="386.2" y="330" width="3.6" height="46"/><rect x="441.2" y="330" width="3.6" height="46"/><rect x="496.2" y="330" width="3.6" height="46"/><rect x="551.2" y="330" width="3.6" height="46"/><rect x="606.2" y="330" width="3.6" height="46"/><rect x="661.2" y="330" width="3.6" height="46"/><rect x="716.2" y="330" width="3.6" height="46"/><rect x="771.2" y="330" width="3.6" height="46"/><rect x="826.2" y="330" width="3.6" height="46"/><rect x="881.2" y="330" width="3.6" height="46"/><rect x="936.2" y="330" width="3.6" height="46"/></g><g stroke="#d7e3f4" stroke-width=".4" opacity=".32"><line x1="166.2" y1="330" x2="166.2" y2="376"/><line x1="169.8" y1="330" x2="169.8" y2="376"/><line x1="221.2" y1="330" x2="221.2" y2="376"/><line x1="224.8" y1="330" x2="224.8" y2="376"/><line x1="276.2" y1="330" x2="276.2" y2="376"/><line x1="279.8" y1="330" x2="279.8" y2="376"/><line x1="331.2" y1="330" x2="331.2" y2="376"/><line x1="334.8" y1="330" x2="334.8" y2="376"/><line x1="386.2" y1="330" x2="386.2" y2="376"/><line x1="389.8" y1="330" x2="389.8" y2="376"/><line x1="441.2" y1="330" x2="441.2" y2="376"/><line x1="444.8" y1="330" x2="444.8" y2="376"/><line x1="496.2" y1="330" x2="496.2" y2="376"/><line x1="499.8" y1="330" x2="499.8" y2="376"/><line x1="551.2" y1="330" x2="551.2" y2="376"/><line x1="554.8" y1="330" x2="554.8" y2="376"/><line x1="606.2" y1="330" x2="606.2" y2="376"/><line x1="609.8" y1="330" x2="609.8" y2="376"/><line x1="661.2" y1="330" x2="661.2" y2="376"/><line x1="664.8" y1="330" x2="664.8" y2="376"/><line x1="716.2" y1="330" x2="716.2" y2="376"/><line x1="719.8" y1="330" x2="719.8" y2="376"/><line x1="771.2" y1="330" x2="771.2" y2="376"/><line x1="774.8" y1="330" x2="774.8" y2="376"/><line x1="826.2" y1="330" x2="826.2" y2="376"/><line x1="829.8" y1="330" x2="829.8" y2="376"/><line x1="881.2" y1="330" x2="881.2" y2="376"/><line x1="884.8" y1="330" x2="884.8" y2="376"/><line x1="936.2" y1="330" x2="936.2" y2="376"/><line x1="939.8" y1="330" x2="939.8" y2="376"/></g><g fill="url(#gCuB)" stroke="#7d3f14" stroke-width=".4"><circle cx="164" cy="323" r="4"/><circle cx="177" cy="323" r="4"/><circle cx="190" cy="323" r="4"/><circle cx="203" cy="323" r="4"/><circle cx="216" cy="323" r="4"/><circle cx="229" cy="323" r="4"/><circle cx="242" cy="323" r="4"/><circle cx="255" cy="323" r="4"/><circle cx="268" cy="323" r="4"/><circle cx="281" cy="323" r="4"/><circle cx="294" cy="323" r="4"/><circle cx="307" cy="323" r="4"/><circle cx="320" cy="323" r="4"/><circle cx="333" cy="323" r="4"/><circle cx="346" cy="323" r="4"/><circle cx="359" cy="323" r="4"/><circle cx="372" cy="323" r="4"/><circle cx="385" cy="323" r="4"/><circle cx="398" cy="323" r="4"/><circle cx="411" cy="323" r="4"/><circle cx="424" cy="323" r="4"/><circle cx="437" cy="323" r="4"/><circle cx="450" cy="323" r="4"/><circle cx="463" cy="323" r="4"/><circle cx="562" cy="323" r="4"/><circle cx="575" cy="323" r="4"/><circle cx="588" cy="323" r="4"/><circle cx="601" cy="323" r="4"/><circle cx="614" cy="323" r="4"/><circle cx="627" cy="323" r="4"/><circle cx="640" cy="323" r="4"/><circle cx="653" cy="323" r="4"/><circle cx="666" cy="323" r="4"/><circle cx="679" cy="323" r="4"/><circle cx="692" cy="323" r="4"/><circle cx="705" cy="323" r="4"/><circle cx="718" cy="323" r="4"/><circle cx="731" cy="323" r="4"/><circle cx="744" cy="323" r="4"/><circle cx="757" cy="323" r="4"/><circle cx="770" cy="323" r="4"/><circle cx="783" cy="323" r="4"/><circle cx="796" cy="323" r="4"/><circle cx="809" cy="323" r="4"/><circle cx="822" cy="323" r="4"/><circle cx="835" cy="323" r="4"/><circle cx="848" cy="323" r="4"/><circle cx="861" cy="323" r="4"/><circle cx="874" cy="323" r="4"/><circle cx="887" cy="323" r="4"/><circle cx="900" cy="323" r="4"/></g><rect x="158" y="172" width="314" height="144" fill="url(#gGpu)"/><g stroke="#38e1ff" stroke-width=".5" opacity=".15"><line x1="172" y1="180" x2="172" y2="308"/><line x1="187" y1="180" x2="187" y2="308"/><line x1="202" y1="180" x2="202" y2="308"/><line x1="217" y1="180" x2="217" y2="308"/><line x1="232" y1="180" x2="232" y2="308"/><line x1="247" y1="180" x2="247" y2="308"/><line x1="262" y1="180" x2="262" y2="308"/><line x1="277" y1="180" x2="277" y2="308"/><line x1="292" y1="180" x2="292" y2="308"/><line x1="307" y1="180" x2="307" y2="308"/><line x1="322" y1="180" x2="322" y2="308"/><line x1="337" y1="180" x2="337" y2="308"/><line x1="352" y1="180" x2="352" y2="308"/><line x1="367" y1="180" x2="367" y2="308"/><line x1="382" y1="180" x2="382" y2="308"/><line x1="397" y1="180" x2="397" y2="308"/><line x1="412" y1="180" x2="412" y2="308"/><line x1="427" y1="180" x2="427" y2="308"/><line x1="442" y1="180" x2="442" y2="308"/><line x1="457" y1="180" x2="457" y2="308"/><line x1="166" y1="188" x2="464" y2="188"/><line x1="166" y1="206" x2="464" y2="206"/><line x1="166" y1="224" x2="464" y2="224"/><line x1="166" y1="242" x2="464" y2="242"/><line x1="166" y1="260" x2="464" y2="260"/><line x1="166" y1="278" x2="464" y2="278"/><line x1="166" y1="296" x2="464" y2="296"/></g><g fill="none" stroke="#38e1ff" stroke-width=".6" opacity=".28"><rect x="180" y="194" width="34" height="22"/><rect x="180" y="226" width="34" height="22"/><rect x="180" y="258" width="34" height="22"/><rect x="180" y="290" width="34" height="22"/><rect x="226" y="194" width="34" height="22"/><rect x="226" y="226" width="34" height="22"/><rect x="226" y="258" width="34" height="22"/><rect x="226" y="290" width="34" height="22"/><rect x="272" y="194" width="34" height="22"/><rect x="272" y="226" width="34" height="22"/><rect x="272" y="258" width="34" height="22"/><rect x="272" y="290" width="34" height="22"/><rect x="318" y="194" width="34" height="22"/><rect x="318" y="226" width="34" height="22"/><rect x="318" y="258" width="34" height="22"/><rect x="318" y="290" width="34" height="22"/><rect x="364" y="194" width="34" height="22"/><rect x="364" y="226" width="34" height="22"/><rect x="364" y="258" width="34" height="22"/><rect x="364" y="290" width="34" height="22"/><rect x="410" y="194" width="34" height="22"/><rect x="410" y="226" width="34" height="22"/><rect x="410" y="258" width="34" height="22"/><rect x="410" y="290" width="34" height="22"/></g><g stroke="#d7e3f4" stroke-width=".6" opacity=".22"><line x1="160" y1="305" x2="170" y2="315"/><line x1="165" y1="300" x2="180" y2="315"/><line x1="175" y1="300" x2="190" y2="315"/><line x1="185" y1="300" x2="200" y2="315"/><line x1="194" y1="300" x2="209" y2="315"/><line x1="204" y1="300" x2="219" y2="315"/><line x1="214" y1="300" x2="229" y2="315"/><line x1="224" y1="300" x2="239" y2="315"/><line x1="234" y1="300" x2="249" y2="315"/><line x1="244" y1="300" x2="259" y2="315"/><line x1="254" y1="300" x2="269" y2="315"/><line x1="264" y1="300" x2="279" y2="315"/><line x1="274" y1="300" x2="289" y2="315"/><line x1="284" y1="300" x2="299" y2="315"/><line x1="293" y1="300" x2="308" y2="315"/><line x1="303" y1="300" x2="318" y2="315"/><line x1="313" y1="300" x2="328" y2="315"/><line x1="323" y1="300" x2="338" y2="315"/><line x1="333" y1="300" x2="348" y2="315"/><line x1="343" y1="300" x2="358" y2="315"/><line x1="353" y1="300" x2="368" y2="315"/><line x1="363" y1="300" x2="378" y2="315"/><line x1="373" y1="300" x2="388" y2="315"/><line x1="383" y1="300" x2="398" y2="315"/><line x1="392" y1="300" x2="407" y2="315"/><line x1="402" y1="300" x2="417" y2="315"/><line x1="412" y1="300" x2="427" y2="315"/><line x1="422" y1="300" x2="437" y2="315"/><line x1="432" y1="300" x2="447" y2="315"/><line x1="442" y1="300" x2="457" y2="315"/><line x1="452" y1="300" x2="467" y2="315"/><line x1="462" y1="300" x2="470" y2="308"/></g><path d="M158 316 L158 172 L472 172 L472 316" fill="none" stroke="#38e1ff" stroke-width="7" opacity=".10"/><path d="M158 316 L158 172 L472 172 L472 316" fill="none" stroke="#38e1ff" stroke-width="3" opacity=".28"/><path d="M158 316 L158 172 L472 172 L472 316" fill="none" stroke="#38e1ff" stroke-width="1.4" opacity=".9"/><rect x="556" y="298" width="352" height="18" fill="url(#gHbm)"/><g stroke="#d7e3f4" stroke-width=".6" opacity=".22"><line x1="560" y1="299" x2="576" y2="315"/><line x1="579" y1="299" x2="595" y2="315"/><line x1="597" y1="299" x2="613" y2="315"/><line x1="616" y1="299" x2="632" y2="315"/><line x1="634" y1="299" x2="650" y2="315"/><line x1="652" y1="299" x2="668" y2="315"/><line x1="671" y1="299" x2="687" y2="315"/><line x1="689" y1="299" x2="705" y2="315"/><line x1="707" y1="299" x2="723" y2="315"/><line x1="726" y1="299" x2="742" y2="315"/><line x1="744" y1="299" x2="760" y2="315"/><line x1="763" y1="299" x2="779" y2="315"/><line x1="781" y1="299" x2="797" y2="315"/><line x1="799" y1="299" x2="815" y2="315"/><line x1="818" y1="299" x2="834" y2="315"/><line x1="836" y1="299" x2="852" y2="315"/><line x1="855" y1="299" x2="871" y2="315"/><line x1="873" y1="299" x2="889" y2="315"/><line x1="891" y1="299" x2="906" y2="314"/></g><rect x="556" y="280.8" width="352" height="17.2" fill="url(#gHbm)"/><g stroke="#d7e3f4" stroke-width=".6" opacity=".18"><line x1="559" y1="282" x2="575" y2="297"/><line x1="576" y1="282" x2="592" y2="297"/><line x1="593" y1="282" x2="609" y2="297"/><line x1="610" y1="282" x2="626" y2="297"/><line x1="627" y1="282" x2="643" y2="297"/><line x1="644" y1="282" x2="660" y2="297"/><line x1="661" y1="282" x2="677" y2="297"/><line x1="678" y1="282" x2="694" y2="297"/><line x1="695" y1="282" x2="711" y2="297"/><line x1="712" y1="282" x2="728" y2="297"/><line x1="729" y1="282" x2="745" y2="297"/><line x1="746" y1="282" x2="762" y2="297"/><line x1="763" y1="282" x2="779" y2="297"/><line x1="780" y1="282" x2="796" y2="297"/><line x1="797" y1="282" x2="813" y2="297"/><line x1="814" y1="282" x2="830" y2="297"/><line x1="831" y1="282" x2="846" y2="297"/><line x1="848" y1="282" x2="863" y2="297"/><line x1="865" y1="282" x2="880" y2="297"/><line x1="882" y1="282" x2="897" y2="297"/><line x1="899" y1="282" x2="906" y2="289"/></g><rect x="556" y="263.5" width="352" height="17.2" fill="url(#gHbm)"/><g stroke="#d7e3f4" stroke-width=".6" opacity=".18"><line x1="559" y1="264" x2="575" y2="280"/><line x1="576" y1="264" x2="592" y2="280"/><line x1="593" y1="264" x2="609" y2="280"/><line x1="610" y1="264" x2="626" y2="280"/><line x1="627" y1="264" x2="643" y2="280"/><line x1="644" y1="264" x2="660" y2="280"/><line x1="661" y1="264" x2="677" y2="280"/><line x1="678" y1="264" x2="694" y2="280"/><line x1="695" y1="264" x2="711" y2="280"/><line x1="712" y1="264" x2="728" y2="280"/><line x1="729" y1="264" x2="745" y2="280"/><line x1="746" y1="264" x2="762" y2="280"/><line x1="763" y1="264" x2="779" y2="280"/><line x1="780" y1="264" x2="796" y2="280"/><line x1="797" y1="264" x2="813" y2="280"/><line x1="814" y1="264" x2="830" y2="280"/><line x1="831" y1="264" x2="846" y2="280"/><line x1="848" y1="264" x2="863" y2="280"/><line x1="865" y1="264" x2="880" y2="280"/><line x1="882" y1="264" x2="897" y2="280"/><line x1="899" y1="264" x2="906" y2="272"/></g><rect x="556" y="246.2" width="352" height="17.2" fill="url(#gHbm)"/><g stroke="#d7e3f4" stroke-width=".6" opacity=".18"><line x1="559" y1="247" x2="575" y2="263"/><line x1="576" y1="247" x2="592" y2="263"/><line x1="593" y1="247" x2="609" y2="263"/><line x1="610" y1="247" x2="626" y2="263"/><line x1="627" y1="247" x2="643" y2="263"/><line x1="644" y1="247" x2="660" y2="263"/><line x1="661" y1="247" x2="677" y2="263"/><line x1="678" y1="247" x2="694" y2="263"/><line x1="695" y1="247" x2="711" y2="263"/><line x1="712" y1="247" x2="728" y2="263"/><line x1="729" y1="247" x2="745" y2="263"/><line x1="746" y1="247" x2="762" y2="263"/><line x1="763" y1="247" x2="779" y2="263"/><line x1="780" y1="247" x2="796" y2="263"/><line x1="797" y1="247" x2="813" y2="263"/><line x1="814" y1="247" x2="830" y2="263"/><line x1="831" y1="247" x2="846" y2="263"/><line x1="848" y1="247" x2="863" y2="263"/><line x1="865" y1="247" x2="880" y2="263"/><line x1="882" y1="247" x2="897" y2="263"/><line x1="899" y1="247" x2="906" y2="254"/></g><rect x="556" y="229" width="352" height="17.2" fill="url(#gHbm)"/><g stroke="#d7e3f4" stroke-width=".6" opacity=".18"><line x1="559" y1="230" x2="575" y2="245"/><line x1="576" y1="230" x2="592" y2="245"/><line x1="593" y1="230" x2="609" y2="245"/><line x1="610" y1="230" x2="626" y2="245"/><line x1="627" y1="230" x2="643" y2="245"/><line x1="644" y1="230" x2="660" y2="245"/><line x1="661" y1="230" x2="677" y2="245"/><line x1="678" y1="230" x2="694" y2="245"/><line x1="695" y1="230" x2="711" y2="245"/><line x1="712" y1="230" x2="728" y2="245"/><line x1="729" y1="230" x2="745" y2="245"/><line x1="746" y1="230" x2="762" y2="245"/><line x1="763" y1="230" x2="779" y2="245"/><line x1="780" y1="230" x2="796" y2="245"/><line x1="797" y1="230" x2="813" y2="245"/><line x1="814" y1="230" x2="830" y2="245"/><line x1="831" y1="230" x2="846" y2="245"/><line x1="848" y1="230" x2="863" y2="245"/><line x1="865" y1="230" x2="880" y2="245"/><line x1="882" y1="230" x2="897" y2="245"/><line x1="899" y1="230" x2="906" y2="237"/></g><rect x="556" y="211.8" width="352" height="17.2" fill="url(#gHbm)"/><g stroke="#d7e3f4" stroke-width=".6" opacity=".18"><line x1="559" y1="213" x2="575" y2="228"/><line x1="576" y1="213" x2="592" y2="228"/><line x1="593" y1="213" x2="609" y2="228"/><line x1="610" y1="213" x2="626" y2="228"/><line x1="627" y1="213" x2="643" y2="228"/><line x1="644" y1="213" x2="660" y2="228"/><line x1="661" y1="213" x2="677" y2="228"/><line x1="678" y1="213" x2="694" y2="228"/><line x1="695" y1="213" x2="711" y2="228"/><line x1="712" y1="213" x2="728" y2="228"/><line x1="729" y1="213" x2="745" y2="228"/><line x1="746" y1="213" x2="762" y2="228"/><line x1="763" y1="213" x2="779" y2="228"/><line x1="780" y1="213" x2="796" y2="228"/><line x1="797" y1="213" x2="813" y2="228"/><line x1="814" y1="213" x2="830" y2="228"/><line x1="831" y1="213" x2="846" y2="228"/><line x1="848" y1="213" x2="863" y2="228"/><line x1="865" y1="213" x2="880" y2="228"/><line x1="882" y1="213" x2="897" y2="228"/><line x1="899" y1="213" x2="906" y2="220"/></g><rect x="556" y="194.5" width="352" height="17.2" fill="url(#gHbm)"/><g stroke="#d7e3f4" stroke-width=".6" opacity=".18"><line x1="559" y1="195" x2="575" y2="211"/><line x1="576" y1="195" x2="592" y2="211"/><line x1="593" y1="195" x2="609" y2="211"/><line x1="610" y1="195" x2="626" y2="211"/><line x1="627" y1="195" x2="643" y2="211"/><line x1="644" y1="195" x2="660" y2="211"/><line x1="661" y1="195" x2="677" y2="211"/><line x1="678" y1="195" x2="694" y2="211"/><line x1="695" y1="195" x2="711" y2="211"/><line x1="712" y1="195" x2="728" y2="211"/><line x1="729" y1="195" x2="745" y2="211"/><line x1="746" y1="195" x2="762" y2="211"/><line x1="763" y1="195" x2="779" y2="211"/><line x1="780" y1="195" x2="796" y2="211"/><line x1="797" y1="195" x2="813" y2="211"/><line x1="814" y1="195" x2="830" y2="211"/><line x1="831" y1="195" x2="846" y2="211"/><line x1="848" y1="195" x2="863" y2="211"/><line x1="865" y1="195" x2="880" y2="211"/><line x1="882" y1="195" x2="897" y2="211"/><line x1="899" y1="195" x2="906" y2="203"/></g><rect x="556" y="177.2" width="352" height="17.2" fill="url(#gHbm)"/><g stroke="#d7e3f4" stroke-width=".6" opacity=".18"><line x1="559" y1="178" x2="575" y2="194"/><line x1="576" y1="178" x2="592" y2="194"/><line x1="593" y1="178" x2="609" y2="194"/><line x1="610" y1="178" x2="626" y2="194"/><line x1="627" y1="178" x2="643" y2="194"/><line x1="644" y1="178" x2="660" y2="194"/><line x1="661" y1="178" x2="677" y2="194"/><line x1="678" y1="178" x2="694" y2="194"/><line x1="695" y1="178" x2="711" y2="194"/><line x1="712" y1="178" x2="728" y2="194"/><line x1="729" y1="178" x2="745" y2="194"/><line x1="746" y1="178" x2="762" y2="194"/><line x1="763" y1="178" x2="779" y2="194"/><line x1="780" y1="178" x2="796" y2="194"/><line x1="797" y1="178" x2="813" y2="194"/><line x1="814" y1="178" x2="830" y2="194"/><line x1="831" y1="178" x2="846" y2="194"/><line x1="848" y1="178" x2="863" y2="194"/><line x1="865" y1="178" x2="880" y2="194"/><line x1="882" y1="178" x2="897" y2="194"/><line x1="899" y1="178" x2="906" y2="185"/></g><rect x="564" y="163.8" width="336" height="13.5" fill="url(#gHbm)"/><g stroke="#d7e3f4" stroke-width=".6" opacity=".18"><line x1="571" y1="165" x2="583" y2="176"/><line x1="588" y1="165" x2="600" y2="176"/><line x1="605" y1="165" x2="617" y2="176"/><line x1="622" y1="165" x2="634" y2="176"/><line x1="639" y1="165" x2="651" y2="176"/><line x1="656" y1="165" x2="668" y2="176"/><line x1="673" y1="165" x2="685" y2="176"/><line x1="690" y1="165" x2="702" y2="176"/><line x1="707" y1="165" x2="719" y2="176"/><line x1="724" y1="165" x2="736" y2="176"/><line x1="741" y1="165" x2="753" y2="176"/><line x1="758" y1="165" x2="770" y2="176"/><line x1="775" y1="165" x2="787" y2="176"/><line x1="792" y1="165" x2="804" y2="176"/><line x1="809" y1="165" x2="821" y2="176"/><line x1="826" y1="165" x2="838" y2="176"/><line x1="843" y1="165" x2="854" y2="176"/><line x1="860" y1="165" x2="871" y2="176"/><line x1="877" y1="165" x2="888" y2="176"/><line x1="894" y1="165" x2="898" y2="169"/></g><g fill="url(#gCuB)"><circle cx="572" cy="298" r="2.3"/><circle cx="598" cy="298" r="2.3"/><circle cx="624" cy="298" r="2.3"/><circle cx="650" cy="298" r="2.3"/><circle cx="676" cy="298" r="2.3"/><circle cx="702" cy="298" r="2.3"/><circle cx="728" cy="298" r="2.3"/><circle cx="754" cy="298" r="2.3"/><circle cx="780" cy="298" r="2.3"/><circle cx="806" cy="298" r="2.3"/><circle cx="832" cy="298" r="2.3"/><circle cx="858" cy="298" r="2.3"/><circle cx="884" cy="298" r="2.3"/><circle cx="572" cy="281" r="2.3"/><circle cx="598" cy="281" r="2.3"/><circle cx="624" cy="281" r="2.3"/><circle cx="650" cy="281" r="2.3"/><circle cx="676" cy="281" r="2.3"/><circle cx="702" cy="281" r="2.3"/><circle cx="728" cy="281" r="2.3"/><circle cx="754" cy="281" r="2.3"/><circle cx="780" cy="281" r="2.3"/><circle cx="806" cy="281" r="2.3"/><circle cx="832" cy="281" r="2.3"/><circle cx="858" cy="281" r="2.3"/><circle cx="884" cy="281" r="2.3"/><circle cx="572" cy="264" r="2.3"/><circle cx="598" cy="264" r="2.3"/><circle cx="624" cy="264" r="2.3"/><circle cx="650" cy="264" r="2.3"/><circle cx="676" cy="264" r="2.3"/><circle cx="702" cy="264" r="2.3"/><circle cx="728" cy="264" r="2.3"/><circle cx="754" cy="264" r="2.3"/><circle cx="780" cy="264" r="2.3"/><circle cx="806" cy="264" r="2.3"/><circle cx="832" cy="264" r="2.3"/><circle cx="858" cy="264" r="2.3"/><circle cx="884" cy="264" r="2.3"/><circle cx="572" cy="246" r="2.3"/><circle cx="598" cy="246" r="2.3"/><circle cx="624" cy="246" r="2.3"/><circle cx="650" cy="246" r="2.3"/><circle cx="676" cy="246" r="2.3"/><circle cx="702" cy="246" r="2.3"/><circle cx="728" cy="246" r="2.3"/><circle cx="754" cy="246" r="2.3"/><circle cx="780" cy="246" r="2.3"/><circle cx="806" cy="246" r="2.3"/><circle cx="832" cy="246" r="2.3"/><circle cx="858" cy="246" r="2.3"/><circle cx="884" cy="246" r="2.3"/><circle cx="572" cy="229" r="2.3"/><circle cx="598" cy="229" r="2.3"/><circle cx="624" cy="229" r="2.3"/><circle cx="650" cy="229" r="2.3"/><circle cx="676" cy="229" r="2.3"/><circle cx="702" cy="229" r="2.3"/><circle cx="728" cy="229" r="2.3"/><circle cx="754" cy="229" r="2.3"/><circle cx="780" cy="229" r="2.3"/><circle cx="806" cy="229" r="2.3"/><circle cx="832" cy="229" r="2.3"/><circle cx="858" cy="229" r="2.3"/><circle cx="884" cy="229" r="2.3"/><circle cx="572" cy="212" r="2.3"/><circle cx="598" cy="212" r="2.3"/><circle cx="624" cy="212" r="2.3"/><circle cx="650" cy="212" r="2.3"/><circle cx="676" cy="212" r="2.3"/><circle cx="702" cy="212" r="2.3"/><circle cx="728" cy="212" r="2.3"/><circle cx="754" cy="212" r="2.3"/><circle cx="780" cy="212" r="2.3"/><circle cx="806" cy="212" r="2.3"/><circle cx="832" cy="212" r="2.3"/><circle cx="858" cy="212" r="2.3"/><circle cx="884" cy="212" r="2.3"/><circle cx="572" cy="194" r="2.3"/><circle cx="598" cy="194" r="2.3"/><circle cx="624" cy="194" r="2.3"/><circle cx="650" cy="194" r="2.3"/><circle cx="676" cy="194" r="2.3"/><circle cx="702" cy="194" r="2.3"/><circle cx="728" cy="194" r="2.3"/><circle cx="754" cy="194" r="2.3"/><circle cx="780" cy="194" r="2.3"/><circle cx="806" cy="194" r="2.3"/><circle cx="832" cy="194" r="2.3"/><circle cx="858" cy="194" r="2.3"/><circle cx="884" cy="194" r="2.3"/><circle cx="572" cy="177" r="2.3"/><circle cx="598" cy="177" r="2.3"/><circle cx="624" cy="177" r="2.3"/><circle cx="650" cy="177" r="2.3"/><circle cx="676" cy="177" r="2.3"/><circle cx="702" cy="177" r="2.3"/><circle cx="728" cy="177" r="2.3"/><circle cx="754" cy="177" r="2.3"/><circle cx="780" cy="177" r="2.3"/><circle cx="806" cy="177" r="2.3"/><circle cx="832" cy="177" r="2.3"/><circle cx="858" cy="177" r="2.3"/><circle cx="884" cy="177" r="2.3"/></g><g fill="url(#gCu)" opacity=".92"><rect x="587.8" y="164.0" width="4.4" height="152"/><rect x="633.8" y="164.0" width="4.4" height="152"/><rect x="679.8" y="164.0" width="4.4" height="152"/><rect x="725.8" y="164.0" width="4.4" height="152"/><rect x="771.8" y="164.0" width="4.4" height="152"/><rect x="817.8" y="164.0" width="4.4" height="152"/><rect x="863.8" y="164.0" width="4.4" height="152"/></g><g stroke="#d7e3f4" stroke-width=".4" opacity=".4"><line x1="587.8" y1="164.0" x2="587.8" y2="314"/><line x1="633.8" y1="164.0" x2="633.8" y2="314"/><line x1="679.8" y1="164.0" x2="679.8" y2="314"/><line x1="725.8" y1="164.0" x2="725.8" y2="314"/><line x1="771.8" y1="164.0" x2="771.8" y2="314"/><line x1="817.8" y1="164.0" x2="817.8" y2="314"/><line x1="863.8" y1="164.0" x2="863.8" y2="314"/></g><g stroke="#d97a3c" stroke-width=".6" opacity=".5"><line x1="592.2" y1="164.0" x2="592.2" y2="314"/><line x1="638.2" y1="164.0" x2="638.2" y2="314"/><line x1="684.2" y1="164.0" x2="684.2" y2="314"/><line x1="730.2" y1="164.0" x2="730.2" y2="314"/><line x1="776.2" y1="164.0" x2="776.2" y2="314"/><line x1="822.2" y1="164.0" x2="822.2" y2="314"/><line x1="868.2" y1="164.0" x2="868.2" y2="314"/></g><path d="M556 316 L556 298 L556 177.25 L564 163.795 L900 163.795 L908 177.25 L908 316" fill="none" stroke="#d88cff" stroke-width="7" opacity=".10"/><path d="M556 316 L556 298 L556 177.25 L564 163.795 L900 163.795 L908 177.25 L908 316" fill="none" stroke="#d88cff" stroke-width="3" opacity=".26"/><path d="M556 316 L556 298 L556 177.25 L564 163.795 L900 163.795 L908 177.25 L908 316" fill="none" stroke="#d88cff" stroke-width="1.4" opacity=".9"/><rect x="158" y="152" width="314" height="20" fill="url(#gTim)" opacity=".9"/><g stroke="#d7e3f4" stroke-width=".6" opacity=".22"><line x1="160" y1="155" x2="176" y2="171"/><line x1="173" y1="153" x2="191" y2="171"/><line x1="189" y1="153" x2="207" y2="171"/><line x1="204" y1="153" x2="222" y2="171"/><line x1="220" y1="153" x2="238" y2="171"/><line x1="235" y1="153" x2="253" y2="171"/><line x1="251" y1="153" x2="269" y2="171"/><line x1="266" y1="153" x2="284" y2="171"/><line x1="282" y1="153" x2="300" y2="171"/><line x1="298" y1="153" x2="316" y2="171"/><line x1="313" y1="153" x2="331" y2="171"/><line x1="329" y1="153" x2="347" y2="171"/><line x1="344" y1="153" x2="362" y2="171"/><line x1="360" y1="153" x2="378" y2="171"/><line x1="375" y1="153" x2="393" y2="171"/><line x1="391" y1="153" x2="409" y2="171"/><line x1="406" y1="153" x2="424" y2="171"/><line x1="422" y1="153" x2="440" y2="171"/><line x1="438" y1="153" x2="456" y2="171"/><line x1="453" y1="153" x2="470" y2="170"/><line x1="469" y1="153" x2="470" y2="154"/></g><rect x="556" y="152" width="352" height="8" fill="url(#gTim)" opacity=".9"/><g stroke="#d7e3f4" stroke-width=".6" opacity=".22"><line x1="568" y1="153" x2="574" y2="159"/><line x1="583" y1="153" x2="589" y2="159"/><line x1="599" y1="153" x2="605" y2="159"/><line x1="614" y1="153" x2="620" y2="159"/><line x1="630" y1="153" x2="636" y2="159"/><line x1="645" y1="153" x2="651" y2="159"/><line x1="661" y1="153" x2="667" y2="159"/><line x1="676" y1="153" x2="682" y2="159"/><line x1="692" y1="153" x2="698" y2="159"/><line x1="708" y1="153" x2="714" y2="159"/><line x1="723" y1="153" x2="729" y2="159"/><line x1="739" y1="153" x2="745" y2="159"/><line x1="754" y1="153" x2="760" y2="159"/><line x1="770" y1="153" x2="776" y2="159"/><line x1="785" y1="153" x2="791" y2="159"/><line x1="801" y1="153" x2="807" y2="159"/><line x1="816" y1="153" x2="822" y2="159"/><line x1="832" y1="153" x2="838" y2="159"/><line x1="848" y1="153" x2="854" y2="159"/><line x1="863" y1="153" x2="869" y2="159"/><line x1="879" y1="153" x2="885" y2="159"/><line x1="894" y1="153" x2="900" y2="159"/></g><rect x="120" y="100" width="860" height="52" fill="url(#gMetal)"/><g stroke="#d7e3f4" stroke-width=".6" opacity=".26"><line x1="121" y1="126" x2="146" y2="151"/><line x1="122" y1="101" x2="172" y2="151"/><line x1="147" y1="101" x2="197" y2="151"/><line x1="173" y1="101" x2="223" y2="151"/><line x1="198" y1="101" x2="248" y2="151"/><line x1="224" y1="101" x2="274" y2="151"/><line x1="249" y1="101" x2="299" y2="151"/><line x1="275" y1="101" x2="325" y2="151"/><line x1="300" y1="101" x2="350" y2="151"/><line x1="326" y1="101" x2="376" y2="151"/><line x1="351" y1="101" x2="401" y2="151"/><line x1="376" y1="101" x2="426" y2="151"/><line x1="402" y1="101" x2="452" y2="151"/><line x1="427" y1="101" x2="477" y2="151"/><line x1="453" y1="101" x2="503" y2="151"/><line x1="478" y1="101" x2="528" y2="151"/><line x1="504" y1="101" x2="554" y2="151"/><line x1="529" y1="101" x2="579" y2="151"/><line x1="555" y1="101" x2="605" y2="151"/><line x1="580" y1="101" x2="630" y2="151"/><line x1="606" y1="101" x2="656" y2="151"/><line x1="631" y1="101" x2="681" y2="151"/><line x1="656" y1="101" x2="706" y2="151"/><line x1="682" y1="101" x2="732" y2="151"/><line x1="707" y1="101" x2="757" y2="151"/><line x1="733" y1="101" x2="783" y2="151"/><line x1="758" y1="101" x2="808" y2="151"/><line x1="784" y1="101" x2="834" y2="151"/><line x1="809" y1="101" x2="859" y2="151"/><line x1="835" y1="101" x2="885" y2="151"/><line x1="860" y1="101" x2="910" y2="151"/><line x1="886" y1="101" x2="936" y2="151"/><line x1="911" y1="101" x2="961" y2="151"/><line x1="936" y1="101" x2="979" y2="144"/><line x1="962" y1="101" x2="979" y2="118"/></g><rect x="120" y="152" width="32" height="244" fill="url(#gMetal)"/><g stroke="#d7e3f4" stroke-width=".6" opacity=".24"><line x1="121" y1="358" x2="151" y2="388"/><line x1="121" y1="321" x2="151" y2="351"/><line x1="121" y1="285" x2="151" y2="315"/><line x1="121" y1="248" x2="151" y2="278"/><line x1="121" y1="211" x2="151" y2="241"/><line x1="121" y1="174" x2="151" y2="204"/><line x1="136" y1="153" x2="151" y2="168"/></g><rect x="948" y="152" width="32" height="244" fill="url(#gMetal)"/><g stroke="#d7e3f4" stroke-width=".6" opacity=".24"><line x1="949" y1="358" x2="979" y2="388"/><line x1="949" y1="321" x2="979" y2="351"/><line x1="949" y1="285" x2="979" y2="315"/><line x1="949" y1="248" x2="979" y2="278"/><line x1="949" y1="211" x2="979" y2="241"/><line x1="949" y1="174" x2="979" y2="204"/><line x1="964" y1="153" x2="979" y2="168"/></g><rect x="120" y="100" width="860" height="4" fill="#dfe7f2" opacity=".5"/><path d="M106 150 L113 158 L106 166 L99 174 L106 182 L113 190 L106 198 L99 206 L106 214 L113 222 L106 230 L99 238 L106 246 L113 254 L106 262 L99 270 L106 278 L113 286 L106 294 L99 302 L106 310 L113 318 L106 326 L99 334 L106 342 L113 350 L106 358 L99 366 L106 374 L113 382 L106 390 L99 398 L106 406 L113 414 L106 422 L99 430 L106 438 L113 446 L106 454 L99 462 L106 470 L113 477 L106 484" fill="none" stroke="#d7e3f4" stroke-width="1.4" opacity=".7"/><path d="M994 150 L1001 158 L994 166 L987 174 L994 182 L1001 190 L994 198 L987 206 L994 214 L1001 222 L994 230 L987 238 L994 246 L1001 254 L994 262 L987 270 L994 278 L1001 286 L994 294 L987 302 L994 310 L1001 318 L994 326 L987 334 L994 342 L1001 350 L994 358 L987 366 L994 374 L1001 382 L994 390 L987 398 L994 406 L1001 414 L994 422 L987 430 L994 438 L1001 446 L994 454 L987 462 L994 470 L1001 477 L994 484" fill="none" stroke="#d7e3f4" stroke-width="1.4" opacity=".7"/><line x1="96" y1="330" x2="96" y2="376" stroke="#d7e3f4" stroke-width="1" opacity=".6"/><path d="M93 336 L96 330 L99 336" fill="none" stroke="#d7e3f4" stroke-width="1" opacity=".7"/><path d="M93 370 L96 376 L99 370" fill="none" stroke="#d7e3f4" stroke-width="1" opacity=".7"/><line x1="150" y1="492" x2="197.1" y2="492" stroke="#d7e3f4" stroke-width="1" opacity=".6"/><path d="M156 489 L150 492 L156 495" fill="none" stroke="#d7e3f4" stroke-width="1" opacity=".7"/><path d="M191.05882352941177 489 L197.05882352941177 492 L191.05882352941177 495" fill="none" stroke="#d7e3f4" stroke-width="1" opacity=".7"/><line x1="562" y1="305" x2="575" y2="305" stroke="#d7e3f4" stroke-width=".8" opacity=".55"/><line x1="315" y1="212" x2="255" y2="182" stroke="#d7e3f4" stroke-width=".8" opacity=".5"/><circle cx="315" cy="212" r="1.4" fill="#d7e3f4" opacity=".7"/><line x1="732" y1="190" x2="792" y2="166" stroke="#d7e3f4" stroke-width=".8" opacity=".5"/><circle cx="732" cy="190" r="1.4" fill="#d7e3f4" opacity=".7"/><line x1="210" y1="387" x2="160" y2="427" stroke="#d7e3f4" stroke-width=".8" opacity=".5"/><circle cx="210" cy="387" r="1.4" fill="#d7e3f4" opacity=".7"/><line x1="500" y1="352" x2="500" y2="412" stroke="#d7e3f4" stroke-width=".8" opacity=".5"/><circle cx="500" cy="352" r="1.4" fill="#d7e3f4" opacity=".7"/><line x1="732" y1="260" x2="822" y2="260" stroke="#d7e3f4" stroke-width=".8" opacity=".5"/><circle cx="732" cy="260" r="1.4" fill="#d7e3f4" opacity=".7"/><line x1="550" y1="434" x2="670" y2="474" stroke="#d7e3f4" stroke-width=".8" opacity=".5"/><circle cx="550" cy="434" r="1.4" fill="#d7e3f4" opacity=".7"/><g stroke="#d7e3f4" stroke-width=".6" opacity=".3"><line x1="146" y1="348" x2="954" y2="348"/><line x1="146" y1="363" x2="954" y2="363"/><line x1="128" y1="112" x2="972" y2="112"/><line x1="128" y1="122" x2="972" y2="122"/><line x1="128" y1="132" x2="972" y2="132"/><line x1="128" y1="142" x2="972" y2="142"/><line x1="132" y1="330" x2="92" y2="330"/><line x1="132" y1="376" x2="92" y2="376"/><line x1="150" y1="397" x2="150" y2="497"/><line x1="197.1" y1="397" x2="197.1" y2="497"/><line x1="562" y1="315" x2="562" y2="303"/><line x1="575" y1="315" x2="575" y2="303"/></g><g stroke="#d7e3f4" stroke-width="1.1" opacity=".55"><line x1="128" y1="412" x2="972" y2="412"/><line x1="128" y1="428" x2="972" y2="428"/><line x1="128" y1="444" x2="972" y2="444"/><line x1="128" y1="458" x2="972" y2="458"/><line x1="112" y1="398" x2="112" y2="472"/><line x1="988" y1="398" x2="988" y2="472"/><line x1="132" y1="330" x2="132" y2="376"/><line x1="968" y1="330" x2="968" y2="376"/><line x1="556" y1="298" x2="908" y2="298"/><line x1="556" y1="280.8" x2="908" y2="280.8"/><line x1="556" y1="263.5" x2="908" y2="263.5"/><line x1="556" y1="246.2" x2="908" y2="246.2"/><line x1="556" y1="229" x2="908" y2="229"/><line x1="556" y1="211.8" x2="908" y2="211.8"/><line x1="556" y1="194.5" x2="908" y2="194.5"/><line x1="564" y1="177.2" x2="900" y2="177.2"/><line x1="158" y1="172" x2="472" y2="172"/><line x1="556" y1="160" x2="908" y2="160"/><line x1="158" y1="152" x2="472" y2="152"/><line x1="556" y1="152" x2="908" y2="152"/><line x1="120" y1="152" x2="120" y2="396"/><line x1="152" y1="152" x2="152" y2="396"/><line x1="948" y1="152" x2="948" y2="396"/><line x1="980" y1="152" x2="980" y2="396"/><line x1="152" y1="152" x2="152" y2="396"/><line x1="948" y1="152" x2="948" y2="396"/><line x1="120" y1="110" x2="132" y2="100"/><line x1="980" y1="110" x2="968" y2="100"/></g><g stroke="#d7e3f4" stroke-width="2" opacity=".92" stroke-linecap="round"><line x1="112" y1="398" x2="988" y2="398"/><line x1="112" y1="472" x2="988" y2="472"/><line x1="132" y1="330" x2="968" y2="330"/><line x1="132" y1="376" x2="968" y2="376"/><line x1="158" y1="316" x2="472" y2="316"/><line x1="556" y1="316" x2="908" y2="316"/><line x1="564" y1="163.8" x2="900" y2="163.8"/><line x1="120" y1="100" x2="980" y2="100"/><line x1="120" y1="100" x2="120" y2="396"/><line x1="980" y1="100" x2="980" y2="396"/><line x1="152" y1="152" x2="948" y2="152"/></g></svg><circle cx="801.0" cy="396.4" r="2.6" fill="#d88cff" opacity="0.9"/><path d="M 801.0 396.4 L 770 328" stroke="#d7e3f4" stroke-width="0.9" opacity="0.5" fill="none"/><circle cx="514.3" cy="459.8" r="2.6" fill="#d88cff" opacity="0.9"/><path d="M 514.3 459.8 L 470 233" stroke="#d7e3f4" stroke-width="0.9" opacity="0.5" fill="none"/><circle cx="1023.0" cy="457.4" r="2.6" fill="#d88cff" opacity="0.9"/><path d="M 1023.0 457.4 L 1130 233" stroke="#d7e3f4" stroke-width="0.9" opacity="0.5" fill="none"/><circle cx="1132.8" cy="567.2" r="2.6" fill="#d88cff" opacity="0.9"/><path d="M 1132.8 567.2 L 1250 877" stroke="#d7e3f4" stroke-width="0.9" opacity="0.5" fill="none"/><circle cx="514.3" cy="644.1" r="2.6" fill="#d88cff" opacity="0.9"/><path d="M 514.3 644.1 L 400 877" stroke="#d7e3f4" stroke-width="0.9" opacity="0.5" fill="none"/><circle cx="740.0" cy="679.4" r="2.6" fill="#d88cff" opacity="0.9"/><path d="M 740.0 679.4 L 630 877" stroke="#d7e3f4" stroke-width="0.9" opacity="0.5" fill="none"/><circle cx="386.2" cy="722.1" r="2.6" fill="#d88cff" opacity="0.9"/><path d="M 386.2 722.1 L 210 877" stroke="#d7e3f4" stroke-width="0.9" opacity="0.5" fill="none"/><circle cx="947.4" cy="780.7" r="2.6" fill="#d88cff" opacity="0.9"/><path d="M 947.4 780.7 L 950 877" stroke="#d7e3f4" stroke-width="0.9" opacity="0.5" fill="none"/><circle cx="1276.8" cy="451.3" r="2.6" fill="#d88cff" opacity="0.9"/><path d="M 1276.8 451.3 L 1310 323" stroke="#d7e3f4" stroke-width="0.9" opacity="0.5" fill="none"/><text x="770" y="318" text-anchor="middle" font-family="'IBM Plex Mono','JetBrains Mono',ui-monospace,Consolas,monospace" font-size="19" font-weight="600" fill="#e8eef7" fill-opacity="0.95">IHS + INTERFACE</text><text x="470" y="223" text-anchor="middle" font-family="'IBM Plex Mono','JetBrains Mono',ui-monospace,Consolas,monospace" font-size="19" font-weight="600" fill="#e8eef7" fill-opacity="0.95">LOGIC DIE</text><text x="1130" y="223" text-anchor="middle" font-family="'IBM Plex Mono','JetBrains Mono',ui-monospace,Consolas,monospace" font-size="19" font-weight="600" fill="#e8eef7" fill-opacity="0.95">DRAM ×8 + BASE</text><text x="1250" y="903" text-anchor="middle" font-family="'IBM Plex Mono','JetBrains Mono',ui-monospace,Consolas,monospace" font-size="19" font-weight="600" fill="#e8eef7" fill-opacity="0.95">THROUGH-SILICON VIA</text><text x="400" y="903" text-anchor="middle" font-family="'IBM Plex Mono','JetBrains Mono',ui-monospace,Consolas,monospace" font-size="19" font-weight="600" fill="#e8eef7" fill-opacity="0.95">µBUMP ~40 µm PITCH</text><text x="630" y="903" text-anchor="middle" font-family="'IBM Plex Mono','JetBrains Mono',ui-monospace,Consolas,monospace" font-size="19" font-weight="600" fill="#e8eef7" fill-opacity="0.95">SI INTERPOSER + RDL</text><text x="210" y="903" text-anchor="middle" font-family="'IBM Plex Mono','JetBrains Mono',ui-monospace,Consolas,monospace" font-size="19" font-weight="600" fill="#e8eef7" fill-opacity="0.95">FLIP-CHIP BUMP</text><text x="950" y="903" text-anchor="middle" font-family="'IBM Plex Mono','JetBrains Mono',ui-monospace,Consolas,monospace" font-size="19" font-weight="600" fill="#e8eef7" fill-opacity="0.95">BUILD-UP SUBSTRATE</text><text x="1310" y="313" text-anchor="middle" font-family="'IBM Plex Mono','JetBrains Mono',ui-monospace,Consolas,monospace" font-size="19" font-weight="600" fill="#e8eef7" fill-opacity="0.95">EMC</text><text x="30" y="1042" font-family="'IBM Plex Mono','JetBrains Mono',ui-monospace,Consolas,monospace" font-size="17" font-weight="500" letter-spacing="0.5" fill="#e8eef7" fill-opacity="0.85">FIG. 10 — Packaging as a second fab: logic and memory city-planned on one interposer</text></svg>