<svg xmlns="http://www.w3.org/2000/svg" viewBox="0 0 1600 1060" role="img"><svg x="386" y="172" width="828.0" height="791.2" viewBox="0 0 900 860"><defs><linearGradient id="alu" x1="0" y1="0" x2="1" y2="0"><stop offset="0" stop-color="#5a6373"/><stop offset="0.15" stop-color="#aeb9cc"/><stop offset="0.5" stop-color="#7c8697"/><stop offset="0.85" stop-color="#aeb9cc"/><stop offset="1" stop-color="#5a6373"/></linearGradient><linearGradient id="alv" x1="0" y1="0" x2="0" y2="1"><stop offset="0" stop-color="#aeb9cc"/><stop offset="1" stop-color="#5a6373"/></linearGradient><linearGradient id="quartz" x1="0" y1="0" x2="0" y2="1"><stop offset="0" stop-color="#cfe6f2" stop-opacity="0.55"/><stop offset="1" stop-color="#8fc4dd" stop-opacity="0.28"/></linearGradient><radialGradient id="cu" cx="0.35" cy="0.3" r="0.75"><stop offset="0" stop-color="#f2b483"/><stop offset="0.5" stop-color="#d97a3c"/><stop offset="1" stop-color="#8a441d"/></radialGradient><radialGradient id="plasma" cx="0.5" cy="0.45" r="0.62"><stop offset="0" stop-color="#ff5df0" stop-opacity="0.85"/><stop offset="0.35" stop-color="#ff5df0" stop-opacity="0.4"/><stop offset="0.7" stop-color="#c23bb0" stop-opacity="0.16"/><stop offset="1" stop-color="#ff5df0" stop-opacity="0"/></radialGradient><linearGradient id="graph" x1="0" y1="0" x2="0" y2="1"><stop offset="0" stop-color="#4a4f57"/><stop offset="1" stop-color="#22262c"/></linearGradient><linearGradient id="chuck" x1="0" y1="0" x2="0" y2="1"><stop offset="0" stop-color="#9aa5b6"/><stop offset="1" stop-color="#4c545f"/></linearGradient></defs><path d="M 250 55 L 250 95 L 300 95 L 300 122" fill="none" stroke="#d7e3f4" stroke-width="2" opacity="0.9"/><path d="M 662 122 L 662 95 L 250 95" fill="none" stroke="#d7e3f4" stroke-width="1.1" opacity="0.55"/><circle cx="250" cy="45" r="16" fill="none" stroke="#d7e3f4" stroke-width="2" opacity="0.9"/><path d="M 240 45 q 5 -9 10 0 q 5 9 10 0" fill="none" stroke="#d7e3f4" stroke-width="1.6" opacity="0.85"/><line x1="612" y1="156" x2="612" y2="180" stroke="#d7e3f4" stroke-width="1.1" opacity="0.55"/><line x1="600" y1="180" x2="624" y2="180" stroke="#d7e3f4" stroke-width="2" opacity="0.9"/><line x1="604" y1="185" x2="620" y2="185" stroke="#d7e3f4" stroke-width="1.1" opacity="0.55"/><line x1="608" y1="190" x2="616" y2="190" stroke="#d7e3f4" stroke-width="0.6" opacity="0.3"/><circle cx="300" cy="138" r="16" fill="url(#cu)" stroke="#d7e3f4" stroke-width="2" opacity="0.92"/><circle cx="300" cy="138" r="6.5" fill="#0a0d14" stroke="#d7e3f4" stroke-width="1.1" opacity="0.55"/><circle cx="295" cy="133" r="4" fill="#f7cba0" opacity="0.6"/><path d="M 284 138 A 16 16 0 0 1 300 122" fill="none" stroke="#d7e3f4" stroke-width="0.6" opacity="0.3"/><circle cx="352" cy="138" r="16" fill="url(#cu)" stroke="#d7e3f4" stroke-width="2" opacity="0.92"/><circle cx="352" cy="138" r="6.5" fill="#0a0d14" stroke="#d7e3f4" stroke-width="1.1" opacity="0.55"/><circle cx="347" cy="133" r="4" fill="#f7cba0" opacity="0.6"/><path d="M 336 138 A 16 16 0 0 1 352 122" fill="none" stroke="#d7e3f4" stroke-width="0.6" opacity="0.3"/><circle cx="404" cy="138" r="16" fill="url(#cu)" stroke="#d7e3f4" stroke-width="2" opacity="0.92"/><circle cx="404" cy="138" r="6.5" fill="#0a0d14" stroke="#d7e3f4" stroke-width="1.1" opacity="0.55"/><circle cx="399" cy="133" r="4" fill="#f7cba0" opacity="0.6"/><path d="M 388 138 A 16 16 0 0 1 404 122" fill="none" stroke="#d7e3f4" stroke-width="0.6" opacity="0.3"/><circle cx="456" cy="138" r="16" fill="url(#cu)" stroke="#d7e3f4" stroke-width="2" opacity="0.92"/><circle cx="456" cy="138" r="6.5" fill="#0a0d14" stroke="#d7e3f4" stroke-width="1.1" opacity="0.55"/><circle cx="451" cy="133" r="4" fill="#f7cba0" opacity="0.6"/><path d="M 440 138 A 16 16 0 0 1 456 122" fill="none" stroke="#d7e3f4" stroke-width="0.6" opacity="0.3"/><circle cx="508" cy="138" r="16" fill="url(#cu)" stroke="#d7e3f4" stroke-width="2" opacity="0.92"/><circle cx="508" cy="138" r="6.5" fill="#0a0d14" stroke="#d7e3f4" stroke-width="1.1" opacity="0.55"/><circle cx="503" cy="133" r="4" fill="#f7cba0" opacity="0.6"/><path d="M 492 138 A 16 16 0 0 1 508 122" fill="none" stroke="#d7e3f4" stroke-width="0.6" opacity="0.3"/><circle cx="560" cy="138" r="16" fill="url(#cu)" stroke="#d7e3f4" stroke-width="2" opacity="0.92"/><circle cx="560" cy="138" r="6.5" fill="#0a0d14" stroke="#d7e3f4" stroke-width="1.1" opacity="0.55"/><circle cx="555" cy="133" r="4" fill="#f7cba0" opacity="0.6"/><path d="M 544 138 A 16 16 0 0 1 560 122" fill="none" stroke="#d7e3f4" stroke-width="0.6" opacity="0.3"/><circle cx="612" cy="138" r="16" fill="url(#cu)" stroke="#d7e3f4" stroke-width="2" opacity="0.92"/><circle cx="612" cy="138" r="6.5" fill="#0a0d14" stroke="#d7e3f4" stroke-width="1.1" opacity="0.55"/><circle cx="607" cy="133" r="4" fill="#f7cba0" opacity="0.6"/><path d="M 596 138 A 16 16 0 0 1 612 122" fill="none" stroke="#d7e3f4" stroke-width="0.6" opacity="0.3"/><path d="M 300 154 Q 326.0 168 352 154" fill="none" stroke="#d7e3f4" stroke-width="0.6" opacity="0.3"/><path d="M 352 154 Q 378.0 168 404 154" fill="none" stroke="#d7e3f4" stroke-width="0.6" opacity="0.3"/><path d="M 404 154 Q 430.0 168 456 154" fill="none" stroke="#d7e3f4" stroke-width="0.6" opacity="0.3"/><path d="M 456 154 Q 482.0 168 508 154" fill="none" stroke="#d7e3f4" stroke-width="0.6" opacity="0.3"/><path d="M 508 154 Q 534.0 168 560 154" fill="none" stroke="#d7e3f4" stroke-width="0.6" opacity="0.3"/><path d="M 560 154 Q 586.0 168 612 154" fill="none" stroke="#d7e3f4" stroke-width="0.6" opacity="0.3"/><rect x="236" y="196" width="428" height="36" fill="url(#quartz)" stroke="#d7e3f4" stroke-width="2" opacity="0.9"/><g stroke="#cfe6f2" stroke-width="0.6" opacity="0.25"><line x1="250" y1="199" x2="236" y2="229"/><line x1="276" y1="199" x2="262" y2="229"/><line x1="302" y1="199" x2="288" y2="229"/><line x1="328" y1="199" x2="314" y2="229"/><line x1="354" y1="199" x2="340" y2="229"/><line x1="380" y1="199" x2="366" y2="229"/><line x1="406" y1="199" x2="392" y2="229"/><line x1="432" y1="199" x2="418" y2="229"/><line x1="458" y1="199" x2="444" y2="229"/><line x1="484" y1="199" x2="470" y2="229"/><line x1="510" y1="199" x2="496" y2="229"/><line x1="536" y1="199" x2="522" y2="229"/><line x1="562" y1="199" x2="548" y2="229"/><line x1="588" y1="199" x2="574" y2="229"/><line x1="614" y1="199" x2="600" y2="229"/><line x1="640" y1="199" x2="626" y2="229"/></g><rect x="222" y="192" width="20" height="44" fill="url(#alv)" stroke="#d7e3f4" stroke-width="1.6" opacity="0.85"/><rect x="658" y="192" width="20" height="44" fill="url(#alv)" stroke="#d7e3f4" stroke-width="1.6" opacity="0.85"/><rect x="290" y="238" width="320" height="16" rx="4" fill="url(#alv)" stroke="#d7e3f4" stroke-width="1.6" opacity="0.85"/><line x1="290" y1="246" x2="610" y2="246" stroke="#d7e3f4" stroke-width="0.6" opacity="0.3"/><circle cx="306" cy="254" r="2.4" fill="#0a0d14" stroke="#d7e3f4" stroke-width="0.9" opacity="0.7"/><line x1="306" y1="257" x2="306" y2="265" stroke="#9fb8d6" stroke-width="0.6" opacity="0.4"/><circle cx="326" cy="254" r="2.4" fill="#0a0d14" stroke="#d7e3f4" stroke-width="0.9" opacity="0.7"/><line x1="326" y1="257" x2="326" y2="265" stroke="#9fb8d6" stroke-width="0.6" opacity="0.4"/><circle cx="346" cy="254" r="2.4" fill="#0a0d14" stroke="#d7e3f4" stroke-width="0.9" opacity="0.7"/><line x1="346" y1="257" x2="346" y2="265" stroke="#9fb8d6" stroke-width="0.6" opacity="0.4"/><circle cx="366" cy="254" r="2.4" fill="#0a0d14" stroke="#d7e3f4" stroke-width="0.9" opacity="0.7"/><line x1="366" y1="257" x2="366" y2="265" stroke="#9fb8d6" stroke-width="0.6" opacity="0.4"/><circle cx="386" cy="254" r="2.4" fill="#0a0d14" stroke="#d7e3f4" stroke-width="0.9" opacity="0.7"/><line x1="386" y1="257" x2="386" y2="265" stroke="#9fb8d6" stroke-width="0.6" opacity="0.4"/><circle cx="406" cy="254" r="2.4" fill="#0a0d14" stroke="#d7e3f4" stroke-width="0.9" opacity="0.7"/><line x1="406" y1="257" x2="406" y2="265" stroke="#9fb8d6" stroke-width="0.6" opacity="0.4"/><circle cx="426" cy="254" r="2.4" fill="#0a0d14" stroke="#d7e3f4" stroke-width="0.9" opacity="0.7"/><line x1="426" y1="257" x2="426" y2="265" stroke="#9fb8d6" stroke-width="0.6" opacity="0.4"/><circle cx="446" cy="254" r="2.4" fill="#0a0d14" stroke="#d7e3f4" stroke-width="0.9" opacity="0.7"/><line x1="446" y1="257" x2="446" y2="265" stroke="#9fb8d6" stroke-width="0.6" opacity="0.4"/><circle cx="466" cy="254" r="2.4" fill="#0a0d14" stroke="#d7e3f4" stroke-width="0.9" opacity="0.7"/><line x1="466" y1="257" x2="466" y2="265" stroke="#9fb8d6" stroke-width="0.6" opacity="0.4"/><circle cx="486" cy="254" r="2.4" fill="#0a0d14" stroke="#d7e3f4" stroke-width="0.9" opacity="0.7"/><line x1="486" y1="257" x2="486" y2="265" stroke="#9fb8d6" stroke-width="0.6" opacity="0.4"/><circle cx="506" cy="254" r="2.4" fill="#0a0d14" stroke="#d7e3f4" stroke-width="0.9" opacity="0.7"/><line x1="506" y1="257" x2="506" y2="265" stroke="#9fb8d6" stroke-width="0.6" opacity="0.4"/><circle cx="526" cy="254" r="2.4" fill="#0a0d14" stroke="#d7e3f4" stroke-width="0.9" opacity="0.7"/><line x1="526" y1="257" x2="526" y2="265" stroke="#9fb8d6" stroke-width="0.6" opacity="0.4"/><circle cx="546" cy="254" r="2.4" fill="#0a0d14" stroke="#d7e3f4" stroke-width="0.9" opacity="0.7"/><line x1="546" y1="257" x2="546" y2="265" stroke="#9fb8d6" stroke-width="0.6" opacity="0.4"/><circle cx="566" cy="254" r="2.4" fill="#0a0d14" stroke="#d7e3f4" stroke-width="0.9" opacity="0.7"/><line x1="566" y1="257" x2="566" y2="265" stroke="#9fb8d6" stroke-width="0.6" opacity="0.4"/><circle cx="586" cy="254" r="2.4" fill="#0a0d14" stroke="#d7e3f4" stroke-width="0.9" opacity="0.7"/><line x1="586" y1="257" x2="586" y2="265" stroke="#9fb8d6" stroke-width="0.6" opacity="0.4"/><circle cx="606" cy="254" r="2.4" fill="#0a0d14" stroke="#d7e3f4" stroke-width="0.9" opacity="0.7"/><line x1="606" y1="257" x2="606" y2="265" stroke="#9fb8d6" stroke-width="0.6" opacity="0.4"/><path d="M 200 246 L 290 246" fill="none" stroke="#d7e3f4" stroke-width="2" opacity="0.9"/><path d="M 200 250 L 284 250" fill="none" stroke="#d7e3f4" stroke-width="1.1" opacity="0.55"/><rect x="176" y="238" width="26" height="20" rx="3" fill="url(#alv)" stroke="#d7e3f4" stroke-width="1.6" opacity="0.85"/><line x1="182" y1="243" x2="196" y2="243" stroke="#d7e3f4" stroke-width="0.6" opacity="0.3"/><line x1="182" y1="253" x2="196" y2="253" stroke="#d7e3f4" stroke-width="0.6" opacity="0.3"/><rect x="224" y="232" width="34" height="384" fill="url(#alu)" stroke="#d7e3f4" stroke-width="2" opacity="0.92"/><g stroke="#8fa2bd" stroke-width="0.6" opacity="0.35"><line x1="248" y1="233" x2="257" y2="242"/><line x1="239" y1="233" x2="257" y2="251"/><line x1="230" y1="233" x2="257" y2="260"/><line x1="225" y1="237" x2="257" y2="269"/><line x1="225" y1="246" x2="257" y2="278"/><line x1="225" y1="255" x2="257" y2="287"/><line x1="225" y1="264" x2="257" y2="296"/><line x1="225" y1="273" x2="257" y2="305"/><line x1="225" y1="282" x2="257" y2="314"/><line x1="225" y1="291" x2="257" y2="323"/><line x1="225" y1="300" x2="257" y2="332"/><line x1="225" y1="309" x2="257" y2="341"/><line x1="225" y1="318" x2="257" y2="350"/><line x1="225" y1="327" x2="257" y2="359"/><line x1="225" y1="336" x2="257" y2="368"/><line x1="225" y1="345" x2="257" y2="377"/><line x1="225" y1="354" x2="257" y2="386"/><line x1="225" y1="363" x2="257" y2="395"/><line x1="225" y1="372" x2="257" y2="404"/><line x1="225" y1="381" x2="257" y2="413"/><line x1="225" y1="390" x2="257" y2="422"/><line x1="225" y1="399" x2="257" y2="431"/><line x1="225" y1="408" x2="257" y2="440"/><line x1="225" y1="417" x2="257" y2="449"/><line x1="225" y1="426" x2="257" y2="458"/><line x1="225" y1="435" x2="257" y2="467"/><line x1="225" y1="444" x2="257" y2="476"/><line x1="225" y1="453" x2="257" y2="485"/><line x1="225" y1="462" x2="257" y2="494"/><line x1="225" y1="471" x2="257" y2="503"/><line x1="225" y1="480" x2="257" y2="512"/><line x1="225" y1="489" x2="257" y2="521"/><line x1="225" y1="498" x2="257" y2="530"/><line x1="225" y1="507" x2="257" y2="539"/><line x1="225" y1="516" x2="257" y2="548"/><line x1="225" y1="525" x2="257" y2="557"/><line x1="225" y1="534" x2="257" y2="566"/><line x1="225" y1="543" x2="257" y2="575"/><line x1="225" y1="552" x2="257" y2="584"/><line x1="225" y1="561" x2="257" y2="593"/><line x1="225" y1="570" x2="257" y2="602"/><line x1="225" y1="579" x2="257" y2="611"/><line x1="225" y1="588" x2="252" y2="615"/><line x1="225" y1="597" x2="243" y2="615"/><line x1="225" y1="606" x2="234" y2="615"/></g><rect x="233" y="256" width="16" height="18" rx="4" fill="#0a0d14" stroke="#d7e3f4" stroke-width="1.1" opacity="0.55"/><path d="M 235 265 q 6 -6 12 0" fill="none" stroke="#6fb8e6" stroke-width="0.7" opacity="0.5"/><rect x="233" y="302" width="16" height="18" rx="4" fill="#0a0d14" stroke="#d7e3f4" stroke-width="1.1" opacity="0.55"/><path d="M 235 311 q 6 -6 12 0" fill="none" stroke="#6fb8e6" stroke-width="0.7" opacity="0.5"/><rect x="233" y="348" width="16" height="18" rx="4" fill="#0a0d14" stroke="#d7e3f4" stroke-width="1.1" opacity="0.55"/><path d="M 235 357 q 6 -6 12 0" fill="none" stroke="#6fb8e6" stroke-width="0.7" opacity="0.5"/><rect x="233" y="394" width="16" height="18" rx="4" fill="#0a0d14" stroke="#d7e3f4" stroke-width="1.1" opacity="0.55"/><path d="M 235 403 q 6 -6 12 0" fill="none" stroke="#6fb8e6" stroke-width="0.7" opacity="0.5"/><rect x="233" y="440" width="16" height="18" rx="4" fill="#0a0d14" stroke="#d7e3f4" stroke-width="1.1" opacity="0.55"/><path d="M 235 449 q 6 -6 12 0" fill="none" stroke="#6fb8e6" stroke-width="0.7" opacity="0.5"/><rect x="233" y="486" width="16" height="18" rx="4" fill="#0a0d14" stroke="#d7e3f4" stroke-width="1.1" opacity="0.55"/><path d="M 235 495 q 6 -6 12 0" fill="none" stroke="#6fb8e6" stroke-width="0.7" opacity="0.5"/><rect x="233" y="532" width="16" height="18" rx="4" fill="#0a0d14" stroke="#d7e3f4" stroke-width="1.1" opacity="0.55"/><path d="M 235 541 q 6 -6 12 0" fill="none" stroke="#6fb8e6" stroke-width="0.7" opacity="0.5"/><rect x="233" y="578" width="16" height="18" rx="4" fill="#0a0d14" stroke="#d7e3f4" stroke-width="1.1" opacity="0.55"/><path d="M 235 587 q 6 -6 12 0" fill="none" stroke="#6fb8e6" stroke-width="0.7" opacity="0.5"/><rect x="642" y="232" width="34" height="384" fill="url(#alu)" stroke="#d7e3f4" stroke-width="2" opacity="0.92"/><g stroke="#8fa2bd" stroke-width="0.6" opacity="0.35"><line x1="666" y1="233" x2="675" y2="242"/><line x1="657" y1="233" x2="675" y2="251"/><line x1="648" y1="233" x2="675" y2="260"/><line x1="643" y1="237" x2="675" y2="269"/><line x1="643" y1="246" x2="675" y2="278"/><line x1="643" y1="255" x2="675" y2="287"/><line x1="643" y1="264" x2="675" y2="296"/><line x1="643" y1="273" x2="675" y2="305"/><line x1="643" y1="282" x2="675" y2="314"/><line x1="643" y1="291" x2="675" y2="323"/><line x1="643" y1="300" x2="675" y2="332"/><line x1="643" y1="309" x2="675" y2="341"/><line x1="643" y1="318" x2="675" y2="350"/><line x1="643" y1="327" x2="675" y2="359"/><line x1="643" y1="336" x2="675" y2="368"/><line x1="643" y1="345" x2="675" y2="377"/><line x1="643" y1="354" x2="675" y2="386"/><line x1="643" y1="363" x2="675" y2="395"/><line x1="643" y1="372" x2="675" y2="404"/><line x1="643" y1="381" x2="675" y2="413"/><line x1="643" y1="390" x2="675" y2="422"/><line x1="643" y1="399" x2="675" y2="431"/><line x1="643" y1="408" x2="675" y2="440"/><line x1="643" y1="417" x2="675" y2="449"/><line x1="643" y1="426" x2="675" y2="458"/><line x1="643" y1="435" x2="675" y2="467"/><line x1="643" y1="444" x2="675" y2="476"/><line x1="643" y1="453" x2="675" y2="485"/><line x1="643" y1="462" x2="675" y2="494"/><line x1="643" y1="471" x2="675" y2="503"/><line x1="643" y1="480" x2="675" y2="512"/><line x1="643" y1="489" x2="675" y2="521"/><line x1="643" y1="498" x2="675" y2="530"/><line x1="643" y1="507" x2="675" y2="539"/><line x1="643" y1="516" x2="675" y2="548"/><line x1="643" y1="525" x2="675" y2="557"/><line x1="643" y1="534" x2="675" y2="566"/><line x1="643" y1="543" x2="675" y2="575"/><line x1="643" y1="552" x2="675" y2="584"/><line x1="643" y1="561" x2="675" y2="593"/><line x1="643" y1="570" x2="675" y2="602"/><line x1="643" y1="579" x2="675" y2="611"/><line x1="643" y1="588" x2="670" y2="615"/><line x1="643" y1="597" x2="661" y2="615"/><line x1="643" y1="606" x2="652" y2="615"/></g><rect x="651" y="256" width="16" height="18" rx="4" fill="#0a0d14" stroke="#d7e3f4" stroke-width="1.1" opacity="0.55"/><path d="M 653 265 q 6 -6 12 0" fill="none" stroke="#6fb8e6" stroke-width="0.7" opacity="0.5"/><rect x="651" y="302" width="16" height="18" rx="4" fill="#0a0d14" stroke="#d7e3f4" stroke-width="1.1" opacity="0.55"/><path d="M 653 311 q 6 -6 12 0" fill="none" stroke="#6fb8e6" stroke-width="0.7" opacity="0.5"/><rect x="651" y="348" width="16" height="18" rx="4" fill="#0a0d14" stroke="#d7e3f4" stroke-width="1.1" opacity="0.55"/><path d="M 653 357 q 6 -6 12 0" fill="none" stroke="#6fb8e6" stroke-width="0.7" opacity="0.5"/><rect x="651" y="394" width="16" height="18" rx="4" fill="#0a0d14" stroke="#d7e3f4" stroke-width="1.1" opacity="0.55"/><path d="M 653 403 q 6 -6 12 0" fill="none" stroke="#6fb8e6" stroke-width="0.7" opacity="0.5"/><rect x="651" y="440" width="16" height="18" rx="4" fill="#0a0d14" stroke="#d7e3f4" stroke-width="1.1" opacity="0.55"/><path d="M 653 449 q 6 -6 12 0" fill="none" stroke="#6fb8e6" stroke-width="0.7" opacity="0.5"/><rect x="651" y="486" width="16" height="18" rx="4" fill="#0a0d14" stroke="#d7e3f4" stroke-width="1.1" opacity="0.55"/><path d="M 653 495 q 6 -6 12 0" fill="none" stroke="#6fb8e6" stroke-width="0.7" opacity="0.5"/><rect x="651" y="532" width="16" height="18" rx="4" fill="#0a0d14" stroke="#d7e3f4" stroke-width="1.1" opacity="0.55"/><path d="M 653 541 q 6 -6 12 0" fill="none" stroke="#6fb8e6" stroke-width="0.7" opacity="0.5"/><rect x="651" y="578" width="16" height="18" rx="4" fill="#0a0d14" stroke="#d7e3f4" stroke-width="1.1" opacity="0.55"/><path d="M 653 587 q 6 -6 12 0" fill="none" stroke="#6fb8e6" stroke-width="0.7" opacity="0.5"/><rect x="224" y="616" width="452" height="36" fill="url(#alv)" stroke="#d7e3f4" stroke-width="2" opacity="0.92"/><g stroke="#8fa2bd" stroke-width="0.6" opacity="0.35"><line x1="666" y1="617" x2="675" y2="626"/><line x1="657" y1="617" x2="675" y2="635"/><line x1="648" y1="617" x2="675" y2="644"/><line x1="639" y1="617" x2="673" y2="651"/><line x1="630" y1="617" x2="664" y2="651"/><line x1="621" y1="617" x2="655" y2="651"/><line x1="612" y1="617" x2="646" y2="651"/><line x1="603" y1="617" x2="637" y2="651"/><line x1="594" y1="617" x2="628" y2="651"/><line x1="585" y1="617" x2="619" y2="651"/><line x1="576" y1="617" x2="610" y2="651"/><line x1="567" y1="617" x2="601" y2="651"/><line x1="558" y1="617" x2="592" y2="651"/><line x1="549" y1="617" x2="583" y2="651"/><line x1="540" y1="617" x2="574" y2="651"/><line x1="531" y1="617" x2="565" y2="651"/><line x1="522" y1="617" x2="556" y2="651"/><line x1="513" y1="617" x2="547" y2="651"/><line x1="504" y1="617" x2="538" y2="651"/><line x1="495" y1="617" x2="529" y2="651"/><line x1="486" y1="617" x2="520" y2="651"/><line x1="477" y1="617" x2="511" y2="651"/><line x1="468" y1="617" x2="502" y2="651"/><line x1="459" y1="617" x2="493" y2="651"/><line x1="450" y1="617" x2="484" y2="651"/><line x1="441" y1="617" x2="475" y2="651"/><line x1="432" y1="617" x2="466" y2="651"/><line x1="423" y1="617" x2="457" y2="651"/><line x1="414" y1="617" x2="448" y2="651"/><line x1="405" y1="617" x2="439" y2="651"/><line x1="396" y1="617" x2="430" y2="651"/><line x1="387" y1="617" x2="421" y2="651"/><line x1="378" y1="617" x2="412" y2="651"/><line x1="369" y1="617" x2="403" y2="651"/><line x1="360" y1="617" x2="394" y2="651"/><line x1="351" y1="617" x2="385" y2="651"/><line x1="342" y1="617" x2="376" y2="651"/><line x1="333" y1="617" x2="367" y2="651"/><line x1="324" y1="617" x2="358" y2="651"/><line x1="315" y1="617" x2="349" y2="651"/><line x1="306" y1="617" x2="340" y2="651"/><line x1="297" y1="617" x2="331" y2="651"/><line x1="288" y1="617" x2="322" y2="651"/><line x1="279" y1="617" x2="313" y2="651"/><line x1="270" y1="617" x2="304" y2="651"/><line x1="261" y1="617" x2="295" y2="651"/><line x1="252" y1="617" x2="286" y2="651"/><line x1="243" y1="617" x2="277" y2="651"/><line x1="234" y1="617" x2="268" y2="651"/><line x1="225" y1="617" x2="259" y2="651"/><line x1="225" y1="626" x2="250" y2="651"/><line x1="225" y1="635" x2="241" y2="651"/><line x1="225" y1="644" x2="232" y2="651"/></g><rect x="224" y="226" width="42" height="10" fill="url(#alv)" stroke="#d7e3f4" stroke-width="1.6" opacity="0.85"/><rect x="634" y="226" width="42" height="10" fill="url(#alv)" stroke="#d7e3f4" stroke-width="1.6" opacity="0.85"/><circle cx="232" cy="231" r="3.2" fill="none" stroke="#d7e3f4" stroke-width="1.2" opacity="0.8"/><line x1="229.8" y1="228.8" x2="234.2" y2="233.2" stroke="#d7e3f4" stroke-width="0.6" opacity="0.3"/><circle cx="246" cy="231" r="3.2" fill="none" stroke="#d7e3f4" stroke-width="1.2" opacity="0.8"/><line x1="243.8" y1="228.8" x2="248.2" y2="233.2" stroke="#d7e3f4" stroke-width="0.6" opacity="0.3"/><circle cx="656" cy="231" r="3.2" fill="none" stroke="#d7e3f4" stroke-width="1.2" opacity="0.8"/><line x1="653.8" y1="228.8" x2="658.2" y2="233.2" stroke="#d7e3f4" stroke-width="0.6" opacity="0.3"/><circle cx="670" cy="231" r="3.2" fill="none" stroke="#d7e3f4" stroke-width="1.2" opacity="0.8"/><line x1="667.8" y1="228.8" x2="672.2" y2="233.2" stroke="#d7e3f4" stroke-width="0.6" opacity="0.3"/><circle cx="215" cy="250" r="4" fill="url(#alv)" stroke="#d7e3f4" stroke-width="1.4" opacity="0.82"/><circle cx="685" cy="250" r="4" fill="url(#alv)" stroke="#d7e3f4" stroke-width="1.4" opacity="0.82"/><circle cx="215" cy="296" r="4" fill="url(#alv)" stroke="#d7e3f4" stroke-width="1.4" opacity="0.82"/><circle cx="685" cy="296" r="4" fill="url(#alv)" stroke="#d7e3f4" stroke-width="1.4" opacity="0.82"/><circle cx="215" cy="342" r="4" fill="url(#alv)" stroke="#d7e3f4" stroke-width="1.4" opacity="0.82"/><circle cx="685" cy="342" r="4" fill="url(#alv)" stroke="#d7e3f4" stroke-width="1.4" opacity="0.82"/><circle cx="215" cy="388" r="4" fill="url(#alv)" stroke="#d7e3f4" stroke-width="1.4" opacity="0.82"/><circle cx="685" cy="388" r="4" fill="url(#alv)" stroke="#d7e3f4" stroke-width="1.4" opacity="0.82"/><circle cx="215" cy="434" r="4" fill="url(#alv)" stroke="#d7e3f4" stroke-width="1.4" opacity="0.82"/><circle cx="685" cy="434" r="4" fill="url(#alv)" stroke="#d7e3f4" stroke-width="1.4" opacity="0.82"/><circle cx="215" cy="480" r="4" fill="url(#alv)" stroke="#d7e3f4" stroke-width="1.4" opacity="0.82"/><circle cx="685" cy="480" r="4" fill="url(#alv)" stroke="#d7e3f4" stroke-width="1.4" opacity="0.82"/><circle cx="215" cy="526" r="4" fill="url(#alv)" stroke="#d7e3f4" stroke-width="1.4" opacity="0.82"/><circle cx="685" cy="526" r="4" fill="url(#alv)" stroke="#d7e3f4" stroke-width="1.4" opacity="0.82"/><circle cx="215" cy="572" r="4" fill="url(#alv)" stroke="#d7e3f4" stroke-width="1.4" opacity="0.82"/><circle cx="685" cy="572" r="4" fill="url(#alv)" stroke="#d7e3f4" stroke-width="1.4" opacity="0.82"/><g stroke="#d7e3f4" stroke-width="0.6" opacity="0.3"><line x1="212.4" y1="250" x2="217.6" y2="250"/><line x1="215" y1="247.4" x2="215" y2="252.6"/><line x1="682.4" y1="250" x2="687.6" y2="250"/><line x1="685" y1="247.4" x2="685" y2="252.6"/><line x1="212.4" y1="296" x2="217.6" y2="296"/><line x1="215" y1="293.4" x2="215" y2="298.6"/><line x1="682.4" y1="296" x2="687.6" y2="296"/><line x1="685" y1="293.4" x2="685" y2="298.6"/><line x1="212.4" y1="342" x2="217.6" y2="342"/><line x1="215" y1="339.4" x2="215" y2="344.6"/><line x1="682.4" y1="342" x2="687.6" y2="342"/><line x1="685" y1="339.4" x2="685" y2="344.6"/><line x1="212.4" y1="388" x2="217.6" y2="388"/><line x1="215" y1="385.4" x2="215" y2="390.6"/><line x1="682.4" y1="388" x2="687.6" y2="388"/><line x1="685" y1="385.4" x2="685" y2="390.6"/><line x1="212.4" y1="434" x2="217.6" y2="434"/><line x1="215" y1="431.4" x2="215" y2="436.6"/><line x1="682.4" y1="434" x2="687.6" y2="434"/><line x1="685" y1="431.4" x2="685" y2="436.6"/><line x1="212.4" y1="480" x2="217.6" y2="480"/><line x1="215" y1="477.4" x2="215" y2="482.6"/><line x1="682.4" y1="480" x2="687.6" y2="480"/><line x1="685" y1="477.4" x2="685" y2="482.6"/><line x1="212.4" y1="526" x2="217.6" y2="526"/><line x1="215" y1="523.4" x2="215" y2="528.6"/><line x1="682.4" y1="526" x2="687.6" y2="526"/><line x1="685" y1="523.4" x2="685" y2="528.6"/><line x1="212.4" y1="572" x2="217.6" y2="572"/><line x1="215" y1="569.4" x2="215" y2="574.6"/><line x1="682.4" y1="572" x2="687.6" y2="572"/><line x1="685" y1="569.4" x2="685" y2="574.6"/></g><ellipse cx="450" cy="352" rx="150" ry="96" fill="url(#plasma)"/><ellipse cx="450" cy="352" rx="120" ry="74" fill="none" stroke="#ff5df0" stroke-width="9" opacity="0.1"/><ellipse cx="450" cy="352" rx="120" ry="74" fill="none" stroke="#ff5df0" stroke-width="4" opacity="0.26"/><ellipse cx="450" cy="352" rx="120" ry="74" fill="none" stroke="#ff5df0" stroke-width="1.4" opacity="0.9"/><circle cx="430.5" cy="374.9" r="0.8" fill="#ffd0f7" opacity="0.39"/><circle cx="521.0" cy="380.1" r="1.0" fill="#ffa8f3" opacity="0.37"/><circle cx="402.2" cy="367.9" r="1.6" fill="#ffd0f7" opacity="0.38"/><circle cx="487.7" cy="373.9" r="0.8" fill="#ffa8f3" opacity="0.67"/><circle cx="500.1" cy="361.5" r="1.0" fill="#ff5df0" opacity="0.51"/><circle cx="368.1" cy="339.4" r="1.0" fill="#ffd0f7" opacity="0.41"/><circle cx="406.1" cy="321.1" r="0.8" fill="#ffd0f7" opacity="0.66"/><circle cx="475.2" cy="404.4" r="1.6" fill="#ffa8f3" opacity="0.78"/><circle cx="385.2" cy="329.3" r="1.3" fill="#ff5df0" opacity="0.49"/><circle cx="432.6" cy="321.1" r="1.3" fill="#ffa8f3" opacity="0.64"/><circle cx="442.3" cy="316.9" r="0.8" fill="#ffa8f3" opacity="0.41"/><circle cx="483.4" cy="385.2" r="1.6" fill="#ffd0f7" opacity="0.58"/><circle cx="523.9" cy="375.1" r="1.3" fill="#ffa8f3" opacity="0.54"/><circle cx="379.3" cy="323.9" r="1.6" fill="#ff5df0" opacity="0.39"/><circle cx="522.5" cy="336.5" r="0.8" fill="#ffd0f7" opacity="0.38"/><circle cx="418.9" cy="398.7" r="1.6" fill="#ffa8f3" opacity="0.51"/><circle cx="500.0" cy="326.7" r="1.6" fill="#ffd0f7" opacity="0.55"/><circle cx="470.2" cy="362.8" r="1.3" fill="#ff5df0" opacity="0.42"/><circle cx="364.1" cy="389.8" r="1.6" fill="#ffa8f3" opacity="0.39"/><circle cx="401.9" cy="372.2" r="1.0" fill="#ffd0f7" opacity="0.80"/><circle cx="437.2" cy="393.9" r="1.3" fill="#ffa8f3" opacity="0.73"/><circle cx="492.0" cy="345.3" r="1.0" fill="#ffd0f7" opacity="0.43"/><circle cx="458.2" cy="397.7" r="1.0" fill="#ff5df0" opacity="0.49"/><circle cx="499.9" cy="390.3" r="1.3" fill="#ffd0f7" opacity="0.87"/><circle cx="519.2" cy="302.2" r="0.8" fill="#ffd0f7" opacity="0.60"/><circle cx="470.8" cy="312.5" r="1.6" fill="#ffa8f3" opacity="0.57"/><circle cx="431.4" cy="339.7" r="0.8" fill="#ffa8f3" opacity="0.89"/><circle cx="484.2" cy="384.8" r="0.8" fill="#ffd0f7" opacity="0.41"/><circle cx="470.7" cy="369.1" r="1.3" fill="#ff5df0" opacity="0.69"/><circle cx="511.8" cy="315.3" r="1.0" fill="#ffa8f3" opacity="0.70"/><circle cx="388.3" cy="324.8" r="0.8" fill="#ffa8f3" opacity="0.82"/><circle cx="387.9" cy="356.5" r="1.0" fill="#ffa8f3" opacity="0.41"/><circle cx="445.3" cy="306.4" r="1.0" fill="#ff5df0" opacity="0.63"/><circle cx="527.6" cy="337.5" r="1.0" fill="#ff5df0" opacity="0.73"/><circle cx="453.1" cy="316.0" r="0.8" fill="#ffa8f3" opacity="0.73"/><circle cx="344.0" cy="344.8" r="1.3" fill="#ffd0f7" opacity="0.77"/><circle cx="373.3" cy="339.9" r="1.0" fill="#ff5df0" opacity="0.69"/><circle cx="485.0" cy="296.0" r="1.0" fill="#ffa8f3" opacity="0.46"/><circle cx="438.3" cy="360.9" r="0.8" fill="#ffa8f3" opacity="0.78"/><circle cx="444.6" cy="406.8" r="1.3" fill="#ffd0f7" opacity="0.60"/><circle cx="559.1" cy="347.1" r="1.3" fill="#ff5df0" opacity="0.39"/><circle cx="457.2" cy="381.0" r="1.0" fill="#ffd0f7" opacity="0.62"/><g stroke="#ff9cef" stroke-width="0.6" opacity="0.4"><line x1="471.5" y1="330.1" x2="503.8" y2="301.4"/><line x1="410.3" y1="355.3" x2="350.8" y2="359.7"/><line x1="427.1" y1="330.7" x2="392.7" y2="302.8"/><line x1="462.3" y1="327.3" x2="480.7" y2="294.9"/><line x1="484.5" y1="365.2" x2="536.1" y2="382.5"/><line x1="428.7" y1="330.0" x2="396.7" y2="301.2"/></g><path d="M 300 452 Q 450 462 600 452" fill="none" stroke="#ff5df0" stroke-width="1.4" opacity="0.7"/><path d="M 300 458 Q 450 468 600 458" fill="none" stroke="#ff5df0" stroke-width="3" opacity="0.16"/><g stroke="#ff5df0" stroke-width="3.4" opacity="0.1"><line x1="316.0" y1="466" x2="316.0" y2="498"/><line x1="342.8" y1="466" x2="342.8" y2="498"/><line x1="369.6" y1="466" x2="369.6" y2="498"/><line x1="396.4" y1="466" x2="396.4" y2="498"/><line x1="423.2" y1="466" x2="423.2" y2="498"/><line x1="450.0" y1="466" x2="450.0" y2="498"/><line x1="476.8" y1="466" x2="476.8" y2="498"/><line x1="503.6" y1="466" x2="503.6" y2="498"/><line x1="530.4" y1="466" x2="530.4" y2="498"/><line x1="557.2" y1="466" x2="557.2" y2="498"/><line x1="584.0" y1="466" x2="584.0" y2="498"/></g><g stroke="#ff9cef" stroke-width="1.4" opacity="0.88" fill="none"><line x1="316.0" y1="466" x2="316.0" y2="498"/><path d="M 312.8 492 L 316.0 498 L 319.2 492"/><line x1="342.8" y1="466" x2="342.8" y2="498"/><path d="M 339.6 492 L 342.8 498 L 346.0 492"/><line x1="369.6" y1="466" x2="369.6" y2="498"/><path d="M 366.4 492 L 369.6 498 L 372.8 492"/><line x1="396.4" y1="466" x2="396.4" y2="498"/><path d="M 393.2 492 L 396.4 498 L 399.6 492"/><line x1="423.2" y1="466" x2="423.2" y2="498"/><path d="M 420.0 492 L 423.2 498 L 426.4 492"/><line x1="450.0" y1="466" x2="450.0" y2="498"/><path d="M 446.8 492 L 450.0 498 L 453.2 492"/><line x1="476.8" y1="466" x2="476.8" y2="498"/><path d="M 473.6 492 L 476.8 498 L 480.0 492"/><line x1="503.6" y1="466" x2="503.6" y2="498"/><path d="M 500.4 492 L 503.6 498 L 506.8 492"/><line x1="530.4" y1="466" x2="530.4" y2="498"/><path d="M 527.2 492 L 530.4 498 L 533.6 492"/><line x1="557.2" y1="466" x2="557.2" y2="498"/><path d="M 554.0 492 L 557.2 498 L 560.4 492"/><line x1="584.0" y1="466" x2="584.0" y2="498"/><path d="M 580.8 492 L 584.0 498 L 587.2 492"/></g><rect x="316" y="504" width="268" height="7" rx="2" fill="#8f9bb0" stroke="#d7e3f4" stroke-width="1.6" opacity="0.9"/><line x1="316" y1="507.5" x2="584" y2="507.5" stroke="#cdd8e8" stroke-width="0.6" opacity="0.5"/><path d="M 300 512 l 16 0 l 0 -9 l -6 0 l 0 -4 l -10 0 z" fill="url(#alv)" stroke="#d7e3f4" stroke-width="1.4" opacity="0.85"/><path d="M 584 512 l 16 0 l 0 -4 l -6 0 l 0 -9 l -10 0 z" fill="url(#alv)" stroke="#d7e3f4" stroke-width="1.4" opacity="0.85"/><rect x="308" y="511" width="284" height="81" rx="4" fill="url(#chuck)" stroke="#d7e3f4" stroke-width="2" opacity="0.92"/><g stroke="#8fa2bd" stroke-width="0.6" opacity="0.35"><line x1="582" y1="512" x2="591" y2="521"/><line x1="573" y1="512" x2="591" y2="530"/><line x1="564" y1="512" x2="591" y2="539"/><line x1="555" y1="512" x2="591" y2="548"/><line x1="546" y1="512" x2="591" y2="557"/><line x1="537" y1="512" x2="591" y2="566"/><line x1="528" y1="512" x2="591" y2="575"/><line x1="519" y1="512" x2="591" y2="584"/><line x1="510" y1="512" x2="589" y2="591"/><line x1="501" y1="512" x2="580" y2="591"/><line x1="492" y1="512" x2="571" y2="591"/><line x1="483" y1="512" x2="562" y2="591"/><line x1="474" y1="512" x2="553" y2="591"/><line x1="465" y1="512" x2="544" y2="591"/><line x1="456" y1="512" x2="535" y2="591"/><line x1="447" y1="512" x2="526" y2="591"/><line x1="438" y1="512" x2="517" y2="591"/><line x1="429" y1="512" x2="508" y2="591"/><line x1="420" y1="512" x2="499" y2="591"/><line x1="411" y1="512" x2="490" y2="591"/><line x1="402" y1="512" x2="481" y2="591"/><line x1="393" y1="512" x2="472" y2="591"/><line x1="384" y1="512" x2="463" y2="591"/><line x1="375" y1="512" x2="454" y2="591"/><line x1="366" y1="512" x2="445" y2="591"/><line x1="357" y1="512" x2="436" y2="591"/><line x1="348" y1="512" x2="427" y2="591"/><line x1="339" y1="512" x2="418" y2="591"/><line x1="330" y1="512" x2="409" y2="591"/><line x1="321" y1="512" x2="400" y2="591"/><line x1="312" y1="512" x2="391" y2="591"/><line x1="309" y1="518" x2="382" y2="591"/><line x1="309" y1="527" x2="373" y2="591"/><line x1="309" y1="536" x2="364" y2="591"/><line x1="309" y1="545" x2="355" y2="591"/><line x1="309" y1="554" x2="346" y2="591"/><line x1="309" y1="563" x2="337" y2="591"/><line x1="309" y1="572" x2="328" y2="591"/><line x1="309" y1="581" x2="319" y2="591"/><line x1="309" y1="590" x2="310" y2="591"/></g><rect x="308" y="511" width="284" height="9" fill="#b9c6d8" stroke="#d7e3f4" stroke-width="1.1" opacity="0.55"/><rect x="326" y="524" width="120" height="6" rx="2" fill="#d97a3c" stroke="#d7e3f4" stroke-width="1.1" opacity="0.55"/><rect x="454" y="524" width="112" height="6" rx="2" fill="#6fb8e6" stroke="#d7e3f4" stroke-width="1.1" opacity="0.55"/><path d="M 328 541 h 250 v 10 h -250 v 10 h 250" fill="none" stroke="#6fb8e6" stroke-width="1" opacity="0.5"/><circle cx="348" cy="514" r="2" fill="#0a0d14" stroke="#d7e3f4" stroke-width="0.9" opacity="0.7"/><line x1="348" y1="541" x2="348" y2="592" stroke="#d7e3f4" stroke-width="0.6" opacity="0.3"/><circle cx="450" cy="514" r="2" fill="#0a0d14" stroke="#d7e3f4" stroke-width="0.9" opacity="0.7"/><line x1="450" y1="541" x2="450" y2="592" stroke="#d7e3f4" stroke-width="0.6" opacity="0.3"/><circle cx="552" cy="514" r="2" fill="#0a0d14" stroke="#d7e3f4" stroke-width="0.9" opacity="0.7"/><line x1="552" y1="541" x2="552" y2="592" stroke="#d7e3f4" stroke-width="0.6" opacity="0.3"/><path d="M 450 592 L 450 636" fill="none" stroke="#d7e3f4" stroke-width="1.1" opacity="0.55"/><rect x="368" y="592" width="164" height="14" fill="url(#alv)" stroke="#d7e3f4" stroke-width="2" opacity="0.9"/><g stroke="#8fa2bd" stroke-width="0.6" opacity="0.35"><line x1="369" y1="600" x2="376" y2="593"/><line x1="371" y1="605" x2="383" y2="593"/><line x1="378" y1="605" x2="390" y2="593"/><line x1="385" y1="605" x2="397" y2="593"/><line x1="392" y1="605" x2="404" y2="593"/><line x1="399" y1="605" x2="411" y2="593"/><line x1="406" y1="605" x2="418" y2="593"/><line x1="413" y1="605" x2="425" y2="593"/><line x1="420" y1="605" x2="432" y2="593"/><line x1="427" y1="605" x2="439" y2="593"/><line x1="434" y1="605" x2="446" y2="593"/><line x1="441" y1="605" x2="453" y2="593"/><line x1="448" y1="605" x2="460" y2="593"/><line x1="455" y1="605" x2="467" y2="593"/><line x1="462" y1="605" x2="474" y2="593"/><line x1="469" y1="605" x2="481" y2="593"/><line x1="476" y1="605" x2="488" y2="593"/><line x1="483" y1="605" x2="495" y2="593"/><line x1="490" y1="605" x2="502" y2="593"/><line x1="497" y1="605" x2="509" y2="593"/><line x1="504" y1="605" x2="516" y2="593"/><line x1="511" y1="605" x2="523" y2="593"/><line x1="518" y1="605" x2="530" y2="593"/><line x1="525" y1="605" x2="531" y2="599"/></g><rect x="430" y="606" width="40" height="40" fill="#5a4a3a" stroke="#d7e3f4" stroke-width="1.4" opacity="0.82"/><line x1="430" y1="610" x2="470" y2="610" stroke="#d7e3f4" stroke-width="0.6" opacity="0.3"/><line x1="430" y1="617" x2="470" y2="617" stroke="#d7e3f4" stroke-width="0.6" opacity="0.3"/><line x1="430" y1="624" x2="470" y2="624" stroke="#d7e3f4" stroke-width="0.6" opacity="0.3"/><line x1="430" y1="631" x2="470" y2="631" stroke="#d7e3f4" stroke-width="0.6" opacity="0.3"/><line x1="430" y1="638" x2="470" y2="638" stroke="#d7e3f4" stroke-width="0.6" opacity="0.3"/><line x1="450" y1="606" x2="450" y2="690" stroke="#d7e3f4" stroke-width="2" opacity="0.9"/><line x1="446" y1="646" x2="446" y2="690" stroke="#d7e3f4" stroke-width="1.1" opacity="0.55"/><rect x="360" y="690" width="320" height="150" rx="6" fill="none" stroke="#d7e3f4" stroke-width="2" opacity="0.9"/><rect x="364" y="694" width="312" height="142" rx="4" fill="none" stroke="#d7e3f4" stroke-width="0.6" opacity="0.3"/><line x1="450" y1="690" x2="450" y2="712" stroke="#d7e3f4" stroke-width="2" opacity="0.9"/><line x1="380" y1="712" x2="660" y2="712" stroke="#d7e3f4" stroke-width="1.6" opacity="0.85"/><line x1="410" y1="712" x2="410" y2="740" stroke="#d7e3f4" stroke-width="1.6" opacity="0.85"/><line x1="396" y1="740" x2="424" y2="740" stroke="#d7e3f4" stroke-width="2" opacity="0.9"/><line x1="396" y1="747" x2="424" y2="747" stroke="#d7e3f4" stroke-width="2" opacity="0.9"/><line x1="410" y1="747" x2="410" y2="792" stroke="#d7e3f4" stroke-width="1.6" opacity="0.85"/><line x1="392" y1="752" x2="428" y2="735" stroke="#d7e3f4" stroke-width="1" opacity="0.6"/><path d="M 428 735 l -6 0 l 3 5 z" fill="#d7e3f4" opacity="0.6"/><path d="M 500 712 q 8 -14 16 0 q 8 -14 16 0 q 8 -14 16 0 q 8 -14 16 0" fill="none" stroke="#d7e3f4" stroke-width="2" opacity="0.9"/><line x1="564" y1="712" x2="620" y2="712" stroke="#d7e3f4" stroke-width="1.6" opacity="0.85"/><line x1="596" y1="712" x2="596" y2="736" stroke="#d7e3f4" stroke-width="1.6" opacity="0.85"/><line x1="582" y1="736" x2="610" y2="736" stroke="#d7e3f4" stroke-width="2" opacity="0.9"/><path d="M 582 743 q 14 6 28 0" fill="none" stroke="#d7e3f4" stroke-width="2" opacity="0.9"/><line x1="596" y1="743" x2="596" y2="792" stroke="#d7e3f4" stroke-width="1.6" opacity="0.85"/><line x1="410" y1="792" x2="596" y2="792" stroke="#d7e3f4" stroke-width="1.6" opacity="0.85"/><line x1="486" y1="792" x2="522" y2="792" stroke="#d7e3f4" stroke-width="2" opacity="0.9"/><line x1="491" y1="798" x2="517" y2="798" stroke="#d7e3f4" stroke-width="1.1" opacity="0.55"/><line x1="497" y1="804" x2="511" y2="804" stroke="#d7e3f4" stroke-width="0.6" opacity="0.3"/><line x1="504" y1="778" x2="504" y2="792" stroke="#d7e3f4" stroke-width="1.1" opacity="0.55"/><line x1="620" y1="712" x2="640" y2="712" stroke="#d7e3f4" stroke-width="2" opacity="0.9"/><circle cx="656" cy="712" r="16" fill="none" stroke="#d7e3f4" stroke-width="2" opacity="0.9"/><path d="M 646 712 q 5 -9 10 0 q 5 9 10 0" fill="none" stroke="#d7e3f4" stroke-width="1.6" opacity="0.85"/><rect x="676" y="540" width="84" height="60" fill="url(#alv)" stroke="#d7e3f4" stroke-width="2" opacity="0.92"/><g stroke="#8fa2bd" stroke-width="0.6" opacity="0.35"><line x1="751" y1="541" x2="759" y2="549"/><line x1="743" y1="541" x2="759" y2="557"/><line x1="735" y1="541" x2="759" y2="565"/><line x1="727" y1="541" x2="759" y2="573"/><line x1="719" y1="541" x2="759" y2="581"/><line x1="711" y1="541" x2="759" y2="589"/><line x1="703" y1="541" x2="759" y2="597"/><line x1="695" y1="541" x2="753" y2="599"/><line x1="687" y1="541" x2="745" y2="599"/><line x1="679" y1="541" x2="737" y2="599"/><line x1="677" y1="547" x2="729" y2="599"/><line x1="677" y1="555" x2="721" y2="599"/><line x1="677" y1="563" x2="713" y2="599"/><line x1="677" y1="571" x2="705" y2="599"/><line x1="677" y1="579" x2="697" y2="599"/><line x1="677" y1="587" x2="689" y2="599"/><line x1="677" y1="595" x2="681" y2="599"/></g><rect x="674" y="558" width="54" height="24" fill="#0a0d14" stroke="#d7e3f4" stroke-width="1.1" opacity="0.55"/><circle cx="808" cy="570" r="44" fill="none" stroke="#d7e3f4" stroke-width="2" opacity="0.92"/><circle cx="808" cy="570" r="38" fill="none" stroke="#d7e3f4" stroke-width="1.1" opacity="0.55"/><circle cx="808" cy="570" r="7" fill="url(#alv)" stroke="#d7e3f4" stroke-width="1.4" opacity="0.85"/><g stroke="#d7e3f4" stroke-width="1" opacity="0.55"><line x1="816.0" y1="570.0" x2="840.5" y2="587.7"/><line x1="815.2" y1="573.5" x2="829.6" y2="600.1"/><line x1="813.0" y1="576.3" x2="814.4" y2="606.4"/><line x1="809.8" y1="577.8" x2="797.9" y2="605.6"/><line x1="806.2" y1="577.8" x2="783.5" y2="597.7"/><line x1="803.0" y1="576.3" x2="773.9" y2="584.3"/><line x1="800.8" y1="573.5" x2="771.0" y2="568.1"/><line x1="800.0" y1="570.0" x2="775.5" y2="552.3"/><line x1="800.8" y1="566.5" x2="786.4" y2="539.9"/><line x1="803.0" y1="563.7" x2="801.6" y2="533.6"/><line x1="806.2" y1="562.2" x2="818.1" y2="534.4"/><line x1="809.8" y1="562.2" x2="832.5" y2="542.3"/><line x1="813.0" y1="563.7" x2="842.1" y2="555.7"/><line x1="815.2" y1="566.5" x2="845.0" y2="571.9"/></g><circle cx="682" cy="546" r="3" fill="none" stroke="#d7e3f4" stroke-width="1.2" opacity="0.8"/><circle cx="682" cy="594" r="3" fill="none" stroke="#d7e3f4" stroke-width="1.2" opacity="0.8"/><rect x="150" y="470" width="74" height="50" fill="url(#alv)" stroke="#d7e3f4" stroke-width="2" opacity="0.92"/><g stroke="#8fa2bd" stroke-width="0.6" opacity="0.35"><line x1="215" y1="471" x2="223" y2="479"/><line x1="207" y1="471" x2="223" y2="487"/><line x1="199" y1="471" x2="223" y2="495"/><line x1="191" y1="471" x2="223" y2="503"/><line x1="183" y1="471" x2="223" y2="511"/><line x1="175" y1="471" x2="223" y2="519"/><line x1="167" y1="471" x2="215" y2="519"/><line x1="159" y1="471" x2="207" y2="519"/><line x1="151" y1="471" x2="199" y2="519"/><line x1="151" y1="479" x2="191" y2="519"/><line x1="151" y1="487" x2="183" y2="519"/><line x1="151" y1="495" x2="175" y2="519"/><line x1="151" y1="503" x2="167" y2="519"/><line x1="151" y1="511" x2="159" y2="519"/></g><rect x="170" y="486" width="58" height="18" fill="#0a0d14" stroke="#d7e3f4" stroke-width="1.1" opacity="0.55"/><rect x="176" y="440" width="14" height="52" fill="url(#chuck)" stroke="#d7e3f4" stroke-width="1.6" opacity="0.85"/><line x1="183" y1="440" x2="183" y2="412" stroke="#d7e3f4" stroke-width="2" opacity="0.9"/><rect x="172" y="400" width="22" height="12" rx="2" fill="url(#alv)" stroke="#d7e3f4" stroke-width="1.4" opacity="0.85"/><line x1="158" y1="472" x2="158" y2="518" stroke="#d7e3f4" stroke-width="0.6" opacity="0.3"/><rect x="194" y="300" width="34" height="44" rx="4" fill="url(#alv)" stroke="#d7e3f4" stroke-width="1.6" opacity="0.85"/><rect x="200" y="306" width="20" height="32" rx="3" fill="url(#quartz)" stroke="#d7e3f4" stroke-width="1.2" opacity="0.8"/><line x1="200" y1="309" x2="218" y2="301" stroke="#cfe6f2" stroke-width="0.5" opacity="0.3"/><line x1="200" y1="315" x2="218" y2="307" stroke="#cfe6f2" stroke-width="0.5" opacity="0.3"/><line x1="200" y1="321" x2="218" y2="313" stroke="#cfe6f2" stroke-width="0.5" opacity="0.3"/><line x1="200" y1="327" x2="218" y2="319" stroke="#cfe6f2" stroke-width="0.5" opacity="0.3"/><line x1="200" y1="333" x2="218" y2="325" stroke="#cfe6f2" stroke-width="0.5" opacity="0.3"/><circle cx="197" cy="304" r="2.4" fill="none" stroke="#d7e3f4" stroke-width="1.1" opacity="0.75"/><circle cx="197" cy="340" r="2.4" fill="none" stroke="#d7e3f4" stroke-width="1.1" opacity="0.75"/><line x1="450" y1="70" x2="450" y2="700" stroke="#d7e3f4" stroke-width="0.6" opacity="0.22" stroke-dasharray="10 6 2 6"/></svg><circle cx="616.0" cy="213.4" r="2.6" fill="#ff5df0" opacity="0.9"/><path d="M 616.0 213.4 L 360 212" stroke="#d7e3f4" stroke-width="0.9" opacity="0.5" fill="none"/><circle cx="580.1" cy="468.2" r="2.6" fill="#ff5df0" opacity="0.9"/><path d="M 580.1 468.2 L 360 442" stroke="#d7e3f4" stroke-width="0.9" opacity="0.5" fill="none"/><circle cx="607.7" cy="540.0" r="2.6" fill="#ff5df0" opacity="0.9"/><path d="M 607.7 540.0 L 360 524" stroke="#d7e3f4" stroke-width="0.9" opacity="0.5" fill="none"/><circle cx="558.0" cy="627.4" r="2.6" fill="#ff5df0" opacity="0.9"/><path d="M 558.0 627.4 L 360 612" stroke="#d7e3f4" stroke-width="0.9" opacity="0.5" fill="none"/><circle cx="805.5" cy="299.0" r="2.6" fill="#ff5df0" opacity="0.9"/><path d="M 805.5 299.0 L 1330 290" stroke="#d7e3f4" stroke-width="0.9" opacity="0.5" fill="none"/><circle cx="800.0" cy="379.0" r="2.6" fill="#ff5df0" opacity="0.9"/><path d="M 800.0 379.0 L 1330 372" stroke="#d7e3f4" stroke-width="0.9" opacity="0.5" fill="none"/><circle cx="800.0" cy="495.8" r="2.6" fill="#ff5df0" opacity="0.9"/><path d="M 800.0 495.8 L 1330 458" stroke="#d7e3f4" stroke-width="0.9" opacity="0.5" fill="none"/><circle cx="800.0" cy="597.0" r="2.6" fill="#ff5df0" opacity="0.9"/><path d="M 800.0 597.0 L 1330 552" stroke="#d7e3f4" stroke-width="0.9" opacity="0.5" fill="none"/><circle cx="800.0" cy="638.4" r="2.6" fill="#ff5df0" opacity="0.9"/><path d="M 800.0 638.4 L 1330 628" stroke="#d7e3f4" stroke-width="0.9" opacity="0.5" fill="none"/><circle cx="800.0" cy="679.8" r="2.6" fill="#ff5df0" opacity="0.9"/><path d="M 800.0 679.8 L 1330 700" stroke="#d7e3f4" stroke-width="0.9" opacity="0.5" fill="none"/><circle cx="1129.4" cy="696.4" r="2.6" fill="#ff5df0" opacity="0.9"/><path d="M 1129.4 696.4 L 1330 770" stroke="#d7e3f4" stroke-width="0.9" opacity="0.5" fill="none"/><circle cx="848.8" cy="862.0" r="2.6" fill="#ff5df0" opacity="0.9"/><path d="M 848.8 862.0 L 770 897" stroke="#d7e3f4" stroke-width="0.9" opacity="0.5" fill="none"/><text x="348" y="218" text-anchor="end" font-family="'IBM Plex Mono','JetBrains Mono',ui-monospace,Consolas,monospace" font-size="19" font-weight="600" fill="#e8eef7" fill-opacity="0.95">ICP POWER</text><text x="348" y="448" text-anchor="end" font-family="'IBM Plex Mono','JetBrains Mono',ui-monospace,Consolas,monospace" font-size="19" font-weight="600" fill="#e8eef7" fill-opacity="0.95">VIEWPORT</text><text x="348" y="530" text-anchor="end" font-family="'IBM Plex Mono','JetBrains Mono',ui-monospace,Consolas,monospace" font-size="19" font-weight="600" fill="#e8eef7" fill-opacity="0.95">AL CHAMBER</text><text x="348" y="618" text-anchor="end" font-family="'IBM Plex Mono','JetBrains Mono',ui-monospace,Consolas,monospace" font-size="19" font-weight="600" fill="#e8eef7" fill-opacity="0.95">GATE VALVE</text><text x="1342" y="296" text-anchor="start" font-family="'IBM Plex Mono','JetBrains Mono',ui-monospace,Consolas,monospace" font-size="19" font-weight="600" fill="#e8eef7" fill-opacity="0.95">WATER-COOLED COIL</text><text x="1342" y="378" text-anchor="start" font-family="'IBM Plex Mono','JetBrains Mono',ui-monospace,Consolas,monospace" font-size="19" font-weight="600" fill="#e8eef7" fill-opacity="0.95">WINDOW + INJECTOR</text><text x="1342" y="464" text-anchor="start" font-family="'IBM Plex Mono','JetBrains Mono',ui-monospace,Consolas,monospace" font-size="19" font-weight="600" fill="#e8eef7" fill-opacity="0.95">PLASMA BULK</text><text x="1342" y="558" text-anchor="start" font-family="'IBM Plex Mono','JetBrains Mono',ui-monospace,Consolas,monospace" font-size="19" font-weight="600" fill="#e8eef7" fill-opacity="0.95">SHEATH · ANISOTROPY</text><text x="1342" y="634" text-anchor="start" font-family="'IBM Plex Mono','JetBrains Mono',ui-monospace,Consolas,monospace" font-size="19" font-weight="600" fill="#e8eef7" fill-opacity="0.95">WAFER + EDGE RING</text><text x="1342" y="706" text-anchor="start" font-family="'IBM Plex Mono','JetBrains Mono',ui-monospace,Consolas,monospace" font-size="19" font-weight="600" fill="#e8eef7" fill-opacity="0.95">ESC + HE BACKSIDE</text><text x="1342" y="776" text-anchor="start" font-family="'IBM Plex Mono','JetBrains Mono',ui-monospace,Consolas,monospace" font-size="19" font-weight="600" fill="#e8eef7" fill-opacity="0.95">TURBO PUMP</text><text x="770" y="923" text-anchor="middle" font-family="'IBM Plex Mono','JetBrains Mono',ui-monospace,Consolas,monospace" font-size="19" font-weight="600" fill="#e8eef7" fill-opacity="0.95">BIAS + MATCH NETWORK</text><text x="30" y="1042" font-family="'IBM Plex Mono','JetBrains Mono',ui-monospace,Consolas,monospace" font-size="17" font-weight="500" letter-spacing="0.5" fill="#e8eef7" fill-opacity="0.85">FIG. 6 — Etching straight down: the sheath field aims every ion</text></svg>