<svg xmlns="http://www.w3.org/2000/svg" viewBox="0 0 1600 1060" role="img"><svg x="280.0" y="84.5" width="1040.0" height="850.9" viewBox="0 0 1100 900"><defs><linearGradient id="gTop" x1="0" y1="0" x2="0.6" y2="1"><stop offset="0" stop-color="#2b3c50"/><stop offset="1" stop-color="#1a2432"/></linearGradient><linearGradient id="gRight" x1="0" y1="0" x2="1" y2="0.5"><stop offset="0" stop-color="#1c2734"/><stop offset="1" stop-color="#111923"/></linearGradient><linearGradient id="gLeft" x1="0" y1="0" x2="1" y2="0.5"><stop offset="0" stop-color="#0f151d"/><stop offset="1" stop-color="#080c11"/></linearGradient><radialGradient id="gPlasma" cx="0.5" cy="0.5" r="0.5"><stop offset="0" stop-color="#ffffff"/><stop offset="0.4" stop-color="#ff5d73"/><stop offset="1" stop-color="#ff5d73" stop-opacity="0"/></radialGradient><radialGradient id="gEUV" cx="0.5" cy="0.5" r="0.5"><stop offset="0" stop-color="#ffffff"/><stop offset="0.5" stop-color="#b18cff"/><stop offset="1" stop-color="#b18cff" stop-opacity="0"/></radialGradient></defs><ellipse cx="550" cy="694.54" rx="252.22" ry="76.76" fill="#000000" opacity="0.16"/><ellipse cx="550" cy="692.9" rx="213.84" ry="63.6" fill="#000000" opacity="0.22"/><polygon points="531.01,436.84 853.9,623.26 568.99,787.75 246.1,601.33" fill="#0e141c" stroke="#d7e3f4" stroke-width="1.4" opacity="0.5"/><line x1="577.13" y1="463.47" x2="292.23" y2="627.96" stroke="#d7e3f4" stroke-width="0.6" opacity="0.12"/><line x1="623.26" y1="490.1" x2="338.36" y2="654.6" stroke="#d7e3f4" stroke-width="0.6" opacity="0.12"/><line x1="669.39" y1="516.74" x2="384.48" y2="681.23" stroke="#d7e3f4" stroke-width="0.6" opacity="0.12"/><line x1="715.52" y1="543.37" x2="430.61" y2="707.86" stroke="#d7e3f4" stroke-width="0.6" opacity="0.12"/><line x1="761.64" y1="570" x2="476.74" y2="734.49" stroke="#d7e3f4" stroke-width="0.6" opacity="0.12"/><line x1="807.77" y1="596.63" x2="522.87" y2="761.12" stroke="#d7e3f4" stroke-width="0.6" opacity="0.12"/><line x1="483.52" y1="464.26" x2="806.42" y2="650.68" stroke="#d7e3f4" stroke-width="0.6" opacity="0.12"/><line x1="436.04" y1="491.67" x2="758.93" y2="678.09" stroke="#d7e3f4" stroke-width="0.6" opacity="0.12"/><line x1="388.55" y1="519.09" x2="711.45" y2="705.51" stroke="#d7e3f4" stroke-width="0.6" opacity="0.12"/><line x1="341.07" y1="546.5" x2="663.96" y2="732.92" stroke="#d7e3f4" stroke-width="0.6" opacity="0.12"/><line x1="293.58" y1="573.92" x2="616.48" y2="760.34" stroke="#d7e3f4" stroke-width="0.6" opacity="0.12"/><polygon points="246.1,601.33 568.99,787.75 568.99,623.26 246.1,436.84" fill="url(#gLeft)" stroke="#d7e3f4" stroke-width="1" opacity="0.6"/><circle cx="292.23" cy="597.81" r="2.4" fill="#18212d" stroke="#d7e3f4" stroke-width="0.6" opacity="0.4"/><circle cx="338.36" cy="624.44" r="2.4" fill="#18212d" stroke="#d7e3f4" stroke-width="0.6" opacity="0.4"/><circle cx="384.48" cy="651.07" r="2.4" fill="#18212d" stroke="#d7e3f4" stroke-width="0.6" opacity="0.4"/><circle cx="430.61" cy="677.7" r="2.4" fill="#18212d" stroke="#d7e3f4" stroke-width="0.6" opacity="0.4"/><circle cx="476.74" cy="704.33" r="2.4" fill="#18212d" stroke="#d7e3f4" stroke-width="0.6" opacity="0.4"/><circle cx="522.87" cy="730.97" r="2.4" fill="#18212d" stroke="#d7e3f4" stroke-width="0.6" opacity="0.4"/><line x1="326.82" y1="647.94" x2="326.82" y2="483.45" stroke="#d7e3f4" stroke-width="0.6" opacity="0.22"/><line x1="407.55" y1="694.54" x2="407.55" y2="530.05" stroke="#d7e3f4" stroke-width="0.6" opacity="0.22"/><line x1="488.27" y1="741.15" x2="488.27" y2="576.66" stroke="#d7e3f4" stroke-width="0.6" opacity="0.22"/><polygon points="853.9,623.26 568.99,787.75 568.99,661.64 853.9,497.15" fill="url(#gRight)" stroke="#d7e3f4" stroke-width="1" opacity="0.6"/><circle cx="806.42" cy="623.26" r="2.4" fill="#1d2734" stroke="#d7e3f4" stroke-width="0.6" opacity="0.4"/><circle cx="758.93" cy="650.68" r="2.4" fill="#1d2734" stroke="#d7e3f4" stroke-width="0.6" opacity="0.4"/><circle cx="711.45" cy="678.09" r="2.4" fill="#1d2734" stroke="#d7e3f4" stroke-width="0.6" opacity="0.4"/><circle cx="663.96" cy="705.51" r="2.4" fill="#1d2734" stroke="#d7e3f4" stroke-width="0.6" opacity="0.4"/><circle cx="616.48" cy="732.92" r="2.4" fill="#1d2734" stroke="#d7e3f4" stroke-width="0.6" opacity="0.4"/><line x1="531.01" y1="436.84" x2="531.01" y2="36.58" stroke="#d7e3f4" stroke-width="2.4" opacity="0.85"/><line x1="533.21" y1="436.84" x2="533.21" y2="36.58" stroke="#d7e3f4" stroke-width="1" opacity="0.28"/><line x1="853.9" y1="623.26" x2="853.9" y2="223" stroke="#d7e3f4" stroke-width="2.4" opacity="0.85"/><line x1="856.1" y1="623.26" x2="856.1" y2="223" stroke="#d7e3f4" stroke-width="1" opacity="0.28"/><line x1="568.99" y1="787.75" x2="568.99" y2="387.49" stroke="#d7e3f4" stroke-width="2.4" opacity="0.85"/><line x1="571.19" y1="787.75" x2="571.19" y2="387.49" stroke="#d7e3f4" stroke-width="1" opacity="0.28"/><line x1="246.1" y1="601.33" x2="246.1" y2="201.07" stroke="#d7e3f4" stroke-width="2.4" opacity="0.85"/><line x1="248.3" y1="601.33" x2="248.3" y2="201.07" stroke="#d7e3f4" stroke-width="1" opacity="0.28"/><polyline points="531.01,36.58 853.9,223 568.99,387.49 246.1,201.07 531.01,36.58" fill="none" stroke="#d7e3f4" stroke-width="2" opacity="0.82"/><line x1="531.01" y1="36.58" x2="568.99" y2="387.49" stroke="#d7e3f4" stroke-width="0.9" opacity="0.28"/><line x1="853.9" y1="223" x2="246.1" y2="201.07" stroke="#d7e3f4" stroke-width="0.9" opacity="0.28"/><polygon points="531.01,36.58 853.9,223 568.99,387.49 246.1,201.07" fill="#141d28" opacity="0.25"/><line x1="531.01" y1="36.58" x2="246.1" y2="201.07" stroke="#d7e3f4" stroke-width="1.5" opacity="0.6"/><line x1="531.01" y1="228.49" x2="246.1" y2="392.98" stroke="#d7e3f4" stroke-width="0.9" opacity="0.32"/><line x1="531.01" y1="338.15" x2="246.1" y2="502.64" stroke="#d7e3f4" stroke-width="0.7" opacity="0.24"/><ellipse cx="279.34" cy="560.21" rx="16" ry="9.24" fill="#182430" stroke="#d7e3f4" stroke-width="0.9" opacity="0.55"/><ellipse cx="279.34" cy="560.21" rx="9.6" ry="5.6" fill="#0b131b" stroke="#d7e3f4" stroke-width="0.6" opacity="0.4"/><ellipse cx="279.34" cy="483.45" rx="16" ry="9.24" fill="#182430" stroke="#d7e3f4" stroke-width="0.9" opacity="0.55"/><ellipse cx="279.34" cy="483.45" rx="9.6" ry="5.6" fill="#0b131b" stroke="#d7e3f4" stroke-width="0.6" opacity="0.4"/><polygon points="265.34,560.21 293.34,560.21 293.34,483.45 265.34,483.45" fill="#111a24" stroke="#d7e3f4" stroke-width="0.7" opacity="0.4"/><line x1="279.34" y1="560.21" x2="279.34" y2="483.45" stroke="#8fb4d6" stroke-width="1.2" opacity="0.25"/><line x1="568.99" y1="420.39" x2="445.53" y2="491.67" stroke="#d7e3f4" stroke-width="7" opacity="0.28"/><line x1="568.99" y1="420.39" x2="445.53" y2="491.67" stroke="#8fb4d6" stroke-width="2.4" opacity="0.22"/><ellipse cx="568.99" cy="420.39" rx="13" ry="7.51" fill="#182430" stroke="#d7e3f4" stroke-width="0.9" opacity="0.55"/><ellipse cx="568.99" cy="420.39" rx="7.8" ry="4.55" fill="#0b131b" stroke="#d7e3f4" stroke-width="0.6" opacity="0.4"/><ellipse cx="445.53" cy="491.67" rx="13" ry="7.51" fill="#182430" stroke="#d7e3f4" stroke-width="0.9" opacity="0.55"/><ellipse cx="445.53" cy="491.67" rx="7.8" ry="4.55" fill="#0b131b" stroke="#d7e3f4" stroke-width="0.6" opacity="0.4"/><polygon points="269.07,445.07 413.07,445.07 413.07,576.66 269.07,576.66" fill="#101823" stroke="#d7e3f4" stroke-width="0.8" opacity="0.9"/><ellipse cx="341.07" cy="576.66" rx="72" ry="41.57" fill="none" stroke="#d7e3f4" stroke-width="0.7" opacity="0.45"/><ellipse cx="341.07" cy="445.07" rx="72" ry="41.57" fill="#1c2836" stroke="#d7e3f4" stroke-width="1" opacity="0.92"/><ellipse cx="341.07" cy="445.07" rx="56" ry="32" fill="none" stroke="#d7e3f4" stroke-width="0.7" opacity="0.4"/><ellipse cx="341.07" cy="445.07" rx="36" ry="21" fill="none" stroke="#d7e3f4" stroke-width="0.6" opacity="0.3"/><line x1="269.07" y1="492.86" x2="295.07" y2="518.86" stroke="#d7e3f4" stroke-width="0.6" opacity="0.32"/><line x1="275.07" y1="492.86" x2="301.07" y2="518.86" stroke="#d7e3f4" stroke-width="0.6" opacity="0.32"/><line x1="281.07" y1="492.86" x2="307.07" y2="518.86" stroke="#d7e3f4" stroke-width="0.6" opacity="0.32"/><line x1="287.07" y1="492.86" x2="313.07" y2="518.86" stroke="#d7e3f4" stroke-width="0.6" opacity="0.32"/><line x1="293.07" y1="492.86" x2="319.07" y2="518.86" stroke="#d7e3f4" stroke-width="0.6" opacity="0.32"/><line x1="299.07" y1="492.86" x2="325.07" y2="518.86" stroke="#d7e3f4" stroke-width="0.6" opacity="0.32"/><line x1="305.07" y1="492.86" x2="331.07" y2="518.86" stroke="#d7e3f4" stroke-width="0.6" opacity="0.32"/><line x1="311.07" y1="492.86" x2="337.07" y2="518.86" stroke="#d7e3f4" stroke-width="0.6" opacity="0.32"/><line x1="317.07" y1="492.86" x2="343.07" y2="518.86" stroke="#d7e3f4" stroke-width="0.6" opacity="0.32"/><line x1="323.07" y1="492.86" x2="349.07" y2="518.86" stroke="#d7e3f4" stroke-width="0.6" opacity="0.32"/><line x1="329.07" y1="492.86" x2="355.07" y2="518.86" stroke="#d7e3f4" stroke-width="0.6" opacity="0.32"/><line x1="335.07" y1="492.86" x2="361.07" y2="518.86" stroke="#d7e3f4" stroke-width="0.6" opacity="0.32"/><line x1="341.07" y1="492.86" x2="367.07" y2="518.86" stroke="#d7e3f4" stroke-width="0.6" opacity="0.32"/><ellipse cx="341.07" cy="510.86" rx="42" ry="24" fill="none" stroke="#b18cff" stroke-width="0.9" opacity="0.5"/><circle cx="341.07" cy="524.57" r="56" fill="url(#gPlasma)" opacity="0.55"/><circle cx="341.07" cy="524.57" r="50" fill="#ff5d73" opacity="0.10"/><circle cx="341.07" cy="524.57" r="32" fill="#ff5d73" opacity="0.16"/><circle cx="341.07" cy="524.57" r="19" fill="#ffd0d8" opacity="0.5"/><circle cx="341.07" cy="524.57" r="9" fill="#ffffff" opacity="0.92"/><circle cx="341.07" cy="524.57" r="50" fill="none" stroke="#b18cff" stroke-width="1" opacity="0.4"/><polygon points="333.07,417.65 349.07,417.65 345.07,403.65 337.07,403.65" fill="#1f2a38" stroke="#d7e3f4" stroke-width="0.8" opacity="0.6"/><circle cx="341.07" cy="417.65" r="1.4" fill="#e6eefb" opacity="0.35"/><circle cx="341.07" cy="431.02" r="1.59" fill="#e6eefb" opacity="0.41"/><circle cx="341.07" cy="444.38" r="1.77" fill="#e6eefb" opacity="0.47"/><circle cx="341.07" cy="457.74" r="1.96" fill="#e6eefb" opacity="0.54"/><circle cx="341.07" cy="471.11" r="2.15" fill="#e6eefb" opacity="0.60"/><circle cx="341.07" cy="484.47" r="2.34" fill="#e6eefb" opacity="0.66"/><circle cx="341.07" cy="497.84" r="2.52" fill="#e6eefb" opacity="0.72"/><circle cx="341.07" cy="511.2" r="2.71" fill="#e6eefb" opacity="0.79"/><circle cx="341.07" cy="524.57" r="2.9" fill="#e6eefb" opacity="0.85"/><line x1="464.53" y1="549.24" x2="341.07" y2="524.57" stroke="#ff5d73" stroke-width="5.5" opacity="0.16"/><line x1="464.53" y1="549.24" x2="341.07" y2="524.57" stroke="#ff5d73" stroke-width="2.4" opacity="0.35"/><line x1="464.53" y1="549.24" x2="341.07" y2="524.57" stroke="#ffd9df" stroke-width="0.9" opacity="0.6"/><polygon points="457.52,538.28 509.52,538.28 509.52,584.88 457.52,584.88" fill="#150c09" stroke="#d7e3f4" stroke-width="0.72" opacity="0.9"/><ellipse cx="483.52" cy="584.88" rx="26" ry="15.01" fill="none" stroke="#d7e3f4" stroke-width="0.63" opacity="0.45"/><ellipse cx="483.52" cy="538.28" rx="26" ry="15.01" fill="#20140f" stroke="#d7e3f4" stroke-width="0.9" opacity="0.92"/><ellipse cx="483.52" cy="538.28" rx="22" ry="13" fill="none" stroke="#ff5d73" stroke-width="0.8" opacity="0.5"/><circle cx="483.52" cy="538.28" r="5" fill="#ff5d73" opacity="0.4"/><ellipse cx="407.55" cy="532.79" rx="58" ry="42" fill="#1b2735" stroke="#d7e3f4" stroke-width="1.1" opacity="0.82"/><ellipse cx="407.55" cy="532.79" rx="46" ry="33.12" fill="none" stroke="#8fb4d6" stroke-width="0.6" opacity="0.34"/><ellipse cx="407.55" cy="532.79" rx="34" ry="24.48" fill="none" stroke="#8fb4d6" stroke-width="0.6" opacity="0.34"/><ellipse cx="407.55" cy="532.79" rx="22" ry="15.84" fill="none" stroke="#8fb4d6" stroke-width="0.6" opacity="0.34"/><ellipse cx="407.55" cy="532.79" rx="11" ry="7.92" fill="none" stroke="#8fb4d6" stroke-width="0.6" opacity="0.34"/><ellipse cx="407.55" cy="532.79" rx="7" ry="5" fill="#05080c" stroke="#b18cff" stroke-width="0.7" opacity="0.6"/><line x1="407.55" y1="532.79" x2="371.93" y2="599.96" stroke="#d7e3f4" stroke-width="2.2" opacity="0.5"/><polygon points="365.55,524.79 449.55,540.79 504.89,462.89" fill="#b18cff" opacity="0.06"/><polygon points="586.56,467.27 630.25,492.49 630.25,388.32 586.56,363.09" fill="url(#gLeft)" stroke="#d7e3f4" stroke-width="1" opacity="0.85"/><polygon points="660.64,474.95 630.25,492.49 630.25,388.32 660.64,370.77" fill="url(#gRight)" stroke="#d7e3f4" stroke-width="1" opacity="0.88"/><polygon points="616.95,345.55 660.64,370.77 630.25,388.32 586.56,363.09" fill="url(#gTop)" stroke="#d7e3f4" stroke-width="1.1" opacity="0.92"/><line x1="616.95" y1="449.73" x2="616.95" y2="345.55" stroke="#d7e3f4" stroke-width="1.2" opacity="0.5"/><ellipse cx="623.6" cy="461.79" rx="30" ry="17.32" fill="none" stroke="#8fb4d6" stroke-width="0.8" opacity="0.50"/><ellipse cx="623.6" cy="461.79" rx="15" ry="9" fill="#b18cff" opacity="0.10"/><ellipse cx="623.6" cy="434.37" rx="24" ry="13.86" fill="none" stroke="#8fb4d6" stroke-width="0.8" opacity="0.44"/><ellipse cx="623.6" cy="434.37" rx="12" ry="7.2" fill="#b18cff" opacity="0.10"/><ellipse cx="623.6" cy="406.96" rx="18" ry="10.39" fill="none" stroke="#8fb4d6" stroke-width="0.8" opacity="0.38"/><ellipse cx="623.6" cy="406.96" rx="9" ry="5.4" fill="#b18cff" opacity="0.10"/><ellipse cx="623.6" cy="379.54" rx="12" ry="6.93" fill="none" stroke="#8fb4d6" stroke-width="0.8" opacity="0.32"/><ellipse cx="623.6" cy="379.54" rx="6" ry="3.6" fill="#b18cff" opacity="0.10"/><line x1="599.76" y1="364.41" x2="627.76" y2="379.41" stroke="#d7e3f4" stroke-width="0.6" opacity="0.3"/><line x1="599.76" y1="375.41" x2="627.76" y2="390.41" stroke="#d7e3f4" stroke-width="0.6" opacity="0.3"/><line x1="599.76" y1="386.41" x2="627.76" y2="401.41" stroke="#d7e3f4" stroke-width="0.6" opacity="0.3"/><line x1="599.76" y1="397.41" x2="627.76" y2="412.41" stroke="#d7e3f4" stroke-width="0.6" opacity="0.3"/><line x1="599.76" y1="408.41" x2="627.76" y2="423.41" stroke="#d7e3f4" stroke-width="0.6" opacity="0.3"/><line x1="599.76" y1="419.41" x2="627.76" y2="434.41" stroke="#d7e3f4" stroke-width="0.6" opacity="0.3"/><line x1="599.76" y1="430.41" x2="627.76" y2="445.41" stroke="#d7e3f4" stroke-width="0.6" opacity="0.3"/><line x1="599.76" y1="441.41" x2="627.76" y2="456.41" stroke="#d7e3f4" stroke-width="0.6" opacity="0.3"/><line x1="599.76" y1="452.41" x2="627.76" y2="467.41" stroke="#d7e3f4" stroke-width="0.6" opacity="0.3"/><polygon points="623.13,165.98 691.5,205.46 647.82,230.68 579.44,191.2" fill="#1a2532" stroke="#d7e3f4" stroke-width="1.1" opacity="0.85"/><polygon points="625.03,174.75 676.31,204.36 645.92,221.91 594.64,192.3" fill="#2c3d52" stroke="#b18cff" stroke-width="1" opacity="0.9"/><line x1="631.44" y1="178.45" x2="601.05" y2="196" stroke="#8fb4d6" stroke-width="0.6" opacity="0.4"/><line x1="637.85" y1="182.15" x2="607.46" y2="199.7" stroke="#8fb4d6" stroke-width="0.6" opacity="0.4"/><line x1="644.26" y1="185.86" x2="613.87" y2="203.4" stroke="#8fb4d6" stroke-width="0.6" opacity="0.4"/><line x1="650.67" y1="189.56" x2="620.28" y2="207.1" stroke="#8fb4d6" stroke-width="0.6" opacity="0.4"/><line x1="657.08" y1="193.26" x2="626.69" y2="210.8" stroke="#8fb4d6" stroke-width="0.6" opacity="0.4"/><line x1="663.49" y1="196.96" x2="633.1" y2="214.5" stroke="#8fb4d6" stroke-width="0.6" opacity="0.4"/><line x1="669.9" y1="200.66" x2="639.51" y2="218.2" stroke="#8fb4d6" stroke-width="0.6" opacity="0.4"/><line x1="618.95" y1="178.26" x2="670.23" y2="207.87" stroke="#8fb4d6" stroke-width="0.5" opacity="0.3"/><line x1="612.87" y1="181.77" x2="664.15" y2="211.38" stroke="#8fb4d6" stroke-width="0.5" opacity="0.3"/><line x1="606.79" y1="185.28" x2="658.07" y2="214.89" stroke="#8fb4d6" stroke-width="0.5" opacity="0.3"/><line x1="600.71" y1="188.79" x2="652" y2="218.4" stroke="#8fb4d6" stroke-width="0.5" opacity="0.3"/><line x1="623.13" y1="170.37" x2="691.5" y2="209.84" stroke="#d7e3f4" stroke-width="1.6" opacity="0.5"/><line x1="579.44" y1="195.59" x2="647.82" y2="235.07" stroke="#d7e3f4" stroke-width="1.6" opacity="0.5"/><circle cx="635.47" cy="198.33" r="3.4" fill="#ffffff" opacity="0.95"/><circle cx="635.47" cy="198.33" r="7" fill="none" stroke="#b18cff" stroke-width="0.9" opacity="0.6"/><polygon points="495.87,670.97 564.25,710.44 564.25,695.09 495.87,655.61" fill="#0c131b" stroke="#d7e3f4" stroke-width="0.9" opacity="0.6"/><polygon points="632.62,670.97 564.25,710.44 564.25,695.09 632.62,655.61" fill="#16202c" stroke="#d7e3f4" stroke-width="0.9" opacity="0.65"/><polygon points="564.25,616.14 632.62,655.61 564.25,695.09 495.87,655.61" fill="url(#gTop)" stroke="#d7e3f4" stroke-width="1" opacity="0.85"/><line x1="564.25" y1="615.04" x2="632.62" y2="654.52" stroke="#d7e3f4" stroke-width="2" opacity="0.5"/><line x1="495.87" y1="654.52" x2="564.25" y2="693.99" stroke="#d7e3f4" stroke-width="2" opacity="0.5"/><line x1="530.06" y1="634.78" x2="598.43" y2="674.26" stroke="#8fb4d6" stroke-width="1.2" opacity="0.35"/><ellipse cx="564.25" cy="653.42" rx="55" ry="32" fill="#1c3d63" stroke="#8fb4d6" stroke-width="1" opacity="0.9"/><ellipse cx="564.25" cy="653.42" rx="55" ry="32" fill="none" stroke="#6ea8dd" stroke-width="0.7" opacity="0.5"/><line x1="565.2" y1="628.2" x2="520.56" y2="653.97" stroke="#7fc0ff" stroke-width="0.5" opacity="0.28"/><line x1="572.32" y1="632.31" x2="527.68" y2="658.08" stroke="#7fc0ff" stroke-width="0.5" opacity="0.28"/><line x1="579.44" y1="636.42" x2="534.8" y2="662.19" stroke="#7fc0ff" stroke-width="0.5" opacity="0.28"/><line x1="586.56" y1="640.54" x2="541.93" y2="666.31" stroke="#7fc0ff" stroke-width="0.5" opacity="0.28"/><line x1="593.69" y1="644.65" x2="549.05" y2="670.42" stroke="#7fc0ff" stroke-width="0.5" opacity="0.28"/><line x1="600.81" y1="648.76" x2="556.17" y2="674.53" stroke="#7fc0ff" stroke-width="0.5" opacity="0.28"/><line x1="607.93" y1="652.87" x2="563.3" y2="678.64" stroke="#7fc0ff" stroke-width="0.5" opacity="0.28"/><line x1="563.3" y1="628.2" x2="607.93" y2="653.97" stroke="#7fc0ff" stroke-width="0.5" opacity="0.28"/><line x1="556.17" y1="632.31" x2="600.81" y2="658.08" stroke="#7fc0ff" stroke-width="0.5" opacity="0.28"/><line x1="549.05" y1="636.42" x2="593.69" y2="662.19" stroke="#7fc0ff" stroke-width="0.5" opacity="0.28"/><line x1="541.93" y1="640.54" x2="586.56" y2="666.31" stroke="#7fc0ff" stroke-width="0.5" opacity="0.28"/><line x1="534.8" y1="644.65" x2="579.44" y2="670.42" stroke="#7fc0ff" stroke-width="0.5" opacity="0.28"/><line x1="527.68" y1="648.76" x2="572.32" y2="674.53" stroke="#7fc0ff" stroke-width="0.5" opacity="0.28"/><line x1="520.56" y1="652.87" x2="565.2" y2="678.64" stroke="#7fc0ff" stroke-width="0.5" opacity="0.28"/><ellipse cx="546.25" cy="645.42" rx="18" ry="10" fill="#4a80b8" opacity="0.3"/><circle cx="607.25" cy="657.42" r="3" fill="#0a0f16" stroke="#8fb4d6" stroke-width="0.6" opacity="0.5"/><circle cx="564.25" cy="653.42" r="13" fill="url(#gEUV)" opacity="0.7"/><circle cx="564.25" cy="653.42" r="4" fill="#ffffff" opacity="0.8"/><polygon points="532.43,402.02 591.32,412.22 591.32,436.02 532.43,442.82" fill="#223145" stroke="#d7e3f4" stroke-width="1" opacity="0.85"/><polygon points="532.43,402.02 591.32,412.22 583.32,421.22 538.43,409.02" fill="#9fc4e6" opacity="0.25"/><line x1="532.43" y1="402.02" x2="591.32" y2="412.22" stroke="#eaf2ff" stroke-width="1" opacity="0.5"/><polygon points="551.87,425.02 571.87,425.02 574.87,445.02 548.87,445.02" fill="#121a24" stroke="#d7e3f4" stroke-width="0.7" opacity="0.5"/><circle cx="561.87" cy="419.02" r="3.2" fill="#ffffff" opacity="0.95"/><circle cx="561.87" cy="419.02" r="6" fill="none" stroke="#b18cff" stroke-width="0.8" opacity="0.6"/><polygon points="560.92,295.1 619.81,305.3 619.81,329.1 560.92,335.9" fill="#223145" stroke="#d7e3f4" stroke-width="1" opacity="0.85"/><polygon points="560.92,295.1 619.81,305.3 611.81,314.3 566.92,302.1" fill="#9fc4e6" opacity="0.25"/><line x1="560.92" y1="295.1" x2="619.81" y2="305.3" stroke="#eaf2ff" stroke-width="1" opacity="0.5"/><polygon points="580.36,318.1 600.36,318.1 603.36,338.1 577.36,338.1" fill="#121a24" stroke="#d7e3f4" stroke-width="0.7" opacity="0.5"/><circle cx="590.36" cy="312.1" r="3.2" fill="#ffffff" opacity="0.95"/><circle cx="590.36" cy="312.1" r="6" fill="none" stroke="#b18cff" stroke-width="0.8" opacity="0.6"/><polygon points="629.77,280.02 688.66,290.22 688.66,314.02 629.77,320.82" fill="#223145" stroke="#d7e3f4" stroke-width="1" opacity="0.85"/><polygon points="629.77,280.02 688.66,290.22 680.66,299.22 635.77,287.02" fill="#9fc4e6" opacity="0.25"/><line x1="629.77" y1="280.02" x2="688.66" y2="290.22" stroke="#eaf2ff" stroke-width="1" opacity="0.5"/><polygon points="649.21,303.02 669.21,303.02 672.21,323.02 646.21,323.02" fill="#121a24" stroke="#d7e3f4" stroke-width="0.7" opacity="0.5"/><circle cx="659.21" cy="297.02" r="3.2" fill="#ffffff" opacity="0.95"/><circle cx="659.21" cy="297.02" r="6" fill="none" stroke="#b18cff" stroke-width="0.8" opacity="0.6"/><polygon points="606.47,403.65 654.97,412.05 654.97,431.65 606.47,437.25" fill="#1d2a3a" stroke="#d7e3f4" stroke-width="1" opacity="0.85"/><polygon points="606.47,403.65 654.97,412.05 646.97,421.05 612.47,410.65" fill="#9fc4e6" opacity="0.25"/><line x1="606.47" y1="403.65" x2="654.97" y2="412.05" stroke="#eaf2ff" stroke-width="1" opacity="0.5"/><polygon points="620.72,423.65 640.72,423.65 643.72,443.65 617.72,443.65" fill="#121a24" stroke="#d7e3f4" stroke-width="0.7" opacity="0.5"/><circle cx="630.72" cy="417.65" r="3.2" fill="#ffffff" opacity="0.95"/><circle cx="630.72" cy="417.65" r="6" fill="none" stroke="#b18cff" stroke-width="0.8" opacity="0.6"/><polygon points="575.61,539.36 624.11,547.76 624.11,567.36 575.61,572.96" fill="#1d2a3a" stroke="#d7e3f4" stroke-width="1" opacity="0.85"/><polygon points="575.61,539.36 624.11,547.76 616.11,556.76 581.61,546.36" fill="#9fc4e6" opacity="0.25"/><line x1="575.61" y1="539.36" x2="624.11" y2="547.76" stroke="#eaf2ff" stroke-width="1" opacity="0.5"/><polygon points="589.86,559.36 609.86,559.36 612.86,579.36 586.86,579.36" fill="#121a24" stroke="#d7e3f4" stroke-width="0.7" opacity="0.5"/><circle cx="599.86" cy="553.36" r="3.2" fill="#ffffff" opacity="0.95"/><circle cx="599.86" cy="553.36" r="6" fill="none" stroke="#b18cff" stroke-width="0.8" opacity="0.6"/><polyline points="341.07,524.57 407.55,532.79 504.89,462.89 561.87,419.02 590.36,312.1 659.21,297.02 635.47,198.33 630.72,417.65 599.86,553.36 564.25,653.42" fill="none" stroke="#b18cff" stroke-width="9" opacity="0.10" stroke-linejoin="round" stroke-linecap="round"/><polyline points="341.07,524.57 407.55,532.79 504.89,462.89 561.87,419.02 590.36,312.1 659.21,297.02 635.47,198.33 630.72,417.65 599.86,553.36 564.25,653.42" fill="none" stroke="#b18cff" stroke-width="5" opacity="0.22" stroke-linejoin="round" stroke-linecap="round"/><polyline points="341.07,524.57 407.55,532.79 504.89,462.89 561.87,419.02 590.36,312.1 659.21,297.02 635.47,198.33 630.72,417.65 599.86,553.36 564.25,653.42" fill="none" stroke="#c9b0ff" stroke-width="2.6" opacity="0.55" stroke-linejoin="round" stroke-linecap="round"/><polyline points="341.07,524.57 407.55,532.79 504.89,462.89 561.87,419.02 590.36,312.1 659.21,297.02 635.47,198.33 630.72,417.65 599.86,553.36 564.25,653.42" fill="none" stroke="#ffffff" stroke-width="1" opacity="0.85" stroke-linejoin="round" stroke-linecap="round"/><circle cx="341.07" cy="524.57" r="2.6" fill="#ffffff" opacity="0.9"/><circle cx="341.07" cy="524.57" r="5" fill="none" stroke="#b18cff" stroke-width="0.7" opacity="0.5"/><circle cx="407.55" cy="532.79" r="2.6" fill="#ffffff" opacity="0.9"/><circle cx="407.55" cy="532.79" r="5" fill="none" stroke="#b18cff" stroke-width="0.7" opacity="0.5"/><circle cx="504.89" cy="462.89" r="2.6" fill="#ffffff" opacity="0.9"/><circle cx="504.89" cy="462.89" r="5" fill="none" stroke="#b18cff" stroke-width="0.7" opacity="0.5"/><circle cx="561.87" cy="419.02" r="2.6" fill="#ffffff" opacity="0.9"/><circle cx="561.87" cy="419.02" r="5" fill="none" stroke="#b18cff" stroke-width="0.7" opacity="0.5"/><circle cx="590.36" cy="312.1" r="2.6" fill="#ffffff" opacity="0.9"/><circle cx="590.36" cy="312.1" r="5" fill="none" stroke="#b18cff" stroke-width="0.7" opacity="0.5"/><circle cx="659.21" cy="297.02" r="2.6" fill="#ffffff" opacity="0.9"/><circle cx="659.21" cy="297.02" r="5" fill="none" stroke="#b18cff" stroke-width="0.7" opacity="0.5"/><circle cx="635.47" cy="198.33" r="2.6" fill="#ffffff" opacity="0.9"/><circle cx="635.47" cy="198.33" r="5" fill="none" stroke="#b18cff" stroke-width="0.7" opacity="0.5"/><circle cx="630.72" cy="417.65" r="2.6" fill="#ffffff" opacity="0.9"/><circle cx="630.72" cy="417.65" r="5" fill="none" stroke="#b18cff" stroke-width="0.7" opacity="0.5"/><circle cx="599.86" cy="553.36" r="2.6" fill="#ffffff" opacity="0.9"/><circle cx="599.86" cy="553.36" r="5" fill="none" stroke="#b18cff" stroke-width="0.7" opacity="0.5"/><circle cx="564.25" cy="653.42" r="2.6" fill="#ffffff" opacity="0.9"/><circle cx="564.25" cy="653.42" r="5" fill="none" stroke="#b18cff" stroke-width="0.7" opacity="0.5"/><circle cx="367.57" cy="527.85" r="1.2" fill="#e9dcff" opacity="0.6"/><circle cx="388.71" cy="530.46" r="1.2" fill="#e9dcff" opacity="0.6"/><circle cx="446.58" cy="504.76" r="1.2" fill="#e9dcff" opacity="0.6"/><circle cx="474.99" cy="484.36" r="1.2" fill="#e9dcff" opacity="0.6"/><circle cx="526.66" cy="446.13" r="1.2" fill="#e9dcff" opacity="0.6"/><circle cx="546.99" cy="430.48" r="1.2" fill="#e9dcff" opacity="0.6"/><circle cx="573.05" cy="377.08" r="1.2" fill="#e9dcff" opacity="0.6"/><circle cx="582.51" cy="341.57" r="1.2" fill="#e9dcff" opacity="0.6"/><circle cx="614.52" cy="306.81" r="1.2" fill="#e9dcff" opacity="0.6"/><circle cx="640.27" cy="301.17" r="1.2" fill="#e9dcff" opacity="0.6"/><circle cx="649.26" cy="255.66" r="1.2" fill="#e9dcff" opacity="0.6"/><circle cx="642.58" cy="227.87" r="1.2" fill="#e9dcff" opacity="0.6"/><circle cx="633.78" cy="276.35" r="1.2" fill="#e9dcff" opacity="0.6"/><circle cx="631.88" cy="364.4" r="1.2" fill="#e9dcff" opacity="0.6"/><circle cx="617.92" cy="473.93" r="1.2" fill="#e9dcff" opacity="0.6"/><circle cx="606.08" cy="526.02" r="1.2" fill="#e9dcff" opacity="0.6"/><circle cx="585.04" cy="594.99" r="1.2" fill="#e9dcff" opacity="0.6"/><circle cx="573.66" cy="626.97" r="1.2" fill="#e9dcff" opacity="0.6"/><ellipse cx="528.63" cy="690.43" rx="14" ry="8.08" fill="#182430" stroke="#d7e3f4" stroke-width="0.9" opacity="0.55"/><ellipse cx="528.63" cy="690.43" rx="8.4" ry="4.9" fill="#0b131b" stroke="#d7e3f4" stroke-width="0.6" opacity="0.4"/><ellipse cx="666.34" cy="161.32" rx="12" ry="6.93" fill="#182430" stroke="#b18cff" stroke-width="0.9" opacity="0.55"/><ellipse cx="666.34" cy="161.32" rx="7.2" ry="4.2" fill="#0b131b" stroke="#b18cff" stroke-width="0.6" opacity="0.4"/></svg><circle cx="602.4" cy="580.9" r="2.6" fill="#b18cff" opacity="0.9"/><path d="M 602.4 580.9 L 268 670.8" stroke="#d7e3f4" stroke-width="0.9" opacity="0.5" fill="none"/><text x="256" y="674.8" text-anchor="end" font-family="'IBM Plex Mono','JetBrains Mono',ui-monospace,Consolas,monospace" font-size="19" font-weight="600" fill="#e8eef7" fill-opacity="0.95">LPP SOURCE</text><circle cx="602.4" cy="478.8" r="2.6" fill="#b18cff" opacity="0.9"/><path d="M 602.4 478.8 L 268 472.8" stroke="#d7e3f4" stroke-width="0.9" opacity="0.5" fill="none"/><text x="256" y="476.8" text-anchor="end" font-family="'IBM Plex Mono','JetBrains Mono',ui-monospace,Consolas,monospace" font-size="19" font-weight="600" fill="#e8eef7" fill-opacity="0.95">DROPLET NOZZLE</text><circle cx="737.6" cy="593.2" r="2.6" fill="#b18cff" opacity="0.9"/><path d="M 737.6 593.2 L 268 802.8" stroke="#d7e3f4" stroke-width="0.9" opacity="0.5" fill="none"/><text x="256" y="806.8" text-anchor="end" font-family="'IBM Plex Mono','JetBrains Mono',ui-monospace,Consolas,monospace" font-size="19" font-weight="600" fill="#e8eef7" fill-opacity="0.95">DRIVE LASER</text><circle cx="665.7" cy="588.5" r="2.6" fill="#b18cff" opacity="0.9"/><path d="M 665.7 588.5 L 268 736.8" stroke="#d7e3f4" stroke-width="0.9" opacity="0.5" fill="none"/><text x="256" y="740.8" text-anchor="end" font-family="'IBM Plex Mono','JetBrains Mono',ui-monospace,Consolas,monospace" font-size="19" font-weight="600" fill="#e8eef7" fill-opacity="0.95">COLLECTOR</text><circle cx="757.5" cy="522.3" r="2.6" fill="#b18cff" opacity="0.9"/><path d="M 757.5 522.3 L 268 538.8" stroke="#d7e3f4" stroke-width="0.9" opacity="0.5" fill="none"/><text x="256" y="542.8" text-anchor="end" font-family="'IBM Plex Mono','JetBrains Mono',ui-monospace,Consolas,monospace" font-size="19" font-weight="600" fill="#e8eef7" fill-opacity="0.95">INTERMEDIATE FOCUS</text><circle cx="837.8" cy="379.5" r="2.6" fill="#b18cff" opacity="0.9"/><path d="M 837.8 379.5 L 1332 373.5" stroke="#d7e3f4" stroke-width="0.9" opacity="0.5" fill="none"/><text x="1344" y="377.5" text-anchor="start" font-family="'IBM Plex Mono','JetBrains Mono',ui-monospace,Consolas,monospace" font-size="19" font-weight="600" fill="#e8eef7" fill-opacity="0.95">ILLUMINATOR</text><circle cx="880.4" cy="271.7" r="2.6" fill="#b18cff" opacity="0.9"/><path d="M 880.4 271.7 L 1332 265.7" stroke="#d7e3f4" stroke-width="0.9" opacity="0.5" fill="none"/><text x="1344" y="269.7" text-anchor="start" font-family="'IBM Plex Mono','JetBrains Mono',ui-monospace,Consolas,monospace" font-size="19" font-weight="600" fill="#e8eef7" fill-opacity="0.95">RETICLE</text><circle cx="869.0" cy="491.1" r="2.6" fill="#b18cff" opacity="0.9"/><path d="M 869.0 491.1 L 1332 485.1" stroke="#d7e3f4" stroke-width="0.9" opacity="0.5" fill="none"/><text x="1344" y="489.1" text-anchor="start" font-family="'IBM Plex Mono','JetBrains Mono',ui-monospace,Consolas,monospace" font-size="19" font-weight="600" fill="#e8eef7" fill-opacity="0.95">PROJECTION OPTICS</text><circle cx="813.2" cy="701.9" r="2.6" fill="#b18cff" opacity="0.9"/><path d="M 813.2 701.9 L 1332 695.9" stroke="#d7e3f4" stroke-width="0.9" opacity="0.5" fill="none"/><text x="1344" y="699.9" text-anchor="start" font-family="'IBM Plex Mono','JetBrains Mono',ui-monospace,Consolas,monospace" font-size="19" font-weight="600" fill="#e8eef7" fill-opacity="0.95">WAFER STAGE</text><circle cx="543.8" cy="578.1" r="2.6" fill="#b18cff" opacity="0.9"/><path d="M 543.8 578.1 L 268 604.8" stroke="#d7e3f4" stroke-width="0.9" opacity="0.5" fill="none"/><text x="256" y="608.8" text-anchor="end" font-family="'IBM Plex Mono','JetBrains Mono',ui-monospace,Consolas,monospace" font-size="19" font-weight="600" fill="#e8eef7" fill-opacity="0.95">VACUUM LINE</text><text x="30" y="1042" font-family="'IBM Plex Mono','JetBrains Mono',ui-monospace,Consolas,monospace" font-size="17" font-weight="500" letter-spacing="0.5" fill="#e8eef7" fill-opacity="0.85">FIG. 5-ISO — Shell open: a relay of mirrors passing the light</text></svg>