<svg xmlns="http://www.w3.org/2000/svg" viewBox="0 0 1600 1060" role="img"><svg x="419.2" y="70.0" width="761.5" height="880.0" viewBox="0 0 900 1040"><defs><linearGradient id="gTop" x1="0" y1="0" x2="0.5" y2="1"><stop offset="0" stop-color="#d3e2f4"/><stop offset="1" stop-color="#9fb7d6"/></linearGradient><linearGradient id="gRight" x1="0" y1="0" x2="1" y2="0.6"><stop offset="0" stop-color="#a6bcd8"/><stop offset="1" stop-color="#6d87ab"/></linearGradient><linearGradient id="gLeft" x1="0" y1="0" x2="1" y2="0.4"><stop offset="0" stop-color="#5c7191"/><stop offset="1" stop-color="#3d4f6a"/></linearGradient><linearGradient id="gBand" x1="0" y1="0" x2="1" y2="0"><stop offset="0" stop-color="#43566f"/><stop offset="0.5" stop-color="#7a93b3"/><stop offset="1" stop-color="#aec4de"/></linearGradient><linearGradient id="gInner" x1="0" y1="0" x2="1" y2="0"><stop offset="0" stop-color="#2b394d"/><stop offset="0.55" stop-color="#3c4d66"/><stop offset="1" stop-color="#556a89"/></linearGradient><linearGradient id="gDome" x1="0" y1="0" x2="0.3" y2="1"><stop offset="0" stop-color="#dfeaf8"/><stop offset="1" stop-color="#93accd"/></linearGradient><linearGradient id="gDomeIn" x1="0" y1="0" x2="0.3" y2="1"><stop offset="0" stop-color="#43566f"/><stop offset="1" stop-color="#243247"/></linearGradient><linearGradient id="gCut" x1="0" y1="0" x2="1" y2="1"><stop offset="0" stop-color="#c4d5ec"/><stop offset="1" stop-color="#8ea7c7"/></linearGradient><linearGradient id="gCutL" x1="0" y1="0" x2="1" y2="1"><stop offset="0" stop-color="#9db3d0"/><stop offset="1" stop-color="#6a83a6"/></linearGradient><linearGradient id="gBaseTop" x1="0" y1="0" x2="0.4" y2="1"><stop offset="0" stop-color="#c3d3e8"/><stop offset="1" stop-color="#8ba2c1"/></linearGradient><linearGradient id="gBaseSide" x1="0" y1="0" x2="1" y2="0"><stop offset="0" stop-color="#3a4a61"/><stop offset="0.5" stop-color="#586e8d"/><stop offset="1" stop-color="#8098b7"/></linearGradient><linearGradient id="gChuck" x1="0" y1="0" x2="1" y2="0"><stop offset="0" stop-color="#48586f"/><stop offset="1" stop-color="#7f96b4"/></linearGradient><linearGradient id="gRodLit" x1="0" y1="0" x2="1" y2="0"><stop offset="0" stop-color="#3a2a20"/><stop offset="0.5" stop-color="#7a5238"/><stop offset="1" stop-color="#c98a52"/></linearGradient><radialGradient id="gCore" cx="0.5" cy="0.4" r="0.7"><stop offset="0" stop-color="#ffd9a0"/><stop offset="0.35" stop-color="#ff9d3a"/><stop offset="0.7" stop-color="#ff6a1a"/><stop offset="1" stop-color="#b23c0a" stop-opacity="0"/></radialGradient><radialGradient id="gHot" cx="0.5" cy="0.5" r="0.5"><stop offset="0" stop-color="#fff2d6"/><stop offset="0.4" stop-color="#ff9a34"/><stop offset="1" stop-color="#ff6a1a" stop-opacity="0"/></radialGradient><linearGradient id="gAccent" x1="0" y1="0" x2="1" y2="1"><stop offset="0" stop-color="#8fb8e6"/><stop offset="1" stop-color="#5f8ec4"/></linearGradient><clipPath id="clipRC"><path d="M 585.6 754.3 L 600.7 763 L 600.7 415 L 585.6 406.3 Z"/></clipPath><clipPath id="clipRCD"><path d="M 600.7 415 L 599.7 395 L 596.9 374.1 L 592.2 352.6 L 585.8 330.9 L 577.6 309.1 L 567.8 287.5 L 556.5 266.5 L 543.9 246.2 L 530.2 227 L 515.4 209 L 499.8 192.5 L 483.5 177.7 L 466.9 164.8 L 450 154 L 450 171.4 L 465.2 181.2 L 480.2 192.7 L 494.8 206 L 508.8 220.9 L 522.2 237.1 L 534.6 254.4 L 545.9 272.6 L 556 291.6 L 564.8 311 L 572.2 330.6 L 578 350.2 L 582.2 369.5 L 584.8 388.3 L 585.6 406.3 Z"/></clipPath><clipPath id="clipLC"><path d="M 314.4 754.3 L 299.3 763 L 299.3 415 L 314.4 406.3 Z"/></clipPath><clipPath id="clipLCD"><path d="M 299.3 415 L 300.3 395 L 303.1 374.1 L 307.8 352.6 L 314.2 330.9 L 322.4 309.1 L 332.2 287.5 L 343.5 266.5 L 356.1 246.2 L 369.8 227 L 384.6 209 L 400.2 192.5 L 416.5 177.7 L 433.1 164.8 L 450 154 L 450 171.4 L 434.8 181.2 L 419.8 192.7 L 405.2 206 L 391.2 220.9 L 377.8 237.1 L 365.4 254.4 L 354.1 272.6 L 344 291.6 L 335.2 311 L 327.8 330.6 L 322 350.2 L 317.8 369.5 L 315.2 388.3 L 314.4 406.3 Z"/></clipPath></defs><ellipse cx="450" cy="749.7" rx="248.2" ry="149.3" fill="#000000" opacity="0.16"/><ellipse cx="450" cy="741.7" rx="210.6" ry="121.6" fill="#000000" opacity="0.22"/><polygon points="638.9,785 598.4,804.2 552.2,818.5 502.1,827.2 450,830.2 397.9,827.2 347.8,818.5 301.6,804.2 261.1,785 227.9,761.7 203.2,735 188,706.1 182.9,676 188,645.9 203.2,617 227.9,590.3 261.1,567 301.6,547.8 347.8,533.5 397.9,524.8 450,521.8 502.1,524.8 552.2,533.5 598.4,547.8 638.9,567 672.1,590.3 696.8,617 712,645.9 717.1,676 712,706.1 696.8,735 672.1,761.7 638.9,785 638.9,838.4 672.1,815 696.8,788.4 712,759.4 717.1,729.4 712,699.3 696.8,670.3 672.1,643.7 638.9,620.3 598.4,601.1 552.2,586.9 502.1,578.1 450,575.2 397.9,578.1 347.8,586.9 301.6,601.1 261.1,620.3 227.9,643.7 203.2,670.3 188,699.3 182.9,729.4 188,759.4 203.2,788.4 227.9,815 261.1,838.4 301.6,857.6 347.8,871.8 397.9,880.6 450,883.6 502.1,880.6 552.2,871.8 598.4,857.6 638.9,838.4" fill="url(#gBaseSide)" stroke="#d7e3f4" stroke-width="1.6" opacity="0.92"/><polygon points="638.9,785 598.4,804.2 552.2,818.5 502.1,827.2 450,830.2 397.9,827.2 347.8,818.5 301.6,804.2 261.1,785 227.9,761.7 203.2,735 188,706.1 182.9,676 188,645.9 203.2,617 227.9,590.3 261.1,567 301.6,547.8 347.8,533.5 397.9,524.8 450,521.8 502.1,524.8 552.2,533.5 598.4,547.8 638.9,567 672.1,590.3 696.8,617 712,645.9 717.1,676 712,706.1 696.8,735 672.1,761.7 638.9,785" fill="url(#gBaseTop)" stroke="#d7e3f4" stroke-width="1.8" opacity="0.92"/><circle cx="620.8" cy="774.6" r="3.1" fill="#33425a" stroke="#c9d8ee" stroke-width="0.7" opacity="0.85"/><circle cx="559.6" cy="800.2" r="3.1" fill="#33425a" stroke="#c9d8ee" stroke-width="0.7" opacity="0.85"/><circle cx="487.8" cy="813.7" r="3.1" fill="#33425a" stroke="#c9d8ee" stroke-width="0.7" opacity="0.85"/><circle cx="412.2" cy="813.7" r="3.1" fill="#33425a" stroke="#c9d8ee" stroke-width="0.7" opacity="0.85"/><circle cx="340.4" cy="800.2" r="3.1" fill="#33425a" stroke="#c9d8ee" stroke-width="0.7" opacity="0.85"/><circle cx="279.2" cy="774.6" r="3.1" fill="#33425a" stroke="#c9d8ee" stroke-width="0.7" opacity="0.85"/><circle cx="234.8" cy="739.3" r="3.1" fill="#33425a" stroke="#c9d8ee" stroke-width="0.7" opacity="0.85"/><circle cx="211.5" cy="697.8" r="3.1" fill="#33425a" stroke="#c9d8ee" stroke-width="0.7" opacity="0.85"/><circle cx="211.5" cy="654.2" r="3.1" fill="#33425a" stroke="#c9d8ee" stroke-width="0.7" opacity="0.85"/><circle cx="234.8" cy="612.7" r="3.1" fill="#33425a" stroke="#c9d8ee" stroke-width="0.7" opacity="0.85"/><circle cx="279.2" cy="577.4" r="3.1" fill="#33425a" stroke="#c9d8ee" stroke-width="0.7" opacity="0.85"/><circle cx="340.4" cy="551.8" r="3.1" fill="#33425a" stroke="#c9d8ee" stroke-width="0.7" opacity="0.85"/><circle cx="412.2" cy="538.3" r="3.1" fill="#33425a" stroke="#c9d8ee" stroke-width="0.7" opacity="0.85"/><circle cx="487.8" cy="538.3" r="3.1" fill="#33425a" stroke="#c9d8ee" stroke-width="0.7" opacity="0.85"/><circle cx="559.6" cy="551.8" r="3.1" fill="#33425a" stroke="#c9d8ee" stroke-width="0.7" opacity="0.85"/><circle cx="620.8" cy="577.4" r="3.1" fill="#33425a" stroke="#c9d8ee" stroke-width="0.7" opacity="0.85"/><circle cx="665.2" cy="612.7" r="3.1" fill="#33425a" stroke="#c9d8ee" stroke-width="0.7" opacity="0.85"/><circle cx="688.5" cy="654.2" r="3.1" fill="#33425a" stroke="#c9d8ee" stroke-width="0.7" opacity="0.85"/><circle cx="688.5" cy="697.8" r="3.1" fill="#33425a" stroke="#c9d8ee" stroke-width="0.7" opacity="0.85"/><circle cx="665.2" cy="739.3" r="3.1" fill="#33425a" stroke="#c9d8ee" stroke-width="0.7" opacity="0.85"/><polyline points="602.7,763.7 567.6,780.1 527.4,791.9 483.8,798.7 438.7,800 394.1,796 352,786.6 314.1,772.4 282.2,754 257.6,732.1 241.4,707.8 234.4,682.1 236.7,656 248.4,630.9 268.9,607.6 297.3,587.4 332.4,571 372.6,559.1 416.2,552.4 461.3,551 505.9,555.1 548,564.4 585.9,578.6 617.8,597.1 642.4,618.9 658.6,643.3 665.6,669 663.3,695 651.6,720.2 631.1,743.4 602.7,763.7" fill="none" stroke="#d7e3f4" stroke-width="0.9" opacity="0.5"/><polyline points="581.6,751.5 551.4,765.7 516.7,775.9 479.1,781.7 440.3,782.8 401.8,779.3 365.5,771.3 332.9,759 305.4,743.2 284.2,724.3 270.2,703.3 264.1,681.2 266.2,658.7 276.3,637 293.9,617 318.4,599.6 348.6,585.4 383.3,575.2 420.9,569.4 459.7,568.2 498.2,571.7 534.5,579.8 567.1,592 594.6,607.9 615.8,626.8 629.8,647.7 635.9,669.9 633.8,692.3 623.7,714 606.1,734.1 581.6,751.5" fill="none" stroke="#d7e3f4" stroke-width="0.8" opacity="0.4"/><polygon points="299.3,415 278.8,401.3 262.1,386 249.4,369.4 241,352 237.2,334 237.9,315.9 243.3,298.1 253.1,280.9 267.2,264.7 285.3,249.9 306.9,236.8 331.6,225.7 358.9,216.8 388.1,210.3 418.7,206.3 450,205 481.3,206.3 511.9,210.3 541.1,216.8 568.4,225.7 593.1,236.8 614.7,249.9 632.8,264.7 646.9,280.9 656.7,298.1 662.1,315.9 662.8,334 659,352 650.6,369.4 637.9,386 621.2,401.3 600.7,415 600.7,763 621.2,749.3 637.9,734 650.6,717.4 659,700 662.8,682 662.1,663.9 656.7,646.1 646.9,628.9 632.8,612.7 614.7,597.9 593.1,584.8 568.4,573.7 541.1,564.8 511.9,558.3 481.3,554.3 450,553 418.7,554.3 388.1,558.3 358.9,564.8 331.6,573.7 306.9,584.8 285.3,597.9 267.2,612.7 253.1,628.9 243.3,646.1 237.9,663.9 237.2,682 241,700 249.4,717.4 262.1,734 278.8,749.3 299.3,763" fill="url(#gBand)" stroke="#d7e3f4" stroke-width="2.0" opacity="0.92"/><polyline points="236.9,676 236.9,328" fill="none" stroke="#d7e3f4" stroke-width="0.6" opacity="0.3"/><polyline points="299.3,589 299.3,241" fill="none" stroke="#d7e3f4" stroke-width="0.6" opacity="0.3"/><polyline points="450,553 450,205" fill="none" stroke="#d7e3f4" stroke-width="0.6" opacity="0.3"/><polyline points="600.7,589 600.7,241" fill="none" stroke="#d7e3f4" stroke-width="0.6" opacity="0.3"/><polyline points="663.1,676 663.1,328" fill="none" stroke="#d7e3f4" stroke-width="0.6" opacity="0.3"/><polyline points="624.6,746.6 624.6,398.6" fill="none" stroke="#d7e3f4" stroke-width="0.6" opacity="0.3"/><polygon points="299.3,415 278.8,401.3 262.1,386 249.4,369.4 241,352 237.2,334 237.9,315.9 243.3,298.1 253.1,280.9 267.2,264.7 285.3,249.9 306.9,236.8 331.6,225.7 358.9,216.8 388.1,210.3 418.7,206.3 450,205 481.3,206.3 511.9,210.3 541.1,216.8 568.4,225.7 593.1,236.8 614.7,249.9 632.8,264.7 646.9,280.9 656.7,298.1 662.1,315.9 662.8,334 659,352 650.6,369.4 637.9,386 621.2,401.3 600.7,415 450,154 468.2,165.8 486.1,179.9 503.4,196.2 520,214.4 535.6,234.2 549.9,255.5 562.8,277.7 574,300.8 583.4,324.2 590.9,347.6 596.3,370.8 599.6,393.4 600.7,415 299.3,415 300.4,393.4 303.7,370.8 309.1,347.6 316.6,324.2 326,300.8 337.2,277.7 350.1,255.5 364.4,234.2 380,214.4 396.6,196.2 413.9,179.9 431.8,165.8 450,154" fill="url(#gDome)" stroke="#d7e3f4" stroke-width="2.0" opacity="0.92"/><polyline points="317,323.1 293.6,306.7 276.2,287.9 265.5,267.5 261.8,246.3 265.5,225.1 276.2,204.7 293.6,186 317,169.5 345.5,156 378,145.9 413.3,139.8 450,137.7 486.7,139.8 522,145.9 554.5,156 583,169.5 606.4,186 623.8,204.7 634.5,225.1 638.2,246.3 634.5,267.5 623.8,287.9 606.4,306.7 583,323.1" fill="none" stroke="#d7e3f4" stroke-width="0.6" opacity="0.3"/><polyline points="357.2,244.4 340.9,233 328.8,219.9 321.3,205.7 318.8,190.9 321.3,176.1 328.8,161.9 340.9,148.8 357.2,137.3 377.1,127.9 399.8,120.9 424.4,116.6 450,115.1 475.6,116.6 500.2,120.9 522.9,127.9 542.8,137.3 559.1,148.8 571.2,161.9 578.7,176.1 581.2,190.9 578.7,205.7 571.2,219.9 559.1,233 542.8,244.4" fill="none" stroke="#d7e3f4" stroke-width="0.6" opacity="0.3"/><polyline points="403.4,189.4 395.2,183.6 389.2,177.1 385.4,169.9 384.1,162.5 385.4,155.1 389.2,148 395.2,141.4 403.4,135.6 413.4,130.9 424.8,127.4 437.2,125.2 450,124.5 462.8,125.2 475.2,127.4 486.6,130.9 496.6,135.6 504.8,141.4 510.8,148 514.6,155.1 515.9,162.5 514.6,169.9 510.8,177.1 504.8,183.6 496.6,189.4" fill="none" stroke="#d7e3f4" stroke-width="0.6" opacity="0.3"/><polyline points="244.2,296.2 245.7,275.4 250.1,255.4 257.5,236.5 267.7,218.9 280.6,202.9 295.9,188.8 313.5,176.6 333.1,166.7 354.3,159.1 377,154 400.7,151.4 425.2,151.4 450,154" fill="none" stroke="#d7e3f4" stroke-width="0.6" opacity="0.28"/><polyline points="394.8,209.2 395.2,189 396.4,171 398.4,155.2 401.2,141.9 404.6,131.3 408.7,123.7 413.4,119 418.7,117.3 424.4,118.7 430.4,123.2 436.8,130.6 443.4,140.9 450,154" fill="none" stroke="#d7e3f4" stroke-width="0.6" opacity="0.28"/><polyline points="600.7,241 599.6,220.7 596.3,201.9 590.9,185 583.4,170.1 574,157.6 562.8,147.5 549.9,140.1 535.6,135.4 520,133.5 503.4,134.5 486.1,138.2 468.2,144.8 450,154" fill="none" stroke="#d7e3f4" stroke-width="0.6" opacity="0.28"/><polyline points="655.8,359.8 654.3,338.6 649.9,317.3 642.5,296.1 632.3,275.3 619.4,255.4 604.1,236.5 586.5,218.9 566.9,202.9 545.7,188.7 523,176.6 499.3,166.7 474.8,159.1 450,154" fill="none" stroke="#d7e3f4" stroke-width="0.6" opacity="0.28"/><polygon points="314.4,406.3 296,394 280.9,380.2 269.4,365.3 261.9,349.6 258.4,333.4 259.1,317.1 264,301.1 272.8,285.6 285.5,271.1 301.7,257.8 321.2,246 343.4,235.9 368,227.9 394.3,222 421.9,218.5 450,217.3 478.1,218.5 505.7,222 532,227.9 556.6,235.9 578.8,246 598.3,257.8 614.5,271.1 627.2,285.6 636,301.1 640.9,317.1 641.6,333.4 638.1,349.6 630.6,365.3 619.1,380.2 604,394 585.6,406.3 450,171.4 466.3,182 482.5,194.7 498.1,209.3 513,225.7 527,243.6 539.9,262.7 551.5,282.8 561.6,303.5 570.1,324.6 576.8,345.7 581.7,366.5 584.6,386.9 585.6,406.3 314.4,406.3 315.4,386.9 318.3,366.5 323.2,345.7 329.9,324.6 338.4,303.5 348.5,282.8 360.1,262.7 373,243.6 387,225.7 401.9,209.3 417.5,194.7 433.7,182 450,171.4" fill="url(#gDomeIn)" stroke="#9fb6d4" stroke-width="1.1" opacity="0.85"/><polyline points="327.1,332.8 305.5,317.6 289.4,300.2 279.5,281.4 276.2,261.8 279.5,242.2 289.4,223.4 305.5,206.1 327.1,190.9 353.4,178.4 383.5,169.1 416.1,163.4 450,161.5 483.9,163.4 516.5,169.1 546.6,178.4 572.9,190.9 594.5,206.1 610.6,223.4 620.5,242.2 623.8,261.8 620.5,281.4 610.6,300.2 594.5,317.6 572.9,332.8" fill="none" stroke="#9fb6d4" stroke-width="0.5" opacity="0.22"/><polyline points="362.8,258.4 347.5,247.6 336.1,235.3 329.1,221.9 326.7,208 329.1,194.2 336.1,180.8 347.5,168.5 362.8,157.7 381.5,148.9 402.8,142.3 425.9,138.2 450,136.9 474.1,138.2 497.2,142.3 518.5,148.9 537.2,157.7 552.5,168.5 563.9,180.8 570.9,194.2 573.3,208 570.9,221.9 563.9,235.3 552.5,247.6 537.2,258.4" fill="none" stroke="#9fb6d4" stroke-width="0.5" opacity="0.22"/><polyline points="403.6,207.6 395.5,201.9 389.4,195.3 385.7,188.2 384.4,180.8 385.7,173.5 389.4,166.4 395.5,159.8 403.6,154.1 413.6,149.4 424.9,145.9 437.2,143.7 450,143 462.8,143.7 475.1,145.9 486.4,149.4 496.4,154.1 504.5,159.8 510.6,166.4 514.3,173.5 515.6,180.8 514.3,188.2 510.6,195.3 504.5,201.9 496.4,207.6" fill="none" stroke="#9fb6d4" stroke-width="0.5" opacity="0.22"/><polygon points="314.4,406.3 296,394 280.9,380.2 269.4,365.3 261.9,349.6 258.4,333.4 259.1,317.1 264,301.1 272.8,285.6 285.5,271.1 301.7,257.8 321.2,246 343.4,235.9 368,227.9 394.3,222 421.9,218.5 450,217.3 478.1,218.5 505.7,222 532,227.9 556.6,235.9 578.8,246 598.3,257.8 614.5,271.1 627.2,285.6 636,301.1 640.9,317.1 641.6,333.4 638.1,349.6 630.6,365.3 619.1,380.2 604,394 585.6,406.3 585.6,754.3 604,742 619.1,728.2 630.6,713.3 638.1,697.6 641.6,681.4 640.9,665.1 636,649.1 627.2,633.6 614.5,619.1 598.3,605.8 578.8,594 556.6,583.9 532,575.9 505.7,570 478.1,566.5 450,565.3 421.9,566.5 394.3,570 368,575.9 343.4,583.9 321.2,594 301.7,605.8 285.5,619.1 272.8,633.6 264,649.1 259.1,665.1 258.4,681.4 261.9,697.6 269.4,713.3 280.9,728.2 296,742 314.4,754.3" fill="url(#gInner)" stroke="#9fb6d4" stroke-width="1.1" opacity="0.9"/><polyline points="311.3,681.1 295,669.5 281.5,656.7 271.3,643 264.3,628.6 260.8,613.8 260.8,598.9 264.3,584.1 271.3,569.7 281.6,556 295.1,543.2 311.4,531.6 330.3,521.4 351.5,512.8 374.5,506 398.8,501 424.2,497.9 450,496.9 475.8,497.9 501.2,501 525.5,506 548.5,512.8 569.7,521.4 588.6,531.6 604.9,543.2 618.4,556 628.7,569.7 635.7,584.1 639.2,598.9 639.2,613.8 635.7,628.6 628.7,643 618.5,656.7 605,669.5 588.7,681.1" fill="none" stroke="#8fb8e6" stroke-width="0.7" opacity="0.28"/><polyline points="311.3,611.5 295,599.9 281.5,587.1 271.3,573.4 264.3,559 260.8,544.2 260.8,529.3 264.3,514.5 271.3,500.1 281.6,486.4 295.1,473.6 311.4,462 330.3,451.8 351.5,443.2 374.5,436.4 398.8,431.4 424.2,428.3 450,427.3 475.8,428.3 501.2,431.4 525.5,436.4 548.5,443.2 569.7,451.8 588.6,462 604.9,473.6 618.4,486.4 628.7,500.1 635.7,514.5 639.2,529.3 639.2,544.2 635.7,559 628.7,573.4 618.5,587.1 605,599.9 588.7,611.5" fill="none" stroke="#8fb8e6" stroke-width="0.7" opacity="0.28"/><polyline points="311.3,541.9 295,530.3 281.5,517.5 271.3,503.8 264.3,489.4 260.8,474.6 260.8,459.7 264.3,444.9 271.3,430.5 281.6,416.8 295.1,404 311.4,392.4 330.3,382.2 351.5,373.6 374.5,366.8 398.8,361.8 424.2,358.7 450,357.7 475.8,358.7 501.2,361.8 525.5,366.8 548.5,373.6 569.7,382.2 588.6,392.4 604.9,404 618.4,416.8 628.7,430.5 635.7,444.9 639.2,459.7 639.2,474.6 635.7,489.4 628.7,503.8 618.5,517.5 605,530.3 588.7,541.9" fill="none" stroke="#8fb8e6" stroke-width="0.7" opacity="0.28"/><polyline points="311.3,472.3 295,460.7 281.5,447.9 271.3,434.2 264.3,419.8 260.8,405 260.8,390.1 264.3,375.3 271.3,360.9 281.6,347.2 295.1,334.4 311.4,322.8 330.3,312.6 351.5,304 374.5,297.2 398.8,292.2 424.2,289.1 450,288.1 475.8,289.1 501.2,292.2 525.5,297.2 548.5,304 569.7,312.6 588.6,322.8 604.9,334.4 618.4,347.2 628.7,360.9 635.7,375.3 639.2,390.1 639.2,405 635.7,419.8 628.7,434.2 618.5,447.9 605,460.7 588.7,472.3" fill="none" stroke="#8fb8e6" stroke-width="0.7" opacity="0.28"/><polygon points="524.3,698 507.3,706 487.7,711.8 466.4,715.1 444.5,715.7 422.8,713.7 402.3,709.2 383.8,702.3 368.3,693.3 356.3,682.7 348.5,670.8 345,658.3 346.2,645.6 351.9,633.4 361.8,622.1 375.7,612.2 392.7,604.2 412.3,598.5 433.6,595.2 455.5,594.5 477.2,596.5 497.7,601 516.2,607.9 531.7,616.9 543.7,627.6 551.5,639.4 555,651.9 553.8,664.6 548.1,676.9 538.2,688.2 524.3,698 524.3,718.9 538.2,709.1 548.1,697.8 553.8,685.5 555,672.8 551.5,660.3 543.7,648.4 531.7,637.8 516.2,628.8 497.7,621.9 477.2,617.4 455.5,615.4 433.6,616 412.3,619.3 392.7,625.1 375.7,633.1 361.8,642.9 351.9,654.2 346.2,666.5 345,679.2 348.5,691.7 356.3,703.6 368.3,714.2 383.8,723.2 402.3,730.1 422.8,734.6 444.5,736.6 466.4,736 487.7,732.7 507.3,726.9 524.3,718.9" fill="url(#gChuck)" stroke="#d7e3f4" stroke-width="1.2" opacity="0.85"/><polygon points="524.3,698 507.3,706 487.7,711.8 466.4,715.1 444.5,715.7 422.8,713.7 402.3,709.2 383.8,702.3 368.3,693.3 356.3,682.7 348.5,670.8 345,658.3 346.2,645.6 351.9,633.4 361.8,622.1 375.7,612.2 392.7,604.2 412.3,598.5 433.6,595.2 455.5,594.5 477.2,596.5 497.7,601 516.2,607.9 531.7,616.9 543.7,627.6 551.5,639.4 555,651.9 553.8,664.6 548.1,676.9 538.2,688.2 524.3,698" fill="#c9b48f" stroke="#d7e3f4" stroke-width="1.2" opacity="0.9"/><polygon points="511.3,690.5 497.2,697.1 481.1,701.8 463.6,704.5 445.5,705.1 427.6,703.4 410.7,699.7 395.5,694 382.7,686.6 372.8,677.8 366.3,668.1 363.5,657.7 364.4,647.3 369.1,637.2 377.3,627.9 388.7,619.7 402.8,613.2 418.9,608.4 436.4,605.7 454.5,605.2 472.4,606.8 489.3,610.5 504.5,616.2 517.3,623.6 527.2,632.4 533.7,642.2 536.5,652.5 535.6,662.9 530.9,673.1 522.7,682.4 511.3,690.5" fill="#33425a" opacity="0.9"/><polygon points="508.3,674.8 494.9,681.1 479.5,685.6 462.9,688.2 445.7,688.7 428.7,687.2 412.6,683.6 398.1,678.2 386,671.1 376.6,662.8 370.4,653.5 367.7,643.7 368.6,633.8 373.1,624.2 380.9,615.3 391.7,607.6 405.1,601.3 420.5,596.8 437.1,594.2 454.3,593.7 471.3,595.2 487.4,598.8 501.9,604.2 514,611.3 523.4,619.6 529.6,628.9 532.3,638.7 531.4,648.6 526.9,658.2 519.1,667.1 508.3,674.8 508.3,709.6 519.1,701.9 526.9,693 531.4,683.4 532.3,673.5 529.6,663.7 523.4,654.4 514,646.1 501.9,639 487.4,633.6 471.3,630 454.3,628.5 437.1,629 420.5,631.6 405.1,636.1 391.7,642.4 380.9,650.1 373.1,659 368.6,668.6 367.7,678.5 370.4,688.3 376.6,697.6 386,705.9 398.1,713 412.6,718.4 428.7,722 445.7,723.5 462.9,723 479.5,720.4 494.9,715.9 508.3,709.6" fill="url(#gChuck)" stroke="#d7e3f4" stroke-width="1.3" opacity="0.9"/><polygon points="508.3,674.8 494.9,681.1 479.5,685.6 462.9,688.2 445.7,688.7 428.7,687.2 412.6,683.6 398.1,678.2 386,671.1 376.6,662.8 370.4,653.5 367.7,643.7 368.6,633.8 373.1,624.2 380.9,615.3 391.7,607.6 405.1,601.3 420.5,596.8 437.1,594.2 454.3,593.7 471.3,595.2 487.4,598.8 501.9,604.2 514,611.3 523.4,619.6 529.6,628.9 532.3,638.7 531.4,648.6 526.9,658.2 519.1,667.1 508.3,674.8" fill="#5a6f8f" stroke="#d7e3f4" stroke-width="1.4" opacity="0.92"/><ellipse cx="389.7" cy="571.6" rx="12" ry="7" fill="#1b2634" stroke="#ff8a3a" stroke-width="1.4" opacity="0.9"/><ellipse cx="389.7" cy="571.6" rx="6" ry="3.5" fill="url(#gHot)" opacity="0.95"/><ellipse cx="510.3" cy="571.6" rx="12" ry="7" fill="#1b2634" stroke="#ff8a3a" stroke-width="1.4" opacity="0.9"/><ellipse cx="510.3" cy="571.6" rx="6" ry="3.5" fill="url(#gHot)" opacity="0.95"/><ellipse cx="389.7" cy="627.3" rx="12" ry="7" fill="#1b2634" stroke="#ff8a3a" stroke-width="1.4" opacity="0.9"/><ellipse cx="389.7" cy="627.3" rx="6" ry="3.5" fill="url(#gHot)" opacity="0.95"/><ellipse cx="510.3" cy="627.3" rx="12" ry="7" fill="#1b2634" stroke="#ff8a3a" stroke-width="1.4" opacity="0.9"/><ellipse cx="510.3" cy="627.3" rx="6" ry="3.5" fill="url(#gHot)" opacity="0.95"/><polygon points="374.6,307.1 377,326 374.9,344.9 373.2,363.8 375.5,382.7 372.7,401.6 372.7,420.5 375.8,439.4 377.3,458.3 375.6,477.1 373,496 375,514.9 373.2,533.8 372.3,552.7 374.5,571.6 406.4,571.6 404.5,552.7 403.3,533.8 402.3,514.9 402.1,496 405.2,477.1 407.1,458.3 402.2,439.4 406.3,420.5 403.6,401.6 406.2,382.7 404.7,363.8 405.1,344.9 404.5,326 405,307.1" fill="url(#gRodLit)" stroke="#d7e3f4" stroke-width="1.0" opacity="0.9"/><polygon points="383.5,307.1 383.5,326 383.5,344.9 383.5,363.8 383.5,382.7 383.5,401.6 383.5,420.5 383.5,439.4 383.5,458.3 383.5,477.1 383.5,496 383.5,514.9 383.5,533.8 383.5,552.7 383.5,571.6 396,571.6 396,552.7 396,533.8 396,514.9 396,496 396,477.1 396,458.3 396,439.4 396,420.5 396,401.6 396,382.7 396,363.8 396,344.9 396,326 396,307.1" fill="url(#gCore)" opacity="0.92"/><circle cx="390.1" cy="326" r="2.8" fill="#e8b98a" opacity="0.30"/><circle cx="389.7" cy="363.8" r="2.9" fill="#e8b98a" opacity="0.30"/><circle cx="388.9" cy="401.6" r="2" fill="#e8b98a" opacity="0.30"/><circle cx="399.4" cy="439.4" r="3.6" fill="#e8b98a" opacity="0.30"/><circle cx="396.3" cy="477.1" r="3" fill="#e8b98a" opacity="0.30"/><circle cx="386.1" cy="514.9" r="1.9" fill="#e8b98a" opacity="0.30"/><circle cx="385.6" cy="552.7" r="1.6" fill="#e8b98a" opacity="0.30"/><ellipse cx="389.7" cy="307.1" rx="14.9" ry="8.6" fill="url(#gCore)" stroke="#d7e3f4" stroke-width="1.0" opacity="0.95"/><polygon points="493.7,307.1 494.5,326 495.3,344.9 495.3,363.8 494.1,382.7 496.4,401.6 496.3,420.5 497.3,439.4 494,458.3 496.6,477.1 493.8,496 497.3,514.9 493.9,533.8 492.8,552.7 493.9,571.6 526.4,571.6 527.7,552.7 524.1,533.8 527,514.9 526.1,496 525.6,477.1 523.8,458.3 527.5,439.4 526.7,420.5 524.3,401.6 523.9,382.7 525,363.8 525.2,344.9 523.6,326 526,307.1" fill="url(#gRodLit)" stroke="#d7e3f4" stroke-width="1.0" opacity="0.9"/><polygon points="504,307.1 504,326 504,344.9 504,363.8 504,382.7 504,401.6 504,420.5 504,439.4 504,458.3 504,477.1 504,496 504,514.9 504,533.8 504,552.7 504,571.6 516.5,571.6 516.5,552.7 516.5,533.8 516.5,514.9 516.5,496 516.5,477.1 516.5,458.3 516.5,439.4 516.5,420.5 516.5,401.6 516.5,382.7 516.5,363.8 516.5,344.9 516.5,326 516.5,307.1" fill="url(#gCore)" opacity="0.92"/><circle cx="511" cy="326" r="2.7" fill="#e8b98a" opacity="0.30"/><circle cx="510.8" cy="363.8" r="3.2" fill="#e8b98a" opacity="0.30"/><circle cx="512.2" cy="401.6" r="2.1" fill="#e8b98a" opacity="0.30"/><circle cx="502.8" cy="439.4" r="2.5" fill="#e8b98a" opacity="0.30"/><circle cx="518.5" cy="477.1" r="1.7" fill="#e8b98a" opacity="0.30"/><circle cx="513.8" cy="514.9" r="2.8" fill="#e8b98a" opacity="0.30"/><circle cx="503.7" cy="552.7" r="1.9" fill="#e8b98a" opacity="0.30"/><ellipse cx="510.3" cy="307.1" rx="14.9" ry="8.6" fill="url(#gCore)" stroke="#d7e3f4" stroke-width="1.0" opacity="0.95"/><path d="M 378.7 305.1 Q 378.7 283.1 450 281.1 Q 521.3 283.1 521.3 305.1 L 501.3 305.1 Q 501.3 289.1 450 297.1 Q 398.7 289.1 398.7 305.1 Z" fill="url(#gRodLit)" stroke="#d7e3f4" stroke-width="1.0" opacity="0.92"/><path d="M 389.7 301.1 Q 450 291.1 510.3 301.1" fill="none" stroke="#ff8a3a" stroke-width="5" opacity="0.5"/><path d="M 389.7 301.1 Q 450 291.1 510.3 301.1" fill="none" stroke="#ffd9a0" stroke-width="2" opacity="0.7"/><polygon points="372.2,362.8 374.2,381.7 372.9,400.6 373.4,419.5 373,438.4 375.7,457.3 375,476.1 374.4,495 372.7,513.9 377.1,532.8 373.2,551.7 374.1,570.6 373.3,589.5 375.3,608.4 377.2,627.3 406.4,627.3 404.9,608.4 403.2,589.5 407,570.6 403.8,551.7 404.1,532.8 402.1,513.9 407.2,495 404.4,476.1 402.7,457.3 405.9,438.4 406,419.5 402.6,400.6 405.6,381.7 402.6,362.8" fill="url(#gRodLit)" stroke="#d7e3f4" stroke-width="1.0" opacity="0.9"/><polygon points="383.5,362.8 383.5,381.7 383.5,400.6 383.5,419.5 383.5,438.4 383.5,457.3 383.5,476.1 383.5,495 383.5,513.9 383.5,532.8 383.5,551.7 383.5,570.6 383.5,589.5 383.5,608.4 383.5,627.3 396,627.3 396,608.4 396,589.5 396,570.6 396,551.7 396,532.8 396,513.9 396,495 396,476.1 396,457.3 396,438.4 396,419.5 396,400.6 396,381.7 396,362.8" fill="url(#gCore)" opacity="0.92"/><circle cx="386.9" cy="381.7" r="1.8" fill="#e8b98a" opacity="0.30"/><circle cx="396.3" cy="419.5" r="3.6" fill="#e8b98a" opacity="0.30"/><circle cx="380.6" cy="457.3" r="3" fill="#e8b98a" opacity="0.30"/><circle cx="396.9" cy="495" r="2.8" fill="#e8b98a" opacity="0.30"/><circle cx="384.3" cy="532.8" r="3.2" fill="#e8b98a" opacity="0.30"/><circle cx="394.2" cy="570.6" r="1.8" fill="#e8b98a" opacity="0.30"/><circle cx="392.5" cy="608.4" r="1.9" fill="#e8b98a" opacity="0.30"/><ellipse cx="389.7" cy="362.8" rx="14.9" ry="8.6" fill="url(#gCore)" stroke="#d7e3f4" stroke-width="1.0" opacity="0.95"/><polygon points="496.1,362.8 496.5,381.7 496.4,400.6 495.9,419.5 494.5,438.4 494.5,457.3 495.2,476.1 495.8,495 495.9,513.9 493.5,532.8 492.8,551.7 495.5,570.6 497.8,589.5 492.9,608.4 494,627.3 526.5,627.3 525.1,608.4 525.8,589.5 526.2,570.6 524.5,551.7 525.3,532.8 525.3,513.9 523.7,495 527.6,476.1 526.4,457.3 524,438.4 523.5,419.5 524.5,400.6 522.9,381.7 524.8,362.8" fill="url(#gRodLit)" stroke="#d7e3f4" stroke-width="1.0" opacity="0.9"/><polygon points="504,362.8 504,381.7 504,400.6 504,419.5 504,438.4 504,457.3 504,476.1 504,495 504,513.9 504,532.8 504,551.7 504,570.6 504,589.5 504,608.4 504,627.3 516.5,627.3 516.5,608.4 516.5,589.5 516.5,570.6 516.5,551.7 516.5,532.8 516.5,513.9 516.5,495 516.5,476.1 516.5,457.3 516.5,438.4 516.5,419.5 516.5,400.6 516.5,381.7 516.5,362.8" fill="url(#gCore)" opacity="0.92"/><circle cx="517.9" cy="381.7" r="1.6" fill="#e8b98a" opacity="0.30"/><circle cx="515.5" cy="419.5" r="2" fill="#e8b98a" opacity="0.30"/><circle cx="504.1" cy="457.3" r="2.4" fill="#e8b98a" opacity="0.30"/><circle cx="508.7" cy="495" r="2" fill="#e8b98a" opacity="0.30"/><circle cx="505.7" cy="532.8" r="2.4" fill="#e8b98a" opacity="0.30"/><circle cx="513.9" cy="570.6" r="1.8" fill="#e8b98a" opacity="0.30"/><circle cx="507.8" cy="608.4" r="1.9" fill="#e8b98a" opacity="0.30"/><ellipse cx="510.3" cy="362.8" rx="14.9" ry="8.6" fill="url(#gCore)" stroke="#d7e3f4" stroke-width="1.0" opacity="0.95"/><path d="M 378.7 360.8 Q 378.7 338.8 450 336.8 Q 521.3 338.8 521.3 360.8 L 501.3 360.8 Q 501.3 344.8 450 352.8 Q 398.7 344.8 398.7 360.8 Z" fill="url(#gRodLit)" stroke="#d7e3f4" stroke-width="1.0" opacity="0.92"/><path d="M 389.7 356.8 Q 450 346.8 510.3 356.8" fill="none" stroke="#ff8a3a" stroke-width="5" opacity="0.5"/><path d="M 389.7 356.8 Q 450 346.8 510.3 356.8" fill="none" stroke="#ffd9a0" stroke-width="2" opacity="0.7"/><polygon points="438.3,608.7 437.3,613.5 439.7,618.3 438.2,623.1 438.8,627.9 438.6,632.7 439.1,637.6 440.2,642.4 438.2,647.2 437.2,652 440,656.8 440.4,661.6 439.7,666.4 438.2,671.2 436.7,676 460.2,676 460.4,671.2 461.2,666.4 461.5,661.6 460.7,656.8 462,652 462.1,647.2 460.9,642.4 460.2,637.6 461.1,632.7 463.1,627.9 462.1,623.1 460.4,618.3 460.4,613.5 460.2,608.7" fill="url(#gRodLit)" stroke="#d7e3f4" stroke-width="1.0" opacity="0.9"/><polygon points="445.2,608.7 445.2,613.5 445.2,618.3 445.2,623.1 445.2,627.9 445.2,632.7 445.2,637.6 445.2,642.4 445.2,647.2 445.2,652 445.2,656.8 445.2,661.6 445.2,666.4 445.2,671.2 445.2,676 454.8,676 454.8,671.2 454.8,666.4 454.8,661.6 454.8,656.8 454.8,652 454.8,647.2 454.8,642.4 454.8,637.6 454.8,632.7 454.8,627.9 454.8,623.1 454.8,618.3 454.8,613.5 454.8,608.7" fill="url(#gCore)" opacity="0.92"/><circle cx="457.2" cy="613.5" r="2.6" fill="#e8b98a" opacity="0.30"/><circle cx="449.4" cy="623.1" r="3.4" fill="#e8b98a" opacity="0.30"/><circle cx="451.6" cy="632.7" r="3.5" fill="#e8b98a" opacity="0.30"/><circle cx="447.9" cy="642.4" r="1.9" fill="#e8b98a" opacity="0.30"/><circle cx="456.2" cy="652" r="1.8" fill="#e8b98a" opacity="0.30"/><circle cx="454.3" cy="661.6" r="2.7" fill="#e8b98a" opacity="0.30"/><circle cx="457.1" cy="671.2" r="3.5" fill="#e8b98a" opacity="0.30"/><ellipse cx="450" cy="608.7" rx="11.4" ry="6.6" fill="url(#gCore)" stroke="#d7e3f4" stroke-width="1.0" opacity="0.95"/><ellipse cx="450" cy="608.7" rx="11.4" ry="6.6" fill="#33425a" stroke="#8fb8e6" stroke-width="1.1"/><line x1="442.8" y1="604.7" x2="440.4" y2="574.7" stroke="#8fb8e6" stroke-width="1.3" opacity="0.55" stroke-dasharray="3 3"/><path d="M 437.4 578.7 L 440.4 572.7 L 443.4 578.7" fill="none" stroke="#8fb8e6" stroke-width="1.3" opacity="0.55"/><line x1="450" y1="604.7" x2="450" y2="574.7" stroke="#8fb8e6" stroke-width="1.3" opacity="0.55" stroke-dasharray="3 3"/><path d="M 447 578.7 L 450 572.7 L 453 578.7" fill="none" stroke="#8fb8e6" stroke-width="1.3" opacity="0.55"/><line x1="457.2" y1="604.7" x2="459.6" y2="574.7" stroke="#8fb8e6" stroke-width="1.3" opacity="0.55" stroke-dasharray="3 3"/><path d="M 456.6 578.7 L 459.6 572.7 L 462.6 578.7" fill="none" stroke="#8fb8e6" stroke-width="1.3" opacity="0.55"/><polygon points="585.6,754.3 600.7,763 600.7,415 585.6,406.3" fill="url(#gCut)" stroke="#d7e3f4" stroke-width="1.8" opacity="0.95"/><g clip-path="url(#clipRC)" stroke="#20303f" stroke-width="0.6" opacity="0.34"><line x1="217" y1="402" x2="582" y2="767"/><line x1="228" y1="402" x2="593" y2="767"/><line x1="239" y1="402" x2="604" y2="767"/><line x1="250" y1="402" x2="615" y2="767"/><line x1="261" y1="402" x2="626" y2="767"/><line x1="272" y1="402" x2="637" y2="767"/><line x1="283" y1="402" x2="648" y2="767"/><line x1="294" y1="402" x2="659" y2="767"/><line x1="305" y1="402" x2="670" y2="767"/><line x1="316" y1="402" x2="681" y2="767"/><line x1="327" y1="402" x2="692" y2="767"/><line x1="338" y1="402" x2="703" y2="767"/><line x1="349" y1="402" x2="714" y2="767"/><line x1="360" y1="402" x2="725" y2="767"/><line x1="371" y1="402" x2="736" y2="767"/><line x1="382" y1="402" x2="747" y2="767"/><line x1="393" y1="402" x2="758" y2="767"/><line x1="404" y1="402" x2="769" y2="767"/><line x1="415" y1="402" x2="780" y2="767"/><line x1="426" y1="402" x2="791" y2="767"/><line x1="437" y1="402" x2="802" y2="767"/><line x1="448" y1="402" x2="813" y2="767"/><line x1="459" y1="402" x2="824" y2="767"/><line x1="470" y1="402" x2="835" y2="767"/><line x1="481" y1="402" x2="846" y2="767"/><line x1="492" y1="402" x2="857" y2="767"/><line x1="503" y1="402" x2="868" y2="767"/><line x1="514" y1="402" x2="879" y2="767"/><line x1="525" y1="402" x2="890" y2="767"/><line x1="536" y1="402" x2="901" y2="767"/><line x1="547" y1="402" x2="912" y2="767"/><line x1="558" y1="402" x2="923" y2="767"/><line x1="569" y1="402" x2="934" y2="767"/><line x1="580" y1="402" x2="945" y2="767"/><line x1="591" y1="402" x2="956" y2="767"/><line x1="602" y1="402" x2="967" y2="767"/></g><polyline points="585.6,754.3 585.6,406.3" fill="none" stroke="#d7e3f4" stroke-width="1.4" opacity="0.7"/><polyline points="600.7,763 600.7,415" fill="none" stroke="#d7e3f4" stroke-width="1.4" opacity="0.7"/><polyline points="593.1,758.6 593.1,410.7" fill="none" stroke="#8fb8e6" stroke-width="0.8" opacity="0.5"/><polygon points="600.7,415 599.7,395 596.9,374.1 592.2,352.6 585.8,330.9 577.6,309.1 567.8,287.5 556.5,266.5 543.9,246.2 530.2,227 515.4,209 499.8,192.5 483.5,177.7 466.9,164.8 450,154 450,171.4 465.2,181.2 480.2,192.7 494.8,206 508.8,220.9 522.2,237.1 534.6,254.4 545.9,272.6 556,291.6 564.8,311 572.2,330.6 578,350.2 582.2,369.5 584.8,388.3 585.6,406.3" fill="url(#gCut)" stroke="#d7e3f4" stroke-width="1.5" opacity="0.95"/><g clip-path="url(#clipRCD)" stroke="#20303f" stroke-width="0.6" opacity="0.34"><line x1="177" y1="150" x2="446" y2="419"/><line x1="188" y1="150" x2="457" y2="419"/><line x1="199" y1="150" x2="468" y2="419"/><line x1="210" y1="150" x2="479" y2="419"/><line x1="221" y1="150" x2="490" y2="419"/><line x1="232" y1="150" x2="501" y2="419"/><line x1="243" y1="150" x2="512" y2="419"/><line x1="254" y1="150" x2="523" y2="419"/><line x1="265" y1="150" x2="534" y2="419"/><line x1="276" y1="150" x2="545" y2="419"/><line x1="287" y1="150" x2="556" y2="419"/><line x1="298" y1="150" x2="567" y2="419"/><line x1="309" y1="150" x2="578" y2="419"/><line x1="320" y1="150" x2="589" y2="419"/><line x1="331" y1="150" x2="600" y2="419"/><line x1="342" y1="150" x2="611" y2="419"/><line x1="353" y1="150" x2="622" y2="419"/><line x1="364" y1="150" x2="633" y2="419"/><line x1="375" y1="150" x2="644" y2="419"/><line x1="386" y1="150" x2="655" y2="419"/><line x1="397" y1="150" x2="666" y2="419"/><line x1="408" y1="150" x2="677" y2="419"/><line x1="419" y1="150" x2="688" y2="419"/><line x1="430" y1="150" x2="699" y2="419"/><line x1="441" y1="150" x2="710" y2="419"/><line x1="452" y1="150" x2="721" y2="419"/><line x1="463" y1="150" x2="732" y2="419"/><line x1="474" y1="150" x2="743" y2="419"/><line x1="485" y1="150" x2="754" y2="419"/><line x1="496" y1="150" x2="765" y2="419"/><line x1="507" y1="150" x2="776" y2="419"/><line x1="518" y1="150" x2="787" y2="419"/><line x1="529" y1="150" x2="798" y2="419"/><line x1="540" y1="150" x2="809" y2="419"/><line x1="551" y1="150" x2="820" y2="419"/><line x1="562" y1="150" x2="831" y2="419"/><line x1="573" y1="150" x2="842" y2="419"/><line x1="584" y1="150" x2="853" y2="419"/><line x1="595" y1="150" x2="864" y2="419"/></g><polyline points="585.6,406.3 584.6,386.9 581.7,366.5 576.8,345.7 570.1,324.6 561.6,303.5 551.5,282.8 539.9,262.7 527,243.6 513,225.7 498.1,209.3 482.5,194.7 466.3,182 450,171.4" fill="none" stroke="#d7e3f4" stroke-width="1.2" opacity="0.65"/><polyline points="600.7,415 599.6,393.4 596.3,370.8 590.9,347.6 583.4,324.2 574,300.8 562.8,277.7 549.9,255.5 535.6,234.2 520,214.4 503.4,196.2 486.1,179.9 468.2,165.8 450,154" fill="none" stroke="#d7e3f4" stroke-width="1.2" opacity="0.65"/><polygon points="314.4,754.3 299.3,763 299.3,415 314.4,406.3" fill="url(#gCutL)" stroke="#d7e3f4" stroke-width="1.8" opacity="0.95"/><g clip-path="url(#clipLC)" stroke="#20303f" stroke-width="0.6" opacity="0.34"><line x1="-69" y1="402" x2="295" y2="767"/><line x1="-58" y1="402" x2="306" y2="767"/><line x1="-47" y1="402" x2="317" y2="767"/><line x1="-36" y1="402" x2="328" y2="767"/><line x1="-25" y1="402" x2="339" y2="767"/><line x1="-14" y1="402" x2="350" y2="767"/><line x1="-3" y1="402" x2="361" y2="767"/><line x1="8" y1="402" x2="372" y2="767"/><line x1="19" y1="402" x2="383" y2="767"/><line x1="30" y1="402" x2="394" y2="767"/><line x1="41" y1="402" x2="405" y2="767"/><line x1="52" y1="402" x2="416" y2="767"/><line x1="63" y1="402" x2="427" y2="767"/><line x1="74" y1="402" x2="438" y2="767"/><line x1="85" y1="402" x2="449" y2="767"/><line x1="96" y1="402" x2="460" y2="767"/><line x1="107" y1="402" x2="471" y2="767"/><line x1="118" y1="402" x2="482" y2="767"/><line x1="129" y1="402" x2="493" y2="767"/><line x1="140" y1="402" x2="504" y2="767"/><line x1="151" y1="402" x2="515" y2="767"/><line x1="162" y1="402" x2="526" y2="767"/><line x1="173" y1="402" x2="537" y2="767"/><line x1="184" y1="402" x2="548" y2="767"/><line x1="195" y1="402" x2="559" y2="767"/><line x1="206" y1="402" x2="570" y2="767"/><line x1="217" y1="402" x2="581" y2="767"/><line x1="228" y1="402" x2="592" y2="767"/><line x1="239" y1="402" x2="603" y2="767"/><line x1="250" y1="402" x2="614" y2="767"/><line x1="261" y1="402" x2="625" y2="767"/><line x1="272" y1="402" x2="636" y2="767"/><line x1="283" y1="402" x2="647" y2="767"/><line x1="294" y1="402" x2="658" y2="767"/><line x1="305" y1="402" x2="669" y2="767"/><line x1="316" y1="402" x2="680" y2="767"/></g><polyline points="314.4,754.3 314.4,406.3" fill="none" stroke="#d7e3f4" stroke-width="1.4" opacity="0.7"/><polyline points="299.3,763 299.3,415" fill="none" stroke="#d7e3f4" stroke-width="1.4" opacity="0.7"/><polyline points="306.9,758.6 306.9,410.7" fill="none" stroke="#8fb8e6" stroke-width="0.8" opacity="0.5"/><polygon points="299.3,415 300.3,395 303.1,374.1 307.8,352.6 314.2,330.9 322.4,309.1 332.2,287.5 343.5,266.5 356.1,246.2 369.8,227 384.6,209 400.2,192.5 416.5,177.7 433.1,164.8 450,154 450,171.4 434.8,181.2 419.8,192.7 405.2,206 391.2,220.9 377.8,237.1 365.4,254.4 354.1,272.6 344,291.6 335.2,311 327.8,330.6 322,350.2 317.8,369.5 315.2,388.3 314.4,406.3" fill="url(#gCutL)" stroke="#d7e3f4" stroke-width="1.5" opacity="0.95"/><g clip-path="url(#clipLCD)" stroke="#20303f" stroke-width="0.6" opacity="0.34"><line x1="26" y1="150" x2="295" y2="419"/><line x1="37" y1="150" x2="306" y2="419"/><line x1="48" y1="150" x2="317" y2="419"/><line x1="59" y1="150" x2="328" y2="419"/><line x1="70" y1="150" x2="339" y2="419"/><line x1="81" y1="150" x2="350" y2="419"/><line x1="92" y1="150" x2="361" y2="419"/><line x1="103" y1="150" x2="372" y2="419"/><line x1="114" y1="150" x2="383" y2="419"/><line x1="125" y1="150" x2="394" y2="419"/><line x1="136" y1="150" x2="405" y2="419"/><line x1="147" y1="150" x2="416" y2="419"/><line x1="158" y1="150" x2="427" y2="419"/><line x1="169" y1="150" x2="438" y2="419"/><line x1="180" y1="150" x2="449" y2="419"/><line x1="191" y1="150" x2="460" y2="419"/><line x1="202" y1="150" x2="471" y2="419"/><line x1="213" y1="150" x2="482" y2="419"/><line x1="224" y1="150" x2="493" y2="419"/><line x1="235" y1="150" x2="504" y2="419"/><line x1="246" y1="150" x2="515" y2="419"/><line x1="257" y1="150" x2="526" y2="419"/><line x1="268" y1="150" x2="537" y2="419"/><line x1="279" y1="150" x2="548" y2="419"/><line x1="290" y1="150" x2="559" y2="419"/><line x1="301" y1="150" x2="570" y2="419"/><line x1="312" y1="150" x2="581" y2="419"/><line x1="323" y1="150" x2="592" y2="419"/><line x1="334" y1="150" x2="603" y2="419"/><line x1="345" y1="150" x2="614" y2="419"/><line x1="356" y1="150" x2="625" y2="419"/><line x1="367" y1="150" x2="636" y2="419"/><line x1="378" y1="150" x2="647" y2="419"/><line x1="389" y1="150" x2="658" y2="419"/><line x1="400" y1="150" x2="669" y2="419"/><line x1="411" y1="150" x2="680" y2="419"/><line x1="422" y1="150" x2="691" y2="419"/><line x1="433" y1="150" x2="702" y2="419"/><line x1="444" y1="150" x2="713" y2="419"/></g><polyline points="314.4,406.3 315.4,386.9 318.3,366.5 323.2,345.7 329.9,324.6 338.4,303.5 348.5,282.8 360.1,262.7 373,243.6 387,225.7 401.9,209.3 417.5,194.7 433.7,182 450,171.4" fill="none" stroke="#d7e3f4" stroke-width="1.2" opacity="0.65"/><polyline points="299.3,415 300.4,393.4 303.7,370.8 309.1,347.6 316.6,324.2 326,300.8 337.2,277.7 350.1,255.5 364.4,234.2 380,214.4 396.6,196.2 413.9,179.9 431.8,165.8 450,154" fill="none" stroke="#d7e3f4" stroke-width="1.2" opacity="0.65"/><polyline points="585.6,406.3 600.7,415" fill="none" stroke="#8fb8e6" stroke-width="1.6" opacity="0.8"/><polyline points="314.4,406.3 299.3,415" fill="none" stroke="#8fb8e6" stroke-width="1.6" opacity="0.8"/><ellipse cx="377.1" cy="351.6" rx="26" ry="30" fill="#22303f" stroke="#d7e3f4" stroke-width="2" opacity="0.9" transform="rotate(-18 377.1 351.6)"/><ellipse cx="377.1" cy="351.6" rx="18" ry="22" fill="url(#gAccent)" stroke="#d7e3f4" stroke-width="1" opacity="0.55" transform="rotate(-18 377.1 351.6)"/><circle cx="395.8" cy="351.6" r="1.8" fill="#c9d8ee" opacity="0.8"/><circle cx="390.3" cy="367.2" r="1.8" fill="#c9d8ee" opacity="0.8"/><circle cx="377.1" cy="373.7" r="1.8" fill="#c9d8ee" opacity="0.8"/><circle cx="363.9" cy="367.2" r="1.8" fill="#c9d8ee" opacity="0.8"/><circle cx="358.4" cy="351.6" r="1.8" fill="#c9d8ee" opacity="0.8"/><circle cx="363.9" cy="336" r="1.8" fill="#c9d8ee" opacity="0.8"/><circle cx="377.1" cy="329.5" r="1.8" fill="#c9d8ee" opacity="0.8"/><circle cx="390.3" cy="336" r="1.8" fill="#c9d8ee" opacity="0.8"/><line x1="643.1" y1="560.2" x2="720.4" y2="539.4" stroke="#54697f" stroke-width="26" stroke-linecap="round" opacity="0.92"/><line x1="643.1" y1="560.2" x2="720.4" y2="539.4" stroke="#8aa0b8" stroke-width="18" stroke-linecap="round" opacity="0.6"/><ellipse cx="720.4" cy="539.4" rx="10" ry="15" fill="#33425a" stroke="#d7e3f4" stroke-width="1.6" opacity="0.92" transform="rotate(25 720.4 539.4)"/><line x1="450" y1="154" x2="450" y2="128" stroke="#54697f" stroke-width="7" stroke-linecap="round"/><path d="M 449 128 a 14 14 0 1 1 -2 2" fill="none" stroke="#8fb8e6" stroke-width="5"/><ellipse cx="450" cy="153" rx="14" ry="8.5" fill="#33425a" stroke="#d7e3f4" stroke-width="1.4" opacity="0.9"/><ellipse cx="450" cy="461.4" rx="120" ry="150" fill="url(#gHot)" opacity="0.16"/></svg><circle cx="871.1" cy="185.9" r="2.6" fill="#8fb8e6" opacity="0.9"/><path d="M 871.1 185.9 L 1332 240.0" stroke="#d7e3f4" stroke-width="0.9" opacity="0.5" fill="none"/><text x="1344" y="244.0" text-anchor="start" font-family="'Pretendard Variable',Pretendard,'Malgun Gothic',sans-serif" font-size="19" font-weight="600" fill="#e8eef7" fill-opacity="0.95">벨자 돔</text><text x="1344" y="264.0" text-anchor="start" font-family="'IBM Plex Mono','JetBrains Mono',ui-monospace,Consolas,monospace" font-size="11" letter-spacing="1.2" fill="#93a4bd" fill-opacity="0.75">BELL JAR</text><circle cx="800.0" cy="180.0" r="2.6" fill="#8fb8e6" opacity="0.9"/><path d="M 800.0 180.0 L 1332 174.0" stroke="#d7e3f4" stroke-width="0.9" opacity="0.5" fill="none"/><text x="1344" y="178.0" text-anchor="start" font-family="'Pretendard Variable',Pretendard,'Malgun Gothic',sans-serif" font-size="19" font-weight="600" fill="#e8eef7" fill-opacity="0.95">리프트 훅</text><text x="1344" y="198.0" text-anchor="start" font-family="'IBM Plex Mono','JetBrains Mono',ui-monospace,Consolas,monospace" font-size="11" letter-spacing="1.2" fill="#93a4bd" fill-opacity="0.75">LIFT HOOK</text><circle cx="749.2" cy="482.9" r="2.6" fill="#8fb8e6" opacity="0.9"/><path d="M 749.2 482.9 L 268 476.9" stroke="#d7e3f4" stroke-width="0.9" opacity="0.5" fill="none"/><text x="256" y="480.9" text-anchor="end" font-family="'Pretendard Variable',Pretendard,'Malgun Gothic',sans-serif" font-size="19" font-weight="600" fill="#e8eef7" fill-opacity="0.95">폴리실리콘 로드</text><text x="256" y="500.9" text-anchor="end" font-family="'IBM Plex Mono','JetBrains Mono',ui-monospace,Consolas,monospace" font-size="11" letter-spacing="1.2" fill="#93a4bd" fill-opacity="0.75">POLY-SI ROD</text><circle cx="850.8" cy="482.9" r="2.6" fill="#8fb8e6" opacity="0.9"/><path d="M 850.8 482.9 L 1332 476.9" stroke="#d7e3f4" stroke-width="0.9" opacity="0.5" fill="none"/><text x="1344" y="480.9" text-anchor="start" font-family="'Pretendard Variable',Pretendard,'Malgun Gothic',sans-serif" font-size="19" font-weight="600" fill="#e8eef7" fill-opacity="0.95">통전 가열 코어</text><text x="1344" y="500.9" text-anchor="start" font-family="'IBM Plex Mono','JetBrains Mono',ui-monospace,Consolas,monospace" font-size="11" letter-spacing="1.2" fill="#93a4bd" fill-opacity="0.75">JOULE CORE</text><circle cx="800.0" cy="315.4" r="2.6" fill="#8fb8e6" opacity="0.9"/><path d="M 800.0 315.4 L 1332 309.4" stroke="#d7e3f4" stroke-width="0.9" opacity="0.5" fill="none"/><text x="1344" y="313.4" text-anchor="start" font-family="'Pretendard Variable',Pretendard,'Malgun Gothic',sans-serif" font-size="19" font-weight="600" fill="#e8eef7" fill-opacity="0.95">역U자 브리지</text><text x="1344" y="333.4" text-anchor="start" font-family="'IBM Plex Mono','JetBrains Mono',ui-monospace,Consolas,monospace" font-size="11" letter-spacing="1.2" fill="#93a4bd" fill-opacity="0.75">U-BRIDGE</text><circle cx="921.0" cy="565.0" r="2.6" fill="#8fb8e6" opacity="0.9"/><path d="M 921.0 565.0 L 1332 608.9" stroke="#d7e3f4" stroke-width="0.9" opacity="0.5" fill="none"/><text x="1344" y="612.9" text-anchor="start" font-family="'Pretendard Variable',Pretendard,'Malgun Gothic',sans-serif" font-size="19" font-weight="600" fill="#e8eef7" fill-opacity="0.95">수냉 이중벽 · 해칭</text><text x="1344" y="632.9" text-anchor="start" font-family="'IBM Plex Mono','JetBrains Mono',ui-monospace,Consolas,monospace" font-size="11" letter-spacing="1.2" fill="#93a4bd" fill-opacity="0.75">WATER JACKET</text><circle cx="800.0" cy="628.5" r="2.6" fill="#8fb8e6" opacity="0.9"/><path d="M 800.0 628.5 L 1332 806.9" stroke="#d7e3f4" stroke-width="0.9" opacity="0.5" fill="none"/><text x="1344" y="810.9" text-anchor="start" font-family="'Pretendard Variable',Pretendard,'Malgun Gothic',sans-serif" font-size="19" font-weight="600" fill="#e8eef7" fill-opacity="0.95">전극 척</text><text x="1344" y="830.9" text-anchor="start" font-family="'IBM Plex Mono','JetBrains Mono',ui-monospace,Consolas,monospace" font-size="11" letter-spacing="1.2" fill="#93a4bd" fill-opacity="0.75">ELECTRODE CHUCK</text><circle cx="886.3" cy="624.2" r="2.6" fill="#8fb8e6" opacity="0.9"/><path d="M 886.3 624.2 L 1332 740.9" stroke="#d7e3f4" stroke-width="0.9" opacity="0.5" fill="none"/><text x="1344" y="744.9" text-anchor="start" font-family="'Pretendard Variable',Pretendard,'Malgun Gothic',sans-serif" font-size="19" font-weight="600" fill="#e8eef7" fill-opacity="0.95">세라믹 링</text><text x="1344" y="764.9" text-anchor="start" font-family="'IBM Plex Mono','JetBrains Mono',ui-monospace,Consolas,monospace" font-size="11" letter-spacing="1.2" fill="#93a4bd" fill-opacity="0.75">CERAMIC RING</text><circle cx="800.0" cy="577.7" r="2.6" fill="#8fb8e6" opacity="0.9"/><path d="M 800.0 577.7 L 1332 674.9" stroke="#d7e3f4" stroke-width="0.9" opacity="0.5" fill="none"/><text x="1344" y="678.9" text-anchor="start" font-family="'Pretendard Variable',Pretendard,'Malgun Gothic',sans-serif" font-size="19" font-weight="600" fill="#e8eef7" fill-opacity="0.95">TCS 가스 노즐</text><text x="1344" y="698.9" text-anchor="start" font-family="'IBM Plex Mono','JetBrains Mono',ui-monospace,Consolas,monospace" font-size="11" letter-spacing="1.2" fill="#93a4bd" fill-opacity="0.75">GAS INLET</text><circle cx="838.9" cy="768.1" r="2.6" fill="#8fb8e6" opacity="0.9"/><path d="M 838.9 768.1 L 1332 872.9" stroke="#d7e3f4" stroke-width="0.9" opacity="0.5" fill="none"/><text x="1344" y="876.9" text-anchor="start" font-family="'Pretendard Variable',Pretendard,'Malgun Gothic',sans-serif" font-size="19" font-weight="600" fill="#e8eef7" fill-opacity="0.95">베이스 · 볼트 링</text><text x="1344" y="896.9" text-anchor="start" font-family="'IBM Plex Mono','JetBrains Mono',ui-monospace,Consolas,monospace" font-size="11" letter-spacing="1.2" fill="#93a4bd" fill-opacity="0.75">BASE + BOLTS</text><circle cx="738.2" cy="367.8" r="2.6" fill="#8fb8e6" opacity="0.9"/><path d="M 738.2 367.8 L 268 361.8" stroke="#d7e3f4" stroke-width="0.9" opacity="0.5" fill="none"/><text x="256" y="365.8" text-anchor="end" font-family="'Pretendard Variable',Pretendard,'Malgun Gothic',sans-serif" font-size="19" font-weight="600" fill="#e8eef7" fill-opacity="0.95">뷰포트</text><text x="256" y="385.8" text-anchor="end" font-family="'IBM Plex Mono','JetBrains Mono',ui-monospace,Consolas,monospace" font-size="11" letter-spacing="1.2" fill="#93a4bd" fill-opacity="0.75">SIGHT GLASS</text><circle cx="1021.7" cy="531.2" r="2.6" fill="#8fb8e6" opacity="0.9"/><path d="M 1021.7 531.2 L 1332 542.9" stroke="#d7e3f4" stroke-width="0.9" opacity="0.5" fill="none"/><text x="1344" y="546.9" text-anchor="start" font-family="'Pretendard Variable',Pretendard,'Malgun Gothic',sans-serif" font-size="19" font-weight="600" fill="#e8eef7" fill-opacity="0.95">배기 포트</text><text x="1344" y="566.9" text-anchor="start" font-family="'IBM Plex Mono','JetBrains Mono',ui-monospace,Consolas,monospace" font-size="11" letter-spacing="1.2" fill="#93a4bd" fill-opacity="0.75">EXHAUST</text><text x="30" y="1042" font-family="'IBM Plex Mono','JetBrains Mono',ui-monospace,Consolas,monospace" font-size="17" font-weight="500" letter-spacing="0.5" fill="#e8eef7" fill-opacity="0.85">FIG. 1-ISO — 쿼터 컷: 통전된 로드 위에 9N 실리콘이 자라는 방</text></svg>