<svg xmlns="http://www.w3.org/2000/svg" viewBox="0 0 1600 1060" role="img"><svg x="280.0" y="84.5" width="1040.0" height="850.9" viewBox="0 0 1100 900"><defs><linearGradient id="gTop" x1="0" y1="0" x2=".4" y2="1"><stop offset="0" stop-color="#3a4a63"/><stop offset="1" stop-color="#2a3750"/></linearGradient><linearGradient id="gRt" x1="0" y1="0" x2="0" y2="1"><stop offset="0" stop-color="#243147"/><stop offset="1" stop-color="#1a2436"/></linearGradient><linearGradient id="gLt" x1="0" y1="0" x2="0" y2="1"><stop offset="0" stop-color="#151d2c"/><stop offset="1" stop-color="#0e1420"/></linearGradient><linearGradient id="gTopHL" x1="0" y1="0" x2=".4" y2="1"><stop offset="0" stop-color="#46597a"/><stop offset="1" stop-color="#33445f"/></linearGradient><linearGradient id="gRtHL" x1="0" y1="0" x2="0" y2="1"><stop offset="0" stop-color="#2c3a54"/><stop offset="1" stop-color="#202c42"/></linearGradient><linearGradient id="gLtHL" x1="0" y1="0" x2="0" y2="1"><stop offset="0" stop-color="#1a2233"/><stop offset="1" stop-color="#111826"/></linearGradient><linearGradient id="gGran" x1="0" y1="0" x2="0" y2="1"><stop offset="0" stop-color="#2b2f38"/><stop offset="1" stop-color="#171a20"/></linearGradient><linearGradient id="gGranTop" x1="0" y1="0" x2=".5" y2="1"><stop offset="0" stop-color="#3c414c"/><stop offset="1" stop-color="#2c313b"/></linearGradient><linearGradient id="gCard" x1="0" y1="0" x2=".5" y2="1"><stop offset="0" stop-color="#1c6f4a"/><stop offset=".5" stop-color="#15583b"/><stop offset="1" stop-color="#0f4530"/></linearGradient><radialGradient id="gWafer" cx=".38" cy=".32" r=".85"><stop offset="0" stop-color="#93bad9"/><stop offset=".55" stop-color="#5f86a8"/><stop offset="1" stop-color="#3a5570"/></radialGradient><radialGradient id="gGlow" cx=".5" cy=".5" r=".5"><stop offset="0" stop-color="#38e1ff" stop-opacity=".95"/><stop offset=".4" stop-color="#38e1ff" stop-opacity=".4"/><stop offset="1" stop-color="#38e1ff" stop-opacity="0"/></radialGradient><radialGradient id="gCam" cx=".4" cy=".35" r=".75"><stop offset="0" stop-color="#3a4a63"/><stop offset="1" stop-color="#111826"/></radialGradient></defs><ellipse cx="550.0" cy="760.0" rx="345" ry="150" fill="#000" opacity=".16"/><ellipse cx="550.0" cy="758.0" rx="235" ry="100" fill="#000" opacity=".22"/><path d="M894.3,570.0 L550.0,768.8 L205.7,570.0 L550.0,371.2 Z" fill="url(#gGranTop)" stroke="#d7e3f4" stroke-width="2" stroke-opacity=".92" stroke-linejoin="round"/><path d="M894.3,570.0 L550.0,768.8 L550.0,882.4 L894.3,683.6 Z" fill="url(#gGran)" stroke="#d7e3f4" stroke-width="2" stroke-opacity=".92" stroke-linejoin="round"/><path d="M205.7,570.0 L550.0,768.8 L550.0,882.4 L205.7,683.6 Z" fill="url(#gGran)" stroke="#d7e3f4" stroke-width="2" stroke-opacity=".92" stroke-linejoin="round"/><path d="M593.0,744.0 L550.0,768.8 L507.0,744.0 Z" fill="url(#gGranTop)" opacity=".55" stroke="#d7e3f4" stroke-width="1.1" stroke-opacity=".55" stroke-linejoin="round"/><line x1="894.3" y1="577.0" x2="894.3" y2="676.6" stroke="#d7e3f4" stroke-width="0.6" stroke-opacity=".35"/><line x1="871.4" y1="590.3" x2="871.4" y2="689.9" stroke="#d7e3f4" stroke-width="0.6" stroke-opacity=".35"/><line x1="848.4" y1="603.5" x2="848.4" y2="703.1" stroke="#d7e3f4" stroke-width="0.6" stroke-opacity=".35"/><line x1="825.5" y1="616.8" x2="825.5" y2="716.4" stroke="#d7e3f4" stroke-width="0.6" stroke-opacity=".35"/><line x1="802.5" y1="630.0" x2="802.5" y2="729.6" stroke="#d7e3f4" stroke-width="0.6" stroke-opacity=".35"/><line x1="779.5" y1="643.3" x2="779.5" y2="742.9" stroke="#d7e3f4" stroke-width="0.6" stroke-opacity=".35"/><line x1="756.6" y1="656.5" x2="756.6" y2="756.1" stroke="#d7e3f4" stroke-width="0.6" stroke-opacity=".35"/><line x1="733.6" y1="669.8" x2="733.6" y2="769.4" stroke="#d7e3f4" stroke-width="0.6" stroke-opacity=".35"/><line x1="710.7" y1="683.0" x2="710.7" y2="782.6" stroke="#d7e3f4" stroke-width="0.6" stroke-opacity=".35"/><line x1="687.7" y1="696.3" x2="687.7" y2="795.9" stroke="#d7e3f4" stroke-width="0.6" stroke-opacity=".35"/><line x1="664.8" y1="709.5" x2="664.8" y2="809.1" stroke="#d7e3f4" stroke-width="0.6" stroke-opacity=".35"/><line x1="641.8" y1="722.8" x2="641.8" y2="822.4" stroke="#d7e3f4" stroke-width="0.6" stroke-opacity=".35"/><line x1="618.9" y1="736.0" x2="618.9" y2="835.6" stroke="#d7e3f4" stroke-width="0.6" stroke-opacity=".35"/><line x1="595.9" y1="749.3" x2="595.9" y2="848.9" stroke="#d7e3f4" stroke-width="0.6" stroke-opacity=".35"/><line x1="573.0" y1="762.5" x2="573.0" y2="862.1" stroke="#d7e3f4" stroke-width="0.6" stroke-opacity=".35"/><ellipse cx="550.0" cy="854.0" rx="26" ry="15" fill="url(#gGran)" stroke="#d7e3f4" stroke-width="1.1" stroke-opacity=".55" stroke-linejoin="round"/><ellipse cx="254.9" cy="683.6" rx="26" ry="15" fill="url(#gGran)" stroke="#d7e3f4" stroke-width="1.1" stroke-opacity=".55" stroke-linejoin="round"/><ellipse cx="845.1" cy="683.6" rx="26" ry="15" fill="url(#gGran)" stroke="#d7e3f4" stroke-width="1.1" stroke-opacity=".55" stroke-linejoin="round"/><path d="M480.5,454.6 L436.3,480.2 L436.3,331.1 L480.5,305.5 Z" fill="url(#gRt)" stroke="#d7e3f4" stroke-width="2" stroke-opacity=".92" stroke-linejoin="round"/><path d="M392.0,454.6 L436.3,480.2 L436.3,331.1 L392.0,305.5 Z" fill="url(#gLt)" stroke="#d7e3f4" stroke-width="2" stroke-opacity=".92" stroke-linejoin="round"/><path d="M480.5,305.5 L436.3,331.1 L392.0,305.5 L436.3,280.0 Z" fill="url(#gTop)" stroke="#d7e3f4" stroke-width="2" stroke-opacity=".92" stroke-linejoin="round"/><line x1="469.5" y1="461.0" x2="469.5" y2="311.9" stroke="#d7e3f4" stroke-width="1.1" stroke-opacity=".55" stroke-linejoin="round"/><line x1="458.4" y1="467.4" x2="458.4" y2="318.3" stroke="#d7e3f4" stroke-width="1.1" stroke-opacity=".55" stroke-linejoin="round"/><line x1="447.3" y1="473.8" x2="447.3" y2="324.7" stroke="#d7e3f4" stroke-width="1.1" stroke-opacity=".55" stroke-linejoin="round"/><path d="M751.1,623.6 L674.8,667.6 L385.8,500.8 L462.1,456.8 Z" fill="url(#gTop)" stroke="#d7e3f4" stroke-width="2" stroke-opacity=".92" stroke-linejoin="round"/><path d="M751.1,642.1 L674.8,686.1 L674.8,667.6 L751.1,623.6 Z" fill="url(#gRt)" stroke="#d7e3f4" stroke-width="2" stroke-opacity=".92" stroke-linejoin="round"/><path d="M385.8,519.2 L674.8,686.1 L674.8,667.6 L385.8,500.8 Z" fill="url(#gLt)" stroke="#d7e3f4" stroke-width="2" stroke-opacity=".92" stroke-linejoin="round"/><line x1="446.1" y1="466.0" x2="735.1" y2="632.8" stroke="#d7e3f4" stroke-width="1.1" stroke-opacity=".55" stroke-linejoin="round"/><line x1="446.1" y1="469.0" x2="735.1" y2="635.8" stroke="#d7e3f4" stroke-width="0.6" stroke-opacity=".3"/><line x1="401.8" y1="491.5" x2="690.8" y2="658.4" stroke="#d7e3f4" stroke-width="1.1" stroke-opacity=".55" stroke-linejoin="round"/><line x1="401.8" y1="494.5" x2="690.8" y2="661.4" stroke="#d7e3f4" stroke-width="0.6" stroke-opacity=".3"/><path d="M738.8,500.8 L499.0,639.2 L410.4,588.1 L650.2,449.7 Z" fill="url(#gTopHL)" stroke="#d7e3f4" stroke-width="2" stroke-opacity=".92" stroke-linejoin="round"/><path d="M738.8,522.1 L499.0,660.5 L499.0,639.2 L738.8,500.8 Z" fill="url(#gRtHL)" stroke="#d7e3f4" stroke-width="2" stroke-opacity=".92" stroke-linejoin="round"/><path d="M410.4,609.4 L499.0,660.5 L499.0,639.2 L410.4,588.1 Z" fill="url(#gLtHL)" stroke="#d7e3f4" stroke-width="2" stroke-opacity=".92" stroke-linejoin="round"/><line x1="656.4" y1="474.5" x2="453.5" y2="591.7" stroke="#d7e3f4" stroke-width="1.1" stroke-opacity=".55" stroke-linejoin="round"/><line x1="695.7" y1="497.2" x2="492.8" y2="614.4" stroke="#d7e3f4" stroke-width="1.1" stroke-opacity=".55" stroke-linejoin="round"/><path d="M695.1,527.4 L574.6,597.0 L454.1,527.4 L574.6,457.8 Z" fill="url(#gTopHL)" stroke="#d7e3f4" stroke-width="2" stroke-opacity=".92" stroke-linejoin="round"/><path d="M695.1,544.4 L574.6,614.0 L574.6,597.0 L695.1,527.4 Z" fill="url(#gRtHL)" stroke="#d7e3f4" stroke-width="2" stroke-opacity=".92" stroke-linejoin="round"/><path d="M454.1,544.4 L574.6,614.0 L574.6,597.0 L454.1,527.4 Z" fill="url(#gLtHL)" stroke="#d7e3f4" stroke-width="2" stroke-opacity=".92" stroke-linejoin="round"/><path d="M666.8,580.6 L655.0,586.7 L642.1,591.8 L628.1,596.1 L613.4,599.3 L598.1,601.5 L582.5,602.6 L566.7,602.6 L551.1,601.5 L535.8,599.3 L521.1,596.1 L507.1,591.8 L494.2,586.7 L482.4,580.6 L471.9,573.8 L463.0,566.4 L455.7,558.3 L450.1,549.8 L446.3,541.0 L444.4,531.9 L444.4,522.9 L446.3,513.8 L450.1,505.0 L455.7,496.5 L463.0,488.4 L471.9,481.0 L482.4,474.1 L494.2,468.1 L507.1,463.0 L521.1,458.7 L535.8,455.5 L551.1,453.3 L566.7,452.2 L582.5,452.2 L598.1,453.3 L613.4,455.5 L628.1,458.7 L642.1,463.0 L655.0,468.1 L666.8,474.1 L677.3,481.0 L686.2,488.4 L693.5,496.5 L699.1,505.0 L702.9,513.8 L704.8,522.9 L704.8,531.9 L702.9,541.0 L699.1,549.8 L693.5,558.3 L686.2,566.4 L677.3,573.8 L677.3,555.4 L686.2,547.9 L693.5,539.8 L699.1,531.3 L702.9,522.5 L704.8,513.5 L704.8,504.4 L702.9,495.4 L699.1,486.5 L693.5,478.0 L686.2,470.0 L677.3,462.5 L666.8,455.7 L655.0,449.7 L642.1,444.5 L628.1,440.3 L613.4,437.0 L598.1,434.9 L582.5,433.8 L566.7,433.8 L551.1,434.9 L535.8,437.0 L521.1,440.3 L507.1,444.5 L494.2,449.7 L482.4,455.7 L471.9,462.5 L463.0,470.0 L455.7,478.0 L450.1,486.5 L446.3,495.4 L444.4,504.4 L444.4,513.5 L446.3,522.5 L450.1,531.3 L455.7,539.8 L463.0,547.9 L471.9,555.4 L482.4,562.2 L494.2,568.2 L507.1,573.4 L521.1,577.6 L535.8,580.8 L551.1,583.0 L566.7,584.1 L582.5,584.1 L598.1,583.0 L613.4,580.8 L628.1,577.6 L642.1,573.4 L655.0,568.2 L666.8,562.2 Z" fill="url(#gLt)" stroke="#d7e3f4" stroke-width="1.1" stroke-opacity=".55" stroke-linejoin="round"/><ellipse cx="574.6" cy="508.9" rx="106.5" ry="61.5" fill="url(#gTopHL)" stroke="#d7e3f4" stroke-width="2" stroke-opacity=".92" stroke-linejoin="round"/><ellipse cx="574.6" cy="508.6" rx="79.5" ry="45.9" fill="none" stroke="#d7e3f4" stroke-width="1.1" stroke-opacity=".55" stroke-linejoin="round"/><ellipse cx="574.6" cy="508.6" rx="52.5" ry="30.3" fill="none" stroke="#d7e3f4" stroke-width="1.1" stroke-opacity=".55" stroke-linejoin="round"/><ellipse cx="574.6" cy="508.6" rx="27.0" ry="15.6" fill="none" stroke="#d7e3f4" stroke-width="1.1" stroke-opacity=".55" stroke-linejoin="round"/><ellipse cx="574.6" cy="507.5" rx="92.3" ry="53.3" fill="url(#gWafer)" stroke="#d7e3f4" stroke-width="2" stroke-opacity=".92" stroke-linejoin="round"/><circle cx="650.2" cy="463.9" r="4" fill="#22303f" stroke="#d7e3f4" stroke-width="0.8" stroke-opacity=".5"/><rect x="500.2" y="464.2" width="8.6" height="4.9" rx="1" fill="#41e396" opacity=".72"/><rect x="546.9" y="450.7" width="8.6" height="4.9" rx="1" fill="#41e396" opacity=".72"/><rect x="535.2" y="457.5" width="8.6" height="4.9" rx="1" fill="#41e396" opacity=".72"/><rect x="523.6" y="464.2" width="8.6" height="4.9" rx="1" fill="#ff5d73" opacity=".9"/><rect x="511.9" y="471.0" width="8.6" height="4.9" rx="1" fill="#41e396" opacity=".72"/><rect x="500.2" y="477.7" width="8.6" height="4.9" rx="1" fill="#41e396" opacity=".72"/><rect x="488.5" y="484.5" width="8.6" height="4.9" rx="1" fill="#41e396" opacity=".72"/><rect x="476.8" y="491.2" width="8.6" height="4.9" rx="1" fill="#ff5d73" opacity=".9"/><rect x="570.3" y="450.7" width="8.6" height="4.9" rx="1" fill="#41e396" opacity=".72"/><rect x="558.6" y="457.5" width="8.6" height="4.9" rx="1" fill="#41e396" opacity=".72"/><rect x="546.9" y="464.2" width="8.6" height="4.9" rx="1" fill="#41e396" opacity=".72"/><rect x="535.2" y="471.0" width="8.6" height="4.9" rx="1" fill="#41e396" opacity=".72"/><rect x="523.6" y="477.7" width="8.6" height="4.9" rx="1" fill="#41e396" opacity=".72"/><rect x="511.9" y="484.5" width="8.6" height="4.9" rx="1" fill="#41e396" opacity=".72"/><rect x="500.2" y="491.2" width="8.6" height="4.9" rx="1" fill="#41e396" opacity=".72"/><rect x="488.5" y="497.9" width="8.6" height="4.9" rx="1" fill="#41e396" opacity=".72"/><rect x="476.8" y="504.7" width="8.6" height="4.9" rx="1" fill="#41e396" opacity=".72"/><rect x="593.7" y="450.7" width="8.6" height="4.9" rx="1" fill="#41e396" opacity=".72"/><rect x="582.0" y="457.5" width="8.6" height="4.9" rx="1" fill="#41e396" opacity=".72"/><rect x="570.3" y="464.2" width="8.6" height="4.9" rx="1" fill="#41e396" opacity=".72"/><rect x="558.6" y="471.0" width="8.6" height="4.9" rx="1" fill="#41e396" opacity=".72"/><rect x="546.9" y="477.7" width="8.6" height="4.9" rx="1" fill="#41e396" opacity=".72"/><rect x="535.2" y="484.5" width="8.6" height="4.9" rx="1" fill="#41e396" opacity=".72"/><rect x="523.6" y="491.2" width="8.6" height="4.9" rx="1" fill="#41e396" opacity=".72"/><rect x="511.9" y="497.9" width="8.6" height="4.9" rx="1" fill="#41e396" opacity=".72"/><rect x="500.2" y="504.7" width="8.6" height="4.9" rx="1" fill="#41e396" opacity=".72"/><rect x="488.5" y="511.4" width="8.6" height="4.9" rx="1" fill="#41e396" opacity=".72"/><rect x="476.8" y="518.2" width="8.6" height="4.9" rx="1" fill="#41e396" opacity=".72"/><rect x="605.3" y="457.5" width="8.6" height="4.9" rx="1" fill="#41e396" opacity=".72"/><rect x="593.7" y="464.2" width="8.6" height="4.9" rx="1" fill="#41e396" opacity=".72"/><rect x="582.0" y="471.0" width="8.6" height="4.9" rx="1" fill="#ff5d73" opacity=".9"/><rect x="570.3" y="477.7" width="8.6" height="4.9" rx="1" fill="#41e396" opacity=".72"/><rect x="558.6" y="484.5" width="8.6" height="4.9" rx="1" fill="#41e396" opacity=".72"/><rect x="546.9" y="491.2" width="8.6" height="4.9" rx="1" fill="#ff5d73" opacity=".9"/><rect x="535.2" y="497.9" width="8.6" height="4.9" rx="1" fill="#41e396" opacity=".72"/><rect x="523.6" y="504.7" width="8.6" height="4.9" rx="1" fill="#41e396" opacity=".72"/><rect x="511.9" y="511.4" width="8.6" height="4.9" rx="1" fill="#41e396" opacity=".72"/><rect x="500.2" y="518.2" width="8.6" height="4.9" rx="1" fill="#ff5d73" opacity=".9"/><rect x="488.5" y="524.9" width="8.6" height="4.9" rx="1" fill="#ff5d73" opacity=".9"/><rect x="617.0" y="464.2" width="8.6" height="4.9" rx="1" fill="#41e396" opacity=".72"/><rect x="605.3" y="471.0" width="8.6" height="4.9" rx="1" fill="#41e396" opacity=".72"/><rect x="593.7" y="477.7" width="8.6" height="4.9" rx="1" fill="#41e396" opacity=".72"/><rect x="582.0" y="484.5" width="8.6" height="4.9" rx="1" fill="#41e396" opacity=".72"/><rect x="570.3" y="491.2" width="8.6" height="4.9" rx="1" fill="#41e396" opacity=".72"/><rect x="558.6" y="497.9" width="8.6" height="4.9" rx="1" fill="#ff5d73" opacity=".9"/><rect x="546.9" y="504.7" width="8.6" height="4.9" rx="1" fill="#ff5d73" opacity=".9"/><rect x="535.2" y="511.4" width="8.6" height="4.9" rx="1" fill="#41e396" opacity=".72"/><rect x="523.6" y="518.2" width="8.6" height="4.9" rx="1" fill="#41e396" opacity=".72"/><rect x="511.9" y="524.9" width="8.6" height="4.9" rx="1" fill="#41e396" opacity=".72"/><rect x="500.2" y="531.7" width="8.6" height="4.9" rx="1" fill="#41e396" opacity=".72"/><rect x="640.4" y="464.2" width="8.6" height="4.9" rx="1" fill="#41e396" opacity=".72"/><rect x="628.7" y="471.0" width="8.6" height="4.9" rx="1" fill="#41e396" opacity=".72"/><rect x="617.0" y="477.7" width="8.6" height="4.9" rx="1" fill="#41e396" opacity=".72"/><rect x="605.3" y="484.5" width="8.6" height="4.9" rx="1" fill="#41e396" opacity=".72"/><rect x="593.7" y="491.2" width="8.6" height="4.9" rx="1" fill="#ff5d73" opacity=".9"/><rect x="582.0" y="497.9" width="8.6" height="4.9" rx="1" fill="#ff5d73" opacity=".9"/><rect x="570.3" y="504.7" width="8.6" height="4.9" rx="1" fill="#41e396" opacity=".72"/><rect x="558.6" y="511.4" width="8.6" height="4.9" rx="1" fill="#41e396" opacity=".72"/><rect x="546.9" y="518.2" width="8.6" height="4.9" rx="1" fill="#41e396" opacity=".72"/><rect x="535.2" y="524.9" width="8.6" height="4.9" rx="1" fill="#41e396" opacity=".72"/><rect x="523.6" y="531.7" width="8.6" height="4.9" rx="1" fill="#41e396" opacity=".72"/><rect x="511.9" y="538.4" width="8.6" height="4.9" rx="1" fill="#41e396" opacity=".72"/><rect x="500.2" y="545.2" width="8.6" height="4.9" rx="1" fill="#41e396" opacity=".72"/><rect x="640.4" y="477.7" width="8.6" height="4.9" rx="1" fill="#41e396" opacity=".72"/><rect x="628.7" y="484.5" width="8.6" height="4.9" rx="1" fill="#ff5d73" opacity=".9"/><rect x="617.0" y="491.2" width="8.6" height="4.9" rx="1" fill="#ff5d73" opacity=".9"/><rect x="605.3" y="497.9" width="8.6" height="4.9" rx="1" fill="#41e396" opacity=".72"/><rect x="593.7" y="504.7" width="8.6" height="4.9" rx="1" fill="#41e396" opacity=".72"/><rect x="582.0" y="511.4" width="8.6" height="4.9" rx="1" fill="#41e396" opacity=".72"/><rect x="570.3" y="518.2" width="8.6" height="4.9" rx="1" fill="#41e396" opacity=".72"/><rect x="558.6" y="524.9" width="8.6" height="4.9" rx="1" fill="#41e396" opacity=".72"/><rect x="546.9" y="531.7" width="8.6" height="4.9" rx="1" fill="#41e396" opacity=".72"/><rect x="535.2" y="538.4" width="8.6" height="4.9" rx="1" fill="#41e396" opacity=".72"/><rect x="523.6" y="545.2" width="8.6" height="4.9" rx="1" fill="#41e396" opacity=".72"/><rect x="652.1" y="484.5" width="8.6" height="4.9" rx="1" fill="#41e396" opacity=".72"/><rect x="640.4" y="491.2" width="8.6" height="4.9" rx="1" fill="#41e396" opacity=".72"/><rect x="628.7" y="497.9" width="8.6" height="4.9" rx="1" fill="#41e396" opacity=".72"/><rect x="617.0" y="504.7" width="8.6" height="4.9" rx="1" fill="#41e396" opacity=".72"/><rect x="605.3" y="511.4" width="8.6" height="4.9" rx="1" fill="#41e396" opacity=".72"/><rect x="593.7" y="518.2" width="8.6" height="4.9" rx="1" fill="#ff5d73" opacity=".9"/><rect x="582.0" y="524.9" width="8.6" height="4.9" rx="1" fill="#41e396" opacity=".72"/><rect x="570.3" y="531.7" width="8.6" height="4.9" rx="1" fill="#ff5d73" opacity=".9"/><rect x="558.6" y="538.4" width="8.6" height="4.9" rx="1" fill="#41e396" opacity=".72"/><rect x="546.9" y="545.2" width="8.6" height="4.9" rx="1" fill="#41e396" opacity=".72"/><rect x="535.2" y="551.9" width="8.6" height="4.9" rx="1" fill="#41e396" opacity=".72"/><rect x="663.8" y="491.2" width="8.6" height="4.9" rx="1" fill="#41e396" opacity=".72"/><rect x="652.1" y="497.9" width="8.6" height="4.9" rx="1" fill="#ff5d73" opacity=".9"/><rect x="640.4" y="504.7" width="8.6" height="4.9" rx="1" fill="#41e396" opacity=".72"/><rect x="628.7" y="511.4" width="8.6" height="4.9" rx="1" fill="#41e396" opacity=".72"/><rect x="617.0" y="518.2" width="8.6" height="4.9" rx="1" fill="#41e396" opacity=".72"/><rect x="605.3" y="524.9" width="8.6" height="4.9" rx="1" fill="#41e396" opacity=".72"/><rect x="593.7" y="531.7" width="8.6" height="4.9" rx="1" fill="#41e396" opacity=".72"/><rect x="582.0" y="538.4" width="8.6" height="4.9" rx="1" fill="#41e396" opacity=".72"/><rect x="570.3" y="545.2" width="8.6" height="4.9" rx="1" fill="#41e396" opacity=".72"/><rect x="558.6" y="551.9" width="8.6" height="4.9" rx="1" fill="#41e396" opacity=".72"/><rect x="546.9" y="558.7" width="8.6" height="4.9" rx="1" fill="#41e396" opacity=".72"/><rect x="663.8" y="504.7" width="8.6" height="4.9" rx="1" fill="#41e396" opacity=".72"/><rect x="652.1" y="511.4" width="8.6" height="4.9" rx="1" fill="#41e396" opacity=".72"/><rect x="640.4" y="518.2" width="8.6" height="4.9" rx="1" fill="#41e396" opacity=".72"/><rect x="628.7" y="524.9" width="8.6" height="4.9" rx="1" fill="#41e396" opacity=".72"/><rect x="617.0" y="531.7" width="8.6" height="4.9" rx="1" fill="#41e396" opacity=".72"/><rect x="605.3" y="538.4" width="8.6" height="4.9" rx="1" fill="#41e396" opacity=".72"/><rect x="593.7" y="545.2" width="8.6" height="4.9" rx="1" fill="#41e396" opacity=".72"/><rect x="582.0" y="551.9" width="8.6" height="4.9" rx="1" fill="#41e396" opacity=".72"/><rect x="570.3" y="558.7" width="8.6" height="4.9" rx="1" fill="#ff5d73" opacity=".9"/><rect x="663.8" y="518.2" width="8.6" height="4.9" rx="1" fill="#41e396" opacity=".72"/><rect x="652.1" y="524.9" width="8.6" height="4.9" rx="1" fill="#41e396" opacity=".72"/><rect x="640.4" y="531.7" width="8.6" height="4.9" rx="1" fill="#41e396" opacity=".72"/><rect x="628.7" y="538.4" width="8.6" height="4.9" rx="1" fill="#41e396" opacity=".72"/><rect x="617.0" y="545.2" width="8.6" height="4.9" rx="1" fill="#ff5d73" opacity=".9"/><rect x="605.3" y="551.9" width="8.6" height="4.9" rx="1" fill="#41e396" opacity=".72"/><rect x="593.7" y="558.7" width="8.6" height="4.9" rx="1" fill="#ff5d73" opacity=".9"/><rect x="640.4" y="545.2" width="8.6" height="4.9" rx="1" fill="#ff5d73" opacity=".9"/><path d="M682.2,433.3 L668.4,440.4 L653.3,446.4 L637.0,451.3 L619.9,455.1 L602.0,457.6 L583.8,458.9 L565.4,458.9 L547.2,457.6 L529.3,455.1 L512.1,451.3 L495.9,446.4 L480.7,440.4 L467.0,433.3 L454.8,425.4 L444.4,416.7 L435.8,407.3 L429.3,397.3 L424.9,387.0 L422.7,376.5 L422.7,365.9 L424.9,355.4 L429.3,345.1 L435.8,335.1 L444.4,325.7 L454.8,317.0 L467.0,309.1 L480.7,302.0 L495.9,296.0 L512.1,291.1 L529.3,287.3 L547.2,284.8 L565.4,283.5 L583.8,283.5 L602.0,284.8 L619.9,287.3 L637.0,291.1 L653.3,296.0 L668.4,302.0 L682.2,309.1 L694.4,317.0 L704.8,325.7 L713.4,335.1 L719.9,345.1 L724.3,355.4 L726.5,365.9 L726.5,376.5 L724.3,387.0 L719.9,397.3 L713.4,407.3 L704.8,416.7 L694.4,425.4 L694.4,412.6 L704.8,403.9 L713.4,394.5 L719.9,384.6 L724.3,374.3 L726.5,363.7 L726.5,353.1 L724.3,342.6 L719.9,332.3 L713.4,322.4 L704.8,313.0 L694.4,304.2 L682.2,296.3 L668.4,289.3 L653.3,283.2 L637.0,278.3 L619.9,274.5 L602.0,272.0 L583.8,270.7 L565.4,270.7 L547.2,272.0 L529.3,274.5 L512.1,278.3 L495.9,283.2 L480.7,289.3 L467.0,296.3 L454.8,304.2 L444.4,313.0 L435.8,322.4 L429.3,332.3 L424.9,342.6 L422.7,353.1 L422.7,363.7 L424.9,374.3 L429.3,384.6 L435.8,394.5 L444.4,403.9 L454.8,412.6 L467.0,420.5 L480.7,427.6 L495.9,433.6 L512.1,438.5 L529.3,442.3 L547.2,444.8 L565.4,446.1 L583.8,446.1 L602.0,444.8 L619.9,442.3 L637.0,438.5 L653.3,433.6 L668.4,427.6 L682.2,420.5 Z" fill="url(#gLt)" stroke="#d7e3f4" stroke-width="1.1" stroke-opacity=".55" stroke-linejoin="round"/><ellipse cx="574.6" cy="371.2" rx="124.2" ry="71.7" fill="url(#gCard)" stroke="#d7e3f4" stroke-width="2" stroke-opacity=".92" stroke-linejoin="round"/><ellipse cx="574.6" cy="371.5" rx="106.5" ry="61.5" fill="none" stroke="#41e396" stroke-width="0.8" stroke-opacity=".3"/><ellipse cx="574.6" cy="371.5" rx="85.2" ry="49.2" fill="none" stroke="#41e396" stroke-width="0.8" stroke-opacity=".3"/><ellipse cx="574.6" cy="371.5" rx="62.5" ry="36.1" fill="none" stroke="#41e396" stroke-width="0.8" stroke-opacity=".3"/><ellipse cx="574.6" cy="371.5" rx="39.8" ry="22.9" fill="none" stroke="#41e396" stroke-width="0.8" stroke-opacity=".3"/><line x1="599.2" y1="385.6" x2="676.0" y2="430.0" stroke="#41e396" stroke-width="0.6" stroke-opacity=".25"/><line x1="587.9" y1="390.0" x2="629.5" y2="447.9" stroke="#41e396" stroke-width="0.6" stroke-opacity=".25"/><line x1="574.6" y1="391.5" x2="574.6" y2="454.3" stroke="#41e396" stroke-width="0.6" stroke-opacity=".25"/><line x1="561.3" y1="390.0" x2="519.7" y2="447.9" stroke="#41e396" stroke-width="0.6" stroke-opacity=".25"/><line x1="550.0" y1="385.6" x2="473.1" y2="430.0" stroke="#41e396" stroke-width="0.6" stroke-opacity=".25"/><line x1="542.5" y1="379.1" x2="442.0" y2="403.1" stroke="#41e396" stroke-width="0.6" stroke-opacity=".25"/><line x1="539.8" y1="371.4" x2="431.1" y2="371.4" stroke="#41e396" stroke-width="0.6" stroke-opacity=".25"/><line x1="542.5" y1="363.7" x2="442.0" y2="339.7" stroke="#41e396" stroke-width="0.6" stroke-opacity=".25"/><line x1="550.0" y1="357.2" x2="473.1" y2="312.8" stroke="#41e396" stroke-width="0.6" stroke-opacity=".25"/><line x1="561.3" y1="352.9" x2="519.7" y2="294.9" stroke="#41e396" stroke-width="0.6" stroke-opacity=".25"/><line x1="574.6" y1="351.3" x2="574.6" y2="288.6" stroke="#41e396" stroke-width="0.6" stroke-opacity=".25"/><line x1="587.9" y1="352.9" x2="629.5" y2="294.9" stroke="#41e396" stroke-width="0.6" stroke-opacity=".25"/><line x1="599.2" y1="357.2" x2="676.0" y2="312.8" stroke="#41e396" stroke-width="0.6" stroke-opacity=".25"/><line x1="606.7" y1="363.7" x2="707.1" y2="339.7" stroke="#41e396" stroke-width="0.6" stroke-opacity=".25"/><line x1="609.4" y1="371.4" x2="718.1" y2="371.4" stroke="#41e396" stroke-width="0.6" stroke-opacity=".25"/><line x1="606.7" y1="379.1" x2="707.1" y2="403.1" stroke="#41e396" stroke-width="0.6" stroke-opacity=".25"/><line x1="631.2" y1="403.9" x2="588.1" y2="513.2" stroke="#9fb4cc" stroke-width="0.7" stroke-opacity=".55"/><line x1="617.2" y1="410.3" x2="584.8" y2="514.7" stroke="#9fb4cc" stroke-width="0.7" stroke-opacity=".55"/><line x1="601.0" y1="414.8" x2="580.9" y2="515.8" stroke="#9fb4cc" stroke-width="0.7" stroke-opacity=".55"/><line x1="583.6" y1="417.1" x2="576.7" y2="516.4" stroke="#9fb4cc" stroke-width="0.7" stroke-opacity=".55"/><line x1="565.6" y1="417.1" x2="572.5" y2="516.4" stroke="#9fb4cc" stroke-width="0.7" stroke-opacity=".55"/><line x1="548.2" y1="414.8" x2="568.3" y2="515.8" stroke="#9fb4cc" stroke-width="0.7" stroke-opacity=".55"/><line x1="532.0" y1="410.3" x2="564.4" y2="514.7" stroke="#9fb4cc" stroke-width="0.7" stroke-opacity=".55"/><line x1="518.0" y1="403.9" x2="561.1" y2="513.2" stroke="#9fb4cc" stroke-width="0.7" stroke-opacity=".55"/><line x1="506.9" y1="395.8" x2="558.4" y2="511.3" stroke="#9fb4cc" stroke-width="0.7" stroke-opacity=".55"/><line x1="499.1" y1="386.5" x2="556.5" y2="509.0" stroke="#9fb4cc" stroke-width="0.7" stroke-opacity=".55"/><line x1="495.1" y1="376.4" x2="555.6" y2="506.6" stroke="#9fb4cc" stroke-width="0.7" stroke-opacity=".55"/><line x1="495.1" y1="366.0" x2="555.6" y2="504.2" stroke="#9fb4cc" stroke-width="0.7" stroke-opacity=".55"/><line x1="499.1" y1="355.9" x2="556.5" y2="501.7" stroke="#9fb4cc" stroke-width="0.7" stroke-opacity=".55"/><line x1="506.9" y1="346.6" x2="558.4" y2="499.5" stroke="#9fb4cc" stroke-width="0.7" stroke-opacity=".55"/><line x1="518.0" y1="338.5" x2="561.1" y2="497.6" stroke="#9fb4cc" stroke-width="0.7" stroke-opacity=".55"/><line x1="532.0" y1="332.1" x2="564.4" y2="496.0" stroke="#9fb4cc" stroke-width="0.7" stroke-opacity=".55"/><line x1="548.2" y1="327.6" x2="568.3" y2="495.0" stroke="#9fb4cc" stroke-width="0.7" stroke-opacity=".55"/><line x1="565.6" y1="325.3" x2="572.5" y2="494.4" stroke="#9fb4cc" stroke-width="0.7" stroke-opacity=".55"/><line x1="583.6" y1="325.3" x2="576.7" y2="494.4" stroke="#9fb4cc" stroke-width="0.7" stroke-opacity=".55"/><line x1="601.0" y1="327.6" x2="580.9" y2="495.0" stroke="#9fb4cc" stroke-width="0.7" stroke-opacity=".55"/><line x1="617.2" y1="332.1" x2="584.8" y2="496.0" stroke="#9fb4cc" stroke-width="0.7" stroke-opacity=".55"/><line x1="631.2" y1="338.5" x2="588.1" y2="497.6" stroke="#9fb4cc" stroke-width="0.7" stroke-opacity=".55"/><line x1="642.3" y1="346.6" x2="590.8" y2="499.5" stroke="#9fb4cc" stroke-width="0.7" stroke-opacity=".55"/><line x1="650.1" y1="355.9" x2="592.7" y2="501.7" stroke="#9fb4cc" stroke-width="0.7" stroke-opacity=".55"/><line x1="654.1" y1="366.0" x2="593.6" y2="504.2" stroke="#9fb4cc" stroke-width="0.7" stroke-opacity=".55"/><line x1="654.1" y1="376.4" x2="593.6" y2="506.6" stroke="#9fb4cc" stroke-width="0.7" stroke-opacity=".55"/><line x1="650.1" y1="386.5" x2="592.7" y2="509.0" stroke="#9fb4cc" stroke-width="0.7" stroke-opacity=".55"/><line x1="642.3" y1="395.8" x2="590.8" y2="511.3" stroke="#9fb4cc" stroke-width="0.7" stroke-opacity=".55"/><line x1="574.6" y1="371.2" x2="574.6" y2="507.5" stroke="#c9d8ea" stroke-width="1.4" stroke-opacity=".6"/><circle cx="574.6" cy="507.5" r="62" fill="url(#gGlow)"/><circle cx="574.6" cy="507.5" r="27" fill="none" stroke="#38e1ff" stroke-width="2" stroke-opacity=".5"/><circle cx="574.6" cy="507.5" r="14" fill="none" stroke="#8ef2ff" stroke-width="1.4" stroke-opacity=".7"/><circle cx="574.6" cy="507.5" r="5" fill="#d6faff" opacity=".9"/><path d="M663.1,277.5 L574.6,328.6 L486.1,277.5 L574.6,226.4 Z" fill="url(#gTopHL)" stroke="#d7e3f4" stroke-width="2" stroke-opacity=".92" stroke-linejoin="round"/><path d="M663.1,358.4 L574.6,409.5 L574.6,328.6 L663.1,277.5 Z" fill="url(#gRtHL)" stroke="#d7e3f4" stroke-width="2" stroke-opacity=".92" stroke-linejoin="round"/><path d="M486.1,358.4 L574.6,409.5 L574.6,328.6 L486.1,277.5 Z" fill="url(#gLtHL)" stroke="#d7e3f4" stroke-width="2" stroke-opacity=".92" stroke-linejoin="round"/><line x1="607.8" y1="377.6" x2="607.8" y2="389.0" stroke="#8ef2ff" stroke-width="1" stroke-opacity=".5"/><line x1="597.1" y1="382.2" x2="597.1" y2="393.6" stroke="#8ef2ff" stroke-width="1" stroke-opacity=".5"/><line x1="584.6" y1="384.9" x2="584.6" y2="396.3" stroke="#8ef2ff" stroke-width="1" stroke-opacity=".5"/><line x1="571.2" y1="385.5" x2="571.2" y2="396.8" stroke="#8ef2ff" stroke-width="1" stroke-opacity=".5"/><line x1="558.2" y1="383.8" x2="558.2" y2="395.2" stroke="#8ef2ff" stroke-width="1" stroke-opacity=".5"/><line x1="546.5" y1="380.1" x2="546.5" y2="391.5" stroke="#8ef2ff" stroke-width="1" stroke-opacity=".5"/><line x1="537.0" y1="374.7" x2="537.0" y2="386.0" stroke="#8ef2ff" stroke-width="1" stroke-opacity=".5"/><line x1="530.6" y1="367.9" x2="530.6" y2="379.3" stroke="#8ef2ff" stroke-width="1" stroke-opacity=".5"/><line x1="527.8" y1="360.4" x2="527.8" y2="371.7" stroke="#8ef2ff" stroke-width="1" stroke-opacity=".5"/><line x1="528.7" y1="352.7" x2="528.7" y2="364.0" stroke="#8ef2ff" stroke-width="1" stroke-opacity=".5"/><line x1="533.4" y1="345.4" x2="533.4" y2="356.8" stroke="#8ef2ff" stroke-width="1" stroke-opacity=".5"/><line x1="541.4" y1="339.2" x2="541.4" y2="350.6" stroke="#8ef2ff" stroke-width="1" stroke-opacity=".5"/><line x1="552.1" y1="334.6" x2="552.1" y2="346.0" stroke="#8ef2ff" stroke-width="1" stroke-opacity=".5"/><line x1="564.6" y1="331.9" x2="564.6" y2="343.3" stroke="#8ef2ff" stroke-width="1" stroke-opacity=".5"/><line x1="577.9" y1="331.4" x2="577.9" y2="342.7" stroke="#8ef2ff" stroke-width="1" stroke-opacity=".5"/><line x1="591.0" y1="333.0" x2="591.0" y2="344.4" stroke="#8ef2ff" stroke-width="1" stroke-opacity=".5"/><line x1="602.7" y1="336.7" x2="602.7" y2="348.1" stroke="#8ef2ff" stroke-width="1" stroke-opacity=".5"/><line x1="612.2" y1="342.2" x2="612.2" y2="353.5" stroke="#8ef2ff" stroke-width="1" stroke-opacity=".5"/><line x1="618.6" y1="348.9" x2="618.6" y2="360.3" stroke="#8ef2ff" stroke-width="1" stroke-opacity=".5"/><line x1="621.4" y1="356.5" x2="621.4" y2="367.8" stroke="#8ef2ff" stroke-width="1" stroke-opacity=".5"/><line x1="620.5" y1="364.2" x2="620.5" y2="375.5" stroke="#8ef2ff" stroke-width="1" stroke-opacity=".5"/><line x1="615.8" y1="371.4" x2="615.8" y2="382.8" stroke="#8ef2ff" stroke-width="1" stroke-opacity=".5"/><line x1="580.7" y1="310.9" x2="580.7" y2="229.9" stroke="#d7e3f4" stroke-width="1.1" stroke-opacity=".55" stroke-linejoin="round"/><line x1="631.2" y1="340.0" x2="631.2" y2="259.0" stroke="#d7e3f4" stroke-width="1.1" stroke-opacity=".55" stroke-linejoin="round"/><path d="M777.5,185.2 L574.6,302.3 L371.7,185.2 L574.6,68.0 Z" fill="url(#gTop)" stroke="#d7e3f4" stroke-width="2" stroke-opacity=".92" stroke-linejoin="round"/><path d="M777.5,277.5 L574.6,394.6 L574.6,302.3 L777.5,185.2 Z" fill="url(#gRt)" stroke="#d7e3f4" stroke-width="2" stroke-opacity=".92" stroke-linejoin="round"/><path d="M371.7,277.5 L574.6,394.6 L574.6,302.3 L371.7,185.2 Z" fill="url(#gLt)" stroke="#d7e3f4" stroke-width="2" stroke-opacity=".92" stroke-linejoin="round"/><path d="M585.7,158.2 L766.4,262.6 L766.4,187.3 L585.7,82.9 Z" fill="#0c1220" stroke="#d7e3f4" stroke-width="1.1" stroke-opacity=".55" stroke-linejoin="round"/><rect x="587.0" y="94.3" width="14" height="66.7" rx="2" fill="url(#gCard)" stroke="#41e396" stroke-width="0.7" stroke-opacity=".4"/><circle cx="593.0" cy="102.3" r="2.4" fill="#38e1ff" opacity=".85"/><rect x="615.3" y="110.6" width="14" height="66.8" rx="2" fill="url(#gCard)" stroke="#41e396" stroke-width="0.7" stroke-opacity=".4"/><circle cx="621.3" cy="118.6" r="2.4" fill="#38e1ff" opacity=".85"/><rect x="643.6" y="127.0" width="14" height="66.7" rx="2" fill="url(#gCard)" stroke="#41e396" stroke-width="0.7" stroke-opacity=".4"/><circle cx="649.6" cy="135.0" r="2.4" fill="#38e1ff" opacity=".85"/><rect x="671.9" y="143.3" width="14" height="66.7" rx="2" fill="url(#gCard)" stroke="#41e396" stroke-width="0.7" stroke-opacity=".4"/><circle cx="677.9" cy="151.3" r="2.4" fill="#38e1ff" opacity=".85"/><rect x="700.2" y="159.6" width="14" height="66.8" rx="2" fill="url(#gCard)" stroke="#41e396" stroke-width="0.7" stroke-opacity=".4"/><circle cx="706.2" cy="167.6" r="2.4" fill="#38e1ff" opacity=".85"/><rect x="728.5" y="175.9" width="14" height="66.8" rx="2" fill="url(#gCard)" stroke="#41e396" stroke-width="0.7" stroke-opacity=".4"/><circle cx="734.5" cy="183.9" r="2.4" fill="#38e1ff" opacity=".85"/><path d="M574.6,156.1 L542.0,107.4 L542.0,23.7 L574.6,72.3 Z" fill="url(#gLtHL)" stroke="#d7e3f4" stroke-width="2" stroke-opacity=".92" stroke-linejoin="round"/><path d="M542.0,107.4 L542.0,23.7 L542.0,19.4 L542.0,103.2 Z" fill="url(#gLt)" stroke="#d7e3f4" stroke-width="1.1" stroke-opacity=".55" stroke-linejoin="round"/><rect x="565.6" y="163.2" width="18" height="22" rx="4" fill="none" stroke="#d7e3f4" stroke-width="1.1" stroke-opacity=".55" stroke-linejoin="round"/><line x1="427.0" y1="195.8" x2="463.9" y2="174.5" stroke="#d7e3f4" stroke-width="0.6" stroke-opacity=".3"/><line x1="441.8" y1="204.4" x2="478.7" y2="183.1" stroke="#d7e3f4" stroke-width="0.6" stroke-opacity=".3"/><line x1="456.5" y1="212.9" x2="493.4" y2="191.6" stroke="#d7e3f4" stroke-width="0.6" stroke-opacity=".3"/><line x1="471.3" y1="221.4" x2="508.2" y2="200.1" stroke="#d7e3f4" stroke-width="0.6" stroke-opacity=".3"/><circle cx="740.6" cy="540.2" r="18" fill="url(#gCam)" stroke="#d7e3f4" stroke-width="2" stroke-opacity=".92" stroke-linejoin="round"/><circle cx="740.6" cy="540.2" r="9" fill="#0c1220" stroke="#38e1ff" stroke-width="1.2" stroke-opacity=".6"/><circle cx="740.6" cy="540.2" r="3.5" fill="#8ef2ff" opacity=".8"/><line x1="740.6" y1="540.2" x2="574.6" y2="371.2" stroke="#38e1ff" stroke-width="1.1" stroke-opacity=".55" stroke-dasharray="5 5"/><line x1="408.6" y1="362.7" x2="344.0" y2="325.4" stroke="#9fb4cc" stroke-width="5" stroke-opacity=".6" stroke-linecap="round"/><circle cx="408.6" cy="362.7" r="18" fill="url(#gCam)" stroke="#d7e3f4" stroke-width="2" stroke-opacity=".92" stroke-linejoin="round"/><circle cx="408.6" cy="362.7" r="9" fill="#0c1220" stroke="#38e1ff" stroke-width="1.2" stroke-opacity=".6"/><circle cx="408.6" cy="362.7" r="3.5" fill="#8ef2ff" opacity=".8"/><line x1="408.6" y1="362.7" x2="574.6" y2="507.5" stroke="#38e1ff" stroke-width="1.1" stroke-opacity=".55" stroke-dasharray="5 5"/><polyline points="749.2,281.0 795.9,326.5 826.7,420.9 825.5,506.8 800.9,584.9" fill="none" stroke="#1a2230" stroke-width="11" stroke-opacity="0.9" stroke-linecap="round" stroke-linejoin="round"/><polyline points="749.2,281.0 795.9,326.5 826.7,420.9 825.5,506.8 800.9,584.9" fill="none" stroke="#2c3a4e" stroke-width="7" stroke-opacity="0.8" stroke-linecap="round" stroke-linejoin="round"/><polyline points="748.2,279.0 794.9,324.5 825.7,418.9 824.5,504.8 799.9,582.9" fill="none" stroke="#38e1ff" stroke-width="2" stroke-opacity="0.25" stroke-linecap="round" stroke-linejoin="round"/><polyline points="458.4,318.3 487.9,197.6 500.2,284.2 408.6,361.3" fill="none" stroke="#1a2230" stroke-width="6" stroke-opacity="0.85" stroke-linecap="round" stroke-linejoin="round"/><polyline points="458.4,318.3 487.9,197.6 500.2,284.2 408.6,361.3" fill="none" stroke="#2c3a4e" stroke-width="3.5" stroke-opacity="0.8" stroke-linecap="round" stroke-linejoin="round"/></svg><circle cx="823.6" cy="259.5" r="2.6" fill="#38e1ff" opacity="0.9"/><path d="M 823.6 259.5 L 1332 253.5" stroke="#d7e3f4" stroke-width="0.9" opacity="0.5" fill="none"/><text x="1344" y="257.5" text-anchor="start" font-family="'Pretendard Variable',Pretendard,'Malgun Gothic',sans-serif" font-size="19" font-weight="600" fill="#e8eef7" fill-opacity="0.95">테스터 헤드</text><text x="1344" y="277.5" text-anchor="start" font-family="'IBM Plex Mono','JetBrains Mono',ui-monospace,Consolas,monospace" font-size="11" letter-spacing="1.2" fill="#93a4bd" fill-opacity="0.75">TESTER HEAD</text><circle cx="823.6" cy="410.7" r="2.6" fill="#38e1ff" opacity="0.9"/><path d="M 823.6 410.7 L 1332 404.7" stroke="#d7e3f4" stroke-width="0.9" opacity="0.5" fill="none"/><text x="1344" y="408.7" text-anchor="start" font-family="'Pretendard Variable',Pretendard,'Malgun Gothic',sans-serif" font-size="19" font-weight="600" fill="#e8eef7" fill-opacity="0.95">포고 타워</text><text x="1344" y="428.7" text-anchor="start" font-family="'IBM Plex Mono','JetBrains Mono',ui-monospace,Consolas,monospace" font-size="11" letter-spacing="1.2" fill="#93a4bd" fill-opacity="0.75">POGO TOWER</text><circle cx="823.6" cy="435.3" r="2.6" fill="#38e1ff" opacity="0.9"/><path d="M 823.6 435.3 L 1332 470.7" stroke="#d7e3f4" stroke-width="0.9" opacity="0.5" fill="none"/><text x="1344" y="474.7" text-anchor="start" font-family="'Pretendard Variable',Pretendard,'Malgun Gothic',sans-serif" font-size="19" font-weight="600" fill="#e8eef7" fill-opacity="0.95">프로브 카드</text><text x="1344" y="494.7" text-anchor="start" font-family="'IBM Plex Mono','JetBrains Mono',ui-monospace,Consolas,monospace" font-size="11" letter-spacing="1.2" fill="#93a4bd" fill-opacity="0.75">PROBE CARD</text><circle cx="823.6" cy="563.9" r="2.6" fill="#38e1ff" opacity="0.9"/><path d="M 823.6 563.9 L 1332 668.7" stroke="#d7e3f4" stroke-width="0.9" opacity="0.5" fill="none"/><text x="1344" y="672.7" text-anchor="start" font-family="'Pretendard Variable',Pretendard,'Malgun Gothic',sans-serif" font-size="19" font-weight="600" fill="#e8eef7" fill-opacity="0.95">니들 · 접촉 발광</text><text x="1344" y="692.7" text-anchor="start" font-family="'IBM Plex Mono','JetBrains Mono',ui-monospace,Consolas,monospace" font-size="11" letter-spacing="1.2" fill="#93a4bd" fill-opacity="0.75">NEEDLES</text><circle cx="847.3" cy="562.0" r="2.6" fill="#38e1ff" opacity="0.9"/><path d="M 847.3 562.0 L 1332 602.7" stroke="#d7e3f4" stroke-width="0.9" opacity="0.5" fill="none"/><text x="1344" y="606.7" text-anchor="start" font-family="'Pretendard Variable',Pretendard,'Malgun Gothic',sans-serif" font-size="19" font-weight="600" fill="#e8eef7" fill-opacity="0.95">웨이퍼 다이맵</text><text x="1344" y="626.7" text-anchor="start" font-family="'IBM Plex Mono','JetBrains Mono',ui-monospace,Consolas,monospace" font-size="11" letter-spacing="1.2" fill="#93a4bd" fill-opacity="0.75">DIE MAP</text><circle cx="823.6" cy="614.0" r="2.6" fill="#38e1ff" opacity="0.9"/><path d="M 823.6 614.0 L 1332 800.7" stroke="#d7e3f4" stroke-width="0.9" opacity="0.5" fill="none"/><text x="1344" y="804.7" text-anchor="start" font-family="'Pretendard Variable',Pretendard,'Malgun Gothic',sans-serif" font-size="19" font-weight="600" fill="#e8eef7" fill-opacity="0.95">진공 척</text><text x="1344" y="824.7" text-anchor="start" font-family="'IBM Plex Mono','JetBrains Mono',ui-monospace,Consolas,monospace" font-size="11" letter-spacing="1.2" fill="#93a4bd" fill-opacity="0.75">VACUUM CHUCK</text><circle cx="752.7" cy="533.6" r="2.6" fill="#38e1ff" opacity="0.9"/><path d="M 752.7 533.6 L 268 553.7" stroke="#d7e3f4" stroke-width="0.9" opacity="0.5" fill="none"/><text x="256" y="557.7" text-anchor="end" font-family="'Pretendard Variable',Pretendard,'Malgun Gothic',sans-serif" font-size="19" font-weight="600" fill="#e8eef7" fill-opacity="0.95">XY 스테이지</text><text x="256" y="577.7" text-anchor="end" font-family="'IBM Plex Mono','JetBrains Mono',ui-monospace,Consolas,monospace" font-size="11" letter-spacing="1.2" fill="#93a4bd" fill-opacity="0.75">XY STAGE</text><circle cx="705.5" cy="462.7" r="2.6" fill="#38e1ff" opacity="0.9"/><path d="M 705.5 462.7 L 268 487.7" stroke="#d7e3f4" stroke-width="0.9" opacity="0.5" fill="none"/><text x="256" y="491.7" text-anchor="end" font-family="'Pretendard Variable',Pretendard,'Malgun Gothic',sans-serif" font-size="19" font-weight="600" fill="#e8eef7" fill-opacity="0.95">Z 컬럼</text><text x="256" y="511.7" text-anchor="end" font-family="'IBM Plex Mono','JetBrains Mono',ui-monospace,Consolas,monospace" font-size="11" letter-spacing="1.2" fill="#93a4bd" fill-opacity="0.75">Z COLUMN</text><circle cx="866.2" cy="689.6" r="2.6" fill="#38e1ff" opacity="0.9"/><path d="M 866.2 689.6 L 1332 866.7" stroke="#d7e3f4" stroke-width="0.9" opacity="0.5" fill="none"/><text x="1344" y="870.7" text-anchor="start" font-family="'Pretendard Variable',Pretendard,'Malgun Gothic',sans-serif" font-size="19" font-weight="600" fill="#e8eef7" fill-opacity="0.95">화강암 베이스</text><text x="1344" y="890.7" text-anchor="start" font-family="'IBM Plex Mono','JetBrains Mono',ui-monospace,Consolas,monospace" font-size="11" letter-spacing="1.2" fill="#93a4bd" fill-opacity="0.75">GRANITE BASE</text><circle cx="980.6" cy="595.1" r="2.6" fill="#38e1ff" opacity="0.9"/><path d="M 980.6 595.1 L 1332 734.7" stroke="#d7e3f4" stroke-width="0.9" opacity="0.5" fill="none"/><text x="1344" y="738.7" text-anchor="start" font-family="'Pretendard Variable',Pretendard,'Malgun Gothic',sans-serif" font-size="19" font-weight="600" fill="#e8eef7" fill-opacity="0.95">정렬 카메라 — 상향</text><text x="1344" y="758.7" text-anchor="start" font-family="'IBM Plex Mono','JetBrains Mono',ui-monospace,Consolas,monospace" font-size="11" letter-spacing="1.2" fill="#93a4bd" fill-opacity="0.75">NEEDLE-TIP CAM</text><circle cx="666.7" cy="427.7" r="2.6" fill="#38e1ff" opacity="0.9"/><path d="M 666.7 427.7 L 268 421.7" stroke="#d7e3f4" stroke-width="0.9" opacity="0.5" fill="none"/><text x="256" y="425.7" text-anchor="end" font-family="'Pretendard Variable',Pretendard,'Malgun Gothic',sans-serif" font-size="19" font-weight="600" fill="#e8eef7" fill-opacity="0.95">정렬 카메라 — 하향</text><text x="256" y="445.7" text-anchor="end" font-family="'IBM Plex Mono','JetBrains Mono',ui-monospace,Consolas,monospace" font-size="11" letter-spacing="1.2" fill="#93a4bd" fill-opacity="0.75">WAFER CAM</text><circle cx="1061.9" cy="482.6" r="2.6" fill="#38e1ff" opacity="0.9"/><path d="M 1061.9 482.6 L 1332 536.7" stroke="#d7e3f4" stroke-width="0.9" opacity="0.5" fill="none"/><text x="1344" y="540.7" text-anchor="start" font-family="'Pretendard Variable',Pretendard,'Malgun Gothic',sans-serif" font-size="19" font-weight="600" fill="#e8eef7" fill-opacity="0.95">케이블 하네스</text><text x="1344" y="560.7" text-anchor="start" font-family="'IBM Plex Mono','JetBrains Mono',ui-monospace,Consolas,monospace" font-size="11" letter-spacing="1.2" fill="#93a4bd" fill-opacity="0.75">HARNESS</text><text x="30" y="1042" font-family="'IBM Plex Mono','JetBrains Mono',ui-monospace,Consolas,monospace" font-size="17" font-weight="500" letter-spacing="0.5" fill="#e8eef7" fill-opacity="0.85">FIG. 9-ISO — 3/4 뷰: 니들이 내려앉기 직전의 무대 전체</text></svg>