<svg xmlns="http://www.w3.org/2000/svg" viewBox="0 0 1600 1060" role="img"><svg x="280.0" y="103.5" width="1040.0" height="813.1" viewBox="0 0 1100 860"><defs><linearGradient id="gTop" x1="0" y1="0" x2="0" y2="1"><stop offset="0" stop-color="#4a5876"/><stop offset="1" stop-color="#2f3a52"/></linearGradient><linearGradient id="gRgt" x1="0" y1="0" x2="0" y2="1"><stop offset="0" stop-color="#38435d"/><stop offset="1" stop-color="#232c40"/></linearGradient><linearGradient id="gLft" x1="0" y1="0" x2="0" y2="1"><stop offset="0" stop-color="#242d40"/><stop offset="1" stop-color="#161c2b"/></linearGradient><linearGradient id="gHouTop" x1="0" y1="0" x2="0" y2="1"><stop offset="0" stop-color="#5b6a8a"/><stop offset="1" stop-color="#3a4560"/></linearGradient><linearGradient id="gHouBot" x1="0" y1="0" x2="0" y2="1"><stop offset="0" stop-color="#33405c"/><stop offset="1" stop-color="#1b2334"/></linearGradient><linearGradient id="gBore" x1="0" y1="0" x2="0" y2="1"><stop offset="0" stop-color="#202a3f"/><stop offset="1" stop-color="#0f1521"/></linearGradient><linearGradient id="gTube" x1="0" y1="0" x2="0" y2="1"><stop offset="0" stop-color="#59d6c8" stop-opacity=".30"/><stop offset="1" stop-color="#2a8f89" stop-opacity=".16"/></linearGradient><linearGradient id="gWaf" x1="0" y1="0" x2="0" y2="1"><stop offset="0" stop-color="#9fb6d8" stop-opacity=".72"/><stop offset="1" stop-color="#4d6188" stop-opacity=".62"/></linearGradient><radialGradient id="gGlow"><stop offset="0" stop-color="#ffd7a0"/><stop offset="0.45" stop-color="#ff7a26"/><stop offset="1" stop-color="#ff7a26" stop-opacity="0"/></radialGradient><radialGradient id="gCoil"><stop offset="0" stop-color="#ffcf94"/><stop offset="0.6" stop-color="#ff8a33"/><stop offset="1" stop-color="#c94e12"/></radialGradient></defs><polygon points="891,787 827,804 735,799 623,772 502,726 384,667 281,599 202,529 156,464 147,411 175,374 239,358 331,363 443,390 564,435 682,495 786,563 864,633 910,697 920,751 891,787" fill="#000" opacity=".22"/><polygon points="871,776 818,788 736,779 635,751 524,707 414,650 315,586 238,522 190,463 175,416 195,386 249,374 330,382 431,410 542,455 652,512 751,576 828,640 877,698 891,745 871,776" fill="#000" opacity=".16"/><polygon points="225,483 295,523 295,475 225,435" fill="url(#gLft)"/><polygon points="434,443 295,523 295,475 434,395" fill="url(#gRgt)"/><polygon points="364,355 434,395 295,475 225,435" fill="url(#gTop)"/><polygon points="364,355 434,395 295,475 225,435" stroke="#d7e3f4" stroke-width="1.1" stroke-opacity=".55" fill="none"/><polyline points="434,443 434,395" stroke="#d7e3f4" stroke-width="1.1" stroke-opacity=".55" fill="none"/><polygon points="199,487 289,538 289,524 199,473" fill="url(#gLft)"/><polygon points="460,440 289,538 289,524 460,426" fill="url(#gRgt)"/><polygon points="370,374 460,426 289,524 199,473" fill="url(#gTop)"/><polygon points="370,374 460,426 289,524 199,473" stroke="#d7e3f4" stroke-width="1.1" stroke-opacity=".55" fill="none"/><polyline points="460,440 460,426" stroke="#d7e3f4" stroke-width="1.1" stroke-opacity=".55" fill="none"/><polygon points="642,724 712,764 712,716 642,676" fill="url(#gLft)"/><polygon points="851,684 712,764 712,716 851,636" fill="url(#gRgt)"/><polygon points="782,596 851,636 712,716 642,676" fill="url(#gTop)"/><polygon points="782,596 851,636 712,716 642,676" stroke="#d7e3f4" stroke-width="1.1" stroke-opacity=".55" fill="none"/><polyline points="851,684 851,636" stroke="#d7e3f4" stroke-width="1.1" stroke-opacity=".55" fill="none"/><polygon points="617,728 706,779 706,766 617,714" fill="url(#gLft)"/><polygon points="877,681 706,779 706,766 877,667" fill="url(#gRgt)"/><polygon points="788,615 877,667 706,766 617,714" fill="url(#gTop)"/><polygon points="788,615 877,667 706,766 617,714" stroke="#d7e3f4" stroke-width="1.1" stroke-opacity=".55" fill="none"/><polyline points="877,681 877,667" stroke="#d7e3f4" stroke-width="1.1" stroke-opacity=".55" fill="none"/><polygon points="98,242 189,295 189,162 98,109" fill="url(#gLft)"/><polygon points="281,242 189,295 189,162 281,109" fill="url(#gRgt)"/><polygon points="189,56 281,109 189,162 98,109" fill="url(#gTop)"/><polygon points="189,56 281,109 189,162 98,109" stroke="#d7e3f4" stroke-width="1.1" stroke-opacity=".55" fill="none"/><polyline points="281,242 281,109" stroke="#d7e3f4" stroke-width="1.1" stroke-opacity=".55" fill="none"/><polygon points="93,113 162,153 162,132 93,92" fill="url(#gLft)"/><polygon points="180,143 162,153 162,132 180,122" fill="url(#gRgt)"/><polygon points="111,82 180,122 162,132 93,92" fill="url(#gTop)"/><polygon points="111,82 180,122 162,132 93,92" stroke="#d7e3f4" stroke-width="1.1" stroke-opacity=".55" fill="none"/><polyline points="180,143 180,122" stroke="#d7e3f4" stroke-width="1.1" stroke-opacity=".55" fill="none"/><circle cx="108" cy="101" r="15" fill="url(#gRgt)" stroke="#d7e3f4" stroke-width="1.1" stroke-opacity=".55"/><circle cx="108" cy="101" r="6" fill="#59d6c8" fill-opacity=".8"/><line x1="119" y1="107" x2="97" y2="95" stroke="#d7e3f4" stroke-width="0.6" stroke-opacity=".3" fill="none"/><line x1="115" y1="96" x2="100" y2="105" stroke="#d7e3f4" stroke-width="0.6" stroke-opacity=".3" fill="none"/><line x1="108" y1="88" x2="108" y2="114" stroke="#d7e3f4" stroke-width="0.6" stroke-opacity=".3" fill="none"/><line x1="100" y1="88" x2="115" y2="114" stroke="#d7e3f4" stroke-width="0.6" stroke-opacity=".3" fill="none"/><polygon points="45,141 115,181 115,160 45,120" fill="url(#gLft)"/><polygon points="132,170 115,181 115,160 132,150" fill="url(#gRgt)"/><polygon points="63,110 132,150 115,160 45,120" fill="url(#gTop)"/><polygon points="63,110 132,150 115,160 45,120" stroke="#d7e3f4" stroke-width="1.1" stroke-opacity=".55" fill="none"/><polyline points="132,170 132,150" stroke="#d7e3f4" stroke-width="1.1" stroke-opacity=".55" fill="none"/><circle cx="60" cy="128" r="15" fill="url(#gRgt)" stroke="#d7e3f4" stroke-width="1.1" stroke-opacity=".55"/><circle cx="60" cy="128" r="6" fill="#59d6c8" fill-opacity=".8"/><line x1="71" y1="135" x2="49" y2="122" stroke="#d7e3f4" stroke-width="0.6" stroke-opacity=".3" fill="none"/><line x1="68" y1="124" x2="52" y2="133" stroke="#d7e3f4" stroke-width="0.6" stroke-opacity=".3" fill="none"/><line x1="60" y1="116" x2="60" y2="141" stroke="#d7e3f4" stroke-width="0.6" stroke-opacity=".3" fill="none"/><line x1="52" y1="115" x2="68" y2="142" stroke="#d7e3f4" stroke-width="0.6" stroke-opacity=".3" fill="none"/><polygon points="410,101 405,152 390,206 366,260 334,311 297,355 256,390 214,415 173,427 135,426 104,412 80,385 65,348 60,303 651,644 656,690 671,727 695,753 727,767 764,768 805,756 847,732 888,697 926,652 957,602 981,548 996,494 1001,442" fill="url(#gHouBot)"/><polyline points="1001,442 996,494 981,548 957,602 926,652 888,697 847,732 805,756 764,768 727,767 695,753 671,727 656,690 651,644" stroke="#d7e3f4" stroke-width="2" stroke-opacity=".92" fill="none" stroke-linejoin="round"/><line x1="235" y1="404" x2="826" y2="745" stroke="#d7e3f4" stroke-width="1.1" stroke-opacity=".55" fill="none"/><polygon points="410,101 405,148 393,199 372,249 344,297 311,340 274,376 235,404 196,421 159,428 126,423 98,407 77,381 64,345 60,303 86,288 89,324 101,354 118,377 142,390 170,394 202,389 235,374 268,351 300,320 328,283 351,242 369,199 380,156 384,116" fill="url(#gHouBot)"/><polyline points="410,101 405,148 393,199 372,249 344,297 311,340 274,376 235,404 196,421 159,428 126,423 98,407 77,381 64,345 60,303" stroke="#d7e3f4" stroke-width="1.1" stroke-opacity=".55" fill="none"/><polygon points="384,116 380,160 367,206 346,252 320,295 288,332 253,362 217,383 182,393 150,393 123,381 103,358 90,327 86,288 677,630 682,668 694,700 715,722 742,734 773,735 808,725 844,704 879,674 911,636 938,593 958,547 971,501 975,457" fill="url(#gBore)"/><polyline points="384,116 380,160 367,206 346,252 320,295 288,332 253,362 217,383 182,393 150,393 123,381 103,358 90,327 86,288" stroke="#d7e3f4" stroke-width="1.1" stroke-opacity=".55" fill="none"/><path d="M 386 135 L 378 193 L 355 252 L 319 307 L 276 350 L 230 377 L 186 384 L 151 370 L 128 337 L 120 289" stroke="#ff7a26" stroke-width="9" stroke-opacity=".16" fill="none" stroke-linecap="round"/><path d="M 386 135 L 378 193 L 355 252 L 319 307 L 276 350 L 230 377 L 186 384 L 151 370 L 128 337 L 120 289" stroke="#ff8a33" stroke-width="5" stroke-opacity=".5" fill="none" stroke-linecap="round"/><path d="M 386 135 L 378 193 L 355 252 L 319 307 L 276 350 L 230 377 L 186 384 L 151 370 L 128 337 L 120 289" stroke="#ffd7a0" stroke-width="1.8" stroke-opacity=".9" fill="none" stroke-linecap="round"/><path d="M 433 162 L 425 220 L 402 279 L 366 334 L 323 377 L 276 404 L 233 411 L 198 397 L 174 364 L 166 316" stroke="#ff7a26" stroke-width="9" stroke-opacity=".16" fill="none" stroke-linecap="round"/><path d="M 433 162 L 425 220 L 402 279 L 366 334 L 323 377 L 276 404 L 233 411 L 198 397 L 174 364 L 166 316" stroke="#ff8a33" stroke-width="5" stroke-opacity=".5" fill="none" stroke-linecap="round"/><path d="M 433 162 L 425 220 L 402 279 L 366 334 L 323 377 L 276 404 L 233 411 L 198 397 L 174 364 L 166 316" stroke="#ffd7a0" stroke-width="1.8" stroke-opacity=".9" fill="none" stroke-linecap="round"/><path d="M 480 189 L 472 247 L 448 306 L 413 361 L 370 404 L 323 431 L 280 438 L 244 424 L 221 391 L 213 343" stroke="#ff7a26" stroke-width="9" stroke-opacity=".16" fill="none" stroke-linecap="round"/><path d="M 480 189 L 472 247 L 448 306 L 413 361 L 370 404 L 323 431 L 280 438 L 244 424 L 221 391 L 213 343" stroke="#ff8a33" stroke-width="5" stroke-opacity=".5" fill="none" stroke-linecap="round"/><path d="M 480 189 L 472 247 L 448 306 L 413 361 L 370 404 L 323 431 L 280 438 L 244 424 L 221 391 L 213 343" stroke="#ffd7a0" stroke-width="1.8" stroke-opacity=".9" fill="none" stroke-linecap="round"/><path d="M 526 216 L 518 274 L 495 333 L 460 388 L 416 431 L 370 458 L 327 465 L 291 451 L 268 418 L 260 370" stroke="#ff7a26" stroke-width="9" stroke-opacity=".16" fill="none" stroke-linecap="round"/><path d="M 526 216 L 518 274 L 495 333 L 460 388 L 416 431 L 370 458 L 327 465 L 291 451 L 268 418 L 260 370" stroke="#ff8a33" stroke-width="5" stroke-opacity=".5" fill="none" stroke-linecap="round"/><path d="M 526 216 L 518 274 L 495 333 L 460 388 L 416 431 L 370 458 L 327 465 L 291 451 L 268 418 L 260 370" stroke="#ffd7a0" stroke-width="1.8" stroke-opacity=".9" fill="none" stroke-linecap="round"/><path d="M 573 243 L 565 301 L 542 360 L 507 415 L 463 458 L 417 485 L 373 492 L 338 478 L 315 445 L 307 397" stroke="#ff7a26" stroke-width="9" stroke-opacity=".16" fill="none" stroke-linecap="round"/><path d="M 573 243 L 565 301 L 542 360 L 507 415 L 463 458 L 417 485 L 373 492 L 338 478 L 315 445 L 307 397" stroke="#ff8a33" stroke-width="5" stroke-opacity=".5" fill="none" stroke-linecap="round"/><path d="M 573 243 L 565 301 L 542 360 L 507 415 L 463 458 L 417 485 L 373 492 L 338 478 L 315 445 L 307 397" stroke="#ffd7a0" stroke-width="1.8" stroke-opacity=".9" fill="none" stroke-linecap="round"/><path d="M 620 270 L 612 328 L 589 387 L 553 442 L 510 486 L 464 512 L 420 519 L 385 505 L 362 472 L 354 424" stroke="#ff7a26" stroke-width="9" stroke-opacity=".16" fill="none" stroke-linecap="round"/><path d="M 620 270 L 612 328 L 589 387 L 553 442 L 510 486 L 464 512 L 420 519 L 385 505 L 362 472 L 354 424" stroke="#ff8a33" stroke-width="5" stroke-opacity=".5" fill="none" stroke-linecap="round"/><path d="M 620 270 L 612 328 L 589 387 L 553 442 L 510 486 L 464 512 L 420 519 L 385 505 L 362 472 L 354 424" stroke="#ffd7a0" stroke-width="1.8" stroke-opacity=".9" fill="none" stroke-linecap="round"/><path d="M 667 297 L 659 355 L 636 414 L 600 469 L 557 513 L 510 539 L 467 546 L 432 532 L 408 499 L 400 451" stroke="#ff7a26" stroke-width="9" stroke-opacity=".16" fill="none" stroke-linecap="round"/><path d="M 667 297 L 659 355 L 636 414 L 600 469 L 557 513 L 510 539 L 467 546 L 432 532 L 408 499 L 400 451" stroke="#ff8a33" stroke-width="5" stroke-opacity=".5" fill="none" stroke-linecap="round"/><path d="M 667 297 L 659 355 L 636 414 L 600 469 L 557 513 L 510 539 L 467 546 L 432 532 L 408 499 L 400 451" stroke="#ffd7a0" stroke-width="1.8" stroke-opacity=".9" fill="none" stroke-linecap="round"/><path d="M 714 325 L 706 382 L 682 441 L 647 496 L 604 540 L 557 566 L 514 573 L 478 559 L 455 526 L 447 478" stroke="#ff7a26" stroke-width="9" stroke-opacity=".16" fill="none" stroke-linecap="round"/><path d="M 714 325 L 706 382 L 682 441 L 647 496 L 604 540 L 557 566 L 514 573 L 478 559 L 455 526 L 447 478" stroke="#ff8a33" stroke-width="5" stroke-opacity=".5" fill="none" stroke-linecap="round"/><path d="M 714 325 L 706 382 L 682 441 L 647 496 L 604 540 L 557 566 L 514 573 L 478 559 L 455 526 L 447 478" stroke="#ffd7a0" stroke-width="1.8" stroke-opacity=".9" fill="none" stroke-linecap="round"/><path d="M 760 352 L 752 409 L 729 468 L 694 523 L 650 567 L 604 593 L 561 600 L 525 586 L 502 553 L 494 505" stroke="#ff7a26" stroke-width="9" stroke-opacity=".16" fill="none" stroke-linecap="round"/><path d="M 760 352 L 752 409 L 729 468 L 694 523 L 650 567 L 604 593 L 561 600 L 525 586 L 502 553 L 494 505" stroke="#ff8a33" stroke-width="5" stroke-opacity=".5" fill="none" stroke-linecap="round"/><path d="M 760 352 L 752 409 L 729 468 L 694 523 L 650 567 L 604 593 L 561 600 L 525 586 L 502 553 L 494 505" stroke="#ffd7a0" stroke-width="1.8" stroke-opacity=".9" fill="none" stroke-linecap="round"/><path d="M 807 379 L 799 436 L 776 495 L 741 550 L 697 594 L 651 620 L 607 627 L 572 613 L 549 580 L 541 532" stroke="#ff7a26" stroke-width="9" stroke-opacity=".16" fill="none" stroke-linecap="round"/><path d="M 807 379 L 799 436 L 776 495 L 741 550 L 697 594 L 651 620 L 607 627 L 572 613 L 549 580 L 541 532" stroke="#ff8a33" stroke-width="5" stroke-opacity=".5" fill="none" stroke-linecap="round"/><path d="M 807 379 L 799 436 L 776 495 L 741 550 L 697 594 L 651 620 L 607 627 L 572 613 L 549 580 L 541 532" stroke="#ffd7a0" stroke-width="1.8" stroke-opacity=".9" fill="none" stroke-linecap="round"/><path d="M 854 406 L 846 463 L 823 522 L 787 577 L 744 621 L 698 647 L 654 654 L 619 640 L 596 607 L 588 559" stroke="#ff7a26" stroke-width="9" stroke-opacity=".16" fill="none" stroke-linecap="round"/><path d="M 854 406 L 846 463 L 823 522 L 787 577 L 744 621 L 698 647 L 654 654 L 619 640 L 596 607 L 588 559" stroke="#ff8a33" stroke-width="5" stroke-opacity=".5" fill="none" stroke-linecap="round"/><path d="M 854 406 L 846 463 L 823 522 L 787 577 L 744 621 L 698 647 L 654 654 L 619 640 L 596 607 L 588 559" stroke="#ffd7a0" stroke-width="1.8" stroke-opacity=".9" fill="none" stroke-linecap="round"/><path d="M 901 433 L 893 490 L 870 549 L 834 604 L 791 648 L 744 674 L 701 681 L 666 667 L 642 634 L 634 586" stroke="#ff7a26" stroke-width="9" stroke-opacity=".16" fill="none" stroke-linecap="round"/><path d="M 901 433 L 893 490 L 870 549 L 834 604 L 791 648 L 744 674 L 701 681 L 666 667 L 642 634 L 634 586" stroke="#ff8a33" stroke-width="5" stroke-opacity=".5" fill="none" stroke-linecap="round"/><path d="M 901 433 L 893 490 L 870 549 L 834 604 L 791 648 L 744 674 L 701 681 L 666 667 L 642 634 L 634 586" stroke="#ffd7a0" stroke-width="1.8" stroke-opacity=".9" fill="none" stroke-linecap="round"/><path d="M 948 460 L 940 517 L 916 577 L 881 631 L 838 675 L 791 701 L 748 708 L 712 694 L 689 661 L 681 613" stroke="#ff7a26" stroke-width="9" stroke-opacity=".16" fill="none" stroke-linecap="round"/><path d="M 948 460 L 940 517 L 916 577 L 881 631 L 838 675 L 791 701 L 748 708 L 712 694 L 689 661 L 681 613" stroke="#ff8a33" stroke-width="5" stroke-opacity=".5" fill="none" stroke-linecap="round"/><path d="M 948 460 L 940 517 L 916 577 L 881 631 L 838 675 L 791 701 L 748 708 L 712 694 L 689 661 L 681 613" stroke="#ffd7a0" stroke-width="1.8" stroke-opacity=".9" fill="none" stroke-linecap="round"/><polygon points="354,133 351,168 340,205 324,242 303,276 277,306 249,330 220,347 193,355 167,354 146,345 129,327 119,302 116,271 707,612 711,643 721,668 737,686 759,696 784,697 812,688 841,672 869,648 894,618 916,583 932,546 942,510 946,475" fill="url(#gTube)"/><polyline points="946,475 942,510 932,546 916,583 894,618 869,648 841,672 812,688 784,697 759,696 737,686 721,668 711,643 707,612" stroke="#d7e3f4" stroke-width="1.1" stroke-opacity=".55" fill="none"/><polygon points="354,133 351,165 342,200 328,234 309,267 287,296 261,321 235,340 208,352 183,356 160,353 142,342 127,324 119,300 116,271 131,262 134,287 142,308 154,323 170,332 190,335 212,332 235,321 258,305 280,284 299,258 316,230 328,200 336,170 338,142" fill="#59d6c8"/><polyline points="338,142 336,170 328,200 316,230 299,258 280,284 258,305 235,321 212,332 190,335 170,332 154,323 142,308 134,287 131,262" stroke="#7fe6da" stroke-width="1" stroke-opacity=".7" fill="none"/><line x1="289" y1="263" x2="864" y2="595" stroke="#7fe6da" stroke-width="3" stroke-opacity=".55"/><line x1="197" y1="316" x2="773" y2="648" stroke="#7fe6da" stroke-width="3" stroke-opacity=".55"/><line x1="304" y1="267" x2="205" y2="325" stroke="#59d6c8" stroke-width="1.4" stroke-opacity=".5"/><line x1="373" y1="307" x2="274" y2="365" stroke="#59d6c8" stroke-width="1.4" stroke-opacity=".5"/><line x1="442" y1="347" x2="343" y2="404" stroke="#59d6c8" stroke-width="1.4" stroke-opacity=".5"/><line x1="511" y1="387" x2="412" y2="444" stroke="#59d6c8" stroke-width="1.4" stroke-opacity=".5"/><line x1="580" y1="427" x2="481" y2="484" stroke="#59d6c8" stroke-width="1.4" stroke-opacity=".5"/><line x1="649" y1="466" x2="550" y2="524" stroke="#59d6c8" stroke-width="1.4" stroke-opacity=".5"/><line x1="718" y1="506" x2="619" y2="564" stroke="#59d6c8" stroke-width="1.4" stroke-opacity=".5"/><line x1="787" y1="546" x2="688" y2="603" stroke="#59d6c8" stroke-width="1.4" stroke-opacity=".5"/><line x1="856" y1="586" x2="757" y2="643" stroke="#59d6c8" stroke-width="1.4" stroke-opacity=".5"/><polygon points="175,271 185,217 214,163 254,123 296,104 332,112 352,144 352,194 332,249 296,297 254,328 214,334 185,313 175,271" fill="url(#gWaf)" stroke="#cfe0f2" stroke-width="0.8" stroke-opacity=".6" stroke-linejoin="round"/><polygon points="197,284 208,230 236,176 276,136 319,117 354,125 374,157 374,207 354,262 319,310 276,341 236,346 208,326 197,284" fill="url(#gWaf)" stroke="#cfe0f2" stroke-width="0.8" stroke-opacity=".6" stroke-linejoin="round"/><polygon points="220,296 230,242 258,189 298,148 341,130 376,138 396,170 396,219 376,275 341,323 298,354 258,359 230,338 220,296" fill="url(#gWaf)" stroke="#cfe0f2" stroke-width="0.8" stroke-opacity=".6" stroke-linejoin="round"/><polygon points="242,309 252,255 280,202 320,161 363,143 398,150 418,183 418,232 398,287 363,336 320,366 280,372 252,351 242,309" fill="url(#gWaf)" stroke="#cfe0f2" stroke-width="0.8" stroke-opacity=".6" stroke-linejoin="round"/><polygon points="264,322 274,268 303,215 343,174 385,155 420,163 440,195 440,245 420,300 385,349 343,379 303,385 274,364 264,322" fill="url(#gWaf)" stroke="#cfe0f2" stroke-width="0.8" stroke-opacity=".6" stroke-linejoin="round"/><polygon points="286,335 296,281 325,227 365,187 407,168 442,176 462,208 462,258 442,313 407,361 365,392 325,397 296,377 286,335" fill="url(#gWaf)" stroke="#cfe0f2" stroke-width="0.8" stroke-opacity=".6" stroke-linejoin="round"/><polygon points="308,348 318,294 347,240 387,200 429,181 465,189 485,221 485,270 465,326 429,374 387,405 347,410 318,390 308,348" fill="url(#gWaf)" stroke="#cfe0f2" stroke-width="0.8" stroke-opacity=".6" stroke-linejoin="round"/><polygon points="330,360 341,306 369,253 409,212 452,194 487,202 507,234 507,283 487,339 452,387 409,417 369,423 341,402 330,360" fill="url(#gWaf)" stroke="#cfe0f2" stroke-width="0.8" stroke-opacity=".6" stroke-linejoin="round"/><polygon points="353,373 363,319 391,266 431,225 474,207 509,214 529,247 529,296 509,351 474,400 431,430 391,436 363,415 353,373" fill="url(#gWaf)" stroke="#cfe0f2" stroke-width="0.8" stroke-opacity=".6" stroke-linejoin="round"/><polygon points="375,386 385,332 413,279 453,238 496,219 531,227 551,259 551,309 531,364 496,413 453,443 413,449 385,428 375,386" fill="url(#gWaf)" stroke="#cfe0f2" stroke-width="0.8" stroke-opacity=".6" stroke-linejoin="round"/><polygon points="397,399 407,345 435,291 476,251 518,232 553,240 573,272 573,322 553,377 518,425 476,456 435,461 407,441 397,399" fill="url(#gWaf)" stroke="#cfe0f2" stroke-width="0.8" stroke-opacity=".6" stroke-linejoin="round"/><polygon points="419,412 429,358 458,304 498,264 540,245 575,253 595,285 595,334 575,390 540,438 498,469 458,474 429,454 419,412" fill="url(#gWaf)" stroke="#cfe0f2" stroke-width="0.8" stroke-opacity=".6" stroke-linejoin="round"/><polygon points="441,424 451,370 480,317 520,276 562,258 598,266 617,298 617,347 598,403 562,451 520,481 480,487 451,466 441,424" fill="url(#gWaf)" stroke="#cfe0f2" stroke-width="0.8" stroke-opacity=".6" stroke-linejoin="round"/><polygon points="463,437 474,383 502,330 542,289 585,271 620,278 640,311 640,360 620,415 585,464 542,494 502,500 474,479 463,437" fill="url(#gWaf)" stroke="#cfe0f2" stroke-width="0.8" stroke-opacity=".6" stroke-linejoin="round"/><polygon points="485,450 496,396 524,343 564,302 607,283 642,291 662,323 662,373 642,428 607,477 564,507 524,513 496,492 485,450" fill="url(#gWaf)" stroke="#cfe0f2" stroke-width="0.8" stroke-opacity=".6" stroke-linejoin="round"/><polygon points="508,463 518,409 546,355 586,315 629,296 664,304 684,336 684,386 664,441 629,489 586,520 546,525 518,505 508,463" fill="url(#gWaf)" stroke="#cfe0f2" stroke-width="0.8" stroke-opacity=".6" stroke-linejoin="round"/><polygon points="530,476 540,422 568,368 608,328 651,309 686,317 706,349 706,398 686,454 651,502 608,533 568,538 540,518 530,476" fill="url(#gWaf)" stroke="#cfe0f2" stroke-width="0.8" stroke-opacity=".6" stroke-linejoin="round"/><polygon points="552,488 562,434 591,381 631,340 673,322 708,329 728,362 728,411 708,466 673,515 631,545 591,551 562,530 552,488" fill="url(#gWaf)" stroke="#cfe0f2" stroke-width="0.8" stroke-opacity=".6" stroke-linejoin="round"/><polygon points="574,501 584,447 613,394 653,353 695,335 731,342 750,375 750,424 731,479 695,528 653,558 613,564 584,543 574,501" fill="url(#gWaf)" stroke="#cfe0f2" stroke-width="0.8" stroke-opacity=".6" stroke-linejoin="round"/><polygon points="596,514 607,460 635,407 675,366 717,347 753,355 773,387 773,437 753,492 717,541 675,571 635,577 607,556 596,514" fill="url(#gWaf)" stroke="#cfe0f2" stroke-width="0.8" stroke-opacity=".6" stroke-linejoin="round"/><polygon points="618,527 629,473 657,419 697,379 740,360 775,368 795,400 795,450 775,505 740,553 697,584 657,589 629,569 618,527" fill="url(#gWaf)" stroke="#cfe0f2" stroke-width="0.8" stroke-opacity=".6" stroke-linejoin="round"/><polygon points="641,539 651,486 679,432 719,391 762,373 797,381 817,413 817,462 797,518 762,566 719,597 679,602 651,582 641,539" fill="url(#gWaf)" stroke="#cfe0f2" stroke-width="0.8" stroke-opacity=".6" stroke-linejoin="round"/><polygon points="663,552 673,498 701,445 741,404 784,386 819,393 839,426 839,475 819,530 784,579 741,609 701,615 673,594 663,552" fill="url(#gWaf)" stroke="#cfe0f2" stroke-width="0.8" stroke-opacity=".6" stroke-linejoin="round"/><polygon points="685,565 695,511 724,458 764,417 806,399 841,406 861,439 861,488 841,543 806,592 764,622 724,628 695,607 685,565" fill="url(#gWaf)" stroke="#cfe0f2" stroke-width="0.8" stroke-opacity=".6" stroke-linejoin="round"/><polygon points="707,578 717,524 746,471 786,430 828,411 864,419 883,451 883,501 864,556 828,604 786,635 746,641 717,620 707,578" fill="url(#gWaf)" stroke="#cfe0f2" stroke-width="0.8" stroke-opacity=".6" stroke-linejoin="round"/><polygon points="946,475 943,507 934,541 920,575 901,608 878,638 853,662 826,681 800,693 775,697 752,694 733,683 719,665 710,641 707,612 723,603 726,628 733,649 746,665 762,674 782,677 803,673 826,663 849,647 871,625 891,600 907,571 920,541 927,512 930,484" fill="#59d6c8"/><polyline points="930,484 927,512 920,541 907,571 891,600 871,625 849,647 826,663 803,673 782,677 762,674 746,665 733,649 726,628 723,603" stroke="#7fe6da" stroke-width="1.2" stroke-opacity=".8" fill="none"/><polygon points="1001,442 997,490 984,540 963,590 935,638 902,682 865,718 826,745 787,763 750,769 717,764 690,748 669,722 656,687 651,644 677,630 681,666 692,696 710,718 733,732 762,736 793,730 826,716 860,692 891,661 919,624 943,583 961,541 972,498 975,457" fill="url(#gHouTop)"/><polyline points="1001,442 997,490 984,540 963,590 935,638 902,682 865,718 826,745 787,763 750,769 717,764 690,748 669,722 656,687 651,644" stroke="#d7e3f4" stroke-width="1.1" stroke-opacity=".55" fill="none"/><circle cx="398" cy="142" r="9" fill="url(#gGlow)" opacity=".9"/><circle cx="398" cy="142" r="5.5" fill="url(#gCoil)"/><circle cx="398" cy="142" r="2" fill="#fff3e0"/><circle cx="464" cy="181" r="9" fill="url(#gGlow)" opacity=".9"/><circle cx="464" cy="181" r="5.5" fill="url(#gCoil)"/><circle cx="464" cy="181" r="2" fill="#fff3e0"/><circle cx="531" cy="219" r="9" fill="url(#gGlow)" opacity=".9"/><circle cx="531" cy="219" r="5.5" fill="url(#gCoil)"/><circle cx="531" cy="219" r="2" fill="#fff3e0"/><circle cx="597" cy="257" r="9" fill="url(#gGlow)" opacity=".9"/><circle cx="597" cy="257" r="5.5" fill="url(#gCoil)"/><circle cx="597" cy="257" r="2" fill="#fff3e0"/><circle cx="664" cy="296" r="9" fill="url(#gGlow)" opacity=".9"/><circle cx="664" cy="296" r="5.5" fill="url(#gCoil)"/><circle cx="664" cy="296" r="2" fill="#fff3e0"/><circle cx="730" cy="334" r="9" fill="url(#gGlow)" opacity=".9"/><circle cx="730" cy="334" r="5.5" fill="url(#gCoil)"/><circle cx="730" cy="334" r="2" fill="#fff3e0"/><circle cx="797" cy="373" r="9" fill="url(#gGlow)" opacity=".9"/><circle cx="797" cy="373" r="5.5" fill="url(#gCoil)"/><circle cx="797" cy="373" r="2" fill="#fff3e0"/><circle cx="863" cy="411" r="9" fill="url(#gGlow)" opacity=".9"/><circle cx="863" cy="411" r="5.5" fill="url(#gCoil)"/><circle cx="863" cy="411" r="2" fill="#fff3e0"/><circle cx="930" cy="449" r="9" fill="url(#gGlow)" opacity=".9"/><circle cx="930" cy="449" r="5.5" fill="url(#gCoil)"/><circle cx="930" cy="449" r="2" fill="#fff3e0"/><circle cx="131" cy="296" r="9" fill="url(#gGlow)" opacity=".9"/><circle cx="131" cy="296" r="5.5" fill="url(#gCoil)"/><circle cx="131" cy="296" r="2" fill="#fff3e0"/><circle cx="198" cy="334" r="9" fill="url(#gGlow)" opacity=".9"/><circle cx="198" cy="334" r="5.5" fill="url(#gCoil)"/><circle cx="198" cy="334" r="2" fill="#fff3e0"/><circle cx="264" cy="373" r="9" fill="url(#gGlow)" opacity=".9"/><circle cx="264" cy="373" r="5.5" fill="url(#gCoil)"/><circle cx="264" cy="373" r="2" fill="#fff3e0"/><circle cx="331" cy="411" r="9" fill="url(#gGlow)" opacity=".9"/><circle cx="331" cy="411" r="5.5" fill="url(#gCoil)"/><circle cx="331" cy="411" r="2" fill="#fff3e0"/><circle cx="397" cy="450" r="9" fill="url(#gGlow)" opacity=".9"/><circle cx="397" cy="450" r="5.5" fill="url(#gCoil)"/><circle cx="397" cy="450" r="2" fill="#fff3e0"/><circle cx="464" cy="488" r="9" fill="url(#gGlow)" opacity=".9"/><circle cx="464" cy="488" r="5.5" fill="url(#gCoil)"/><circle cx="464" cy="488" r="2" fill="#fff3e0"/><circle cx="530" cy="526" r="9" fill="url(#gGlow)" opacity=".9"/><circle cx="530" cy="526" r="5.5" fill="url(#gCoil)"/><circle cx="530" cy="526" r="2" fill="#fff3e0"/><circle cx="597" cy="565" r="9" fill="url(#gGlow)" opacity=".9"/><circle cx="597" cy="565" r="5.5" fill="url(#gCoil)"/><circle cx="597" cy="565" r="2" fill="#fff3e0"/><circle cx="663" cy="603" r="9" fill="url(#gGlow)" opacity=".9"/><circle cx="663" cy="603" r="5.5" fill="url(#gCoil)"/><circle cx="663" cy="603" r="2" fill="#fff3e0"/><line x1="384" y1="116" x2="975" y2="457" stroke="#d7e3f4" stroke-width="2" stroke-opacity=".92" fill="none" stroke-linejoin="round"/><line x1="410" y1="101" x2="1001" y2="442" stroke="#d7e3f4" stroke-width="2" stroke-opacity=".92" fill="none" stroke-linejoin="round"/><line x1="86" y1="288" x2="677" y2="630" stroke="#d7e3f4" stroke-width="2" stroke-opacity=".92" fill="none" stroke-linejoin="round"/><line x1="60" y1="303" x2="651" y2="644" stroke="#d7e3f4" stroke-width="2" stroke-opacity=".92" fill="none" stroke-linejoin="round"/><defs><clipPath id="hc0"><polygon points="384,116 975,457 1001,442 410,101"/></clipPath><clipPath id="hc1"><polygon points="86,288 677,630 651,644 60,303"/></clipPath><clipPath id="hc2"><polygon points="410,101 404,157 386,215 359,273 322,326 280,371 235,404 190,423 147,427 111,416 83,390 66,352 60,303 86,288 91,330 106,363 129,385 160,394 196,391 235,374 273,346 309,308 340,263 364,213 379,163 384,116"/></clipPath><clipPath id="hc3"><polygon points="1001,442 995,498 978,557 950,615 914,668 872,712 826,745 781,765 739,769 703,758 675,732 657,693 651,644 677,630 682,671 697,704 721,726 752,736 788,732 826,716 865,687 901,650 932,604 955,555 970,505 975,457"/></clipPath></defs><g clip-path="url(#hc0)" stroke="#d7e3f4" stroke-width="0.6" stroke-opacity=".35"><line x1="369" y1="101" x2="725" y2="457"/><line x1="376" y1="101" x2="732" y2="457"/><line x1="383" y1="101" x2="739" y2="457"/><line x1="390" y1="101" x2="746" y2="457"/><line x1="397" y1="101" x2="753" y2="457"/><line x1="404" y1="101" x2="760" y2="457"/><line x1="411" y1="101" x2="767" y2="457"/><line x1="418" y1="101" x2="774" y2="457"/><line x1="425" y1="101" x2="781" y2="457"/><line x1="432" y1="101" x2="788" y2="457"/><line x1="439" y1="101" x2="795" y2="457"/><line x1="446" y1="101" x2="802" y2="457"/><line x1="453" y1="101" x2="809" y2="457"/><line x1="460" y1="101" x2="816" y2="457"/><line x1="467" y1="101" x2="823" y2="457"/><line x1="474" y1="101" x2="830" y2="457"/><line x1="481" y1="101" x2="837" y2="457"/><line x1="488" y1="101" x2="844" y2="457"/><line x1="495" y1="101" x2="851" y2="457"/><line x1="502" y1="101" x2="858" y2="457"/><line x1="509" y1="101" x2="865" y2="457"/><line x1="516" y1="101" x2="872" y2="457"/><line x1="523" y1="101" x2="879" y2="457"/><line x1="530" y1="101" x2="886" y2="457"/><line x1="537" y1="101" x2="893" y2="457"/><line x1="544" y1="101" x2="900" y2="457"/><line x1="551" y1="101" x2="907" y2="457"/><line x1="558" y1="101" x2="914" y2="457"/><line x1="565" y1="101" x2="921" y2="457"/><line x1="572" y1="101" x2="928" y2="457"/><line x1="579" y1="101" x2="935" y2="457"/><line x1="586" y1="101" x2="942" y2="457"/><line x1="593" y1="101" x2="949" y2="457"/><line x1="600" y1="101" x2="956" y2="457"/><line x1="607" y1="101" x2="963" y2="457"/><line x1="614" y1="101" x2="970" y2="457"/><line x1="621" y1="101" x2="977" y2="457"/><line x1="628" y1="101" x2="984" y2="457"/><line x1="635" y1="101" x2="991" y2="457"/><line x1="642" y1="101" x2="998" y2="457"/><line x1="649" y1="101" x2="1005" y2="457"/><line x1="656" y1="101" x2="1012" y2="457"/></g><g clip-path="url(#hc1)" stroke="#d7e3f4" stroke-width="0.6" stroke-opacity=".35"><line x1="45" y1="288" x2="401" y2="644"/><line x1="52" y1="288" x2="408" y2="644"/><line x1="59" y1="288" x2="415" y2="644"/><line x1="66" y1="288" x2="422" y2="644"/><line x1="73" y1="288" x2="429" y2="644"/><line x1="80" y1="288" x2="436" y2="644"/><line x1="87" y1="288" x2="443" y2="644"/><line x1="94" y1="288" x2="450" y2="644"/><line x1="101" y1="288" x2="457" y2="644"/><line x1="108" y1="288" x2="464" y2="644"/><line x1="115" y1="288" x2="471" y2="644"/><line x1="122" y1="288" x2="478" y2="644"/><line x1="129" y1="288" x2="485" y2="644"/><line x1="136" y1="288" x2="492" y2="644"/><line x1="143" y1="288" x2="499" y2="644"/><line x1="150" y1="288" x2="506" y2="644"/><line x1="157" y1="288" x2="513" y2="644"/><line x1="164" y1="288" x2="520" y2="644"/><line x1="171" y1="288" x2="527" y2="644"/><line x1="178" y1="288" x2="534" y2="644"/><line x1="185" y1="288" x2="541" y2="644"/><line x1="192" y1="288" x2="548" y2="644"/><line x1="199" y1="288" x2="555" y2="644"/><line x1="206" y1="288" x2="562" y2="644"/><line x1="213" y1="288" x2="569" y2="644"/><line x1="220" y1="288" x2="576" y2="644"/><line x1="227" y1="288" x2="583" y2="644"/><line x1="234" y1="288" x2="590" y2="644"/><line x1="241" y1="288" x2="597" y2="644"/><line x1="248" y1="288" x2="604" y2="644"/><line x1="255" y1="288" x2="611" y2="644"/><line x1="262" y1="288" x2="618" y2="644"/><line x1="269" y1="288" x2="625" y2="644"/><line x1="276" y1="288" x2="632" y2="644"/><line x1="283" y1="288" x2="639" y2="644"/><line x1="290" y1="288" x2="646" y2="644"/><line x1="297" y1="288" x2="653" y2="644"/><line x1="304" y1="288" x2="660" y2="644"/><line x1="311" y1="288" x2="667" y2="644"/><line x1="318" y1="288" x2="674" y2="644"/><line x1="325" y1="288" x2="681" y2="644"/><line x1="332" y1="288" x2="688" y2="644"/></g><g clip-path="url(#hc2)" stroke="#d7e3f4" stroke-width="0.6" stroke-opacity=".35"><line x1="-206" y1="101" x2="120" y2="427"/><line x1="-192" y1="101" x2="134" y2="427"/><line x1="-178" y1="101" x2="148" y2="427"/><line x1="-164" y1="101" x2="162" y2="427"/><line x1="-150" y1="101" x2="176" y2="427"/><line x1="-136" y1="101" x2="190" y2="427"/><line x1="-122" y1="101" x2="204" y2="427"/><line x1="-108" y1="101" x2="218" y2="427"/><line x1="-94" y1="101" x2="232" y2="427"/><line x1="-80" y1="101" x2="246" y2="427"/><line x1="-66" y1="101" x2="260" y2="427"/><line x1="-52" y1="101" x2="274" y2="427"/><line x1="-38" y1="101" x2="288" y2="427"/><line x1="-24" y1="101" x2="302" y2="427"/><line x1="-10" y1="101" x2="316" y2="427"/><line x1="4" y1="101" x2="330" y2="427"/><line x1="18" y1="101" x2="344" y2="427"/><line x1="32" y1="101" x2="358" y2="427"/><line x1="46" y1="101" x2="372" y2="427"/><line x1="60" y1="101" x2="386" y2="427"/><line x1="74" y1="101" x2="400" y2="427"/><line x1="88" y1="101" x2="414" y2="427"/><line x1="102" y1="101" x2="428" y2="427"/><line x1="116" y1="101" x2="442" y2="427"/><line x1="130" y1="101" x2="456" y2="427"/><line x1="144" y1="101" x2="470" y2="427"/><line x1="158" y1="101" x2="484" y2="427"/><line x1="172" y1="101" x2="498" y2="427"/><line x1="186" y1="101" x2="512" y2="427"/><line x1="200" y1="101" x2="526" y2="427"/><line x1="214" y1="101" x2="540" y2="427"/><line x1="228" y1="101" x2="554" y2="427"/><line x1="242" y1="101" x2="568" y2="427"/><line x1="256" y1="101" x2="582" y2="427"/><line x1="270" y1="101" x2="596" y2="427"/><line x1="284" y1="101" x2="610" y2="427"/><line x1="298" y1="101" x2="624" y2="427"/><line x1="312" y1="101" x2="638" y2="427"/><line x1="326" y1="101" x2="652" y2="427"/><line x1="340" y1="101" x2="666" y2="427"/><line x1="354" y1="101" x2="680" y2="427"/><line x1="368" y1="101" x2="694" y2="427"/><line x1="382" y1="101" x2="708" y2="427"/><line x1="396" y1="101" x2="722" y2="427"/></g><g clip-path="url(#hc3)" stroke="#d7e3f4" stroke-width="0.6" stroke-opacity=".35"><line x1="385" y1="442" x2="712" y2="769"/><line x1="399" y1="442" x2="726" y2="769"/><line x1="413" y1="442" x2="740" y2="769"/><line x1="427" y1="442" x2="754" y2="769"/><line x1="441" y1="442" x2="768" y2="769"/><line x1="455" y1="442" x2="782" y2="769"/><line x1="469" y1="442" x2="796" y2="769"/><line x1="483" y1="442" x2="810" y2="769"/><line x1="497" y1="442" x2="824" y2="769"/><line x1="511" y1="442" x2="838" y2="769"/><line x1="525" y1="442" x2="852" y2="769"/><line x1="539" y1="442" x2="866" y2="769"/><line x1="553" y1="442" x2="880" y2="769"/><line x1="567" y1="442" x2="894" y2="769"/><line x1="581" y1="442" x2="908" y2="769"/><line x1="595" y1="442" x2="922" y2="769"/><line x1="609" y1="442" x2="936" y2="769"/><line x1="623" y1="442" x2="950" y2="769"/><line x1="637" y1="442" x2="964" y2="769"/><line x1="651" y1="442" x2="978" y2="769"/><line x1="665" y1="442" x2="992" y2="769"/><line x1="679" y1="442" x2="1006" y2="769"/><line x1="693" y1="442" x2="1020" y2="769"/><line x1="707" y1="442" x2="1034" y2="769"/><line x1="721" y1="442" x2="1048" y2="769"/><line x1="735" y1="442" x2="1062" y2="769"/><line x1="749" y1="442" x2="1076" y2="769"/><line x1="763" y1="442" x2="1090" y2="769"/><line x1="777" y1="442" x2="1104" y2="769"/><line x1="791" y1="442" x2="1118" y2="769"/><line x1="805" y1="442" x2="1132" y2="769"/><line x1="819" y1="442" x2="1146" y2="769"/><line x1="833" y1="442" x2="1160" y2="769"/><line x1="847" y1="442" x2="1174" y2="769"/><line x1="861" y1="442" x2="1188" y2="769"/><line x1="875" y1="442" x2="1202" y2="769"/><line x1="889" y1="442" x2="1216" y2="769"/><line x1="903" y1="442" x2="1230" y2="769"/><line x1="917" y1="442" x2="1244" y2="769"/><line x1="931" y1="442" x2="1258" y2="769"/><line x1="945" y1="442" x2="1272" y2="769"/><line x1="959" y1="442" x2="1286" y2="769"/><line x1="973" y1="442" x2="1300" y2="769"/><line x1="987" y1="442" x2="1314" y2="769"/></g><polygon points="787,626 856,666 856,547 787,507" fill="url(#gLft)"/><polygon points="936,620 856,666 856,547 936,501" fill="url(#gRgt)"/><polygon points="866,461 936,501 856,547 787,507" fill="url(#gTop)"/><polygon points="866,461 936,501 856,547 787,507" stroke="#d7e3f4" stroke-width="1.1" stroke-opacity=".55" fill="none"/><polyline points="936,620 936,501" stroke="#d7e3f4" stroke-width="1.1" stroke-opacity=".55" fill="none"/><polygon points="848,655 960,719 960,682 848,618" fill="url(#gLft)"/><polygon points="991,701 960,719 960,682 991,664" fill="url(#gRgt)"/><polygon points="880,600 991,664 960,682 848,618" fill="url(#gTop)"/><polygon points="880,600 991,664 960,682 848,618" stroke="#d7e3f4" stroke-width="1.1" stroke-opacity=".55" fill="none"/><polyline points="991,701 991,664" stroke="#d7e3f4" stroke-width="1.1" stroke-opacity=".55" fill="none"/><line x1="826" y1="520" x2="1005" y2="624" stroke="url(#gRgt)" stroke-width="10"/><line x1="826" y1="520" x2="1005" y2="624" stroke="#d7e3f4" stroke-width="1.1" stroke-opacity=".55" fill="none"/><polygon points="968,652 999,671 999,634 968,616" fill="url(#gLft)"/><polygon points="1055,639 999,671 999,634 1055,602" fill="url(#gRgt)"/><polygon points="1023,584 1055,602 999,634 968,616" fill="url(#gTop)"/><polygon points="1023,584 1055,602 999,634 968,616" stroke="#d7e3f4" stroke-width="1.1" stroke-opacity=".55" fill="none"/><polyline points="1055,639 1055,602" stroke="#d7e3f4" stroke-width="1.1" stroke-opacity=".55" fill="none"/><line x1="354" y1="133" x2="946" y2="475" stroke="#59d6c8" stroke-width="1.6" stroke-opacity=".85"/><line x1="116" y1="271" x2="707" y2="612" stroke="#59d6c8" stroke-width="1.6" stroke-opacity=".85"/></svg><circle cx="948.4" cy="725.6" r="2.6" fill="#59d6c8" opacity="0.9"/><path d="M 948.4 725.6 L 1332 821.3" stroke="#d7e3f4" stroke-width="0.9" opacity="0.5" fill="none"/><text x="1344" y="825.3" text-anchor="start" font-family="'Pretendard Variable',Pretendard,'Malgun Gothic',sans-serif" font-size="19" font-weight="600" fill="#e8eef7" fill-opacity="0.95">석영 튜브</text><text x="1344" y="845.3" text-anchor="start" font-family="'IBM Plex Mono','JetBrains Mono',ui-monospace,Consolas,monospace" font-size="11" letter-spacing="1.2" fill="#93a4bd" fill-opacity="0.75">QUARTZ TUBE</text><circle cx="781.1" cy="357.8" r="2.6" fill="#59d6c8" opacity="0.9"/><path d="M 781.1 357.8 L 268 351.8" stroke="#d7e3f4" stroke-width="0.9" opacity="0.5" fill="none"/><text x="256" y="355.8" text-anchor="end" font-family="'Pretendard Variable',Pretendard,'Malgun Gothic',sans-serif" font-size="19" font-weight="600" fill="#e8eef7" fill-opacity="0.95">웨이퍼 배치</text><text x="256" y="375.8" text-anchor="end" font-family="'IBM Plex Mono','JetBrains Mono',ui-monospace,Consolas,monospace" font-size="11" letter-spacing="1.2" fill="#93a4bd" fill-opacity="0.75">WAFER BATCH</text><circle cx="781.1" cy="533.6" r="2.6" fill="#59d6c8" opacity="0.9"/><path d="M 781.1 533.6 L 268 527.6" stroke="#d7e3f4" stroke-width="0.9" opacity="0.5" fill="none"/><text x="256" y="531.6" text-anchor="end" font-family="'Pretendard Variable',Pretendard,'Malgun Gothic',sans-serif" font-size="19" font-weight="600" fill="#e8eef7" fill-opacity="0.95">석영 보트</text><text x="256" y="551.6" text-anchor="end" font-family="'IBM Plex Mono','JetBrains Mono',ui-monospace,Consolas,monospace" font-size="11" letter-spacing="1.2" fill="#93a4bd" fill-opacity="0.75">WAFER BOAT</text><circle cx="702.6" cy="555.4" r="2.6" fill="#59d6c8" opacity="0.9"/><path d="M 702.6 555.4 L 268 659.6" stroke="#d7e3f4" stroke-width="0.9" opacity="0.5" fill="none"/><text x="256" y="663.6" text-anchor="end" font-family="'Pretendard Variable',Pretendard,'Malgun Gothic',sans-serif" font-size="19" font-weight="600" fill="#e8eef7" fill-opacity="0.95">히터 코일</text><text x="256" y="683.6" text-anchor="end" font-family="'IBM Plex Mono','JetBrains Mono',ui-monospace,Consolas,monospace" font-size="11" letter-spacing="1.2" fill="#93a4bd" fill-opacity="0.75">HEATER COILS</text><circle cx="907.8" cy="383.3" r="2.6" fill="#59d6c8" opacity="0.9"/><path d="M 907.8 383.3 L 1332 377.3" stroke="#d7e3f4" stroke-width="0.9" opacity="0.5" fill="none"/><text x="1344" y="381.3" text-anchor="start" font-family="'Pretendard Variable',Pretendard,'Malgun Gothic',sans-serif" font-size="19" font-weight="600" fill="#e8eef7" fill-opacity="0.95">코일 단면</text><text x="1344" y="401.3" text-anchor="start" font-family="'IBM Plex Mono','JetBrains Mono',ui-monospace,Consolas,monospace" font-size="11" letter-spacing="1.2" fill="#93a4bd" fill-opacity="0.75">COIL SECTION</text><circle cx="627.9" cy="544.0" r="2.6" fill="#59d6c8" opacity="0.9"/><path d="M 627.9 544.0 L 268 593.6" stroke="#d7e3f4" stroke-width="0.9" opacity="0.5" fill="none"/><text x="256" y="597.6" text-anchor="end" font-family="'Pretendard Variable',Pretendard,'Malgun Gothic',sans-serif" font-size="19" font-weight="600" fill="#e8eef7" fill-opacity="0.95">단열 하우징</text><text x="256" y="617.6" text-anchor="end" font-family="'IBM Plex Mono','JetBrains Mono',ui-monospace,Consolas,monospace" font-size="11" letter-spacing="1.2" fill="#93a4bd" fill-opacity="0.75">REFRACTORY</text><circle cx="379.3" cy="180.0" r="2.6" fill="#59d6c8" opacity="0.9"/><path d="M 379.3 180.0 L 268 174.0" stroke="#d7e3f4" stroke-width="0.9" opacity="0.5" fill="none"/><text x="256" y="178.0" text-anchor="end" font-family="'Pretendard Variable',Pretendard,'Malgun Gothic',sans-serif" font-size="19" font-weight="600" fill="#e8eef7" fill-opacity="0.95">가스 매니폴드</text><text x="256" y="198.0" text-anchor="end" font-family="'IBM Plex Mono','JetBrains Mono',ui-monospace,Consolas,monospace" font-size="11" letter-spacing="1.2" fill="#93a4bd" fill-opacity="0.75">GAS MANIFOLD</text><circle cx="524.9" cy="574.3" r="2.6" fill="#59d6c8" opacity="0.9"/><path d="M 524.9 574.3 L 268 725.6" stroke="#d7e3f4" stroke-width="0.9" opacity="0.5" fill="none"/><text x="256" y="729.6" text-anchor="end" font-family="'Pretendard Variable',Pretendard,'Malgun Gothic',sans-serif" font-size="19" font-weight="600" fill="#e8eef7" fill-opacity="0.95">받침 스탠드</text><text x="256" y="749.6" text-anchor="end" font-family="'IBM Plex Mono','JetBrains Mono',ui-monospace,Consolas,monospace" font-size="11" letter-spacing="1.2" fill="#93a4bd" fill-opacity="0.75">STAND</text><circle cx="1145.1" cy="719.9" r="2.6" fill="#59d6c8" opacity="0.9"/><path d="M 1145.1 719.9 L 1332 755.3" stroke="#d7e3f4" stroke-width="0.9" opacity="0.5" fill="none"/><text x="1344" y="759.3" text-anchor="start" font-family="'Pretendard Variable',Pretendard,'Malgun Gothic',sans-serif" font-size="19" font-weight="600" fill="#e8eef7" fill-opacity="0.95">배기 덕트</text><text x="1344" y="779.3" text-anchor="start" font-family="'IBM Plex Mono','JetBrains Mono',ui-monospace,Consolas,monospace" font-size="11" letter-spacing="1.2" fill="#93a4bd" fill-opacity="0.75">EXHAUST</text><circle cx="1234.9" cy="695.3" r="2.6" fill="#59d6c8" opacity="0.9"/><path d="M 1234.9 695.3 L 1332 689.3" stroke="#d7e3f4" stroke-width="0.9" opacity="0.5" fill="none"/><text x="1344" y="693.3" text-anchor="start" font-family="'Pretendard Variable',Pretendard,'Malgun Gothic',sans-serif" font-size="19" font-weight="600" fill="#e8eef7" fill-opacity="0.95">로딩 패들</text><text x="1344" y="713.3" text-anchor="start" font-family="'IBM Plex Mono','JetBrains Mono',ui-monospace,Consolas,monospace" font-size="11" letter-spacing="1.2" fill="#93a4bd" fill-opacity="0.75">LOAD PADDLE</text><text x="30" y="1042" font-family="'IBM Plex Mono','JetBrains Mono',ui-monospace,Consolas,monospace" font-size="17" font-weight="500" letter-spacing="0.5" fill="#e8eef7" fill-opacity="0.85">FIG. 4-ISO — 반 절개: 히터 링 속에서 웨이퍼들이 유리 갑옷을 입는다</text></svg>