<svg xmlns="http://www.w3.org/2000/svg" viewBox="0 0 1600 1060" role="img"><svg x="280.0" y="84.5" width="1040.0" height="850.9" viewBox="0 0 1100 900"><defs><linearGradient id="subT" x1="0" y1="0" x2="0" y2="1"><stop offset="0" stop-color="#528365"/><stop offset="1" stop-color="#436b52"/></linearGradient><linearGradient id="subR" x1="0" y1="0" x2="0" y2="1"><stop offset="0" stop-color="#3a5c47"/><stop offset="1" stop-color="#2d4837"/></linearGradient><linearGradient id="subL" x1="0" y1="0" x2="0" y2="1"><stop offset="0" stop-color="#263d2f"/><stop offset="1" stop-color="#1d2e24"/></linearGradient><linearGradient id="intpT" x1="0" y1="0" x2="0" y2="1"><stop offset="0" stop-color="#98adcb"/><stop offset="1" stop-color="#7c8ea6"/></linearGradient><linearGradient id="intpR" x1="0" y1="0" x2="0" y2="1"><stop offset="0" stop-color="#6b7a8f"/><stop offset="1" stop-color="#535f70"/></linearGradient><linearGradient id="intpL" x1="0" y1="0" x2="0" y2="1"><stop offset="0" stop-color="#47515e"/><stop offset="1" stop-color="#363d48"/></linearGradient><linearGradient id="gpuT" x1="0" y1="0" x2="0" y2="1"><stop offset="0" stop-color="#1a4d5e"/><stop offset="1" stop-color="#153f4d"/></linearGradient><linearGradient id="gpuR" x1="0" y1="0" x2="0" y2="1"><stop offset="0" stop-color="#123642"/><stop offset="1" stop-color="#0e2a33"/></linearGradient><linearGradient id="gpuL" x1="0" y1="0" x2="0" y2="1"><stop offset="0" stop-color="#0c242c"/><stop offset="1" stop-color="#091b21"/></linearGradient><linearGradient id="hbmT" x1="0" y1="0" x2="0" y2="1"><stop offset="0" stop-color="#543d79"/><stop offset="1" stop-color="#443263"/></linearGradient><linearGradient id="hbmR" x1="0" y1="0" x2="0" y2="1"><stop offset="0" stop-color="#3b2b55"/><stop offset="1" stop-color="#2e2242"/></linearGradient><linearGradient id="hbmL" x1="0" y1="0" x2="0" y2="1"><stop offset="0" stop-color="#271c38"/><stop offset="1" stop-color="#1e162a"/></linearGradient><linearGradient id="cuT" x1="0" y1="0" x2="0" y2="1"><stop offset="0" stop-color="#ffad55"/><stop offset="1" stop-color="#fc8e46"/></linearGradient><linearGradient id="cuR" x1="0" y1="0" x2="0" y2="1"><stop offset="0" stop-color="#d97a3c"/><stop offset="1" stop-color="#a95f2f"/></linearGradient><linearGradient id="cuL" x1="0" y1="0" x2="0" y2="1"><stop offset="0" stop-color="#8f5128"/><stop offset="1" stop-color="#6c3d1e"/></linearGradient><linearGradient id="auT" x1="0" y1="0" x2="0" y2="1"><stop offset="0" stop-color="#ffe669"/><stop offset="1" stop-color="#eabc56"/></linearGradient><linearGradient id="auR" x1="0" y1="0" x2="0" y2="1"><stop offset="0" stop-color="#caa24a"/><stop offset="1" stop-color="#9e7e3a"/></linearGradient><linearGradient id="auL" x1="0" y1="0" x2="0" y2="1"><stop offset="0" stop-color="#856b31"/><stop offset="1" stop-color="#655125"/></linearGradient><linearGradient id="lidT" x1="0" y1="0" x2="0" y2="1"><stop offset="0" stop-color="#c4d6ec"/><stop offset="1" stop-color="#a0afc1"/></linearGradient><linearGradient id="lidR" x1="0" y1="0" x2="0" y2="1"><stop offset="0" stop-color="#8a97a6"/><stop offset="1" stop-color="#6c7681"/></linearGradient><linearGradient id="lidL" x1="0" y1="0" x2="0" y2="1"><stop offset="0" stop-color="#5b646e"/><stop offset="1" stop-color="#454c53"/></linearGradient><radialGradient id="gpuGlow" cx="0.5" cy="0.5" r="0.5"><stop offset="0" stop-color="#8ffcff" stop-opacity="0.9"/><stop offset="0.4" stop-color="#38e1ff" stop-opacity="0.5"/><stop offset="1" stop-color="#38e1ff" stop-opacity="0"/></radialGradient><radialGradient id="hbmGlow" cx="0.5" cy="0.5" r="0.5"><stop offset="0" stop-color="#f0c8ff" stop-opacity="0.85"/><stop offset="0.45" stop-color="#d88cff" stop-opacity="0.4"/><stop offset="1" stop-color="#d88cff" stop-opacity="0"/></radialGradient><clipPath id="c1"><polygon points="662.4,475.3 462.2,590.9 462.2,620.3 662.4,504.7"/></clipPath><clipPath id="c2"><polygon points="614.9,393.0 458.8,483.1 458.8,498.8 614.9,408.6"/></clipPath><clipPath id="c3"><polygon points="429.9,290.1 317.9,354.7 317.9,384.1 429.9,319.5"/></clipPath><clipPath id="c4"><polygon points="603.0,313.6 545.3,346.9 545.3,362.6 603.0,329.3"/></clipPath><clipPath id="c5"><polygon points="402.8,43.1 613.2,164.6 467.2,248.9 256.8,127.4"/></clipPath></defs><ellipse cx="435.0" cy="636.0" rx="241" ry="140" fill="#000000" opacity="0.1"/><ellipse cx="435.0" cy="636.0" rx="210" ry="122" fill="#000000" opacity="0.22"/><polygon points="207.6,443.9 462.2,590.9 462.2,620.3 207.6,473.3" fill="url(#subL)"/><polygon points="662.4,475.3 462.2,590.9 462.2,620.3 662.4,504.7" fill="url(#subR)"/><g clip-path="url(#c1)" stroke="#d7e3f4" stroke-width="0.6" stroke-opacity="0.35"><line x1="462" y1="620" x2="462" y2="620"/><line x1="462" y1="613" x2="469" y2="620"/><line x1="462" y1="606" x2="476" y2="620"/><line x1="462" y1="599" x2="483" y2="620"/><line x1="462" y1="592" x2="490" y2="620"/><line x1="462" y1="585" x2="497" y2="620"/><line x1="462" y1="578" x2="504" y2="620"/><line x1="462" y1="571" x2="511" y2="620"/><line x1="462" y1="564" x2="518" y2="620"/><line x1="462" y1="557" x2="525" y2="620"/><line x1="462" y1="550" x2="532" y2="620"/><line x1="462" y1="543" x2="539" y2="620"/><line x1="462" y1="536" x2="546" y2="620"/><line x1="462" y1="529" x2="553" y2="620"/><line x1="462" y1="522" x2="560" y2="620"/><line x1="462" y1="515" x2="567" y2="620"/><line x1="462" y1="508" x2="574" y2="620"/><line x1="462" y1="501" x2="581" y2="620"/><line x1="462" y1="494" x2="588" y2="620"/><line x1="462" y1="487" x2="595" y2="620"/><line x1="462" y1="480" x2="602" y2="620"/><line x1="464" y1="475" x2="609" y2="620"/><line x1="471" y1="475" x2="616" y2="620"/><line x1="478" y1="475" x2="623" y2="620"/><line x1="485" y1="475" x2="630" y2="620"/><line x1="492" y1="475" x2="637" y2="620"/><line x1="499" y1="475" x2="644" y2="620"/><line x1="506" y1="475" x2="651" y2="620"/><line x1="513" y1="475" x2="658" y2="620"/><line x1="520" y1="475" x2="662" y2="618"/><line x1="527" y1="475" x2="662" y2="610"/><line x1="534" y1="475" x2="662" y2="604"/><line x1="541" y1="475" x2="662" y2="596"/><line x1="548" y1="475" x2="662" y2="590"/><line x1="555" y1="475" x2="662" y2="582"/><line x1="562" y1="475" x2="662" y2="576"/><line x1="569" y1="475" x2="662" y2="568"/><line x1="576" y1="475" x2="662" y2="562"/><line x1="583" y1="475" x2="662" y2="554"/><line x1="590" y1="475" x2="662" y2="548"/><line x1="597" y1="475" x2="662" y2="540"/><line x1="604" y1="475" x2="662" y2="534"/><line x1="611" y1="475" x2="662" y2="526"/><line x1="618" y1="475" x2="662" y2="520"/><line x1="625" y1="475" x2="662" y2="512"/><line x1="632" y1="475" x2="662" y2="505"/><line x1="639" y1="475" x2="662" y2="498"/><line x1="646" y1="475" x2="662" y2="491"/><line x1="653" y1="475" x2="662" y2="484"/><line x1="660" y1="475" x2="662" y2="477"/></g><polygon points="407.8,328.3 662.4,475.3 462.2,590.9 207.6,443.9" fill="url(#subT)"/><polygon points="407.8,328.3 662.4,475.3 462.2,590.9 207.6,443.9" stroke="#d7e3f4" stroke-width="2" stroke-opacity="0.92" fill="none" stroke-linejoin="round"/><polygon points="662.4,475.3 462.2,590.9 462.2,620.3 662.4,504.7" stroke="#d7e3f4" stroke-width="1.1" stroke-opacity="0.55" fill="none" stroke-linejoin="round"/><polygon points="207.6,443.9 462.2,590.9 462.2,620.3 207.6,473.3" stroke="#d7e3f4" stroke-width="1.1" stroke-opacity="0.55" fill="none" stroke-linejoin="round"/><g stroke="#d97a3c" stroke-width="0.8" stroke-opacity="0.35"><line x1="396.0" y1="343.0" x2="603.0" y2="501.7"/><line x1="382.4" y1="350.8" x2="589.5" y2="509.6"/><line x1="368.8" y1="358.7" x2="575.9" y2="517.4"/><line x1="355.2" y1="366.5" x2="562.3" y2="525.3"/><line x1="341.6" y1="374.3" x2="548.7" y2="533.1"/><line x1="328.1" y1="382.2" x2="535.1" y2="540.9"/><line x1="314.5" y1="390.0" x2="521.6" y2="548.8"/><line x1="300.9" y1="397.9" x2="508.0" y2="556.6"/><line x1="287.3" y1="405.7" x2="494.4" y2="564.5"/><line x1="273.8" y1="413.5" x2="480.8" y2="572.3"/><line x1="260.2" y1="421.4" x2="467.2" y2="580.1"/><line x1="246.6" y1="429.2" x2="453.7" y2="588.0"/><line x1="233.0" y1="437.1" x2="440.1" y2="595.8"/></g><g stroke="#d7e3f4" stroke-width="0.5" stroke-opacity="0.22"><line x1="419.7" y1="343.0" x2="258.5" y2="465.5"/><line x1="460.5" y1="366.5" x2="299.2" y2="489.0"/><line x1="501.2" y1="390.0" x2="339.9" y2="512.5"/><line x1="541.9" y1="413.5" x2="380.7" y2="536.0"/><line x1="582.7" y1="437.1" x2="421.4" y2="559.6"/><line x1="623.4" y1="460.6" x2="462.2" y2="583.1"/></g><g stroke="#152318" stroke-width="0.8" stroke-opacity="0.5"><line x1="662.4" y1="500.8" x2="462.2" y2="616.4"/><line x1="207.6" y1="469.4" x2="462.2" y2="616.4"/><line x1="662.4" y1="494.9" x2="462.2" y2="610.5"/><line x1="207.6" y1="463.5" x2="462.2" y2="610.5"/><line x1="662.4" y1="489.0" x2="462.2" y2="604.6"/><line x1="207.6" y1="457.6" x2="462.2" y2="604.6"/><line x1="662.4" y1="483.1" x2="462.2" y2="598.8"/><line x1="207.6" y1="451.8" x2="462.2" y2="598.8"/><line x1="662.4" y1="477.2" x2="462.2" y2="592.9"/><line x1="207.6" y1="445.9" x2="462.2" y2="592.9"/></g><g fill="#c96a30"><ellipse cx="224.5" cy="500.8" rx="5" ry="5"/><ellipse cx="239.8" cy="509.6" rx="5" ry="5"/><ellipse cx="255.1" cy="518.4" rx="5" ry="5"/><ellipse cx="270.4" cy="527.2" rx="5" ry="5"/><ellipse cx="285.6" cy="536.0" rx="5" ry="5"/><ellipse cx="300.9" cy="544.9" rx="5" ry="5"/><ellipse cx="316.2" cy="553.7" rx="5" ry="5"/><ellipse cx="331.5" cy="562.5" rx="5" ry="5"/><ellipse cx="346.7" cy="571.3" rx="5" ry="5"/><ellipse cx="362.0" cy="580.1" rx="5" ry="5"/><ellipse cx="377.3" cy="589.0" rx="5" ry="5"/><ellipse cx="392.6" cy="597.8" rx="5" ry="5"/><ellipse cx="407.8" cy="606.6" rx="5" ry="5"/><ellipse cx="423.1" cy="615.4" rx="5" ry="5"/><ellipse cx="438.4" cy="624.2" rx="5" ry="5"/></g><g fill="#f2b57a" opacity="0.85"><ellipse cx="223.1" cy="499.3" rx="2.8" ry="2.5"/><ellipse cx="238.4" cy="508.1" rx="2.8" ry="2.5"/><ellipse cx="253.7" cy="516.9" rx="2.8" ry="2.5"/><ellipse cx="269.0" cy="525.7" rx="2.8" ry="2.5"/><ellipse cx="284.2" cy="534.5" rx="2.8" ry="2.5"/><ellipse cx="299.5" cy="543.4" rx="2.8" ry="2.5"/><ellipse cx="314.8" cy="552.2" rx="2.8" ry="2.5"/><ellipse cx="330.1" cy="561.0" rx="2.8" ry="2.5"/><ellipse cx="345.3" cy="569.8" rx="2.8" ry="2.5"/><ellipse cx="360.6" cy="578.6" rx="2.8" ry="2.5"/><ellipse cx="375.9" cy="587.5" rx="2.8" ry="2.5"/><ellipse cx="391.2" cy="596.3" rx="2.8" ry="2.5"/><ellipse cx="406.4" cy="605.1" rx="2.8" ry="2.5"/><ellipse cx="421.7" cy="613.9" rx="2.8" ry="2.5"/><ellipse cx="437.0" cy="622.7" rx="2.8" ry="2.5"/></g><g fill="#d97a3c"><ellipse cx="413.8" cy="337.6" rx="6.2" ry="6.2"/><ellipse cx="386.6" cy="353.3" rx="6.2" ry="6.2"/><ellipse cx="359.5" cy="368.9" rx="6.2" ry="6.2"/><ellipse cx="332.3" cy="384.6" rx="6.2" ry="6.2"/><ellipse cx="305.2" cy="400.3" rx="6.2" ry="6.2"/><ellipse cx="278.0" cy="416.0" rx="6.2" ry="6.2"/><ellipse cx="439.2" cy="352.3" rx="6.2" ry="6.2"/><ellipse cx="412.1" cy="368.0" rx="6.2" ry="6.2"/><ellipse cx="384.9" cy="383.6" rx="6.2" ry="6.2"/><ellipse cx="357.8" cy="399.3" rx="6.2" ry="6.2"/><ellipse cx="330.6" cy="415.0" rx="6.2" ry="6.2"/><ellipse cx="303.5" cy="430.7" rx="6.2" ry="6.2"/><ellipse cx="464.7" cy="367.0" rx="6.2" ry="6.2"/><ellipse cx="437.5" cy="382.7" rx="6.2" ry="6.2"/><ellipse cx="410.4" cy="398.4" rx="6.2" ry="6.2"/><ellipse cx="383.2" cy="414.0" rx="6.2" ry="6.2"/><ellipse cx="356.1" cy="429.7" rx="6.2" ry="6.2"/><ellipse cx="328.9" cy="445.4" rx="6.2" ry="6.2"/><ellipse cx="490.2" cy="381.7" rx="6.2" ry="6.2"/><ellipse cx="463.0" cy="397.4" rx="6.2" ry="6.2"/><ellipse cx="435.8" cy="413.1" rx="6.2" ry="6.2"/><ellipse cx="408.7" cy="428.7" rx="6.2" ry="6.2"/><ellipse cx="381.5" cy="444.4" rx="6.2" ry="6.2"/><ellipse cx="354.4" cy="460.1" rx="6.2" ry="6.2"/><ellipse cx="515.6" cy="396.4" rx="6.2" ry="6.2"/><ellipse cx="488.5" cy="412.1" rx="6.2" ry="6.2"/><ellipse cx="461.3" cy="427.8" rx="6.2" ry="6.2"/><ellipse cx="434.2" cy="443.4" rx="6.2" ry="6.2"/><ellipse cx="407.0" cy="459.1" rx="6.2" ry="6.2"/><ellipse cx="379.8" cy="474.8" rx="6.2" ry="6.2"/><ellipse cx="541.1" cy="411.1" rx="6.2" ry="6.2"/><ellipse cx="513.9" cy="426.8" rx="6.2" ry="6.2"/><ellipse cx="486.8" cy="442.4" rx="6.2" ry="6.2"/><ellipse cx="459.6" cy="458.1" rx="6.2" ry="6.2"/><ellipse cx="432.5" cy="473.8" rx="6.2" ry="6.2"/><ellipse cx="405.3" cy="489.5" rx="6.2" ry="6.2"/><ellipse cx="566.5" cy="425.8" rx="6.2" ry="6.2"/><ellipse cx="539.4" cy="441.5" rx="6.2" ry="6.2"/><ellipse cx="512.2" cy="457.1" rx="6.2" ry="6.2"/><ellipse cx="485.1" cy="472.8" rx="6.2" ry="6.2"/><ellipse cx="457.9" cy="488.5" rx="6.2" ry="6.2"/><ellipse cx="430.8" cy="504.2" rx="6.2" ry="6.2"/><ellipse cx="592.0" cy="440.5" rx="6.2" ry="6.2"/><ellipse cx="564.8" cy="456.2" rx="6.2" ry="6.2"/><ellipse cx="537.7" cy="471.9" rx="6.2" ry="6.2"/><ellipse cx="510.5" cy="487.5" rx="6.2" ry="6.2"/><ellipse cx="483.4" cy="503.2" rx="6.2" ry="6.2"/><ellipse cx="456.2" cy="518.9" rx="6.2" ry="6.2"/></g><g fill="#f2b57a" opacity="0.8"><ellipse cx="412.1" cy="335.7" rx="3.4" ry="3.1"/><ellipse cx="384.9" cy="351.4" rx="3.4" ry="3.1"/><ellipse cx="357.8" cy="367.0" rx="3.4" ry="3.1"/><ellipse cx="330.6" cy="382.7" rx="3.4" ry="3.1"/><ellipse cx="303.5" cy="398.4" rx="3.4" ry="3.1"/><ellipse cx="276.3" cy="414.1" rx="3.4" ry="3.1"/><ellipse cx="463.0" cy="365.1" rx="3.4" ry="3.1"/><ellipse cx="435.8" cy="380.8" rx="3.4" ry="3.1"/><ellipse cx="408.7" cy="396.5" rx="3.4" ry="3.1"/><ellipse cx="381.5" cy="412.1" rx="3.4" ry="3.1"/><ellipse cx="354.4" cy="427.8" rx="3.4" ry="3.1"/><ellipse cx="327.2" cy="443.5" rx="3.4" ry="3.1"/><ellipse cx="513.9" cy="394.5" rx="3.4" ry="3.1"/><ellipse cx="486.8" cy="410.2" rx="3.4" ry="3.1"/><ellipse cx="459.6" cy="425.9" rx="3.4" ry="3.1"/><ellipse cx="432.5" cy="441.5" rx="3.4" ry="3.1"/><ellipse cx="405.3" cy="457.2" rx="3.4" ry="3.1"/><ellipse cx="378.1" cy="472.9" rx="3.4" ry="3.1"/><ellipse cx="564.8" cy="423.9" rx="3.4" ry="3.1"/><ellipse cx="537.7" cy="439.6" rx="3.4" ry="3.1"/><ellipse cx="510.5" cy="455.2" rx="3.4" ry="3.1"/><ellipse cx="483.4" cy="470.9" rx="3.4" ry="3.1"/><ellipse cx="456.2" cy="486.6" rx="3.4" ry="3.1"/><ellipse cx="429.1" cy="502.3" rx="3.4" ry="3.1"/></g><ellipse cx="435.0" cy="458.6" rx="118" ry="70" fill="#000000" opacity="0.13"/><polygon points="255.1,365.5 458.8,483.1 458.8,498.8 255.1,381.2" fill="url(#intpL)"/><polygon points="614.9,393.0 458.8,483.1 458.8,498.8 614.9,408.6" fill="url(#intpR)"/><g clip-path="url(#c2)" stroke="#d7e3f4" stroke-width="0.6" stroke-opacity="0.35"><line x1="459" y1="499" x2="459" y2="499"/><line x1="459" y1="492" x2="466" y2="499"/><line x1="459" y1="485" x2="473" y2="499"/><line x1="459" y1="478" x2="480" y2="499"/><line x1="459" y1="471" x2="487" y2="499"/><line x1="459" y1="464" x2="494" y2="499"/><line x1="459" y1="457" x2="501" y2="499"/><line x1="459" y1="450" x2="508" y2="499"/><line x1="459" y1="443" x2="515" y2="499"/><line x1="459" y1="436" x2="522" y2="499"/><line x1="459" y1="429" x2="529" y2="499"/><line x1="459" y1="422" x2="536" y2="499"/><line x1="459" y1="415" x2="543" y2="499"/><line x1="459" y1="408" x2="550" y2="499"/><line x1="459" y1="401" x2="557" y2="499"/><line x1="459" y1="394" x2="564" y2="499"/><line x1="465" y1="393" x2="571" y2="499"/><line x1="472" y1="393" x2="578" y2="499"/><line x1="479" y1="393" x2="585" y2="499"/><line x1="486" y1="393" x2="592" y2="499"/><line x1="493" y1="393" x2="599" y2="499"/><line x1="500" y1="393" x2="606" y2="499"/><line x1="507" y1="393" x2="613" y2="499"/><line x1="514" y1="393" x2="615" y2="494"/><line x1="521" y1="393" x2="615" y2="487"/><line x1="528" y1="393" x2="615" y2="480"/><line x1="535" y1="393" x2="615" y2="473"/><line x1="542" y1="393" x2="615" y2="466"/><line x1="549" y1="393" x2="615" y2="459"/><line x1="556" y1="393" x2="615" y2="452"/><line x1="563" y1="393" x2="615" y2="445"/><line x1="570" y1="393" x2="615" y2="438"/><line x1="577" y1="393" x2="615" y2="431"/><line x1="584" y1="393" x2="615" y2="424"/><line x1="591" y1="393" x2="615" y2="417"/><line x1="598" y1="393" x2="615" y2="410"/><line x1="605" y1="393" x2="615" y2="403"/><line x1="612" y1="393" x2="615" y2="396"/></g><polygon points="411.2,275.4 614.9,393.0 458.8,483.1 255.1,365.5" fill="url(#intpT)"/><polygon points="411.2,275.4 614.9,393.0 458.8,483.1 255.1,365.5" stroke="#d7e3f4" stroke-width="2" stroke-opacity="0.92" fill="none" stroke-linejoin="round"/><polygon points="614.9,393.0 458.8,483.1 458.8,498.8 614.9,408.6" stroke="#d7e3f4" stroke-width="1.1" stroke-opacity="0.55" fill="none" stroke-linejoin="round"/><polygon points="255.1,365.5 458.8,483.1 458.8,498.8 255.1,381.2" stroke="#d7e3f4" stroke-width="1.1" stroke-opacity="0.55" fill="none" stroke-linejoin="round"/><g stroke="#9fd0ff" stroke-width="0.5" stroke-opacity="0.3"><line x1="394.3" y1="291.0" x2="569.1" y2="413.5"/><line x1="375.6" y1="301.8" x2="550.4" y2="424.3"/><line x1="356.9" y1="312.6" x2="531.7" y2="435.1"/><line x1="338.3" y1="323.4" x2="513.1" y2="445.9"/><line x1="319.6" y1="334.2" x2="494.4" y2="456.7"/><line x1="300.9" y1="344.9" x2="475.7" y2="467.4"/><line x1="282.2" y1="355.7" x2="457.1" y2="478.2"/><line x1="419.7" y1="286.1" x2="290.7" y2="380.2"/><line x1="441.8" y1="298.9" x2="312.8" y2="393.0"/><line x1="463.9" y1="311.6" x2="334.9" y2="405.7"/><line x1="485.9" y1="324.4" x2="356.9" y2="418.4"/><line x1="508.0" y1="337.1" x2="379.0" y2="431.2"/><line x1="530.1" y1="349.8" x2="401.1" y2="443.9"/><line x1="552.1" y1="362.6" x2="423.1" y2="456.7"/><line x1="574.2" y1="375.3" x2="445.2" y2="469.4"/><line x1="596.2" y1="388.1" x2="467.2" y2="482.1"/></g><g fill="#2a3742" opacity="0.8"><ellipse cx="409.5" cy="299.5" rx="1.7" ry="0.98"/><ellipse cx="372.2" cy="321.0" rx="1.7" ry="0.98"/><ellipse cx="334.9" cy="342.6" rx="1.7" ry="0.98"/><ellipse cx="297.5" cy="364.1" rx="1.7" ry="0.98"/><ellipse cx="429.9" cy="311.2" rx="1.7" ry="0.98"/><ellipse cx="392.6" cy="332.8" rx="1.7" ry="0.98"/><ellipse cx="355.2" cy="354.3" rx="1.7" ry="0.98"/><ellipse cx="317.9" cy="375.9" rx="1.7" ry="0.98"/><ellipse cx="450.3" cy="323.0" rx="1.7" ry="0.98"/><ellipse cx="412.9" cy="344.5" rx="1.7" ry="0.98"/><ellipse cx="375.6" cy="366.1" rx="1.7" ry="0.98"/><ellipse cx="338.3" cy="387.7" rx="1.7" ry="0.98"/><ellipse cx="470.6" cy="334.7" rx="1.7" ry="0.98"/><ellipse cx="433.3" cy="356.3" rx="1.7" ry="0.98"/><ellipse cx="396.0" cy="377.9" rx="1.7" ry="0.98"/><ellipse cx="358.6" cy="399.4" rx="1.7" ry="0.98"/><ellipse cx="491.0" cy="346.5" rx="1.7" ry="0.98"/><ellipse cx="453.7" cy="368.1" rx="1.7" ry="0.98"/><ellipse cx="416.3" cy="389.6" rx="1.7" ry="0.98"/><ellipse cx="379.0" cy="411.2" rx="1.7" ry="0.98"/><ellipse cx="511.4" cy="358.3" rx="1.7" ry="0.98"/><ellipse cx="474.0" cy="379.8" rx="1.7" ry="0.98"/><ellipse cx="436.7" cy="401.4" rx="1.7" ry="0.98"/><ellipse cx="399.4" cy="422.9" rx="1.7" ry="0.98"/><ellipse cx="531.7" cy="370.0" rx="1.7" ry="0.98"/><ellipse cx="494.4" cy="391.6" rx="1.7" ry="0.98"/><ellipse cx="457.1" cy="413.1" rx="1.7" ry="0.98"/><ellipse cx="419.7" cy="434.7" rx="1.7" ry="0.98"/><ellipse cx="552.1" cy="381.8" rx="1.7" ry="0.98"/><ellipse cx="514.8" cy="403.3" rx="1.7" ry="0.98"/><ellipse cx="477.4" cy="424.9" rx="1.7" ry="0.98"/><ellipse cx="440.1" cy="446.5" rx="1.7" ry="0.98"/><ellipse cx="572.5" cy="393.5" rx="1.7" ry="0.98"/><ellipse cx="535.1" cy="415.1" rx="1.7" ry="0.98"/><ellipse cx="497.8" cy="436.7" rx="1.7" ry="0.98"/><ellipse cx="460.5" cy="458.2" rx="1.7" ry="0.98"/></g><line x1="614.9" y1="404.7" x2="458.8" y2="494.9" stroke="#3a4756" stroke-width="0.7" stroke-opacity="0.55"/><line x1="614.9" y1="400.8" x2="458.8" y2="491.0" stroke="#3a4756" stroke-width="0.7" stroke-opacity="0.55"/><line x1="614.9" y1="396.9" x2="458.8" y2="487.0" stroke="#3a4756" stroke-width="0.7" stroke-opacity="0.55"/><g fill="#caa24a"><ellipse cx="390.9" cy="285.2" rx="3.6" ry="2.05"/><ellipse cx="353.5" cy="306.7" rx="3.6" ry="2.05"/><ellipse cx="316.2" cy="328.3" rx="3.6" ry="2.05"/><ellipse cx="429.9" cy="286.1" rx="3.6" ry="2.05"/><ellipse cx="392.6" cy="307.7" rx="3.6" ry="2.05"/><ellipse cx="355.2" cy="329.3" rx="3.6" ry="2.05"/><ellipse cx="317.9" cy="350.8" rx="3.6" ry="2.05"/><ellipse cx="431.6" cy="308.7" rx="3.6" ry="2.05"/><ellipse cx="394.3" cy="330.2" rx="3.6" ry="2.05"/><ellipse cx="356.9" cy="351.8" rx="3.6" ry="2.05"/><ellipse cx="470.6" cy="309.7" rx="3.6" ry="2.05"/><ellipse cx="433.3" cy="331.2" rx="3.6" ry="2.05"/><ellipse cx="396.0" cy="352.8" rx="3.6" ry="2.05"/><ellipse cx="358.6" cy="374.3" rx="3.6" ry="2.05"/><ellipse cx="472.3" cy="332.2" rx="3.6" ry="2.05"/><ellipse cx="435.0" cy="353.8" rx="3.6" ry="2.05"/><ellipse cx="397.7" cy="375.3" rx="3.6" ry="2.05"/><ellipse cx="511.4" cy="333.2" rx="3.6" ry="2.05"/><ellipse cx="474.0" cy="354.7" rx="3.6" ry="2.05"/><ellipse cx="436.7" cy="376.3" rx="3.6" ry="2.05"/><ellipse cx="399.4" cy="397.9" rx="3.6" ry="2.05"/><ellipse cx="513.1" cy="355.7" rx="3.6" ry="2.05"/><ellipse cx="475.7" cy="377.3" rx="3.6" ry="2.05"/><ellipse cx="438.4" cy="398.8" rx="3.6" ry="2.05"/><ellipse cx="552.1" cy="356.7" rx="3.6" ry="2.05"/><ellipse cx="514.8" cy="378.3" rx="3.6" ry="2.05"/><ellipse cx="477.4" cy="399.8" rx="3.6" ry="2.05"/><ellipse cx="440.1" cy="421.4" rx="3.6" ry="2.05"/><ellipse cx="553.8" cy="379.2" rx="3.6" ry="2.05"/><ellipse cx="516.5" cy="400.8" rx="3.6" ry="2.05"/><ellipse cx="479.1" cy="422.4" rx="3.6" ry="2.05"/></g><ellipse cx="329.8" cy="294.9" rx="112" ry="72" fill="url(#gpuGlow)"/><polygon points="229.6,303.8 317.9,354.7 317.9,384.1 229.6,333.2" fill="url(#gpuL)"/><polygon points="429.9,290.1 317.9,354.7 317.9,384.1 429.9,319.5" fill="url(#gpuR)"/><g clip-path="url(#c3)" stroke="#d7e3f4" stroke-width="0.6" stroke-opacity="0.35"><line x1="318" y1="384" x2="318" y2="384"/><line x1="318" y1="377" x2="325" y2="384"/><line x1="318" y1="370" x2="332" y2="384"/><line x1="318" y1="363" x2="339" y2="384"/><line x1="318" y1="356" x2="346" y2="384"/><line x1="318" y1="349" x2="353" y2="384"/><line x1="318" y1="342" x2="360" y2="384"/><line x1="318" y1="335" x2="367" y2="384"/><line x1="318" y1="328" x2="374" y2="384"/><line x1="318" y1="321" x2="381" y2="384"/><line x1="318" y1="314" x2="388" y2="384"/><line x1="318" y1="307" x2="395" y2="384"/><line x1="318" y1="300" x2="402" y2="384"/><line x1="318" y1="293" x2="409" y2="384"/><line x1="322" y1="290" x2="416" y2="384"/><line x1="329" y1="290" x2="423" y2="384"/><line x1="336" y1="290" x2="430" y2="384"/><line x1="343" y1="290" x2="430" y2="377"/><line x1="350" y1="290" x2="430" y2="370"/><line x1="357" y1="290" x2="430" y2="363"/><line x1="364" y1="290" x2="430" y2="356"/><line x1="371" y1="290" x2="430" y2="349"/><line x1="378" y1="290" x2="430" y2="342"/><line x1="385" y1="290" x2="430" y2="335"/><line x1="392" y1="290" x2="430" y2="328"/><line x1="399" y1="290" x2="430" y2="321"/><line x1="406" y1="290" x2="430" y2="314"/><line x1="413" y1="290" x2="430" y2="307"/><line x1="420" y1="290" x2="430" y2="300"/><line x1="427" y1="290" x2="430" y2="293"/></g><polygon points="341.6,239.1 429.9,290.1 317.9,354.7 229.6,303.8" fill="url(#gpuT)"/><polygon points="341.6,239.1 429.9,290.1 317.9,354.7 229.6,303.8" stroke="#d7e3f4" stroke-width="2" stroke-opacity="0.92" fill="none" stroke-linejoin="round"/><polygon points="429.9,290.1 317.9,354.7 317.9,384.1 429.9,319.5" stroke="#d7e3f4" stroke-width="1.1" stroke-opacity="0.55" fill="none" stroke-linejoin="round"/><polygon points="229.6,303.8 317.9,354.7 317.9,384.1 229.6,333.2" stroke="#d7e3f4" stroke-width="1.1" stroke-opacity="0.55" fill="none" stroke-linejoin="round"/><polygon points="311.0,264.8 323.7,272.2 312.9,278.4 300.1,271.1" fill="#38e1ff" opacity="0.15"/><polygon points="298.3,272.2 311.0,279.5 300.1,285.8 287.4,278.4" fill="#38e1ff" opacity="0.25"/><polygon points="285.5,279.5 298.3,286.9 287.4,293.1 274.7,285.8" fill="#38e1ff" opacity="0.35"/><polygon points="351.7,258.9 364.5,266.3 353.6,272.6 340.9,265.2" fill="#38e1ff" opacity="0.35"/><polygon points="339.0,266.3 351.7,273.6 340.9,279.9 328.2,272.6" fill="#38e1ff" opacity="0.15"/><polygon points="326.3,273.6 339.0,281.0 328.2,287.3 315.4,279.9" fill="#38e1ff" opacity="0.25"/><polygon points="313.6,281.0 326.3,288.3 315.4,294.6 302.7,287.3" fill="#38e1ff" opacity="0.35"/><polygon points="300.8,288.3 313.6,295.7 302.7,302.0 290.0,294.6" fill="#38e1ff" opacity="0.15"/><polygon points="288.1,295.7 300.8,303.0 290.0,309.3 277.2,302.0" fill="#38e1ff" opacity="0.25"/><polygon points="275.4,303.0 288.1,310.4 277.2,316.7 264.5,309.3" fill="#38e1ff" opacity="0.35"/><polygon points="367.0,267.8 379.8,275.1 368.9,281.4 356.2,274.0" fill="#38e1ff" opacity="0.15"/><polygon points="354.3,275.1 367.0,282.5 356.2,288.7 343.4,281.4" fill="#38e1ff" opacity="0.25"/><polygon points="341.6,282.5 354.3,289.8 343.4,296.1 330.7,288.7" fill="#38e1ff" opacity="0.35"/><polygon points="328.8,289.8 341.6,297.2 330.7,303.4 318.0,296.1" fill="#38e1ff" opacity="0.15"/><polygon points="316.1,297.2 328.8,304.5 318.0,310.8 305.2,303.4" fill="#38e1ff" opacity="0.25"/><polygon points="303.4,304.5 316.1,311.9 305.2,318.1 292.5,310.8" fill="#38e1ff" opacity="0.35"/><polygon points="290.6,311.9 303.4,319.2 292.5,325.5 279.8,318.1" fill="#38e1ff" opacity="0.15"/><polygon points="382.3,276.6 395.0,283.9 384.2,290.2 371.4,282.9" fill="#38e1ff" opacity="0.25"/><polygon points="369.6,283.9 382.3,291.3 371.4,297.6 358.7,290.2" fill="#38e1ff" opacity="0.35"/><polygon points="356.8,291.3 369.6,298.6 358.7,304.9 346.0,297.6" fill="#38e1ff" opacity="0.15"/><polygon points="344.1,298.6 356.8,306.0 346.0,312.3 333.2,304.9" fill="#38e1ff" opacity="0.25"/><polygon points="331.4,306.0 344.1,313.3 333.2,319.6 320.5,312.3" fill="#38e1ff" opacity="0.35"/><polygon points="318.6,313.3 331.4,320.7 320.5,327.0 307.8,319.6" fill="#38e1ff" opacity="0.15"/><polygon points="305.9,320.7 318.6,328.0 307.8,334.3 295.1,327.0" fill="#38e1ff" opacity="0.25"/><polygon points="372.1,300.1 384.8,307.5 374.0,313.7 361.2,306.4" fill="#38e1ff" opacity="0.25"/><polygon points="359.4,307.5 372.1,314.8 361.2,321.1 348.5,313.7" fill="#38e1ff" opacity="0.35"/><polygon points="346.7,314.8 359.4,322.2 348.5,328.4 335.8,321.1" fill="#38e1ff" opacity="0.15"/><polygon points="327.2,278.3 361.2,297.9 332.3,314.6 298.4,295.0" fill="#38e1ff" opacity="0.34" stroke="#bffcff" stroke-width="0.6" stroke-opacity="0.7"/><polygon points="477.4,307.7 545.3,346.9 545.3,362.6 477.4,323.4" fill="url(#hbmL)"/><polygon points="603.0,313.6 545.3,346.9 545.3,362.6 603.0,329.3" fill="url(#hbmR)"/><g clip-path="url(#c4)" stroke="#d7e3f4" stroke-width="0.6" stroke-opacity="0.35"><line x1="545" y1="363" x2="545" y2="363"/><line x1="545" y1="356" x2="552" y2="363"/><line x1="545" y1="349" x2="559" y2="363"/><line x1="545" y1="342" x2="566" y2="363"/><line x1="545" y1="335" x2="573" y2="363"/><line x1="545" y1="328" x2="580" y2="363"/><line x1="545" y1="321" x2="587" y2="363"/><line x1="545" y1="314" x2="594" y2="363"/><line x1="552" y1="314" x2="601" y2="363"/><line x1="559" y1="314" x2="603" y2="357"/><line x1="566" y1="314" x2="603" y2="350"/><line x1="573" y1="314" x2="603" y2="343"/><line x1="580" y1="314" x2="603" y2="336"/><line x1="587" y1="314" x2="603" y2="329"/><line x1="594" y1="314" x2="603" y2="322"/><line x1="601" y1="314" x2="603" y2="315"/></g><polygon points="535.1,274.4 603.0,313.6 545.3,346.9 477.4,307.7" fill="url(#hbmT)"/><polygon points="535.1,274.4 603.0,313.6 545.3,346.9 477.4,307.7" stroke="#d7e3f4" stroke-width="2" stroke-opacity="0.92" fill="none" stroke-linejoin="round"/><polygon points="603.0,313.6 545.3,346.9 545.3,362.6 603.0,329.3" stroke="#d7e3f4" stroke-width="1.1" stroke-opacity="0.55" fill="none" stroke-linejoin="round"/><polygon points="477.4,307.7 545.3,346.9 545.3,362.6 477.4,323.4" stroke="#d7e3f4" stroke-width="1.1" stroke-opacity="0.55" fill="none" stroke-linejoin="round"/><polygon points="535.1,281.9 589.5,313.3 545.3,338.8 491.0,307.4" fill="#7a5aa0" opacity="0.4" stroke="#c9a8ff" stroke-width="0.6" stroke-opacity="0.7"/><ellipse cx="540.2" cy="228.3" rx="70" ry="46" fill="url(#hbmGlow)"/><polygon points="477.4,281.2 545.3,320.4 545.3,331.2 477.4,292.0" fill="url(#hbmL)"/><polygon points="603.0,287.1 545.3,320.4 545.3,331.2 603.0,297.9" fill="url(#hbmR)"/><polygon points="535.1,247.9 603.0,287.1 545.3,320.4 477.4,281.2" fill="url(#hbmT)"/><polygon points="535.1,247.9 603.0,287.1 545.3,320.4 477.4,281.2" stroke="#d7e3f4" stroke-width="2" stroke-opacity="0.92" fill="none" stroke-linejoin="round"/><polygon points="603.0,287.1 545.3,320.4 545.3,331.2 603.0,297.9" stroke="#d7e3f4" stroke-width="1.1" stroke-opacity="0.55" fill="none" stroke-linejoin="round"/><polygon points="477.4,281.2 545.3,320.4 545.3,331.2 477.4,292.0" stroke="#d7e3f4" stroke-width="1.1" stroke-opacity="0.55" fill="none" stroke-linejoin="round"/><polygon points="535.1,255.5 589.5,286.8 545.3,312.3 491.0,280.9" fill="#d88cff" opacity="0.2" stroke="#f0c8ff" stroke-width="0.6" stroke-opacity="0.7"/><g stroke="#d88cff" stroke-width="1.2" stroke-opacity="0.5"><line x1="535.1" y1="266.5" x2="535.1" y2="282.2"/><line x1="589.5" y1="297.9" x2="589.5" y2="313.6"/><line x1="545.3" y1="323.4" x2="545.3" y2="339.1"/><line x1="491.0" y1="292.0" x2="491.0" y2="307.7"/></g><g stroke="#f0c8ff" stroke-width="0.5" stroke-opacity="0.7"><line x1="535.1" y1="266.5" x2="535.1" y2="282.2"/><line x1="589.5" y1="297.9" x2="589.5" y2="313.6"/><line x1="545.3" y1="323.4" x2="545.3" y2="339.1"/><line x1="491.0" y1="292.0" x2="491.0" y2="307.7"/></g><polygon points="491.0,271.4 558.9,310.6 558.9,321.4 491.0,282.2" fill="url(#hbmL)"/><polygon points="616.6,277.3 558.9,310.6 558.9,321.4 616.6,288.1" fill="url(#hbmR)"/><polygon points="548.7,238.1 616.6,277.3 558.9,310.6 491.0,271.4" fill="url(#hbmT)"/><polygon points="548.7,238.1 616.6,277.3 558.9,310.6 491.0,271.4" stroke="#d7e3f4" stroke-width="2" stroke-opacity="0.92" fill="none" stroke-linejoin="round"/><polygon points="616.6,277.3 558.9,310.6 558.9,321.4 616.6,288.1" stroke="#d7e3f4" stroke-width="1.1" stroke-opacity="0.55" fill="none" stroke-linejoin="round"/><polygon points="491.0,271.4 558.9,310.6 558.9,321.4 491.0,282.2" stroke="#d7e3f4" stroke-width="1.1" stroke-opacity="0.55" fill="none" stroke-linejoin="round"/><polygon points="548.7,245.7 603.0,277.0 558.9,302.5 504.6,271.1" fill="#d88cff" opacity="0.2" stroke="#f0c8ff" stroke-width="0.6" stroke-opacity="0.7"/><g stroke="#d88cff" stroke-width="1.2" stroke-opacity="0.5"><line x1="548.7" y1="256.7" x2="535.1" y2="255.8"/><line x1="603.0" y1="288.1" x2="589.5" y2="287.1"/><line x1="558.9" y1="313.6" x2="545.3" y2="312.6"/><line x1="504.6" y1="282.2" x2="491.0" y2="281.2"/></g><g stroke="#f0c8ff" stroke-width="0.5" stroke-opacity="0.7"><line x1="548.7" y1="256.7" x2="535.1" y2="255.8"/><line x1="603.0" y1="288.1" x2="589.5" y2="287.1"/><line x1="558.9" y1="313.6" x2="545.3" y2="312.6"/><line x1="504.6" y1="282.2" x2="491.0" y2="281.2"/></g><polygon points="504.6,261.6 572.5,300.8 572.5,311.6 504.6,272.4" fill="url(#hbmL)"/><polygon points="630.2,267.5 572.5,300.8 572.5,311.6 630.2,278.3" fill="url(#hbmR)"/><polygon points="562.3,228.3 630.2,267.5 572.5,300.8 504.6,261.6" fill="url(#hbmT)"/><polygon points="562.3,228.3 630.2,267.5 572.5,300.8 504.6,261.6" stroke="#d7e3f4" stroke-width="2" stroke-opacity="0.92" fill="none" stroke-linejoin="round"/><polygon points="630.2,267.5 572.5,300.8 572.5,311.6 630.2,278.3" stroke="#d7e3f4" stroke-width="1.1" stroke-opacity="0.55" fill="none" stroke-linejoin="round"/><polygon points="504.6,261.6 572.5,300.8 572.5,311.6 504.6,272.4" stroke="#d7e3f4" stroke-width="1.1" stroke-opacity="0.55" fill="none" stroke-linejoin="round"/><polygon points="562.3,235.9 616.6,267.2 572.5,292.7 518.2,261.3" fill="#d88cff" opacity="0.2" stroke="#f0c8ff" stroke-width="0.6" stroke-opacity="0.7"/><g stroke="#d88cff" stroke-width="1.2" stroke-opacity="0.5"><line x1="562.3" y1="246.9" x2="548.7" y2="246.0"/><line x1="616.6" y1="278.3" x2="603.0" y2="277.3"/><line x1="572.5" y1="303.8" x2="558.9" y2="302.8"/><line x1="518.2" y1="272.4" x2="504.6" y2="271.4"/></g><g stroke="#f0c8ff" stroke-width="0.5" stroke-opacity="0.7"><line x1="562.3" y1="246.9" x2="548.7" y2="246.0"/><line x1="616.6" y1="278.3" x2="603.0" y2="277.3"/><line x1="572.5" y1="303.8" x2="558.9" y2="302.8"/><line x1="518.2" y1="272.4" x2="504.6" y2="271.4"/></g><polygon points="518.2,251.8 586.1,291.0 586.1,301.8 518.2,262.6" fill="url(#hbmL)"/><polygon points="643.8,257.7 586.1,291.0 586.1,301.8 643.8,268.5" fill="url(#hbmR)"/><polygon points="575.9,218.5 643.8,257.7 586.1,291.0 518.2,251.8" fill="url(#hbmT)"/><polygon points="575.9,218.5 643.8,257.7 586.1,291.0 518.2,251.8" stroke="#d7e3f4" stroke-width="2" stroke-opacity="0.92" fill="none" stroke-linejoin="round"/><polygon points="643.8,257.7 586.1,291.0 586.1,301.8 643.8,268.5" stroke="#d7e3f4" stroke-width="1.1" stroke-opacity="0.55" fill="none" stroke-linejoin="round"/><polygon points="518.2,251.8 586.1,291.0 586.1,301.8 518.2,262.6" stroke="#d7e3f4" stroke-width="1.1" stroke-opacity="0.55" fill="none" stroke-linejoin="round"/><polygon points="575.9,226.1 630.2,257.4 586.1,282.9 531.7,251.5" fill="#d88cff" opacity="0.2" stroke="#f0c8ff" stroke-width="0.6" stroke-opacity="0.7"/><g stroke="#d88cff" stroke-width="1.2" stroke-opacity="0.5"><line x1="575.9" y1="237.1" x2="562.3" y2="236.2"/><line x1="630.2" y1="268.5" x2="616.6" y2="267.5"/><line x1="586.1" y1="294.0" x2="572.5" y2="293.0"/><line x1="531.7" y1="262.6" x2="518.2" y2="261.6"/></g><g stroke="#f0c8ff" stroke-width="0.5" stroke-opacity="0.7"><line x1="575.9" y1="237.1" x2="562.3" y2="236.2"/><line x1="630.2" y1="268.5" x2="616.6" y2="267.5"/><line x1="586.1" y1="294.0" x2="572.5" y2="293.0"/><line x1="531.7" y1="262.6" x2="518.2" y2="261.6"/></g><polygon points="233.0,111.7 467.2,246.9 467.2,262.6 233.0,127.4" fill="url(#lidL)"/><polygon points="637.0,148.9 467.2,246.9 467.2,262.6 637.0,164.6" fill="url(#lidR)"/><polygon points="402.8,13.7 637.0,148.9 467.2,246.9 233.0,111.7" fill="url(#lidT)"/><polygon points="402.8,43.1 613.2,164.6 467.2,248.9 256.8,127.4" fill="#3a434e" opacity="0.9"/><polygon points="402.8,43.1 613.2,164.6 467.2,248.9 256.8,127.4" stroke="#d7e3f4" stroke-width="1.1" stroke-opacity="0.55" fill="none" stroke-linejoin="round"/><g clip-path="url(#c5)" stroke="#d7e3f4" stroke-width="0.6" stroke-opacity="0.35"><line x1="257" y1="249" x2="257" y2="249"/><line x1="257" y1="242" x2="264" y2="249"/><line x1="257" y1="235" x2="271" y2="249"/><line x1="257" y1="228" x2="278" y2="249"/><line x1="257" y1="221" x2="285" y2="249"/><line x1="257" y1="214" x2="292" y2="249"/><line x1="257" y1="207" x2="299" y2="249"/><line x1="257" y1="200" x2="306" y2="249"/><line x1="257" y1="193" x2="313" y2="249"/><line x1="257" y1="186" x2="320" y2="249"/><line x1="257" y1="179" x2="327" y2="249"/><line x1="257" y1="172" x2="334" y2="249"/><line x1="257" y1="165" x2="341" y2="249"/><line x1="257" y1="158" x2="348" y2="249"/><line x1="257" y1="151" x2="355" y2="249"/><line x1="257" y1="144" x2="362" y2="249"/><line x1="257" y1="137" x2="369" y2="249"/><line x1="257" y1="130" x2="376" y2="249"/><line x1="257" y1="123" x2="383" y2="249"/><line x1="257" y1="116" x2="390" y2="249"/><line x1="257" y1="109" x2="397" y2="249"/><line x1="257" y1="102" x2="404" y2="249"/><line x1="257" y1="95" x2="411" y2="249"/><line x1="257" y1="88" x2="418" y2="249"/><line x1="257" y1="81" x2="425" y2="249"/><line x1="257" y1="74" x2="432" y2="249"/><line x1="257" y1="67" x2="439" y2="249"/><line x1="257" y1="60" x2="446" y2="249"/><line x1="257" y1="53" x2="453" y2="249"/><line x1="257" y1="46" x2="460" y2="249"/><line x1="261" y1="43" x2="467" y2="249"/><line x1="268" y1="43" x2="474" y2="249"/><line x1="275" y1="43" x2="481" y2="249"/><line x1="282" y1="43" x2="488" y2="249"/><line x1="289" y1="43" x2="495" y2="249"/><line x1="296" y1="43" x2="502" y2="249"/><line x1="303" y1="43" x2="509" y2="249"/><line x1="310" y1="43" x2="516" y2="249"/><line x1="317" y1="43" x2="523" y2="249"/><line x1="324" y1="43" x2="530" y2="249"/><line x1="331" y1="43" x2="537" y2="249"/><line x1="338" y1="43" x2="544" y2="249"/><line x1="345" y1="43" x2="551" y2="249"/><line x1="352" y1="43" x2="558" y2="249"/><line x1="359" y1="43" x2="565" y2="249"/><line x1="366" y1="43" x2="572" y2="249"/><line x1="373" y1="43" x2="579" y2="249"/><line x1="380" y1="43" x2="586" y2="249"/><line x1="387" y1="43" x2="593" y2="249"/><line x1="394" y1="43" x2="600" y2="249"/><line x1="401" y1="43" x2="607" y2="249"/><line x1="408" y1="43" x2="613" y2="248"/><line x1="415" y1="43" x2="613" y2="241"/><line x1="422" y1="43" x2="613" y2="234"/><line x1="429" y1="43" x2="613" y2="227"/><line x1="436" y1="43" x2="613" y2="220"/><line x1="443" y1="43" x2="613" y2="213"/><line x1="450" y1="43" x2="613" y2="206"/><line x1="457" y1="43" x2="613" y2="199"/><line x1="464" y1="43" x2="613" y2="192"/><line x1="471" y1="43" x2="613" y2="185"/><line x1="478" y1="43" x2="613" y2="178"/><line x1="485" y1="43" x2="613" y2="171"/><line x1="492" y1="43" x2="613" y2="164"/><line x1="499" y1="43" x2="613" y2="157"/><line x1="506" y1="43" x2="613" y2="150"/><line x1="513" y1="43" x2="613" y2="143"/><line x1="520" y1="43" x2="613" y2="136"/><line x1="527" y1="43" x2="613" y2="129"/><line x1="534" y1="43" x2="613" y2="122"/><line x1="541" y1="43" x2="613" y2="115"/><line x1="548" y1="43" x2="613" y2="108"/><line x1="555" y1="43" x2="613" y2="101"/><line x1="562" y1="43" x2="613" y2="94"/><line x1="569" y1="43" x2="613" y2="87"/><line x1="576" y1="43" x2="613" y2="80"/><line x1="583" y1="43" x2="613" y2="73"/><line x1="590" y1="43" x2="613" y2="66"/><line x1="597" y1="43" x2="613" y2="59"/><line x1="604" y1="43" x2="613" y2="52"/><line x1="611" y1="43" x2="613" y2="45"/></g><polygon points="402.8,13.7 637.0,148.9 467.2,246.9 233.0,111.7" stroke="#d7e3f4" stroke-width="2" stroke-opacity="0.92" fill="none" stroke-linejoin="round"/><polygon points="637.0,148.9 467.2,246.9 467.2,262.6 637.0,164.6" stroke="#d7e3f4" stroke-width="1.1" stroke-opacity="0.55" fill="none" stroke-linejoin="round"/><polygon points="233.0,111.7 467.2,246.9 467.2,262.6 233.0,127.4" stroke="#d7e3f4" stroke-width="1.1" stroke-opacity="0.55" fill="none" stroke-linejoin="round"/><g stroke="#c3ccd6" stroke-width="0.5" stroke-opacity="0.25"><line x1="404.4" y1="18.6" x2="628.5" y2="148.0"/><line x1="377.3" y1="34.3" x2="601.3" y2="163.6"/><line x1="350.1" y1="50.0" x2="574.2" y2="179.3"/><line x1="323.0" y1="65.6" x2="547.0" y2="195.0"/><line x1="295.8" y1="81.3" x2="519.9" y2="210.7"/><line x1="268.7" y1="97.0" x2="492.7" y2="226.4"/><line x1="241.5" y1="112.7" x2="465.6" y2="242.0"/></g><ellipse cx="402.8" cy="29.4" rx="5" ry="2.9" fill="#5a636e"/><ellipse cx="402.8" cy="29.4" rx="5" ry="2.9" fill="none" stroke="#c3ccd6" stroke-width="0.7" stroke-opacity="0.6"/><ellipse cx="609.8" cy="148.9" rx="5" ry="2.9" fill="#5a636e"/><ellipse cx="609.8" cy="148.9" rx="5" ry="2.9" fill="none" stroke="#c3ccd6" stroke-width="0.7" stroke-opacity="0.6"/><ellipse cx="467.2" cy="231.3" rx="5" ry="2.9" fill="#5a636e"/><ellipse cx="467.2" cy="231.3" rx="5" ry="2.9" fill="none" stroke="#c3ccd6" stroke-width="0.7" stroke-opacity="0.6"/><ellipse cx="260.2" cy="111.7" rx="5" ry="2.9" fill="#5a636e"/><ellipse cx="260.2" cy="111.7" rx="5" ry="2.9" fill="none" stroke="#c3ccd6" stroke-width="0.7" stroke-opacity="0.6"/><line x1="406.1" y1="393.9" x2="406.1" y2="39.2" stroke="#d7e3f4" stroke-width="0.6" stroke-opacity="0.3" stroke-dasharray="3 6"/><line x1="633.6" y1="525.3" x2="633.6" y2="170.5" stroke="#d7e3f4" stroke-width="0.6" stroke-opacity="0.3" stroke-dasharray="3 6"/><line x1="463.9" y1="623.3" x2="463.9" y2="268.5" stroke="#d7e3f4" stroke-width="0.6" stroke-opacity="0.3" stroke-dasharray="3 6"/><line x1="236.4" y1="491.9" x2="236.4" y2="137.2" stroke="#d7e3f4" stroke-width="0.6" stroke-opacity="0.3" stroke-dasharray="3 6"/><ellipse cx="905.0" cy="702.4" rx="57.0" ry="34.8" fill="#000000" opacity="0.2"/><polygon points="794.84,678.4 919.55,750.4 919.55,763.6 794.84,691.6" fill="url(#subL)"/><polygon points="1015.16,695.2 919.55,750.4 919.55,763.6 1015.16,708.4" fill="url(#subR)"/><polygon points="890.45,623.2 1015.16,695.2 919.55,750.4 794.84,678.4" fill="url(#subT)"/><polygon points="890.45,623.2 1015.16,695.2 919.55,750.4 794.84,678.4" stroke="#d7e3f4" stroke-width="1.1" stroke-opacity="0.85" fill="none" stroke-linejoin="round"/><polygon points="1015.16,695.2 919.55,750.4 919.55,763.6 1015.16,708.4" stroke="#d7e3f4" stroke-width="0.7" stroke-opacity="0.5" fill="none"/><polygon points="794.84,678.4 919.55,750.4 919.55,763.6 794.84,691.6" stroke="#d7e3f4" stroke-width="0.7" stroke-opacity="0.5" fill="none"/><polygon points="817.71,672.4 917.47,730.0 917.47,737.2 817.71,679.6" fill="url(#intpL)"/><polygon points="992.29,686.8 917.47,730.0 917.47,737.2 992.29,694.0" fill="url(#intpR)"/><polygon points="892.53,629.2 992.29,686.8 917.47,730.0 817.71,672.4" fill="url(#intpT)"/><polygon points="892.53,629.2 992.29,686.8 917.47,730.0 817.71,672.4" stroke="#d7e3f4" stroke-width="1.1" stroke-opacity="0.85" fill="none" stroke-linejoin="round"/><polygon points="992.29,686.8 917.47,730.0 917.47,737.2 992.29,694.0" stroke="#d7e3f4" stroke-width="0.7" stroke-opacity="0.5" fill="none"/><polygon points="817.71,672.4 917.47,730.0 917.47,737.2 817.71,679.6" stroke="#d7e3f4" stroke-width="0.7" stroke-opacity="0.5" fill="none"/><polygon points="829.14,655.0 872.78,680.2 872.78,695.8 829.14,670.6" fill="url(#gpuL)"/><polygon points="933.06,645.4 872.78,680.2 872.78,695.8 933.06,661.0" fill="url(#gpuR)"/><polygon points="889.41,620.2 933.06,645.4 872.78,680.2 829.14,655.0" fill="url(#gpuT)"/><polygon points="889.41,620.2 933.06,645.4 872.78,680.2 829.14,655.0" stroke="#d7e3f4" stroke-width="1.1" stroke-opacity="0.85" fill="none" stroke-linejoin="round"/><polygon points="933.06,645.4 872.78,680.2 872.78,695.8 933.06,661.0" stroke="#d7e3f4" stroke-width="0.7" stroke-opacity="0.5" fill="none"/><polygon points="829.14,655.0 872.78,680.2 872.78,695.8 829.14,670.6" stroke="#d7e3f4" stroke-width="0.7" stroke-opacity="0.5" fill="none"/><polygon points="885.26,683.8 919.55,703.6 919.55,722.8 885.26,703.0" fill="url(#hbmL)"/><polygon points="979.82,668.8 919.55,703.6 919.55,722.8 979.82,688.0" fill="url(#hbmR)"/><polygon points="945.53,649.0 979.82,668.8 919.55,703.6 885.26,683.8" fill="url(#hbmT)"/><polygon points="945.53,649.0 979.82,668.8 919.55,703.6 885.26,683.8" stroke="#d7e3f4" stroke-width="1.1" stroke-opacity="0.85" fill="none" stroke-linejoin="round"/><polygon points="979.82,668.8 919.55,703.6 919.55,722.8 979.82,688.0" stroke="#d7e3f4" stroke-width="0.7" stroke-opacity="0.5" fill="none"/><polygon points="885.26,683.8 919.55,703.6 919.55,722.8 885.26,703.0" stroke="#d7e3f4" stroke-width="0.7" stroke-opacity="0.5" fill="none"/><polygon points="807.32,640.0 919.55,704.8 919.55,713.2 807.32,648.4" fill="url(#lidL)"/><polygon points="1002.68,656.8 919.55,704.8 919.55,713.2 1002.68,665.2" fill="url(#lidR)"/><polygon points="890.45,592.0 1002.68,656.8 919.55,704.8 807.32,640.0" fill="url(#lidT)"/><polygon points="890.45,592.0 1002.68,656.8 919.55,704.8 807.32,640.0" stroke="#d7e3f4" stroke-width="1.1" stroke-opacity="0.85" fill="none" stroke-linejoin="round"/><polygon points="1002.68,656.8 919.55,704.8 919.55,713.2 1002.68,665.2" stroke="#d7e3f4" stroke-width="0.7" stroke-opacity="0.5" fill="none"/><polygon points="807.32,640.0 919.55,704.8 919.55,713.2 807.32,648.4" stroke="#d7e3f4" stroke-width="0.7" stroke-opacity="0.5" fill="none"/><ellipse cx="881.1" cy="650.2" rx="18.0" ry="10.8" fill="url(#gpuGlow)"/><g stroke="#d7e3f4" stroke-width="0.6" stroke-opacity="0.3"><line x1="40" y1="862" x2="48" y2="862"/><line x1="54" y1="862" x2="62" y2="862"/><line x1="68" y1="862" x2="76" y2="862"/><line x1="82" y1="862" x2="90" y2="862"/></g></svg><circle cx="691.3" cy="207.5" r="2.6" fill="#d88cff" opacity="0.9"/><path d="M 691.3 207.5 L 268 201.5" stroke="#d7e3f4" stroke-width="0.9" opacity="0.5" fill="none"/><text x="256" y="205.5" text-anchor="end" font-family="'IBM Plex Mono','JetBrains Mono',ui-monospace,Consolas,monospace" font-size="19" font-weight="600" fill="#e8eef7" fill-opacity="0.95">IHS LID</text><circle cx="592.0" cy="365.3" r="2.6" fill="#d88cff" opacity="0.9"/><path d="M 592.0 365.3 L 268 359.3" stroke="#d7e3f4" stroke-width="0.9" opacity="0.5" fill="none"/><text x="256" y="363.3" text-anchor="end" font-family="'IBM Plex Mono','JetBrains Mono',ui-monospace,Consolas,monospace" font-size="19" font-weight="600" fill="#e8eef7" fill-opacity="0.95">LOGIC DIE</text><circle cx="691.3" cy="419.2" r="2.6" fill="#d88cff" opacity="0.9"/><path d="M 691.3 419.2 L 268 491.3" stroke="#d7e3f4" stroke-width="0.9" opacity="0.5" fill="none"/><text x="256" y="495.3" text-anchor="end" font-family="'IBM Plex Mono','JetBrains Mono',ui-monospace,Consolas,monospace" font-size="19" font-weight="600" fill="#e8eef7" fill-opacity="0.95">µBUMP GRID</text><circle cx="691.3" cy="442.9" r="2.6" fill="#d88cff" opacity="0.9"/><path d="M 691.3 442.9 L 268 557.3" stroke="#d7e3f4" stroke-width="0.9" opacity="0.5" fill="none"/><text x="256" y="561.3" text-anchor="end" font-family="'IBM Plex Mono','JetBrains Mono',ui-monospace,Consolas,monospace" font-size="19" font-weight="600" fill="#e8eef7" fill-opacity="0.95">RDL + TSV</text><circle cx="691.3" cy="479.7" r="2.6" fill="#d88cff" opacity="0.9"/><path d="M 691.3 479.7 L 268 623.3" stroke="#d7e3f4" stroke-width="0.9" opacity="0.5" fill="none"/><text x="256" y="627.3" text-anchor="end" font-family="'IBM Plex Mono','JetBrains Mono',ui-monospace,Consolas,monospace" font-size="19" font-weight="600" fill="#e8eef7" fill-opacity="0.95">CU SPHERES</text><circle cx="691.3" cy="518.5" r="2.6" fill="#d88cff" opacity="0.9"/><path d="M 691.3 518.5 L 268 689.3" stroke="#d7e3f4" stroke-width="0.9" opacity="0.5" fill="none"/><text x="256" y="693.3" text-anchor="end" font-family="'IBM Plex Mono','JetBrains Mono',ui-monospace,Consolas,monospace" font-size="19" font-weight="600" fill="#e8eef7" fill-opacity="0.95">SUBSTRATE</text><circle cx="592.9" cy="615.9" r="2.6" fill="#d88cff" opacity="0.9"/><path d="M 592.9 615.9 L 268 755.3" stroke="#d7e3f4" stroke-width="0.9" opacity="0.5" fill="none"/><text x="256" y="759.3" text-anchor="end" font-family="'IBM Plex Mono','JetBrains Mono',ui-monospace,Consolas,monospace" font-size="19" font-weight="600" fill="#e8eef7" fill-opacity="0.95">BOARD SIDE</text><circle cx="829.3" cy="325.6" r="2.6" fill="#d88cff" opacity="0.9"/><path d="M 829.3 325.6 L 1332 319.6" stroke="#d7e3f4" stroke-width="0.9" opacity="0.5" fill="none"/><text x="1344" y="323.6" text-anchor="start" font-family="'IBM Plex Mono','JetBrains Mono',ui-monospace,Consolas,monospace" font-size="19" font-weight="600" fill="#e8eef7" fill-opacity="0.95">DRAM LADDER</text><circle cx="790.5" cy="377.6" r="2.6" fill="#d88cff" opacity="0.9"/><path d="M 790.5 377.6 L 268 425.3" stroke="#d7e3f4" stroke-width="0.9" opacity="0.5" fill="none"/><text x="256" y="429.3" text-anchor="end" font-family="'IBM Plex Mono','JetBrains Mono',ui-monospace,Consolas,monospace" font-size="19" font-weight="600" fill="#e8eef7" fill-opacity="0.95">LOGIC BASE</text><circle cx="1135.6" cy="708.5" r="2.6" fill="#d88cff" opacity="0.9"/><path d="M 1135.6 708.5 L 1332 702.5" stroke="#d7e3f4" stroke-width="0.9" opacity="0.5" fill="none"/><text x="1344" y="706.5" text-anchor="start" font-family="'IBM Plex Mono','JetBrains Mono',ui-monospace,Consolas,monospace" font-size="19" font-weight="600" fill="#e8eef7" fill-opacity="0.95">ASSEMBLED</text><text x="30" y="1042" font-family="'IBM Plex Mono','JetBrains Mono',ui-monospace,Consolas,monospace" font-size="17" font-weight="500" letter-spacing="0.5" fill="#e8eef7" fill-opacity="0.85">FIG. 10-ISO — Exploded: six strata settle along guide lines into one package</text></svg>