<svg xmlns="http://www.w3.org/2000/svg" viewBox="0 0 1600 1060" role="img"><svg x="280.0" y="103.5" width="1040.0" height="813.1" viewBox="0 0 1100 860"><defs><linearGradient id="gTop" x1="0" y1="0" x2="0.7" y2="1"><stop offset="0" stop-color="#eaf0f8"/><stop offset="1" stop-color="#c2d0e4"/></linearGradient><linearGradient id="gRight" x1="0" y1="0" x2="1" y2="1"><stop offset="0" stop-color="#9fb2cd"/><stop offset="1" stop-color="#7a90ae"/></linearGradient><linearGradient id="gLeft" x1="0" y1="0" x2="1" y2="1"><stop offset="0" stop-color="#5d7196"/><stop offset="1" stop-color="#45587a"/></linearGradient><linearGradient id="aTop" x1="0" y1="0" x2="0.7" y2="1"><stop offset="0" stop-color="#c2ccfb"/><stop offset="1" stop-color="#94a8f6"/></linearGradient><linearGradient id="aRight" x1="0" y1="0" x2="1" y2="1"><stop offset="0" stop-color="#7f9cf5"/><stop offset="1" stop-color="#6079e0"/></linearGradient><linearGradient id="aLeft" x1="0" y1="0" x2="1" y2="1"><stop offset="0" stop-color="#5163c4"/><stop offset="1" stop-color="#3d4aa0"/></linearGradient><linearGradient id="dTop" x1="0" y1="0" x2="0.6" y2="1"><stop offset="0" stop-color="#f2f6fc"/><stop offset="1" stop-color="#cdd8ea"/></linearGradient><linearGradient id="dRight" x1="0" y1="0" x2="1" y2="1"><stop offset="0" stop-color="#aebdd4"/><stop offset="1" stop-color="#8598b6"/></linearGradient><linearGradient id="dLeft" x1="0" y1="0" x2="1" y2="1"><stop offset="0" stop-color="#6b7fa3"/><stop offset="1" stop-color="#4f6488"/></linearGradient><radialGradient id="gGlow" cx="0.5" cy="0.5" r="0.5"><stop offset="0" stop-color="#fff7cf"/><stop offset="0.5" stop-color="#ffe27a"/><stop offset="1" stop-color="#ffe27a" stop-opacity="0"/></radialGradient><linearGradient id="beamCore" x1="0" y1="0" x2="1" y2="1"><stop offset="0" stop-color="#fff7d0"/><stop offset="1" stop-color="#ffd54a"/></linearGradient></defs><g transform="translate(-346.712 -124.730) scale(1.3938)"><ellipse cx="657.65" cy="279.5" rx="70" ry="30" fill="#000" opacity="0.22"/><ellipse cx="657.65" cy="279.5" rx="94.5" ry="40.5" fill="#000" opacity="0.16"/><ellipse cx="739.92" cy="327" rx="40" ry="18" fill="#000" opacity="0.22"/><ellipse cx="739.92" cy="327" rx="54" ry="24.3" fill="#000" opacity="0.16"/><ellipse cx="807.47" cy="386" rx="72" ry="34" fill="#000" opacity="0.22"/><ellipse cx="807.47" cy="386" rx="97.2" ry="45.9" fill="#000" opacity="0.16"/><ellipse cx="778.89" cy="424.5" rx="34" ry="16" fill="#000" opacity="0.22"/><ellipse cx="778.89" cy="424.5" rx="45.9" ry="21.6" fill="#000" opacity="0.16"/><ellipse cx="674.97" cy="484.5" rx="44" ry="26" fill="#000" opacity="0.22"/><ellipse cx="674.97" cy="484.5" rx="59.4" ry="35.1" fill="#000" opacity="0.16"/><ellipse cx="566.72" cy="547" rx="34" ry="16" fill="#000" opacity="0.22"/><ellipse cx="566.72" cy="547" rx="45.9" ry="21.6" fill="#000" opacity="0.16"/><ellipse cx="484.45" cy="604.5" rx="70" ry="34" fill="#000" opacity="0.22"/><ellipse cx="484.45" cy="604.5" rx="94.5" ry="45.9" fill="#000" opacity="0.16"/><ellipse cx="757.24" cy="337" rx="26" ry="14" fill="#000" opacity="0.22"/><ellipse cx="757.24" cy="337" rx="35.1" ry="18.9" fill="#000" opacity="0.16"/><ellipse cx="636" cy="507" rx="26" ry="14" fill="#000" opacity="0.22"/><ellipse cx="636" cy="507" rx="35.1" ry="18.9" fill="#000" opacity="0.16"/><polygon points="610.89,267.5 870.69,417.5 870.69,407.5 610.89,257.5" fill="url(#dLeft)"/><polygon points="893.2,404.5 870.69,417.5 870.69,407.5 893.2,394.5" fill="url(#dRight)"/><polygon points="633.4,244.5 893.2,394.5 870.69,407.5 610.89,257.5" fill="url(#dTop)"/><polyline points="633.4,244.5 893.2,394.5 870.69,407.5 610.89,257.5" fill="none" stroke="#d7e3f4" stroke-width="0.6" opacity="0.30"/><line x1="893.2" y1="404.5" x2="893.2" y2="394.5" stroke="#d7e3f4" stroke-width="0.6" opacity="0.28"/><polygon points="610.89,257.5 633.4,244.5 893.2,394.5 893.2,404.5 870.69,417.5 610.89,267.5" fill="none" stroke="#d7e3f4" stroke-width="2" opacity="0.92" stroke-linejoin="round"/><polygon points="412.57,623 435.09,636 435.09,626 412.57,613" fill="url(#dLeft)"/><polygon points="842.11,401 435.09,636 435.09,626 842.11,391" fill="url(#dRight)"/><polygon points="819.59,378 842.11,391 435.09,626 412.57,613" fill="url(#dTop)"/><polyline points="819.59,378 842.11,391 435.09,626 412.57,613" fill="none" stroke="#d7e3f4" stroke-width="0.6" opacity="0.30"/><line x1="842.11" y1="401" x2="842.11" y2="391" stroke="#d7e3f4" stroke-width="0.6" opacity="0.28"/><polygon points="412.57,613 819.59,378 842.11,391 842.11,401 435.09,636 412.57,623" fill="none" stroke="#d7e3f4" stroke-width="2" opacity="0.92" stroke-linejoin="round"/><path d="M 735.55 334.5 L 735.55 384.5 A 20.82 12.02 0 0 0 777.19 384.5 L 777.19 334.5 A 20.82 12.02 0 0 0 735.55 334.5 Z" fill="url(#gRight)"/><path d="M 735.55 349.5 A 20.82 12.02 0 0 0 777.19 349.5" fill="none" stroke="#d7e3f4" stroke-width="0.7" opacity="0.30"/><path d="M 735.55 362 A 20.82 12.02 0 0 0 777.19 362" fill="none" stroke="#d7e3f4" stroke-width="0.7" opacity="0.30"/><path d="M 735.55 374.5 A 20.82 12.02 0 0 0 777.19 374.5" fill="none" stroke="#d7e3f4" stroke-width="0.7" opacity="0.30"/><ellipse cx="756.37" cy="334.5" rx="20.82" ry="12.02" fill="url(#gTop)" stroke="#d7e3f4" stroke-width="1.6" opacity="0.96"/><ellipse cx="756.37" cy="334.5" rx="12.49" ry="7.21" fill="none" stroke="#d7e3f4" stroke-width="0.7" opacity="0.4"/><path d="M 615.18 504 L 615.18 554 A 20.82 12.02 0 0 0 656.82 554 L 656.82 504 A 20.82 12.02 0 0 0 615.18 504 Z" fill="url(#gRight)"/><path d="M 615.18 519 A 20.82 12.02 0 0 0 656.82 519" fill="none" stroke="#d7e3f4" stroke-width="0.7" opacity="0.30"/><path d="M 615.18 531.5 A 20.82 12.02 0 0 0 656.82 531.5" fill="none" stroke="#d7e3f4" stroke-width="0.7" opacity="0.30"/><path d="M 615.18 544 A 20.82 12.02 0 0 0 656.82 544" fill="none" stroke="#d7e3f4" stroke-width="0.7" opacity="0.30"/><ellipse cx="636" cy="504" rx="20.82" ry="12.02" fill="url(#gTop)" stroke="#d7e3f4" stroke-width="1.6" opacity="0.96"/><ellipse cx="636" cy="504" rx="12.49" ry="7.21" fill="none" stroke="#d7e3f4" stroke-width="0.7" opacity="0.4"/><polygon points="744.25,334.5 756.37,341.5 756.37,331.5 744.25,324.5" fill="url(#dLeft)"/><polygon points="768.5,334.5 756.37,341.5 756.37,331.5 768.5,324.5" fill="url(#dRight)"/><polygon points="756.37,317.5 768.5,324.5 756.37,331.5 744.25,324.5" fill="url(#dTop)"/><polyline points="756.37,317.5 768.5,324.5 756.37,331.5 744.25,324.5" fill="none" stroke="#d7e3f4" stroke-width="0.6" opacity="0.30"/><line x1="768.5" y1="334.5" x2="768.5" y2="324.5" stroke="#d7e3f4" stroke-width="0.6" opacity="0.28"/><polygon points="744.25,324.5 756.37,317.5 768.5,324.5 768.5,334.5 756.37,341.5 744.25,334.5" fill="none" stroke="#d7e3f4" stroke-width="2" opacity="0.92" stroke-linejoin="round"/><polygon points="623.88,504 636,511 636,501 623.88,494" fill="url(#dLeft)"/><polygon points="648.12,504 636,511 636,501 648.12,494" fill="url(#dRight)"/><polygon points="636,487 648.12,494 636,501 623.88,494" fill="url(#dTop)"/><polyline points="636,487 648.12,494 636,501 623.88,494" fill="none" stroke="#d7e3f4" stroke-width="0.6" opacity="0.30"/><line x1="648.12" y1="504" x2="648.12" y2="494" stroke="#d7e3f4" stroke-width="0.6" opacity="0.28"/><polygon points="623.88,494 636,487 648.12,494 648.12,504 636,511 623.88,504" fill="none" stroke="#d7e3f4" stroke-width="2" opacity="0.92" stroke-linejoin="round"/><polygon points="592.7,261 670.64,306 670.64,240 592.7,195" fill="url(#gLeft)"/><polygon points="722.6,276 670.64,306 670.64,240 722.6,210" fill="url(#gRight)"/><polygon points="644.66,165 722.6,210 670.64,240 592.7,195" fill="url(#gTop)"/><polyline points="644.66,165 722.6,210 670.64,240 592.7,195" fill="none" stroke="#d7e3f4" stroke-width="0.6" opacity="0.30"/><line x1="722.6" y1="276" x2="722.6" y2="210" stroke="#d7e3f4" stroke-width="0.6" opacity="0.28"/><polygon points="592.7,195 644.66,165 722.6,210 722.6,276 670.64,306 592.7,261" fill="none" stroke="#d7e3f4" stroke-width="2" opacity="0.92" stroke-linejoin="round"/><path d="M 641.07 150 L 641.07 180 A 12.25 7.07 0 0 0 665.57 180 L 665.57 150 A 12.25 7.07 0 0 0 641.07 150 Z" fill="url(#gRight)"/><path d="M 641.07 159 A 12.25 7.07 0 0 0 665.57 159" fill="none" stroke="#d7e3f4" stroke-width="0.7" opacity="0.30"/><path d="M 641.07 166.5 A 12.25 7.07 0 0 0 665.57 166.5" fill="none" stroke="#d7e3f4" stroke-width="0.7" opacity="0.30"/><path d="M 641.07 174 A 12.25 7.07 0 0 0 665.57 174" fill="none" stroke="#d7e3f4" stroke-width="0.7" opacity="0.30"/><ellipse cx="653.32" cy="150" rx="12.25" ry="7.07" fill="url(#gTop)" stroke="#d7e3f4" stroke-width="1.6" opacity="0.96"/><ellipse cx="653.32" cy="150" rx="7.35" ry="4.24" fill="none" stroke="#d7e3f4" stroke-width="0.7" opacity="0.4"/><polygon points="668.91,207 691.42,220 691.42,202 668.91,189" fill="url(#aLeft)"/><polygon points="707.01,211 691.42,220 691.42,202 707.01,193" fill="url(#aRight)"/><polygon points="684.5,180 707.01,193 691.42,202 668.91,189" fill="url(#aTop)"/><polyline points="684.5,180 707.01,193 691.42,202 668.91,189" fill="none" stroke="#d7e3f4" stroke-width="0.6" opacity="0.30"/><line x1="707.01" y1="211" x2="707.01" y2="193" stroke="#d7e3f4" stroke-width="0.6" opacity="0.28"/><polygon points="668.91,189 684.5,180 707.01,193 707.01,211 691.42,220 668.91,207" fill="none" stroke="#d7e3f4" stroke-width="2" opacity="0.92" stroke-linejoin="round"/><polygon points="698.35,310 715.67,320 715.67,268 698.35,258" fill="url(#gLeft)"/><polygon points="746.85,302 715.67,320 715.67,268 746.85,250" fill="url(#gRight)"/><polygon points="729.53,240 746.85,250 715.67,268 698.35,258" fill="url(#gTop)"/><polyline points="729.53,240 746.85,250 715.67,268 698.35,258" fill="none" stroke="#d7e3f4" stroke-width="0.6" opacity="0.30"/><line x1="746.85" y1="302" x2="746.85" y2="250" stroke="#d7e3f4" stroke-width="0.6" opacity="0.28"/><polygon points="698.35,258 729.53,240 746.85,250 746.85,302 715.67,320 698.35,310" fill="none" stroke="#d7e3f4" stroke-width="2" opacity="0.92" stroke-linejoin="round"/><polygon points="720.87,323 738.19,333 738.19,281 720.87,271" fill="url(#gLeft)"/><polygon points="769.36,315 738.19,333 738.19,281 769.36,263" fill="url(#gRight)"/><polygon points="752.04,253 769.36,263 738.19,281 720.87,271" fill="url(#gTop)"/><polyline points="752.04,253 769.36,263 738.19,281 720.87,271" fill="none" stroke="#d7e3f4" stroke-width="0.6" opacity="0.30"/><line x1="769.36" y1="315" x2="769.36" y2="263" stroke="#d7e3f4" stroke-width="0.6" opacity="0.28"/><polygon points="720.87,271 752.04,253 769.36,263 769.36,315 738.19,333 720.87,323" fill="none" stroke="#d7e3f4" stroke-width="2" opacity="0.92" stroke-linejoin="round"/><polygon points="743.38,336 752.04,341 752.04,289 743.38,284" fill="url(#aLeft)"/><polygon points="783.22,323 752.04,341 752.04,289 783.22,271" fill="url(#aRight)"/><polygon points="774.56,266 783.22,271 752.04,289 743.38,284" fill="url(#aTop)"/><polyline points="774.56,266 783.22,271 752.04,289 743.38,284" fill="none" stroke="#d7e3f4" stroke-width="0.6" opacity="0.30"/><line x1="783.22" y1="323" x2="783.22" y2="271" stroke="#d7e3f4" stroke-width="0.6" opacity="0.28"/><polygon points="743.38,284 774.56,266 783.22,271 783.22,323 752.04,341 743.38,336" fill="none" stroke="#d7e3f4" stroke-width="2" opacity="0.92" stroke-linejoin="round"/><polygon points="724.33,373 807.47,421 807.47,363 724.33,315" fill="url(#aLeft)"/><polygon points="887.14,375 807.47,421 807.47,363 887.14,317" fill="url(#aRight)"/><polygon points="804,269 887.14,317 807.47,363 724.33,315" fill="url(#aTop)"/><polyline points="804,269 887.14,317 807.47,363 724.33,315" fill="none" stroke="#d7e3f4" stroke-width="0.6" opacity="0.30"/><line x1="887.14" y1="375" x2="887.14" y2="317" stroke="#d7e3f4" stroke-width="0.6" opacity="0.28"/><polygon points="724.33,315 804,269 887.14,317 887.14,375 807.47,421 724.33,373" fill="none" stroke="#d7e3f4" stroke-width="2" opacity="0.92" stroke-linejoin="round"/><ellipse cx="805.74" cy="316" rx="46" ry="26" fill="none" stroke="#d7e3f4" stroke-width="1.2" opacity="0.5"/><ellipse cx="805.74" cy="316" rx="30" ry="17" fill="none" stroke="#d7e3f4" stroke-width="1" opacity="0.4"/><circle cx="804" cy="281" r="2.4" fill="#dfe8f5" opacity="0.75"/><circle cx="866.36" cy="317" r="2.4" fill="#dfe8f5" opacity="0.75"/><circle cx="739.92" cy="318" r="2.4" fill="#dfe8f5" opacity="0.75"/><circle cx="802.27" cy="354" r="2.4" fill="#dfe8f5" opacity="0.75"/><circle cx="835.18" cy="299" r="2.4" fill="#dfe8f5" opacity="0.75"/><circle cx="771.1" cy="336" r="2.4" fill="#dfe8f5" opacity="0.75"/><polygon points="738.19,415 776.29,437 776.29,387 738.19,365" fill="url(#gLeft)"/><polygon points="819.59,412 776.29,437 776.29,387 819.59,362" fill="url(#gRight)"/><polygon points="781.49,340 819.59,362 776.29,387 738.19,365" fill="url(#gTop)"/><polyline points="781.49,340 819.59,362 776.29,387 738.19,365" fill="none" stroke="#d7e3f4" stroke-width="0.6" opacity="0.30"/><line x1="819.59" y1="412" x2="819.59" y2="362" stroke="#d7e3f4" stroke-width="0.6" opacity="0.28"/><polygon points="738.19,365 781.49,340 819.59,362 819.59,412 776.29,437 738.19,415" fill="none" stroke="#d7e3f4" stroke-width="2" opacity="0.92" stroke-linejoin="round"/><polygon points="813.53,382.5 813.25,379.22 812.41,375.75 811.05,372.25 809.23,368.87 807.03,365.76 804.55,363.05 801.9,360.87 799.18,359.3 796.53,358.42 794.04,358.26 791.85,358.83 790.03,360.12 788.67,362.05 787.83,364.55 787.55,367.5 787.83,370.78 788.67,374.25 790.03,377.75 791.85,381.13 794.04,384.24 796.53,386.95 799.18,389.13 801.9,390.7 804.55,391.58 807.03,391.74 809.23,391.17 811.05,389.88 812.41,387.95 813.25,385.45" fill="#3a4763" stroke="#d7e3f4" stroke-width="1.2" opacity="0.9"/><circle cx="800.54" cy="375" r="3.2" fill="#ffe27a" opacity="0.9"/><polygon points="597.9,492 632.54,512 632.54,468 597.9,448" fill="url(#gLeft)"/><polygon points="758.97,439 632.54,512 632.54,468 758.97,395" fill="url(#gRight)"/><polygon points="724.33,375 758.97,395 632.54,468 597.9,448" fill="url(#gTop)"/><polyline points="724.33,375 758.97,395 632.54,468 597.9,448" fill="none" stroke="#d7e3f4" stroke-width="0.6" opacity="0.30"/><line x1="758.97" y1="439" x2="758.97" y2="395" stroke="#d7e3f4" stroke-width="0.6" opacity="0.28"/><polygon points="597.9,448 724.33,375 758.97,395 758.97,439 632.54,512 597.9,492" fill="none" stroke="#d7e3f4" stroke-width="2" opacity="0.92" stroke-linejoin="round"/><polygon points="755.51,419 755.13,414.62 754.01,410 752.2,405.33 749.78,400.83 746.85,396.68 743.54,393.07 740,390.15 736.38,388.06 732.84,386.89 729.53,386.68 726.6,387.45 724.18,389.15 722.37,391.73 721.25,395.06 720.87,399 721.25,403.38 722.37,408 724.18,412.67 726.6,417.17 729.53,421.32 732.84,424.93 736.38,427.85 740,429.94 743.54,431.11 746.85,431.32 749.78,430.55 752.2,428.85 754.01,426.27 755.13,422.94" fill="url(#dTop)" stroke="#d7e3f4" stroke-width="1.3" opacity="0.97"/><polygon points="746.85,414 746.66,411.81 746.1,409.5 745.19,407.17 743.98,404.91 742.52,402.84 740.86,401.03 739.09,399.58 737.28,398.53 735.51,397.94 733.86,397.84 732.39,398.22 731.18,399.08 730.28,400.36 729.72,402.03 729.53,404 729.72,406.19 730.28,408.5 731.18,410.83 732.39,413.09 733.86,415.16 735.51,416.97 737.28,418.42 739.09,419.47 740.86,420.06 742.52,420.16 743.98,419.78 745.19,418.92 746.1,417.64 746.66,415.97" fill="#39445e" stroke="#d7e3f4" stroke-width="0.8" opacity="0.85"/><polygon points="737.32,426.5 737,422.78 736.05,418.85 734.51,414.88 732.45,411.05 729.96,407.53 727.15,404.46 724.14,401.98 721.06,400.2 718.05,399.21 715.24,399.03 712.75,399.68 710.69,401.13 709.15,403.32 708.2,406.15 707.88,409.5 708.2,413.22 709.15,417.15 710.69,421.12 712.75,424.95 715.24,428.47 718.05,431.54 721.06,434.02 724.14,435.8 727.15,436.79 729.96,436.97 732.45,436.32 734.51,434.87 736.05,432.68 737,429.85" fill="url(#dTop)" stroke="#d7e3f4" stroke-width="1.3" opacity="0.97"/><polygon points="729.96,422.25 729.8,420.39 729.32,418.43 728.56,416.44 727.53,414.53 726.28,412.76 724.87,411.23 723.37,409.99 721.83,409.1 720.33,408.6 718.92,408.51 717.67,408.84 716.64,409.57 715.88,410.66 715.4,412.08 715.24,413.75 715.4,415.61 715.88,417.57 716.64,419.56 717.67,421.47 718.92,423.24 720.33,424.77 721.83,426.01 723.37,426.9 724.87,427.4 726.28,427.49 727.53,427.16 728.56,426.43 729.32,425.34 729.8,423.92" fill="#39445e" stroke="#d7e3f4" stroke-width="0.8" opacity="0.85"/><polygon points="724.33,437 723.95,432.62 722.83,428 721.02,423.33 718.6,418.83 715.67,414.68 712.36,411.07 708.82,408.15 705.2,406.06 701.66,404.89 698.35,404.68 695.42,405.45 693,407.15 691.19,409.73 690.07,413.06 689.69,417 690.07,421.38 691.19,426 693,430.67 695.42,435.17 698.35,439.32 701.66,442.93 705.2,445.85 708.82,447.94 712.36,449.11 715.67,449.32 718.6,448.55 721.02,446.85 722.83,444.27 723.95,440.94" fill="url(#dTop)" stroke="#d7e3f4" stroke-width="1.3" opacity="0.97"/><polygon points="715.67,432 715.48,429.81 714.92,427.5 714.02,425.17 712.81,422.91 711.34,420.84 709.69,419.03 707.92,417.58 706.11,416.53 704.34,415.94 702.68,415.84 701.22,416.22 700.01,417.08 699.1,418.36 698.54,420.03 698.35,422 698.54,424.19 699.1,426.5 700.01,428.83 701.22,431.09 702.68,433.16 704.34,434.97 706.11,436.42 707.92,437.47 709.69,438.06 711.34,438.16 712.81,437.78 714.02,436.92 714.92,435.64 715.48,433.97" fill="#39445e" stroke="#d7e3f4" stroke-width="0.8" opacity="0.85"/><polygon points="706.15,444.5 705.82,440.78 704.87,436.85 703.33,432.88 701.27,429.05 698.78,425.53 695.97,422.46 692.96,419.98 689.89,418.2 686.87,417.21 684.06,417.03 681.57,417.68 679.51,419.13 677.97,421.32 677.02,424.15 676.7,427.5 677.02,431.22 677.97,435.15 679.51,439.12 681.57,442.95 684.06,446.47 686.87,449.54 689.89,452.02 692.96,453.8 695.97,454.79 698.78,454.97 701.27,454.32 703.33,452.87 704.87,450.68 705.82,447.85" fill="url(#dTop)" stroke="#d7e3f4" stroke-width="1.3" opacity="0.97"/><polygon points="698.78,440.25 698.62,438.39 698.15,436.43 697.38,434.44 696.35,432.53 695.1,430.76 693.7,429.23 692.19,427.99 690.65,427.1 689.15,426.6 687.74,426.51 686.5,426.84 685.47,427.57 684.7,428.66 684.22,430.08 684.06,431.75 684.22,433.61 684.7,435.57 685.47,437.56 686.5,439.47 687.74,441.24 689.15,442.77 690.65,444.01 692.19,444.9 693.7,445.4 695.1,445.49 696.35,445.16 697.38,444.43 698.15,443.34 698.62,441.92" fill="#39445e" stroke="#d7e3f4" stroke-width="0.8" opacity="0.85"/><polygon points="693.16,455 692.78,450.62 691.66,446 689.85,441.33 687.43,436.83 684.5,432.68 681.19,429.07 677.65,426.15 674.03,424.06 670.48,422.89 667.18,422.68 664.25,423.45 661.82,425.15 660.01,427.73 658.89,431.06 658.52,435 658.89,439.38 660.01,444 661.82,448.67 664.25,453.17 667.18,457.32 670.48,460.93 674.03,463.85 677.65,465.94 681.19,467.11 684.5,467.32 687.43,466.55 689.85,464.85 691.66,462.27 692.78,458.94" fill="url(#dTop)" stroke="#d7e3f4" stroke-width="1.3" opacity="0.97"/><polygon points="684.5,450 684.31,447.81 683.75,445.5 682.84,443.17 681.63,440.91 680.17,438.84 678.51,437.03 676.74,435.58 674.93,434.53 673.16,433.94 671.51,433.84 670.04,434.22 668.83,435.08 667.92,436.36 667.37,438.03 667.18,440 667.37,442.19 667.92,444.5 668.83,446.83 670.04,449.09 671.51,451.16 673.16,452.97 674.93,454.42 676.74,455.47 678.51,456.06 680.17,456.16 681.63,455.78 682.84,454.92 683.75,453.64 684.31,451.97" fill="#39445e" stroke="#d7e3f4" stroke-width="0.8" opacity="0.85"/><polygon points="674.97,462.5 674.65,458.78 673.7,454.85 672.16,450.88 670.1,447.05 667.61,443.53 664.8,440.46 661.79,437.98 658.71,436.2 655.7,435.21 652.89,435.03 650.4,435.68 648.34,437.13 646.8,439.32 645.85,442.15 645.53,445.5 645.85,449.22 646.8,453.15 648.34,457.12 650.4,460.95 652.89,464.47 655.7,467.54 658.71,470.02 661.79,471.8 664.8,472.79 667.61,472.97 670.1,472.32 672.16,470.87 673.7,468.68 674.65,465.85" fill="url(#dTop)" stroke="#d7e3f4" stroke-width="1.3" opacity="0.97"/><polygon points="667.61,458.25 667.45,456.39 666.97,454.43 666.2,452.44 665.17,450.53 663.93,448.76 662.52,447.23 661.02,445.99 659.48,445.1 657.97,444.6 656.57,444.51 655.32,444.84 654.29,445.57 653.52,446.66 653.05,448.08 652.89,449.75 653.05,451.61 653.52,453.57 654.29,455.56 655.32,457.47 656.57,459.24 657.97,460.77 659.48,462.01 661.02,462.9 662.52,463.4 663.93,463.49 665.17,463.16 666.2,462.43 666.97,461.34 667.45,459.92" fill="#39445e" stroke="#d7e3f4" stroke-width="0.8" opacity="0.85"/><polygon points="661.98,473 661.6,468.62 660.48,464 658.67,459.33 656.25,454.83 653.32,450.68 650.01,447.07 646.47,444.15 642.85,442.06 639.31,440.89 636,440.68 633.07,441.45 630.65,443.15 628.84,445.73 627.72,449.06 627.34,453 627.72,457.38 628.84,462 630.65,466.67 633.07,471.17 636,475.32 639.31,478.93 642.85,481.85 646.47,483.94 650.01,485.11 653.32,485.32 656.25,484.55 658.67,482.85 660.48,480.27 661.6,476.94" fill="url(#dTop)" stroke="#d7e3f4" stroke-width="1.3" opacity="0.97"/><polygon points="653.32,468 653.13,465.81 652.57,463.5 651.67,461.17 650.45,458.91 648.99,456.84 647.34,455.03 645.57,453.58 643.75,452.53 641.98,451.94 640.33,451.84 638.87,452.22 637.65,453.08 636.75,454.36 636.19,456.03 636,458 636.19,460.19 636.75,462.5 637.65,464.83 638.87,467.09 640.33,469.16 641.98,470.97 643.75,472.42 645.57,473.47 647.34,474.06 648.99,474.16 650.45,473.78 651.67,472.92 652.57,471.64 653.13,469.97" fill="#39445e" stroke="#d7e3f4" stroke-width="0.8" opacity="0.85"/><polygon points="643.79,480.5 643.47,476.78 642.52,472.85 640.98,468.88 638.92,465.05 636.43,461.53 633.62,458.46 630.61,455.98 627.53,454.2 624.52,453.21 621.71,453.03 619.22,453.68 617.16,455.13 615.62,457.32 614.67,460.15 614.35,463.5 614.67,467.22 615.62,471.15 617.16,475.12 619.22,478.95 621.71,482.47 624.52,485.54 627.53,488.02 630.61,489.8 633.62,490.79 636.43,490.97 638.92,490.32 640.98,488.87 642.52,486.68 643.47,483.85" fill="url(#dTop)" stroke="#d7e3f4" stroke-width="1.3" opacity="0.97"/><polygon points="636.43,476.25 636.27,474.39 635.8,472.43 635.03,470.44 634,468.53 632.75,466.76 631.35,465.23 629.84,463.99 628.3,463.1 626.8,462.6 625.39,462.51 624.15,462.84 623.12,463.57 622.35,464.66 621.87,466.08 621.71,467.75 621.87,469.61 622.35,471.57 623.12,473.56 624.15,475.47 625.39,477.24 626.8,478.77 628.3,480.01 629.84,480.9 631.35,481.4 632.75,481.49 634,481.16 635.03,480.43 635.8,479.34 636.27,477.92" fill="#39445e" stroke="#d7e3f4" stroke-width="0.8" opacity="0.85"/><polygon points="526.88,535 568.45,559 568.45,505 526.88,481" fill="url(#gLeft)"/><polygon points="613.48,533 568.45,559 568.45,505 613.48,479" fill="url(#gRight)"/><polygon points="571.92,455 613.48,479 568.45,505 526.88,481" fill="url(#gTop)"/><polyline points="571.92,455 613.48,479 568.45,505 526.88,481" fill="none" stroke="#d7e3f4" stroke-width="0.6" opacity="0.30"/><line x1="613.48" y1="533" x2="613.48" y2="479" stroke="#d7e3f4" stroke-width="0.6" opacity="0.28"/><polygon points="526.88,481 571.92,455 613.48,479 613.48,533 568.45,559 526.88,535" fill="none" stroke="#d7e3f4" stroke-width="2" opacity="0.92" stroke-linejoin="round"/><polygon points="573.65,478 590.97,488 590.97,474 573.65,464" fill="url(#aLeft)"/><polygon points="608.29,478 590.97,488 590.97,474 608.29,464" fill="url(#aRight)"/><polygon points="590.97,454 608.29,464 590.97,474 573.65,464" fill="url(#aTop)"/><polyline points="590.97,454 608.29,464 590.97,474 573.65,464" fill="none" stroke="#d7e3f4" stroke-width="0.6" opacity="0.30"/><line x1="608.29" y1="478" x2="608.29" y2="464" stroke="#d7e3f4" stroke-width="0.6" opacity="0.28"/><polygon points="573.65,464 590.97,454 608.29,464 608.29,478 590.97,488 573.65,478" fill="none" stroke="#d7e3f4" stroke-width="2" opacity="0.92" stroke-linejoin="round"/><polygon points="393.52,594 483.58,646 483.58,560 393.52,508" fill="url(#gLeft)"/><polygon points="577.11,592 483.58,646 483.58,560 577.11,506" fill="url(#gRight)"/><polygon points="487.05,454 577.11,506 483.58,560 393.52,508" fill="url(#gTop)"/><polyline points="487.05,454 577.11,506 483.58,560 393.52,508" fill="none" stroke="#d7e3f4" stroke-width="0.6" opacity="0.30"/><line x1="577.11" y1="592" x2="577.11" y2="506" stroke="#d7e3f4" stroke-width="0.6" opacity="0.28"/><polygon points="393.52,508 487.05,454 577.11,506 577.11,592 483.58,646 393.52,594" fill="none" stroke="#d7e3f4" stroke-width="2" opacity="0.92" stroke-linejoin="round"/><ellipse cx="452.41" cy="502" rx="10" ry="13" fill="#2c3a55" stroke="#d7e3f4" stroke-width="1.2" opacity="0.9"/><ellipse cx="488.78" cy="529" rx="30" ry="22" fill="url(#dRight)" stroke="#d7e3f4" stroke-width="1.6" opacity="0.95" transform="rotate(-14 488.78 529)"/><ellipse cx="488.78" cy="527" rx="22" ry="15" fill="#8aa0c6" stroke="#eaf2ff" stroke-width="1" opacity="0.95" transform="rotate(-14 488.78 527)"/><ellipse cx="483.78" cy="521" rx="9" ry="5" fill="#eff5ff" opacity="0.5" transform="rotate(-14 488.78 529)"/><ellipse cx="705.28" cy="256" rx="7" ry="12" fill="#455571" stroke="#d7e3f4" stroke-width="1" opacity="0.85" transform="rotate(28 705.28 256)"/><ellipse cx="769.36" cy="293" rx="7" ry="12" fill="#455571" stroke="#d7e3f4" stroke-width="1" opacity="0.85" transform="rotate(28 769.36 293)"/><ellipse cx="750.31" cy="390" rx="9" ry="11" fill="#455571" stroke="#d7e3f4" stroke-width="1" opacity="0.85"/><ellipse cx="601.36" cy="476" rx="9" ry="11" fill="#455571" stroke="#d7e3f4" stroke-width="1" opacity="0.85"/><ellipse cx="545.07" cy="508.5" rx="9" ry="11" fill="#455571" stroke="#d7e3f4" stroke-width="1" opacity="0.85"/><path d="M 689.69 247 L 809.2 316 L 812.43 318.06 L 815.29 320.29 L 817.76 322.67 L 819.82 325.18 L 821.44 327.79 L 822.61 330.48 L 823.31 333.23 L 823.55 336 L 823.31 338.77 L 822.61 341.52 L 821.44 344.21 L 819.82 346.82 L 817.76 349.33 L 815.29 351.71 L 812.43 353.94 L 809.2 356 L 791.88 366 L 488.78 541" fill="none" stroke="#ffe27a" stroke-width="16" opacity="0.10" stroke-linecap="round" stroke-linejoin="round"/><path d="M 689.69 247 L 809.2 316 L 812.43 318.06 L 815.29 320.29 L 817.76 322.67 L 819.82 325.18 L 821.44 327.79 L 822.61 330.48 L 823.31 333.23 L 823.55 336 L 823.31 338.77 L 822.61 341.52 L 821.44 344.21 L 819.82 346.82 L 817.76 349.33 L 815.29 351.71 L 812.43 353.94 L 809.2 356 L 791.88 366 L 488.78 541" fill="none" stroke="#ffe27a" stroke-width="10" opacity="0.18" stroke-linecap="round" stroke-linejoin="round"/><path d="M 689.69 247 L 809.2 316 L 812.43 318.06 L 815.29 320.29 L 817.76 322.67 L 819.82 325.18 L 821.44 327.79 L 822.61 330.48 L 823.31 333.23 L 823.55 336 L 823.31 338.77 L 822.61 341.52 L 821.44 344.21 L 819.82 346.82 L 817.76 349.33 L 815.29 351.71 L 812.43 353.94 L 809.2 356 L 791.88 366 L 488.78 541" fill="none" stroke="#ffe89a" stroke-width="6" opacity="0.4" stroke-linecap="round" stroke-linejoin="round"/><path d="M 689.69 247 L 809.2 316 L 812.43 318.06 L 815.29 320.29 L 817.76 322.67 L 819.82 325.18 L 821.44 327.79 L 822.61 330.48 L 823.31 333.23 L 823.55 336 L 823.31 338.77 L 822.61 341.52 L 821.44 344.21 L 819.82 346.82 L 817.76 349.33 L 815.29 351.71 L 812.43 353.94 L 809.2 356 L 791.88 366 L 488.78 541" fill="none" stroke="url(#beamCore)" stroke-width="3" opacity="0.95" stroke-linecap="round" stroke-linejoin="round"/><path d="M 689.69 247 L 809.2 316 L 812.43 318.06 L 815.29 320.29 L 817.76 322.67 L 819.82 325.18 L 821.44 327.79 L 822.61 330.48 L 823.31 333.23 L 823.55 336 L 823.31 338.77 L 822.61 341.52 L 821.44 344.21 L 819.82 346.82 L 817.76 349.33 L 815.29 351.71 L 812.43 353.94 L 809.2 356 L 791.88 366 L 488.78 541" fill="none" stroke="#fffbe6" stroke-width="1.2" opacity="0.9" stroke-linecap="round" stroke-linejoin="round"/><circle cx="689.69" cy="247" r="14" fill="url(#gGlow)"/><circle cx="488.78" cy="541" r="16" fill="url(#gGlow)"/><line x1="622.14" y1="261" x2="881.94" y2="411" stroke="#7f9cf5" stroke-width="0.6" opacity="0.3"/></g></svg><circle cx="818.9" cy="252.8" r="2.6" fill="#7f9cf5" opacity="0.9"/><path d="M 818.9 252.8 L 1332 246.8" stroke="#d7e3f4" stroke-width="0.9" opacity="0.5" fill="none"/><text x="1344" y="250.8" text-anchor="start" font-family="'Pretendard Variable',Pretendard,'Malgun Gothic',sans-serif" font-size="19" font-weight="600" fill="#e8eef7" fill-opacity="0.95">이온 소스</text><text x="1344" y="270.8" text-anchor="start" font-family="'IBM Plex Mono','JetBrains Mono',ui-monospace,Consolas,monospace" font-size="11" letter-spacing="1.2" fill="#93a4bd" fill-opacity="0.75">ION SOURCE</text><circle cx="928.6" cy="334.1" r="2.6" fill="#7f9cf5" opacity="0.9"/><path d="M 928.6 334.1 L 1332 328.1" stroke="#d7e3f4" stroke-width="0.9" opacity="0.5" fill="none"/><text x="1344" y="332.1" text-anchor="start" font-family="'Pretendard Variable',Pretendard,'Malgun Gothic',sans-serif" font-size="19" font-weight="600" fill="#e8eef7" fill-opacity="0.95">추출 전극</text><text x="1344" y="352.1" text-anchor="start" font-family="'IBM Plex Mono','JetBrains Mono',ui-monospace,Consolas,monospace" font-size="11" letter-spacing="1.2" fill="#93a4bd" fill-opacity="0.75">EXTRACTION</text><circle cx="1013.7" cy="402.2" r="2.6" fill="#7f9cf5" opacity="0.9"/><path d="M 1013.7 402.2 L 1332 396.2" stroke="#d7e3f4" stroke-width="0.9" opacity="0.5" fill="none"/><text x="1344" y="400.2" text-anchor="start" font-family="'Pretendard Variable',Pretendard,'Malgun Gothic',sans-serif" font-size="19" font-weight="600" fill="#e8eef7" fill-opacity="0.95">질량분석 자석 — 90°</text><text x="1344" y="420.2" text-anchor="start" font-family="'IBM Plex Mono','JetBrains Mono',ui-monospace,Consolas,monospace" font-size="11" letter-spacing="1.2" fill="#93a4bd" fill-opacity="0.75">ANALYZER MAGNET</text><circle cx="978.7" cy="464.6" r="2.6" fill="#7f9cf5" opacity="0.9"/><path d="M 978.7 464.6 L 1332 462.2" stroke="#d7e3f4" stroke-width="0.9" opacity="0.5" fill="none"/><text x="1344" y="466.2" text-anchor="start" font-family="'Pretendard Variable',Pretendard,'Malgun Gothic',sans-serif" font-size="19" font-weight="600" fill="#e8eef7" fill-opacity="0.95">해상 슬릿</text><text x="1344" y="486.2" text-anchor="start" font-family="'IBM Plex Mono','JetBrains Mono',ui-monospace,Consolas,monospace" font-size="11" letter-spacing="1.2" fill="#93a4bd" fill-opacity="0.75">RESOLVING SLIT</text><circle cx="841.6" cy="541.2" r="2.6" fill="#7f9cf5" opacity="0.9"/><path d="M 841.6 541.2 L 1332 594.2" stroke="#d7e3f4" stroke-width="0.9" opacity="0.5" fill="none"/><text x="1344" y="598.2" text-anchor="start" font-family="'Pretendard Variable',Pretendard,'Malgun Gothic',sans-serif" font-size="19" font-weight="600" fill="#e8eef7" fill-opacity="0.95">가속 컬럼</text><text x="1344" y="618.2" text-anchor="start" font-family="'IBM Plex Mono','JetBrains Mono',ui-monospace,Consolas,monospace" font-size="11" letter-spacing="1.2" fill="#93a4bd" fill-opacity="0.75">ACCEL COLUMN</text><circle cx="703.6" cy="617.8" r="2.6" fill="#7f9cf5" opacity="0.9"/><path d="M 703.6 617.8 L 268 611.8" stroke="#d7e3f4" stroke-width="0.9" opacity="0.5" fill="none"/><text x="256" y="615.8" text-anchor="end" font-family="'Pretendard Variable',Pretendard,'Malgun Gothic',sans-serif" font-size="19" font-weight="600" fill="#e8eef7" fill-opacity="0.95">정전 스캐너</text><text x="256" y="635.8" text-anchor="end" font-family="'IBM Plex Mono','JetBrains Mono',ui-monospace,Consolas,monospace" font-size="11" letter-spacing="1.2" fill="#93a4bd" fill-opacity="0.75">SCANNER</text><circle cx="592.0" cy="653.7" r="2.6" fill="#7f9cf5" opacity="0.9"/><path d="M 592.0 653.7 L 268 677.8" stroke="#d7e3f4" stroke-width="0.9" opacity="0.5" fill="none"/><text x="256" y="681.8" text-anchor="end" font-family="'Pretendard Variable',Pretendard,'Malgun Gothic',sans-serif" font-size="19" font-weight="600" fill="#e8eef7" fill-opacity="0.95">엔드스테이션</text><text x="256" y="701.8" text-anchor="end" font-family="'IBM Plex Mono','JetBrains Mono',ui-monospace,Consolas,monospace" font-size="11" letter-spacing="1.2" fill="#93a4bd" fill-opacity="0.75">END STATION</text><circle cx="818.9" cy="544.0" r="2.6" fill="#7f9cf5" opacity="0.9"/><path d="M 818.9 544.0 L 1332 660.2" stroke="#d7e3f4" stroke-width="0.9" opacity="0.5" fill="none"/><text x="1344" y="664.2" text-anchor="start" font-family="'Pretendard Variable',Pretendard,'Malgun Gothic',sans-serif" font-size="19" font-weight="600" fill="#e8eef7" fill-opacity="0.95">이온빔 경로</text><text x="1344" y="684.2" text-anchor="start" font-family="'IBM Plex Mono','JetBrains Mono',ui-monospace,Consolas,monospace" font-size="11" letter-spacing="1.2" fill="#93a4bd" fill-opacity="0.75">BEAM PATH</text><circle cx="949.4" cy="468.4" r="2.6" fill="#7f9cf5" opacity="0.9"/><path d="M 949.4 468.4 L 1332 528.2" stroke="#d7e3f4" stroke-width="0.9" opacity="0.5" fill="none"/><text x="1344" y="532.2" text-anchor="start" font-family="'Pretendard Variable',Pretendard,'Malgun Gothic',sans-serif" font-size="19" font-weight="600" fill="#e8eef7" fill-opacity="0.95">터보펌프</text><text x="1344" y="552.2" text-anchor="start" font-family="'IBM Plex Mono','JetBrains Mono',ui-monospace,Consolas,monospace" font-size="11" letter-spacing="1.2" fill="#93a4bd" fill-opacity="0.75">TURBO PUMP</text><circle cx="653.5" cy="726.5" r="2.6" fill="#7f9cf5" opacity="0.9"/><path d="M 653.5 726.5 L 268 743.8" stroke="#d7e3f4" stroke-width="0.9" opacity="0.5" fill="none"/><text x="256" y="747.8" text-anchor="end" font-family="'Pretendard Variable',Pretendard,'Malgun Gothic',sans-serif" font-size="19" font-weight="600" fill="#e8eef7" fill-opacity="0.95">베이스 레일</text><text x="256" y="767.8" text-anchor="end" font-family="'IBM Plex Mono','JetBrains Mono',ui-monospace,Consolas,monospace" font-size="11" letter-spacing="1.2" fill="#93a4bd" fill-opacity="0.75">BASE RAIL</text><text x="30" y="1042" font-family="'IBM Plex Mono','JetBrains Mono',ui-monospace,Consolas,monospace" font-size="17" font-weight="500" letter-spacing="0.5" fill="#e8eef7" fill-opacity="0.85">FIG. 7-ISO — 조감: 노란 빔이 90°로 꺾여 웨이퍼까지 달리는 철로</text></svg>