<svg xmlns="http://www.w3.org/2000/svg" viewBox="0 0 1600 1060" role="img"><svg x="404.0" y="70.0" width="792.0" height="880.0" viewBox="0 0 900 1000"><defs><linearGradient id="gWallSide" x1="0" y1="0" x2="1" y2="1"><stop offset="0" stop-color="#4a5c78"/><stop offset="1" stop-color="#28344a"/></linearGradient><linearGradient id="gInner" x1="0" y1="0" x2="1" y2="0"><stop offset="0" stop-color="#1a2536"/><stop offset="0.5" stop-color="#2b3a53"/><stop offset="1" stop-color="#20293b"/></linearGradient><radialGradient id="gFloor" cx="0.42" cy="0.38" r="0.75"><stop offset="0" stop-color="#3a4a63"/><stop offset="1" stop-color="#161f2e"/></radialGradient><linearGradient id="gCutR" x1="0" y1="0" x2="1" y2="0.4"><stop offset="0" stop-color="#57688a"/><stop offset="1" stop-color="#3b4a66"/></linearGradient><linearGradient id="gCutL" x1="1" y1="0" x2="0" y2="0.4"><stop offset="0" stop-color="#3a4964"/><stop offset="1" stop-color="#26324a"/></linearGradient><linearGradient id="gMetTop" x1="0" y1="0" x2="1" y2="1"><stop offset="0" stop-color="#c3d2e6"/><stop offset="1" stop-color="#8ea1bb"/></linearGradient><linearGradient id="gMetSide" x1="0" y1="0" x2="0" y2="1"><stop offset="0" stop-color="#7f92ab"/><stop offset="1" stop-color="#4c5c74"/></linearGradient><linearGradient id="gEscTop" x1="0" y1="0" x2="1" y2="1"><stop offset="0" stop-color="#b7a6d8"/><stop offset="1" stop-color="#8574a6"/></linearGradient><linearGradient id="gEscSide" x1="0" y1="0" x2="0" y2="1"><stop offset="0" stop-color="#6f5f8f"/><stop offset="1" stop-color="#443a5e"/></linearGradient><radialGradient id="gWafer" cx="0.4" cy="0.36" r="0.8"><stop offset="0" stop-color="#9fb6d0"/><stop offset="0.6" stop-color="#6a7f9c"/><stop offset="1" stop-color="#47576f"/></radialGradient><linearGradient id="gRing" x1="0" y1="0" x2="1" y2="1"><stop offset="0" stop-color="#b9a274"/><stop offset="1" stop-color="#7d6a44"/></linearGradient><linearGradient id="gCop" x1="0" y1="0" x2="1" y2="1"><stop offset="0" stop-color="#ffb27a"/><stop offset="0.5" stop-color="#e07d3c"/><stop offset="1" stop-color="#a5501f"/></linearGradient><linearGradient id="gCopTop" x1="0" y1="0" x2="1" y2="1"><stop offset="0" stop-color="#ffcaa0"/><stop offset="1" stop-color="#c26a30"/></linearGradient><radialGradient id="gPlasma" cx="0.5" cy="0.5" r="0.5"><stop offset="0" stop-color="#ff5df0" stop-opacity="0.95"/><stop offset="0.55" stop-color="#c23bd0" stop-opacity="0.55"/><stop offset="1" stop-color="#5a1a7a" stop-opacity="0"/></radialGradient><radialGradient id="gPlasmaCore" cx="0.5" cy="0.45" r="0.5"><stop offset="0" stop-color="#ffe6fb"/><stop offset="0.5" stop-color="#ff7cf3"/><stop offset="1" stop-color="#ff5df0" stop-opacity="0.2"/></radialGradient><radialGradient id="gWindow" cx="0.42" cy="0.4" r="0.8"><stop offset="0" stop-color="#cdeeff"/><stop offset="1" stop-color="#6aa6cf"/></radialGradient></defs><polygon points="684.2,821 640.7,842.3 591.7,859.1 538.5,871.1 482.7,877.9 425.7,879.2 369.1,875.2 314.5,865.8 263.2,851.3 216.8,832.2 176.5,808.9 143.3,782.1 118.3,752.5 102,720.9 94.9,688.2 97.3,655.3 109,623.1 129.7,592.4 158.9,564.1 195.8,539 239.3,517.7 288.3,500.9 341.5,488.9 397.3,482.1 454.3,480.8 510.9,484.8 565.5,494.2 616.8,508.7 663.2,527.8 703.5,551.1 736.7,577.9 761.7,607.5 778,639.1 785.1,671.8 782.7,704.7 771,736.9 750.3,767.6 721.1,795.9 684.2,821" fill="#000" opacity="0.16"/><polygon points="649.6,798 612.2,816.3 570.2,830.7 524.6,841 476.7,846.8 427.8,848 379.2,844.5 332.3,836.4 288.3,824 248.5,807.6 213.8,787.6 185.4,764.6 163.9,739.2 149.9,712.1 143.9,684.1 145.9,655.8 155.9,628.2 173.7,601.8 198.8,577.6 230.4,556 267.8,537.7 309.8,523.3 355.4,513 403.3,507.2 452.2,506 500.8,509.5 547.7,517.6 591.7,530 631.5,546.4 666.2,566.4 694.6,589.4 716.1,614.8 730.1,641.9 736.1,669.9 734.1,698.2 724.1,725.8 706.3,752.2 681.2,776.4 649.6,798" fill="#000" opacity="0.22"/><polygon points="665.2,775 625,794.6 579.9,810.2 530.9,821.2 479.4,827.4 426.8,828.7 374.7,824.9 324.3,816.3 277,802.9 234.2,785.3 197,763.8 166.5,739.1 143.4,711.8 128.4,682.7 121.8,652.6 124,622.3 134.8,592.5 153.9,564.3 180.9,538.2 214.8,515 255,495.4 300.1,479.8 349.1,468.8 400.6,462.6 453.2,461.3 505.3,465.1 555.7,473.7 603,487.1 645.8,504.7 683,526.2 713.5,550.9 736.6,578.2 751.6,607.3 758.2,637.4 756,667.7 745.2,697.5 726.1,725.7 699.1,751.8 665.2,775" fill="url(#gMetTop)" stroke="#d7e3f4" stroke-width="1.4" opacity="0.92"/><polygon points="214.8,775 197.9,764.4 182.4,753.1 168.5,741.1 156.3,728.5 145.8,715.4 137.2,701.8 130.4,687.9 125.5,673.8 122.6,659.4 121.6,645 122.6,630.6 125.5,616.2 130.4,602.1 137.2,588.2 145.8,574.6 156.3,561.5 168.5,548.9 182.4,536.9 197.9,525.6 214.8,515 233.2,505.2 252.8,496.3 273.6,488.2 295.4,481.2 318.1,475.1 341.6,470.2 365.7,466.2 390.2,463.4 415,461.7 440,461.2 465,461.7 489.8,463.4 514.3,466.2 538.4,470.2 561.9,475.1 584.6,481.2 606.4,488.2 627.2,496.3 646.8,505.2 665.2,515 682.1,525.6 697.6,536.9 711.5,548.9 723.7,561.5 734.2,574.6 742.8,588.2 749.6,602.1 754.5,616.2 757.4,630.6 758.4,645 757.4,659.4 754.5,673.8 749.6,687.9 742.8,701.8 734.2,715.4 723.7,728.5 711.5,741.1 697.6,753.1 682.1,764.4 665.2,775 665.2,807 682.1,796.4 697.6,785.1 711.5,773.1 723.7,760.5 734.2,747.4 742.8,733.8 749.6,719.9 754.5,705.8 757.4,691.4 758.4,677 757.4,662.6 754.5,648.2 749.6,634.1 742.8,620.2 734.2,606.6 723.7,593.5 711.5,580.9 697.6,568.9 682.1,557.6 665.2,547 646.8,537.2 627.2,528.3 606.4,520.2 584.6,513.2 561.9,507.1 538.4,502.2 514.3,498.2 489.8,495.4 465,493.7 440,493.2 415,493.7 390.2,495.4 365.7,498.2 341.6,502.2 318.1,507.1 295.4,513.2 273.6,520.2 252.8,528.3 233.2,537.2 214.8,547 197.9,557.6 182.4,568.9 168.5,580.9 156.3,593.5 145.8,606.6 137.2,620.2 130.4,634.1 125.5,648.2 122.6,662.6 121.6,677 122.6,691.4 125.5,705.8 130.4,719.9 137.2,733.8 145.8,747.4 156.3,760.5 168.5,773.1 182.4,785.1 197.9,796.4 214.8,807" fill="url(#gMetSide)" opacity="1.0" stroke="#b9c8dd" stroke-width="1.1"/><polygon points="462.5,658 458.3,660.1 453.5,661.7 448.2,662.8 442.8,663.3 437.2,663.3 431.8,662.8 426.5,661.7 421.7,660.1 417.5,658 413.9,655.5 411.1,652.8 409.2,649.8 408.3,646.6 408.3,643.4 409.2,640.2 411.1,637.2 413.9,634.5 417.5,632 421.7,629.9 426.5,628.3 431.8,627.2 437.2,626.7 442.8,626.7 448.2,627.2 453.5,628.3 458.3,629.9 462.5,632 466.1,634.5 468.9,637.2 470.8,640.2 471.7,643.4 471.7,646.6 470.8,649.8 468.9,652.8 466.1,655.5 462.5,658" fill="url(#gCopTop)" stroke="#8a4a2a" stroke-width="1"/><polygon points="417.5,658 415,656.4 412.8,654.6 411.1,652.7 409.7,650.7 408.8,648.6 408.3,646.4 408.2,644.3 408.5,642.1 409.4,640 410.6,638 412.2,636 414.2,634.2 416.6,632.5 419.3,631 422.3,629.7 425.5,628.6 429,627.8 432.6,627.1 436.3,626.7 440,626.6 443.7,626.7 447.4,627.1 451,627.8 454.5,628.6 457.7,629.7 460.7,631 463.4,632.5 465.8,634.2 467.8,636 469.4,638 470.6,640 471.5,642.1 471.8,644.3 471.7,646.4 471.2,648.6 470.3,650.7 468.9,652.7 467.2,654.6 465,656.4 462.5,658 462.5,748 465,746.4 467.2,744.6 468.9,742.7 470.3,740.7 471.2,738.6 471.7,736.4 471.8,734.3 471.5,732.1 470.6,730 469.4,728 467.8,726 465.8,724.2 463.4,722.5 460.7,721 457.7,719.7 454.5,718.6 451,717.8 447.4,717.1 443.7,716.7 440,716.6 436.3,716.7 432.6,717.1 429,717.8 425.5,718.6 422.3,719.7 419.3,721 416.6,722.5 414.2,724.2 412.2,726 410.6,728 409.4,730 408.5,732.1 408.2,734.3 408.3,736.4 408.8,738.6 409.7,740.7 411.1,742.7 412.8,744.6 415,746.4 417.5,748" fill="url(#gCop)" opacity="1.0" stroke="#7a3f22" stroke-width="1.1"/><line x1="440" y1="735" x2="440" y2="645" stroke="#ff9d55" stroke-width="2" opacity="0.5"/><polygon points="440,665 440,607 561.2,677 561.2,735" fill="url(#gMetSide)" stroke="#b9c8dd" stroke-width="1.1" opacity="0.9"/><polygon points="221.8,411 195.2,393.5 172.7,374.1 154.9,353.2 141.9,331.1 134,308.3 131.4,285 134,261.7 141.9,238.9 154.9,216.8 172.7,195.9 195.2,176.5 221.8,159 252.1,143.6 285.7,130.7 321.9,120.4 360.1,112.9 399.7,108.3 440,106.8 480.3,108.3 519.9,112.9 558.1,120.4 594.3,130.7 627.9,143.6 658.2,159 684.8,176.5 707.3,195.9 725.1,216.8 738.1,238.9 746,261.7 748.6,285 746,308.3 738.1,331.1 725.1,353.2 707.3,374.1 684.8,393.5 658.2,411 658.2,711 684.8,693.5 707.3,674.1 725.1,653.2 738.1,631.1 746,608.3 748.6,585 746,561.7 738.1,538.9 725.1,516.8 707.3,495.9 684.8,476.5 658.2,459 627.9,443.6 594.3,430.7 558.1,420.4 519.9,412.9 480.3,408.3 440,406.8 399.7,408.3 360.1,412.9 321.9,420.4 285.7,430.7 252.1,443.6 221.8,459 195.2,476.5 172.7,495.9 154.9,516.8 141.9,538.9 134,561.7 131.4,585 134,608.3 141.9,631.1 154.9,653.2 172.7,674.1 195.2,693.5 221.8,711" fill="url(#gWallSide)" stroke="#d7e3f4" stroke-width="2" opacity="0.92"/><line x1="131.4" y1="585" x2="131.4" y2="285" stroke="#d7e3f4" stroke-width="0.6" opacity="0.3"/><line x1="221.8" y1="459" x2="221.8" y2="159" stroke="#d7e3f4" stroke-width="0.6" opacity="0.3"/><line x1="440" y1="406.8" x2="440" y2="106.8" stroke="#d7e3f4" stroke-width="0.6" opacity="0.3"/><line x1="658.2" y1="459" x2="658.2" y2="159" stroke="#d7e3f4" stroke-width="0.6" opacity="0.3"/><line x1="748.6" y1="585" x2="748.6" y2="285" stroke="#d7e3f4" stroke-width="0.6" opacity="0.3"/><polygon points="440,585 658.2,711 658.2,411 440,285" fill="url(#gCutR)" stroke="#d7e3f4" stroke-width="1.6" opacity="0.97"/><polygon points="640.9,701 658.2,711 658.2,411 640.9,401" fill="#3b4a63" opacity="0.55"/><line x1="640.9" y1="697" x2="650.4" y2="706.5" stroke="#cfe0ff" stroke-width="0.6" opacity="0.35"/><line x1="640.9" y1="690" x2="658.2" y2="707.3" stroke="#cfe0ff" stroke-width="0.6" opacity="0.35"/><line x1="640.9" y1="683" x2="658.2" y2="700.3" stroke="#cfe0ff" stroke-width="0.6" opacity="0.35"/><line x1="640.9" y1="676" x2="658.2" y2="693.3" stroke="#cfe0ff" stroke-width="0.6" opacity="0.35"/><line x1="640.9" y1="669" x2="658.2" y2="686.3" stroke="#cfe0ff" stroke-width="0.6" opacity="0.35"/><line x1="640.9" y1="662" x2="658.2" y2="679.3" stroke="#cfe0ff" stroke-width="0.6" opacity="0.35"/><line x1="640.9" y1="655" x2="658.2" y2="672.3" stroke="#cfe0ff" stroke-width="0.6" opacity="0.35"/><line x1="640.9" y1="648" x2="658.2" y2="665.3" stroke="#cfe0ff" stroke-width="0.6" opacity="0.35"/><line x1="640.9" y1="641" x2="658.2" y2="658.3" stroke="#cfe0ff" stroke-width="0.6" opacity="0.35"/><line x1="640.9" y1="634" x2="658.2" y2="651.3" stroke="#cfe0ff" stroke-width="0.6" opacity="0.35"/><line x1="640.9" y1="627" x2="658.2" y2="644.3" stroke="#cfe0ff" stroke-width="0.6" opacity="0.35"/><line x1="640.9" y1="620" x2="658.2" y2="637.3" stroke="#cfe0ff" stroke-width="0.6" opacity="0.35"/><line x1="640.9" y1="613" x2="658.2" y2="630.3" stroke="#cfe0ff" stroke-width="0.6" opacity="0.35"/><line x1="640.9" y1="606" x2="658.2" y2="623.3" stroke="#cfe0ff" stroke-width="0.6" opacity="0.35"/><line x1="640.9" y1="599" x2="658.2" y2="616.3" stroke="#cfe0ff" stroke-width="0.6" opacity="0.35"/><line x1="640.9" y1="592" x2="658.2" y2="609.3" stroke="#cfe0ff" stroke-width="0.6" opacity="0.35"/><line x1="640.9" y1="585" x2="658.2" y2="602.3" stroke="#cfe0ff" stroke-width="0.6" opacity="0.35"/><line x1="640.9" y1="578" x2="658.2" y2="595.3" stroke="#cfe0ff" stroke-width="0.6" opacity="0.35"/><line x1="640.9" y1="571" x2="658.2" y2="588.3" stroke="#cfe0ff" stroke-width="0.6" opacity="0.35"/><line x1="640.9" y1="564" x2="658.2" y2="581.3" stroke="#cfe0ff" stroke-width="0.6" opacity="0.35"/><line x1="640.9" y1="557" x2="658.2" y2="574.3" stroke="#cfe0ff" stroke-width="0.6" opacity="0.35"/><line x1="640.9" y1="550" x2="658.2" y2="567.3" stroke="#cfe0ff" stroke-width="0.6" opacity="0.35"/><line x1="640.9" y1="543" x2="658.2" y2="560.3" stroke="#cfe0ff" stroke-width="0.6" opacity="0.35"/><line x1="640.9" y1="536" x2="658.2" y2="553.3" stroke="#cfe0ff" stroke-width="0.6" opacity="0.35"/><line x1="640.9" y1="529" x2="658.2" y2="546.3" stroke="#cfe0ff" stroke-width="0.6" opacity="0.35"/><line x1="640.9" y1="522" x2="658.2" y2="539.3" stroke="#cfe0ff" stroke-width="0.6" opacity="0.35"/><line x1="640.9" y1="515" x2="658.2" y2="532.3" stroke="#cfe0ff" stroke-width="0.6" opacity="0.35"/><line x1="640.9" y1="508" x2="658.2" y2="525.3" stroke="#cfe0ff" stroke-width="0.6" opacity="0.35"/><line x1="640.9" y1="501" x2="658.2" y2="518.3" stroke="#cfe0ff" stroke-width="0.6" opacity="0.35"/><line x1="640.9" y1="494" x2="658.2" y2="511.3" stroke="#cfe0ff" stroke-width="0.6" opacity="0.35"/><line x1="640.9" y1="487" x2="658.2" y2="504.3" stroke="#cfe0ff" stroke-width="0.6" opacity="0.35"/><line x1="640.9" y1="480" x2="658.2" y2="497.3" stroke="#cfe0ff" stroke-width="0.6" opacity="0.35"/><line x1="640.9" y1="473" x2="658.2" y2="490.3" stroke="#cfe0ff" stroke-width="0.6" opacity="0.35"/><line x1="640.9" y1="466" x2="658.2" y2="483.3" stroke="#cfe0ff" stroke-width="0.6" opacity="0.35"/><line x1="640.9" y1="459" x2="658.2" y2="476.3" stroke="#cfe0ff" stroke-width="0.6" opacity="0.35"/><line x1="640.9" y1="452" x2="658.2" y2="469.3" stroke="#cfe0ff" stroke-width="0.6" opacity="0.35"/><line x1="640.9" y1="445" x2="658.2" y2="462.3" stroke="#cfe0ff" stroke-width="0.6" opacity="0.35"/><line x1="640.9" y1="438" x2="658.2" y2="455.3" stroke="#cfe0ff" stroke-width="0.6" opacity="0.35"/><line x1="640.9" y1="431" x2="658.2" y2="448.3" stroke="#cfe0ff" stroke-width="0.6" opacity="0.35"/><line x1="640.9" y1="424" x2="658.2" y2="441.3" stroke="#cfe0ff" stroke-width="0.6" opacity="0.35"/><line x1="640.9" y1="417" x2="658.2" y2="434.3" stroke="#cfe0ff" stroke-width="0.6" opacity="0.35"/><line x1="640.9" y1="410" x2="658.2" y2="427.3" stroke="#cfe0ff" stroke-width="0.6" opacity="0.35"/><line x1="640.9" y1="403" x2="658.2" y2="420.3" stroke="#cfe0ff" stroke-width="0.6" opacity="0.35"/><line x1="652.7" y1="407.8" x2="658.2" y2="413.3" stroke="#cfe0ff" stroke-width="0.6" opacity="0.35"/><polygon points="440,585 221.8,711 221.8,411 440,285" fill="url(#gCutL)" stroke="#d7e3f4" stroke-width="1.6" opacity="0.97"/><polygon points="239.1,701 221.8,711 221.8,411 239.1,401" fill="#2e3a50" opacity="0.6"/><line x1="221.8" y1="711" x2="221.8" y2="711" stroke="#bcd0f0" stroke-width="0.6" opacity="0.32"/><line x1="221.8" y1="704" x2="226.2" y2="708.4" stroke="#bcd0f0" stroke-width="0.6" opacity="0.32"/><line x1="221.8" y1="697" x2="230.6" y2="705.9" stroke="#bcd0f0" stroke-width="0.6" opacity="0.32"/><line x1="221.8" y1="690" x2="235.1" y2="703.3" stroke="#bcd0f0" stroke-width="0.6" opacity="0.32"/><line x1="221.8" y1="683" x2="239.1" y2="700.3" stroke="#bcd0f0" stroke-width="0.6" opacity="0.32"/><line x1="221.8" y1="676" x2="239.1" y2="693.3" stroke="#bcd0f0" stroke-width="0.6" opacity="0.32"/><line x1="221.8" y1="669" x2="239.1" y2="686.3" stroke="#bcd0f0" stroke-width="0.6" opacity="0.32"/><line x1="221.8" y1="662" x2="239.1" y2="679.3" stroke="#bcd0f0" stroke-width="0.6" opacity="0.32"/><line x1="221.8" y1="655" x2="239.1" y2="672.3" stroke="#bcd0f0" stroke-width="0.6" opacity="0.32"/><line x1="221.8" y1="648" x2="239.1" y2="665.3" stroke="#bcd0f0" stroke-width="0.6" opacity="0.32"/><line x1="221.8" y1="641" x2="239.1" y2="658.3" stroke="#bcd0f0" stroke-width="0.6" opacity="0.32"/><line x1="221.8" y1="634" x2="239.1" y2="651.3" stroke="#bcd0f0" stroke-width="0.6" opacity="0.32"/><line x1="221.8" y1="627" x2="239.1" y2="644.3" stroke="#bcd0f0" stroke-width="0.6" opacity="0.32"/><line x1="221.8" y1="620" x2="239.1" y2="637.3" stroke="#bcd0f0" stroke-width="0.6" opacity="0.32"/><line x1="221.8" y1="613" x2="239.1" y2="630.3" stroke="#bcd0f0" stroke-width="0.6" opacity="0.32"/><line x1="221.8" y1="606" x2="239.1" y2="623.3" stroke="#bcd0f0" stroke-width="0.6" opacity="0.32"/><line x1="221.8" y1="599" x2="239.1" y2="616.3" stroke="#bcd0f0" stroke-width="0.6" opacity="0.32"/><line x1="221.8" y1="592" x2="239.1" y2="609.3" stroke="#bcd0f0" stroke-width="0.6" opacity="0.32"/><line x1="221.8" y1="585" x2="239.1" y2="602.3" stroke="#bcd0f0" stroke-width="0.6" opacity="0.32"/><line x1="221.8" y1="578" x2="239.1" y2="595.3" stroke="#bcd0f0" stroke-width="0.6" opacity="0.32"/><line x1="221.8" y1="571" x2="239.1" y2="588.3" stroke="#bcd0f0" stroke-width="0.6" opacity="0.32"/><line x1="221.8" y1="564" x2="239.1" y2="581.3" stroke="#bcd0f0" stroke-width="0.6" opacity="0.32"/><line x1="221.8" y1="557" x2="239.1" y2="574.3" stroke="#bcd0f0" stroke-width="0.6" opacity="0.32"/><line x1="221.8" y1="550" x2="239.1" y2="567.3" stroke="#bcd0f0" stroke-width="0.6" opacity="0.32"/><line x1="221.8" y1="543" x2="239.1" y2="560.3" stroke="#bcd0f0" stroke-width="0.6" opacity="0.32"/><line x1="221.8" y1="536" x2="239.1" y2="553.3" stroke="#bcd0f0" stroke-width="0.6" opacity="0.32"/><line x1="221.8" y1="529" x2="239.1" y2="546.3" stroke="#bcd0f0" stroke-width="0.6" opacity="0.32"/><line x1="221.8" y1="522" x2="239.1" y2="539.3" stroke="#bcd0f0" stroke-width="0.6" opacity="0.32"/><line x1="221.8" y1="515" x2="239.1" y2="532.3" stroke="#bcd0f0" stroke-width="0.6" opacity="0.32"/><line x1="221.8" y1="508" x2="239.1" y2="525.3" stroke="#bcd0f0" stroke-width="0.6" opacity="0.32"/><line x1="221.8" y1="501" x2="239.1" y2="518.3" stroke="#bcd0f0" stroke-width="0.6" opacity="0.32"/><line x1="221.8" y1="494" x2="239.1" y2="511.3" stroke="#bcd0f0" stroke-width="0.6" opacity="0.32"/><line x1="221.8" y1="487" x2="239.1" y2="504.3" stroke="#bcd0f0" stroke-width="0.6" opacity="0.32"/><line x1="221.8" y1="480" x2="239.1" y2="497.3" stroke="#bcd0f0" stroke-width="0.6" opacity="0.32"/><line x1="221.8" y1="473" x2="239.1" y2="490.3" stroke="#bcd0f0" stroke-width="0.6" opacity="0.32"/><line x1="221.8" y1="466" x2="239.1" y2="483.3" stroke="#bcd0f0" stroke-width="0.6" opacity="0.32"/><line x1="221.8" y1="459" x2="239.1" y2="476.3" stroke="#bcd0f0" stroke-width="0.6" opacity="0.32"/><line x1="221.8" y1="452" x2="239.1" y2="469.3" stroke="#bcd0f0" stroke-width="0.6" opacity="0.32"/><line x1="221.8" y1="445" x2="239.1" y2="462.3" stroke="#bcd0f0" stroke-width="0.6" opacity="0.32"/><line x1="221.8" y1="438" x2="239.1" y2="455.3" stroke="#bcd0f0" stroke-width="0.6" opacity="0.32"/><line x1="221.8" y1="431" x2="239.1" y2="448.3" stroke="#bcd0f0" stroke-width="0.6" opacity="0.32"/><line x1="221.8" y1="424" x2="239.1" y2="441.3" stroke="#bcd0f0" stroke-width="0.6" opacity="0.32"/><line x1="222.4" y1="410.6" x2="239.1" y2="427.3" stroke="#bcd0f0" stroke-width="0.6" opacity="0.32"/><line x1="226.8" y1="408.1" x2="239.1" y2="420.3" stroke="#bcd0f0" stroke-width="0.6" opacity="0.32"/><line x1="231.3" y1="405.5" x2="239.1" y2="413.3" stroke="#bcd0f0" stroke-width="0.6" opacity="0.32"/><line x1="235.7" y1="402.9" x2="239.1" y2="406.3" stroke="#bcd0f0" stroke-width="0.6" opacity="0.32"/><ellipse cx="649.6" cy="646" rx="6" ry="6" fill="#0c1420" stroke="#3fb6ff" stroke-width="1.4"/><ellipse cx="649.6" cy="646" rx="2.4" ry="2.4" fill="#7fd4ff" opacity="0.85"/><ellipse cx="230.4" cy="646" rx="6" ry="6" fill="#0c1420" stroke="#3fb6ff" stroke-width="1.4"/><ellipse cx="230.4" cy="646" rx="2.4" ry="2.4" fill="#7fd4ff" opacity="0.85"/><ellipse cx="649.6" cy="586" rx="6" ry="6" fill="#0c1420" stroke="#3fb6ff" stroke-width="1.4"/><ellipse cx="649.6" cy="586" rx="2.4" ry="2.4" fill="#7fd4ff" opacity="0.85"/><ellipse cx="230.4" cy="586" rx="6" ry="6" fill="#0c1420" stroke="#3fb6ff" stroke-width="1.4"/><ellipse cx="230.4" cy="586" rx="2.4" ry="2.4" fill="#7fd4ff" opacity="0.85"/><ellipse cx="649.6" cy="526" rx="6" ry="6" fill="#0c1420" stroke="#3fb6ff" stroke-width="1.4"/><ellipse cx="649.6" cy="526" rx="2.4" ry="2.4" fill="#7fd4ff" opacity="0.85"/><ellipse cx="230.4" cy="526" rx="6" ry="6" fill="#0c1420" stroke="#3fb6ff" stroke-width="1.4"/><ellipse cx="230.4" cy="526" rx="2.4" ry="2.4" fill="#7fd4ff" opacity="0.85"/><ellipse cx="649.6" cy="466" rx="6" ry="6" fill="#0c1420" stroke="#3fb6ff" stroke-width="1.4"/><ellipse cx="649.6" cy="466" rx="2.4" ry="2.4" fill="#7fd4ff" opacity="0.85"/><ellipse cx="230.4" cy="466" rx="6" ry="6" fill="#0c1420" stroke="#3fb6ff" stroke-width="1.4"/><ellipse cx="230.4" cy="466" rx="2.4" ry="2.4" fill="#7fd4ff" opacity="0.85"/><polygon points="239.1,401 214.6,384.9 193.9,367 177.5,347.8 165.5,327.5 158.3,306.4 155.9,285 158.3,263.6 165.5,242.5 177.5,222.2 193.9,203 214.6,185.1 239.1,169 267,154.9 297.9,142.9 331.3,133.4 366.5,126.5 402.9,122.4 440,121 477.1,122.4 513.5,126.5 548.7,133.4 582.1,142.9 613,154.9 640.9,169 665.4,185.1 686.1,203 702.5,222.2 714.5,242.5 721.7,263.6 724.1,285 721.7,306.4 714.5,327.5 702.5,347.8 686.1,367 665.4,384.9 640.9,401 640.9,701 665.4,684.9 686.1,667 702.5,647.8 714.5,627.5 721.7,606.4 724.1,585 721.7,563.6 714.5,542.5 702.5,522.2 686.1,503 665.4,485.1 640.9,469 613,454.9 582.1,442.9 548.7,433.4 513.5,426.5 477.1,422.4 440,421 402.9,422.4 366.5,426.5 331.3,433.4 297.9,442.9 267,454.9 239.1,469 214.6,485.1 193.9,503 177.5,522.2 165.5,542.5 158.3,563.6 155.9,585 158.3,606.4 165.5,627.5 177.5,647.8 193.9,667 214.6,684.9 239.1,701" fill="url(#gInner)" stroke="#9fb2cc" stroke-width="1" opacity="0.9"/><polygon points="239.1,701 214.6,684.9 193.9,667 177.5,647.8 165.5,627.5 158.3,606.4 155.9,585 158.3,563.6 165.5,542.5 177.5,522.2 193.9,503 214.6,485.1 239.1,469 267,454.9 297.9,442.9 331.3,433.4 366.5,426.5 402.9,422.4 440,421 477.1,422.4 513.5,426.5 548.7,433.4 582.1,442.9 613,454.9 640.9,469 665.4,485.1 686.1,503 702.5,522.2 714.5,542.5 721.7,563.6 724.1,585 721.7,606.4 714.5,627.5 702.5,647.8 686.1,667 665.4,684.9 640.9,701 440,585" fill="url(#gFloor)" stroke="#8fa3bd" stroke-width="1" opacity="0.95"/><polygon points="435.9,158.9 434.5,148.8 430.4,139.3 423.7,131.1 414.9,124.4 404.3,119.7 392.4,117.1 380,116.9 367.6,118.9 355.7,123.1 345.1,129.4 336.3,137.3 329.6,146.5 325.5,156.5 324.1,166.8 325.5,177 329.6,186.4 336.3,194.6 345.1,201.3 355.7,206 367.6,208.6 380,208.9 392.4,206.8 404.3,202.6 414.9,196.4 423.7,188.4 430.4,179.2 434.5,169.2 435.9,158.9 458.3,264.2 456.9,274.5 452.8,284.5 446.1,293.7 437.3,301.6 426.6,307.9 414.8,312.1 402.4,314.1 389.9,313.9 378.1,311.3 367.5,306.6 358.7,299.9 352,291.7 347.9,282.2 346.5,272.1 347.9,261.8 352,251.8 358.7,242.6 367.5,234.6 378.1,228.4 389.9,224.2 402.4,222.1 414.8,222.4 426.6,225 437.3,229.7 446.1,236.4 452.8,244.6 456.9,254 458.3,264.2" fill="url(#gMetSide)" stroke="#b9c8dd" stroke-width="1.3" opacity="0.9"/><polygon points="435.9,158.9 434.5,148.8 430.4,139.3 423.7,131.1 414.9,124.4 404.3,119.7 392.4,117.1 380,116.9 367.6,118.9 355.7,123.1 345.1,129.4 336.3,137.3 329.6,146.5 325.5,156.5 324.1,166.8 325.5,177 329.6,186.4 336.3,194.6 345.1,201.3 355.7,206 367.6,208.6 380,208.9 392.4,206.8 404.3,202.6 414.9,196.4 423.7,188.4 430.4,179.2 434.5,169.2 435.9,158.9" fill="url(#gMetTop)" stroke="#d7e3f4" stroke-width="1.4"/><polygon points="414.7,160.4 413.8,154.1 411.2,148.3 407.1,143.2 401.6,139 395,136.1 387.7,134.5 380,134.3 372.3,135.6 365,138.2 358.4,142.1 352.9,147 348.8,152.7 346.2,158.9 345.3,165.3 346.2,171.6 348.8,177.5 352.9,182.6 358.4,186.7 365,189.6 372.3,191.2 380,191.4 387.7,190.1 395,187.5 401.6,183.6 407.1,178.7 411.2,173 413.8,166.8 414.7,160.4" fill="#0c1622" stroke="#5b7a9a" stroke-width="1.2"/><circle cx="425.9" cy="159.6" r="2.4" fill="#dfe9f6" opacity="0.85"/><circle cx="412.4" cy="133.9" r="2.4" fill="#dfe9f6" opacity="0.85"/><circle cx="380" cy="125.1" r="2.4" fill="#dfe9f6" opacity="0.85"/><circle cx="347.6" cy="138.5" r="2.4" fill="#dfe9f6" opacity="0.85"/><circle cx="334.1" cy="166.1" r="2.4" fill="#dfe9f6" opacity="0.85"/><circle cx="347.6" cy="191.8" r="2.4" fill="#dfe9f6" opacity="0.85"/><circle cx="380" cy="200.6" r="2.4" fill="#dfe9f6" opacity="0.85"/><circle cx="412.4" cy="187.2" r="2.4" fill="#dfe9f6" opacity="0.85"/><polygon points="310.1,564 300.3,557.9 291.4,551.3 283.4,544.4 276.3,537.2 270.3,529.6 265.3,521.8 261.4,513.8 258.6,505.6 256.9,497.3 256.3,489 256.9,480.7 258.6,472.4 261.4,464.2 265.3,456.2 270.3,448.4 276.3,440.8 283.4,433.6 291.4,426.7 300.3,420.1 310.1,414 320.7,408.3 332,403.2 344,398.6 356.6,394.5 369.7,391 383.2,388.1 397.1,385.9 411.3,384.2 425.6,383.3 440,382.9 454.4,383.3 468.7,384.2 482.9,385.9 496.8,388.1 510.3,391 523.4,394.5 536,398.6 548,403.2 559.3,408.3 569.9,414 579.7,420.1 588.6,426.7 596.6,433.6 603.7,440.8 609.7,448.4 614.7,456.2 618.6,464.2 621.4,472.4 623.1,480.7 623.7,489 623.1,497.3 621.4,505.6 618.6,513.8 614.7,521.8 609.7,529.6 603.7,537.2 596.6,544.4 588.6,551.3 579.7,557.9 569.9,564 569.9,656 579.7,649.9 588.6,643.3 596.6,636.4 603.7,629.2 609.7,621.6 614.7,613.8 618.6,605.8 621.4,597.6 623.1,589.3 623.7,581 623.1,572.7 621.4,564.4 618.6,556.2 614.7,548.2 609.7,540.4 603.7,532.8 596.6,525.6 588.6,518.7 579.7,512.1 569.9,506 559.3,500.3 548,495.2 536,490.6 523.4,486.5 510.3,483 496.8,480.1 482.9,477.9 468.7,476.2 454.4,475.3 440,474.9 425.6,475.3 411.3,476.2 397.1,477.9 383.2,480.1 369.7,483 356.6,486.5 344,490.6 332,495.2 320.7,500.3 310.1,506 300.3,512.1 291.4,518.7 283.4,525.6 276.3,532.8 270.3,540.4 265.3,548.2 261.4,556.2 258.6,564.4 256.9,572.7 256.3,581 256.9,589.3 258.6,597.6 261.4,605.8 265.3,613.8 270.3,621.6 276.3,629.2 283.4,636.4 291.4,643.3 300.3,649.9 310.1,656" fill="url(#gEscSide)" opacity="1.0" stroke="#7f6a9a" stroke-width="1.1"/><polygon points="379.4,590 373.2,586.1 367.9,581.8 363.3,577.2 359.7,572.3 356.9,567.2 355.1,562 354.3,556.8 354.5,551.5 355.6,546.2 357.7,541.1 360.8,536.1 364.8,531.3 369.6,526.8 375.2,522.6 381.6,518.8 388.6,515.4 396.3,512.4 404.4,510 412.9,508 421.8,506.6 430.8,505.8 440,505.5 449.2,505.8 458.2,506.6 467.1,508 475.6,510 483.7,512.4 491.4,515.4 498.4,518.8 504.8,522.6 510.4,526.8 515.2,531.3 519.2,536.1 522.3,541.1 524.4,546.2 525.5,551.5 525.7,556.8 524.9,562 523.1,567.2 520.3,572.3 516.7,577.2 512.1,581.8 506.8,586.1 500.6,590 500.6,622 506.8,618.1 512.1,613.8 516.7,609.2 520.3,604.3 523.1,599.2 524.9,594 525.7,588.8 525.5,583.5 524.4,578.2 522.3,573.1 519.2,568.1 515.2,563.3 510.4,558.8 504.8,554.6 498.4,550.8 491.4,547.4 483.7,544.4 475.6,542 467.1,540 458.2,538.6 449.2,537.8 440,537.5 430.8,537.8 421.8,538.6 412.9,540 404.4,542 396.3,544.4 388.6,547.4 381.6,550.8 375.2,554.6 369.6,558.8 364.8,563.3 360.8,568.1 357.7,573.1 355.6,578.2 354.5,583.5 354.3,588.8 355.1,594 356.9,599.2 359.7,604.3 363.3,609.2 367.9,613.8 373.2,618.1 379.4,622" fill="url(#gMetSide)" opacity="1.0" stroke="#8a9ab0" stroke-width="1.1"/><polygon points="569.9,564 546.7,575.3 520.7,584.3 492.4,590.7 462.7,594.3 432.4,595 402.3,592.8 373.2,587.8 346,580.1 321.3,569.9 299.8,557.6 282.2,543.3 268.9,527.6 260.2,510.8 256.5,493.4 257.7,475.9 263.9,458.7 275,442.4 290.5,427.4 310.1,414 333.3,402.7 359.3,393.7 387.6,387.3 417.3,383.7 447.6,383 477.7,385.2 506.8,390.2 534,397.9 558.7,408.1 580.2,420.4 597.8,434.7 611.1,450.4 619.8,467.2 623.5,484.6 622.3,502.1 616.1,519.3 605,535.6 589.5,550.6 569.9,564" fill="url(#gEscTop)" stroke="#c9b6e6" stroke-width="1.3"/><polygon points="543.9,548.6 524.3,558.1 502.1,565.5 478,570.6 452.8,573.1 427.2,573.1 402,570.6 377.9,565.5 355.7,558.1 336.1,548.6 319.6,537.3 306.8,524.5 298,510.6 293.6,496 293.6,481.2 298,466.6 306.8,452.7 319.6,439.9 336.1,428.6 355.7,419.1 377.9,411.7 402,406.6 427.2,404.1 452.8,404.1 478,406.6 502.1,411.7 524.3,419.1 543.9,428.6 560.4,439.9 573.2,452.7 582,466.6 586.4,481.2 586.4,496 582,510.6 573.2,524.5 560.4,537.3 543.9,548.6" fill="none" stroke="#a98fd6" stroke-width="1" opacity="0.6"/><polygon points="516.2,532.6 501.8,539.6 485.5,545 467.9,548.7 449.4,550.6 430.6,550.6 412.1,548.7 394.5,545 378.2,539.6 363.8,532.6 351.7,524.3 342.3,514.9 335.9,504.7 332.6,494 332.6,483.2 335.9,472.5 342.3,462.3 351.7,452.9 363.8,444.6 378.2,437.6 394.5,432.2 412.1,428.5 430.6,426.6 449.4,426.6 467.9,428.5 485.5,432.2 501.8,437.6 516.2,444.6 528.3,452.9 537.7,462.3 544.1,472.5 547.4,483.2 547.4,494 544.1,504.7 537.7,514.9 528.3,524.3 516.2,532.6" fill="none" stroke="#a98fd6" stroke-width="1" opacity="0.6"/><polygon points="486.8,515.6 477.9,519.9 467.9,523.2 457.1,525.5 445.8,526.6 434.2,526.6 422.9,525.5 412.1,523.2 402.1,519.9 393.2,515.6 385.8,510.5 380.1,504.7 376.1,498.5 374.1,491.9 374.1,485.3 376.1,478.7 380.1,472.5 385.8,466.7 393.2,461.6 402.1,457.3 412.1,454 422.9,451.7 434.2,450.6 445.8,450.6 457.1,451.7 467.9,454 477.9,457.3 486.8,461.6 494.2,466.7 499.9,472.5 503.9,478.7 505.9,485.3 505.9,491.9 503.9,498.5 499.9,504.7 494.2,510.5 486.8,515.6" fill="none" stroke="#a98fd6" stroke-width="1" opacity="0.6"/><line x1="440" y1="587" x2="440" y2="489" stroke="#ffd27f" stroke-width="1.6" opacity="0.5"/><polygon points="569.9,556 546.7,567.3 520.7,576.3 492.4,582.7 462.7,586.3 432.4,587 402.3,584.8 373.2,579.8 346,572.1 321.3,561.9 299.8,549.6 282.2,535.3 268.9,519.6 260.2,502.8 256.5,485.4 257.7,467.9 263.9,450.7 275,434.4 290.5,419.4 310.1,406 333.3,394.7 359.3,385.7 387.6,379.3 417.3,375.7 447.6,375 477.7,377.2 506.8,382.2 534,389.9 558.7,400.1 580.2,412.4 597.8,426.7 611.1,442.4 619.8,459.2 623.5,476.6 622.3,494.1 616.1,511.3 605,527.6 589.5,542.6 569.9,556 554.3,547 571.6,535.2 585.2,522 594.9,507.6 600.4,492.5 601.5,477.1 598.2,461.8 590.6,447.1 578.9,433.2 563.4,420.7 544.5,409.8 522.8,400.8 498.8,394 473.2,389.6 446.7,387.7 420,388.4 393.9,391.5 369,397.1 346.1,405 325.7,415 308.4,426.8 294.8,440 285.1,454.4 279.6,469.5 278.5,484.9 281.8,500.2 289.4,514.9 301.1,528.8 316.6,541.3 335.5,552.2 357.2,561.2 381.2,568 406.8,572.4 433.3,574.3 460,573.6 486.1,570.5 511,564.9 533.9,557 554.3,547" fill="url(#gRing)" stroke="#8f7d5a" stroke-width="1" opacity="0.95"/><polygon points="554.3,547 533.9,557 511,564.9 486.1,570.5 460,573.6 433.3,574.3 406.8,572.4 381.2,568 357.2,561.2 335.5,552.2 316.6,541.3 301.1,528.8 289.4,514.9 281.8,500.2 278.5,484.9 279.6,469.5 285.1,454.4 294.8,440 308.4,426.8 325.7,415 346.1,405 369,397.1 393.9,391.5 420,388.4 446.7,387.7 473.2,389.6 498.8,394 522.8,400.8 544.5,409.8 563.4,420.7 578.9,433.2 590.6,447.1 598.2,461.8 601.5,477.1 600.4,492.5 594.9,507.6 585.2,522 571.6,535.2 554.3,547" fill="url(#gWafer)" stroke="#5b6f86" stroke-width="1.2"/><polygon points="330.7,463.8 333.7,458.4 337.4,453.1 342,448 347.3,443.2 353.3,438.7 360,434.5 367.3,430.6 375.1,427.2 383.4,424.1 392.2,421.5 401.3,419.3 410.7,417.6 420.3,416.4 430.1,415.6 440,415.4 449.9,415.6 459.7,416.4 469.3,417.6 478.7,419.3 487.8,421.5 496.6,424.1 504.9,427.2 512.7,430.6 520,434.5 526.7,438.7 532.7,443.2 538,448 542.6,453.1 546.3,458.4 549.3,463.8 551.4,469.4 552.7,475 553.2,480.7 552.7,486.4 551.4,492 549.3,497.6" fill="none" stroke="#dff0ff" stroke-width="1.4" opacity="0.5"/><polygon points="378.5,464.1 381.4,460.9 384.8,457.8 388.8,455 393.1,452.3 397.9,449.9 403,447.8 408.5,446 414.2,444.4 420.1,443.2 426.3,442.3 432.5,441.7 438.8,441.5 445.1,441.6 451.4,442.1 457.6,442.8 463.6,443.9 469.4,445.4 475,447.1 480.2,449.1 485.1,451.4 489.7,454 493.7,456.7 497.4,459.7 500.5,462.9 503.1,466.2 505.2,469.7 506.7,473.2 507.6,476.8 507.9,480.5 507.6,484.1" fill="none" stroke="#bfe0ff" stroke-width="1" opacity="0.4"/><ellipse cx="440" cy="331" rx="205" ry="150" fill="url(#gPlasma)" opacity="0.55"/><ellipse cx="440" cy="331" rx="150" ry="110" fill="url(#gPlasma)" opacity="0.6"/><ellipse cx="440" cy="331" rx="96" ry="70" fill="url(#gPlasmaCore)" opacity="0.85"/><ellipse cx="440" cy="331" rx="44" ry="32" fill="#ffd9fb" opacity="0.85"/><circle cx="410.5" cy="366.2" r="1.2" fill="#ffffff" opacity="0.89"/><circle cx="547.7" cy="374.2" r="1.6" fill="#ffffff" opacity="0.63"/><circle cx="367.4" cy="355.5" r="2.4" fill="#ffffff" opacity="0.89"/><circle cx="497.2" cy="364.6" r="1.2" fill="#ffb0f4" opacity="0.62"/><circle cx="462.9" cy="405.5" r="1.6" fill="#ff9df0" opacity="0.75"/><circle cx="315.7" cy="311.6" r="1.6" fill="#ffffff" opacity="0.8"/><circle cx="373.3" cy="283.6" r="1.2" fill="#ffffff" opacity="0.82"/><circle cx="316.1" cy="332.7" r="2.0" fill="#ffb0f4" opacity="0.8"/><circle cx="350.9" cy="347.1" r="1.6" fill="#ffd6fb" opacity="0.63"/><circle cx="402.9" cy="398.9" r="2.0" fill="#ffb0f4" opacity="0.7"/><circle cx="498" cy="326.7" r="2.4" fill="#ffd6fb" opacity="0.86"/><circle cx="508.7" cy="388.9" r="1.2" fill="#ffffff" opacity="0.87"/><circle cx="297.4" cy="288.9" r="2.0" fill="#ff9df0" opacity="0.84"/><circle cx="332.6" cy="287.8" r="2.4" fill="#ffffff" opacity="0.89"/><circle cx="550.1" cy="307.2" r="1.2" fill="#ffffff" opacity="0.86"/><circle cx="392.7" cy="402.8" r="2.4" fill="#ff9df0" opacity="0.85"/><circle cx="516" cy="292" r="2.4" fill="#ff9df0" opacity="0.66"/><circle cx="470.6" cy="347.5" r="2.0" fill="#ffd6fb" opacity="0.86"/><circle cx="309.6" cy="389.1" r="2.4" fill="#ffffff" opacity="0.66"/><circle cx="367" cy="362" r="1.6" fill="#ffb0f4" opacity="0.9"/><polygon points="563,518 541.1,528.7 516.4,537.2 489.6,543.2 461.5,546.6 432.8,547.3 404.3,545.3 376.8,540.5 351,533.3 327.6,523.6 307.3,511.9 290.6,498.4 278,483.5 269.8,467.6 266.2,451.1 267.4,434.6 273.3,418.3 283.8,402.9 298.5,388.7 317,376 338.9,365.3 363.6,356.8 390.4,350.8 418.5,347.4 447.2,346.7 475.7,348.7 503.2,353.5 529,360.7 552.4,370.4 572.7,382.1 589.4,395.6 602,410.5 610.2,426.4 613.8,442.9 612.6,459.4 606.7,475.7 596.2,491.1 581.5,505.3 563,518" fill="none" stroke="#8fd8ff" stroke-width="1.4" opacity="0.55" stroke-dasharray="6 5"/><line x1="492" y1="327" x2="492" y2="383" stroke="#5df0ff" stroke-width="1.8" opacity="0.8"/><polygon points="492,383 488,377 496,377" fill="#5df0ff" opacity="0.85"/><line x1="543.9" y1="357" x2="543.9" y2="413" stroke="#5df0ff" stroke-width="1.8" opacity="0.8"/><polygon points="543.9,413 539.9,407 547.9,407" fill="#5df0ff" opacity="0.85"/><line x1="388" y1="327" x2="388" y2="383" stroke="#5df0ff" stroke-width="1.8" opacity="0.8"/><polygon points="388,383 384,377 392,377" fill="#5df0ff" opacity="0.85"/><line x1="440" y1="357" x2="440" y2="413" stroke="#5df0ff" stroke-width="1.8" opacity="0.8"/><polygon points="440,413 436,407 444,407" fill="#5df0ff" opacity="0.85"/><line x1="492" y1="387" x2="492" y2="443" stroke="#5df0ff" stroke-width="1.8" opacity="0.8"/><polygon points="492,443 488,437 496,437" fill="#5df0ff" opacity="0.85"/><line x1="370.7" y1="367" x2="370.7" y2="423" stroke="#5df0ff" stroke-width="1.8" opacity="0.8"/><polygon points="370.7,423 366.7,417 374.7,417" fill="#5df0ff" opacity="0.85"/><line x1="422.7" y1="397" x2="422.7" y2="453" stroke="#5df0ff" stroke-width="1.8" opacity="0.8"/><polygon points="422.7,453 418.7,447 426.7,447" fill="#5df0ff" opacity="0.85"/><line x1="362.1" y1="402" x2="362.1" y2="458" stroke="#5df0ff" stroke-width="1.8" opacity="0.8"/><polygon points="362.1,458 358.1,452 366.1,452" fill="#5df0ff" opacity="0.85"/><polygon points="252.9,419 230.1,404 210.9,387.4 195.6,369.4 184.5,350.5 177.7,330.9 175.5,311 177.7,291.1 184.5,271.5 195.6,252.6 210.9,234.6 230.1,218 252.9,203 279,189.8 307.7,178.7 338.8,169.9 371.5,163.5 405.5,159.6 440,158.3 474.5,159.6 508.5,163.5 541.2,169.9 572.3,178.7 601,189.8 627.1,203 649.9,218 669.1,234.6 684.4,252.6 695.5,271.5 702.3,291.1 704.5,311 702.3,330.9 695.5,350.5 684.4,369.4 669.1,387.4 649.9,404 627.1,419" fill="none" stroke="#9fe0d8" stroke-width="4" opacity="0.7"/><polygon points="252.9,419 230.1,404 210.9,387.4 195.6,369.4 184.5,350.5 177.7,330.9 175.5,311 177.7,291.1 184.5,271.5 195.6,252.6 210.9,234.6 230.1,218 252.9,203 279,189.8 307.7,178.7 338.8,169.9 371.5,163.5 405.5,159.6 440,158.3 474.5,159.6 508.5,163.5 541.2,169.9 572.3,178.7 601,189.8 627.1,203 649.9,218 669.1,234.6 684.4,252.6 695.5,271.5 702.3,291.1 704.5,311 702.3,330.9 695.5,350.5 684.4,369.4 669.1,387.4 649.9,404 627.1,419" fill="none" stroke="#e8fffb" stroke-width="1.2" opacity="0.6"/><circle cx="223.3" cy="398.6" r="2.2" fill="#d9fff8"/><line x1="223.3" y1="398.6" x2="245" y2="403.8" stroke="#bfeee6" stroke-width="1" opacity="0.45"/><circle cx="178.7" cy="334.9" r="2.2" fill="#d9fff8"/><line x1="178.7" y1="334.9" x2="204.8" y2="346.5" stroke="#bfeee6" stroke-width="1" opacity="0.45"/><circle cx="187" cy="266.3" r="2.2" fill="#d9fff8"/><line x1="187" y1="266.3" x2="212.3" y2="284.8" stroke="#bfeee6" stroke-width="1" opacity="0.45"/><circle cx="246.5" cy="206.8" r="2.2" fill="#d9fff8"/><line x1="246.5" y1="206.8" x2="265.9" y2="231.3" stroke="#bfeee6" stroke-width="1" opacity="0.45"/><circle cx="345.2" cy="168.4" r="2.2" fill="#d9fff8"/><line x1="345.2" y1="168.4" x2="354.7" y2="196.7" stroke="#bfeee6" stroke-width="1" opacity="0.45"/><circle cx="463.1" cy="158.8" r="2.2" fill="#d9fff8"/><line x1="463.1" y1="158.8" x2="460.8" y2="188.1" stroke="#bfeee6" stroke-width="1" opacity="0.45"/><circle cx="576.2" cy="180.1" r="2.2" fill="#d9fff8"/><line x1="576.2" y1="180.1" x2="562.6" y2="207.2" stroke="#bfeee6" stroke-width="1" opacity="0.45"/><circle cx="661.9" cy="227.8" r="2.2" fill="#d9fff8"/><line x1="661.9" y1="227.8" x2="639.7" y2="250.1" stroke="#bfeee6" stroke-width="1" opacity="0.45"/><circle cx="702.6" cy="292.4" r="2.2" fill="#d9fff8"/><line x1="702.6" y1="292.4" x2="676.3" y2="308.2" stroke="#bfeee6" stroke-width="1" opacity="0.45"/><circle cx="690.1" cy="360.7" r="2.2" fill="#d9fff8"/><line x1="690.1" y1="360.7" x2="665.1" y2="369.8" stroke="#bfeee6" stroke-width="1" opacity="0.45"/><polygon points="221.8,401 195.2,383.5 172.7,364.1 154.9,343.2 141.9,321.1 134,298.3 131.4,275 134,251.7 141.9,228.9 154.9,206.8 172.7,185.9 195.2,166.5 221.8,149 252.1,133.6 285.7,120.7 321.9,110.4 360.1,102.9 399.7,98.3 440,96.8 480.3,98.3 519.9,102.9 558.1,110.4 594.3,120.7 627.9,133.6 658.2,149 684.8,166.5 707.3,185.9 725.1,206.8 738.1,228.9 746,251.7 748.6,275 746,298.3 738.1,321.1 725.1,343.2 707.3,364.1 684.8,383.5 658.2,401 440,275" fill="url(#gWindow)" stroke="#bfe6ff" stroke-width="1.6" opacity="0.5"/><polygon points="221.8,401 195.2,383.5 172.7,364.1 154.9,343.2 141.9,321.1 134,298.3 131.4,275 134,251.7 141.9,228.9 154.9,206.8 172.7,185.9 195.2,166.5 221.8,149 252.1,133.6 285.7,120.7 321.9,110.4 360.1,102.9 399.7,98.3 440,96.8 480.3,98.3 519.9,102.9 558.1,110.4 594.3,120.7 627.9,133.6 658.2,149 684.8,166.5 707.3,185.9 725.1,206.8 738.1,228.9 746,251.7 748.6,275 746,298.3 738.1,321.1 725.1,343.2 707.3,364.1 684.8,383.5 658.2,401" fill="none" stroke="#dff2ff" stroke-width="1.4" opacity="0.55"/><line x1="440" y1="275" x2="658.2" y2="401" stroke="#dff2ff" stroke-width="1.4" opacity="0.55"/><line x1="440" y1="275" x2="221.8" y2="401" stroke="#dff2ff" stroke-width="1.4" opacity="0.55"/><polyline points="649.6,388 583.5,415 508,430.4 428.7,433.4 351.7,424 282.7,403 226.6,372.2 187.6,334.2 168.1,291.9 169.2,248.5 190.5,207.3 230,171.4 284.4,143.3 349.3,125 419.6,117.6 490.1,121.5 555.4,136.2 610.8,160.3 652.3,191.9 677.1,228.4 683.7,267 672,304.8 643.3,338.9 600.1,367 545.9,387 485,397.6 422.1,398.2 362,389 309.1,371 267.2,345.6 239.2,315 226.7,281.6 230.5,247.8 249.8,216.4 282.7,189.4 326.5,169 377.7,156.3 432.2,152.2 485.8,156.8 534.6,169.4 575.1,189 604.4,213.8 620.7,242 623,271.2 611.7,299.2 587.9,324.1 553.8,343.9 512.3,357.5 466.6,363.9 420.3,363 377,354.9 339.7,340.5 311,321.1 292.9,298.3 286.3,274 291.4,249.9 307.3,228 332.6,209.7 364.9,196.3 401.7,188.6 440,187.1 476.9,191.6 509.6,201.5 535.8,215.9 553.9,233.5 562.8,252.9 562.2,272.6 552.5,291 534.9,306.8 511,319 482.9,326.8 452.9,329.7 423.3,327.9 396.4,321.6 374.1,311.6 357.8,298.7 348.4,284.2 346.4,269.1 351.5,254.7 362.9,242.1 379.4,232" fill="none" stroke="#3a1e12" stroke-width="9" opacity="0.5" stroke-linecap="round" stroke-linejoin="round"/><polyline points="649.6,384 583.5,411 508,426.4 428.7,429.4 351.7,420 282.7,399 226.6,368.2 187.6,330.2 168.1,287.9 169.2,244.5 190.5,203.3 230,167.4 284.4,139.3 349.3,121 419.6,113.6 490.1,117.5 555.4,132.2 610.8,156.3 652.3,187.9 677.1,224.4 683.7,263 672,300.8 643.3,334.9 600.1,363 545.9,383 485,393.6 422.1,394.2 362,385 309.1,367 267.2,341.6 239.2,311 226.7,277.6 230.5,243.8 249.8,212.4 282.7,185.4 326.5,165 377.7,152.3 432.2,148.2 485.8,152.8 534.6,165.4 575.1,185 604.4,209.8 620.7,238 623,267.2 611.7,295.2 587.9,320.1 553.8,339.9 512.3,353.5 466.6,359.9 420.3,359 377,350.9 339.7,336.5 311,317.1 292.9,294.3 286.3,270 291.4,245.9 307.3,224 332.6,205.7 364.9,192.3 401.7,184.6 440,183.1 476.9,187.6 509.6,197.5 535.8,211.9 553.9,229.5 562.8,248.9 562.2,268.6 552.5,287 534.9,302.8 511,315 482.9,322.8 452.9,325.7 423.3,323.9 396.4,317.6 374.1,307.6 357.8,294.7 348.4,280.2 346.4,265.1 351.5,250.7 362.9,238.1 379.4,228" fill="none" stroke="url(#gCop)" stroke-width="8" opacity="0.95" stroke-linecap="round" stroke-linejoin="round"/><polyline points="649.6,382 583.5,409 508,424.4 428.7,427.4 351.7,418 282.7,397 226.6,366.2 187.6,328.2 168.1,285.9 169.2,242.5 190.5,201.3 230,165.4 284.4,137.3 349.3,119 419.6,111.6 490.1,115.5 555.4,130.2 610.8,154.3 652.3,185.9 677.1,222.4 683.7,261 672,298.8 643.3,332.9 600.1,361 545.9,381 485,391.6 422.1,392.2 362,383 309.1,365 267.2,339.6 239.2,309 226.7,275.6 230.5,241.8 249.8,210.4 282.7,183.4 326.5,163 377.7,150.3 432.2,146.2 485.8,150.8 534.6,163.4 575.1,183 604.4,207.8 620.7,236 623,265.2 611.7,293.2 587.9,318.1 553.8,337.9 512.3,351.5 466.6,357.9 420.3,357 377,348.9 339.7,334.5 311,315.1 292.9,292.3 286.3,268 291.4,243.9 307.3,222 332.6,203.7 364.9,190.3 401.7,182.6 440,181.1 476.9,185.6 509.6,195.5 535.8,209.9 553.9,227.5 562.8,246.9 562.2,266.6 552.5,285 534.9,300.8 511,313 482.9,320.8 452.9,323.7 423.3,321.9 396.4,315.6 374.1,305.6 357.8,292.7 348.4,278.2 346.4,263.1 351.5,248.7 362.9,236.1 379.4,226" fill="none" stroke="#ffd9a8" stroke-width="2.2" opacity="0.7" stroke-linecap="round" stroke-linejoin="round"/><line x1="649.6" y1="384" x2="683.6" y2="370" stroke="url(#gCop)" stroke-width="7" stroke-linecap="round"/><polygon points="221.8,411 195.2,393.5 172.7,374.1 154.9,353.2 141.9,331.1 134,308.3 131.4,285 134,261.7 141.9,238.9 154.9,216.8 172.7,195.9 195.2,176.5 221.8,159 252.1,143.6 285.7,130.7 321.9,120.4 360.1,112.9 399.7,108.3 440,106.8 480.3,108.3 519.9,112.9 558.1,120.4 594.3,130.7 627.9,143.6 658.2,159 684.8,176.5 707.3,195.9 725.1,216.8 738.1,238.9 746,261.7 748.6,285 746,308.3 738.1,331.1 725.1,353.2 707.3,374.1 684.8,393.5 658.2,411" fill="none" stroke="#eaf3ff" stroke-width="1.2" opacity="0.5"/><line x1="440" y1="625" x2="440" y2="225" stroke="#d7e3f4" stroke-width="0.6" opacity="0.3" stroke-dasharray="4 6"/></svg><circle cx="737.5" cy="246.0" r="2.6" fill="#ff5df0" opacity="0.9"/><path d="M 737.5 246.0 L 268 273.4" stroke="#d7e3f4" stroke-width="0.9" opacity="0.5" fill="none"/><text x="256" y="277.4" text-anchor="end" font-family="'Pretendard Variable',Pretendard,'Malgun Gothic',sans-serif" font-size="19" font-weight="600" fill="#e8eef7" fill-opacity="0.95">유전체 창</text><text x="256" y="297.4" text-anchor="end" font-family="'IBM Plex Mono','JetBrains Mono',ui-monospace,Consolas,monospace" font-size="11" letter-spacing="1.2" fill="#93a4bd" fill-opacity="0.75">WINDOW</text><circle cx="953.1" cy="403.5" r="2.6" fill="#ff5df0" opacity="0.9"/><path d="M 953.1 403.5 L 1332 397.5" stroke="#d7e3f4" stroke-width="0.9" opacity="0.5" fill="none"/><text x="1344" y="401.5" text-anchor="start" font-family="'Pretendard Variable',Pretendard,'Malgun Gothic',sans-serif" font-size="19" font-weight="600" fill="#e8eef7" fill-opacity="0.95">ICP 코일</text><text x="1344" y="421.5" text-anchor="start" font-family="'IBM Plex Mono','JetBrains Mono',ui-monospace,Consolas,monospace" font-size="11" letter-spacing="1.2" fill="#93a4bd" fill-opacity="0.75">COPPER COIL</text><circle cx="791.2" cy="361.3" r="2.6" fill="#ff5df0" opacity="0.9"/><path d="M 791.2 361.3 L 268 405.4" stroke="#d7e3f4" stroke-width="0.9" opacity="0.5" fill="none"/><text x="256" y="409.4" text-anchor="end" font-family="'Pretendard Variable',Pretendard,'Malgun Gothic',sans-serif" font-size="19" font-weight="600" fill="#e8eef7" fill-opacity="0.95">플라즈마 벌크</text><text x="256" y="429.4" text-anchor="end" font-family="'IBM Plex Mono','JetBrains Mono',ui-monospace,Consolas,monospace" font-size="11" letter-spacing="1.2" fill="#93a4bd" fill-opacity="0.75">PLASMA BULK</text><circle cx="668.9" cy="465.1" r="2.6" fill="#ff5df0" opacity="0.9"/><path d="M 668.9 465.1 L 268 603.4" stroke="#d7e3f4" stroke-width="0.9" opacity="0.5" fill="none"/><text x="256" y="607.4" text-anchor="end" font-family="'Pretendard Variable',Pretendard,'Malgun Gothic',sans-serif" font-size="19" font-weight="600" fill="#e8eef7" fill-opacity="0.95">정전 척</text><text x="256" y="627.4" text-anchor="end" font-family="'IBM Plex Mono','JetBrains Mono',ui-monospace,Consolas,monospace" font-size="11" letter-spacing="1.2" fill="#93a4bd" fill-opacity="0.75">ESC</text><circle cx="851.9" cy="493.3" r="2.6" fill="#ff5df0" opacity="0.9"/><path d="M 851.9 493.3 L 1332 487.3" stroke="#d7e3f4" stroke-width="0.9" opacity="0.5" fill="none"/><text x="1344" y="491.3" text-anchor="start" font-family="'Pretendard Variable',Pretendard,'Malgun Gothic',sans-serif" font-size="19" font-weight="600" fill="#e8eef7" fill-opacity="0.95">웨이퍼</text><text x="1344" y="511.3" text-anchor="start" font-family="'IBM Plex Mono','JetBrains Mono',ui-monospace,Consolas,monospace" font-size="11" letter-spacing="1.2" fill="#93a4bd" fill-opacity="0.75">WAFER</text><circle cx="714.6" cy="422.9" r="2.6" fill="#ff5df0" opacity="0.9"/><path d="M 714.6 422.9 L 268 537.4" stroke="#d7e3f4" stroke-width="0.9" opacity="0.5" fill="none"/><text x="256" y="541.4" text-anchor="end" font-family="'Pretendard Variable',Pretendard,'Malgun Gothic',sans-serif" font-size="19" font-weight="600" fill="#e8eef7" fill-opacity="0.95">포커스 링</text><text x="256" y="561.4" text-anchor="end" font-family="'IBM Plex Mono','JetBrains Mono',ui-monospace,Consolas,monospace" font-size="11" letter-spacing="1.2" fill="#93a4bd" fill-opacity="0.75">EDGE RING</text><circle cx="791.2" cy="405.3" r="2.6" fill="#ff5df0" opacity="0.9"/><path d="M 791.2 405.3 L 268 471.4" stroke="#d7e3f4" stroke-width="0.9" opacity="0.5" fill="none"/><text x="256" y="475.4" text-anchor="end" font-family="'Pretendard Variable',Pretendard,'Malgun Gothic',sans-serif" font-size="19" font-weight="600" fill="#e8eef7" fill-opacity="0.95">수직 이온빔</text><text x="256" y="495.4" text-anchor="end" font-family="'IBM Plex Mono','JetBrains Mono',ui-monospace,Consolas,monospace" font-size="11" letter-spacing="1.2" fill="#93a4bd" fill-opacity="0.75">ION FLUX</text><circle cx="976.0" cy="532.9" r="2.6" fill="#ff5df0" opacity="0.9"/><path d="M 976.0 532.9 L 1332 553.3" stroke="#d7e3f4" stroke-width="0.9" opacity="0.5" fill="none"/><text x="1344" y="557.3" text-anchor="start" font-family="'Pretendard Variable',Pretendard,'Malgun Gothic',sans-serif" font-size="19" font-weight="600" fill="#e8eef7" fill-opacity="0.95">수냉 채널</text><text x="1344" y="577.3" text-anchor="start" font-family="'IBM Plex Mono','JetBrains Mono',ui-monospace,Consolas,monospace" font-size="11" letter-spacing="1.2" fill="#93a4bd" fill-opacity="0.75">COOLING</text><circle cx="738.4" cy="213.4" r="2.6" fill="#ff5df0" opacity="0.9"/><path d="M 738.4 213.4 L 268 207.4" stroke="#d7e3f4" stroke-width="0.9" opacity="0.5" fill="none"/><text x="256" y="211.4" text-anchor="end" font-family="'Pretendard Variable',Pretendard,'Malgun Gothic',sans-serif" font-size="19" font-weight="600" fill="#e8eef7" fill-opacity="0.95">터보펌프 포트</text><text x="256" y="231.4" text-anchor="end" font-family="'IBM Plex Mono','JetBrains Mono',ui-monospace,Consolas,monospace" font-size="11" letter-spacing="1.2" fill="#93a4bd" fill-opacity="0.75">TURBO PORT</text><circle cx="611.7" cy="257.4" r="2.6" fill="#ff5df0" opacity="0.9"/><path d="M 611.7 257.4 L 268 339.4" stroke="#d7e3f4" stroke-width="0.9" opacity="0.5" fill="none"/><text x="256" y="343.4" text-anchor="end" font-family="'Pretendard Variable',Pretendard,'Malgun Gothic',sans-serif" font-size="19" font-weight="600" fill="#e8eef7" fill-opacity="0.95">가스 인젝터 링</text><text x="256" y="363.4" text-anchor="end" font-family="'IBM Plex Mono','JetBrains Mono',ui-monospace,Consolas,monospace" font-size="11" letter-spacing="1.2" fill="#93a4bd" fill-opacity="0.75">GAS RING</text><circle cx="791.2" cy="690.4" r="2.6" fill="#ff5df0" opacity="0.9"/><path d="M 791.2 690.4 L 268 684.4" stroke="#d7e3f4" stroke-width="0.9" opacity="0.5" fill="none"/><text x="256" y="688.4" text-anchor="end" font-family="'Pretendard Variable',Pretendard,'Malgun Gothic',sans-serif" font-size="19" font-weight="600" fill="#e8eef7" fill-opacity="0.95">RF 피드 · 베이스</text><text x="256" y="708.4" text-anchor="end" font-family="'IBM Plex Mono','JetBrains Mono',ui-monospace,Consolas,monospace" font-size="11" letter-spacing="1.2" fill="#93a4bd" fill-opacity="0.75">RF FEED</text><text x="30" y="1042" font-family="'IBM Plex Mono','JetBrains Mono',ui-monospace,Consolas,monospace" font-size="17" font-weight="500" letter-spacing="0.5" fill="#e8eef7" fill-opacity="0.85">FIG. 6-ISO — 쿼터 컷: 마젠타 플라즈마가 웨이퍼를 내리누르는 방</text></svg>