<svg xmlns="http://www.w3.org/2000/svg" viewBox="0 0 1600 1060" role="img"><svg x="404.0" y="70.0" width="792.0" height="880.0" viewBox="0 0 900 1000"><defs><linearGradient id="cuT" x1="0" y1="0" x2="0.6" y2="1"><stop offset="0" stop-color="#efa262"/><stop offset="1" stop-color="#dd8244"/></linearGradient><linearGradient id="cuR" x1="0" y1="0" x2="0" y2="1"><stop offset="0" stop-color="#cf7433"/><stop offset="1" stop-color="#bb6027"/></linearGradient><linearGradient id="cuL" x1="0" y1="0" x2="0" y2="1"><stop offset="0" stop-color="#ab5620"/><stop offset="1" stop-color="#934618"/></linearGradient><linearGradient id="ildT" x1="0" y1="0" x2="0.5" y2="1"><stop offset="0" stop-color="#d6dfe9"/><stop offset="1" stop-color="#c2ccd8"/></linearGradient><linearGradient id="ildR" x1="0" y1="0" x2="0" y2="1"><stop offset="0" stop-color="#b4becc"/><stop offset="1" stop-color="#a1abbb"/></linearGradient><linearGradient id="ildL" x1="0" y1="0" x2="0" y2="1"><stop offset="0" stop-color="#909bab"/><stop offset="1" stop-color="#7d8898"/></linearGradient><linearGradient id="siR" x1="0" y1="0" x2="0" y2="1"><stop offset="0" stop-color="#5a6472"/><stop offset="1" stop-color="#464f5c"/></linearGradient><linearGradient id="siL" x1="0" y1="0" x2="0" y2="1"><stop offset="0" stop-color="#3d4653"/><stop offset="1" stop-color="#2e3641"/></linearGradient><linearGradient id="siT" x1="0" y1="0" x2="0.5" y2="1"><stop offset="0" stop-color="#6d7787"/><stop offset="1" stop-color="#57616f"/></linearGradient><radialGradient id="bump" cx="0.38" cy="0.34" r="0.75"><stop offset="0" stop-color="#f3b277"/><stop offset="0.55" stop-color="#dd8442"/><stop offset="1" stop-color="#9c4d1c"/></radialGradient></defs><ellipse cx="450" cy="872" rx="360" ry="150" fill="#000" opacity="0.16"/><ellipse cx="450" cy="872" rx="300" ry="118" fill="#000" opacity="0.22"/><polygon points="73,722 450,940 450,873 73,656" fill="url(#siL)" stroke="#d7e3f4" stroke-opacity="0.55" stroke-width="1.1"/><polygon points="827,722 450,940 450,873 827,656" fill="url(#siR)" stroke="#d7e3f4" stroke-opacity="0.55" stroke-width="1.1"/><polygon points="450,438 827,656 450,873 73,656" fill="url(#siT)" stroke="#d7e3f4" stroke-opacity="0.55" stroke-width="1.1"/><g stroke="#252d38" stroke-opacity="0.5" stroke-width="0.6"><line x1="827" y1="717" x2="827" y2="664"/><line x1="802" y1="731" x2="802" y2="679"/><line x1="776" y1="746" x2="776" y2="694"/><line x1="751" y1="760" x2="751" y2="708"/><line x1="726" y1="775" x2="726" y2="722"/><line x1="701" y1="789" x2="701" y2="737"/><line x1="676" y1="804" x2="676" y2="752"/><line x1="651" y1="818" x2="651" y2="766"/><line x1="626" y1="833" x2="626" y2="780"/><line x1="601" y1="847" x2="601" y2="795"/><line x1="576" y1="862" x2="576" y2="810"/><line x1="550" y1="876" x2="550" y2="824"/><line x1="525" y1="891" x2="525" y2="838"/><line x1="500" y1="905" x2="500" y2="853"/><line x1="475" y1="920" x2="475" y2="868"/><line x1="450" y1="934" x2="450" y2="882"/></g><g stroke="#1f2731" stroke-opacity="0.55" stroke-width="0.6"><line x1="73" y1="717" x2="73" y2="664"/><line x1="98" y1="731" x2="98" y2="679"/><line x1="124" y1="746" x2="124" y2="694"/><line x1="149" y1="760" x2="149" y2="708"/><line x1="174" y1="775" x2="174" y2="722"/><line x1="199" y1="789" x2="199" y2="737"/><line x1="224" y1="804" x2="224" y2="752"/><line x1="249" y1="818" x2="249" y2="766"/><line x1="274" y1="833" x2="274" y2="780"/><line x1="299" y1="847" x2="299" y2="795"/><line x1="324" y1="862" x2="324" y2="810"/><line x1="350" y1="876" x2="350" y2="824"/><line x1="375" y1="891" x2="375" y2="838"/><line x1="400" y1="905" x2="400" y2="853"/><line x1="425" y1="920" x2="425" y2="868"/><line x1="450" y1="934" x2="450" y2="882"/></g><line x1="827" y1="700" x2="450" y2="917" stroke="#d7e3f4" stroke-opacity="0.3" stroke-width="0.6"/><line x1="73" y1="700" x2="450" y2="917" stroke="#d7e3f4" stroke-opacity="0.3" stroke-width="0.6"/><line x1="827" y1="681" x2="450" y2="899" stroke="#d7e3f4" stroke-opacity="0.3" stroke-width="0.6"/><line x1="73" y1="681" x2="450" y2="899" stroke="#d7e3f4" stroke-opacity="0.3" stroke-width="0.6"/><polygon points="111,634 450,830 450,798 111,602" fill="url(#ildL)" stroke="#d7e3f4" stroke-opacity="0.55" stroke-width="1.1"/><clipPath id="c1"><polygon points="111,634 450,830 450,798 111,602"/></clipPath><g clip-path="url(#c1)" stroke="#26303e" stroke-opacity="0.32" stroke-width="0.6"><line x1="81" y1="233" x2="480" y2="632"/><line x1="81" y1="253" x2="480" y2="652"/><line x1="81" y1="273" x2="480" y2="672"/><line x1="81" y1="293" x2="480" y2="692"/><line x1="81" y1="313" x2="480" y2="712"/><line x1="81" y1="333" x2="480" y2="732"/><line x1="81" y1="353" x2="480" y2="752"/><line x1="81" y1="373" x2="480" y2="772"/><line x1="81" y1="393" x2="480" y2="792"/><line x1="81" y1="413" x2="480" y2="812"/><line x1="81" y1="433" x2="480" y2="832"/><line x1="81" y1="453" x2="480" y2="852"/><line x1="81" y1="473" x2="480" y2="872"/><line x1="81" y1="493" x2="480" y2="892"/><line x1="81" y1="513" x2="480" y2="912"/><line x1="81" y1="533" x2="480" y2="932"/><line x1="81" y1="553" x2="480" y2="952"/><line x1="81" y1="573" x2="480" y2="972"/><line x1="81" y1="593" x2="480" y2="992"/><line x1="81" y1="613" x2="480" y2="1012"/><line x1="81" y1="633" x2="480" y2="1032"/><line x1="81" y1="653" x2="480" y2="1052"/><line x1="81" y1="673" x2="480" y2="1072"/><line x1="81" y1="693" x2="480" y2="1092"/><line x1="81" y1="713" x2="480" y2="1112"/><line x1="81" y1="733" x2="480" y2="1132"/><line x1="81" y1="753" x2="480" y2="1152"/><line x1="81" y1="773" x2="480" y2="1172"/><line x1="81" y1="793" x2="480" y2="1192"/></g><polygon points="789,634 450,830 450,798 789,602" fill="url(#ildR)" stroke="#d7e3f4" stroke-opacity="0.55" stroke-width="1.1"/><clipPath id="c2"><polygon points="789,634 450,830 450,798 789,602"/></clipPath><g clip-path="url(#c2)" stroke="#26303e" stroke-opacity="0.32" stroke-width="0.6"><line x1="420" y1="233" x2="819" y2="632"/><line x1="420" y1="253" x2="819" y2="652"/><line x1="420" y1="273" x2="819" y2="672"/><line x1="420" y1="293" x2="819" y2="692"/><line x1="420" y1="313" x2="819" y2="712"/><line x1="420" y1="333" x2="819" y2="732"/><line x1="420" y1="353" x2="819" y2="752"/><line x1="420" y1="373" x2="819" y2="772"/><line x1="420" y1="393" x2="819" y2="792"/><line x1="420" y1="413" x2="819" y2="812"/><line x1="420" y1="433" x2="819" y2="832"/><line x1="420" y1="453" x2="819" y2="852"/><line x1="420" y1="473" x2="819" y2="872"/><line x1="420" y1="493" x2="819" y2="892"/><line x1="420" y1="513" x2="819" y2="912"/><line x1="420" y1="533" x2="819" y2="932"/><line x1="420" y1="553" x2="819" y2="952"/><line x1="420" y1="573" x2="819" y2="972"/><line x1="420" y1="593" x2="819" y2="992"/><line x1="420" y1="613" x2="819" y2="1012"/><line x1="420" y1="633" x2="819" y2="1032"/><line x1="420" y1="653" x2="819" y2="1052"/><line x1="420" y1="673" x2="819" y2="1072"/><line x1="420" y1="693" x2="819" y2="1092"/><line x1="420" y1="713" x2="819" y2="1112"/><line x1="420" y1="733" x2="819" y2="1132"/><line x1="420" y1="753" x2="819" y2="1152"/><line x1="420" y1="773" x2="819" y2="1172"/><line x1="420" y1="793" x2="819" y2="1192"/></g><g fill="url(#cuR)" stroke="#6f350f" stroke-opacity="0.65" stroke-width="0.6"><polygon points="786,625 758,641 758,622 786,605"/><polygon points="778,638 767,644 767,636 778,630"/><polygon points="752,644 724,661 724,641 752,625"/><polygon points="744,657 733,664 733,656 744,649"/><polygon points="719,664 690,680 690,661 719,644"/><polygon points="710,677 699,683 699,675 710,669"/><polygon points="685,683 656,700 656,680 685,664"/><polygon points="676,697 665,703 665,695 676,689"/><polygon points="651,703 622,720 622,700 651,684"/><polygon points="642,716 631,722 631,714 642,708"/><polygon points="617,723 588,739 588,720 617,703"/><polygon points="608,736 597,742 597,734 608,728"/><polygon points="583,742 554,759 554,739 583,723"/><polygon points="574,755 563,762 563,754 574,747"/><polygon points="549,762 521,778 521,759 549,742"/><polygon points="540,775 529,781 529,773 540,767"/><polygon points="515,781 487,798 487,778 515,762"/><polygon points="506,794 495,801 495,793 506,786"/><polygon points="481,801 453,817 453,798 481,781"/><polygon points="472,814 462,820 462,812 472,806"/></g><g stroke="#f0a866" stroke-opacity="0.55" stroke-width="0.8"><line x1="786" y1="605" x2="758" y2="622"/><line x1="752" y1="625" x2="724" y2="641"/><line x1="719" y1="644" x2="690" y2="661"/><line x1="685" y1="664" x2="656" y2="680"/><line x1="651" y1="684" x2="622" y2="700"/><line x1="617" y1="703" x2="588" y2="720"/><line x1="583" y1="723" x2="554" y2="739"/><line x1="549" y1="742" x2="521" y2="759"/><line x1="515" y1="762" x2="487" y2="778"/><line x1="481" y1="781" x2="453" y2="798"/></g><g fill="url(#cuL)" stroke="#552a0d" stroke-opacity="0.7" stroke-width="0.6"><polygon points="114,625 142,641 142,622 114,605"/><polygon points="122,638 133,644 133,636 122,630"/><polygon points="148,644 176,661 176,641 148,625"/><polygon points="156,657 167,664 167,656 156,649"/><polygon points="181,664 210,680 210,661 181,644"/><polygon points="190,677 201,683 201,675 190,669"/><polygon points="215,683 244,700 244,680 215,664"/><polygon points="224,697 235,703 235,695 224,689"/><polygon points="249,703 278,720 278,700 249,684"/><polygon points="258,716 269,722 269,714 258,708"/><polygon points="283,723 312,739 312,720 283,703"/><polygon points="292,736 303,742 303,734 292,728"/><polygon points="317,742 346,759 346,739 317,723"/><polygon points="326,755 337,762 337,754 326,747"/><polygon points="351,762 379,778 379,759 351,742"/><polygon points="360,775 371,781 371,773 360,767"/><polygon points="385,781 413,798 413,778 385,762"/><polygon points="394,794 405,801 405,793 394,786"/><polygon points="419,801 447,817 447,798 419,781"/><polygon points="428,814 438,820 438,812 428,806"/></g><polyline points="789,634 450,830 111,634" fill="none" stroke="#d7e3f4" stroke-opacity="0.55" stroke-width="1.1"/><polygon points="450,406 789,602 450,798 111,602" fill="url(#ildT)" stroke="#d7e3f4" stroke-opacity="0.55" stroke-width="1.1"/><g fill="url(#cuT)" stroke="#9a5322" stroke-opacity="0.55" stroke-width="0.5"><polygon points="445,410 784,605 761,619 422,423"/><polygon points="411,429 750,625 727,638 388,442"/><polygon points="377,449 716,644 693,658 354,462"/><polygon points="343,468 682,664 659,677 320,482"/><polygon points="309,488 648,684 625,697 286,501"/><polygon points="275,507 614,703 591,716 252,521"/><polygon points="241,527 580,723 557,736 218,540"/><polygon points="207,547 546,742 523,756 184,560"/><polygon points="173,566 512,762 489,775 150,579"/><polygon points="139,586 478,781 455,795 116,599"/></g><polygon points="149,580 450,754 450,720 149,546" fill="url(#ildL)" stroke="#d7e3f4" stroke-opacity="0.55" stroke-width="1.1"/><clipPath id="c3"><polygon points="149,580 450,754 450,720 149,546"/></clipPath><g clip-path="url(#c3)" stroke="#26303e" stroke-opacity="0.32" stroke-width="0.6"><line x1="119" y1="215" x2="480" y2="576"/><line x1="119" y1="235" x2="480" y2="596"/><line x1="119" y1="255" x2="480" y2="616"/><line x1="119" y1="275" x2="480" y2="636"/><line x1="119" y1="295" x2="480" y2="656"/><line x1="119" y1="315" x2="480" y2="676"/><line x1="119" y1="335" x2="480" y2="696"/><line x1="119" y1="355" x2="480" y2="716"/><line x1="119" y1="375" x2="480" y2="736"/><line x1="119" y1="395" x2="480" y2="756"/><line x1="119" y1="415" x2="480" y2="776"/><line x1="119" y1="435" x2="480" y2="796"/><line x1="119" y1="455" x2="480" y2="816"/><line x1="119" y1="475" x2="480" y2="836"/><line x1="119" y1="495" x2="480" y2="856"/><line x1="119" y1="515" x2="480" y2="876"/><line x1="119" y1="535" x2="480" y2="896"/><line x1="119" y1="555" x2="480" y2="916"/><line x1="119" y1="575" x2="480" y2="936"/><line x1="119" y1="595" x2="480" y2="956"/><line x1="119" y1="615" x2="480" y2="976"/><line x1="119" y1="635" x2="480" y2="996"/><line x1="119" y1="655" x2="480" y2="1016"/><line x1="119" y1="675" x2="480" y2="1036"/><line x1="119" y1="695" x2="480" y2="1056"/><line x1="119" y1="715" x2="480" y2="1076"/></g><polygon points="751,580 450,754 450,720 751,546" fill="url(#ildR)" stroke="#d7e3f4" stroke-opacity="0.55" stroke-width="1.1"/><clipPath id="c4"><polygon points="751,580 450,754 450,720 751,546"/></clipPath><g clip-path="url(#c4)" stroke="#26303e" stroke-opacity="0.32" stroke-width="0.6"><line x1="420" y1="215" x2="781" y2="576"/><line x1="420" y1="235" x2="781" y2="596"/><line x1="420" y1="255" x2="781" y2="616"/><line x1="420" y1="275" x2="781" y2="636"/><line x1="420" y1="295" x2="781" y2="656"/><line x1="420" y1="315" x2="781" y2="676"/><line x1="420" y1="335" x2="781" y2="696"/><line x1="420" y1="355" x2="781" y2="716"/><line x1="420" y1="375" x2="781" y2="736"/><line x1="420" y1="395" x2="781" y2="756"/><line x1="420" y1="415" x2="781" y2="776"/><line x1="420" y1="435" x2="781" y2="796"/><line x1="420" y1="455" x2="781" y2="816"/><line x1="420" y1="475" x2="781" y2="836"/><line x1="420" y1="495" x2="781" y2="856"/><line x1="420" y1="515" x2="781" y2="876"/><line x1="420" y1="535" x2="781" y2="896"/><line x1="420" y1="555" x2="781" y2="916"/><line x1="420" y1="575" x2="781" y2="936"/><line x1="420" y1="595" x2="781" y2="956"/><line x1="420" y1="615" x2="781" y2="976"/><line x1="420" y1="635" x2="781" y2="996"/><line x1="420" y1="655" x2="781" y2="1016"/><line x1="420" y1="675" x2="781" y2="1036"/><line x1="420" y1="695" x2="781" y2="1056"/><line x1="420" y1="715" x2="781" y2="1076"/></g><g fill="url(#cuR)" stroke="#6f350f" stroke-opacity="0.65" stroke-width="0.6"><polygon points="749,570 721,586 721,565 749,549"/><polygon points="740,584 729,590 729,581 740,575"/><polygon points="715,589 687,606 687,584 715,568"/><polygon points="706,603 696,610 696,601 706,594"/><polygon points="682,609 654,625 654,604 682,588"/><polygon points="673,623 662,629 662,620 673,614"/><polygon points="648,628 620,644 620,623 648,607"/><polygon points="640,642 629,648 629,639 640,633"/><polygon points="615,647 587,664 587,642 615,626"/><polygon points="606,661 595,668 595,659 606,652"/><polygon points="581,667 553,683 553,662 581,646"/><polygon points="573,681 562,687 562,678 573,672"/><polygon points="548,686 520,702 520,681 548,665"/><polygon points="539,700 528,706 528,697 539,691"/><polygon points="514,705 486,722 486,700 514,684"/><polygon points="506,719 495,726 495,717 506,710"/><polygon points="481,725 453,741 453,720 481,704"/><polygon points="472,739 461,745 461,736 472,730"/></g><g stroke="#f0a866" stroke-opacity="0.55" stroke-width="0.8"><line x1="749" y1="549" x2="721" y2="565"/><line x1="715" y1="568" x2="687" y2="584"/><line x1="682" y1="588" x2="654" y2="604"/><line x1="648" y1="607" x2="620" y2="623"/><line x1="615" y1="626" x2="587" y2="642"/><line x1="581" y1="646" x2="553" y2="662"/><line x1="548" y1="665" x2="520" y2="681"/><line x1="514" y1="684" x2="486" y2="700"/><line x1="481" y1="704" x2="453" y2="720"/></g><g fill="url(#cuL)" stroke="#552a0d" stroke-opacity="0.7" stroke-width="0.6"><polygon points="151,570 179,586 179,565 151,549"/><polygon points="160,584 171,590 171,581 160,575"/><polygon points="185,589 213,606 213,584 185,568"/><polygon points="194,603 204,610 204,601 194,594"/><polygon points="218,609 246,625 246,604 218,588"/><polygon points="227,623 238,629 238,620 227,614"/><polygon points="252,628 280,644 280,623 252,607"/><polygon points="260,642 271,648 271,639 260,633"/><polygon points="285,647 313,664 313,642 285,626"/><polygon points="294,661 305,668 305,659 294,652"/><polygon points="319,667 347,683 347,662 319,646"/><polygon points="327,681 338,687 338,678 327,672"/><polygon points="352,686 380,702 380,681 352,665"/><polygon points="361,700 372,706 372,697 361,691"/><polygon points="386,705 414,722 414,700 386,684"/><polygon points="394,719 405,726 405,717 394,710"/><polygon points="419,725 447,741 447,720 419,704"/><polygon points="428,739 439,745 439,736 428,730"/></g><polyline points="751,580 450,754 149,580" fill="none" stroke="#d7e3f4" stroke-opacity="0.55" stroke-width="1.1"/><polygon points="450,372 751,546 450,720 149,546" fill="url(#ildT)" stroke="#d7e3f4" stroke-opacity="0.55" stroke-width="1.1"/><g fill="url(#cuT)" stroke="#9a5322" stroke-opacity="0.55" stroke-width="0.5"><polygon points="455,375 154,549 177,562 478,388"/><polygon points="489,394 187,568 210,581 512,407"/><polygon points="522,413 221,587 244,601 545,427"/><polygon points="556,433 254,607 277,620 579,446"/><polygon points="589,452 288,626 311,639 612,465"/><polygon points="623,471 321,645 344,659 646,485"/><polygon points="656,491 355,665 378,678 679,504"/><polygon points="690,510 388,684 411,697 713,523"/><polygon points="723,529 422,703 445,717 746,543"/></g><polygon points="186,524 450,676 450,637 186,485" fill="url(#ildL)" stroke="#d7e3f4" stroke-opacity="0.55" stroke-width="1.1"/><clipPath id="c5"><polygon points="186,524 450,676 450,637 186,485"/></clipPath><g clip-path="url(#c5)" stroke="#26303e" stroke-opacity="0.32" stroke-width="0.6"><line x1="156" y1="191" x2="480" y2="515"/><line x1="156" y1="211" x2="480" y2="535"/><line x1="156" y1="231" x2="480" y2="555"/><line x1="156" y1="251" x2="480" y2="575"/><line x1="156" y1="271" x2="480" y2="595"/><line x1="156" y1="291" x2="480" y2="615"/><line x1="156" y1="311" x2="480" y2="635"/><line x1="156" y1="331" x2="480" y2="655"/><line x1="156" y1="351" x2="480" y2="675"/><line x1="156" y1="371" x2="480" y2="695"/><line x1="156" y1="391" x2="480" y2="715"/><line x1="156" y1="411" x2="480" y2="735"/><line x1="156" y1="431" x2="480" y2="755"/><line x1="156" y1="451" x2="480" y2="775"/><line x1="156" y1="471" x2="480" y2="795"/><line x1="156" y1="491" x2="480" y2="815"/><line x1="156" y1="511" x2="480" y2="835"/><line x1="156" y1="531" x2="480" y2="855"/><line x1="156" y1="551" x2="480" y2="875"/><line x1="156" y1="571" x2="480" y2="895"/><line x1="156" y1="591" x2="480" y2="915"/><line x1="156" y1="611" x2="480" y2="935"/><line x1="156" y1="631" x2="480" y2="955"/></g><polygon points="714,524 450,676 450,637 714,485" fill="url(#ildR)" stroke="#d7e3f4" stroke-opacity="0.55" stroke-width="1.1"/><clipPath id="c6"><polygon points="714,524 450,676 450,637 714,485"/></clipPath><g clip-path="url(#c6)" stroke="#26303e" stroke-opacity="0.32" stroke-width="0.6"><line x1="420" y1="191" x2="744" y2="515"/><line x1="420" y1="211" x2="744" y2="535"/><line x1="420" y1="231" x2="744" y2="555"/><line x1="420" y1="251" x2="744" y2="575"/><line x1="420" y1="271" x2="744" y2="595"/><line x1="420" y1="291" x2="744" y2="615"/><line x1="420" y1="311" x2="744" y2="635"/><line x1="420" y1="331" x2="744" y2="655"/><line x1="420" y1="351" x2="744" y2="675"/><line x1="420" y1="371" x2="744" y2="695"/><line x1="420" y1="391" x2="744" y2="715"/><line x1="420" y1="411" x2="744" y2="735"/><line x1="420" y1="431" x2="744" y2="755"/><line x1="420" y1="451" x2="744" y2="775"/><line x1="420" y1="471" x2="744" y2="795"/><line x1="420" y1="491" x2="744" y2="815"/><line x1="420" y1="511" x2="744" y2="835"/><line x1="420" y1="531" x2="744" y2="855"/><line x1="420" y1="551" x2="744" y2="875"/><line x1="420" y1="571" x2="744" y2="895"/><line x1="420" y1="591" x2="744" y2="915"/><line x1="420" y1="611" x2="744" y2="935"/><line x1="420" y1="631" x2="744" y2="955"/></g><g fill="url(#cuR)" stroke="#6f350f" stroke-opacity="0.65" stroke-width="0.6"><polygon points="711,512 683,528 683,504 711,488"/><polygon points="702,527 692,534 692,523 702,517"/><polygon points="678,531 650,547 650,523 678,507"/><polygon points="670,546 659,553 659,542 670,536"/><polygon points="645,550 617,566 617,542 645,526"/><polygon points="637,565 626,572 626,561 637,555"/><polygon points="612,569 584,585 584,561 612,545"/><polygon points="604,585 593,591 593,580 604,574"/><polygon points="579,588 552,604 552,580 579,564"/><polygon points="571,604 560,610 560,599 571,593"/><polygon points="546,607 519,623 519,599 546,583"/><polygon points="538,623 527,629 527,618 538,612"/><polygon points="513,626 486,642 486,618 513,602"/><polygon points="505,642 494,648 494,637 505,631"/><polygon points="480,645 453,661 453,637 480,621"/><polygon points="472,661 461,667 461,656 472,650"/></g><g stroke="#f0a866" stroke-opacity="0.55" stroke-width="0.8"><line x1="711" y1="488" x2="683" y2="504"/><line x1="678" y1="507" x2="650" y2="523"/><line x1="645" y1="526" x2="617" y2="542"/><line x1="612" y1="545" x2="584" y2="561"/><line x1="579" y1="564" x2="552" y2="580"/><line x1="546" y1="583" x2="519" y2="599"/><line x1="513" y1="602" x2="486" y2="618"/><line x1="480" y1="621" x2="453" y2="637"/></g><g fill="url(#cuL)" stroke="#552a0d" stroke-opacity="0.7" stroke-width="0.6"><polygon points="189,512 217,528 217,504 189,488"/><polygon points="198,527 208,534 208,523 198,517"/><polygon points="222,531 250,547 250,523 222,507"/><polygon points="230,546 241,553 241,542 230,536"/><polygon points="255,550 283,566 283,542 255,526"/><polygon points="263,565 274,572 274,561 263,555"/><polygon points="288,569 316,585 316,561 288,545"/><polygon points="296,585 307,591 307,580 296,574"/><polygon points="321,588 348,604 348,580 321,564"/><polygon points="329,604 340,610 340,599 329,593"/><polygon points="354,607 381,623 381,599 354,583"/><polygon points="362,623 373,629 373,618 362,612"/><polygon points="387,626 414,642 414,618 387,602"/><polygon points="395,642 406,648 406,637 395,631"/><polygon points="420,645 447,661 447,637 420,621"/><polygon points="428,661 439,667 439,656 428,650"/></g><polyline points="714,524 450,676 186,524" fill="none" stroke="#d7e3f4" stroke-opacity="0.55" stroke-width="1.1"/><polygon points="450,332 714,485 450,637 186,485" fill="url(#ildT)" stroke="#d7e3f4" stroke-opacity="0.55" stroke-width="1.1"/><g fill="url(#cuT)" stroke="#9a5322" stroke-opacity="0.55" stroke-width="0.5"><polygon points="445,335 708,488 686,501 422,348"/><polygon points="412,355 675,507 653,520 389,367"/><polygon points="379,374 642,526 620,539 356,386"/><polygon points="346,393 610,545 587,558 323,406"/><polygon points="313,412 577,564 554,577 290,425"/><polygon points="280,431 544,583 521,596 258,444"/><polygon points="247,450 511,602 488,615 225,463"/><polygon points="214,469 478,621 455,634 192,482"/></g><polygon points="224,463 450,593 450,548 224,418" fill="url(#ildL)" stroke="#d7e3f4" stroke-opacity="0.55" stroke-width="1.1"/><clipPath id="c7"><polygon points="224,463 450,593 450,548 224,418"/></clipPath><g clip-path="url(#c7)" stroke="#26303e" stroke-opacity="0.32" stroke-width="0.6"><line x1="194" y1="162" x2="480" y2="448"/><line x1="194" y1="182" x2="480" y2="468"/><line x1="194" y1="202" x2="480" y2="488"/><line x1="194" y1="222" x2="480" y2="508"/><line x1="194" y1="242" x2="480" y2="528"/><line x1="194" y1="262" x2="480" y2="548"/><line x1="194" y1="282" x2="480" y2="568"/><line x1="194" y1="302" x2="480" y2="588"/><line x1="194" y1="322" x2="480" y2="608"/><line x1="194" y1="342" x2="480" y2="628"/><line x1="194" y1="362" x2="480" y2="648"/><line x1="194" y1="382" x2="480" y2="668"/><line x1="194" y1="402" x2="480" y2="688"/><line x1="194" y1="422" x2="480" y2="708"/><line x1="194" y1="442" x2="480" y2="728"/><line x1="194" y1="462" x2="480" y2="748"/><line x1="194" y1="482" x2="480" y2="768"/><line x1="194" y1="502" x2="480" y2="788"/><line x1="194" y1="522" x2="480" y2="808"/><line x1="194" y1="542" x2="480" y2="828"/><line x1="194" y1="562" x2="480" y2="848"/></g><polygon points="676,463 450,593 450,548 676,418" fill="url(#ildR)" stroke="#d7e3f4" stroke-opacity="0.55" stroke-width="1.1"/><clipPath id="c8"><polygon points="676,463 450,593 450,548 676,418"/></clipPath><g clip-path="url(#c8)" stroke="#26303e" stroke-opacity="0.32" stroke-width="0.6"><line x1="420" y1="162" x2="706" y2="448"/><line x1="420" y1="182" x2="706" y2="468"/><line x1="420" y1="202" x2="706" y2="488"/><line x1="420" y1="222" x2="706" y2="508"/><line x1="420" y1="242" x2="706" y2="528"/><line x1="420" y1="262" x2="706" y2="548"/><line x1="420" y1="282" x2="706" y2="568"/><line x1="420" y1="302" x2="706" y2="588"/><line x1="420" y1="322" x2="706" y2="608"/><line x1="420" y1="342" x2="706" y2="628"/><line x1="420" y1="362" x2="706" y2="648"/><line x1="420" y1="382" x2="706" y2="668"/><line x1="420" y1="402" x2="706" y2="688"/><line x1="420" y1="422" x2="706" y2="708"/><line x1="420" y1="442" x2="706" y2="728"/><line x1="420" y1="462" x2="706" y2="748"/><line x1="420" y1="482" x2="706" y2="768"/><line x1="420" y1="502" x2="706" y2="788"/><line x1="420" y1="522" x2="706" y2="808"/><line x1="420" y1="542" x2="706" y2="828"/><line x1="420" y1="562" x2="706" y2="848"/></g><g fill="url(#cuR)" stroke="#6f350f" stroke-opacity="0.65" stroke-width="0.6"><polygon points="673,449 646,465 646,437 673,422"/><polygon points="665,466 655,472 655,460 665,454"/><polygon points="641,468 614,483 614,456 641,440"/><polygon points="633,485 622,491 622,479 633,473"/><polygon points="609,486 582,502 582,475 609,459"/><polygon points="600,504 590,510 590,497 600,491"/><polygon points="577,505 549,521 549,493 577,478"/><polygon points="568,522 558,528 558,516 568,510"/><polygon points="544,524 517,539 517,512 544,496"/><polygon points="536,541 526,547 526,535 536,529"/><polygon points="512,542 485,558 485,531 512,515"/><polygon points="504,560 493,566 493,553 504,547"/><polygon points="480,561 453,577 453,549 480,534"/><polygon points="471,578 461,584 461,572 471,566"/></g><g stroke="#f0a866" stroke-opacity="0.55" stroke-width="0.8"><line x1="673" y1="422" x2="646" y2="437"/><line x1="641" y1="440" x2="614" y2="456"/><line x1="609" y1="459" x2="582" y2="475"/><line x1="577" y1="478" x2="549" y2="493"/><line x1="544" y1="496" x2="517" y2="512"/><line x1="512" y1="515" x2="485" y2="531"/><line x1="480" y1="534" x2="453" y2="549"/></g><g fill="url(#cuL)" stroke="#552a0d" stroke-opacity="0.7" stroke-width="0.6"><polygon points="227,449 254,465 254,437 227,422"/><polygon points="235,466 245,472 245,460 235,454"/><polygon points="259,468 286,483 286,456 259,440"/><polygon points="267,485 278,491 278,479 267,473"/><polygon points="291,486 318,502 318,475 291,459"/><polygon points="300,504 310,510 310,497 300,491"/><polygon points="323,505 351,521 351,493 323,478"/><polygon points="332,522 342,528 342,516 332,510"/><polygon points="356,524 383,539 383,512 356,496"/><polygon points="364,541 374,547 374,535 364,529"/><polygon points="388,542 415,558 415,531 388,515"/><polygon points="396,560 407,566 407,553 396,547"/><polygon points="420,561 447,577 447,549 420,534"/><polygon points="429,578 439,584 439,572 429,566"/></g><polyline points="676,463 450,593 224,463" fill="none" stroke="#d7e3f4" stroke-opacity="0.55" stroke-width="1.1"/><polygon points="450,288 676,418 450,548 224,418" fill="url(#ildT)" stroke="#d7e3f4" stroke-opacity="0.55" stroke-width="1.1"/><g fill="url(#cuT)" stroke="#9a5322" stroke-opacity="0.55" stroke-width="0.5"><polygon points="455,290 229,421 251,434 477,303"/><polygon points="487,309 261,440 283,452 509,322"/><polygon points="520,328 294,458 316,471 542,340"/><polygon points="552,346 326,477 348,490 574,359"/><polygon points="584,365 358,496 380,508 606,378"/><polygon points="617,384 391,514 413,527 639,396"/><polygon points="649,402 423,533 445,546 671,415"/></g><polygon points="262,396 450,505 450,451 262,343" fill="url(#ildL)" stroke="#d7e3f4" stroke-opacity="0.55" stroke-width="1.1"/><clipPath id="c9"><polygon points="262,396 450,505 450,451 262,343"/></clipPath><g clip-path="url(#c9)" stroke="#26303e" stroke-opacity="0.32" stroke-width="0.6"><line x1="232" y1="125" x2="480" y2="373"/><line x1="232" y1="145" x2="480" y2="393"/><line x1="232" y1="165" x2="480" y2="413"/><line x1="232" y1="185" x2="480" y2="433"/><line x1="232" y1="205" x2="480" y2="453"/><line x1="232" y1="225" x2="480" y2="473"/><line x1="232" y1="245" x2="480" y2="493"/><line x1="232" y1="265" x2="480" y2="513"/><line x1="232" y1="285" x2="480" y2="533"/><line x1="232" y1="305" x2="480" y2="553"/><line x1="232" y1="325" x2="480" y2="573"/><line x1="232" y1="345" x2="480" y2="593"/><line x1="232" y1="365" x2="480" y2="613"/><line x1="232" y1="385" x2="480" y2="633"/><line x1="232" y1="405" x2="480" y2="653"/><line x1="232" y1="425" x2="480" y2="673"/><line x1="232" y1="445" x2="480" y2="693"/><line x1="232" y1="465" x2="480" y2="713"/></g><polygon points="638,396 450,505 450,451 638,343" fill="url(#ildR)" stroke="#d7e3f4" stroke-opacity="0.55" stroke-width="1.1"/><clipPath id="c10"><polygon points="638,396 450,505 450,451 638,343"/></clipPath><g clip-path="url(#c10)" stroke="#26303e" stroke-opacity="0.32" stroke-width="0.6"><line x1="420" y1="125" x2="668" y2="373"/><line x1="420" y1="145" x2="668" y2="393"/><line x1="420" y1="165" x2="668" y2="413"/><line x1="420" y1="185" x2="668" y2="433"/><line x1="420" y1="205" x2="668" y2="453"/><line x1="420" y1="225" x2="668" y2="473"/><line x1="420" y1="245" x2="668" y2="493"/><line x1="420" y1="265" x2="668" y2="513"/><line x1="420" y1="285" x2="668" y2="533"/><line x1="420" y1="305" x2="668" y2="553"/><line x1="420" y1="325" x2="668" y2="573"/><line x1="420" y1="345" x2="668" y2="593"/><line x1="420" y1="365" x2="668" y2="613"/><line x1="420" y1="385" x2="668" y2="633"/><line x1="420" y1="405" x2="668" y2="653"/><line x1="420" y1="425" x2="668" y2="673"/><line x1="420" y1="445" x2="668" y2="693"/><line x1="420" y1="465" x2="668" y2="713"/></g><g fill="url(#cuR)" stroke="#6f350f" stroke-opacity="0.65" stroke-width="0.6"><polygon points="636,379 609,395 609,362 636,347"/><polygon points="628,400 618,405 618,390 628,384"/><polygon points="604,398 578,413 578,380 604,365"/><polygon points="596,418 586,423 586,408 596,402"/><polygon points="573,416 547,431 547,398 573,383"/><polygon points="565,436 555,442 555,426 565,420"/><polygon points="542,434 515,449 515,416 542,401"/><polygon points="534,454 523,460 523,444 534,439"/><polygon points="510,452 484,467 484,434 510,419"/><polygon points="502,472 492,478 492,462 502,457"/><polygon points="479,470 453,485 453,453 479,437"/><polygon points="471,490 461,496 461,481 471,475"/></g><g stroke="#f0a866" stroke-opacity="0.55" stroke-width="0.8"><line x1="636" y1="347" x2="609" y2="362"/><line x1="604" y1="365" x2="578" y2="380"/><line x1="573" y1="383" x2="547" y2="398"/><line x1="542" y1="401" x2="515" y2="416"/><line x1="510" y1="419" x2="484" y2="434"/><line x1="479" y1="437" x2="453" y2="453"/></g><g fill="url(#cuL)" stroke="#552a0d" stroke-opacity="0.7" stroke-width="0.6"><polygon points="264,379 291,395 291,362 264,347"/><polygon points="272,400 282,405 282,390 272,384"/><polygon points="296,398 322,413 322,380 296,365"/><polygon points="304,418 314,423 314,408 304,402"/><polygon points="327,416 353,431 353,398 327,383"/><polygon points="335,436 345,442 345,426 335,420"/><polygon points="358,434 385,449 385,416 358,401"/><polygon points="366,454 377,460 377,444 366,439"/><polygon points="390,452 416,467 416,434 390,419"/><polygon points="398,472 408,478 408,462 398,457"/><polygon points="421,470 447,485 447,453 421,437"/><polygon points="429,490 439,496 439,481 429,475"/></g><polyline points="638,396 450,505 262,396" fill="none" stroke="#d7e3f4" stroke-opacity="0.55" stroke-width="1.1"/><polygon points="450,234 638,343 450,451 262,343" fill="url(#ildT)" stroke="#d7e3f4" stroke-opacity="0.55" stroke-width="1.1"/><g fill="url(#cuT)" stroke="#9a5322" stroke-opacity="0.55" stroke-width="0.5"><polygon points="445,237 633,346 612,358 424,249"/><polygon points="414,255 602,364 581,376 392,267"/><polygon points="382,273 571,382 549,394 361,285"/><polygon points="351,291 539,400 518,412 329,303"/><polygon points="319,309 508,418 486,430 298,322"/><polygon points="288,327 476,436 455,448 267,340"/></g><polygon points="299,321 450,408 450,343 299,256" fill="url(#ildL)" stroke="#d7e3f4" stroke-opacity="0.55" stroke-width="1.1"/><clipPath id="c11"><polygon points="299,321 450,408 450,343 299,256"/></clipPath><g clip-path="url(#c11)" stroke="#26303e" stroke-opacity="0.32" stroke-width="0.6"><line x1="269" y1="75" x2="480" y2="286"/><line x1="269" y1="95" x2="480" y2="306"/><line x1="269" y1="115" x2="480" y2="326"/><line x1="269" y1="135" x2="480" y2="346"/><line x1="269" y1="155" x2="480" y2="366"/><line x1="269" y1="175" x2="480" y2="386"/><line x1="269" y1="195" x2="480" y2="406"/><line x1="269" y1="215" x2="480" y2="426"/><line x1="269" y1="235" x2="480" y2="446"/><line x1="269" y1="255" x2="480" y2="466"/><line x1="269" y1="275" x2="480" y2="486"/><line x1="269" y1="295" x2="480" y2="506"/><line x1="269" y1="315" x2="480" y2="526"/><line x1="269" y1="335" x2="480" y2="546"/><line x1="269" y1="355" x2="480" y2="566"/><line x1="269" y1="375" x2="480" y2="586"/></g><polygon points="601,321 450,408 450,343 601,256" fill="url(#ildR)" stroke="#d7e3f4" stroke-opacity="0.55" stroke-width="1.1"/><clipPath id="c12"><polygon points="601,321 450,408 450,343 601,256"/></clipPath><g clip-path="url(#c12)" stroke="#26303e" stroke-opacity="0.32" stroke-width="0.6"><line x1="420" y1="75" x2="631" y2="286"/><line x1="420" y1="95" x2="631" y2="306"/><line x1="420" y1="115" x2="631" y2="326"/><line x1="420" y1="135" x2="631" y2="346"/><line x1="420" y1="155" x2="631" y2="366"/><line x1="420" y1="175" x2="631" y2="386"/><line x1="420" y1="195" x2="631" y2="406"/><line x1="420" y1="215" x2="631" y2="426"/><line x1="420" y1="235" x2="631" y2="446"/><line x1="420" y1="255" x2="631" y2="466"/><line x1="420" y1="275" x2="631" y2="486"/><line x1="420" y1="295" x2="631" y2="506"/><line x1="420" y1="315" x2="631" y2="526"/><line x1="420" y1="335" x2="631" y2="546"/><line x1="420" y1="355" x2="631" y2="566"/><line x1="420" y1="375" x2="631" y2="586"/></g><g fill="url(#cuR)" stroke="#6f350f" stroke-opacity="0.65" stroke-width="0.6"><polygon points="598,300 573,315 573,275 598,260"/><polygon points="590,324 581,329 581,310 590,305"/><polygon points="568,317 543,332 543,292 568,278"/><polygon points="560,341 551,347 551,328 560,322"/><polygon points="538,335 513,349 513,310 538,295"/><polygon points="530,359 521,364 521,345 530,339"/><polygon points="508,352 483,367 483,327 508,312"/><polygon points="500,376 490,382 490,362 500,357"/><polygon points="478,370 452,384 452,344 478,330"/><polygon points="470,393 460,399 460,380 470,374"/></g><g stroke="#f0a866" stroke-opacity="0.55" stroke-width="0.8"><line x1="598" y1="260" x2="573" y2="275"/><line x1="568" y1="278" x2="543" y2="292"/><line x1="538" y1="295" x2="513" y2="310"/><line x1="508" y1="312" x2="483" y2="327"/><line x1="478" y1="330" x2="452" y2="344"/></g><g fill="url(#cuL)" stroke="#552a0d" stroke-opacity="0.7" stroke-width="0.6"><polygon points="302,300 327,315 327,275 302,260"/><polygon points="310,324 319,329 319,310 310,305"/><polygon points="332,317 357,332 357,292 332,278"/><polygon points="340,341 349,347 349,328 340,322"/><polygon points="362,335 387,349 387,310 362,295"/><polygon points="370,359 379,364 379,345 370,339"/><polygon points="392,352 417,367 417,327 392,312"/><polygon points="400,376 410,382 410,362 400,357"/><polygon points="422,370 448,384 448,344 422,330"/><polygon points="430,393 440,399 440,380 430,374"/></g><polyline points="601,321 450,408 299,321" fill="none" stroke="#d7e3f4" stroke-opacity="0.55" stroke-width="1.1"/><polygon points="450,169 601,256 450,343 299,256" fill="url(#ildT)" stroke="#d7e3f4" stroke-opacity="0.55" stroke-width="1.1"/><g fill="url(#cuT)" stroke="#9a5322" stroke-opacity="0.55" stroke-width="0.5"><polygon points="455,171 304,258 325,270 475,183"/><polygon points="485,189 334,276 355,288 505,201"/><polygon points="515,206 364,293 385,305 536,218"/><polygon points="545,224 395,311 415,322 566,235"/><polygon points="575,241 425,328 445,340 596,253"/></g><polygon points="337,234 450,299 450,219 337,154" fill="url(#ildL)" stroke="#d7e3f4" stroke-opacity="0.55" stroke-width="1.1"/><clipPath id="c13"><polygon points="337,234 450,299 450,219 337,154"/></clipPath><g clip-path="url(#c13)" stroke="#26303e" stroke-opacity="0.32" stroke-width="0.6"><line x1="307" y1="11" x2="480" y2="184"/><line x1="307" y1="31" x2="480" y2="204"/><line x1="307" y1="51" x2="480" y2="224"/><line x1="307" y1="71" x2="480" y2="244"/><line x1="307" y1="91" x2="480" y2="264"/><line x1="307" y1="111" x2="480" y2="284"/><line x1="307" y1="131" x2="480" y2="304"/><line x1="307" y1="151" x2="480" y2="324"/><line x1="307" y1="171" x2="480" y2="344"/><line x1="307" y1="191" x2="480" y2="364"/><line x1="307" y1="211" x2="480" y2="384"/><line x1="307" y1="231" x2="480" y2="404"/><line x1="307" y1="251" x2="480" y2="424"/></g><polygon points="563,234 450,299 450,219 563,154" fill="url(#ildR)" stroke="#d7e3f4" stroke-opacity="0.55" stroke-width="1.1"/><clipPath id="c14"><polygon points="563,234 450,299 450,219 563,154"/></clipPath><g clip-path="url(#c14)" stroke="#26303e" stroke-opacity="0.32" stroke-width="0.6"><line x1="420" y1="11" x2="593" y2="184"/><line x1="420" y1="31" x2="593" y2="204"/><line x1="420" y1="51" x2="593" y2="224"/><line x1="420" y1="71" x2="593" y2="244"/><line x1="420" y1="91" x2="593" y2="264"/><line x1="420" y1="111" x2="593" y2="284"/><line x1="420" y1="131" x2="593" y2="304"/><line x1="420" y1="151" x2="593" y2="324"/><line x1="420" y1="171" x2="593" y2="344"/><line x1="420" y1="191" x2="593" y2="364"/><line x1="420" y1="211" x2="593" y2="384"/><line x1="420" y1="231" x2="593" y2="404"/><line x1="420" y1="251" x2="593" y2="424"/></g><g fill="url(#cuR)" stroke="#6f350f" stroke-opacity="0.65" stroke-width="0.6"><polygon points="561,208 537,222 537,173 561,159"/><polygon points="553,236 544,242 544,218 553,212"/><polygon points="532,224 509,238 509,189 532,176"/><polygon points="525,253 516,258 516,234 525,229"/><polygon points="504,241 481,254 481,206 504,192"/><polygon points="497,269 488,274 488,250 497,245"/><polygon points="476,257 452,271 452,222 476,208"/><polygon points="469,285 460,291 460,266 469,261"/></g><g stroke="#f0a866" stroke-opacity="0.55" stroke-width="0.8"><line x1="561" y1="159" x2="537" y2="173"/><line x1="532" y1="176" x2="509" y2="189"/><line x1="504" y1="192" x2="481" y2="206"/><line x1="476" y1="208" x2="452" y2="222"/></g><g fill="url(#cuL)" stroke="#552a0d" stroke-opacity="0.7" stroke-width="0.6"><polygon points="339,208 363,222 363,173 339,159"/><polygon points="347,236 356,242 356,218 347,212"/><polygon points="368,224 391,238 391,189 368,176"/><polygon points="375,253 384,258 384,234 375,229"/><polygon points="396,241 419,254 419,206 396,192"/><polygon points="403,269 412,274 412,250 403,245"/><polygon points="424,257 448,271 448,222 424,208"/><polygon points="431,285 440,291 440,266 431,261"/></g><polyline points="563,234 450,299 337,234" fill="none" stroke="#d7e3f4" stroke-opacity="0.55" stroke-width="1.1"/><polygon points="450,89 563,154 450,219 337,154" fill="url(#ildT)" stroke="#d7e3f4" stroke-opacity="0.55" stroke-width="1.1"/><g fill="url(#cuT)" stroke="#9a5322" stroke-opacity="0.55" stroke-width="0.5"><polygon points="445,91 558,157 539,168 426,103"/><polygon points="417,108 530,173 511,184 398,119"/><polygon points="389,124 502,189 483,200 370,135"/><polygon points="361,140 474,206 455,217 342,151"/></g><polygon points="450,115 518,154 450,193 382,154" fill="url(#cuT)" stroke="#7a3d14" stroke-opacity="0.8" stroke-width="1.1"/><polygon points="450,127 497,154 450,182 403,154" fill="none" stroke="#f2b070" stroke-opacity="0.5" stroke-width="0.8"/><ellipse cx="453" cy="157" rx="39.9" ry="22.2" fill="#000" opacity="0.18"/><circle cx="450" cy="129.6" r="44.4" fill="url(#bump)" stroke="#7a3d14" stroke-opacity="0.6" stroke-width="1.1"/><ellipse cx="436.7" cy="114.1" rx="14.2" ry="9.8" fill="#ffd9ab" opacity="0.4"/><line x1="450" y1="940" x2="450" y2="873" stroke="#d7e3f4" stroke-opacity="0.92" stroke-width="2"/><line x1="450" y1="830" x2="450" y2="798" stroke="#d7e3f4" stroke-opacity="0.92" stroke-width="2"/><line x1="450" y1="754" x2="450" y2="720" stroke="#d7e3f4" stroke-opacity="0.92" stroke-width="2"/><line x1="450" y1="676" x2="450" y2="637" stroke="#d7e3f4" stroke-opacity="0.92" stroke-width="2"/><line x1="450" y1="593" x2="450" y2="548" stroke="#d7e3f4" stroke-opacity="0.92" stroke-width="2"/><line x1="450" y1="505" x2="450" y2="451" stroke="#d7e3f4" stroke-opacity="0.92" stroke-width="2"/><line x1="450" y1="408" x2="450" y2="343" stroke="#d7e3f4" stroke-opacity="0.92" stroke-width="2"/><line x1="450" y1="299" x2="450" y2="219" stroke="#d7e3f4" stroke-opacity="0.92" stroke-width="2"/><polyline points="337,154 450,89 563,154" fill="none" stroke="#d7e3f4" stroke-opacity="0.92" stroke-width="2"/><polyline points="827,722 450,940 73,722" fill="none" stroke="#d7e3f4" stroke-opacity="0.92" stroke-width="2"/></svg><circle cx="800.0" cy="184.4" r="2.6" fill="#d97a3c" opacity="0.9"/><path d="M 800.0 184.4 L 1332 178.4" stroke="#d7e3f4" stroke-width="0.9" opacity="0.5" fill="none"/><text x="1344" y="182.4" text-anchor="start" font-family="'Pretendard Variable',Pretendard,'Malgun Gothic',sans-serif" font-size="19" font-weight="600" fill="#e8eef7" fill-opacity="0.95">솔더 범프</text><text x="1344" y="202.4" text-anchor="start" font-family="'IBM Plex Mono','JetBrains Mono',ui-monospace,Consolas,monospace" font-size="11" letter-spacing="1.2" fill="#93a4bd" fill-opacity="0.75">C4 BUMP</text><circle cx="850.2" cy="269.8" r="2.6" fill="#d97a3c" opacity="0.9"/><path d="M 850.2 269.8 L 1332 263.8" stroke="#d7e3f4" stroke-width="0.9" opacity="0.5" fill="none"/><text x="1344" y="267.8" text-anchor="start" font-family="'Pretendard Variable',Pretendard,'Malgun Gothic',sans-serif" font-size="19" font-weight="600" fill="#e8eef7" fill-opacity="0.95">M7 — 광역 배선</text><text x="1344" y="287.8" text-anchor="start" font-family="'IBM Plex Mono','JetBrains Mono',ui-monospace,Consolas,monospace" font-size="11" letter-spacing="1.2" fill="#93a4bd" fill-opacity="0.75">GLOBAL WIRING</text><circle cx="882.7" cy="443.1" r="2.6" fill="#d97a3c" opacity="0.9"/><path d="M 882.7 443.1 L 1332 437.1" stroke="#d7e3f4" stroke-width="0.9" opacity="0.5" fill="none"/><text x="1344" y="441.1" text-anchor="start" font-family="'Pretendard Variable',Pretendard,'Malgun Gothic',sans-serif" font-size="19" font-weight="600" fill="#e8eef7" fill-opacity="0.95">M5 배선 · 비아</text><text x="1344" y="461.1" text-anchor="start" font-family="'IBM Plex Mono','JetBrains Mono',ui-monospace,Consolas,monospace" font-size="11" letter-spacing="1.2" fill="#93a4bd" fill-opacity="0.75">M5 + VIA</text><circle cx="916.2" cy="580.4" r="2.6" fill="#d97a3c" opacity="0.9"/><path d="M 916.2 580.4 L 1332 574.4" stroke="#d7e3f4" stroke-width="0.9" opacity="0.5" fill="none"/><text x="1344" y="578.4" text-anchor="start" font-family="'Pretendard Variable',Pretendard,'Malgun Gothic',sans-serif" font-size="19" font-weight="600" fill="#e8eef7" fill-opacity="0.95">M3 배선</text><text x="1344" y="598.4" text-anchor="start" font-family="'IBM Plex Mono','JetBrains Mono',ui-monospace,Consolas,monospace" font-size="11" letter-spacing="1.2" fill="#93a4bd" fill-opacity="0.75">INTERMEDIATE</text><circle cx="949.6" cy="700.1" r="2.6" fill="#d97a3c" opacity="0.9"/><path d="M 949.6 700.1 L 1332 694.1" stroke="#d7e3f4" stroke-width="0.9" opacity="0.5" fill="none"/><text x="1344" y="698.1" text-anchor="start" font-family="'Pretendard Variable',Pretendard,'Malgun Gothic',sans-serif" font-size="19" font-weight="600" fill="#e8eef7" fill-opacity="0.95">M1 — 최미세 배선</text><text x="1344" y="718.1" text-anchor="start" font-family="'IBM Plex Mono','JetBrains Mono',ui-monospace,Consolas,monospace" font-size="11" letter-spacing="1.2" fill="#93a4bd" fill-opacity="0.75">LOCAL WIRING</text><circle cx="800.0" cy="496.8" r="2.6" fill="#d97a3c" opacity="0.9"/><path d="M 800.0 496.8 L 1332 503.1" stroke="#d7e3f4" stroke-width="0.9" opacity="0.5" fill="none"/><text x="1344" y="507.1" text-anchor="start" font-family="'Pretendard Variable',Pretendard,'Malgun Gothic',sans-serif" font-size="19" font-weight="600" fill="#e8eef7" fill-opacity="0.95">상면 라우팅</text><text x="1344" y="527.1" text-anchor="start" font-family="'IBM Plex Mono','JetBrains Mono',ui-monospace,Consolas,monospace" font-size="11" letter-spacing="1.2" fill="#93a4bd" fill-opacity="0.75">TOP ROUTING</text><circle cx="717.3" cy="443.1" r="2.6" fill="#d97a3c" opacity="0.9"/><path d="M 717.3 443.1 L 268 437.1" stroke="#d7e3f4" stroke-width="0.9" opacity="0.5" fill="none"/><text x="256" y="441.1" text-anchor="end" font-family="'Pretendard Variable',Pretendard,'Malgun Gothic',sans-serif" font-size="19" font-weight="600" fill="#e8eef7" fill-opacity="0.95">ILD — 45° 해칭</text><text x="256" y="461.1" text-anchor="end" font-family="'IBM Plex Mono','JetBrains Mono',ui-monospace,Consolas,monospace" font-size="11" letter-spacing="1.2" fill="#93a4bd" fill-opacity="0.75">DIELECTRIC</text><circle cx="965.4" cy="772.2" r="2.6" fill="#d97a3c" opacity="0.9"/><path d="M 965.4 772.2 L 1332 766.2" stroke="#d7e3f4" stroke-width="0.9" opacity="0.5" fill="none"/><text x="1344" y="770.2" text-anchor="start" font-family="'Pretendard Variable',Pretendard,'Malgun Gothic',sans-serif" font-size="19" font-weight="600" fill="#e8eef7" fill-opacity="0.95">FinFET 힌트</text><text x="1344" y="790.2" text-anchor="start" font-family="'IBM Plex Mono','JetBrains Mono',ui-monospace,Consolas,monospace" font-size="11" letter-spacing="1.2" fill="#93a4bd" fill-opacity="0.75">TRANSISTOR LEVEL</text><text x="30" y="1042" font-family="'IBM Plex Mono','JetBrains Mono',ui-monospace,Consolas,monospace" font-size="17" font-weight="500" letter-spacing="0.5" fill="#e8eef7" fill-opacity="0.85">FIG. 8-ISO — 코너 컷 케이크: 층마다 배선이 굵어지는 지구라트</text></svg>