<svg xmlns="http://www.w3.org/2000/svg" viewBox="0 0 1600 1060" role="img"><svg x="419.2" y="70.0" width="761.5" height="880.0" viewBox="0 0 900 1040"><defs><linearGradient id="fT" x1="0" y1="0" x2="0.4" y2="1"><stop offset="0" stop-color="#5b6b84"/><stop offset="1" stop-color="#3c4a60"/></linearGradient><linearGradient id="fR" x1="0" y1="0" x2="1" y2="1"><stop offset="0" stop-color="#334054"/><stop offset="1" stop-color="#212b3a"/></linearGradient><linearGradient id="fL" x1="1" y1="0" x2="0" y2="1"><stop offset="0" stop-color="#1d2634"/><stop offset="1" stop-color="#111823"/></linearGradient><linearGradient id="inW" x1="0" y1="0" x2="0" y2="1"><stop offset="0" stop-color="#161d28"/><stop offset="1" stop-color="#0c1119"/></linearGradient><linearGradient id="quz" x1="0" y1="0" x2="1" y2="1"><stop offset="0" stop-color="#dcf0fb" stop-opacity="0.9"/><stop offset="0.5" stop-color="#a7cfe6" stop-opacity="0.72"/><stop offset="1" stop-color="#6f9dbd" stop-opacity="0.8"/></linearGradient><linearGradient id="gph" x1="0" y1="0" x2="1" y2="1"><stop offset="0" stop-color="#2a2f38"/><stop offset="1" stop-color="#12151b"/></linearGradient><linearGradient id="ing" x1="0" y1="0" x2="1" y2="0"><stop offset="0" stop-color="#7c8798"/><stop offset="0.42" stop-color="#d3dded"/><stop offset="0.6" stop-color="#aab6c6"/><stop offset="1" stop-color="#5c6675"/></linearGradient><radialGradient id="mlt" cx="0.5" cy="0.42" r="0.62"><stop offset="0" stop-color="#fff6da"/><stop offset="0.32" stop-color="#ffd07a"/><stop offset="0.68" stop-color="#ff7a26"/><stop offset="1" stop-color="#ff7a26" stop-opacity="0"/></radialGradient><radialGradient id="mHalo" cx="0.5" cy="0.5" r="0.5"><stop offset="0" stop-color="#ff9a3c" stop-opacity="0.55"/><stop offset="1" stop-color="#ff7a26" stop-opacity="0"/></radialGradient><clipPath id="cA"><polygon points="581.8,429.5 607.0,444.0 607.0,832.0 581.8,817.5"/></clipPath><clipPath id="cB"><polygon points="334.2,429.5 309.0,444.0 309.0,832.0 334.2,817.5"/></clipPath></defs><ellipse cx="458.0" cy="882.0" rx="238" ry="70" fill="#000000" opacity="0.16"/><ellipse cx="458.0" cy="886.0" rx="182" ry="50" fill="#000000" opacity="0.22"/><polygon points="458.0,982.0 821.7,772.0 821.7,820.0 458.0,1030.0" fill="url(#fR)" stroke="#d7e3f4" stroke-width="1.1" stroke-opacity="0.5"/><polygon points="821.7,772.0 458.0,562.0 458.0,610.0 821.7,820.0" fill="url(#fL)" stroke="#d7e3f4" stroke-width="1.1" stroke-opacity="0.5"/><polygon points="458.0,982.0 821.7,772.0 458.0,562.0 94.3,772.0" fill="url(#fT)" stroke="#d7e3f4" stroke-width="1.6" stroke-opacity="0.9"/><ellipse cx="458.0" cy="966.0" rx="6.5" ry="3.8" fill="#0e131b" stroke="#d7e3f4" stroke-width="0.8" stroke-opacity="0.6"/><ellipse cx="794.0" cy="772.0" rx="6.5" ry="3.8" fill="#0e131b" stroke="#d7e3f4" stroke-width="0.8" stroke-opacity="0.6"/><ellipse cx="458.0" cy="578.0" rx="6.5" ry="3.8" fill="#0e131b" stroke="#d7e3f4" stroke-width="0.8" stroke-opacity="0.6"/><ellipse cx="122.0" cy="772.0" rx="6.5" ry="3.8" fill="#0e131b" stroke="#d7e3f4" stroke-width="0.8" stroke-opacity="0.6"/><polygon points="334.2,429.5 308.7,410.8 291.4,389.2 283.4,365.9 285.0,342.2 296.2,319.3 316.3,298.6 344.3,281.1 378.5,267.9 417.1,259.7 458.0,256.9 498.9,259.7 537.5,267.9 571.7,281.1 599.7,298.6 619.8,319.3 631.0,342.2 632.6,365.9 624.6,389.2 607.3,410.8 581.8,429.5 581.8,817.5 607.3,798.8 624.6,777.2 632.6,753.9 631.0,730.2 619.8,707.3 599.7,686.6 571.7,669.1 537.5,655.9 498.9,647.7 458.0,644.9 417.1,647.7 378.5,655.9 344.3,669.1 316.3,686.6 296.2,707.3 285.0,730.2 283.4,753.9 291.4,777.2 308.7,798.8 334.2,817.5" fill="url(#inW)" stroke="#d7e3f4" stroke-width="1.0" stroke-opacity="0.35"/><polygon points="334.2,817.5 308.7,798.8 291.4,777.2 283.4,753.9 285.0,730.2 296.2,707.3 316.3,686.6 344.3,669.1 378.5,655.9 417.1,647.7 458.0,644.9 498.9,647.7 537.5,655.9 571.7,669.1 599.7,686.6 619.8,707.3 631.0,730.2 632.6,753.9 624.6,777.2 607.3,798.8 581.8,817.5 458.0,746.0" fill="#0c1119" stroke="#d7e3f4" stroke-width="0.8" stroke-opacity="0.25"/><polygon points="395.2,497.4 385.3,488.5 379.2,478.5 377.2,468.0 379.2,457.5 385.3,447.5 395.2,438.6 408.2,431.2 423.8,425.7 441.2,422.4 459.4,421.3 477.6,422.7 494.7,426.4 510.0,432.2 522.6,439.9 531.8,449.0 537.3,459.1 538.8,469.6 536.1,480.1 529.4,489.9 519.0,498.6 570.8,610.6 589.9,594.5 602.3,576.3 607.3,557.0 604.7,537.5 594.5,518.9 577.3,502.1 554.0,487.9 525.8,477.1 494.1,470.3 460.6,467.7 426.9,469.6 394.9,475.8 366.0,486.0 341.9,499.7 323.7,516.2 312.4,534.6 308.6,554.0 312.4,573.4 323.7,591.8 341.9,608.3" fill="#20262f" stroke="#d7e3f4" stroke-width="1.0" stroke-opacity="0.4"/><polyline points="400.9,497.7 392.0,489.6 386.4,480.5 384.5,471.0 386.4,461.5 392.0,452.4 400.9,444.3 412.8,437.6 426.9,432.5 442.7,429.5 459.3,428.6 475.8,429.8 491.4,433.2 505.2,438.5 516.7,445.5 525.1,453.7 530.1,462.9 531.4,472.5 529.0,482.0 522.9,490.9 513.5,498.8" fill="none" stroke="#8fa6c4" stroke-width="1.0" stroke-opacity="0.5"/><polyline points="529.7,779.3 519.7,751.9 529.7,747.3 519.7,719.9 529.7,715.3 519.7,687.9 529.7,683.3 519.7,655.9 529.7,651.3 519.7,623.9" fill="none" stroke="#ff8a34" stroke-width="3.2" stroke-opacity="0.85" stroke-linejoin="round"/><polyline points="529.7,779.3 519.7,751.9 529.7,747.3 519.7,719.9 529.7,715.3 519.7,687.9 529.7,683.3 519.7,655.9 529.7,651.3 519.7,623.9" fill="none" stroke="#ffd9a0" stroke-width="1.1" stroke-opacity="0.9" stroke-linejoin="round"/><polyline points="460.8,789.2 460.4,760.5 460.8,757.2 460.4,728.5 460.8,725.2 460.4,696.5 460.8,693.2 460.4,664.5 460.8,661.2 460.4,632.5" fill="none" stroke="#ff8a34" stroke-width="3.2" stroke-opacity="0.85" stroke-linejoin="round"/><polyline points="460.8,789.2 460.4,760.5 460.8,757.2 460.4,728.5 460.8,725.2 460.4,696.5 460.8,693.2 460.4,664.5 460.8,661.2 460.4,632.5" fill="none" stroke="#ffd9a0" stroke-width="1.1" stroke-opacity="0.9" stroke-linejoin="round"/><polyline points="391.2,780.7 400.5,753.1 391.2,748.7 400.5,721.1 391.2,716.7 400.5,689.1 391.2,684.7 400.5,657.1 391.2,652.7 400.5,625.1" fill="none" stroke="#ff8a34" stroke-width="3.2" stroke-opacity="0.85" stroke-linejoin="round"/><polyline points="391.2,780.7 400.5,753.1 391.2,748.7 400.5,721.1 391.2,716.7 400.5,689.1 391.2,684.7 400.5,657.1 391.2,652.7 400.5,625.1" fill="none" stroke="#ffd9a0" stroke-width="1.1" stroke-opacity="0.9" stroke-linejoin="round"/><polyline points="391.2,615.3 400.5,610.9 391.2,583.3 400.5,578.9 391.2,551.3 400.5,546.9 391.2,519.3 400.5,514.9 391.2,487.3 400.5,482.9" fill="none" stroke="#ff8a34" stroke-width="3.2" stroke-opacity="0.85" stroke-linejoin="round"/><polyline points="391.2,615.3 400.5,610.9 391.2,583.3 400.5,578.9 391.2,551.3 400.5,546.9 391.2,519.3 400.5,514.9 391.2,487.3 400.5,482.9" fill="none" stroke="#ffd9a0" stroke-width="1.1" stroke-opacity="0.9" stroke-linejoin="round"/><polyline points="460.8,606.8 460.4,603.5 460.8,574.8 460.4,571.5 460.8,542.8 460.4,539.5 460.8,510.8 460.4,507.5 460.8,478.8 460.4,475.5" fill="none" stroke="#ff8a34" stroke-width="3.2" stroke-opacity="0.85" stroke-linejoin="round"/><polyline points="460.8,606.8 460.4,603.5 460.8,574.8 460.4,571.5 460.8,542.8 460.4,539.5 460.8,510.8 460.4,507.5 460.8,478.8 460.4,475.5" fill="none" stroke="#ffd9a0" stroke-width="1.1" stroke-opacity="0.9" stroke-linejoin="round"/><polyline points="529.7,616.7 519.7,612.1 529.7,584.7 519.7,580.1 529.7,552.7 519.7,548.1 529.7,520.7 519.7,516.1 529.7,488.7 519.7,484.1" fill="none" stroke="#ff8a34" stroke-width="3.2" stroke-opacity="0.85" stroke-linejoin="round"/><polyline points="529.7,616.7 519.7,612.1 529.7,584.7 519.7,580.1 529.7,552.7 519.7,548.1 529.7,520.7 519.7,516.1 529.7,488.7 519.7,484.1" fill="none" stroke="#ffd9a0" stroke-width="1.1" stroke-opacity="0.9" stroke-linejoin="round"/><polyline points="598.8,656.6 579.1,646.4 598.8,624.6 579.1,614.4 598.8,592.6 579.1,582.4 598.8,560.6 579.1,550.4 598.8,528.6 579.1,518.4" fill="none" stroke="#ff8a34" stroke-width="3.2" stroke-opacity="0.85" stroke-linejoin="round"/><polyline points="598.8,656.6 579.1,646.4 598.8,624.6 579.1,614.4 598.8,592.6 579.1,582.4 598.8,560.6 579.1,550.4 598.8,528.6 579.1,518.4" fill="none" stroke="#ffd9a0" stroke-width="1.1" stroke-opacity="0.9" stroke-linejoin="round"/><polyline points="616.0,699.6 593.9,683.4 616.0,667.6 593.9,651.4 616.0,635.6 593.9,619.4 616.0,603.6 593.9,587.4 616.0,571.6 593.9,555.4" fill="none" stroke="#ff8a34" stroke-width="3.2" stroke-opacity="0.85" stroke-linejoin="round"/><polyline points="616.0,699.6 593.9,683.4 616.0,667.6 593.9,651.4 616.0,635.6 593.9,619.4 616.0,603.6 593.9,587.4 616.0,571.6 593.9,555.4" fill="none" stroke="#ffd9a0" stroke-width="1.1" stroke-opacity="0.9" stroke-linejoin="round"/><polyline points="596.2,742.2 576.9,720.1 596.2,710.2 576.9,688.1 596.2,678.2 576.9,656.1 596.2,646.2 576.9,624.1 596.2,614.2 576.9,592.1" fill="none" stroke="#ff8a34" stroke-width="3.2" stroke-opacity="0.85" stroke-linejoin="round"/><polyline points="596.2,742.2 576.9,720.1 596.2,710.2 576.9,688.1 596.2,678.2 576.9,656.1 596.2,646.2 576.9,624.1 596.2,614.2 576.9,592.1" fill="none" stroke="#ffd9a0" stroke-width="1.1" stroke-opacity="0.9" stroke-linejoin="round"/><polygon points="371.4,632.0 351.9,617.4 339.7,600.3 335.5,582.0 339.7,563.7 351.9,546.6 371.4,532.0 396.8,520.8 426.3,513.7 458.0,511.3 489.7,513.7 519.2,520.8 544.6,532.0 564.1,546.6 576.3,563.7 580.5,582.0 576.3,600.3 564.1,617.4 544.6,632.0 518.6,729.0 532.2,718.7 540.8,706.8 543.7,694.0 540.8,681.2 532.2,669.3 518.6,659.0 500.9,651.1 480.2,646.2 458.0,644.5 435.8,646.2 415.1,651.1 397.4,659.0 383.8,669.3 375.2,681.2 372.3,694.0 375.2,706.8 383.8,718.7 397.4,729.0" fill="url(#gph)" stroke="#d7e3f4" stroke-width="1.1" stroke-opacity="0.45"/><polyline points="371.4,632.0 351.9,617.4 339.7,600.3 335.5,582.0 339.7,563.7 351.9,546.6 371.4,532.0 396.8,520.8 426.3,513.7 458.0,511.3 489.7,513.7 519.2,520.8 544.6,532.0 564.1,546.6 576.3,563.7 580.5,582.0 576.3,600.3 564.1,617.4 544.6,632.0" fill="none" stroke="#8fa6c4" stroke-width="1.2" stroke-opacity="0.55"/><polygon points="380.1,633.0 362.5,619.8 351.5,604.5 347.8,588.0 351.5,571.5 362.5,556.2 380.1,543.0 402.9,532.9 429.5,526.5 458.0,524.4 486.5,526.5 513.1,532.9 535.9,543.0 553.5,556.2 564.5,571.5 568.2,588.0 564.5,604.5 553.5,619.8 535.9,633.0 511.7,721.0 523.8,711.9 531.3,701.3 533.9,690.0 531.3,678.7 523.8,668.1 511.7,659.0 496.0,652.0 477.7,647.7 458.0,646.2 438.3,647.7 420.0,652.0 404.3,659.0 392.2,668.1 384.7,678.7 382.1,690.0 384.7,701.3 392.2,711.9 404.3,721.0" fill="url(#quz)" stroke="#dcf0fb" stroke-width="1.0" stroke-opacity="0.6"/><polyline points="380.1,633.0 362.5,619.8 351.5,604.5 347.8,588.0 351.5,571.5 362.5,556.2 380.1,543.0 402.9,532.9 429.5,526.5 458.0,524.4 486.5,526.5 513.1,532.9 535.9,543.0 553.5,556.2 564.5,571.5 568.2,588.0 564.5,604.5 553.5,619.8 535.9,633.0" fill="none" stroke="#eaf6ff" stroke-width="1.3" stroke-opacity="0.7"/><ellipse cx="458.0" cy="622.0" rx="110.4" ry="65.0" fill="url(#mHalo)"/><ellipse cx="458.0" cy="622.0" rx="100.4" ry="58.0" fill="url(#mlt)" stroke="#ffb765" stroke-width="1.2" stroke-opacity="0.8"/><ellipse cx="458.0" cy="619.0" rx="60.3" ry="34.8" fill="#fff2c4" opacity="0.75"/><ellipse cx="458.0" cy="617.0" rx="28.1" ry="16.2" fill="#fffdf2" opacity="0.9"/><ellipse cx="458.0" cy="614.0" rx="45.3" ry="26.2" fill="#ffcf87" opacity="0.85"/><polygon points="412.7,320.0 412.7,576.0 412.7,576.0 413.2,580.1 414.9,584.1 417.6,587.9 421.3,591.4 426.0,594.5 431.4,597.2 437.4,599.3 444.0,600.9 450.9,601.8 458.0,602.2 465.1,601.8 472.0,600.9 478.6,599.3 484.6,597.2 490.0,594.5 494.7,591.4 498.4,587.9 501.1,584.1 502.8,580.1 503.3,576.0 503.3,320.0" fill="url(#ing)" stroke="#d7e3f4" stroke-width="1.2" stroke-opacity="0.55"/><polygon points="412.7,576.0 458.0,614.0 503.3,576.0 412.7,576.0 413.2,580.1 414.9,584.1 417.6,587.9 421.3,591.4 426.0,594.5 431.4,597.2 437.4,599.3 444.0,600.9 450.9,601.8 458.0,602.2 465.1,601.8 472.0,600.9 478.6,599.3 484.6,597.2 490.0,594.5 494.7,591.4 498.4,587.9 501.1,584.1 502.8,580.1 503.3,576.0" fill="url(#ing)" stroke="#d7e3f4" stroke-width="1.1" stroke-opacity="0.5"/><ellipse cx="458.0" cy="320.0" rx="45.3" ry="26.2" fill="#c2cedd" stroke="#eef4fb" stroke-width="1.0" stroke-opacity="0.7"/><line x1="446.8" y1="569.5" x2="446.8" y2="313.5" stroke="#f2f7fd" stroke-width="3" stroke-opacity="0.5"/><polygon points="309.0,444.0 278.4,421.5 257.7,395.6 248.0,367.5 249.9,339.0 263.4,311.5 287.6,286.5 321.2,265.5 362.4,249.6 408.8,239.7 458.0,236.4 507.2,239.7 553.6,249.6 594.8,265.5 628.4,286.5 652.6,311.5 666.1,339.0 668.0,367.5 658.3,395.6 637.6,421.5 607.0,444.0 497.8,289.0 506.0,283.0 511.6,276.1 514.2,268.6 513.6,260.9 510.0,253.6 503.6,246.9 494.6,241.3 483.6,237.0 471.2,234.4 458.0,233.5 444.8,234.4 432.4,237.0 421.4,241.3 412.4,246.9 406.0,253.6 402.4,260.9 401.8,268.6 404.4,276.1 410.0,283.0 418.2,289.0" fill="url(#fT)" stroke="#d7e3f4" stroke-width="1.3" stroke-opacity="0.55" opacity="0.97"/><line x1="267.1" y1="409.4" x2="406.9" y2="279.7" stroke="#d7e3f4" stroke-width="0.9" stroke-opacity="0.4"/><line x1="267.1" y1="306.6" x2="406.9" y2="252.3" stroke="#d7e3f4" stroke-width="0.9" stroke-opacity="0.4"/><line x1="403.5" y1="240.5" x2="443.4" y2="234.6" stroke="#d7e3f4" stroke-width="0.9" stroke-opacity="0.4"/><line x1="607.0" y1="272.0" x2="497.8" y2="243.0" stroke="#d7e3f4" stroke-width="0.9" stroke-opacity="0.4"/><line x1="661.5" y1="389.5" x2="512.4" y2="274.4" stroke="#d7e3f4" stroke-width="0.9" stroke-opacity="0.4"/><ellipse cx="458.0" cy="266.0" rx="56.3" ry="32.5" fill="#2b3646" stroke="#d7e3f4" stroke-width="1.2" stroke-opacity="0.6"/><ellipse cx="458.0" cy="266.0" rx="26.9" ry="15.6" fill="#0c1119" stroke="#8fa6c4" stroke-width="1.0" stroke-opacity="0.5"/><line x1="452.8" y1="317.0" x2="452.8" y2="227.0" stroke="#c2cedd" stroke-width="4" stroke-opacity="0.9"/><line x1="463.2" y1="323.0" x2="463.2" y2="233.0" stroke="#6b7686" stroke-width="4" stroke-opacity="0.9"/><polygon points="458.0,216.0 482.2,230.0 458.0,244.0 433.8,230.0" fill="url(#fT)" stroke="#d7e3f4" stroke-width="1.2" stroke-opacity="0.6"/><polygon points="482.2,230.0 458.0,244.0 458.0,264.0 482.2,250.0" fill="url(#fR)" stroke="#d7e3f4" stroke-width="1.0" stroke-opacity="0.5"/><line x1="458.0" y1="230.0" x2="458.0" y2="20.0" stroke="#9fb0c4" stroke-width="7" stroke-opacity="0.9"/><line x1="455.8" y1="228.8" x2="455.8" y2="18.8" stroke="#eef4fb" stroke-width="1.6" stroke-opacity="0.7"/><line x1="450.2" y1="195.5" x2="465.8" y2="204.5" stroke="#5c6675" stroke-width="1.4" stroke-opacity="0.6"/><line x1="450.2" y1="159.5" x2="465.8" y2="168.5" stroke="#5c6675" stroke-width="1.4" stroke-opacity="0.6"/><line x1="450.2" y1="123.5" x2="465.8" y2="132.5" stroke="#5c6675" stroke-width="1.4" stroke-opacity="0.6"/><line x1="450.2" y1="87.5" x2="465.8" y2="96.5" stroke="#5c6675" stroke-width="1.4" stroke-opacity="0.6"/><line x1="450.2" y1="51.5" x2="465.8" y2="60.5" stroke="#5c6675" stroke-width="1.4" stroke-opacity="0.6"/><line x1="450.2" y1="15.5" x2="465.8" y2="24.5" stroke="#5c6675" stroke-width="1.4" stroke-opacity="0.6"/><polygon points="668.7,358.0 668.4,364.0 667.6,369.9 666.4,375.8 664.6,381.7 662.3,387.6 659.6,393.3 656.3,399.0 652.6,404.5 648.4,410.0 643.8,415.3 638.7,420.5 633.2,425.6 627.2,430.5 620.8,435.2 614.1,439.7 607.0,444.0 607.0,832.0 614.1,827.7 620.8,823.2 627.2,818.5 633.2,813.6 638.7,808.5 643.8,803.3 648.4,798.0 652.6,792.5 656.3,787.0 659.6,781.3 662.3,775.6 664.6,769.7 666.4,763.8 667.6,757.9 668.4,752.0 668.7,746.0" fill="url(#fR)" stroke="#d7e3f4" stroke-width="1.1" stroke-opacity="0.5"/><polygon points="309.0,444.0 301.9,439.7 295.2,435.2 288.8,430.5 282.8,425.6 277.3,420.5 272.2,415.3 267.6,410.0 263.4,404.5 259.7,399.0 256.4,393.3 253.7,387.6 251.4,381.7 249.6,375.8 248.4,369.9 247.6,364.0 247.3,358.0 247.3,746.0 247.6,752.0 248.4,757.9 249.6,763.8 251.4,769.7 253.7,775.6 256.4,781.3 259.7,787.0 263.4,792.5 267.6,798.0 272.2,803.3 277.3,808.5 282.8,813.6 288.8,818.5 295.2,823.2 301.9,827.7 309.0,832.0" fill="url(#fL)" stroke="#d7e3f4" stroke-width="1.1" stroke-opacity="0.5"/><polygon points="247.3,358.0 249.9,339.0 257.7,320.4 270.3,302.8 287.6,286.5 309.0,272.0 334.2,259.6 362.4,249.6 392.9,242.3 425.0,237.9 458.0,236.4 491.0,237.9 523.1,242.3 553.6,249.6 581.8,259.6 607.0,272.0 628.4,286.5 645.7,302.8 658.3,320.4 666.1,339.0 668.7,358.0 668.7,746.0 666.1,727.0 658.3,708.4 645.7,690.8 628.4,674.5 607.0,660.0 581.8,647.6 553.6,637.6 523.1,630.3 491.0,625.9 458.0,624.4 425.0,625.9 392.9,630.3 362.4,637.6 334.2,647.6 309.0,660.0 287.6,674.5 270.3,690.8 257.7,708.4 249.9,727.0 247.3,746.0" fill="#2a3546" stroke="#d7e3f4" stroke-width="0.9" stroke-opacity="0.35" opacity="0.55"/><polygon points="309.0,444.0 278.4,421.5 257.7,395.6 248.0,367.5 249.9,339.0 263.4,311.5 287.6,286.5 321.2,265.5 362.4,249.6 408.8,239.7 458.0,236.4 507.2,239.7 553.6,249.6 594.8,265.5 628.4,286.5 652.6,311.5 666.1,339.0 668.0,367.5 658.3,395.6 637.6,421.5 607.0,444.0 581.8,429.5 607.3,410.8 624.6,389.2 632.6,365.9 631.0,342.2 619.8,319.3 599.7,298.6 571.7,281.1 537.5,267.9 498.9,259.7 458.0,256.9 417.1,259.7 378.5,267.9 344.3,281.1 316.3,298.6 296.2,319.3 285.0,342.2 283.4,365.9 291.4,389.2 308.7,410.8 334.2,429.5" fill="url(#fT)" stroke="#d7e3f4" stroke-width="1.4" stroke-opacity="0.85"/><polyline points="316.8,439.5 287.8,418.2 268.1,393.6 259.0,367.0 260.8,340.0 273.6,313.9 296.5,290.3 328.3,270.4 367.4,255.3 411.4,245.9 458.0,242.7 504.6,245.9 548.6,255.3 587.7,270.4 619.5,290.3 642.4,313.9 655.2,340.0 657.0,367.0 647.9,393.6 628.2,418.2 599.2,439.5" fill="none" stroke="#8fa6c4" stroke-width="1.0" stroke-opacity="0.5"/><polyline points="327.2,433.5 300.3,413.8 282.1,391.0 273.6,366.4 275.3,341.3 287.1,317.1 308.4,295.2 337.9,276.8 374.0,262.9 414.8,254.2 458.0,251.2 501.2,254.2 542.0,262.9 578.1,276.8 607.6,295.2 628.9,317.1 640.7,341.3 642.4,366.4 633.9,391.0 615.7,413.8 588.8,433.5" fill="none" stroke="#8fa6c4" stroke-width="1.0" stroke-opacity="0.5"/><ellipse cx="389.4" cy="425.0" rx="30" ry="20" fill="#161d28" stroke="#d7e3f4" stroke-width="1.6" stroke-opacity="0.7" transform="rotate(-18 389.4 425.0)"/><ellipse cx="389.4" cy="425.0" rx="19" ry="12" fill="#3a5570" stroke="#bcd2ea" stroke-width="1.0" stroke-opacity="0.7" transform="rotate(-18 389.4 425.0)"/><ellipse cx="384.4" cy="421.0" rx="8" ry="5" fill="#cfe6f5" opacity="0.5" transform="rotate(-18 389.4 425.0)"/><circle cx="414.4" cy="425.0" r="1.8" fill="#0e131b" stroke="#d7e3f4" stroke-width="0.6" stroke-opacity="0.6"/><circle cx="407.1" cy="436.3" r="1.8" fill="#0e131b" stroke="#d7e3f4" stroke-width="0.6" stroke-opacity="0.6"/><circle cx="389.4" cy="441.0" r="1.8" fill="#0e131b" stroke="#d7e3f4" stroke-width="0.6" stroke-opacity="0.6"/><circle cx="371.7" cy="436.3" r="1.8" fill="#0e131b" stroke="#d7e3f4" stroke-width="0.6" stroke-opacity="0.6"/><circle cx="364.4" cy="425.0" r="1.8" fill="#0e131b" stroke="#d7e3f4" stroke-width="0.6" stroke-opacity="0.6"/><circle cx="371.7" cy="413.7" r="1.8" fill="#0e131b" stroke="#d7e3f4" stroke-width="0.6" stroke-opacity="0.6"/><circle cx="389.4" cy="409.0" r="1.8" fill="#0e131b" stroke="#d7e3f4" stroke-width="0.6" stroke-opacity="0.6"/><circle cx="407.1" cy="413.7" r="1.8" fill="#0e131b" stroke="#d7e3f4" stroke-width="0.6" stroke-opacity="0.6"/><line x1="661.5" y1="458.5" x2="730.1" y2="447.9" stroke="#3c4a60" stroke-width="16"/><line x1="661.5" y1="458.5" x2="730.1" y2="447.9" stroke="#7c8da5" stroke-width="4" stroke-opacity="0.7"/><ellipse cx="730.1" cy="447.9" rx="6" ry="9" fill="#0c1119" stroke="#d7e3f4" stroke-width="1.0" stroke-opacity="0.6"/><polyline points="403.6,251.6 458.0,286.0 458.0,346.0" fill="none" stroke="#3c4a60" stroke-width="11" stroke-linejoin="round"/><polyline points="403.6,251.6 458.0,286.0 458.0,346.0" fill="none" stroke="#8fa6c4" stroke-width="3" stroke-opacity="0.7" stroke-linejoin="round"/><ellipse cx="458.0" cy="346.0" rx="7" ry="5" fill="#2b3646" stroke="#d7e3f4" stroke-width="1.0" stroke-opacity="0.6"/><line x1="285.4" y1="670.2" x2="285.4" y2="294.2" stroke="#d7e3f4" stroke-width="1.4" stroke-opacity="0.4"/><line x1="458.0" y1="618.4" x2="458.0" y2="242.4" stroke="#d7e3f4" stroke-width="1.4" stroke-opacity="0.4"/><line x1="640.4" y1="679.2" x2="640.4" y2="303.2" stroke="#d7e3f4" stroke-width="1.4" stroke-opacity="0.4"/><ellipse cx="316.0" cy="826.0" rx="5" ry="3.1" fill="#0e131b" stroke="#d7e3f4" stroke-width="0.8" stroke-opacity="0.6"/><ellipse cx="272.4" cy="788.4" rx="5" ry="3.1" fill="#0e131b" stroke="#d7e3f4" stroke-width="0.8" stroke-opacity="0.6"/><ellipse cx="257.1" cy="744.0" rx="5" ry="3.1" fill="#0e131b" stroke="#d7e3f4" stroke-width="0.8" stroke-opacity="0.6"/><ellipse cx="272.4" cy="699.6" rx="5" ry="3.1" fill="#0e131b" stroke="#d7e3f4" stroke-width="0.8" stroke-opacity="0.6"/><ellipse cx="316.0" cy="662.0" rx="5" ry="3.1" fill="#0e131b" stroke="#d7e3f4" stroke-width="0.8" stroke-opacity="0.6"/><ellipse cx="381.1" cy="636.9" rx="5" ry="3.1" fill="#0e131b" stroke="#d7e3f4" stroke-width="0.8" stroke-opacity="0.6"/><ellipse cx="458.0" cy="628.0" rx="5" ry="3.1" fill="#0e131b" stroke="#d7e3f4" stroke-width="0.8" stroke-opacity="0.6"/><ellipse cx="534.9" cy="636.9" rx="5" ry="3.1" fill="#0e131b" stroke="#d7e3f4" stroke-width="0.8" stroke-opacity="0.6"/><ellipse cx="600.0" cy="662.0" rx="5" ry="3.1" fill="#0e131b" stroke="#d7e3f4" stroke-width="0.8" stroke-opacity="0.6"/><ellipse cx="643.6" cy="699.6" rx="5" ry="3.1" fill="#0e131b" stroke="#d7e3f4" stroke-width="0.8" stroke-opacity="0.6"/><ellipse cx="658.9" cy="744.0" rx="5" ry="3.1" fill="#0e131b" stroke="#d7e3f4" stroke-width="0.8" stroke-opacity="0.6"/><ellipse cx="643.6" cy="788.4" rx="5" ry="3.1" fill="#0e131b" stroke="#d7e3f4" stroke-width="0.8" stroke-opacity="0.6"/><ellipse cx="600.0" cy="826.0" rx="5" ry="3.1" fill="#0e131b" stroke="#d7e3f4" stroke-width="0.8" stroke-opacity="0.6"/><polyline points="309.0,832.0 278.4,809.5 257.7,783.6 248.0,755.5 249.9,727.0 263.4,699.5 287.6,674.5 321.2,653.5 362.4,637.6 408.8,627.7 458.0,624.4 507.2,627.7 553.6,637.6 594.8,653.5 628.4,674.5 652.6,699.5 666.1,727.0 668.0,755.5 658.3,783.6 637.6,809.5 607.0,832.0" fill="none" stroke="#d7e3f4" stroke-width="1.4" stroke-opacity="0.6"/><polyline points="309.0,846.0 278.4,823.5 257.7,797.6 248.0,769.5 249.9,741.0 263.4,713.5 287.6,688.5 321.2,667.5 362.4,651.6 408.8,641.7 458.0,638.4 507.2,641.7 553.6,651.6 594.8,667.5 628.4,688.5 652.6,713.5 666.1,741.0 668.0,769.5 658.3,797.6 637.6,823.5 607.0,846.0" fill="none" stroke="#d7e3f4" stroke-width="1.2" stroke-opacity="0.45"/><polygon points="581.8,429.5 607.0,444.0 607.0,832.0 581.8,817.5" fill="#26313f" stroke="#d7e3f4" stroke-width="1.6" stroke-opacity="0.9"/><line x1="599.2" y1="439.5" x2="599.2" y2="827.5" stroke="#8fa6c4" stroke-width="1.1" stroke-opacity="0.6"/><line x1="588.8" y1="433.5" x2="588.8" y2="821.5" stroke="#8fa6c4" stroke-width="1.1" stroke-opacity="0.6"/><polygon points="599.2,439.5 588.8,433.5 588.8,821.5 599.2,827.5" fill="#2a4a63" fill-opacity="0.5"/><polygon points="334.2,429.5 309.0,444.0 309.0,832.0 334.2,817.5" fill="#1a222e" stroke="#d7e3f4" stroke-width="1.6" stroke-opacity="0.9"/><line x1="316.8" y1="439.5" x2="316.8" y2="827.5" stroke="#8fa6c4" stroke-width="1.1" stroke-opacity="0.6"/><line x1="327.2" y1="433.5" x2="327.2" y2="821.5" stroke="#8fa6c4" stroke-width="1.1" stroke-opacity="0.6"/><polygon points="316.8,439.5 327.2,433.5 327.2,821.5 316.8,827.5" fill="#2a4a63" fill-opacity="0.5"/><g clip-path="url(#cA)"><line x1="581.8" y1="832.0" x2="607.0" y2="857.1" stroke="#d7e3f4" stroke-width="0.6" stroke-opacity="0.35"/><line x1="581.8" y1="819.3" x2="607.0" y2="844.4" stroke="#d7e3f4" stroke-width="0.6" stroke-opacity="0.35"/><line x1="581.8" y1="806.5" x2="607.0" y2="831.7" stroke="#d7e3f4" stroke-width="0.6" stroke-opacity="0.35"/><line x1="581.8" y1="793.8" x2="607.0" y2="818.9" stroke="#d7e3f4" stroke-width="0.6" stroke-opacity="0.35"/><line x1="581.8" y1="781.1" x2="607.0" y2="806.2" stroke="#d7e3f4" stroke-width="0.6" stroke-opacity="0.35"/><line x1="581.8" y1="768.4" x2="607.0" y2="793.5" stroke="#d7e3f4" stroke-width="0.6" stroke-opacity="0.35"/><line x1="581.8" y1="755.6" x2="607.0" y2="780.8" stroke="#d7e3f4" stroke-width="0.6" stroke-opacity="0.35"/><line x1="581.8" y1="742.9" x2="607.0" y2="768.0" stroke="#d7e3f4" stroke-width="0.6" stroke-opacity="0.35"/><line x1="581.8" y1="730.2" x2="607.0" y2="755.3" stroke="#d7e3f4" stroke-width="0.6" stroke-opacity="0.35"/><line x1="581.8" y1="717.5" x2="607.0" y2="742.6" stroke="#d7e3f4" stroke-width="0.6" stroke-opacity="0.35"/><line x1="581.8" y1="704.7" x2="607.0" y2="729.9" stroke="#d7e3f4" stroke-width="0.6" stroke-opacity="0.35"/><line x1="581.8" y1="692.0" x2="607.0" y2="717.1" stroke="#d7e3f4" stroke-width="0.6" stroke-opacity="0.35"/><line x1="581.8" y1="679.3" x2="607.0" y2="704.4" stroke="#d7e3f4" stroke-width="0.6" stroke-opacity="0.35"/><line x1="581.8" y1="666.6" x2="607.0" y2="691.7" stroke="#d7e3f4" stroke-width="0.6" stroke-opacity="0.35"/><line x1="581.8" y1="653.8" x2="607.0" y2="679.0" stroke="#d7e3f4" stroke-width="0.6" stroke-opacity="0.35"/><line x1="581.8" y1="641.1" x2="607.0" y2="666.2" stroke="#d7e3f4" stroke-width="0.6" stroke-opacity="0.35"/><line x1="581.8" y1="628.4" x2="607.0" y2="653.5" stroke="#d7e3f4" stroke-width="0.6" stroke-opacity="0.35"/><line x1="581.8" y1="615.7" x2="607.0" y2="640.8" stroke="#d7e3f4" stroke-width="0.6" stroke-opacity="0.35"/><line x1="581.8" y1="602.9" x2="607.0" y2="628.0" stroke="#d7e3f4" stroke-width="0.6" stroke-opacity="0.35"/><line x1="581.8" y1="590.2" x2="607.0" y2="615.3" stroke="#d7e3f4" stroke-width="0.6" stroke-opacity="0.35"/><line x1="581.8" y1="577.5" x2="607.0" y2="602.6" stroke="#d7e3f4" stroke-width="0.6" stroke-opacity="0.35"/><line x1="581.8" y1="564.8" x2="607.0" y2="589.9" stroke="#d7e3f4" stroke-width="0.6" stroke-opacity="0.35"/><line x1="581.8" y1="552.0" x2="607.0" y2="577.1" stroke="#d7e3f4" stroke-width="0.6" stroke-opacity="0.35"/><line x1="581.8" y1="539.3" x2="607.0" y2="564.4" stroke="#d7e3f4" stroke-width="0.6" stroke-opacity="0.35"/><line x1="581.8" y1="526.6" x2="607.0" y2="551.7" stroke="#d7e3f4" stroke-width="0.6" stroke-opacity="0.35"/><line x1="581.8" y1="513.9" x2="607.0" y2="539.0" stroke="#d7e3f4" stroke-width="0.6" stroke-opacity="0.35"/><line x1="581.8" y1="501.1" x2="607.0" y2="526.2" stroke="#d7e3f4" stroke-width="0.6" stroke-opacity="0.35"/><line x1="581.8" y1="488.4" x2="607.0" y2="513.5" stroke="#d7e3f4" stroke-width="0.6" stroke-opacity="0.35"/><line x1="581.8" y1="475.7" x2="607.0" y2="500.8" stroke="#d7e3f4" stroke-width="0.6" stroke-opacity="0.35"/><line x1="581.8" y1="462.9" x2="607.0" y2="488.1" stroke="#d7e3f4" stroke-width="0.6" stroke-opacity="0.35"/><line x1="581.8" y1="450.2" x2="607.0" y2="475.3" stroke="#d7e3f4" stroke-width="0.6" stroke-opacity="0.35"/><line x1="581.8" y1="437.5" x2="607.0" y2="462.6" stroke="#d7e3f4" stroke-width="0.6" stroke-opacity="0.35"/><line x1="581.8" y1="424.8" x2="607.0" y2="449.9" stroke="#d7e3f4" stroke-width="0.6" stroke-opacity="0.35"/><line x1="581.8" y1="412.0" x2="607.0" y2="437.2" stroke="#d7e3f4" stroke-width="0.6" stroke-opacity="0.35"/></g><g clip-path="url(#cB)"><line x1="309.0" y1="832.0" x2="334.2" y2="857.1" stroke="#d7e3f4" stroke-width="0.6" stroke-opacity="0.35"/><line x1="309.0" y1="819.3" x2="334.2" y2="844.4" stroke="#d7e3f4" stroke-width="0.6" stroke-opacity="0.35"/><line x1="309.0" y1="806.5" x2="334.2" y2="831.7" stroke="#d7e3f4" stroke-width="0.6" stroke-opacity="0.35"/><line x1="309.0" y1="793.8" x2="334.2" y2="818.9" stroke="#d7e3f4" stroke-width="0.6" stroke-opacity="0.35"/><line x1="309.0" y1="781.1" x2="334.2" y2="806.2" stroke="#d7e3f4" stroke-width="0.6" stroke-opacity="0.35"/><line x1="309.0" y1="768.4" x2="334.2" y2="793.5" stroke="#d7e3f4" stroke-width="0.6" stroke-opacity="0.35"/><line x1="309.0" y1="755.6" x2="334.2" y2="780.8" stroke="#d7e3f4" stroke-width="0.6" stroke-opacity="0.35"/><line x1="309.0" y1="742.9" x2="334.2" y2="768.0" stroke="#d7e3f4" stroke-width="0.6" stroke-opacity="0.35"/><line x1="309.0" y1="730.2" x2="334.2" y2="755.3" stroke="#d7e3f4" stroke-width="0.6" stroke-opacity="0.35"/><line x1="309.0" y1="717.5" x2="334.2" y2="742.6" stroke="#d7e3f4" stroke-width="0.6" stroke-opacity="0.35"/><line x1="309.0" y1="704.7" x2="334.2" y2="729.9" stroke="#d7e3f4" stroke-width="0.6" stroke-opacity="0.35"/><line x1="309.0" y1="692.0" x2="334.2" y2="717.1" stroke="#d7e3f4" stroke-width="0.6" stroke-opacity="0.35"/><line x1="309.0" y1="679.3" x2="334.2" y2="704.4" stroke="#d7e3f4" stroke-width="0.6" stroke-opacity="0.35"/><line x1="309.0" y1="666.6" x2="334.2" y2="691.7" stroke="#d7e3f4" stroke-width="0.6" stroke-opacity="0.35"/><line x1="309.0" y1="653.8" x2="334.2" y2="679.0" stroke="#d7e3f4" stroke-width="0.6" stroke-opacity="0.35"/><line x1="309.0" y1="641.1" x2="334.2" y2="666.2" stroke="#d7e3f4" stroke-width="0.6" stroke-opacity="0.35"/><line x1="309.0" y1="628.4" x2="334.2" y2="653.5" stroke="#d7e3f4" stroke-width="0.6" stroke-opacity="0.35"/><line x1="309.0" y1="615.7" x2="334.2" y2="640.8" stroke="#d7e3f4" stroke-width="0.6" stroke-opacity="0.35"/><line x1="309.0" y1="602.9" x2="334.2" y2="628.0" stroke="#d7e3f4" stroke-width="0.6" stroke-opacity="0.35"/><line x1="309.0" y1="590.2" x2="334.2" y2="615.3" stroke="#d7e3f4" stroke-width="0.6" stroke-opacity="0.35"/><line x1="309.0" y1="577.5" x2="334.2" y2="602.6" stroke="#d7e3f4" stroke-width="0.6" stroke-opacity="0.35"/><line x1="309.0" y1="564.8" x2="334.2" y2="589.9" stroke="#d7e3f4" stroke-width="0.6" stroke-opacity="0.35"/><line x1="309.0" y1="552.0" x2="334.2" y2="577.1" stroke="#d7e3f4" stroke-width="0.6" stroke-opacity="0.35"/><line x1="309.0" y1="539.3" x2="334.2" y2="564.4" stroke="#d7e3f4" stroke-width="0.6" stroke-opacity="0.35"/><line x1="309.0" y1="526.6" x2="334.2" y2="551.7" stroke="#d7e3f4" stroke-width="0.6" stroke-opacity="0.35"/><line x1="309.0" y1="513.9" x2="334.2" y2="539.0" stroke="#d7e3f4" stroke-width="0.6" stroke-opacity="0.35"/><line x1="309.0" y1="501.1" x2="334.2" y2="526.2" stroke="#d7e3f4" stroke-width="0.6" stroke-opacity="0.35"/><line x1="309.0" y1="488.4" x2="334.2" y2="513.5" stroke="#d7e3f4" stroke-width="0.6" stroke-opacity="0.35"/><line x1="309.0" y1="475.7" x2="334.2" y2="500.8" stroke="#d7e3f4" stroke-width="0.6" stroke-opacity="0.35"/><line x1="309.0" y1="462.9" x2="334.2" y2="488.1" stroke="#d7e3f4" stroke-width="0.6" stroke-opacity="0.35"/><line x1="309.0" y1="450.2" x2="334.2" y2="475.3" stroke="#d7e3f4" stroke-width="0.6" stroke-opacity="0.35"/><line x1="309.0" y1="437.5" x2="334.2" y2="462.6" stroke="#d7e3f4" stroke-width="0.6" stroke-opacity="0.35"/><line x1="309.0" y1="424.8" x2="334.2" y2="449.9" stroke="#d7e3f4" stroke-width="0.6" stroke-opacity="0.35"/><line x1="309.0" y1="412.0" x2="334.2" y2="437.2" stroke="#d7e3f4" stroke-width="0.6" stroke-opacity="0.35"/></g><line x1="581.8" y1="429.5" x2="581.8" y2="817.5" stroke="#d7e3f4" stroke-width="1.4" stroke-opacity="0.7"/><line x1="334.2" y1="429.5" x2="334.2" y2="817.5" stroke="#d7e3f4" stroke-width="1.4" stroke-opacity="0.7"/><line x1="607.0" y1="444.0" x2="607.0" y2="832.0" stroke="#d7e3f4" stroke-width="1.5" stroke-opacity="0.75"/><line x1="309.0" y1="444.0" x2="309.0" y2="832.0" stroke="#d7e3f4" stroke-width="1.5" stroke-opacity="0.75"/><line x1="458.0" y1="226.0" x2="458.0" y2="786.0" stroke="#d7e3f4" stroke-width="0.6" stroke-opacity="0.12" stroke-dasharray="4 6"/></svg><circle cx="806.8" cy="163.1" r="2.6" fill="#ff7a26" opacity="0.9"/><path d="M 806.8 163.1 L 1332 164.0" stroke="#d7e3f4" stroke-width="0.9" opacity="0.5" fill="none"/><text x="1344" y="168.0" text-anchor="start" font-family="'Pretendard Variable',Pretendard,'Malgun Gothic',sans-serif" font-size="19" font-weight="600" fill="#e8eef7" fill-opacity="0.95">인상 샤프트</text><text x="1344" y="188.0" text-anchor="start" font-family="'IBM Plex Mono','JetBrains Mono',ui-monospace,Consolas,monospace" font-size="11" letter-spacing="1.2" fill="#93a4bd" fill-opacity="0.75">PULL SHAFT</text><circle cx="806.8" cy="264.6" r="2.6" fill="#ff7a26" opacity="0.9"/><path d="M 806.8 264.6 L 1332 258.6" stroke="#d7e3f4" stroke-width="0.9" opacity="0.5" fill="none"/><text x="1344" y="262.6" text-anchor="start" font-family="'Pretendard Variable',Pretendard,'Malgun Gothic',sans-serif" font-size="19" font-weight="600" fill="#e8eef7" fill-opacity="0.95">시드 척</text><text x="1344" y="282.6" text-anchor="start" font-family="'IBM Plex Mono','JetBrains Mono',ui-monospace,Consolas,monospace" font-size="11" letter-spacing="1.2" fill="#93a4bd" fill-opacity="0.75">SEED CHUCK</text><circle cx="806.8" cy="295.1" r="2.6" fill="#ff7a26" opacity="0.9"/><path d="M 806.8 295.1 L 1332 324.6" stroke="#d7e3f4" stroke-width="0.9" opacity="0.5" fill="none"/><text x="1344" y="328.6" text-anchor="start" font-family="'Pretendard Variable',Pretendard,'Malgun Gothic',sans-serif" font-size="19" font-weight="600" fill="#e8eef7" fill-opacity="0.95">챔버 돔 · 수냉 벽</text><text x="1344" y="348.6" text-anchor="start" font-family="'IBM Plex Mono','JetBrains Mono',ui-monospace,Consolas,monospace" font-size="11" letter-spacing="1.2" fill="#93a4bd" fill-opacity="0.75">WATER-COOLED DOME</text><circle cx="768.7" cy="433.8" r="2.6" fill="#ff7a26" opacity="0.9"/><path d="M 768.7 433.8 L 268 427.8" stroke="#d7e3f4" stroke-width="0.9" opacity="0.5" fill="none"/><text x="256" y="431.8" text-anchor="end" font-family="'Pretendard Variable',Pretendard,'Malgun Gothic',sans-serif" font-size="19" font-weight="600" fill="#e8eef7" fill-opacity="0.95">단결정 잉곳 · 숄더</text><text x="256" y="451.8" text-anchor="end" font-family="'IBM Plex Mono','JetBrains Mono',ui-monospace,Consolas,monospace" font-size="11" letter-spacing="1.2" fill="#93a4bd" fill-opacity="0.75">CRYSTAL BODY</text><circle cx="806.8" cy="596.3" r="2.6" fill="#ff7a26" opacity="0.9"/><path d="M 806.8 596.3 L 1332 590.3" stroke="#d7e3f4" stroke-width="0.9" opacity="0.5" fill="none"/><text x="1344" y="594.3" text-anchor="start" font-family="'Pretendard Variable',Pretendard,'Malgun Gothic',sans-serif" font-size="19" font-weight="600" fill="#e8eef7" fill-opacity="0.95">발광 융액 · 1,414°C</text><text x="1344" y="614.3" text-anchor="start" font-family="'IBM Plex Mono','JetBrains Mono',ui-monospace,Consolas,monospace" font-size="11" letter-spacing="1.2" fill="#93a4bd" fill-opacity="0.75">MELT POOL</text><circle cx="723.8" cy="581.9" r="2.6" fill="#ff7a26" opacity="0.9"/><path d="M 723.8 581.9 L 268 637.7" stroke="#d7e3f4" stroke-width="0.9" opacity="0.5" fill="none"/><text x="256" y="641.7" text-anchor="end" font-family="'Pretendard Variable',Pretendard,'Malgun Gothic',sans-serif" font-size="19" font-weight="600" fill="#e8eef7" fill-opacity="0.95">석영 도가니</text><text x="256" y="661.7" text-anchor="end" font-family="'IBM Plex Mono','JetBrains Mono',ui-monospace,Consolas,monospace" font-size="11" letter-spacing="1.2" fill="#93a4bd" fill-opacity="0.75">QUARTZ CRUCIBLE</text><circle cx="932.0" cy="603.1" r="2.6" fill="#ff7a26" opacity="0.9"/><path d="M 932.0 603.1 L 1332 656.3" stroke="#d7e3f4" stroke-width="0.9" opacity="0.5" fill="none"/><text x="1344" y="660.3" text-anchor="start" font-family="'Pretendard Variable',Pretendard,'Malgun Gothic',sans-serif" font-size="19" font-weight="600" fill="#e8eef7" fill-opacity="0.95">히터 세그먼트</text><text x="1344" y="680.3" text-anchor="start" font-family="'IBM Plex Mono','JetBrains Mono',ui-monospace,Consolas,monospace" font-size="11" letter-spacing="1.2" fill="#93a4bd" fill-opacity="0.75">HEATER ZONES</text><circle cx="691.7" cy="577.7" r="2.6" fill="#ff7a26" opacity="0.9"/><path d="M 691.7 577.7 L 268 571.7" stroke="#d7e3f4" stroke-width="0.9" opacity="0.5" fill="none"/><text x="256" y="575.7" text-anchor="end" font-family="'Pretendard Variable',Pretendard,'Malgun Gothic',sans-serif" font-size="19" font-weight="600" fill="#e8eef7" fill-opacity="0.95">컷 단면 — 45° 해칭</text><text x="256" y="595.7" text-anchor="end" font-family="'IBM Plex Mono','JetBrains Mono',ui-monospace,Consolas,monospace" font-size="11" letter-spacing="1.2" fill="#93a4bd" fill-opacity="0.75">SECTION CUT</text><circle cx="1036.9" cy="449.1" r="2.6" fill="#ff7a26" opacity="0.9"/><path d="M 1036.9 449.1 L 1332 443.1" stroke="#d7e3f4" stroke-width="0.9" opacity="0.5" fill="none"/><text x="1344" y="447.1" text-anchor="start" font-family="'Pretendard Variable',Pretendard,'Malgun Gothic',sans-serif" font-size="19" font-weight="600" fill="#e8eef7" fill-opacity="0.95">배기 포트</text><text x="1344" y="467.1" text-anchor="start" font-family="'IBM Plex Mono','JetBrains Mono',ui-monospace,Consolas,monospace" font-size="11" letter-spacing="1.2" fill="#93a4bd" fill-opacity="0.75">EXHAUST</text><circle cx="926.9" cy="768.9" r="2.6" fill="#ff7a26" opacity="0.9"/><path d="M 926.9 768.9 L 1332 762.9" stroke="#d7e3f4" stroke-width="0.9" opacity="0.5" fill="none"/><text x="1344" y="766.9" text-anchor="start" font-family="'Pretendard Variable',Pretendard,'Malgun Gothic',sans-serif" font-size="19" font-weight="600" fill="#e8eef7" fill-opacity="0.95">플랜지 볼트링</text><text x="1344" y="786.9" text-anchor="start" font-family="'IBM Plex Mono','JetBrains Mono',ui-monospace,Consolas,monospace" font-size="11" letter-spacing="1.2" fill="#93a4bd" fill-opacity="0.75">BOLT CIRCLE</text><text x="30" y="1042" font-family="'IBM Plex Mono','JetBrains Mono',ui-monospace,Consolas,monospace" font-size="17" font-weight="500" letter-spacing="0.5" fill="#e8eef7" fill-opacity="0.85">FIG. 2-ISO — 쿼터 컷: 챔버의 1/4을 잘라내자, 1,414°C의 심장이 드러난다</text></svg>